<?xml version="1.0" standalone="no"?>
<!DOCTYPE svg PUBLIC "-//W3C//DTD SVG 1.1//EN" "http://www.w3.org/Graphics/SVG/1.1/DTD/svg11.dtd" >
<svg xmlns="http://www.w3.org/2000/svg" xmlns:xlink="http://www.w3.org/1999/xlink" version="1.1">
<metadata>
Created by FontForge 20161013 at Wed Mar  4 14:07:11 2015
 By ,,,
Copyright (c) 2011 by Hannes von Doehren, Livius Dietzel. All rights reserved.
</metadata>
<defs>
<font id="BrixSlab-Light" horiz-adv-x="560" >
  <font-face 
    font-family="Brix Slab Light"
    font-weight="300"
    font-stretch="normal"
    units-per-em="1000"
    panose-1="2 0 0 0 0 0 0 0 0 0"
    ascent="720"
    descent="-280"
    x-height="456"
    cap-height="676"
    bbox="-180 -227 974 975"
    underline-thickness="50"
    underline-position="-200"
    unicode-range="U+0020-FB02"
  />
<missing-glyph horiz-adv-x="513" 
d="M50 0v656h413v-656h-413zM88 38h337v580h-337v-580z" />
    <glyph glyph-name="fi" unicode="fi" horiz-adv-x="653" 
d="M377 0v53h102v351h-309v-351h112v-53h-239v47l70 12v345h-71v52h71v94q0 70 31 113t100 43q26 0 54 -7v-55q-25 6 -52 6q-43 0 -59.5 -25.5t-16.5 -77.5v-91h366v-403h98v-53h-257zM502 580q-47 0 -47 46q0 47 47 47q20 0 33.5 -12t13.5 -35t-13.5 -34.5t-33.5 -11.5z
" />
    <glyph glyph-name="fl" unicode="fl" horiz-adv-x="605" 
d="M437 106v528q-57 18 -125 18q-75 0 -108.5 -33.5t-33.5 -98.5v-62h142v-54h-142v-351h112v-53h-239v47l71 12v345h-72v54h72v64q0 84 47.5 134t153.5 50q86 0 179 -31v-564q0 -36 10 -51.5t38 -15.5q24 0 45 8l9 -51q-27 -12 -65 -12q-52 0 -73 29t-21 88z" />
    <glyph glyph-name="f_f" unicode="ff" horiz-adv-x="692" 
d="M648 699v-55q-25 6 -52 6q-42 0 -58.5 -25.5t-16.5 -77.5v-91h141v-52h-141v-351h111v-53h-239v47l71 12v345h-294v-351h112v-53h-239v47l70 12v345h-71v52h71v94q0 70 31 113t100 43q26 0 54 -7v-55q-25 6 -52 6q-43 0 -59.5 -25.5t-16.5 -77.5v-91h294v94q0 70 31 113
t100 43q25 0 53 -7z" />
    <glyph glyph-name=".notdef" horiz-adv-x="513" 
d="M50 0v656h413v-656h-413zM88 38h337v580h-337v-580z" />
    <glyph glyph-name=".null" horiz-adv-x="0" 
 />
    <glyph glyph-name=".null" horiz-adv-x="0" 
 />
    <glyph glyph-name="nonmarkingreturn" horiz-adv-x="333" 
 />
    <glyph glyph-name="space" unicode=" " horiz-adv-x="200" 
 />
    <glyph glyph-name="exclam" unicode="!" horiz-adv-x="241" 
d="M144 205h-47l-11 471h71zM122 -7q-22 0 -36.5 14t-14.5 36q0 21 14.5 35.5t36.5 14.5t36.5 -14.5t14.5 -35.5q0 -22 -14.5 -36t-36.5 -14z" />
    <glyph glyph-name="quotedbl" unicode="&#x22;" horiz-adv-x="334" 
d="M218 432l-8 244h64l-11 -244h-45zM70 432l-10 244h66l-10 -244h-46z" />
    <glyph glyph-name="numbersign" unicode="#" horiz-adv-x="610" 
d="M148 213h-101l3 54h106l25 167h-100l4 54h105l29 188h57l-29 -188h152l30 188h56l-29 -188h108l-3 -54h-113l-26 -167h108l-4 -54h-113l-32 -213h-57l33 213h-153l-32 -213h-58zM239 434l-26 -167h152l26 167h-152z" />
    <glyph glyph-name="dollar" unicode="$" 
d="M303 -103h-48v92q-104 5 -177 46v157h50l11 -122q45 -22 116 -27v274l-33 12q-73 26 -109 66t-36 108q0 67 47 119.5t131 61.5v75h48v-73q86 -4 169 -40v-145h-50l-13 107q-63 21 -106 23v-266l37 -12q76 -27 115 -70.5t39 -111.5q0 -66 -51.5 -119.5t-139.5 -61.5v-93z
M318 295l-15 4v-255q56 8 91.5 41.5t35.5 83.5q0 85 -112 126zM140 505q0 -47 27.5 -74.5t87.5 -48.5v246q-55 -8 -85 -43t-30 -80z" />
    <glyph glyph-name="percent" unicode="%" horiz-adv-x="680" 
d="M571 676v-7l-412 -669h-52v7l409 669h55zM185 686q71 0 106 -43t35 -110q0 -69 -35.5 -112t-105.5 -43q-69 0 -104 43t-35 112q0 66 36 109.5t103 43.5zM185 429q45 0 67 28.5t22 75.5q0 46 -22 73.5t-67 27.5q-44 0 -65 -27.5t-21 -73.5q0 -47 21 -75.5t65 -28.5z
M493 297q71 0 106 -42.5t35 -110.5t-35.5 -111.5t-105.5 -43.5q-69 0 -104 43t-35 112q0 67 35.5 110t103.5 43zM493 41q45 0 66.5 28t21.5 75q0 46 -21.5 74t-66.5 28q-44 0 -65.5 -28t-21.5 -74q0 -47 21.5 -75t65.5 -28z" />
    <glyph glyph-name="ampersand" unicode="&#x26;" horiz-adv-x="637" 
d="M530 -11q-78 0 -100 72q-62 -72 -161 -72q-103 0 -159 53t-56 142q0 70 37 113t93 57q-112 31 -112 155q0 84 50 130.5t149 46.5q86 0 159 -40l-21 -52q-68 37 -136 37q-140 0 -140 -126q0 -66 41.5 -97.5t110.5 -31.5h139v122l57 12v-134h110v-53h-110v-209
q0 -30 14.5 -50t45.5 -20q24 0 59 15l7 -53q-36 -17 -77 -17zM271 45q90 0 153 72v206h-143q-163 0 -163 -139q0 -65 37.5 -102t115.5 -37z" />
    <glyph glyph-name="quotesingle" unicode="'" horiz-adv-x="185" 
d="M69 432l-8 244h64l-10 -244h-46z" />
    <glyph glyph-name="parenleft" unicode="(" horiz-adv-x="260" 
d="M233 -206l-45 -16q-68 111 -101 216.5t-33 245.5q0 147 34.5 251t99.5 212l47 -16q-59 -110 -89.5 -211t-30.5 -236q0 -126 28.5 -228.5t89.5 -217.5z" />
    <glyph glyph-name="parenright" unicode=")" horiz-adv-x="259" 
d="M27 -206q60 115 88.5 217.5t28.5 228.5q0 134 -30.5 235.5t-88.5 211.5l47 16q65 -108 99.5 -212t34.5 -251q0 -140 -33 -245.5t-101 -216.5z" />
    <glyph glyph-name="asterisk" unicode="*" horiz-adv-x="470" 
d="M135 338l-40 37l102 121l-147 39l19 53l145 -50l-4 158h58l-7 -157l143 46l14 -56l-142 -35l94 -123l-47 -33l-89 130z" />
    <glyph glyph-name="plus" unicode="+" 
d="M55 242v57h194v198h59v-198h196v-57h-196v-198h-59v198h-194z" />
    <glyph glyph-name="comma" unicode="," horiz-adv-x="197" 
d="M138 94l-47 -208h-47l25 208h69z" />
    <glyph glyph-name="hyphen" unicode="-" 
d="M118 298h324v-57h-324v57z" />
    <glyph glyph-name="period" unicode="." horiz-adv-x="212" 
d="M106 -7q-22 0 -36.5 14t-14.5 36q0 21 14.5 35.5t36.5 14.5t36.5 -14.5t14.5 -35.5q0 -22 -14.5 -36t-36.5 -14z" />
    <glyph glyph-name="slash" unicode="/" horiz-adv-x="348" 
d="M306 676v-11l-206 -665h-56v12l204 664h58z" />
    <glyph glyph-name="zero" unicode="0" horiz-adv-x="603" 
d="M126 336q0 -152 38.5 -222t136.5 -70q97 0 136.5 70.5t39.5 221.5t-39.5 223t-137.5 72q-95 0 -134.5 -72t-39.5 -223zM540 336q0 -168 -56 -257.5t-183 -89.5q-129 0 -183.5 89t-54.5 258q0 170 56 260t181 90q128 0 184 -89.5t56 -260.5z" />
    <glyph glyph-name="one" unicode="1" horiz-adv-x="456" 
d="M60 0v56h171v560l-177 -62l-16 50l197 72h55v-620h149v-56h-379z" />
    <glyph glyph-name="two" unicode="2" horiz-adv-x="533" 
d="M474 0h-424v52q134 135 260 270q48 49 67.5 88t19.5 89q0 59 -33.5 95.5t-105.5 36.5q-69 0 -104 -39t-35 -103q0 -10 2 -26l-59 -4q-3 15 -3 30q0 89 53 143t145 54q101 0 152 -52.5t51 -134.5q0 -46 -19 -89t-38.5 -67t-57.5 -64q-21 -22 -212 -223h288v92h53v-148z
" />
    <glyph glyph-name="three" unicode="3" horiz-adv-x="538" 
d="M119 509h-50l-3 116q83 61 187 61q100 0 151 -48t51 -134q0 -67 -34.5 -107t-82.5 -52q59 -12 97 -54t38 -112q0 -88 -57.5 -139t-168.5 -51q-123 0 -200 72l30 50q68 -66 171 -66q162 0 162 135q0 65 -41 98.5t-132 33.5h-71v57h68q72 0 115.5 33t43.5 98
q0 131 -142 131q-70 0 -132 -36v-86z" />
    <glyph glyph-name="four" unicode="4" horiz-adv-x="553" 
d="M522 209v-54h-110v-155h-58v155h-331v50l264 369q19 27 34.5 52.5t20.5 37.5l6 12h64v-467h110zM92 209h262v370z" />
    <glyph glyph-name="five" unicode="5" horiz-adv-x="528" 
d="M56 45l3 132h52v-99q56 -33 132 -33q81 0 124 43.5t43 127.5q0 73 -38 114t-113 41q-80 0 -144 -44l-38 3l41 346h337v-56h-287l-29 -235q57 42 134 42q95 0 146.5 -55.5t51.5 -153.5q0 -106 -59.5 -167.5t-169.5 -61.5q-108 0 -186 56z" />
    <glyph glyph-name="six" unicode="6" horiz-adv-x="556" 
d="M321 631q-55 0 -95.5 -25.5t-62 -69t-31.5 -92.5t-10 -105q0 -12 1 -20q15 49 64 83.5t117 34.5q98 0 147.5 -59.5t49.5 -157.5q0 -106 -55.5 -168.5t-158.5 -62.5q-115 0 -170.5 86.5t-55.5 245.5q0 76 13.5 139t43 115t81.5 81.5t124 29.5q86 0 163 -40l-24 -53
q-71 38 -141 38zM289 45q79 0 116 48t37 125q0 73 -35.5 116.5t-108.5 43.5q-65 0 -108.5 -36.5t-64.5 -88.5q15 -208 164 -208z" />
    <glyph glyph-name="seven" unicode="7" horiz-adv-x="474" 
d="M135 0l249 623h-289v-125h-56v178h421l-3 -49q-22 -28 -63 -135l-191 -492h-68z" />
    <glyph glyph-name="eight" unicode="8" horiz-adv-x="586" 
d="M509 503q0 -53 -31.5 -95.5t-74.5 -68.5q120 -51 120 -161q0 -90 -60.5 -139.5t-167.5 -49.5q-104 0 -165.5 49.5t-61.5 138.5q0 59 33.5 105t83.5 73q-98 44 -98 146q0 80 53.5 132t155.5 52q105 0 159 -51t54 -131zM362 293l-128 43q-48 -29 -76 -65t-28 -91
q0 -63 43.5 -99.5t124.5 -36.5t121.5 34.5t40.5 96.5q0 85 -98 118zM149 505q0 -79 87 -108l117 -40q94 54 94 144q0 60 -37 95t-116 35q-74 0 -109.5 -34t-35.5 -92z" />
    <glyph glyph-name="nine" unicode="9" horiz-adv-x="556" 
d="M236 45q198 0 198 281q0 13 -1 20q-16 -48 -65.5 -83t-115.5 -35q-98 0 -147.5 61.5t-49.5 165.5q0 103 55.5 167t160.5 64q223 0 223 -338q0 -359 -260 -359q-96 0 -163 42l23 53q69 -39 142 -39zM270 630q-80 0 -117.5 -48t-37.5 -124q0 -171 144 -171q121 0 171 127
q-12 216 -160 216z" />
    <glyph glyph-name="colon" unicode=":" horiz-adv-x="234" 
d="M117 -7q-22 0 -36.5 14t-14.5 36q0 21 14.5 35.5t36.5 14.5t36.5 -14.5t14.5 -35.5q0 -22 -14.5 -36t-36.5 -14zM117 366q-22 0 -36.5 14t-14.5 36t14.5 36t36.5 14t36.5 -14t14.5 -36t-14.5 -36t-36.5 -14z" />
    <glyph glyph-name="semicolon" unicode=";" horiz-adv-x="229" 
d="M117 366q-22 0 -36 14t-14 36t14 36t36 14t36.5 -14t14.5 -36t-14.5 -36t-36.5 -14zM157 94l-48 -208h-46l25 208h69z" />
    <glyph glyph-name="less" unicode="&#x3c;" 
d="M80 240v60l376 169v-59l-322 -140l322 -139v-60z" />
    <glyph glyph-name="equal" unicode="=" 
d="M92 411h376v-57h-376v57zM92 186h376v-57h-376v57z" />
    <glyph glyph-name="greater" unicode="&#x3e;" 
d="M480 300v-60l-376 -169v60l322 139l-322 140v59z" />
    <glyph glyph-name="question" unicode="?" horiz-adv-x="444" 
d="M101 510h-50l-5 115q74 61 173 61q82 0 130 -46t48 -116q0 -129 -157 -196v-123h-59v157q155 50 155 157q0 46 -31 78.5t-88 32.5q-66 0 -116 -35v-85zM208 -7q-22 0 -36.5 14t-14.5 36q0 21 14.5 35.5t36.5 14.5t36.5 -14.5t14.5 -35.5q0 -22 -14.5 -36t-36.5 -14z" />
    <glyph glyph-name="at" unicode="@" horiz-adv-x="883" 
d="M290 224q-16 -87 7 -135t99 -48q81 0 143 70l42 238q-39 65 -116 65q-76 0 -117.5 -49t-57.5 -141zM546 66q-25 -32 -68.5 -54.5t-94.5 -22.5q-101 0 -137 65t-15 177q42 235 236 235q80 0 125 -61l9 51h55l-59 -331q-8 -45 1 -66t39 -21q64 0 105.5 71t41.5 179
q0 139 -83 227t-249 88q-86 0 -153 -29t-107.5 -80.5t-61 -117t-20.5 -141.5q0 -172 83.5 -266.5t258.5 -94.5q99 0 196 41l14 -48q-95 -43 -210 -43q-200 0 -297.5 108.5t-97.5 302.5q0 86 25.5 161t73.5 133t124.5 91t171.5 33q126 0 214.5 -51t129 -132t40.5 -183
q0 -132 -57 -215t-148 -83q-78 0 -85 77z" />
    <glyph glyph-name="A" unicode="A" horiz-adv-x="685" 
d="M454 0v54h96l-63 168h-290l-65 -168h97v-54h-225v54h64l219 568h-61v54h233v-54h-59l217 -568h63v-54h-226zM214 277h257l-127 339z" />
    <glyph glyph-name="B" unicode="B" horiz-adv-x="605" 
d="M49 0v54h77v568h-77v54h271q94 0 142.5 -44.5t48.5 -124.5q0 -62 -30 -103.5t-77 -48.5q58 -11 98.5 -55.5t40.5 -114.5q0 -185 -223 -185h-271zM185 54h126q89 0 130 32.5t41 98.5q0 138 -173 138h-124v-269zM185 377h118q146 0 146 129q0 116 -141 116h-123v-245z" />
    <glyph glyph-name="C" unicode="C" horiz-adv-x="590" 
d="M122 340q0 -85 18 -148t64.5 -104t119.5 -41q113 0 195 61l22 -53q-90 -66 -221 -66q-133 0 -197 92t-64 259q0 159 70.5 252.5t207.5 93.5q93 0 191 -48l-2 -199h-52l-8 158q-66 32 -130 32q-111 0 -162.5 -78t-51.5 -211z" />
    <glyph glyph-name="D" unicode="D" horiz-adv-x="669" 
d="M125 54v568h-77v54h236q95 0 159 -21.5t99.5 -67t50 -104.5t14.5 -145q0 -85 -14.5 -144t-50 -104.5t-99.5 -67.5t-159 -22h-236v54h77zM184 54h104q147 0 202 66t55 220q0 151 -55.5 216.5t-201.5 65.5h-104v-568z" />
    <glyph glyph-name="E" unicode="E" horiz-adv-x="573" 
d="M457 166h60v-166h-468v54h76v568h-76v54h465v-157h-57v103h-273v-246h247v-55h-247v-267h273v112z" />
    <glyph glyph-name="F" unicode="F" horiz-adv-x="545" 
d="M49 0v54h76v568h-76v54h461v-164h-57v110h-269v-275h255v-55h-255v-238h109v-54h-244z" />
    <glyph glyph-name="G" unicode="G" horiz-adv-x="648" 
d="M352 686q110 0 203 -36l-2 -175h-52l-8 133q-63 21 -143 21q-118 0 -173 -77t-55 -203q0 -303 233 -303q96 0 167 31v188h-183v55h244v-281q-100 -50 -228 -50q-148 0 -222.5 93.5t-74.5 264.5q0 152 74.5 245.5t219.5 93.5z" />
    <glyph glyph-name="H" unicode="H" horiz-adv-x="746" 
d="M474 622v54h218v-54h-66v-568h66v-54h-218v54h93v275h-388v-275h94v-54h-219v54h66v568h-66v54h219v-54h-94v-237h388v237h-93z" />
    <glyph glyph-name="I" unicode="I" horiz-adv-x="318" 
d="M45 0v54h86v568h-86v54h228v-54h-83v-568h83v-54h-228z" />
    <glyph glyph-name="J" unicode="J" horiz-adv-x="293" 
d="M25 622v54h220v-54h-65v-596q0 -170 -141 -252l-37 43q62 39 90 85.5t28 112.5v607h-95z" />
    <glyph glyph-name="K" unicode="K" horiz-adv-x="637" 
d="M216 353l241 269h-74v54h221v-54h-76l-241 -268l260 -300h68v-54h-222v54h78zM185 622v-568h82v-54h-219v54h78v568h-78v54h219v-54h-82z" />
    <glyph glyph-name="L" unicode="L" horiz-adv-x="520" 
d="M435 192h55v-192h-441v54h76v568h-76v54h227v-54h-92v-568h251v138z" />
    <glyph glyph-name="M" unicode="M" horiz-adv-x="921" 
d="M459 76l201 600h166v-54h-77l78 -568h73v-54h-230v54h98l-72 556l-208 -610h-62l-200 612l-79 -558h104v-54h-229v54h66l84 568h-77v54h169z" />
    <glyph glyph-name="N" unicode="N" horiz-adv-x="738" 
d="M456 622v54h242v-54h-73v-622h-75l-367 596v-542h112v-54h-245v54h74v568h-74v54h154l362 -596v542h-110z" />
    <glyph glyph-name="O" unicode="O" horiz-adv-x="655" 
d="M124 337q0 -141 46 -216.5t159 -75.5q111 0 157.5 75.5t46.5 216.5q0 142 -46.5 217.5t-159.5 75.5q-111 0 -157 -76t-46 -217zM596 337q0 -348 -269 -348q-268 0 -268 348q0 349 270 349q267 0 267 -349z" />
    <glyph glyph-name="P" unicode="P" horiz-adv-x="575" 
d="M184 622v-568h124v-54h-259v54h76v568h-76v54h274q111 0 163 -53t52 -147q0 -93 -52 -146.5t-163 -53.5h-77v55h79q151 0 151 145q0 146 -151 146h-141z" />
    <glyph glyph-name="Q" unicode="Q" horiz-adv-x="665" 
d="M461 92q23 -19 34 -46q-63 -57 -168 -57q-268 0 -268 348q0 349 270 349q267 0 267 -349q0 -129 -37 -210q40 -52 73 -127h-64q-130 257 -360 257q-42 0 -80 -7q12 -99 59.5 -152t141.5 -53q85 0 132 47zM124 337v-32q36 7 85 7q175 0 304 -131q20 63 20 156
q0 142 -46.5 217.5t-159.5 75.5q-111 0 -157 -76t-46 -217z" />
    <glyph glyph-name="R" unicode="R" horiz-adv-x="637" 
d="M126 54v568h-78v54h284q214 0 214 -181q0 -76 -43.5 -121.5t-124.5 -56.5q52 -36 96.5 -108.5t68.5 -154.5h85v-54h-220v54h69q-21 76 -66 147.5t-104 110.5h-122v-258h88v-54h-224v54h77zM484 494q0 64 -34.5 96t-117.5 32h-147v-256h138q85 0 123 32.5t38 95.5z" />
    <glyph glyph-name="S" unicode="S" horiz-adv-x="530" 
d="M452 647v-162h-49l-13 126q-55 20 -120 20t-101.5 -36.5t-36.5 -89.5q0 -47 24.5 -74t80.5 -47l86 -32q74 -27 112.5 -70t38.5 -111q0 -73 -57 -127.5t-156 -54.5q-113 0 -190 42l-10 177h49l21 -140q55 -25 130 -25q65 0 107 34.5t42 91.5q0 86 -107 126l-93 34
q-71 26 -105.5 66.5t-34.5 107.5q0 73 53 128t147 55q98 0 182 -39z" />
    <glyph glyph-name="T" unicode="T" horiz-adv-x="559" 
d="M29 676h501v-161h-52v107h-172v-568h98v-54h-257v54h100v568h-165v-107h-53v161z" />
    <glyph glyph-name="U" unicode="U" horiz-adv-x="691" 
d="M346 -11q-240 0 -240 258v375h-71v54h232v-54h-103v-379q0 -107 48 -152.5t134 -45.5q181 0 181 198v379h-102v54h232v-54h-71v-375q0 -258 -240 -258z" />
    <glyph glyph-name="V" unicode="V" horiz-adv-x="662" 
d="M433 622v54h229v-54h-71l-220 -622h-80l-220 622h-66v54h227v-54h-96l196 -566l193 566h-92z" />
    <glyph glyph-name="W" unicode="W" horiz-adv-x="979" 
d="M717 622v54h257v-54h-71l-174 -622h-75l-163 463l-164 -463h-75l-176 622h-72v54h238v-54h-104l155 -561l169 476l-50 139h67l211 -614l154 560h-127z" />
    <glyph glyph-name="X" unicode="X" horiz-adv-x="646" 
d="M31 622v54h228v-54h-76l140 -230l138 230h-76v54h227v-54h-82l-175 -272l192 -296h80v-54h-228v54h77l-155 249l-150 -249h80v-54h-228v54h78l186 296l-174 272h-82z" />
    <glyph glyph-name="Y" unicode="Y" horiz-adv-x="607" 
d="M6 622v54h220v-54h-94l172 -295l176 295h-95v54h221v-54h-60l-214 -348v-220h96v-54h-255v54h101v220l-207 348h-61z" />
    <glyph glyph-name="Z" unicode="Z" 
d="M503 676v-52l-385 -570h325v149h56v-203h-453v52l385 570h-309v-124h-56v178h437z" />
    <glyph glyph-name="bracketleft" unicode="[" horiz-adv-x="288" 
d="M81 696h180v-54h-121v-804h121v-54h-180v912z" />
    <glyph glyph-name="backslash" unicode="\" horiz-adv-x="350" 
d="M42 665v11h59l205 -664v-12h-56z" />
    <glyph glyph-name="bracketright" unicode="]" horiz-adv-x="288" 
d="M27 696h180v-912h-180v54h121v804h-121v54z" />
    <glyph glyph-name="asciicircum" unicode="^" horiz-adv-x="650" 
d="M96 469l229 229l229 -229l-40 -40l-189 189l-189 -189z" />
    <glyph glyph-name="underscore" unicode="_" horiz-adv-x="518" 
d="M59 -31h400v-49h-400v49z" />
    <glyph glyph-name="grave" unicode="`" horiz-adv-x="600" 
d="M228 696h66l78 -151h-57z" />
    <glyph glyph-name="a" unicode="a" horiz-adv-x="485" 
d="M129 388v-85h-47q-12 34 -12 69q0 43 41.5 68.5t123.5 25.5q39 0 66.5 -4.5t45.5 -16t28 -22.5t14.5 -35t5.5 -42t1 -53v-209q0 -37 29 -37q9 0 39 5v-53q-24 -5 -53 -5q-31 0 -50 17.5t-20 49.5q-63 -72 -158 -72q-140 0 -140 127q0 63 51.5 94.5t151.5 44.5l92 12v121
q-33 25 -103 25q-71 0 -106 -25zM105 118q0 -77 88 -77q85 0 145 62v119l-88 -13q-77 -11 -111 -30.5t-34 -60.5z" />
    <glyph glyph-name="b" unicode="b" horiz-adv-x="514" 
d="M135 696v-288q47 58 134 58q196 0 196 -237q0 -112 -49 -176t-147 -64q-89 0 -137 60l-22 -49h-32v642h-70v54h127zM403 229q0 87 -31 134.5t-112 47.5q-85 0 -125 -67v-230q42 -70 125 -70q79 0 111 49t32 136z" />
    <glyph glyph-name="c" unicode="c" horiz-adv-x="465" 
d="M255 44q85 0 149 47l19 -51q-81 -51 -174 -51q-100 0 -150 65.5t-50 174.5q0 105 51.5 171t150.5 66q91 0 163 -37l-15 -149h-46v116q-45 18 -100 18q-73 0 -107 -49.5t-34 -133.5q0 -187 143 -187z" />
    <glyph glyph-name="d" unicode="d" horiz-adv-x="533" 
d="M382 408v234h-99v54h156v-643h70v-53h-58q-34 0 -49 14t-16 46q-59 -71 -142 -71q-194 0 -194 240q0 111 48.5 174t147.5 63q89 0 136 -58zM112 229q0 -185 141 -185q77 0 128 70v230q-38 67 -126 67q-143 0 -143 -182z" />
    <glyph glyph-name="e" unicode="e" horiz-adv-x="472" 
d="M251 42q78 0 150 53l21 -48q-76 -58 -172 -58q-201 0 -201 240q0 106 49.5 171.5t146.5 65.5q86 0 131.5 -55t45.5 -134q0 -29 -6 -67h-305q2 -168 140 -168zM112 259h250q2 12 2 22q0 60 -31 96.5t-89 36.5q-68 0 -98 -41t-34 -114z" />
    <glyph glyph-name="f" unicode="f" horiz-adv-x="341" 
d="M298 699v-55q-25 6 -52 6q-43 0 -59.5 -25.5t-16.5 -77.5v-91h142v-52h-142v-351h112v-53h-239v47l70 12v345h-71v52h71v94q0 70 31.5 113t100.5 43q25 0 53 -7z" />
    <glyph glyph-name="g" unicode="g" horiz-adv-x="483" 
d="M477 449l-102 -42q41 -43 41 -113q0 -76 -48 -119.5t-135 -43.5q-49 0 -76 10l-19 -91h148q153 0 153 -118q0 -71 -59 -114.5t-156 -43.5q-192 0 -192 126q0 38 24.5 68t55.5 40q-30 11 -30 49q0 48 46 94q-80 40 -80 144q0 80 47.5 125.5t138.5 45.5q74 0 114 -29
q55 66 119 66zM233 180q123 0 123 115q0 53 -30 85.5t-93 32.5q-126 0 -126 -118q0 -52 30.5 -83.5t95.5 -31.5zM148 -4q-56 -34 -56 -84q0 -87 134 -87q66 0 108.5 26t42.5 76q0 69 -96 69h-133z" />
    <glyph glyph-name="h" unicode="h" horiz-adv-x="563" 
d="M26 0v53h71v589h-78v54h135v-286q25 23 70.5 39.5t91.5 16.5q86 0 120 -41.5t34 -130.5v-241h70v-53h-211v53h84v238q0 63 -20 91.5t-86 28.5q-44 0 -86 -16.5t-67 -37.5v-304h84v-53h-212z" />
    <glyph glyph-name="i" unicode="i" horiz-adv-x="311" 
d="M35 0v53h102v350h-102v53h159v-403h98v-53h-257zM160 580q-47 0 -47 46q0 47 47 47q20 0 33.5 -12t13.5 -35t-13.5 -34.5t-33.5 -11.5z" />
    <glyph glyph-name="j" unicode="j" horiz-adv-x="246" 
d="M52 -226l-26 48q48 19 66.5 49t18.5 95v437h-91v53h148v-486q0 -78 -24.5 -126t-91.5 -70zM133 580q-47 0 -47 46q0 47 47 47q20 0 33.5 -12t13.5 -35t-13.5 -34.5t-33.5 -11.5z" />
    <glyph glyph-name="k" unicode="k" horiz-adv-x="549" 
d="M375 0v45l-135 192l-85 -75v-109h103v-53h-230v53h70v589h-77v54h134v-479l210 186h-78v53h213v-53h-68l-151 -135l155 -215h92v-53h-153z" />
    <glyph glyph-name="l" unicode="l" horiz-adv-x="246" 
d="M78 106v536h-88v54h145v-585q0 -36 10.5 -51.5t37.5 -15.5q25 0 46 8l9 -51q-28 -12 -65 -12q-52 0 -73.5 29t-21.5 88z" />
    <glyph glyph-name="m" unicode="m" horiz-adv-x="817" 
d="M42 0v53h70v350h-69v53h122v-46q54 56 135 56q89 0 131 -65q57 65 153 65q79 0 110.5 -41.5t31.5 -127.5v-244h68v-53h-192v53h66v241q0 62 -18.5 89.5t-71.5 27.5q-82 0 -127 -54v-304h66v-53h-191v53h67v302q-28 56 -103 56q-72 0 -122 -54v-304h67v-53h-193z" />
    <glyph glyph-name="n" unicode="n" horiz-adv-x="571" 
d="M42 0v53h70v350h-69v53h122v-49q25 24 70 41.5t93 17.5q85 0 118 -41.5t33 -130.5v-241h69v-53h-208v53h82v238q0 63 -19 91.5t-85 28.5q-44 0 -85 -16.5t-65 -37.5v-304h83v-53h-209z" />
    <glyph glyph-name="o" unicode="o" horiz-adv-x="504" 
d="M252 466q202 0 202 -237q0 -240 -204 -240q-104 0 -152 63.5t-48 175.5q0 111 48.5 174.5t153.5 63.5zM252 43q77 0 108.5 47t31.5 138t-31.5 137.5t-108.5 46.5t-109 -46.5t-32 -136.5q0 -91 32 -138.5t109 -47.5z" />
    <glyph glyph-name="p" unicode="p" horiz-adv-x="532" 
d="M262 -216h-233v48l67 11v560h-71v53h126v-51q45 61 135 61q100 0 148 -62.5t48 -176.5q0 -112 -48 -175t-148 -63q-87 0 -133 58v-210h109v-53zM421 227q0 87 -32 135.5t-111 48.5q-86 0 -125 -69v-230q39 -68 125 -68q79 0 111 48t32 135z" />
    <glyph glyph-name="q" unicode="q" horiz-adv-x="514" 
d="M503 -216h-233v53h109v210q-46 -58 -133 -58q-100 0 -148 63t-48 175q0 239 196 239q82 0 136 -56l13 86h41v-654l67 -11v-47zM379 112v230q-39 69 -125 69q-79 0 -111 -48.5t-32 -135.5t32 -135t111 -48q84 0 125 68z" />
    <glyph glyph-name="r" unicode="r" horiz-adv-x="391" 
d="M42 403v53h125v-98q17 44 53.5 76t78.5 32q45 0 75 -7l-8 -73l-72 20q-36 -3 -71.5 -31t-53.5 -71v-251h113v-53h-240v47l70 12v344h-70z" />
    <glyph glyph-name="s" unicode="s" horiz-adv-x="432" 
d="M368 439v-121h-46l-11 85q-38 14 -89 14q-49 0 -73 -23t-24 -55q0 -51 62 -70l82 -27q57 -18 86 -47.5t29 -78.5q0 -55 -46 -91t-125 -36q-76 0 -154 35l-12 136h46l22 -103q45 -20 98 -20q48 0 78 20t30 56q0 30 -18 47t-55 28l-86 28q-100 33 -100 119q0 54 40.5 92.5
t118.5 38.5t147 -27z" />
    <glyph glyph-name="t" unicode="t" horiz-adv-x="334" 
d="M162 403v-281q0 -78 66 -78q43 0 72 14l11 -52q-37 -17 -95 -17q-56 0 -83.5 34.5t-27.5 94.5v285h-89v43l89 10v116l57 12v-128h133v-53h-133z" />
    <glyph glyph-name="u" unicode="u" horiz-adv-x="559" 
d="M461 456v-403h71v-53h-122v69q-25 -32 -71 -56t-98 -24q-79 0 -111 41.5t-32 131.5v241h-78v53h135v-291q0 -63 18.5 -91.5t79.5 -28.5q47 0 89 23.5t62 54.5v280h-98v53h155z" />
    <glyph glyph-name="v" unicode="v" horiz-adv-x="537" 
d="M316 403v53h209v-53h-63l-156 -403h-76l-157 403h-61v53h209v-53h-86l134 -352l134 352h-87z" />
    <glyph glyph-name="w" unicode="w" horiz-adv-x="790" 
d="M562 403v53h215v-53h-62l-128 -403h-69l-121 295l-126 -295h-67l-132 403h-59v53h207v-53h-87l110 -344l124 296l-41 101h62l163 -397l103 344h-92z" />
    <glyph glyph-name="x" unicode="x" horiz-adv-x="554" 
d="M269 202l-109 -149h95v-53h-222v53h65l139 181l-115 169h-88v53h153v-45l97 -144l100 136h-95v53h222v-53h-67l-129 -171l128 -179h85v-53h-151v45z" />
    <glyph glyph-name="y" unicode="y" horiz-adv-x="575" 
d="M79 -215v49h111l81 180l-162 389h-98v53h159v-49l131 -329l141 325h-125v53h247v-53h-60l-251 -565q-28 -64 -95 -64q-46 0 -79 11z" />
    <glyph glyph-name="z" unicode="z" horiz-adv-x="444" 
d="M386 456v-47l-270 -359h223l10 103h44v-153h-349v47l270 360h-203l-10 -87h-44v136h329z" />
    <glyph glyph-name="braceleft" unicode="{" horiz-adv-x="282" 
d="M171 558v-217q0 -85 -72 -101q25 -4 48.5 -29t23.5 -73v-218q0 -49 17.5 -65.5t58.5 -18.5v-52q-70 0 -102.5 30.5t-32.5 104.5v215q0 45 -22.5 62.5t-64.5 17.5v52q47 0 67 17t20 62v216q0 74 32.5 104.5t102.5 30.5v-52q-41 -2 -58.5 -19t-17.5 -67z" />
    <glyph glyph-name="bar" unicode="|" horiz-adv-x="209" 
d="M128 -216h-47v912h47v-912z" />
    <glyph glyph-name="braceright" unicode="}" horiz-adv-x="282" 
d="M111 341v217q0 50 -17.5 67t-58.5 19v52q70 0 102.5 -30.5t32.5 -104.5v-216q0 -45 20 -62t67 -17v-52q-42 0 -64.5 -17.5t-22.5 -62.5v-215q0 -74 -32.5 -104.5t-102.5 -30.5v52q41 2 58.5 18.5t17.5 65.5v218q0 48 23.5 73t48.5 29q-72 16 -72 101z" />
    <glyph glyph-name="asciitilde" unicode="~" horiz-adv-x="466" 
d="M407 296l-12 -55q-44 38 -77 38q-26 0 -81 -38t-91 -38q-23 0 -48 12t-37 25l9 58q40 -38 75 -38q29 0 82 38t90 38q47 0 90 -40z" />
    <glyph glyph-name="uni00A0" unicode="&#xa0;" horiz-adv-x="200" 
 />
    <glyph glyph-name="exclamdown" unicode="&#xa1;" horiz-adv-x="225" 
d="M89 254h47l11 -471h-71zM112 466q22 0 36 -14t14 -36q0 -21 -14 -35t-36 -14t-37 14t-15 35q0 22 14.5 36t37.5 14z" />
    <glyph glyph-name="cent" unicode="&#xa2;" 
d="M387 530l-17 -72q64 -14 108 -46l-20 -51q-45 34 -101 45l-87 -359q14 -3 45 -3q80 1 143 50l20 -51q-78 -54 -179 -54q-16 0 -42 4l-15 -61l-41 10l14 62q-62 23 -92.5 82.5t-30.5 142.5q0 106 52.5 171.5t154.5 65.5q5 0 14 -0.5t14 -0.5l18 75zM155 231
q0 -130 74 -170l85 351q-159 -1 -159 -181z" />
    <glyph glyph-name="sterling" unicode="&#xa3;" 
d="M55 291h69v155q0 108 50 174t155 66q95 0 175 -37l-14 -140h-46v104q-52 18 -114 18q-145 0 -145 -188v-152h204v-49h-204v-189h309v-53h-439v44l69 19v179h-69v49z" />
    <glyph glyph-name="currency" unicode="&#xa4;" 
d="M405 356q16 -32 16 -79q0 -48 -17 -84l79 -81l-40 -41l-79 76q-31 -25 -87 -25q-55 0 -87 24l-72 -72l-40 40l75 76q-18 33 -18 86q0 47 17 81l-77 78l41 41l73 -74q33 28 90 28q56 0 91 -28l73 72l39 -39zM278 176q87 0 87 100t-87 100q-88 0 -88 -99q0 -101 88 -101z
" />
    <glyph glyph-name="yen" unicode="&#xa5;" 
d="M76 291h165l-50 87h-115v49h87l-111 195h-59v54h212v-54h-89l162 -292l165 292h-90v54h213v-54h-58l-115 -195h87v-49h-116l-52 -87h168v-49h-174v-188h90v-54h-243v54h94v188h-171v49z" />
    <glyph glyph-name="brokenbar" unicode="&#xa6;" horiz-adv-x="218" 
d="M133 306h-47v390h47v-390zM86 170h47v-386h-47v386z" />
    <glyph glyph-name="section" unicode="&#xa7;" horiz-adv-x="551" 
d="M490 262q0 -75 -82 -126q78 -43 78 -110q0 -66 -57 -103.5t-163 -37.5q-112 0 -194 53v122h47l10 -90q22 -14 61 -24t75 -10q157 0 157 86q0 31 -27.5 50.5t-83.5 42.5l-113 45q-62 24 -97 57.5t-35 84.5q0 37 21.5 71t56.5 55q-74 44 -74 114q0 62 51.5 103t154.5 41
q100 0 193 -43v-111h-46l-13 76q-65 26 -133 26q-70 0 -106.5 -23.5t-36.5 -64.5q0 -35 32 -57.5t95 -45.5l78 -29q76 -28 113.5 -61.5t37.5 -90.5zM195 404q-31 -15 -48.5 -41t-17.5 -54q0 -61 102 -100l126 -49q29 15 49.5 40.5t20.5 56.5q0 40 -29.5 61.5t-85.5 41.5z
" />
    <glyph glyph-name="dieresis" unicode="&#xa8;" horiz-adv-x="600" 
d="M212 570q-47 0 -47 46q0 47 47 47q20 0 33.5 -12t13.5 -35t-13.5 -34.5t-33.5 -11.5zM388 570q-47 0 -47 46q0 47 47 47q20 0 33.5 -12t13.5 -35t-13.5 -34.5t-33.5 -11.5z" />
    <glyph glyph-name="copyright" unicode="&#xa9;" horiz-adv-x="807" 
d="M57 338q0 158 98.5 255t248.5 97t248 -97t98 -255t-98 -256.5t-248 -98.5t-248.5 98.5t-98.5 256.5zM109 338q0 -139 82.5 -222.5t212.5 -83.5q129 0 211.5 83.5t82.5 222.5t-82 221t-212 82t-212.5 -82t-82.5 -221zM273 336q0 -159 124 -159q71 0 134 43l14 -48
q-74 -45 -150 -45q-176 0 -176 209q0 97 47.5 152.5t139.5 55.5q62 0 128 -31v-116h-48v80q-34 17 -80 17q-133 0 -133 -158z" />
    <glyph glyph-name="ordfeminine" unicode="&#xaa;" horiz-adv-x="373" 
d="M102 428q0 -43 50 -43t84 34v58h-47q-87 0 -87 -49zM117 585v-43h-39l-7 70q41 27 104 27q110 0 110 -88v-141q0 -20 17 -20q10 0 22 3v-43q-16 -3 -35 -3q-47 0 -50 38q-42 -42 -96 -42q-93 0 -93 82q0 87 137 87h49v36q0 49 -61 49q-36 0 -58 -12z" />
    <glyph glyph-name="guillemotleft" unicode="&#xab;" horiz-adv-x="475" 
d="M42 270l169 207l39 -34l-132 -173l132 -173l-39 -34zM218 270l169 207l39 -34l-132 -173l132 -173l-39 -34z" />
    <glyph glyph-name="logicalnot" unicode="&#xac;" horiz-adv-x="600" 
d="M72 317v57h449v-244h-57v187h-392z" />
    <glyph glyph-name="uni00AD" unicode="&#xad;" 
d="M118 298h324v-57h-324v57z" />
    <glyph glyph-name="registered" unicode="&#xae;" horiz-adv-x="807" 
d="M57 338q0 158 98.5 255t248.5 97t248 -97t98 -255t-98 -256.5t-248 -98.5t-248.5 98.5t-98.5 256.5zM109 338q0 -139 82.5 -222.5t212.5 -83.5q129 0 211.5 83.5t82.5 222.5t-82 221t-212 82t-212.5 -82t-82.5 -221zM276 173v325h-49v42h191q146 0 146 -117
q0 -46 -27 -75.5t-78 -36.5l91 -138h47v-42h-153v42h51l-86 133h-83v-133h55v-42h-154v42h49zM513 422q0 76 -95 76h-92v-150h87q100 0 100 74z" />
    <glyph glyph-name="macron" unicode="&#xaf;" horiz-adv-x="600" 
d="M165 635h270v-53h-270v53z" />
    <glyph glyph-name="degree" unicode="&#xb0;" horiz-adv-x="363" 
d="M45 547q0 61 37.5 100t97.5 39q62 0 99.5 -39t37.5 -100q0 -60 -38 -99.5t-99 -39.5q-60 0 -97.5 39.5t-37.5 99.5zM87 547q0 -44 25 -71t68 -27q44 0 69 26.5t25 71.5q0 44 -25 71t-69 27q-42 0 -67.5 -27t-25.5 -71z" />
    <glyph glyph-name="plusminus" unicode="&#xb1;" 
d="M55 373v57h194v198h59v-198h196v-57h-196v-186h-59v186h-194zM55 35v57h449v-57h-449z" />
    <glyph glyph-name="twosuperior" unicode="&#xb2;" horiz-adv-x="316" 
d="M280 443h-245v39q6 6 64 58t68 62q28 26 39.5 44.5t11.5 45.5q0 26 -16 41.5t-48 15.5q-31 0 -48.5 -16t-17.5 -42q0 -11 3 -19l-52 -4q-2 7 -2 23q0 46 30.5 74t86.5 28q58 0 88 -28t30 -73q0 -57 -72 -119q-12 -10 -35 -30.5t-41 -36.5t-20 -18h133v41h43v-86z" />
    <glyph glyph-name="threesuperior" unicode="&#xb3;" horiz-adv-x="312" 
d="M82 695h-39l-4 66q45 32 108 32q60 0 89 -27t29 -68q0 -33 -18 -53.5t-46 -26.5q75 -15 75 -82q0 -46 -34 -72.5t-98 -26.5q-72 0 -115 38l24 39q37 -32 91 -32q79 0 79 55q0 28 -20 41.5t-66 13.5h-40v45h38q35 0 56 14t21 41q0 56 -66 56q-36 0 -64 -14v-39z" />
    <glyph glyph-name="acute" unicode="&#xb4;" horiz-adv-x="600" 
d="M306 696h66l-87 -151h-57z" />
    <glyph glyph-name="mu" unicode="&#xb5;" horiz-adv-x="595" 
d="M177 -216h-57v619h-78v53h135v-291q0 -60 23 -90t85 -30q47 0 84.5 23t57.5 55v280h-98v53h155v-403h71v-53h-122v69q-63 -80 -160 -80q-66 0 -96 30v-235z" />
    <glyph glyph-name="paragraph" unicode="&#xb6;" horiz-adv-x="500" 
d="M195 456h101v-515h-55v228h-46q-80 0 -119 38.5t-39 105.5q0 66 39.5 104.5t118.5 38.5zM301 -226l-25 44q48 18 66 49t18 97v492h54v-486q0 -79 -23 -126.5t-90 -69.5z" />
    <glyph glyph-name="periodcentered" unicode="&#xb7;" horiz-adv-x="228" 
d="M114 219q-22 0 -36.5 14t-14.5 36q0 21 14.5 35.5t36.5 14.5t36.5 -14.5t14.5 -35.5q0 -22 -14.5 -36t-36.5 -14z" />
    <glyph glyph-name="cedilla" unicode="&#xb8;" horiz-adv-x="600" 
d="M280 0h46l-23 -60q10 4 27 4q27 0 46.5 -18.5t19.5 -48.5q0 -33 -24.5 -54t-72.5 -21q-44 0 -96 23l10 41q44 -25 85 -25q47 0 47 36q0 15 -11.5 24.5t-28.5 9.5t-30 -5q-13 5 -25 10z" />
    <glyph glyph-name="onesuperior" unicode="&#xb9;" horiz-adv-x="276" 
d="M39 443v45h94v249l-94 -32l-12 41l111 42h46v-300h79v-45h-224z" />
    <glyph glyph-name="ordmasculine" unicode="&#xba;" horiz-adv-x="366" 
d="M183 639q68 0 101 -40.5t33 -106.5q0 -68 -33 -108.5t-102 -40.5q-67 0 -100 41t-33 108q0 66 33.5 106.5t100.5 40.5zM183 388q83 0 83 104q0 102 -83 102t-83 -102q0 -104 83 -104z" />
    <glyph glyph-name="guillemotright" unicode="&#xbb;" horiz-adv-x="475" 
d="M264 477l169 -207l-169 -207l-39 34l132 173l-132 173zM88 477l169 -207l-169 -207l-39 34l132 173l-132 173z" />
    <glyph glyph-name="onequarter" unicode="&#xbc;" horiz-adv-x="681" 
d="M601 676v-7l-412 -669h-51v7l409 669h54zM631 116v-42h-57v-74h-51v74h-179v38l138 179l34 54h58v-229h57zM401 116h122v160zM59 331v45h94v249l-94 -32l-12 41l111 42h46v-300h79v-45h-224z" />
    <glyph glyph-name="onehalf" unicode="&#xbd;" horiz-adv-x="711" 
d="M59 331v45h94v249l-94 -32l-12 41l111 42h46v-300h79v-45h-224zM658 0h-245v39q123 110 132 119q28 27 39.5 46t11.5 45t-16 41.5t-48 15.5q-31 0 -48.5 -16t-17.5 -42q0 -4 3 -19l-52 -4q-2 14 -2 23q0 45 30.5 73.5t86.5 28.5q58 0 88 -28t30 -73q0 -58 -72 -120
q-74 -63 -95 -84h132v41h43v-86zM601 676v-7l-412 -669h-51v7l409 669h54z" />
    <glyph glyph-name="threequarters" unicode="&#xbe;" horiz-adv-x="658" 
d="M579 676v-7l-412 -669h-51v7l409 669h54zM101 583h-39l-4 66q45 32 108 32q60 0 89 -27t29 -68q0 -33 -18 -53.5t-46 -26.5q75 -15 75 -82q0 -46 -34 -72.5t-98 -26.5q-72 0 -115 38l24 39q37 -32 91 -32q79 0 79 55q0 28 -20 41.5t-66 13.5h-40v45h38q35 0 56 14t21 41
q0 56 -66 56q-36 0 -64 -14v-39zM609 116v-42h-57v-74h-51v74h-179v38l138 179l34 54h58v-229h57zM379 116h122v160z" />
    <glyph glyph-name="questiondown" unicode="&#xbf;" horiz-adv-x="436" 
d="M339 -50h50l5 -116q-74 -61 -173 -61q-82 0 -130 46t-48 116q0 129 157 196v123h59v-157q-155 -50 -155 -157q0 -46 31 -78.5t88 -32.5q64 0 116 35v86zM231 466q22 0 36.5 -14t14.5 -36q0 -21 -14.5 -35t-36.5 -14t-36.5 14t-14.5 35q0 22 14.5 36t36.5 14z" />
    <glyph glyph-name="Agrave" unicode="&#xc0;" horiz-adv-x="685" 
d="M454 0v54h96l-63 168h-290l-65 -168h97v-54h-225v54h64l219 568h-61v54h233v-54h-59l217 -568h63v-54h-226zM214 277h257l-127 339zM238 899h66l78 -151h-57z" />
    <glyph glyph-name="Aacute" unicode="&#xc1;" horiz-adv-x="685" 
d="M454 0v54h96l-63 168h-290l-65 -168h97v-54h-225v54h64l219 568h-61v54h233v-54h-59l217 -568h63v-54h-226zM214 277h257l-127 339zM378 899h66l-87 -151h-57z" />
    <glyph glyph-name="Acircumflex" unicode="&#xc2;" horiz-adv-x="685" 
d="M454 0v54h96l-63 168h-290l-65 -168h97v-54h-225v54h64l219 568h-61v54h233v-54h-59l217 -568h63v-54h-226zM214 277h257l-127 339zM305 899h73l96 -151h-57l-76 111l-75 -111h-56z" />
    <glyph glyph-name="Atilde" unicode="&#xc3;" horiz-adv-x="685" 
d="M454 0v54h96l-63 168h-290l-65 -168h97v-54h-225v54h64l219 568h-61v54h233v-54h-59l217 -568h63v-54h-226zM214 277h257l-127 339zM476 828l-8 -50q-27 25 -59 25q-21 0 -64 -17t-72 -17q-43 0 -66 25l8 49q24 -24 58 -24q23 0 64.5 17.5t71.5 17.5q36 0 67 -26z" />
    <glyph glyph-name="Adieresis" unicode="&#xc4;" horiz-adv-x="685" 
d="M454 0v54h96l-63 168h-290l-65 -168h97v-54h-225v54h64l219 568h-61v54h233v-54h-59l217 -568h63v-54h-226zM214 277h257l-127 339zM254 773q-47 0 -47 46q0 47 47 47q20 0 33.5 -12t13.5 -35t-13.5 -34.5t-33.5 -11.5zM430 773q-47 0 -47 46q0 47 47 47q20 0 33.5 -12
t13.5 -35t-13.5 -34.5t-33.5 -11.5z" />
    <glyph glyph-name="Aring" unicode="&#xc5;" horiz-adv-x="685" 
d="M454 0v54h96l-63 168h-290l-65 -168h97v-54h-225v54h64l219 568h-61v54h233v-54h-59l217 -568h63v-54h-226zM214 277h257l-127 339zM240 809q0 40 28 65.5t73 25.5q46 0 74 -25.5t28 -65.5t-28 -66t-74 -26q-45 0 -73 26t-28 66zM284 809q0 -25 15.5 -39.5t41.5 -14.5
q27 0 42 14.5t15 39.5q0 24 -15 39t-42 15q-26 0 -41.5 -15t-15.5 -39z" />
    <glyph glyph-name="AE" unicode="&#xc6;" horiz-adv-x="993" 
d="M294 277h251v339zM422 676h512v-157h-57v103h-273v-246h247v-55h-247v-267h277v112h56v-166h-487v54h95v168h-289l-126 -168h95v-54h-226v54h63l420 568h-60v54z" />
    <glyph glyph-name="Ccedilla" unicode="&#xc7;" horiz-adv-x="590" 
d="M122 340q0 -85 18 -148t64.5 -104t119.5 -41q113 0 195 61l22 -53q-78 -57 -185 -64l-19 -51q10 4 27 4q27 0 46.5 -18.5t19.5 -48.5q0 -33 -24.5 -54t-72.5 -21q-44 0 -96 23l10 41q44 -25 85 -25q47 0 47 36q0 15 -11.5 24.5t-28.5 9.5t-30 -5q-13 5 -25 10l26 73
q-128 4 -189.5 95.5t-61.5 255.5q0 159 70.5 252.5t207.5 93.5q93 0 191 -48l-2 -199h-52l-8 158q-66 32 -130 32q-111 0 -162.5 -78t-51.5 -211z" />
    <glyph glyph-name="Egrave" unicode="&#xc8;" horiz-adv-x="573" 
d="M457 166h60v-166h-468v54h76v568h-76v54h465v-157h-57v103h-273v-246h247v-55h-247v-267h273v112zM190 899h66l78 -151h-57z" />
    <glyph glyph-name="Eacute" unicode="&#xc9;" horiz-adv-x="573" 
d="M457 166h60v-166h-468v54h76v568h-76v54h465v-157h-57v103h-273v-246h247v-55h-247v-267h273v112zM329 899h66l-87 -151h-57z" />
    <glyph glyph-name="Ecircumflex" unicode="&#xca;" horiz-adv-x="573" 
d="M457 166h60v-166h-468v54h76v568h-76v54h465v-157h-57v103h-273v-246h247v-55h-247v-267h273v112zM261 899h73l96 -151h-57l-76 111l-75 -111h-56z" />
    <glyph glyph-name="Edieresis" unicode="&#xcb;" horiz-adv-x="573" 
d="M457 166h60v-166h-468v54h76v568h-76v54h465v-157h-57v103h-273v-246h247v-55h-247v-267h273v112zM211 773q-47 0 -47 46q0 47 47 47q20 0 33.5 -12t13.5 -35t-13.5 -34.5t-33.5 -11.5zM387 773q-47 0 -47 46q0 47 47 47q20 0 33.5 -12t13.5 -35t-13.5 -34.5t-33.5 -11.5
z" />
    <glyph glyph-name="Igrave" unicode="&#xcc;" horiz-adv-x="318" 
d="M45 0v54h86v568h-86v54h228v-54h-83v-568h83v-54h-228zM52 899h66l78 -151h-57z" />
    <glyph glyph-name="Iacute" unicode="&#xcd;" horiz-adv-x="318" 
d="M45 0v54h86v568h-86v54h228v-54h-83v-568h83v-54h-228zM197 899h66l-87 -151h-57z" />
    <glyph glyph-name="Icircumflex" unicode="&#xce;" horiz-adv-x="318" 
d="M45 0v54h86v568h-86v54h228v-54h-83v-568h83v-54h-228zM123 899h73l96 -151h-57l-76 111l-75 -111h-56z" />
    <glyph glyph-name="Idieresis" unicode="&#xcf;" horiz-adv-x="318" 
d="M45 0v54h86v568h-86v54h228v-54h-83v-568h83v-54h-228zM71 773q-47 0 -47 46q0 47 47 47q20 0 33.5 -12t13.5 -35t-13.5 -34.5t-33.5 -11.5zM247 773q-47 0 -47 46q0 47 47 47q20 0 33.5 -12t13.5 -35t-13.5 -34.5t-33.5 -11.5z" />
    <glyph glyph-name="Eth" unicode="&#xd0;" horiz-adv-x="683" 
d="M62 363h78v259h-77v54h235q95 0 159 -21.5t99.5 -67t50 -104.5t14.5 -145q0 -85 -14.5 -144t-50 -104.5t-99.5 -67.5t-159 -22h-235v54h77v262h-78v47zM198 54h105q147 0 201.5 66t54.5 220q0 151 -55.5 216.5t-200.5 65.5h-105v-259h169v-47h-169v-262z" />
    <glyph glyph-name="Ntilde" unicode="&#xd1;" horiz-adv-x="738" 
d="M456 622v54h242v-54h-73v-622h-75l-367 596v-542h112v-54h-245v54h74v568h-74v54h154l362 -596v542h-110zM508 828l-8 -50q-27 25 -59 25q-21 0 -64 -17t-72 -17q-43 0 -66 25l8 49q24 -24 58 -24q23 0 64.5 17.5t71.5 17.5q36 0 67 -26z" />
    <glyph glyph-name="Ograve" unicode="&#xd2;" horiz-adv-x="655" 
d="M124 337q0 -141 46 -216.5t159 -75.5q111 0 157.5 75.5t46.5 216.5q0 142 -46.5 217.5t-159.5 75.5q-111 0 -157 -76t-46 -217zM596 337q0 -348 -269 -348q-268 0 -268 348q0 349 270 349q267 0 267 -349zM225 899h66l78 -151h-57z" />
    <glyph glyph-name="Oacute" unicode="&#xd3;" horiz-adv-x="655" 
d="M124 337q0 -141 46 -216.5t159 -75.5q111 0 157.5 75.5t46.5 216.5q0 142 -46.5 217.5t-159.5 75.5q-111 0 -157 -76t-46 -217zM596 337q0 -348 -269 -348q-268 0 -268 348q0 349 270 349q267 0 267 -349zM364 899h66l-87 -151h-57z" />
    <glyph glyph-name="Ocircumflex" unicode="&#xd4;" horiz-adv-x="655" 
d="M124 337q0 -141 46 -216.5t159 -75.5q111 0 157.5 75.5t46.5 216.5q0 142 -46.5 217.5t-159.5 75.5q-111 0 -157 -76t-46 -217zM596 337q0 -348 -269 -348q-268 0 -268 348q0 349 270 349q267 0 267 -349zM291 899h73l96 -151h-57l-76 111l-75 -111h-56z" />
    <glyph glyph-name="Otilde" unicode="&#xd5;" horiz-adv-x="655" 
d="M124 337q0 -141 46 -216.5t159 -75.5q111 0 157.5 75.5t46.5 216.5q0 142 -46.5 217.5t-159.5 75.5q-111 0 -157 -76t-46 -217zM596 337q0 -348 -269 -348q-268 0 -268 348q0 349 270 349q267 0 267 -349zM462 828l-8 -50q-27 25 -59 25q-21 0 -64 -17t-72 -17
q-43 0 -66 25l8 49q24 -24 58 -24q23 0 64.5 17.5t71.5 17.5q36 0 67 -26z" />
    <glyph glyph-name="Odieresis" unicode="&#xd6;" horiz-adv-x="655" 
d="M124 337q0 -141 46 -216.5t159 -75.5q111 0 157.5 75.5t46.5 216.5q0 142 -46.5 217.5t-159.5 75.5q-111 0 -157 -76t-46 -217zM596 337q0 -348 -269 -348q-268 0 -268 348q0 349 270 349q267 0 267 -349zM240 773q-47 0 -47 46q0 47 47 47q20 0 33.5 -12t13.5 -35
t-13.5 -34.5t-33.5 -11.5zM416 773q-47 0 -47 46q0 47 47 47q20 0 33.5 -12t13.5 -35t-13.5 -34.5t-33.5 -11.5z" />
    <glyph glyph-name="multiply" unicode="&#xd7;" 
d="M120 70l-40 41l158 157l-162 161l42 43l162 -162l159 160l41 -40l-160 -160l161 -162l-42 -41l-161 161z" />
    <glyph glyph-name="Oslash" unicode="&#xd8;" horiz-adv-x="655" 
d="M596 337q0 -348 -269 -348q-65 0 -117 22l-21 -49h-49v12l26 62q-107 81 -107 301q0 349 270 349q58 0 107 -19l17 39h52v-11l-23 -52q114 -81 114 -306zM533 337q0 181 -76 247l-223 -519q40 -20 95 -20q111 0 157.5 75.5t46.5 216.5zM124 337q0 -175 68 -240l221 517
q-37 16 -86 16q-111 0 -157 -76t-46 -217z" />
    <glyph glyph-name="Ugrave" unicode="&#xd9;" horiz-adv-x="691" 
d="M346 -11q-240 0 -240 258v375h-71v54h232v-54h-103v-379q0 -107 48 -152.5t134 -45.5q181 0 181 198v379h-102v54h232v-54h-71v-375q0 -258 -240 -258zM240 899h66l78 -151h-57z" />
    <glyph glyph-name="Uacute" unicode="&#xda;" horiz-adv-x="691" 
d="M346 -11q-240 0 -240 258v375h-71v54h232v-54h-103v-379q0 -107 48 -152.5t134 -45.5q181 0 181 198v379h-102v54h232v-54h-71v-375q0 -258 -240 -258zM393 899h66l-87 -151h-57z" />
    <glyph glyph-name="Ucircumflex" unicode="&#xdb;" horiz-adv-x="691" 
d="M346 -11q-240 0 -240 258v375h-71v54h232v-54h-103v-379q0 -107 48 -152.5t134 -45.5q181 0 181 198v379h-102v54h232v-54h-71v-375q0 -258 -240 -258zM309 899h73l96 -151h-57l-76 111l-75 -111h-56z" />
    <glyph glyph-name="Udieresis" unicode="&#xdc;" horiz-adv-x="691" 
d="M346 -11q-240 0 -240 258v375h-71v54h232v-54h-103v-379q0 -107 48 -152.5t134 -45.5q181 0 181 198v379h-102v54h232v-54h-71v-375q0 -258 -240 -258zM258 773q-47 0 -47 46q0 47 47 47q20 0 33.5 -12t13.5 -35t-13.5 -34.5t-33.5 -11.5zM434 773q-47 0 -47 46
q0 47 47 47q20 0 33.5 -12t13.5 -35t-13.5 -34.5t-33.5 -11.5z" />
    <glyph glyph-name="Yacute" unicode="&#xdd;" horiz-adv-x="607" 
d="M6 622v54h220v-54h-94l172 -295l176 295h-95v54h221v-54h-60l-214 -348v-220h96v-54h-255v54h101v220l-207 348h-61zM346 899h66l-87 -151h-57z" />
    <glyph glyph-name="Thorn" unicode="&#xde;" horiz-adv-x="576" 
d="M125 622h-77v54h222v-54h-86v-88h139q215 0 215 -192q0 -92 -52.5 -142.5t-162.5 -50.5h-139v-95h86v-54h-221v54h76v568zM476 341q0 139 -151 139h-141v-277h141q151 0 151 138z" />
    <glyph glyph-name="germandbls" unicode="&#xdf;" horiz-adv-x="564" 
d="M98 59v444q0 91 39 147t128 56q90 0 132 -45t42 -112q0 -37 -23.5 -75t-47 -67.5t-23.5 -46.5q0 -32 56 -65l41 -25q91 -53 91 -141q0 -59 -44 -99.5t-116 -40.5q-76 0 -134 29l-9 110h45l19 -79q33 -12 76 -12q47 0 75 25.5t28 64.5q0 57 -62 97l-47 31
q-29 20 -42.5 30.5t-25.5 30t-12 42.5q0 20 14.5 44t32.5 42.5t32.5 46t14.5 55.5q0 53 -29 80t-84 27q-64 0 -87.5 -38.5t-23.5 -109.5v-505h-127v47z" />
    <glyph glyph-name="agrave" unicode="&#xe0;" horiz-adv-x="485" 
d="M129 388v-85h-47q-12 34 -12 69q0 43 41.5 68.5t123.5 25.5q39 0 66.5 -4.5t45.5 -16t28 -22.5t14.5 -35t5.5 -42t1 -53v-209q0 -37 29 -37q9 0 39 5v-53q-24 -5 -53 -5q-31 0 -50 17.5t-20 49.5q-63 -72 -158 -72q-140 0 -140 127q0 63 51.5 94.5t151.5 44.5l92 12v121
q-33 25 -103 25q-71 0 -106 -25zM105 118q0 -77 88 -77q85 0 145 62v119l-88 -13q-77 -11 -111 -30.5t-34 -60.5zM136 696h66l78 -151h-57z" />
    <glyph glyph-name="aacute" unicode="&#xe1;" horiz-adv-x="485" 
d="M129 388v-85h-47q-12 34 -12 69q0 43 41.5 68.5t123.5 25.5q39 0 66.5 -4.5t45.5 -16t28 -22.5t14.5 -35t5.5 -42t1 -53v-209q0 -37 29 -37q9 0 39 5v-53q-24 -5 -53 -5q-31 0 -50 17.5t-20 49.5q-63 -72 -158 -72q-140 0 -140 127q0 63 51.5 94.5t151.5 44.5l92 12v121
q-33 25 -103 25q-71 0 -106 -25zM105 118q0 -77 88 -77q85 0 145 62v119l-88 -13q-77 -11 -111 -30.5t-34 -60.5zM277 696h66l-87 -151h-57z" />
    <glyph glyph-name="acircumflex" unicode="&#xe2;" horiz-adv-x="485" 
d="M129 388v-85h-47q-12 34 -12 69q0 43 41.5 68.5t123.5 25.5q39 0 66.5 -4.5t45.5 -16t28 -22.5t14.5 -35t5.5 -42t1 -53v-209q0 -37 29 -37q9 0 39 5v-53q-24 -5 -53 -5q-31 0 -50 17.5t-20 49.5q-63 -72 -158 -72q-140 0 -140 127q0 63 51.5 94.5t151.5 44.5l92 12v121
q-33 25 -103 25q-71 0 -106 -25zM105 118q0 -77 88 -77q85 0 145 62v119l-88 -13q-77 -11 -111 -30.5t-34 -60.5zM204 696h73l96 -151h-57l-76 111l-75 -111h-56z" />
    <glyph glyph-name="atilde" unicode="&#xe3;" horiz-adv-x="485" 
d="M129 388v-85h-47q-12 34 -12 69q0 43 41.5 68.5t123.5 25.5q39 0 66.5 -4.5t45.5 -16t28 -22.5t14.5 -35t5.5 -42t1 -53v-209q0 -37 29 -37q9 0 39 5v-53q-24 -5 -53 -5q-31 0 -50 17.5t-20 49.5q-63 -72 -158 -72q-140 0 -140 127q0 63 51.5 94.5t151.5 44.5l92 12v121
q-33 25 -103 25q-71 0 -106 -25zM105 118q0 -77 88 -77q85 0 145 62v119l-88 -13q-77 -11 -111 -30.5t-34 -60.5zM375 625l-8 -50q-27 25 -59 25q-21 0 -64 -17t-72 -17q-43 0 -66 25l8 49q24 -24 58 -24q23 0 64.5 17.5t71.5 17.5q36 0 67 -26z" />
    <glyph glyph-name="adieresis" unicode="&#xe4;" horiz-adv-x="485" 
d="M129 388v-85h-47q-12 34 -12 69q0 43 41.5 68.5t123.5 25.5q39 0 66.5 -4.5t45.5 -16t28 -22.5t14.5 -35t5.5 -42t1 -53v-209q0 -37 29 -37q9 0 39 5v-53q-24 -5 -53 -5q-31 0 -50 17.5t-20 49.5q-63 -72 -158 -72q-140 0 -140 127q0 63 51.5 94.5t151.5 44.5l92 12v121
q-33 25 -103 25q-71 0 -106 -25zM105 118q0 -77 88 -77q85 0 145 62v119l-88 -13q-77 -11 -111 -30.5t-34 -60.5zM153 570q-47 0 -47 46q0 47 47 47q20 0 33.5 -12t13.5 -35t-13.5 -34.5t-33.5 -11.5zM329 570q-47 0 -47 46q0 47 47 47q20 0 33.5 -12t13.5 -35t-13.5 -34.5
t-33.5 -11.5z" />
    <glyph glyph-name="aring" unicode="&#xe5;" horiz-adv-x="485" 
d="M129 388v-85h-47q-12 34 -12 69q0 43 41.5 68.5t123.5 25.5q39 0 66.5 -4.5t45.5 -16t28 -22.5t14.5 -35t5.5 -42t1 -53v-209q0 -37 29 -37q9 0 39 5v-53q-24 -5 -53 -5q-31 0 -50 17.5t-20 49.5q-63 -72 -158 -72q-140 0 -140 127q0 63 51.5 94.5t151.5 44.5l92 12v121
q-33 25 -103 25q-71 0 -106 -25zM105 118q0 -77 88 -77q85 0 145 62v119l-88 -13q-77 -11 -111 -30.5t-34 -60.5zM139 624q0 40 28 65.5t73 25.5q46 0 74 -25.5t28 -65.5t-28 -66t-74 -26q-45 0 -73 26t-28 66zM183 624q0 -25 15.5 -39.5t41.5 -14.5q27 0 42 14.5t15 39.5
q0 24 -15 39t-42 15q-26 0 -41.5 -15t-15.5 -39z" />
    <glyph glyph-name="ae" unicode="&#xe6;" horiz-adv-x="761" 
d="M540 42q76 0 150 53l20 -48q-74 -58 -174 -58q-59 0 -102.5 24.5t-61.5 66.5q-18 -38 -73 -64.5t-114 -26.5q-142 0 -142 127q0 64 51.5 95t152.5 44l91 12v121q-36 25 -107 25q-70 0 -102 -25v-85h-47q-12 34 -12 69q0 43 42 68.5t123 25.5q132 0 152 -69q46 69 146 69
q86 0 131.5 -54.5t45.5 -134.5q0 -39 -6 -67h-304q1 -82 33.5 -125t106.5 -43zM400 259h250q2 12 2 22q0 60 -31 96.5t-89 36.5q-122 0 -132 -155zM105 118q0 -77 88 -77q46 0 84 19t61 43v119l-88 -13q-77 -11 -111 -30.5t-34 -60.5z" />
    <glyph glyph-name="ccedilla" unicode="&#xe7;" horiz-adv-x="465" 
d="M255 44q85 0 149 47l19 -51q-67 -43 -152 -50l-18 -50q10 4 26 4q27 0 46.5 -18.5t19.5 -48.5q0 -33 -24 -54t-72 -21q-44 0 -96 23l9 41q46 -25 85 -25q47 0 47 36q0 15 -11.5 24.5t-28.5 9.5q-15 0 -30 -5l-24 10l26 74q-89 8 -133 72t-44 167q0 105 51.5 171t150.5 66
q90 0 164 -37l-16 -149h-46v116q-45 18 -100 18q-73 0 -107 -49.5t-34 -133.5q0 -187 143 -187z" />
    <glyph glyph-name="egrave" unicode="&#xe8;" horiz-adv-x="472" 
d="M251 42q78 0 150 53l21 -48q-76 -58 -172 -58q-201 0 -201 240q0 106 49.5 171.5t146.5 65.5q86 0 131.5 -55t45.5 -134q0 -29 -6 -67h-305q2 -168 140 -168zM112 259h250q2 12 2 22q0 60 -31 96.5t-89 36.5q-68 0 -98 -41t-34 -114zM141 696h66l78 -151h-57z" />
    <glyph glyph-name="eacute" unicode="&#xe9;" horiz-adv-x="472" 
d="M251 42q78 0 150 53l21 -48q-76 -58 -172 -58q-201 0 -201 240q0 106 49.5 171.5t146.5 65.5q86 0 131.5 -55t45.5 -134q0 -29 -6 -67h-305q2 -168 140 -168zM112 259h250q2 12 2 22q0 60 -31 96.5t-89 36.5q-68 0 -98 -41t-34 -114zM276 696h66l-87 -151h-57z" />
    <glyph glyph-name="ecircumflex" unicode="&#xea;" horiz-adv-x="472" 
d="M251 42q78 0 150 53l21 -48q-76 -58 -172 -58q-201 0 -201 240q0 106 49.5 171.5t146.5 65.5q86 0 131.5 -55t45.5 -134q0 -29 -6 -67h-305q2 -168 140 -168zM112 259h250q2 12 2 22q0 60 -31 96.5t-89 36.5q-68 0 -98 -41t-34 -114zM205 696h73l96 -151h-57l-76 111
l-75 -111h-56z" />
    <glyph glyph-name="edieresis" unicode="&#xeb;" horiz-adv-x="472" 
d="M251 42q78 0 150 53l21 -48q-76 -58 -172 -58q-201 0 -201 240q0 106 49.5 171.5t146.5 65.5q86 0 131.5 -55t45.5 -134q0 -29 -6 -67h-305q2 -168 140 -168zM112 259h250q2 12 2 22q0 60 -31 96.5t-89 36.5q-68 0 -98 -41t-34 -114zM153 570q-47 0 -47 46q0 47 47 47
q20 0 33.5 -12t13.5 -35t-13.5 -34.5t-33.5 -11.5zM329 570q-47 0 -47 46q0 47 47 47q20 0 33.5 -12t13.5 -35t-13.5 -34.5t-33.5 -11.5z" />
    <glyph glyph-name="igrave" unicode="&#xec;" horiz-adv-x="311" 
d="M49 696h66l78 -151h-57zM35 0v53h102v350h-102v53h159v-403h98v-53h-257z" />
    <glyph glyph-name="iacute" unicode="&#xed;" horiz-adv-x="311" 
d="M208 696h66l-87 -151h-57zM35 0v53h102v350h-102v53h159v-403h98v-53h-257z" />
    <glyph glyph-name="icircumflex" unicode="&#xee;" horiz-adv-x="311" 
d="M119 696h73l96 -151h-57l-76 111l-75 -111h-56zM35 0v53h102v350h-102v53h159v-403h98v-53h-257z" />
    <glyph glyph-name="idieresis" unicode="&#xef;" horiz-adv-x="311" 
d="M67 570q-47 0 -47 46q0 47 47 47q20 0 33.5 -12t13.5 -35t-13.5 -34.5t-33.5 -11.5zM243 570q-47 0 -47 46q0 47 47 47q20 0 33.5 -12t13.5 -35t-13.5 -34.5t-33.5 -11.5zM35 0v53h102v350h-102v53h159v-403h98v-53h-257z" />
    <glyph glyph-name="eth" unicode="&#xf0;" horiz-adv-x="521" 
d="M249 543l85 43q-36 60 -102 110h77q46 -36 77 -86l56 27l18 -42l-51 -26q52 -104 52 -255q0 -144 -51.5 -234.5t-156.5 -90.5q-99 0 -151 64t-52 167q0 104 46 165.5t137 61.5q61 0 107.5 -35t61.5 -83q0 126 -45 216l-89 -44zM251 45q136 0 146 216q-46 127 -156 127
q-131 0 -131 -171q0 -76 34 -124t107 -48z" />
    <glyph glyph-name="ntilde" unicode="&#xf1;" horiz-adv-x="571" 
d="M42 0v53h70v350h-69v53h122v-49q25 24 70 41.5t93 17.5q85 0 118 -41.5t33 -130.5v-241h69v-53h-208v53h82v238q0 63 -19 91.5t-85 28.5q-44 0 -85 -16.5t-65 -37.5v-304h83v-53h-209zM430 625l-8 -50q-27 25 -59 25q-21 0 -64 -17t-72 -17q-43 0 -66 25l8 49
q24 -24 58 -24q23 0 64.5 17.5t71.5 17.5q36 0 67 -26z" />
    <glyph glyph-name="ograve" unicode="&#xf2;" horiz-adv-x="504" 
d="M252 466q202 0 202 -237q0 -240 -204 -240q-104 0 -152 63.5t-48 175.5q0 111 48.5 174.5t153.5 63.5zM252 43q77 0 108.5 47t31.5 138t-31.5 137.5t-108.5 46.5t-109 -46.5t-32 -136.5q0 -91 32 -138.5t109 -47.5zM147 696h66l78 -151h-57z" />
    <glyph glyph-name="oacute" unicode="&#xf3;" horiz-adv-x="504" 
d="M252 466q202 0 202 -237q0 -240 -204 -240q-104 0 -152 63.5t-48 175.5q0 111 48.5 174.5t153.5 63.5zM252 43q77 0 108.5 47t31.5 138t-31.5 137.5t-108.5 46.5t-109 -46.5t-32 -136.5q0 -91 32 -138.5t109 -47.5zM286 696h66l-87 -151h-57z" />
    <glyph glyph-name="ocircumflex" unicode="&#xf4;" horiz-adv-x="504" 
d="M252 466q202 0 202 -237q0 -240 -204 -240q-104 0 -152 63.5t-48 175.5q0 111 48.5 174.5t153.5 63.5zM252 43q77 0 108.5 47t31.5 138t-31.5 137.5t-108.5 46.5t-109 -46.5t-32 -136.5q0 -91 32 -138.5t109 -47.5zM215 696h73l96 -151h-57l-76 111l-75 -111h-56z" />
    <glyph glyph-name="otilde" unicode="&#xf5;" horiz-adv-x="504" 
d="M252 466q202 0 202 -237q0 -240 -204 -240q-104 0 -152 63.5t-48 175.5q0 111 48.5 174.5t153.5 63.5zM252 43q77 0 108.5 47t31.5 138t-31.5 137.5t-108.5 46.5t-109 -46.5t-32 -136.5q0 -91 32 -138.5t109 -47.5zM386 625l-8 -50q-27 25 -59 25q-21 0 -64 -17t-72 -17
q-43 0 -66 25l8 49q24 -24 58 -24q23 0 64.5 17.5t71.5 17.5q36 0 67 -26z" />
    <glyph glyph-name="odieresis" unicode="&#xf6;" horiz-adv-x="504" 
d="M252 466q202 0 202 -237q0 -240 -204 -240q-104 0 -152 63.5t-48 175.5q0 111 48.5 174.5t153.5 63.5zM252 43q77 0 108.5 47t31.5 138t-31.5 137.5t-108.5 46.5t-109 -46.5t-32 -136.5q0 -91 32 -138.5t109 -47.5zM164 570q-47 0 -47 46q0 47 47 47q20 0 33.5 -12
t13.5 -35t-13.5 -34.5t-33.5 -11.5zM340 570q-47 0 -47 46q0 47 47 47q20 0 33.5 -12t13.5 -35t-13.5 -34.5t-33.5 -11.5z" />
    <glyph glyph-name="divide" unicode="&#xf7;" 
d="M55 242v57h449v-57h-449zM282 41q-22 0 -36.5 14t-14.5 35q0 22 14.5 36t36.5 14t36.5 -14t14.5 -36q0 -21 -14.5 -35t-36.5 -14zM282 397q-22 0 -36.5 14t-14.5 36t14.5 36t36.5 14t36.5 -14t14.5 -36t-14.5 -36t-36.5 -14z" />
    <glyph glyph-name="oslash" unicode="&#xf8;" horiz-adv-x="504" 
d="M252 466q30 0 51 -4l19 57h48v-11l-22 -61q106 -47 106 -218q0 -240 -204 -240q-31 0 -58 6l-19 -59h-44v12l20 62q-99 50 -99 218q0 111 48.5 174.5t153.5 63.5zM252 43q77 0 108.5 47t31.5 138q0 129 -65 163l-115 -344q16 -4 40 -4zM111 229q0 -124 60 -162l113 342
q-17 3 -32 3q-77 0 -109 -46.5t-32 -136.5z" />
    <glyph glyph-name="ugrave" unicode="&#xf9;" horiz-adv-x="559" 
d="M461 456v-403h71v-53h-122v69q-25 -32 -71 -56t-98 -24q-79 0 -111 41.5t-32 131.5v241h-78v53h135v-291q0 -63 18.5 -91.5t79.5 -28.5q47 0 89 23.5t62 54.5v280h-98v53h155zM174 696h66l78 -151h-57z" />
    <glyph glyph-name="uacute" unicode="&#xfa;" horiz-adv-x="559" 
d="M461 456v-403h71v-53h-122v69q-25 -32 -71 -56t-98 -24q-79 0 -111 41.5t-32 131.5v241h-78v53h135v-291q0 -63 18.5 -91.5t79.5 -28.5q47 0 89 23.5t62 54.5v280h-98v53h155zM294 696h66l-87 -151h-57z" />
    <glyph glyph-name="ucircumflex" unicode="&#xfb;" horiz-adv-x="559" 
d="M461 456v-403h71v-53h-122v69q-25 -32 -71 -56t-98 -24q-79 0 -111 41.5t-32 131.5v241h-78v53h135v-291q0 -63 18.5 -91.5t79.5 -28.5q47 0 89 23.5t62 54.5v280h-98v53h155zM236 696h73l96 -151h-57l-76 111l-75 -111h-56z" />
    <glyph glyph-name="udieresis" unicode="&#xfc;" horiz-adv-x="559" 
d="M461 456v-403h71v-53h-122v69q-25 -32 -71 -56t-98 -24q-79 0 -111 41.5t-32 131.5v241h-78v53h135v-291q0 -63 18.5 -91.5t79.5 -28.5q47 0 89 23.5t62 54.5v280h-98v53h155zM185 570q-47 0 -47 46q0 47 47 47q20 0 33.5 -12t13.5 -35t-13.5 -34.5t-33.5 -11.5zM361 570
q-47 0 -47 46q0 47 47 47q20 0 33.5 -12t13.5 -35t-13.5 -34.5t-33.5 -11.5z" />
    <glyph glyph-name="yacute" unicode="&#xfd;" horiz-adv-x="575" 
d="M79 -215v49h111l81 180l-162 389h-98v53h159v-49l131 -329l141 325h-125v53h247v-53h-60l-251 -565q-28 -64 -95 -64q-46 0 -79 11zM317 696h66l-87 -151h-57z" />
    <glyph glyph-name="thorn" unicode="&#xfe;" horiz-adv-x="514" 
d="M244 -216h-233v48l67 11v800h-70v53h127v-289q46 59 134 59q100 0 148 -62.5t48 -176.5q0 -112 -48 -175t-148 -63q-87 0 -134 58v-210h109v-53zM403 227q0 87 -32 135.5t-111 48.5q-84 0 -125 -69v-230q41 -68 125 -68q79 0 111 48t32 135z" />
    <glyph glyph-name="ydieresis" unicode="&#xff;" horiz-adv-x="575" 
d="M79 -215v49h111l81 180l-162 389h-98v53h159v-49l131 -329l141 325h-125v53h247v-53h-60l-251 -565q-28 -64 -95 -64q-46 0 -79 11zM215 570q-47 0 -47 46q0 47 47 47q20 0 33.5 -12t13.5 -35t-13.5 -34.5t-33.5 -11.5zM391 570q-47 0 -47 46q0 47 47 47q20 0 33.5 -12
t13.5 -35t-13.5 -34.5t-33.5 -11.5z" />
    <glyph glyph-name="Amacron" unicode="&#x100;" horiz-adv-x="685" 
d="M454 0v54h96l-63 168h-290l-65 -168h97v-54h-225v54h64l219 568h-61v54h233v-54h-59l217 -568h63v-54h-226zM214 277h257l-127 339zM207 838h270v-53h-270v53z" />
    <glyph glyph-name="amacron" unicode="&#x101;" horiz-adv-x="485" 
d="M129 388v-85h-47q-12 34 -12 69q0 43 41.5 68.5t123.5 25.5q39 0 66.5 -4.5t45.5 -16t28 -22.5t14.5 -35t5.5 -42t1 -53v-209q0 -37 29 -37q9 0 39 5v-53q-24 -5 -53 -5q-31 0 -50 17.5t-20 49.5q-63 -72 -158 -72q-140 0 -140 127q0 63 51.5 94.5t151.5 44.5l92 12v121
q-33 25 -103 25q-71 0 -106 -25zM105 118q0 -77 88 -77q85 0 145 62v119l-88 -13q-77 -11 -111 -30.5t-34 -60.5zM106 635h270v-53h-270v53z" />
    <glyph glyph-name="Abreve" unicode="&#x102;" horiz-adv-x="685" 
d="M454 0v54h96l-63 168h-290l-65 -168h97v-54h-225v54h64l219 568h-61v54h233v-54h-59l217 -568h63v-54h-226zM214 277h257l-127 339zM424 884h46q0 -58 -35 -94.5t-94 -36.5q-58 0 -93 36.5t-35 94.5h44q2 -37 23.5 -60.5t60.5 -23.5t60.5 23.5t22.5 60.5z" />
    <glyph glyph-name="abreve" unicode="&#x103;" horiz-adv-x="485" 
d="M129 388v-85h-47q-12 34 -12 69q0 43 41.5 68.5t123.5 25.5q39 0 66.5 -4.5t45.5 -16t28 -22.5t14.5 -35t5.5 -42t1 -53v-209q0 -37 29 -37q9 0 39 5v-53q-24 -5 -53 -5q-31 0 -50 17.5t-20 49.5q-63 -72 -158 -72q-140 0 -140 127q0 63 51.5 94.5t151.5 44.5l92 12v121
q-33 25 -103 25q-71 0 -106 -25zM105 118q0 -77 88 -77q85 0 145 62v119l-88 -13q-77 -11 -111 -30.5t-34 -60.5zM323 681h46q0 -58 -35 -94.5t-94 -36.5q-58 0 -93 36.5t-35 94.5h44q2 -37 23.5 -60.5t60.5 -23.5t60.5 23.5t22.5 60.5z" />
    <glyph glyph-name="Aogonek" unicode="&#x104;" horiz-adv-x="685" 
d="M454 0v54h96l-63 168h-290l-65 -168h97v-54h-225v54h64l219 568h-61v54h233v-54h-59l217 -568h63v-54h-65l-74 -55q-33 -25 -34 -54q-1 -15 7 -27q10 -13 33 -13q27 0 54 17l10 -45q-38 -19 -73 -19q-41 0 -66 20.5t-25 55.5q0 47 50 84l48 36h-91zM214 277h257l-127 339
z" />
    <glyph glyph-name="aogonek" unicode="&#x105;" horiz-adv-x="485" 
d="M129 388v-85h-47q-12 34 -12 69q0 43 41.5 68.5t123.5 25.5q56 0 89.5 -9t48.5 -33t19 -49t4 -73v-218q0 -35 29 -35q19 0 39 5v-53l-74 -55q-35 -29 -35 -58q0 -36 41 -36q27 0 54 17l10 -45q-31 -17 -65 -18q-12 -1 -34 3q-65 13 -65 72q0 48 51 84l45 33q-50 9 -51 63
q-63 -72 -158 -72q-140 0 -140 127q0 63 51.5 94.5t151.5 44.5l92 12v121q-38 25 -107 25q-70 0 -102 -25zM105 118q0 -77 88 -77q85 0 145 62v119l-88 -13q-77 -11 -111 -30.5t-34 -60.5z" />
    <glyph glyph-name="Cacute" unicode="&#x106;" horiz-adv-x="590" 
d="M122 340q0 -85 18 -148t64.5 -104t119.5 -41q113 0 195 61l22 -53q-90 -66 -221 -66q-133 0 -197 92t-64 259q0 159 70.5 252.5t207.5 93.5q93 0 191 -48l-2 -199h-52l-8 158q-66 32 -130 32q-111 0 -162.5 -78t-51.5 -211zM379 899h66l-87 -151h-57z" />
    <glyph glyph-name="cacute" unicode="&#x107;" horiz-adv-x="465" 
d="M255 44q85 0 149 47l19 -51q-81 -51 -174 -51q-100 0 -150 65.5t-50 174.5q0 105 51.5 171t150.5 66q91 0 163 -37l-15 -149h-46v116q-45 18 -100 18q-73 0 -107 -49.5t-34 -133.5q0 -187 143 -187zM294 696h66l-87 -151h-57z" />
    <glyph glyph-name="Ccircumflex" unicode="&#x108;" horiz-adv-x="590" 
d="M122 340q0 -85 18 -148t64.5 -104t119.5 -41q113 0 195 61l22 -53q-90 -66 -221 -66q-133 0 -197 92t-64 259q0 159 70.5 252.5t207.5 93.5q93 0 191 -48l-2 -199h-52l-8 158q-66 32 -130 32q-111 0 -162.5 -78t-51.5 -211zM291 899h73l96 -151h-57l-76 111l-75 -111h-56
z" />
    <glyph glyph-name="ccircumflex" unicode="&#x109;" horiz-adv-x="465" 
d="M255 44q85 0 149 47l19 -51q-81 -51 -174 -51q-100 0 -150 65.5t-50 174.5q0 105 51.5 171t150.5 66q91 0 163 -37l-15 -149h-46v116q-45 18 -100 18q-73 0 -107 -49.5t-34 -133.5q0 -187 143 -187zM215 696h73l96 -151h-57l-76 111l-75 -111h-56z" />
    <glyph glyph-name="Cdotaccent" unicode="&#x10a;" horiz-adv-x="590" 
d="M122 340q0 -85 18 -148t64.5 -104t119.5 -41q113 0 195 61l22 -53q-90 -66 -221 -66q-133 0 -197 92t-64 259q0 159 70.5 252.5t207.5 93.5q93 0 191 -48l-2 -199h-52l-8 158q-66 32 -130 32q-111 0 -162.5 -78t-51.5 -211zM330 773q-47 0 -47 46q0 47 47 47
q20 0 33.5 -12t13.5 -35t-13.5 -34.5t-33.5 -11.5z" />
    <glyph glyph-name="cdotaccent" unicode="&#x10b;" horiz-adv-x="465" 
d="M255 44q85 0 149 47l19 -51q-81 -51 -174 -51q-100 0 -150 65.5t-50 174.5q0 105 51.5 171t150.5 66q91 0 163 -37l-15 -149h-46v116q-45 18 -100 18q-73 0 -107 -49.5t-34 -133.5q0 -187 143 -187zM251 570q-47 0 -47 46q0 47 47 47q20 0 33.5 -12t13.5 -35t-13.5 -34.5
t-33.5 -11.5z" />
    <glyph glyph-name="Ccaron" unicode="&#x10c;" horiz-adv-x="590" 
d="M122 340q0 -85 18 -148t64.5 -104t119.5 -41q113 0 195 61l22 -53q-90 -66 -221 -66q-133 0 -197 92t-64 259q0 159 70.5 252.5t207.5 93.5q93 0 191 -48l-2 -199h-52l-8 158q-66 32 -130 32q-111 0 -162.5 -78t-51.5 -211zM364 748h-73l-95 151h56l76 -111l75 111h57z
" />
    <glyph glyph-name="ccaron" unicode="&#x10d;" horiz-adv-x="465" 
d="M255 44q85 0 149 47l19 -51q-81 -51 -174 -51q-100 0 -150 65.5t-50 174.5q0 105 51.5 171t150.5 66q91 0 163 -37l-15 -149h-46v116q-45 18 -100 18q-73 0 -107 -49.5t-34 -133.5q0 -187 143 -187zM288 545h-73l-95 151h56l76 -111l75 111h57z" />
    <glyph glyph-name="Dcaron" unicode="&#x10e;" horiz-adv-x="669" 
d="M125 54v568h-77v54h236q95 0 159 -21.5t99.5 -67t50 -104.5t14.5 -145q0 -85 -14.5 -144t-50 -104.5t-99.5 -67.5t-159 -22h-236v54h77zM184 54h104q147 0 202 66t55 220q0 151 -55.5 216.5t-201.5 65.5h-104v-568zM338 748h-73l-95 151h56l76 -111l75 111h57z" />
    <glyph glyph-name="dcaron" unicode="&#x10f;" horiz-adv-x="569" 
d="M382 408v234h-99v54h156v-643h70v-53h-58q-34 0 -49 14t-16 46q-59 -71 -142 -71q-194 0 -194 240q0 111 48.5 174t147.5 63q89 0 136 -58zM112 229q0 -185 141 -185q77 0 128 70v230q-38 67 -126 67q-143 0 -143 -182zM633 696l-47 -145h-47l25 145h69z" />
    <glyph glyph-name="Dcroat" unicode="&#x110;" horiz-adv-x="683" 
d="M62 363h78v259h-77v54h235q95 0 159 -21.5t99.5 -67t50 -104.5t14.5 -145q0 -85 -14.5 -144t-50 -104.5t-99.5 -67.5t-159 -22h-235v54h77v262h-78v47zM198 54h105q147 0 201.5 66t54.5 220q0 151 -55.5 216.5t-200.5 65.5h-105v-259h169v-47h-169v-262z" />
    <glyph glyph-name="dcroat" unicode="&#x111;" horiz-adv-x="533" 
d="M382 408v112h-94v46h94v76h-99v54h156v-130h75v-46h-75v-467h70v-53h-58q-34 0 -49 14t-16 46q-59 -71 -142 -71q-194 0 -194 240q0 111 48.5 174t147.5 63q89 0 136 -58zM112 229q0 -185 141 -185q77 0 128 70v230q-38 67 -126 67q-143 0 -143 -182z" />
    <glyph glyph-name="Emacron" unicode="&#x112;" horiz-adv-x="573" 
d="M457 166h60v-166h-468v54h76v568h-76v54h465v-157h-57v103h-273v-246h247v-55h-247v-267h273v112zM167 838h270v-53h-270v53z" />
    <glyph glyph-name="emacron" unicode="&#x113;" horiz-adv-x="472" 
d="M251 42q78 0 150 53l21 -48q-76 -58 -172 -58q-201 0 -201 240q0 106 49.5 171.5t146.5 65.5q86 0 131.5 -55t45.5 -134q0 -29 -6 -67h-305q2 -168 140 -168zM112 259h250q2 12 2 22q0 60 -31 96.5t-89 36.5q-68 0 -98 -41t-34 -114zM109 635h270v-53h-270v53z" />
    <glyph glyph-name="Ebreve" unicode="&#x114;" horiz-adv-x="573" 
d="M457 166h60v-166h-468v54h76v568h-76v54h465v-157h-57v103h-273v-246h247v-55h-247v-267h273v112zM385 884h46q0 -58 -35 -94.5t-94 -36.5q-58 0 -93 36.5t-35 94.5h44q2 -37 23.5 -60.5t60.5 -23.5t60.5 23.5t22.5 60.5z" />
    <glyph glyph-name="ebreve" unicode="&#x115;" horiz-adv-x="472" 
d="M251 42q78 0 150 53l21 -48q-76 -58 -172 -58q-201 0 -201 240q0 106 49.5 171.5t146.5 65.5q86 0 131.5 -55t45.5 -134q0 -29 -6 -67h-305q2 -168 140 -168zM112 259h250q2 12 2 22q0 60 -31 96.5t-89 36.5q-68 0 -98 -41t-34 -114zM329 681h46q0 -58 -35 -94.5
t-94 -36.5q-58 0 -93 36.5t-35 94.5h44q2 -37 23.5 -60.5t60.5 -23.5t60.5 23.5t22.5 60.5z" />
    <glyph glyph-name="Edotaccent" unicode="&#x116;" horiz-adv-x="573" 
d="M457 166h60v-166h-468v54h76v568h-76v54h465v-157h-57v103h-273v-246h247v-55h-247v-267h273v112zM308 773q-47 0 -47 46q0 47 47 47q20 0 33.5 -12t13.5 -35t-13.5 -34.5t-33.5 -11.5z" />
    <glyph glyph-name="edotaccent" unicode="&#x117;" horiz-adv-x="472" 
d="M251 42q78 0 150 53l21 -48q-76 -58 -172 -58q-201 0 -201 240q0 106 49.5 171.5t146.5 65.5q86 0 131.5 -55t45.5 -134q0 -29 -6 -67h-305q2 -168 140 -168zM112 259h250q2 12 2 22q0 60 -31 96.5t-89 36.5q-68 0 -98 -41t-34 -114zM246 570q-47 0 -47 46q0 47 47 47
q20 0 33.5 -12t13.5 -35t-13.5 -34.5t-33.5 -11.5z" />
    <glyph glyph-name="Eogonek" unicode="&#x118;" horiz-adv-x="573" 
d="M461 166h56v-166l-74 -55q-35 -26 -35 -58q0 -36 41 -36q28 0 55 17l10 -45q-38 -19 -73 -19q-41 0 -66.5 20.5t-25.5 55.5q0 48 51 84l48 36h-399v54h76v568h-76v54h465v-157h-57v103h-273v-246h247v-55h-247v-267h277v112z" />
    <glyph glyph-name="eogonek" unicode="&#x119;" horiz-adv-x="472" 
d="M251 42q78 0 150 53l21 -48q-47 -36 -104 -52l-63 -50q-34 -27 -34 -58q0 -36 41 -36q27 0 54 17l10 -45q-38 -19 -73 -19q-41 0 -66 20.5t-25 55.5q0 46 51 84l31 26q-195 4 -195 239q0 106 49.5 171.5t146.5 65.5q86 0 131.5 -55t45.5 -134q0 -29 -6 -67h-305
q2 -168 140 -168zM112 259h250q2 12 2 22q0 60 -31 96.5t-89 36.5q-68 0 -98 -41t-34 -114z" />
    <glyph glyph-name="Ecaron" unicode="&#x11a;" horiz-adv-x="573" 
d="M457 166h60v-166h-468v54h76v568h-76v54h465v-157h-57v103h-273v-246h247v-55h-247v-267h273v112zM335 748h-73l-95 151h56l76 -111l75 111h57z" />
    <glyph glyph-name="ecaron" unicode="&#x11b;" horiz-adv-x="472" 
d="M251 42q78 0 150 53l21 -48q-76 -58 -172 -58q-201 0 -201 240q0 106 49.5 171.5t146.5 65.5q86 0 131.5 -55t45.5 -134q0 -29 -6 -67h-305q2 -168 140 -168zM112 259h250q2 12 2 22q0 60 -31 96.5t-89 36.5q-68 0 -98 -41t-34 -114zM277 545h-73l-95 151h56l76 -111
l75 111h57z" />
    <glyph glyph-name="Gcircumflex" unicode="&#x11c;" horiz-adv-x="648" 
d="M352 686q110 0 203 -36l-2 -175h-52l-8 133q-63 21 -143 21q-118 0 -173 -77t-55 -203q0 -303 233 -303q96 0 167 31v188h-183v55h244v-281q-100 -50 -228 -50q-148 0 -222.5 93.5t-74.5 264.5q0 152 74.5 245.5t219.5 93.5zM316 899h73l96 -151h-57l-76 111l-75 -111
h-56z" />
    <glyph glyph-name="gcircumflex" unicode="&#x11d;" horiz-adv-x="483" 
d="M477 449l-102 -42q41 -43 41 -113q0 -76 -48 -119.5t-135 -43.5q-49 0 -76 10l-19 -91h148q153 0 153 -118q0 -71 -59 -114.5t-156 -43.5q-192 0 -192 126q0 38 24.5 68t55.5 40q-30 11 -30 49q0 48 46 94q-80 40 -80 144q0 80 47.5 125.5t138.5 45.5q74 0 114 -29
q55 66 119 66zM233 180q123 0 123 115q0 53 -30 85.5t-93 32.5q-126 0 -126 -118q0 -52 30.5 -83.5t95.5 -31.5zM148 -4q-56 -34 -56 -84q0 -87 134 -87q66 0 108.5 26t42.5 76q0 69 -96 69h-133zM199 696h73l96 -151h-57l-76 111l-75 -111h-56z" />
    <glyph glyph-name="Gbreve" unicode="&#x11e;" horiz-adv-x="648" 
d="M352 686q110 0 203 -36l-2 -175h-52l-8 133q-63 21 -143 21q-118 0 -173 -77t-55 -203q0 -303 233 -303q96 0 167 31v188h-183v55h244v-281q-100 -50 -228 -50q-148 0 -222.5 93.5t-74.5 264.5q0 152 74.5 245.5t219.5 93.5zM433 884h46q0 -58 -35 -94.5t-94 -36.5
q-58 0 -93 36.5t-35 94.5h44q2 -37 23.5 -60.5t60.5 -23.5t60.5 23.5t22.5 60.5z" />
    <glyph glyph-name="gbreve" unicode="&#x11f;" horiz-adv-x="483" 
d="M477 449l-102 -42q41 -43 41 -113q0 -76 -48 -119.5t-135 -43.5q-49 0 -76 10l-19 -91h148q153 0 153 -118q0 -71 -59 -114.5t-156 -43.5q-192 0 -192 126q0 38 24.5 68t55.5 40q-30 11 -30 49q0 48 46 94q-80 40 -80 144q0 80 47.5 125.5t138.5 45.5q74 0 114 -29
q55 66 119 66zM233 180q123 0 123 115q0 53 -30 85.5t-93 32.5q-126 0 -126 -118q0 -52 30.5 -83.5t95.5 -31.5zM148 -4q-56 -34 -56 -84q0 -87 134 -87q66 0 108.5 26t42.5 76q0 69 -96 69h-133zM319 681h46q0 -58 -35 -94.5t-94 -36.5q-58 0 -93 36.5t-35 94.5h44
q2 -37 23.5 -60.5t60.5 -23.5t60.5 23.5t22.5 60.5z" />
    <glyph glyph-name="Gdotaccent" unicode="&#x120;" horiz-adv-x="648" 
d="M352 686q110 0 203 -36l-2 -175h-52l-8 133q-63 21 -143 21q-118 0 -173 -77t-55 -203q0 -303 233 -303q96 0 167 31v188h-183v55h244v-281q-100 -50 -228 -50q-148 0 -222.5 93.5t-74.5 264.5q0 152 74.5 245.5t219.5 93.5zM354 773q-47 0 -47 46q0 47 47 47
q20 0 33.5 -12t13.5 -35t-13.5 -34.5t-33.5 -11.5z" />
    <glyph glyph-name="gdotaccent" unicode="&#x121;" horiz-adv-x="483" 
d="M477 449l-102 -42q41 -43 41 -113q0 -76 -48 -119.5t-135 -43.5q-49 0 -76 10l-19 -91h148q153 0 153 -118q0 -71 -59 -114.5t-156 -43.5q-192 0 -192 126q0 38 24.5 68t55.5 40q-30 11 -30 49q0 48 46 94q-80 40 -80 144q0 80 47.5 125.5t138.5 45.5q74 0 114 -29
q55 66 119 66zM233 180q123 0 123 115q0 53 -30 85.5t-93 32.5q-126 0 -126 -118q0 -52 30.5 -83.5t95.5 -31.5zM148 -4q-56 -34 -56 -84q0 -87 134 -87q66 0 108.5 26t42.5 76q0 69 -96 69h-133zM237 570q-47 0 -47 46q0 47 47 47q20 0 33.5 -12t13.5 -35t-13.5 -34.5
t-33.5 -11.5z" />
    <glyph glyph-name="Gcommaaccent" unicode="&#x122;" horiz-adv-x="649" 
d="M352 686q110 0 203 -36l-2 -175h-52l-8 133q-63 21 -143 21q-118 0 -173 -77t-55 -203q0 -303 233 -303q96 0 167 31v188h-183v55h244v-281q-100 -50 -228 -50q-148 0 -222.5 93.5t-74.5 264.5q0 152 74.5 245.5t219.5 93.5zM391 -71l-47 -145h-47l25 145h69z" />
    <glyph glyph-name="gcommaaccent" unicode="&#x123;" horiz-adv-x="483" 
d="M477 449l-102 -42q41 -43 41 -113q0 -76 -48 -119.5t-135 -43.5q-49 0 -76 10l-19 -91h148q153 0 153 -118q0 -71 -59 -114.5t-156 -43.5q-192 0 -192 126q0 38 24.5 68t55.5 40q-30 11 -30 49q0 48 46 94q-80 40 -80 144q0 80 47.5 125.5t138.5 45.5q74 0 114 -29
q55 66 119 66zM233 180q123 0 123 115q0 53 -30 85.5t-93 32.5q-126 0 -126 -118q0 -52 30.5 -83.5t95.5 -31.5zM148 -4q-56 -34 -56 -84q0 -87 134 -87q66 0 108.5 26t42.5 76q0 69 -96 69h-133zM191 555l49 169h46l-25 -169h-70z" />
    <glyph glyph-name="Hcircumflex" unicode="&#x124;" horiz-adv-x="746" 
d="M474 622v54h218v-54h-66v-568h66v-54h-218v54h93v275h-388v-275h94v-54h-219v54h66v568h-66v54h219v-54h-94v-237h388v237h-93zM336 899h73l96 -151h-57l-76 111l-75 -111h-56z" />
    <glyph glyph-name="hcircumflex" unicode="&#x125;" horiz-adv-x="563" 
d="M26 0v53h71v589h-78v54h135v-286q25 23 70.5 39.5t91.5 16.5q86 0 120 -41.5t34 -130.5v-241h70v-53h-211v53h84v238q0 63 -20 91.5t-86 28.5q-44 0 -86 -16.5t-67 -37.5v-304h84v-53h-212zM240 886h73l96 -151h-57l-76 111l-75 -111h-56z" />
    <glyph glyph-name="Hbar" unicode="&#x126;" horiz-adv-x="746" 
d="M474 622v54h218v-54h-66v-102h66v-44h-66v-422h66v-54h-218v54h93v275h-388v-275h94v-54h-219v54h66v422h-67v44h67v102h-66v54h219v-54h-94v-102h388v102h-93zM179 385h388v91h-388v-91z" />
    <glyph glyph-name="hbar" unicode="&#x127;" horiz-adv-x="563" 
d="M26 0v53h71v467h-80v46h80v76h-78v54h135v-130h89v-46h-89v-110q25 23 70.5 39.5t91.5 16.5q86 0 120 -41.5t34 -130.5v-241h70v-53h-211v53h84v238q0 63 -20 91.5t-86 28.5q-44 0 -86 -16.5t-67 -37.5v-304h84v-53h-212z" />
    <glyph glyph-name="Itilde" unicode="&#x128;" horiz-adv-x="318" 
d="M45 0v54h86v568h-86v54h228v-54h-83v-568h83v-54h-228zM294 828l-8 -50q-27 25 -59 25q-21 0 -64 -17t-72 -17q-43 0 -66 25l8 49q24 -24 58 -24q23 0 64.5 17.5t71.5 17.5q36 0 67 -26z" />
    <glyph glyph-name="itilde" unicode="&#x129;" horiz-adv-x="311" 
d="M283 625l-8 -50q-27 25 -59 25q-21 0 -64 -17t-72 -17q-43 0 -66 25l8 49q24 -24 58 -24q23 0 64.5 17.5t71.5 17.5q36 0 67 -26zM35 0v53h102v350h-102v53h159v-403h98v-53h-257z" />
    <glyph glyph-name="Imacron" unicode="&#x12a;" horiz-adv-x="318" 
d="M45 0v54h86v568h-86v54h228v-54h-83v-568h83v-54h-228zM24 838h270v-53h-270v53z" />
    <glyph glyph-name="imacron" unicode="&#x12b;" horiz-adv-x="311" 
d="M27 635h270v-53h-270v53zM35 0v53h102v350h-102v53h159v-403h98v-53h-257z" />
    <glyph glyph-name="Ibreve" unicode="&#x12c;" horiz-adv-x="318" 
d="M45 0v54h86v568h-86v54h228v-54h-83v-568h83v-54h-228zM242 884h46q0 -58 -35 -94.5t-94 -36.5q-58 0 -93 36.5t-35 94.5h44q2 -37 23.5 -60.5t60.5 -23.5t60.5 23.5t22.5 60.5z" />
    <glyph glyph-name="ibreve" unicode="&#x12d;" horiz-adv-x="311" 
d="M245 681h46q0 -58 -35 -94.5t-94 -36.5q-58 0 -93 36.5t-35 94.5h44q2 -37 23.5 -60.5t60.5 -23.5t60.5 23.5t22.5 60.5zM35 0v53h102v350h-102v53h159v-403h98v-53h-257z" />
    <glyph glyph-name="Iogonek" unicode="&#x12e;" horiz-adv-x="318" 
d="M45 0v54h86v568h-86v54h228v-54h-83v-568h83v-54h-80l-74 -55q-35 -26 -35 -58q0 -36 41 -36q27 0 54 17l10 -45q-38 -19 -73 -19q-41 0 -66 20.5t-25 55.5q0 47 50 84l48 36h-78z" />
    <glyph glyph-name="iogonek" unicode="&#x12f;" horiz-adv-x="311" 
d="M35 0v53h102v350h-102v53h159v-403h98v-53h-80l-74 -55q-35 -26 -35 -58q0 -36 41 -36q28 0 55 17l10 -45q-38 -19 -73 -19q-41 0 -66.5 20.5t-25.5 55.5q0 48 51 84l48 36h-108zM160 580q-47 0 -47 46q0 47 47 47q20 0 33.5 -12t13.5 -35t-13.5 -34.5t-33.5 -11.5z" />
    <glyph glyph-name="Idotaccent" unicode="&#x130;" horiz-adv-x="318" 
d="M45 0v54h86v568h-86v54h228v-54h-83v-568h83v-54h-228zM159 773q-47 0 -47 46q0 47 47 47q20 0 33.5 -12t13.5 -35t-13.5 -34.5t-33.5 -11.5z" />
    <glyph glyph-name="dotlessi" unicode="&#x131;" horiz-adv-x="311" 
d="M35 0v53h102v350h-102v53h159v-403h98v-53h-257z" />
    <glyph glyph-name="IJ" unicode="&#x132;" horiz-adv-x="611" 
d="M45 0v54h86v568h-86v54h228v-54h-83v-568h83v-54h-228zM343 622v54h220v-54h-65v-596q0 -170 -141 -252l-37 43q62 39 90 85.5t28 112.5v607h-95z" />
    <glyph glyph-name="ij" unicode="&#x133;" horiz-adv-x="551" 
d="M35 0v53h102v350h-102v53h159v-403h98v-53h-257zM160 580q-47 0 -47 46q0 47 47 47q20 0 33.5 -12t13.5 -35t-13.5 -34.5t-33.5 -11.5zM357 -226l-26 48q48 19 66.5 49t18.5 95v437h-91v53h148v-486q0 -78 -24.5 -126t-91.5 -70zM438 580q-47 0 -47 46q0 47 47 47
q20 0 33.5 -12t13.5 -35t-13.5 -34.5t-33.5 -11.5z" />
    <glyph glyph-name="Jcircumflex" unicode="&#x134;" horiz-adv-x="293" 
d="M25 622v54h220v-54h-65v-596q0 -170 -141 -252l-37 43q62 39 90 85.5t28 112.5v607h-95zM102 899h73l96 -151h-57l-76 111l-75 -111h-56z" />
    <glyph glyph-name="jcircumflex" unicode="&#x135;" horiz-adv-x="246" 
d="M86 696h73l96 -151h-57l-76 111l-75 -111h-56zM52 -226l-26 48q48 19 66.5 49t18.5 95v437h-91v53h148v-486q0 -78 -24.5 -126t-91.5 -70z" />
    <glyph glyph-name="Kcommaaccent" unicode="&#x136;" horiz-adv-x="637" 
d="M216 353l241 269h-74v54h221v-54h-76l-241 -268l260 -300h68v-54h-222v54h78zM185 622v-568h82v-54h-219v54h78v568h-78v54h219v-54h-82zM364 -71l-47 -145h-47l25 145h69z" />
    <glyph glyph-name="kcommaaccent" unicode="&#x137;" horiz-adv-x="550" 
d="M375 0v45l-135 192l-85 -75v-109h103v-53h-230v53h70v589h-77v54h134v-479l210 186h-78v53h213v-53h-68l-151 -135l155 -215h92v-53h-153zM308 -71l-47 -145h-47l25 145h69z" />
    <glyph glyph-name="kgreenlandic" unicode="&#x138;" horiz-adv-x="568" 
d="M394 0v45l-135 192l-86 -75v-109h103v-53h-230v53h70v349h-76v54h133v-239l210 186h-78v53h214v-53h-68l-152 -135l156 -215h91v-53h-152z" />
    <glyph glyph-name="Lacute" unicode="&#x139;" horiz-adv-x="520" 
d="M435 192h55v-192h-441v54h76v568h-76v54h227v-54h-92v-568h251v138zM201 899h66l-87 -151h-57z" />
    <glyph glyph-name="lacute" unicode="&#x13a;" horiz-adv-x="246" 
d="M78 106v536h-88v54h145v-585q0 -36 10.5 -51.5t37.5 -15.5q25 0 46 8l9 -51q-28 -12 -65 -12q-52 0 -73.5 29t-21.5 88zM152 886h66l-87 -151h-57z" />
    <glyph glyph-name="Lcommaaccent" unicode="&#x13b;" horiz-adv-x="521" 
d="M435 192h55v-192h-441v54h76v568h-76v54h227v-54h-92v-568h251v138zM307 -71l-47 -145h-47l25 145h69z" />
    <glyph glyph-name="lcommaaccent" unicode="&#x13c;" horiz-adv-x="248" 
d="M79 106v536h-88v54h145v-585q0 -36 10.5 -51.5t37.5 -15.5q25 0 46 8l9 -51q-29 -12 -65 -12q-52 0 -73.5 29t-21.5 88zM176 -71l-47 -145h-47l25 145h69z" />
    <glyph glyph-name="Lcaron" unicode="&#x13d;" horiz-adv-x="527" 
d="M435 192h55v-192h-441v54h76v568h-76v54h227v-54h-92v-568h251v138zM496 676l-47 -145h-47l25 145h69z" />
    <glyph glyph-name="lcaron" unicode="&#x13e;" horiz-adv-x="279" 
d="M78 106v536h-88v54h145v-585q0 -36 10.5 -51.5t37.5 -15.5q25 0 46 8l9 -51q-28 -12 -65 -12q-52 0 -73.5 29t-21.5 88zM329 696l-47 -145h-47l25 145h69z" />
    <glyph glyph-name="Ldot" unicode="&#x13f;" horiz-adv-x="520" 
d="M435 192h55v-192h-441v54h76v568h-76v54h227v-54h-92v-568h251v138zM378 313q-22 0 -36.5 14t-14.5 36q0 21 14.5 35.5t36.5 14.5t36.5 -14.5t14.5 -35.5q0 -22 -14.5 -36t-36.5 -14z" />
    <glyph glyph-name="ldot" unicode="&#x140;" horiz-adv-x="323" 
d="M78 106v536h-88v54h145v-585q0 -36 10.5 -51.5t37.5 -15.5q25 0 46 8l9 -51q-28 -12 -65 -12q-52 0 -73.5 29t-21.5 88zM264 312q-22 0 -36.5 14t-14.5 36q0 21 14.5 35.5t36.5 14.5t36.5 -14.5t14.5 -35.5q0 -22 -14.5 -36t-36.5 -14z" />
    <glyph glyph-name="Lslash" unicode="&#x141;" horiz-adv-x="524" 
d="M439 192h54v-192h-440v54h75v213l-81 -33v47l81 33v308h-75v54h226v-54h-92v-284l90 37v-47l-90 -37v-237h252v138z" />
    <glyph glyph-name="lslash" unicode="&#x142;" horiz-adv-x="254" 
d="M12 291v51l72 37v263h-88v54h145v-287l74 38v-51l-74 -38v-247q0 -36 10.5 -51.5t37.5 -15.5q25 0 46 8l9 -51q-28 -12 -65 -12q-52 0 -73.5 29t-21.5 88v222z" />
    <glyph glyph-name="Nacute" unicode="&#x143;" horiz-adv-x="738" 
d="M456 622v54h242v-54h-73v-622h-75l-367 596v-542h112v-54h-245v54h74v568h-74v54h154l362 -596v542h-110zM418 899h66l-87 -151h-57z" />
    <glyph glyph-name="nacute" unicode="&#x144;" horiz-adv-x="571" 
d="M42 0v53h70v350h-69v53h122v-49q25 24 70 41.5t93 17.5q85 0 118 -41.5t33 -130.5v-241h69v-53h-208v53h82v238q0 63 -19 91.5t-85 28.5q-44 0 -85 -16.5t-65 -37.5v-304h83v-53h-209zM328 696h66l-87 -151h-57z" />
    <glyph glyph-name="Ncommaaccent" unicode="&#x145;" horiz-adv-x="739" 
d="M456 622v54h242v-54h-73v-622h-75l-367 596v-542h112v-54h-245v54h74v568h-74v54h154l362 -596v542h-110zM409 -71l-47 -145h-47l25 145h69z" />
    <glyph glyph-name="ncommaaccent" unicode="&#x146;" horiz-adv-x="572" 
d="M43 0v53h70v350h-69v53h122v-49q25 24 70 41.5t93 17.5q85 0 118 -41.5t33 -130.5v-241h69v-53h-208v53h82v238q0 63 -19 91.5t-85 28.5q-44 0 -85 -16.5t-65 -37.5v-304h83v-53h-209zM330 -71l-47 -145h-47l25 145h69z" />
    <glyph glyph-name="Ncaron" unicode="&#x147;" horiz-adv-x="738" 
d="M456 622v54h242v-54h-73v-622h-75l-367 596v-542h112v-54h-245v54h74v568h-74v54h154l362 -596v542h-110zM410 748h-73l-95 151h56l76 -111l75 111h57z" />
    <glyph glyph-name="ncaron" unicode="&#x148;" horiz-adv-x="571" 
d="M42 0v53h70v350h-69v53h122v-49q25 24 70 41.5t93 17.5q85 0 118 -41.5t33 -130.5v-241h69v-53h-208v53h82v238q0 63 -19 91.5t-85 28.5q-44 0 -85 -16.5t-65 -37.5v-304h83v-53h-209zM331 545h-73l-95 151h56l76 -111l75 111h57z" />
    <glyph glyph-name="napostrophe" unicode="&#x149;" horiz-adv-x="571" 
d="M42 0v53h70v350h-69v53h122v-49q25 24 70 41.5t93 17.5q85 0 118 -41.5t33 -130.5v-241h69v-53h-208v53h82v238q0 63 -19 91.5t-85 28.5q-44 0 -85 -16.5t-65 -37.5v-304h83v-53h-209zM87 696l-47 -145h-47l25 145h69z" />
    <glyph glyph-name="Eng" unicode="&#x14a;" horiz-adv-x="740" 
d="M566 -30l-382 629v-545h114v-54h-249v54h76v568h-76v54h154l363 -607v553h-112v54h246v-54h-75v-652q0 -74 -25 -124t-91 -72l-29 46q47 18 66.5 53t19.5 97z" />
    <glyph glyph-name="eng" unicode="&#x14b;" horiz-adv-x="554" 
d="M479 294v-324q0 -78 -24 -125.5t-91 -70.5l-26 48q48 17 66 47.5t18 96.5v325q0 63 -19 91.5t-85 28.5q-44 0 -85 -16.5t-65 -37.5v-304h83v-53h-209v53h70v350h-69v53h122v-49q25 24 70 41.5t93 17.5q85 0 118 -41.5t33 -130.5z" />
    <glyph glyph-name="Omacron" unicode="&#x14c;" horiz-adv-x="655" 
d="M124 337q0 -141 46 -216.5t159 -75.5q111 0 157.5 75.5t46.5 216.5q0 142 -46.5 217.5t-159.5 75.5q-111 0 -157 -76t-46 -217zM596 337q0 -348 -269 -348q-268 0 -268 348q0 349 270 349q267 0 267 -349zM193 838h270v-53h-270v53z" />
    <glyph glyph-name="omacron" unicode="&#x14d;" horiz-adv-x="504" 
d="M252 466q202 0 202 -237q0 -240 -204 -240q-104 0 -152 63.5t-48 175.5q0 111 48.5 174.5t153.5 63.5zM252 43q77 0 108.5 47t31.5 138t-31.5 137.5t-108.5 46.5t-109 -46.5t-32 -136.5q0 -91 32 -138.5t109 -47.5zM117 635h270v-53h-270v53z" />
    <glyph glyph-name="Obreve" unicode="&#x14e;" horiz-adv-x="655" 
d="M124 337q0 -141 46 -216.5t159 -75.5q111 0 157.5 75.5t46.5 216.5q0 142 -46.5 217.5t-159.5 75.5q-111 0 -157 -76t-46 -217zM596 337q0 -348 -269 -348q-268 0 -268 348q0 349 270 349q267 0 267 -349zM411 884h46q0 -58 -35 -94.5t-94 -36.5q-58 0 -93 36.5t-35 94.5
h44q2 -37 23.5 -60.5t60.5 -23.5t60.5 23.5t22.5 60.5z" />
    <glyph glyph-name="obreve" unicode="&#x14f;" horiz-adv-x="504" 
d="M252 466q202 0 202 -237q0 -240 -204 -240q-104 0 -152 63.5t-48 175.5q0 111 48.5 174.5t153.5 63.5zM252 43q77 0 108.5 47t31.5 138t-31.5 137.5t-108.5 46.5t-109 -46.5t-32 -136.5q0 -91 32 -138.5t109 -47.5zM334 681h46q0 -58 -35 -94.5t-94 -36.5q-58 0 -93 36.5
t-35 94.5h44q2 -37 23.5 -60.5t60.5 -23.5t60.5 23.5t22.5 60.5z" />
    <glyph glyph-name="Ohungarumlaut" unicode="&#x150;" horiz-adv-x="655" 
d="M124 337q0 -141 46 -216.5t159 -75.5q111 0 157.5 75.5t46.5 216.5q0 142 -46.5 217.5t-159.5 75.5q-111 0 -157 -76t-46 -217zM596 337q0 -348 -269 -348q-268 0 -268 348q0 349 270 349q267 0 267 -349zM301 899h66l-87 -151h-57zM443 899h66l-87 -151h-57z" />
    <glyph glyph-name="ohungarumlaut" unicode="&#x151;" horiz-adv-x="504" 
d="M252 466q202 0 202 -237q0 -240 -204 -240q-104 0 -152 63.5t-48 175.5q0 111 48.5 174.5t153.5 63.5zM252 43q77 0 108.5 47t31.5 138t-31.5 137.5t-108.5 46.5t-109 -46.5t-32 -136.5q0 -91 32 -138.5t109 -47.5zM224 696h66l-87 -151h-57zM366 696h66l-87 -151h-57z
" />
    <glyph glyph-name="OE" unicode="&#x152;" horiz-adv-x="874" 
d="M762 166h57v-166h-388q-40 -11 -103 -11q-145 0 -206.5 91.5t-61.5 256.5q0 80 13.5 141t43.5 109.5t83.5 73.5t129.5 25q60 0 102 -10h383v-157h-57v103h-273v-246h247v-55h-247v-267h277v112zM125 337q0 -146 45.5 -219t159.5 -73q59 0 97 14v556q-40 15 -99 15
q-112 0 -157.5 -73.5t-45.5 -219.5z" />
    <glyph glyph-name="oe" unicode="&#x153;" horiz-adv-x="815" 
d="M593 42q77 0 151 53l20 -48q-74 -58 -174 -58q-123 0 -169 98q-46 -98 -171 -98q-104 0 -152 63.5t-48 175.5q0 111 48.5 174.5t153.5 63.5q126 0 172 -100q46 100 163 100q86 0 131.5 -54.5t45.5 -134.5q0 -39 -6 -67h-305q2 -168 140 -168zM252 43q77 0 108.5 47
t31.5 138t-31.5 137.5t-108.5 46.5t-109 -46.5t-32 -136.5q0 -91 32 -138.5t109 -47.5zM454 259h250q2 12 2 22q0 60 -31 96.5t-89 36.5q-122 0 -132 -155z" />
    <glyph glyph-name="Racute" unicode="&#x154;" horiz-adv-x="637" 
d="M126 54v568h-78v54h284q214 0 214 -181q0 -76 -43.5 -121.5t-124.5 -56.5q52 -36 96.5 -108.5t68.5 -154.5h85v-54h-220v54h69q-21 76 -66 147.5t-104 110.5h-122v-258h88v-54h-224v54h77zM484 494q0 64 -34.5 96t-117.5 32h-147v-256h138q85 0 123 32.5t38 95.5z
M318 899h66l-87 -151h-57z" />
    <glyph glyph-name="racute" unicode="&#x155;" horiz-adv-x="391" 
d="M42 403v53h125v-98q17 44 53.5 76t78.5 32q45 0 75 -7l-8 -73l-72 20q-36 -3 -71.5 -31t-53.5 -71v-251h113v-53h-240v47l70 12v344h-70zM217 696h66l-87 -151h-57z" />
    <glyph glyph-name="Rcommaaccent" unicode="&#x156;" horiz-adv-x="636" 
d="M126 54v568h-78v54h284q214 0 214 -181q0 -76 -43.5 -121.5t-124.5 -56.5q52 -36 96.5 -108.5t68.5 -154.5h85v-54h-220v54h69q-21 76 -66 147.5t-104 110.5h-122v-258h88v-54h-224v54h77zM484 494q0 64 -34.5 96t-117.5 32h-147v-256h138q85 0 123 32.5t38 95.5z
M360 -71l-47 -145h-47l25 145h69z" />
    <glyph glyph-name="rcommaaccent" unicode="&#x157;" horiz-adv-x="392" 
d="M42 403v53h125v-98q17 44 53.5 76t78.5 32q45 0 75 -7l-8 -73l-72 20q-36 -3 -71.5 -31t-53.5 -71v-251h113v-53h-240v47l70 12v344h-70zM189 -71l-47 -145h-47l25 145h69z" />
    <glyph glyph-name="Rcaron" unicode="&#x158;" horiz-adv-x="637" 
d="M126 54v568h-78v54h284q214 0 214 -181q0 -76 -43.5 -121.5t-124.5 -56.5q52 -36 96.5 -108.5t68.5 -154.5h85v-54h-220v54h69q-21 76 -66 147.5t-104 110.5h-122v-258h88v-54h-224v54h77zM484 494q0 64 -34.5 96t-117.5 32h-147v-256h138q85 0 123 32.5t38 95.5z
M319 748h-73l-95 151h56l76 -111l75 111h57z" />
    <glyph glyph-name="rcaron" unicode="&#x159;" horiz-adv-x="391" 
d="M42 403v53h125v-98q17 44 53.5 76t78.5 32q45 0 75 -7l-8 -73l-72 20q-36 -3 -71.5 -31t-53.5 -71v-251h113v-53h-240v47l70 12v344h-70zM238 545h-73l-95 151h56l76 -111l75 111h57z" />
    <glyph glyph-name="Sacute" unicode="&#x15a;" horiz-adv-x="530" 
d="M452 647v-162h-49l-13 126q-55 20 -120 20t-101.5 -36.5t-36.5 -89.5q0 -47 24.5 -74t80.5 -47l86 -32q74 -27 112.5 -70t38.5 -111q0 -73 -57 -127.5t-156 -54.5q-113 0 -190 42l-10 177h49l21 -140q55 -25 130 -25q65 0 107 34.5t42 91.5q0 86 -107 126l-93 34
q-71 26 -105.5 66.5t-34.5 107.5q0 73 53 128t147 55q98 0 182 -39zM308 899h66l-87 -151h-57z" />
    <glyph glyph-name="sacute" unicode="&#x15b;" horiz-adv-x="432" 
d="M368 439v-121h-46l-11 85q-38 14 -89 14q-49 0 -73 -23t-24 -55q0 -51 62 -70l82 -27q57 -18 86 -47.5t29 -78.5q0 -55 -46 -91t-125 -36q-76 0 -154 35l-12 136h46l22 -103q45 -20 98 -20q48 0 78 20t30 56q0 30 -18 47t-55 28l-86 28q-100 33 -100 119q0 54 40.5 92.5
t118.5 38.5t147 -27zM270 696h66l-87 -151h-57z" />
    <glyph glyph-name="Scircumflex" unicode="&#x15c;" horiz-adv-x="530" 
d="M452 647v-162h-49l-13 126q-55 20 -120 20t-101.5 -36.5t-36.5 -89.5q0 -47 24.5 -74t80.5 -47l86 -32q74 -27 112.5 -70t38.5 -111q0 -73 -57 -127.5t-156 -54.5q-113 0 -190 42l-10 177h49l21 -140q55 -25 130 -25q65 0 107 34.5t42 91.5q0 86 -107 126l-93 34
q-71 26 -105.5 66.5t-34.5 107.5q0 73 53 128t147 55q98 0 182 -39zM224 899h73l96 -151h-57l-76 111l-75 -111h-56z" />
    <glyph glyph-name="scircumflex" unicode="&#x15d;" horiz-adv-x="432" 
d="M368 439v-121h-46l-11 85q-38 14 -89 14q-49 0 -73 -23t-24 -55q0 -51 62 -70l82 -27q57 -18 86 -47.5t29 -78.5q0 -55 -46 -91t-125 -36q-76 0 -154 35l-12 136h46l22 -103q45 -20 98 -20q48 0 78 20t30 56q0 30 -18 47t-55 28l-86 28q-100 33 -100 119q0 54 40.5 92.5
t118.5 38.5t147 -27zM183 696h73l96 -151h-57l-76 111l-75 -111h-56z" />
    <glyph glyph-name="Scedilla" unicode="&#x15e;" horiz-adv-x="529" 
d="M452 647v-162h-50l-13 126q-55 20 -119 20q-66 0 -102 -36.5t-36 -89.5q0 -47 24.5 -74t79.5 -47l86 -32q75 -28 113 -70.5t38 -110.5q0 -69 -51 -121.5t-140 -59.5l-18 -50q10 4 26 4q27 0 46.5 -18.5t19.5 -48.5q0 -33 -24 -54t-72 -21q-44 0 -96 23l9 41
q46 -25 85 -25q47 0 47 36q0 15 -11.5 24.5t-28.5 9.5q-15 0 -30 -5l-24 10l26 74q-100 5 -167 41l-10 177h49l21 -140q55 -25 130 -25q65 0 107 34.5t42 91.5q0 86 -107 126l-93 34q-71 26 -105.5 66.5t-34.5 107.5q0 73 53 128t148 55q96 0 182 -39z" />
    <glyph glyph-name="scedilla" unicode="&#x15f;" horiz-adv-x="432" 
d="M368 439v-121h-46l-11 85q-38 14 -89 14q-49 0 -73 -23t-24 -55q0 -51 62 -70l82 -27q57 -18 86 -47.5t29 -78.5q0 -51 -40.5 -86.5t-110.5 -39.5l-18 -50q10 4 26 4q27 0 46.5 -18.5t19.5 -48.5q0 -33 -24 -54t-72 -21q-44 0 -96 23l9 41q46 -25 85 -25q47 0 47 36
q0 15 -11.5 24.5t-28.5 9.5q-15 0 -30 -5l-24 10l26 74q-67 6 -129 34l-12 136h46l22 -103q45 -20 98 -20q48 0 78 20t30 56q0 30 -18 47t-55 28l-86 28q-100 33 -100 119q0 54 40.5 92.5t118.5 38.5t147 -27z" />
    <glyph glyph-name="Scaron" unicode="&#x160;" horiz-adv-x="530" 
d="M452 647v-162h-49l-13 126q-55 20 -120 20t-101.5 -36.5t-36.5 -89.5q0 -47 24.5 -74t80.5 -47l86 -32q74 -27 112.5 -70t38.5 -111q0 -73 -57 -127.5t-156 -54.5q-113 0 -190 42l-10 177h49l21 -140q55 -25 130 -25q65 0 107 34.5t42 91.5q0 86 -107 126l-93 34
q-71 26 -105.5 66.5t-34.5 107.5q0 73 53 128t147 55q98 0 182 -39zM301 748h-73l-95 151h56l76 -111l75 111h57z" />
    <glyph glyph-name="scaron" unicode="&#x161;" horiz-adv-x="432" 
d="M368 439v-121h-46l-11 85q-38 14 -89 14q-49 0 -73 -23t-24 -55q0 -51 62 -70l82 -27q57 -18 86 -47.5t29 -78.5q0 -55 -46 -91t-125 -36q-76 0 -154 35l-12 136h46l22 -103q45 -20 98 -20q48 0 78 20t30 56q0 30 -18 47t-55 28l-86 28q-100 33 -100 119q0 54 40.5 92.5
t118.5 38.5t147 -27zM256 545h-73l-95 151h56l76 -111l75 111h57z" />
    <glyph glyph-name="Tcommaaccent" unicode="&#x162;" horiz-adv-x="559" 
d="M29 676h501v-161h-52v107h-172v-568h98v-54h-112l-22 -59q10 4 27 4q27 0 46.5 -18.5t19.5 -48.5q0 -33 -24.5 -54t-71.5 -21q-45 0 -96 23l9 41q46 -25 85 -25q47 0 47 36q0 15 -11.5 24.5t-28.5 9.5q-15 0 -30 -5q-13 5 -25 10l29 83h-99v54h100v568h-165v-107h-53v161
z" />
    <glyph glyph-name="tcommaaccent" unicode="&#x163;" horiz-adv-x="335" 
d="M162 403v-281q0 -78 66 -78q43 0 72 14l11 -52q-33 -14 -81 -17l-19 -49q10 4 27 4q27 0 46.5 -18.5t19.5 -48.5q0 -33 -24.5 -54t-72.5 -21q-44 0 -96 23l10 41q44 -25 85 -25q47 0 47 36q0 15 -11.5 24.5t-28.5 9.5t-30 -5q-13 5 -25 10l28 76q-81 17 -81 126v285h-88
v43l88 10v116l57 12v-128h133v-53h-133z" />
    <glyph glyph-name="Tcaron" unicode="&#x164;" horiz-adv-x="559" 
d="M29 676h501v-161h-52v107h-172v-568h98v-54h-257v54h100v568h-165v-107h-53v161zM317 748h-73l-95 151h56l76 -111l75 111h57z" />
    <glyph glyph-name="tcaron" unicode="&#x165;" horiz-adv-x="334" 
d="M162 403v-281q0 -78 66 -78q43 0 72 14l11 -52q-37 -17 -95 -17q-56 0 -83.5 34.5t-27.5 94.5v285h-89v43l89 10v116l57 12v-128h133v-53h-133zM411 696l-47 -145h-47l25 145h69z" />
    <glyph glyph-name="Tbar" unicode="&#x166;" horiz-adv-x="559" 
d="M144 350h103v272h-165v-107h-53v161h501v-161h-52v107h-172v-272h108v-53h-108v-243h98v-54h-257v54h100v243h-103v53z" />
    <glyph glyph-name="tbar" unicode="&#x167;" horiz-adv-x="338" 
d="M165 403v-133h92v-46h-92v-102q0 -78 66 -78q43 0 72 14l12 -52q-39 -17 -95 -17t-84 34.5t-28 94.5v106h-77v46h77v133h-88v43l88 10v116l57 12v-128h133v-53h-133z" />
    <glyph glyph-name="Utilde" unicode="&#x168;" horiz-adv-x="691" 
d="M346 -11q-240 0 -240 258v375h-71v54h232v-54h-103v-379q0 -107 48 -152.5t134 -45.5q181 0 181 198v379h-102v54h232v-54h-71v-375q0 -258 -240 -258zM480 828l-8 -50q-27 25 -59 25q-21 0 -64 -17t-72 -17q-43 0 -66 25l8 49q24 -24 58 -24q23 0 64.5 17.5t71.5 17.5
q36 0 67 -26z" />
    <glyph glyph-name="utilde" unicode="&#x169;" horiz-adv-x="559" 
d="M461 456v-403h71v-53h-122v69q-25 -32 -71 -56t-98 -24q-79 0 -111 41.5t-32 131.5v241h-78v53h135v-291q0 -63 18.5 -91.5t79.5 -28.5q47 0 89 23.5t62 54.5v280h-98v53h155zM412 625l-8 -50q-27 25 -59 25q-21 0 -64 -17t-72 -17q-43 0 -66 25l8 49q24 -24 58 -24
q23 0 64.5 17.5t71.5 17.5q36 0 67 -26z" />
    <glyph glyph-name="Umacron" unicode="&#x16a;" horiz-adv-x="691" 
d="M346 -11q-240 0 -240 258v375h-71v54h232v-54h-103v-379q0 -107 48 -152.5t134 -45.5q181 0 181 198v379h-102v54h232v-54h-71v-375q0 -258 -240 -258zM211 838h270v-53h-270v53z" />
    <glyph glyph-name="umacron" unicode="&#x16b;" horiz-adv-x="559" 
d="M461 456v-403h71v-53h-122v69q-25 -32 -71 -56t-98 -24q-79 0 -111 41.5t-32 131.5v241h-78v53h135v-291q0 -63 18.5 -91.5t79.5 -28.5q47 0 89 23.5t62 54.5v280h-98v53h155zM144 635h270v-53h-270v53z" />
    <glyph glyph-name="Ubreve" unicode="&#x16c;" horiz-adv-x="691" 
d="M346 -11q-240 0 -240 258v375h-71v54h232v-54h-103v-379q0 -107 48 -152.5t134 -45.5q181 0 181 198v379h-102v54h232v-54h-71v-375q0 -258 -240 -258zM428 884h46q0 -58 -35 -94.5t-94 -36.5q-58 0 -93 36.5t-35 94.5h44q2 -37 23.5 -60.5t60.5 -23.5t60.5 23.5
t22.5 60.5z" />
    <glyph glyph-name="ubreve" unicode="&#x16d;" horiz-adv-x="559" 
d="M461 456v-403h71v-53h-122v69q-25 -32 -71 -56t-98 -24q-79 0 -111 41.5t-32 131.5v241h-78v53h135v-291q0 -63 18.5 -91.5t79.5 -28.5q47 0 89 23.5t62 54.5v280h-98v53h155zM361 681h46q0 -58 -35 -94.5t-94 -36.5q-58 0 -93 36.5t-35 94.5h44q2 -37 23.5 -60.5
t60.5 -23.5t60.5 23.5t22.5 60.5z" />
    <glyph glyph-name="Uring" unicode="&#x16e;" horiz-adv-x="691" 
d="M346 -11q-240 0 -240 258v375h-71v54h232v-54h-103v-379q0 -107 48 -152.5t134 -45.5q181 0 181 198v379h-102v54h232v-54h-71v-375q0 -258 -240 -258zM244 827q0 40 28 65.5t73 25.5q46 0 74 -25.5t28 -65.5t-28 -66t-74 -26q-45 0 -73 26t-28 66zM288 827
q0 -25 15.5 -39.5t41.5 -14.5q27 0 42 14.5t15 39.5q0 24 -15 39t-42 15q-26 0 -41.5 -15t-15.5 -39z" />
    <glyph glyph-name="uring" unicode="&#x16f;" horiz-adv-x="559" 
d="M461 456v-403h71v-53h-122v69q-25 -32 -71 -56t-98 -24q-79 0 -111 41.5t-32 131.5v241h-78v53h135v-291q0 -63 18.5 -91.5t79.5 -28.5q47 0 89 23.5t62 54.5v280h-98v53h155zM173 624q0 40 28 65.5t73 25.5q46 0 74 -25.5t28 -65.5t-28 -66t-74 -26q-45 0 -73 26t-28 66
zM217 624q0 -25 15.5 -39.5t41.5 -14.5q27 0 42 14.5t15 39.5q0 24 -15 39t-42 15q-26 0 -41.5 -15t-15.5 -39z" />
    <glyph glyph-name="Uhungarumlaut" unicode="&#x170;" horiz-adv-x="691" 
d="M346 -11q-240 0 -240 258v375h-71v54h232v-54h-103v-379q0 -107 48 -152.5t134 -45.5q181 0 181 198v379h-102v54h232v-54h-71v-375q0 -258 -240 -258zM321 899h66l-87 -151h-57zM463 899h66l-87 -151h-57z" />
    <glyph glyph-name="uhungarumlaut" unicode="&#x171;" horiz-adv-x="559" 
d="M461 456v-403h71v-53h-122v69q-25 -32 -71 -56t-98 -24q-79 0 -111 41.5t-32 131.5v241h-78v53h135v-291q0 -63 18.5 -91.5t79.5 -28.5q47 0 89 23.5t62 54.5v280h-98v53h155zM248 696h66l-87 -151h-57zM390 696h66l-87 -151h-57z" />
    <glyph glyph-name="Uogonek" unicode="&#x172;" horiz-adv-x="690" 
d="M243 -120q0 48 51 84l32 26q-221 9 -221 257v375h-71v54h232v-54h-103v-379q0 -107 48.5 -152.5t134.5 -45.5q180 0 180 198v379h-102v54h232v-54h-71v-375q0 -223 -183 -251l-65 -51q-35 -26 -35 -57q0 -36 41 -36q29 0 54 16l10 -45q-36 -18 -73 -18q-41 0 -66 20
t-25 55z" />
    <glyph glyph-name="uogonek" unicode="&#x173;" horiz-adv-x="559" 
d="M461 456v-403h71v-53l-74 -55q-35 -26 -35 -58q0 -36 41 -36q28 0 55 17l9 -45q-38 -19 -72 -19q-42 0 -67 20t-25 56q0 48 51 84l48 36h-53v69q-25 -32 -71 -56t-98 -24q-79 0 -111 41.5t-32 131.5v241h-78v53h135v-291q0 -63 18.5 -91.5t79.5 -28.5q47 0 89 23.5
t62 54.5v280h-98v53h155z" />
    <glyph glyph-name="Wcircumflex" unicode="&#x174;" horiz-adv-x="979" 
d="M717 622v54h257v-54h-71l-174 -622h-75l-163 463l-164 -463h-75l-176 622h-72v54h238v-54h-104l155 -561l169 476l-50 139h67l211 -614l154 560h-127zM452 899h73l96 -151h-57l-76 111l-75 -111h-56z" />
    <glyph glyph-name="wcircumflex" unicode="&#x175;" horiz-adv-x="790" 
d="M562 403v53h215v-53h-62l-128 -403h-69l-121 295l-126 -295h-67l-132 403h-59v53h207v-53h-87l110 -344l124 296l-41 101h62l163 -397l103 344h-92zM358 696h73l96 -151h-57l-76 111l-75 -111h-56z" />
    <glyph glyph-name="Ycircumflex" unicode="&#x176;" horiz-adv-x="607" 
d="M6 622v54h220v-54h-94l172 -295l176 295h-95v54h221v-54h-60l-214 -348v-220h96v-54h-255v54h101v220l-207 348h-61zM269 899h73l96 -151h-57l-76 111l-75 -111h-56z" />
    <glyph glyph-name="ycircumflex" unicode="&#x177;" horiz-adv-x="575" 
d="M79 -215v49h111l81 180l-162 389h-98v53h159v-49l131 -329l141 325h-125v53h247v-53h-60l-251 -565q-28 -64 -95 -64q-46 0 -79 11zM266 696h73l96 -151h-57l-76 111l-75 -111h-56z" />
    <glyph glyph-name="Ydieresis" unicode="&#x178;" horiz-adv-x="607" 
d="M6 622v54h220v-54h-94l172 -295l176 295h-95v54h221v-54h-60l-214 -348v-220h96v-54h-255v54h101v220l-207 348h-61zM218 773q-47 0 -47 46q0 47 47 47q20 0 33.5 -12t13.5 -35t-13.5 -34.5t-33.5 -11.5zM394 773q-47 0 -47 46q0 47 47 47q20 0 33.5 -12t13.5 -35
t-13.5 -34.5t-33.5 -11.5z" />
    <glyph glyph-name="Zacute" unicode="&#x179;" 
d="M503 676v-52l-385 -570h325v149h56v-203h-453v52l385 570h-309v-124h-56v178h437zM315 899h66l-87 -151h-57z" />
    <glyph glyph-name="zacute" unicode="&#x17a;" horiz-adv-x="444" 
d="M386 456v-47l-270 -359h223l10 103h44v-153h-349v47l270 360h-203l-10 -87h-44v136h329zM247 696h66l-87 -151h-57z" />
    <glyph glyph-name="Zdotaccent" unicode="&#x17b;" 
d="M503 676v-52l-385 -570h325v149h56v-203h-453v52l385 570h-309v-124h-56v178h437zM286 773q-47 0 -47 46q0 47 47 47q20 0 33.5 -12t13.5 -35t-13.5 -34.5t-33.5 -11.5z" />
    <glyph glyph-name="zdotaccent" unicode="&#x17c;" horiz-adv-x="444" 
d="M386 456v-47l-270 -359h223l10 103h44v-153h-349v47l270 360h-203l-10 -87h-44v136h329zM218 570q-47 0 -47 46q0 47 47 47q20 0 33.5 -12t13.5 -35t-13.5 -34.5t-33.5 -11.5z" />
    <glyph glyph-name="Zcaron" unicode="&#x17d;" 
d="M503 676v-52l-385 -570h325v149h56v-203h-453v52l385 570h-309v-124h-56v178h437zM323 748h-73l-95 151h56l76 -111l75 111h57z" />
    <glyph glyph-name="zcaron" unicode="&#x17e;" horiz-adv-x="444" 
d="M386 456v-47l-270 -359h223l10 103h44v-153h-349v47l270 360h-203l-10 -87h-44v136h329zM255 545h-73l-95 151h56l76 -111l75 111h57z" />
    <glyph glyph-name="florin" unicode="&#x192;" 
d="M304 404v-474q0 -70 -31.5 -113t-102.5 -43q-22 0 -50 7v55q24 -6 51 -6q43 0 59.5 25.5t16.5 77.5v471h-102v52h102v94q0 70 31.5 113t102.5 43q24 0 50 -7v-55q-24 6 -51 6q-43 0 -59.5 -25.5t-16.5 -77.5v-91h112v-52h-112z" />
    <glyph glyph-name="Aringacute" unicode="&#x1fa;" horiz-adv-x="685" 
d="M241 809q0 37 23.5 61.5t62.5 28.5l57 76h65l-68 -81q62 -21 62 -85q0 -40 -27.5 -66t-74.5 -26q-45 0 -72.5 26t-27.5 66zM285 809q0 -24 15 -38.5t41 -14.5q27 0 42.5 14.5t15.5 38.5t-15.5 39t-42.5 15q-26 0 -41 -15t-15 -39zM454 0v54h96l-63 168h-290l-65 -168h97
v-54h-225v54h64l219 568h-61v54h233v-54h-59l217 -568h63v-54h-226zM214 277h257l-127 339z" />
    <glyph glyph-name="aringacute" unicode="&#x1fb;" horiz-adv-x="485" 
d="M129 388v-85h-47q-12 34 -12 69q0 43 41.5 68.5t123.5 25.5q39 0 66.5 -4.5t45.5 -16t28 -22.5t14.5 -35t5.5 -42t1 -53v-209q0 -35 29 -35q19 0 39 5v-53q-24 -5 -53 -5q-31 0 -50 16.5t-20 48.5q-63 -72 -158 -72q-140 0 -140 127q0 63 51.5 94.5t151.5 44.5l92 12v121
q-33 25 -99 25q-75 0 -110 -25zM139 614q0 37 23.5 62t63.5 29l53 70h64l-64 -76q29 -9 45.5 -31.5t16.5 -53.5q0 -40 -27.5 -66t-74.5 -26q-45 0 -72.5 26t-27.5 66zM105 118q0 -77 88 -77q85 0 145 62v119l-88 -13q-77 -11 -111 -30.5t-34 -60.5zM183 614q0 -25 15 -39.5
t41 -14.5q27 0 42.5 14.5t15.5 39.5q0 24 -15.5 39t-42.5 15q-25 0 -40.5 -15t-15.5 -39z" />
    <glyph glyph-name="AEacute" unicode="&#x1fc;" horiz-adv-x="993" 
d="M691 899h66l-87 -151h-57zM294 277h251v339zM422 676h512v-157h-57v103h-273v-246h247v-55h-247v-267h277v112h56v-166h-487v54h95v168h-289l-126 -168h95v-54h-226v54h63l420 568h-60v54z" />
    <glyph glyph-name="aeacute" unicode="&#x1fd;" horiz-adv-x="761" 
d="M456 696h66l-87 -151h-57zM540 42q76 0 150 53l20 -48q-74 -58 -174 -58q-59 0 -102.5 24.5t-61.5 66.5q-18 -38 -73 -64.5t-114 -26.5q-142 0 -142 127q0 64 51.5 95t152.5 44l91 12v121q-36 25 -107 25q-70 0 -102 -25v-85h-47q-12 34 -12 69q0 43 42 68.5t123 25.5
q132 0 152 -69q46 69 146 69q86 0 131.5 -54.5t45.5 -134.5q0 -39 -6 -67h-304q1 -82 33.5 -125t106.5 -43zM400 259h250q2 12 2 22q0 60 -31 96.5t-89 36.5q-122 0 -132 -155zM105 118q0 -77 88 -77q46 0 84 19t61 43v119l-88 -13q-77 -11 -111 -30.5t-34 -60.5z" />
    <glyph glyph-name="Oslashacute" unicode="&#x1fe;" horiz-adv-x="655" 
d="M596 337q0 -348 -269 -348q-65 0 -117 22l-21 -49h-49v12l26 62q-107 81 -107 301q0 349 270 349q58 0 107 -19l17 39h52v-11l-23 -52q114 -81 114 -306zM533 337q0 181 -76 247l-223 -519q40 -20 95 -20q111 0 157.5 75.5t46.5 216.5zM124 337q0 -175 68 -240l221 517
q-37 16 -86 16q-111 0 -157 -76t-46 -217zM369 899h65l-87 -151h-56z" />
    <glyph glyph-name="oslashacute" unicode="&#x1ff;" horiz-adv-x="504" 
d="M252 466q30 0 51 -4l19 57h48v-11l-22 -61q106 -47 106 -218q0 -240 -204 -240q-31 0 -58 6l-19 -59h-44v12l20 62q-99 50 -99 218q0 111 48.5 174.5t153.5 63.5zM289 696h66l-87 -151h-57zM252 43q77 0 108.5 47t31.5 138q0 129 -65 163l-115 -344q16 -4 40 -4zM111 229
q0 -124 60 -162l113 342q-17 3 -32 3q-77 0 -109 -46.5t-32 -136.5z" />
    <glyph glyph-name="Scommaaccent" unicode="&#x218;" horiz-adv-x="529" 
d="M451 647v-162h-49l-13 126q-55 20 -120 20t-101.5 -36.5t-36.5 -89.5q0 -47 24.5 -74t80.5 -47l86 -32q74 -27 112.5 -70t38.5 -111q0 -73 -57 -127.5t-156 -54.5q-113 0 -190 42l-10 177h49l21 -140q55 -25 130 -25q65 0 107 34.5t42 91.5q0 86 -107 126l-93 34
q-71 26 -105.5 66.5t-34.5 107.5q0 73 53 128t147 55q97 0 182 -39zM314 -71l-47 -145h-47l25 145h69z" />
    <glyph glyph-name="scommaaccent" unicode="&#x219;" horiz-adv-x="432" 
d="M368 439v-121h-46l-11 85q-38 14 -89 14q-49 0 -73 -23t-24 -55q0 -51 62 -70l82 -27q57 -18 86 -47.5t29 -78.5q0 -55 -46 -91t-125 -36q-76 0 -154 35l-12 136h46l22 -103q45 -20 98 -20q48 0 78 20t30 56q0 30 -18 47t-55 28l-86 28q-100 33 -100 119q0 54 40.5 92.5
t118.5 38.5t147 -27zM257 -71l-47 -145h-47l25 145h69z" />
    <glyph glyph-name="uni021A" unicode="&#x21a;" 
d="M30 676h501v-161h-52v107h-172v-568h98v-54h-257v54h100v568h-165v-107h-53v161zM316 -71l-47 -145h-47l25 145h69z" />
    <glyph glyph-name="uni021B" unicode="&#x21b;" horiz-adv-x="334" 
d="M162 403v-281q0 -78 66 -78q43 0 72 14l11 -52q-37 -17 -95 -17q-56 0 -83.5 34.5t-27.5 94.5v285h-89v43l89 10v116l57 12v-128h133v-53h-133zM234 -71l-47 -145h-47l25 145h69z" />
    <glyph glyph-name="dotlessj" unicode="&#x237;" horiz-adv-x="246" 
d="M52 -226l-26 48q48 19 66.5 49t18.5 95v437h-91v53h148v-486q0 -78 -24.5 -126t-91.5 -70z" />
    <glyph glyph-name="circumflex" unicode="&#x2c6;" horiz-adv-x="600" 
d="M263 696h73l96 -151h-57l-76 111l-75 -111h-56z" />
    <glyph glyph-name="caron" unicode="&#x2c7;" horiz-adv-x="600" 
d="M336 545h-73l-95 151h56l76 -111l75 111h57z" />
    <glyph glyph-name="breve" unicode="&#x2d8;" horiz-adv-x="600" 
d="M382 681h46q0 -58 -35 -94.5t-94 -36.5q-58 0 -93 36.5t-35 94.5h44q2 -37 23.5 -60.5t60.5 -23.5t60.5 23.5t22.5 60.5z" />
    <glyph glyph-name="dotaccent" unicode="&#x2d9;" horiz-adv-x="600" 
d="M300 570q-47 0 -47 46q0 47 47 47q20 0 33.5 -12t13.5 -35t-13.5 -34.5t-33.5 -11.5z" />
    <glyph glyph-name="ring" unicode="&#x2da;" horiz-adv-x="600" 
d="M198 624q0 40 28 65.5t73 25.5q46 0 74 -25.5t28 -65.5t-28 -66t-74 -26q-45 0 -73 26t-28 66zM242 624q0 -25 15.5 -39.5t41.5 -14.5q27 0 42 14.5t15 39.5q0 24 -15 39t-42 15q-26 0 -41.5 -15t-15.5 -39z" />
    <glyph glyph-name="ogonek" unicode="&#x2db;" horiz-adv-x="600" 
d="M381 1l1 -1l-74 -55q-35 -26 -35 -58q0 -36 41 -36q28 0 55 17l10 -45q-38 -19 -73 -19q-41 0 -66.5 20.5t-25.5 55.5q0 48 51 84l72 51z" />
    <glyph glyph-name="tilde" unicode="&#x2dc;" horiz-adv-x="600" 
d="M434 625l-8 -50q-27 25 -59 25q-21 0 -64 -17t-72 -17q-43 0 -66 25l8 49q24 -24 58 -24q23 0 64.5 17.5t71.5 17.5q36 0 67 -26z" />
    <glyph glyph-name="hungarumlaut" unicode="&#x2dd;" horiz-adv-x="600" 
d="M235 696h66l-87 -151h-57zM377 696h66l-87 -151h-57z" />
    <glyph glyph-name="uni0394" unicode="&#x394;" horiz-adv-x="714" 
d="M34 0l285 676h78l283 -676h-646zM587 54l-229 564l-233 -564h462z" />
    <glyph glyph-name="uni03A9" unicode="&#x3a9;" horiz-adv-x="692" 
d="M60 54h166q-65 46 -111.5 129t-46.5 180q0 92 28 162.5t92 115.5t158 45t158.5 -45t92.5 -116t28 -162q0 -97 -46.5 -180t-112.5 -129h166v-54h-238v54q73 50 120 129.5t47 178.5q0 123 -53 195.5t-162 72.5t-161.5 -72.5t-52.5 -195.5q0 -99 47 -178.5t120 -129.5v-54
h-239v54z" />
    <glyph glyph-name="uni03BC" unicode="&#x3bc;" horiz-adv-x="595" 
d="M177 -216h-57v619h-78v53h135v-291q0 -60 23 -90t85 -30q47 0 84.5 23t57.5 55v280h-98v53h155v-403h71v-53h-122v69q-63 -80 -160 -80q-66 0 -96 30v-235z" />
    <glyph glyph-name="pi" unicode="&#x3c0;" horiz-adv-x="555" 
d="M112 0v403h-92v53h502v-53h-102v-281q0 -78 66 -78q18 0 29 2v-51q-18 -6 -40 -6q-57 0 -84.5 34.5t-27.5 94.5v285h-194v-403h-57z" />
    <glyph glyph-name="Wgrave" unicode="&#x1e80;" horiz-adv-x="979" 
d="M717 622v54h257v-54h-71l-174 -622h-75l-163 463l-164 -463h-75l-176 622h-72v54h238v-54h-104l155 -561l169 476l-50 139h67l211 -614l154 560h-127zM380 899h66l78 -151h-57z" />
    <glyph glyph-name="wgrave" unicode="&#x1e81;" horiz-adv-x="790" 
d="M562 403v53h215v-53h-62l-128 -403h-69l-121 295l-126 -295h-67l-132 403h-59v53h207v-53h-87l110 -344l124 296l-41 101h62l163 -397l103 344h-92zM300 696h66l78 -151h-57z" />
    <glyph glyph-name="Wacute" unicode="&#x1e82;" horiz-adv-x="979" 
d="M717 622v54h257v-54h-71l-174 -622h-75l-163 463l-164 -463h-75l-176 622h-72v54h238v-54h-104l155 -561l169 476l-50 139h67l211 -614l154 560h-127zM525 899h66l-87 -151h-57z" />
    <glyph glyph-name="wacute" unicode="&#x1e83;" horiz-adv-x="790" 
d="M562 403v53h215v-53h-62l-128 -403h-69l-121 295l-126 -295h-67l-132 403h-59v53h207v-53h-87l110 -344l124 296l-41 101h62l163 -397l103 344h-92zM417 696h66l-87 -151h-57z" />
    <glyph glyph-name="Wdieresis" unicode="&#x1e84;" horiz-adv-x="979" 
d="M717 622v54h257v-54h-71l-174 -622h-75l-163 463l-164 -463h-75l-176 622h-72v54h238v-54h-104l155 -561l169 476l-50 139h67l211 -614l154 560h-127zM400 773q-47 0 -47 46q0 47 47 47q20 0 33.5 -12t13.5 -35t-13.5 -34.5t-33.5 -11.5zM576 773q-47 0 -47 46
q0 47 47 47q20 0 33.5 -12t13.5 -35t-13.5 -34.5t-33.5 -11.5z" />
    <glyph glyph-name="wdieresis" unicode="&#x1e85;" horiz-adv-x="790" 
d="M562 403v53h215v-53h-62l-128 -403h-69l-121 295l-126 -295h-67l-132 403h-59v53h207v-53h-87l110 -344l124 296l-41 101h62l163 -397l103 344h-92zM306 570q-47 0 -47 46q0 47 47 47q20 0 33.5 -12t13.5 -35t-13.5 -34.5t-33.5 -11.5zM482 570q-47 0 -47 46q0 47 47 47
q20 0 33.5 -12t13.5 -35t-13.5 -34.5t-33.5 -11.5z" />
    <glyph glyph-name="Ygrave" unicode="&#x1ef2;" horiz-adv-x="607" 
d="M6 622v54h220v-54h-94l172 -295l176 295h-95v54h221v-54h-60l-214 -348v-220h96v-54h-255v54h101v220l-207 348h-61zM203 899h66l78 -151h-57z" />
    <glyph glyph-name="ygrave" unicode="&#x1ef3;" horiz-adv-x="575" 
d="M79 -215v49h111l81 180l-162 389h-98v53h159v-49l131 -329l141 325h-125v53h247v-53h-60l-251 -565q-28 -64 -95 -64q-46 0 -79 11zM194 696h66l78 -151h-57z" />
    <glyph glyph-name="endash" unicode="&#x2013;" horiz-adv-x="577" 
d="M66 298h445v-57h-445v57z" />
    <glyph glyph-name="emdash" unicode="&#x2014;" horiz-adv-x="717" 
d="M66 298h585v-57h-585v57z" />
    <glyph glyph-name="quoteleft" unicode="&#x2018;" horiz-adv-x="191" 
d="M47 469l48 207h46l-25 -207h-69z" />
    <glyph glyph-name="quoteright" unicode="&#x2019;" horiz-adv-x="188" 
d="M148 676l-47 -207h-47l25 207h69z" />
    <glyph glyph-name="quotesinglbase" unicode="&#x201a;" horiz-adv-x="197" 
d="M138 94l-47 -208h-47l25 208h69z" />
    <glyph glyph-name="quotedblleft" unicode="&#x201c;" horiz-adv-x="311" 
d="M167 469l47 207h47l-25 -207h-69zM47 469l48 207h46l-25 -207h-69z" />
    <glyph glyph-name="quotedblright" unicode="&#x201d;" horiz-adv-x="307" 
d="M148 676l-47 -207h-47l25 207h69zM267 676l-47 -207h-47l25 207h69z" />
    <glyph glyph-name="quotedblbase" unicode="&#x201e;" horiz-adv-x="317" 
d="M138 93l-47 -207h-47l25 207h69zM258 93l-48 -207h-46l25 207h69z" />
    <glyph glyph-name="dagger" unicode="&#x2020;" horiz-adv-x="433" 
d="M38 293h154v403h50v-403h153v-48h-153v-461h-50v461h-154v48z" />
    <glyph glyph-name="daggerdbl" unicode="&#x2021;" horiz-adv-x="453" 
d="M48 449h153v247h50v-247h154v-48h-154v-324h154v-48h-154v-245h-50v245h-153v48h153v324h-153v48z" />
    <glyph glyph-name="bullet" unicode="&#x2022;" 
d="M280 173q-43 0 -71.5 27t-28.5 69t28.5 69.5t71.5 27.5t71 -27.5t28 -69.5t-28 -69t-71 -27z" />
    <glyph glyph-name="ellipsis" unicode="&#x2026;" horiz-adv-x="567" 
d="M106 -7q-22 0 -36.5 14t-14.5 36q0 21 14.5 35.5t36.5 14.5t36.5 -14.5t14.5 -35.5q0 -22 -14.5 -36t-36.5 -14zM460 -7q-22 0 -36.5 14t-14.5 36q0 21 14.5 35.5t36.5 14.5t36.5 -14.5t14.5 -35.5q0 -22 -14.5 -36t-36.5 -14zM284 -11q-22 0 -36.5 14t-14.5 36
q0 21 14.5 35.5t36.5 14.5t36.5 -14.5t14.5 -35.5q0 -22 -14.5 -36t-36.5 -14z" />
    <glyph glyph-name="perthousand" unicode="&#x2030;" horiz-adv-x="989" 
d="M574 676v-7l-412 -669h-51v7l409 669h54zM189 686q70 0 105.5 -43t35.5 -110q0 -69 -35.5 -112t-105.5 -43q-69 0 -104 43t-35 112q0 66 35.5 109.5t103.5 43.5zM189 429q45 0 66.5 28.5t21.5 75.5q0 101 -88 101q-44 0 -65.5 -27.5t-21.5 -73.5q0 -47 21.5 -75.5
t65.5 -28.5zM496 297q71 0 106 -42.5t35 -110.5q0 -69 -35.5 -112t-105.5 -43q-69 0 -104 43t-35 112q0 67 36 110t103 43zM496 41q45 0 67 28t22 75q0 46 -22 74t-67 28q-44 0 -65 -28t-21 -74q0 -47 21 -75t65 -28zM807 297q71 0 106 -42.5t35 -110.5t-35.5 -111.5
t-105.5 -43.5q-69 0 -104 43t-35 112q0 67 35.5 110t103.5 43zM807 41q45 0 66.5 28t21.5 75q0 46 -21.5 74t-66.5 28q-44 0 -65.5 -28t-21.5 -74q0 -47 21.5 -75t65.5 -28z" />
    <glyph glyph-name="guilsinglleft" unicode="&#x2039;" horiz-adv-x="299" 
d="M42 270l169 207l39 -34l-132 -173l132 -173l-39 -34z" />
    <glyph glyph-name="guilsinglright" unicode="&#x203a;" horiz-adv-x="299" 
d="M88 477l169 -207l-169 -207l-39 34l132 173l-132 173z" />
    <glyph glyph-name="fraction" unicode="&#x2044;" horiz-adv-x="102" 
d="M283 676v-7l-412 -669h-51v7l409 669h54z" />
    <glyph glyph-name="zerosuperior" unicode="&#x2070;" horiz-adv-x="353" 
d="M91 614q0 -69 19 -100t67 -31q47 0 66 31.5t19 99.5q0 70 -19 102t-67 32q-47 0 -66 -32.5t-19 -101.5zM316 614q0 -177 -141 -177q-74 0 -106 45.5t-32 131.5q0 179 139 179q140 0 140 -179z" />
    <glyph glyph-name="foursuperior" unicode="&#x2074;" horiz-adv-x="323" 
d="M302 559v-42h-57v-74h-51v74h-179v38l138 179l34 54h58v-229h57zM72 559h122v160z" />
    <glyph glyph-name="fivesuperior" unicode="&#x2075;" horiz-adv-x="308" 
d="M32 467l3 73h43v-46q29 -12 62 -12q40 0 61 18.5t21 52.5q0 66 -77 66q-36 0 -79 -18l-21 5l24 182h195v-45h-154l-13 -94q26 15 67 15q53 0 82 -29.5t29 -79.5q0 -55 -34.5 -86.5t-99.5 -31.5q-62 0 -109 30z" />
    <glyph glyph-name="sixsuperior" unicode="&#x2076;" horiz-adv-x="329" 
d="M191 748q-54 0 -78 -35t-24 -85q0 -7 1 -9q7 18 32.5 32.5t59.5 14.5q55 0 84.5 -30t29.5 -81q0 -54 -32.5 -86t-95.5 -32q-65 0 -98.5 43.5t-33.5 125.5q0 85 37.5 136t118.5 51q51 0 97 -22l-19 -41q-39 18 -79 18zM171 482q38 0 56 19.5t18 50.5q0 65 -71 65
q-59 0 -83 -46q6 -89 80 -89z" />
    <glyph glyph-name="sevensuperior" unicode="&#x2077;" horiz-adv-x="282" 
d="M72 443l137 303h-136v-63h-48v105h247l-1 -36q-16 -21 -40 -77l-101 -232h-58z" />
    <glyph glyph-name="eightsuperior" unicode="&#x2078;" horiz-adv-x="336" 
d="M292 699q0 -47 -54 -79q62 -26 62 -82q0 -47 -35.5 -74t-96.5 -27q-60 0 -96 26.5t-36 71.5q0 28 16.5 50t41.5 33q-49 25 -49 78q0 42 32.5 69.5t90.5 27.5q60 0 92 -26.5t32 -67.5zM197 583l-67 21q-42 -26 -42 -64q0 -26 21 -42t61 -16q76 0 76 52q0 35 -49 49z
M98 699q0 -32 43 -45l57 -19q42 22 42 59q0 25 -18.5 40.5t-56.5 15.5q-67 0 -67 -51z" />
    <glyph glyph-name="ninesuperior" unicode="&#x2079;" horiz-adv-x="330" 
d="M139 482q102 0 102 116q0 6 -1 10q-9 -20 -34.5 -34.5t-59.5 -14.5q-54 0 -83 31t-29 84t33.5 86t94.5 33q68 0 99.5 -47.5t31.5 -125.5q0 -183 -154 -183q-53 0 -98 25l18 43q41 -23 80 -23zM161 748q-75 0 -75 -71q0 -69 70 -69q56 0 83 48q-4 92 -78 92z" />
    <glyph glyph-name="zeroinferior" unicode="&#x2080;" horiz-adv-x="351" 
d="M90 71q0 -69 19 -100.5t67 -31.5q47 0 66.5 32t19.5 100q0 69 -19.5 101t-67.5 32q-47 0 -66 -32t-19 -101zM315 71q0 -177 -140 -177q-74 0 -106.5 45.5t-32.5 131.5q0 179 139 179q140 0 140 -179z" />
    <glyph glyph-name="oneinferior" unicode="&#x2081;" horiz-adv-x="274" 
d="M38 -100v45h94v249l-94 -30l-12 41l111 40h46v-300h79v-45h-224z" />
    <glyph glyph-name="twoinferior" unicode="&#x2082;" horiz-adv-x="315" 
d="M279 -100h-245v39q123 111 132 119q28 27 39.5 46t11.5 45t-16 41.5t-48 15.5q-31 0 -48.5 -16t-17.5 -42q0 -4 3 -19l-52 -4q-2 14 -2 23q0 45 30.5 73.5t86.5 28.5q58 0 88 -28t30 -73q0 -58 -72 -120q-74 -63 -95 -84h132v41h43v-86z" />
    <glyph glyph-name="threeinferior" unicode="&#x2083;" horiz-adv-x="310" 
d="M81 152h-39l-4 66q48 32 108 32t89 -27t29 -68q0 -33 -18 -53.5t-45 -27.5q32 -6 53 -26t21 -56q0 -45 -33.5 -71.5t-97.5 -26.5q-73 0 -116 38l24 38q38 -31 92 -31q78 0 78 55t-85 55h-41v44h38q36 0 57 14.5t21 41.5q0 56 -67 56q-33 0 -64 -14v-39z" />
    <glyph glyph-name="fourinferior" unicode="&#x2084;" horiz-adv-x="322" 
d="M302 16v-42h-57v-74h-51v74h-179v38l138 179l34 54h58v-229h57zM72 16h122v160z" />
    <glyph glyph-name="fiveinferior" unicode="&#x2085;" horiz-adv-x="309" 
d="M32 -76l3 73h43v-46q26 -12 62 -12q40 0 61 18.5t21 52.5q0 65 -77 65q-40 0 -79 -18l-21 5l24 183h195v-45h-154l-13 -94q26 15 67 15q53 0 82 -29.5t29 -79.5q0 -55 -34.5 -86.5t-99.5 -31.5q-62 0 -109 30z" />
    <glyph glyph-name="sixinferior" unicode="&#x2086;" horiz-adv-x="329" 
d="M191 205q-54 0 -78 -35t-24 -86q0 -6 1 -9q7 19 32.5 33.5t59.5 14.5q55 0 84.5 -30t29.5 -81q0 -54 -32.5 -86t-95.5 -32q-65 0 -98.5 43.5t-33.5 125.5q0 85 37.5 136t118.5 51q47 0 97 -22l-19 -41q-39 18 -79 18zM171 -61q38 0 56 19.5t18 50.5q0 65 -71 65
q-59 0 -83 -46q6 -89 80 -89z" />
    <glyph glyph-name="seveninferior" unicode="&#x2087;" horiz-adv-x="281" 
d="M71 -100l137 303h-136v-63h-47v105h246l-1 -36q-16 -21 -40 -77l-101 -232h-58z" />
    <glyph glyph-name="eightinferior" unicode="&#x2088;" horiz-adv-x="336" 
d="M292 156q0 -48 -54 -80q62 -26 62 -81q0 -47 -35.5 -74t-96.5 -27t-96.5 26t-35.5 72q0 28 16.5 50t41.5 33q-49 25 -49 78q0 42 32.5 69.5t90.5 27.5q60 0 92 -26.5t32 -67.5zM130 61q-42 -27 -42 -64q0 -27 21 -42.5t61 -15.5q76 0 76 52q0 35 -49 49zM98 156
q0 -32 43 -45l57 -20q42 24 42 59q0 25 -18.5 41t-56.5 16q-67 0 -67 -51z" />
    <glyph glyph-name="nineinferior" unicode="&#x2089;" horiz-adv-x="329" 
d="M139 -61q101 0 101 115q0 7 -1 10q-9 -20 -34 -34t-59 -14q-54 0 -83.5 31t-29.5 84t33.5 86t94.5 33q69 0 100.5 -47.5t31.5 -125.5q0 -183 -155 -183q-53 0 -98 25l18 42q42 -22 81 -22zM160 205q-39 0 -57 -20t-18 -51q0 -69 70 -69q58 0 83 48q-4 92 -78 92z" />
    <glyph glyph-name="rupee" unicode="&#x20a8;" horiz-adv-x="536" 
d="M60 676h409v-49h-126q51 -42 57 -117h69v-49h-69q-7 -67 -51.5 -110.5t-118.5 -53.5q55 -37 99 -101t67 -142h85v-54h-220v54h69q-20 72 -65 135t-106 103h-99v54h107q153 0 169 115h-275v49h275q-8 56 -43 84t-110 28h-123v54z" />
    <glyph glyph-name="Euro" unicode="&#x20ac;" 
d="M40 427h55q16 122 78 190.5t171 68.5q90 0 172 -45l-23 -54q-69 42 -151 42q-158 0 -185 -202h271l-21 -49h-255q-1 -12 -1 -38q0 -19 2 -49h220l-20 -49h-195q31 -195 187 -195q86 0 162 49l16 -56q-87 -51 -179 -51q-216 0 -248 253h-56v49h51q-1 15 -1 49q0 26 1 38
h-51v49z" />
    <glyph glyph-name="afii61289" unicode="&#x2113;" horiz-adv-x="400" 
d="M365 37q-56 -48 -125 -48q-102 0 -102 128v132q-43 -37 -83 -63l-23 38q52 35 106 83v228q0 86 30.5 128.5t81.5 42.5q49 0 73.5 -35t24.5 -96q0 -137 -162 -291v-161q0 -85 56 -85q52 0 100 41zM298 571q0 84 -51 84q-29 0 -45 -29.5t-16 -81.5v-199q112 117 112 226z
" />
    <glyph glyph-name="uni2117" unicode="&#x2117;" horiz-adv-x="807" 
d="M57 338q0 158 98.5 255t248.5 97t248 -97t98 -255t-98 -256.5t-248 -98.5t-248.5 98.5t-98.5 256.5zM109 338q0 -139 82.5 -222.5t212.5 -83.5q129 0 211.5 83.5t82.5 222.5t-82 221t-212 82t-212.5 -82t-82.5 -221zM259 540h174q73 0 110 -34.5t37 -91.5t-37 -90.5
t-110 -33.5h-75v-116h78v-43h-177v43h49v322h-49v44zM528 415q0 81 -94 81h-76v-161h76q94 0 94 80z" />
    <glyph glyph-name="trademark" unicode="&#x2122;" horiz-adv-x="702" 
d="M87 607h194v-70h-33v37h-46v-172h34v-32h-108v32h35v172h-43v-37h-33v70zM466 414l58 193h82v-33h-25l22 -172h27v-32h-94v32h30l-18 162l-62 -194h-43l-57 193l-21 -161h32v-32h-94v32h25l23 172h-25v33h84z" />
    <glyph glyph-name="Omega" unicode="&#x2126;" horiz-adv-x="692" 
d="M60 54h166q-65 46 -111.5 129t-46.5 180q0 92 28 162.5t92 115.5t158 45t158.5 -45t92.5 -116t28 -162q0 -97 -46.5 -180t-112.5 -129h166v-54h-238v54q73 50 120 129.5t47 178.5q0 123 -53 195.5t-162 72.5t-161.5 -72.5t-52.5 -195.5q0 -99 47 -178.5t120 -129.5v-54
h-239v54z" />
    <glyph glyph-name="estimated" unicode="&#x212e;" horiz-adv-x="766" 
d="M718 338h-511v-230q74 -74 183 -74q80 0 139 36.5t106 115.5l45 -27q-59 -92 -125 -131.5t-165 -39.5q-146 0 -236.5 100t-90.5 250q0 151 90 250.5t237 99.5q146 0 236.5 -98t91.5 -252zM207 384h369v184q-81 75 -187 75q-107 0 -182 -75v-184z" />
    <glyph glyph-name="onethird" unicode="&#x2153;" horiz-adv-x="725" 
d="M601 676v-7l-412 -669h-51v7l409 669h54zM483 252h-39l-4 66q48 32 108 32t89 -27t29 -68q0 -33 -18 -53.5t-45 -27.5q32 -6 53 -26t21 -56q0 -45 -33.5 -71.5t-97.5 -26.5q-73 0 -116 38l24 38q38 -31 92 -31q78 0 78 55t-85 55h-41v44h38q36 0 57 14.5t21 41.5
q0 56 -67 56q-33 0 -64 -14v-39zM59 331v45h94v249l-94 -32l-12 41l111 42h46v-300h79v-45h-224z" />
    <glyph glyph-name="twothirds" unicode="&#x2154;" horiz-adv-x="741" 
d="M618 676v-7l-412 -669h-51v7l409 669h54zM499 252h-39l-4 66q48 32 108 32t89 -27t29 -68q0 -33 -18 -53.5t-45 -27.5q32 -6 53 -26t21 -56q0 -45 -33.5 -71.5t-97.5 -26.5q-73 0 -116 38l24 38q38 -31 92 -31q78 0 78 55t-85 55h-41v44h38q36 0 57 14.5t21 41.5
q0 56 -67 56q-33 0 -64 -14v-39zM298 331h-245v39q6 6 64 58t68 62q28 26 39.5 44.5t11.5 45.5q0 26 -16 41.5t-48 15.5q-31 0 -48.5 -16t-17.5 -42q0 -11 3 -19l-52 -4q-2 7 -2 23q0 46 30.5 74t86.5 28q58 0 88 -28t30 -73q0 -57 -72 -119q-12 -10 -35 -30.5t-41 -36.5
t-20 -18h133v41h43v-86z" />
    <glyph glyph-name="oneeighth" unicode="&#x215b;" horiz-adv-x="730" 
d="M601 676v-7l-412 -669h-51v7l409 669h54zM673 256q0 -48 -54 -80q62 -26 62 -81q0 -47 -35.5 -74t-96.5 -27t-96.5 26t-35.5 72q0 28 16.5 50t41.5 33q-49 25 -49 78q0 42 32.5 69.5t90.5 27.5q60 0 92 -26.5t32 -67.5zM511 161q-42 -27 -42 -64q0 -27 21 -42.5t61 -15.5
q76 0 76 52q0 35 -49 49zM479 256q0 -32 43 -45l57 -20q42 24 42 59q0 25 -18.5 41t-56.5 16q-67 0 -67 -51zM59 331v45h94v249l-94 -32l-12 41l111 42h46v-300h79v-45h-224z" />
    <glyph glyph-name="threeeighths" unicode="&#x215c;" horiz-adv-x="706" 
d="M579 676v-7l-412 -669h-51v7l409 669h54zM101 583h-39l-4 66q45 32 108 32q60 0 89 -27t29 -68q0 -33 -18 -53.5t-46 -26.5q75 -15 75 -82q0 -46 -34 -72.5t-98 -26.5q-72 0 -115 38l24 39q37 -32 91 -32q79 0 79 55q0 28 -20 41.5t-66 13.5h-40v45h38q35 0 56 14t21 41
q0 56 -66 56q-36 0 -64 -14v-39zM651 256q0 -48 -54 -80q62 -26 62 -81q0 -47 -35.5 -74t-96.5 -27t-96.5 26t-35.5 72q0 28 16.5 50t41.5 33q-49 25 -49 78q0 42 32.5 69.5t90.5 27.5q60 0 92 -26.5t32 -67.5zM489 161q-42 -27 -42 -64q0 -27 21 -42.5t61 -15.5q76 0 76 52
q0 35 -49 49zM457 256q0 -32 43 -45l57 -20q42 24 42 59q0 25 -18.5 41t-56.5 16q-67 0 -67 -51z" />
    <glyph glyph-name="fiveeighths" unicode="&#x215d;" horiz-adv-x="700" 
d="M573 676v-7l-412 -669h-51v7l409 669h54zM645 256q0 -48 -54 -80q62 -26 62 -81q0 -47 -35.5 -74t-96.5 -27t-96.5 26t-35.5 72q0 28 16.5 50t41.5 33q-49 25 -49 78q0 42 32.5 69.5t90.5 27.5q60 0 92 -26.5t32 -67.5zM483 161q-42 -27 -42 -64q0 -27 21 -42.5t61 -15.5
q76 0 76 52q0 35 -49 49zM451 256q0 -32 43 -45l57 -20q42 24 42 59q0 25 -18.5 41t-56.5 16q-67 0 -67 -51zM50 355l3 73h43v-46q29 -12 62 -12q40 0 61 18.5t21 52.5q0 66 -77 66q-36 0 -79 -18l-21 5l24 182h195v-45h-154l-13 -94q26 15 67 15q53 0 82 -29.5t29 -79.5
q0 -55 -34.5 -86.5t-99.5 -31.5q-62 0 -109 30z" />
    <glyph glyph-name="seveneighths" unicode="&#x215e;" horiz-adv-x="656" 
d="M529 676v-7l-412 -669h-51v7l409 669h54zM601 256q0 -48 -54 -80q62 -26 62 -81q0 -47 -35.5 -74t-96.5 -27t-96.5 26t-35.5 72q0 28 16.5 50t41.5 33q-49 25 -49 78q0 42 32.5 69.5t90.5 27.5q60 0 92 -26.5t32 -67.5zM439 161q-42 -27 -42 -64q0 -27 21 -42.5t61 -15.5
q76 0 76 52q0 35 -49 49zM407 256q0 -32 43 -45l57 -20q42 24 42 59q0 25 -18.5 41t-56.5 16q-67 0 -67 -51zM97 331l137 303h-136v-63h-48v105h247l-1 -36q-16 -21 -40 -77l-101 -232h-58z" />
    <glyph glyph-name="arrowleft" unicode="&#x2190;" horiz-adv-x="750" 
d="M81 252v46l236 237l37 -38l-196 -195h515v-54h-515l195 -195l-36 -37z" />
    <glyph glyph-name="arrowup" unicode="&#x2191;" horiz-adv-x="750" 
d="M353 574h46l237 -236l-37 -37l-196 195v-515h-54v515l-194 -195l-38 37z" />
    <glyph glyph-name="arrowright" unicode="&#x2192;" horiz-adv-x="750" 
d="M676 301v-46l-236 -237l-37 38l195 195h-515v54h515l-195 195l37 37z" />
    <glyph glyph-name="arrowdown" unicode="&#x2193;" horiz-adv-x="750" 
d="M402 -21h-46l-236 236l37 37l195 -196v515h54v-515l195 195l37 -36z" />
    <glyph glyph-name="uni2196" unicode="&#x2196;" horiz-adv-x="750" 
d="M152 470l32 32h334v-52h-277l365 -365l-37 -37l-365 365v-277h-52v334z" />
    <glyph glyph-name="uni2197" unicode="&#x2197;" horiz-adv-x="750" 
d="M572 502l31 -31v-335h-52v277l-365 -365l-37 37l365 365h-276v52h334z" />
    <glyph glyph-name="uni2198" unicode="&#x2198;" horiz-adv-x="750" 
d="M604 83l-31 -32h-335v52h277l-365 365l37 37l365 -365v277h52v-334z" />
    <glyph glyph-name="uni2199" unicode="&#x2199;" horiz-adv-x="750" 
d="M184 50l-32 32v334h52v-277l365 365l37 -37l-365 -365h277v-52h-334z" />
    <glyph glyph-name="partialdiff" unicode="&#x2202;" horiz-adv-x="521" 
d="M228 696h77q152 -117 152 -382q0 -93 -20 -164t-68 -116t-120 -45q-98 0 -150 64t-52 167q0 104 45.5 165.5t136.5 61.5q61 0 107.5 -35t61.5 -83q0 241 -170 367zM248 45q135 0 145 216q-46 127 -156 127q-131 0 -131 -171q0 -76 34.5 -124t107.5 -48z" />
    <glyph glyph-name="Delta" unicode="&#x2206;" horiz-adv-x="714" 
d="M34 0l285 676h78l283 -676h-646zM587 54l-229 564l-233 -564h462z" />
    <glyph glyph-name="product" unicode="&#x220f;" horiz-adv-x="752" 
d="M51 676h650v-54h-67v-784h67v-54h-221v54h95v784h-398v-784h96v-54h-222v54h68v784h-68v54z" />
    <glyph glyph-name="summation" unicode="&#x2211;" horiz-adv-x="597" 
d="M483 -51h56v-165h-494v70l268 385l-267 367v70h490v-157h-57v103h-377l280 -383l-280 -401h381v111z" />
    <glyph glyph-name="minus" unicode="&#x2212;" 
d="M55 242v57h449v-57h-449z" />
    <glyph glyph-name="uni2215" unicode="&#x2215;" horiz-adv-x="102" 
d="M283 676v-7l-412 -669h-51v7l409 669h54z" />
    <glyph glyph-name="uni2219" unicode="&#x2219;" horiz-adv-x="228" 
d="M114 219q-22 0 -36.5 14t-14.5 36q0 21 14.5 35.5t36.5 14.5t36.5 -14.5t14.5 -35.5q0 -22 -14.5 -36t-36.5 -14z" />
    <glyph glyph-name="radical" unicode="&#x221a;" horiz-adv-x="579" 
d="M570 696l-243 -912h-69l-162 361l-74 -37l-23 50l130 62l158 -369l222 845h61z" />
    <glyph glyph-name="infinity" unicode="&#x221e;" horiz-adv-x="776" 
d="M706 264q0 -68 -43 -111.5t-110 -43.5q-88 0 -164 113q-75 -112 -165 -112q-67 0 -110.5 42t-43.5 111q0 67 43 111t109 44q86 0 167 -117q77 119 163 119q67 0 110.5 -43.5t43.5 -112.5zM651 263q0 48 -28 77t-74 29q-12 0 -23 -3t-22 -11t-18.5 -13.5t-19 -19t-16 -19
t-16.5 -22t-14 -19.5q33 -49 62.5 -75.5t67.5 -26.5q46 0 73.5 28t27.5 75zM359 262q-77 107 -135 107q-43 0 -71.5 -30t-28.5 -76q0 -48 28.5 -76t73.5 -28q39 0 70 28t63 75z" />
    <glyph glyph-name="integral" unicode="&#x222b;" horiz-adv-x="332" 
d="M194 547v-617q0 -156 -133 -156q-23 0 -51 7v55q25 -6 52 -6q43 0 59.5 25.5t16.5 77.5v617q0 156 133 156q23 0 51 -7v-55q-26 6 -52 6q-43 0 -59.5 -25.5t-16.5 -77.5z" />
    <glyph glyph-name="approxequal" unicode="&#x2248;" 
d="M456 410l20 -49q-38 -56 -99 -56q-32 0 -102.5 35.5t-93.5 35.5q-20 0 -37 -11t-28 -23l-12 -13l-20 48q38 56 101 56q26 0 95.5 -35.5t100.5 -35.5q14 0 28.5 7t22.5 15t16 17zM456 215l20 -48q-38 -56 -99 -56q-32 0 -102.5 35.5t-93.5 35.5q-15 0 -29.5 -7t-23 -15.5
t-16 -16.5t-8.5 -9l-20 49q39 56 101 56q26 0 95.5 -35.5t100.5 -35.5q14 0 28.5 7t22.5 15l16 16z" />
    <glyph glyph-name="notequal" unicode="&#x2260;" 
d="M91 186h139l42 168h-181v57h195l33 129l42 -10l-31 -119h137v-57h-151l-43 -168h194v-57h-208l-34 -134l-40 10l31 124h-125v57z" />
    <glyph glyph-name="lessequal" unicode="&#x2264;" 
d="M84 338v59l377 181v-60l-320 -151l320 -150v-60zM84 92h377v-57h-377v57z" />
    <glyph glyph-name="greaterequal" unicode="&#x2265;" 
d="M475 397v-59l-377 -181v60l320 150l-320 151v60zM98 92h377v-57h-377v57z" />
    <glyph glyph-name="lozenge" unicode="&#x25ca;" horiz-adv-x="616" 
d="M505 349l-200 289l-201 -289l201 -292zM573 349l-241 -349h-53l-242 349l242 347h53z" />
    <glyph glyph-name="circle" unicode="&#x25cb;" horiz-adv-x="792" 
d="M58 339q0 156 95.5 251.5t243.5 95.5q147 0 242 -95.5t95 -251.5t-95 -253t-242 -97q-148 0 -243.5 96.5t-95.5 253.5zM108 339q0 -141 79 -221t210 -80q130 0 208.5 80t78.5 221q0 140 -78.5 219t-208.5 79q-131 0 -210 -79t-79 -219z" />
    <glyph glyph-name="commaaccent" unicode="&#xf6c3;" horiz-adv-x="600" 
d="M347 -71l-47 -145h-47l25 145h69z" />
    <glyph glyph-name="uniF8FF" unicode="&#xf8ff;" horiz-adv-x="611" 
d="M99 0v656h413v-656h-413zM137 38h337v580h-337v-580z" />
    <glyph glyph-name="exclam.sc" horiz-adv-x="246" 
d="M146 158h-46l-11 349h69zM124 -5q-19 0 -32 12t-13 30q0 19 12.5 30.5t32.5 11.5t32.5 -11.5t12.5 -30.5q0 -18 -13 -30t-32 -12z" />
    <glyph glyph-name="numbersign.sc" horiz-adv-x="513" 
d="M125 152h-81l6 52h83l19 115h-79l4 52h83l23 136h55l-22 -136h113l23 136h55l-23 -136h85l-5 -52h-88l-19 -115h85l-6 -52h-88l-25 -152h-55l26 152h-114l-25 -152h-56zM207 319l-19 -115h114l19 115h-114z" />
    <glyph glyph-name="dollar.sc" horiz-adv-x="467" 
d="M254 -77h-39v69q-84 3 -142 33l-8 133h48l18 -99q34 -15 84 -18v189l-29 10q-58 19 -86 51t-28 85q0 52 37 92t106 46v55h39v-54q70 -4 133 -31v-126h-49l-11 92q-33 10 -73 13v-183l28 -9q122 -38 122 -142q0 -51 -39.5 -90.5t-110.5 -45.5v-70zM342 125
q0 33 -24.5 57.5t-63.5 34.5v-174q40 5 64 26.5t24 55.5zM133 379q0 -36 18.5 -54t63.5 -32v169q-39 -5 -60.5 -28t-21.5 -55z" />
    <glyph glyph-name="percent.sc" horiz-adv-x="577" 
d="M476 507v-7l-328 -500h-49v7l327 500h50zM159 515q58 0 87 -33t29 -85t-29.5 -85t-86.5 -33t-86 33t-29 85q0 51 29.5 84.5t85.5 33.5zM159 327q66 0 66 70q0 69 -66 69q-33 0 -49.5 -18.5t-16.5 -50.5q0 -70 66 -70zM417 227q58 0 87 -32.5t29 -84.5t-29.5 -85
t-86.5 -33q-58 0 -87 32.5t-29 85.5q0 51 29.5 84t86.5 33zM417 40q66 0 66 70q0 68 -66 68t-66 -68q0 -70 66 -70z" />
    <glyph glyph-name="ampersand.sc" horiz-adv-x="553" 
d="M446 -8q-64 0 -81 56q-51 -56 -137 -56q-79 0 -122.5 39t-43.5 107q0 99 103 124q-37 8 -62.5 39t-25.5 82q0 60 41 96t122 36q64 0 129 -29l-19 -50q-54 25 -108 25q-106 0 -106 -86q0 -45 30.5 -66.5t82.5 -21.5h109v82l55 10v-92h84v-50h-84v-145q0 -47 47 -47
q15 0 45 10l5 -51q-34 -12 -64 -12zM358 237h-111q-123 0 -123 -96t112 -96q75 0 122 49v143z" />
    <glyph glyph-name="section.sc" horiz-adv-x="466" 
d="M407 198q0 -57 -61 -91q58 -33 58 -87q0 -47 -46 -76.5t-133 -29.5q-96 0 -157 37v96h44l10 -66q40 -20 103 -20q117 0 117 54q0 9 -3 16.5t-9.5 13.5t-13 11t-18 10t-19.5 8.5t-23 9t-23 8.5l-62 23q-49 19 -79 44.5t-30 67.5q0 56 59 90q-55 34 -55 87q0 46 42 78.5
t126 32.5q79 0 157 -31v-89h-45l-10 57q-49 14 -102 14q-107 0 -107 -57q0 -18 15 -32.5t31 -21.5t52 -20l61 -20q61 -20 91 -46.5t30 -70.5zM169 296q-46 -25 -46 -64q0 -23 19 -37t56 -29l99 -38q20 9 34.5 26.5t14.5 38.5q0 19 -14 33.5t-28.5 21t-44.5 17.5z" />
    <glyph glyph-name="paragraph.sc" horiz-adv-x="438" 
d="M167 342h83v-377h-51v158q-34 0 -59.5 3.5t-50.5 14t-38.5 32.5t-13.5 55q0 114 130 114zM260 -173l-26 39q37 15 51.5 38.5t14.5 70.5v367h51v-360q0 -59 -18.5 -97t-72.5 -58z" />
    <glyph glyph-name="parenleft.sc" horiz-adv-x="265" 
d="M218 -91l-44 -16q-55 83 -82 163t-27 184q0 108 27.5 185.5t81.5 161.5l45 -15q-46 -83 -70 -160t-24 -172q0 -92 22.5 -168.5t70.5 -162.5z" />
    <glyph glyph-name="slash.sc" horiz-adv-x="300" 
d="M260 503v-8l-164 -495h-55v9l162 494h57z" />
    <glyph glyph-name="parenright.sc" horiz-adv-x="265" 
d="M47 -91q48 86 70.5 162.5t22.5 168.5q0 95 -24 172t-70 160l45 15q54 -83 81.5 -161t27.5 -186q0 -104 -27 -184t-82 -163z" />
    <glyph glyph-name="bracketleft.sc" horiz-adv-x="299" 
d="M94 582h155v-51h-96v-582h96v-51h-155v684z" />
    <glyph glyph-name="backslash.sc" horiz-adv-x="301" 
d="M40 495v8h57l164 -494v-9h-55z" />
    <glyph glyph-name="bracketright.sc" horiz-adv-x="298" 
d="M49 582h155v-684h-155v51h97v582h-97v51z" />
    <glyph glyph-name="braceleft.sc" horiz-adv-x="284" 
d="M170 475v-156q0 -67 -62 -79q21 -3 41.5 -22t20.5 -57v-158q0 -35 13 -45.5t45 -11.5v-48q-60 0 -87.5 23t-27.5 80v155q0 60 -71 60v48q35 0 53 13.5t18 46.5v155q0 57 27 80t88 23v-48q-32 -1 -45 -12.5t-13 -46.5z" />
    <glyph glyph-name="bar.sc" horiz-adv-x="229" 
d="M135 -102h-41v684h41v-684z" />
    <glyph glyph-name="braceright.sc" horiz-adv-x="284" 
d="M113 319v156q0 35 -13.5 46.5t-43.5 12.5v48q60 0 87.5 -23.5t27.5 -79.5v-155q0 -33 18 -46.5t53 -13.5v-48q-71 0 -71 -60v-155q0 -57 -27.5 -80t-87.5 -23v48q31 1 44 11.5t13 43.5v160q0 37 21 56.5t42 22.5q-63 13 -63 79z" />
    <glyph glyph-name="zero.sc" horiz-adv-x="508" 
d="M121 252q0 -109 29 -158.5t104 -49.5q74 0 104 50t30 158t-30 159.5t-105 51.5q-72 0 -102 -51.5t-30 -159.5zM448 252q0 -127 -45.5 -193.5t-149.5 -66.5q-105 0 -149 66t-44 194q0 263 193 263q104 0 149.5 -67t45.5 -196z" />
    <glyph glyph-name="one.sc" horiz-adv-x="394" 
d="M60 0v51h135v396l-135 -50l-15 48l155 62h52v-456h117v-51h-309z" />
    <glyph glyph-name="two.sc" horiz-adv-x="455" 
d="M397 118v-118h-344v47q10 8 101.5 95.5t98.5 95.5q38 36 54.5 66t16.5 67q0 41 -25.5 66.5t-78.5 25.5q-51 0 -77 -27t-26 -71q0 -7 2 -23l-58 -3q-3 10 -3 27q0 67 43 108t119 41q82 0 123.5 -40.5t41.5 -104.5q0 -50 -25 -87t-73 -82q-106 -105 -158 -150h217v67h51z
" />
    <glyph glyph-name="three.sc" horiz-adv-x="455" 
d="M114 377h-48l-2 87q19 20 59 35.5t91 15.5q82 0 123 -38.5t41 -99.5q0 -50 -26.5 -80t-66.5 -40q47 -8 78 -39t31 -83q0 -66 -47 -104.5t-137 -38.5q-99 0 -162 54l27 47q58 -49 136 -49q122 0 122 91q0 92 -131 92h-58v54h54q55 0 88 23t33 69q0 90 -106 90
q-56 0 -99 -25v-61z" />
    <glyph glyph-name="four.sc" horiz-adv-x="473" 
d="M436 162v-49h-86v-113h-57v113h-261v45l205 272q15 20 27.5 39t17.5 29l5 9h63v-345h86zM97 162h196v260z" />
    <glyph glyph-name="five.sc" horiz-adv-x="447" 
d="M54 34l4 103h49v-70q44 -23 98 -23q127 0 127 118q0 51 -29 79.5t-86 28.5q-63 0 -115 -30l-31 5l34 262h273v-53h-226l-21 -160q41 28 102 28q77 0 118.5 -42.5t41.5 -115.5q0 -80 -48.5 -126t-138.5 -46q-88 0 -152 42z" />
    <glyph glyph-name="six.sc" horiz-adv-x="475" 
d="M273 463q-57 0 -93.5 -31.5t-49.5 -74t-13 -95.5q0 -9 1 -14q12 32 50.5 56t91.5 24q79 0 120 -44.5t41 -118.5q0 -80 -45.5 -126.5t-131.5 -46.5q-185 0 -185 249q0 124 51 199t164 75q69 0 135 -31l-22 -50q-58 29 -114 29zM246 44q61 0 89.5 32.5t28.5 85.5
q0 51 -27.5 81t-83.5 30q-49 0 -82.5 -24.5t-50.5 -58.5q9 -146 126 -146z" />
    <glyph glyph-name="seven.sc" horiz-adv-x="411" 
d="M116 0l198 458h-216v-96h-54v145h343l-2 -44q-18 -28 -52 -106l-151 -357h-66z" />
    <glyph glyph-name="eight.sc" horiz-adv-x="496" 
d="M422 377q0 -73 -81 -120q93 -38 93 -125q0 -65 -50 -102.5t-136 -37.5q-84 0 -133.5 37.5t-49.5 104.5q0 42 25.5 76t62.5 53q-73 37 -73 112q0 60 44 99.5t125 39.5q84 0 128.5 -38.5t44.5 -98.5zM297 214l-100 31q-73 -43 -73 -106q0 -44 32.5 -69.5t95.5 -25.5
q60 0 90.5 23t30.5 62q0 61 -76 85zM139 380q0 -54 65 -76l90 -30q70 40 70 99q0 41 -29 66t-88 25q-55 0 -81.5 -23t-26.5 -61z" />
    <glyph glyph-name="nine.sc" horiz-adv-x="476" 
d="M202 44q156 0 156 193q0 9 -1 14q-13 -32 -52 -56t-91 -24q-79 0 -119.5 45.5t-40.5 123.5t46 126.5t131 48.5q96 0 140.5 -68.5t44.5 -186.5q0 -268 -215 -268q-82 0 -135 33l21 50q59 -31 115 -31zM230 463q-60 0 -88.5 -33.5t-28.5 -85.5q0 -118 112 -118q88 0 129 85
q-6 152 -124 152z" />
    <glyph glyph-name="question.sc" horiz-adv-x="379" 
d="M99 375h-51l-4 92q63 48 141 48q68 0 108.5 -35.5t40.5 -88.5q0 -32 -12 -58t-35 -43.5t-39.5 -26.5t-41.5 -19v-86h-54v117q121 35 121 112q0 31 -23 53.5t-66 22.5q-46 0 -85 -24v-64zM182 -5q-19 0 -32 12t-13 30q0 19 12.5 30.5t32.5 11.5t32.5 -11.5t12.5 -30.5
q0 -18 -13 -30t-32 -12z" />
    <glyph glyph-name="a.sc" horiz-adv-x="574" 
d="M371 0v51h72l-45 112h-223l-46 -112h74v-51h-187v51h49l170 405h-49v51h202v-51h-46l166 -405h49v-51h-186zM190 213h193l-95 235z" />
    <glyph glyph-name="b.sc" horiz-adv-x="516" 
d="M53 0v51h61v405h-61v51h216q80 0 121 -34t41 -95q0 -45 -22.5 -75.5t-58.5 -35.5q44 -8 75 -42t31 -86q0 -139 -187 -139h-216zM171 51h98q128 0 128 91q0 96 -129 96h-97v-187zM171 287h91q109 0 109 89q0 80 -106 80h-94v-169z" />
    <glyph glyph-name="c.sc" horiz-adv-x="508" 
d="M118 255q0 -94 38.5 -150.5t122.5 -56.5q93 0 159 42l18 -52q-78 -46 -180 -46q-218 0 -218 263q0 121 57 190.5t173 69.5q78 0 159 -36l-3 -156h-50l-6 117q-53 20 -101 20q-169 0 -169 -205z" />
    <glyph glyph-name="d.sc" horiz-adv-x="564" 
d="M113 51v405h-60v51h190q149 0 205.5 -60.5t56.5 -192.5q0 -131 -57 -192.5t-205 -61.5h-190v51h60zM171 51h78q112 0 154 46.5t42 157.5q0 109 -42.5 155t-153.5 46h-78v-405z" />
    <glyph glyph-name="e.sc" horiz-adv-x="492" 
d="M381 130h54v-130h-382v51h61v405h-61v51h379v-126h-54v75h-207v-171h190v-51h-190v-183h210v79z" />
    <glyph glyph-name="f.sc" horiz-adv-x="466" 
d="M53 0v51h60v405h-60v51h374v-132h-55v81h-201v-192h196v-52h-196v-161h90v-51h-208z" />
    <glyph glyph-name="g.sc" horiz-adv-x="547" 
d="M460 350h-50l-6 96q-49 13 -109 13q-92 0 -134 -54t-42 -145q0 -101 44.5 -157.5t136.5 -56.5q68 0 126 20v126h-142v51h200v-213q-81 -38 -185 -38q-120 0 -180.5 69.5t-60.5 197.5q0 116 59.5 186t179.5 70q88 0 165 -28z" />
    <glyph glyph-name="h.sc" horiz-adv-x="629" 
d="M389 456v51h183v-51h-52v-405h52v-51h-183v51h73v188h-295v-188h74v-51h-184v51h53v405h-53v51h184v-51h-74v-164h295v164h-73z" />
    <glyph glyph-name="i.sc" horiz-adv-x="292" 
d="M49 0v51h69v405h-69v51h191v-51h-64v-405h64v-51h-191z" />
    <glyph glyph-name="j.sc" horiz-adv-x="271" 
d="M35 456v51h186v-51h-53v-436q0 -127 -112 -190l-35 40q47 28 68 59.5t21 81.5v445h-75z" />
    <glyph glyph-name="k.sc" horiz-adv-x="548" 
d="M195 264l183 192h-59v51h187v-51h-60l-181 -191l195 -214h55v-51h-188v51h60zM172 456v-405h62v-51h-181v51h60v405h-60v51h181v-51h-62z" />
    <glyph glyph-name="l.sc" horiz-adv-x="449" 
d="M358 152h54v-152h-359v51h60v405h-60v51h188v-51h-70v-405h187v101z" />
    <glyph glyph-name="m.sc" horiz-adv-x="764" 
d="M381 71l152 436h144v-51h-60l59 -405h58v-51h-189v51h75l-53 392l-157 -443h-62l-149 443l-59 -392h78v-51h-187v51h54l62 405h-61v51h148z" />
    <glyph glyph-name="n.sc" horiz-adv-x="623" 
d="M377 456v51h200v-51h-57v-456h-68l-283 427v-376h89v-51h-204v51h58v405h-58v51h129l279 -427v376h-85z" />
    <glyph glyph-name="o.sc" horiz-adv-x="552" 
d="M121 253q0 -103 34.5 -155t120.5 -52t120.5 52t34.5 155t-34.5 155.5t-120.5 52.5q-85 0 -120 -52.5t-35 -155.5zM493 253q0 -261 -218 -261q-217 0 -217 261q0 262 218 262q217 0 217 -262z" />
    <glyph glyph-name="p.sc" horiz-adv-x="493" 
d="M171 456v-405h99v-51h-217v51h60v405h-60v51h223q176 0 176 -154q0 -71 -42.5 -111.5t-133.5 -40.5h-51v52h53q63 0 88 26.5t25 74.5q0 102 -113 102h-107z" />
    <glyph glyph-name="q.sc" horiz-adv-x="565" 
d="M373 77q22 -18 34 -43q-51 -42 -132 -42q-113 0 -165 70t-52 191q0 262 218 262t218 -262q0 -90 -28 -152q34 -43 61 -101h-62q-102 191 -281 191q-25 0 -58 -5q20 -140 150 -140q63 0 97 31zM122 253v-17q32 5 65 5q131 0 231 -89q12 43 12 101q0 101 -34.5 154.5
t-119.5 53.5q-84 0 -119 -54t-35 -154z" />
    <glyph glyph-name="r.sc" horiz-adv-x="544" 
d="M114 50v407h-61v50h230q176 0 176 -139q0 -55 -34 -89.5t-96 -43.5q39 -26 73.5 -77.5t53.5 -107.5h65v-50h-183v50h54q-17 53 -51 103t-78 77h-92v-180h67v-50h-185v50h61zM399 367q0 45 -25.5 67.5t-88.5 22.5h-114v-178h107q121 0 121 88z" />
    <glyph glyph-name="s.sc" horiz-adv-x="453" 
d="M381 358h-49l-11 92q-44 13 -90 13q-49 0 -76.5 -24t-27.5 -60q0 -32 18.5 -51t58.5 -33l72 -24q62 -21 92 -55t30 -87q0 -56 -45.5 -96.5t-127.5 -40.5q-94 0 -158 33l-8 133h48l18 -99q45 -18 100 -18q49 0 80 22.5t31 61.5q0 61 -80 89l-75 26q-59 19 -87 51t-28 85
q0 57 43 98t122 41q78 0 150 -31v-126z" />
    <glyph glyph-name="t.sc" horiz-adv-x="481" 
d="M37 507h407v-130h-49v79h-129v-405h78v-51h-214v51h79v405h-122v-79h-50v130z" />
    <glyph glyph-name="u.sc" horiz-adv-x="584" 
d="M542 456h-56v-269q0 -195 -195 -195q-194 0 -194 195v269h-55v51h192v-51h-80v-271q0 -76 35 -107.5t103 -31.5q67 0 102 31.5t35 107.5v271h-78v51h191v-51z" />
    <glyph glyph-name="v.sc" horiz-adv-x="564" 
d="M357 456v51h193v-51h-57l-172 -456h-78l-172 456h-53v51h192v-51h-76l149 -401l147 401h-73z" />
    <glyph glyph-name="w.sc" horiz-adv-x="812" 
d="M581 456v51h212v-51h-55l-135 -456h-72l-125 334l-124 -334h-72l-136 456h-57v51h196v-51h-79l115 -396l130 344l-40 103h66l160 -447l115 396h-99z" />
    <glyph glyph-name="x.sc" horiz-adv-x="553" 
d="M40 456v51h188v-51h-56l105 -156l103 156h-57v51h187v-51h-64l-138 -194l152 -211h61v-51h-189v51h59l-116 168l-113 -168h60v-51h-188v51h61l147 211l-137 194h-65z" />
    <glyph glyph-name="y.sc" horiz-adv-x="520" 
d="M19 456v51h183v-51h-71l130 -204l132 204h-72v51h184v-51h-49l-168 -253v-152h74v-51h-209v51h78v152l-163 253h-49z" />
    <glyph glyph-name="z.sc" horiz-adv-x="481" 
d="M422 507v-48l-301 -408h245v112h54v-163h-370v48l301 408h-233v-90h-54v141h358z" />
    <glyph glyph-name="agrave.sc" horiz-adv-x="574" 
d="M371 0v51h72l-45 112h-223l-46 -112h74v-51h-187v51h49l170 405h-49v51h202v-51h-46l166 -405h49v-51h-186zM190 213h193l-95 235zM180 726h66l78 -151h-57z" />
    <glyph glyph-name="aacute.sc" horiz-adv-x="574" 
d="M371 0v51h72l-45 112h-223l-46 -112h74v-51h-187v51h49l170 405h-49v51h202v-51h-46l166 -405h49v-51h-186zM190 213h193l-95 235zM332 726h66l-87 -151h-57z" />
    <glyph glyph-name="acircumflex.sc" horiz-adv-x="574" 
d="M371 0v51h72l-45 112h-223l-46 -112h74v-51h-187v51h49l170 405h-49v51h202v-51h-46l166 -405h49v-51h-186zM190 213h193l-95 235zM251 726h73l96 -151h-57l-76 111l-75 -111h-56z" />
    <glyph glyph-name="atilde.sc" horiz-adv-x="574" 
d="M371 0v51h72l-45 112h-223l-46 -112h74v-51h-187v51h49l170 405h-49v51h202v-51h-46l166 -405h49v-51h-186zM190 213h193l-95 235zM422 655l-8 -50q-27 25 -59 25q-21 0 -64 -17t-72 -17q-43 0 -66 25l8 49q24 -24 58 -24q23 0 64.5 17.5t71.5 17.5q36 0 67 -26z" />
    <glyph glyph-name="adieresis.sc" horiz-adv-x="574" 
d="M371 0v51h72l-45 112h-223l-46 -112h74v-51h-187v51h49l170 405h-49v51h202v-51h-46l166 -405h49v-51h-186zM190 213h193l-95 235zM200 600q-47 0 -47 46q0 47 47 47q20 0 33.5 -12t13.5 -35t-13.5 -34.5t-33.5 -11.5zM376 600q-47 0 -47 46q0 47 47 47q20 0 33.5 -12
t13.5 -35t-13.5 -34.5t-33.5 -11.5z" />
    <glyph glyph-name="amacron.sc" horiz-adv-x="574" 
d="M371 0v51h72l-45 112h-223l-46 -112h74v-51h-187v51h49l170 405h-49v51h202v-51h-46l166 -405h49v-51h-186zM190 213h193l-95 235zM153 663h270v-53h-270v53z" />
    <glyph glyph-name="abreve.sc" horiz-adv-x="574" 
d="M371 0v51h72l-45 112h-223l-46 -112h74v-51h-187v51h49l170 405h-49v51h202v-51h-46l166 -405h49v-51h-186zM190 213h193l-95 235zM370 701h46q0 -58 -35 -94.5t-94 -36.5q-58 0 -93 36.5t-35 94.5h44q2 -37 23.5 -60.5t60.5 -23.5t60.5 23.5t22.5 60.5z" />
    <glyph glyph-name="aring.sc" horiz-adv-x="574" 
d="M371 0v51h72l-45 112h-223l-46 -112h74v-51h-187v51h49l170 405h-49v51h202v-51h-46l166 -405h49v-51h-186zM190 213h193l-95 235zM186 651q0 41 28 66.5t73 25.5q46 0 74 -25.5t28 -66.5q0 -40 -28 -66t-74 -26q-45 0 -73 26t-28 66zM230 651q0 -24 15.5 -38.5
t41.5 -14.5q27 0 42 14.5t15 38.5t-15 39t-42 15q-26 0 -41.5 -15t-15.5 -39z" />
    <glyph glyph-name="aringacute.sc" horiz-adv-x="574" 
d="M371 0v51h72l-45 112h-223l-46 -112h74v-51h-187v51h49l170 405h-49v51h202v-51h-46l166 -405h49v-51h-186zM187 651q0 37 23 60.5t61 28.5l58 77h66l-69 -81q29 -9 46 -31.5t17 -53.5q0 -40 -27.5 -66t-74.5 -26q-45 0 -72.5 26t-27.5 66zM190 213h193l-95 235zM231 651
q0 -24 15 -38.5t41 -14.5q27 0 42.5 14.5t15.5 38.5t-15.5 39t-42.5 15q-26 0 -41 -15t-15 -39z" />
    <glyph glyph-name="aogonek.sc" horiz-adv-x="574" 
d="M371 0v51h72l-45 112h-223l-46 -112h74v-51h-187v51h49l170 405h-49v51h202v-51h-46l166 -405h49v-51h-50l-74 -55q-35 -29 -35 -58q0 -36 41 -36q28 0 55 17l9 -45q-38 -17 -65 -18q-18 0 -34 3q-65 13 -65 72q0 48 51 84l48 36h-67zM190 213h193l-95 235z" />
    <glyph glyph-name="ae.sc" horiz-adv-x="825" 
d="M345 507h420v-126h-54v75h-207v-171h190v-51h-190v-183h210v79h54v-130h-400v51h79v112h-220l-93 -112h67v-51h-188v51h50l331 405h-49v51zM261 213h186v229z" />
    <glyph glyph-name="aeacute.sc" horiz-adv-x="825" 
d="M345 507h420v-126h-54v75h-207v-171h190v-51h-190v-183h210v79h54v-130h-400v51h79v112h-220l-93 -112h67v-51h-188v51h50l331 405h-49v51zM261 213h186v229zM594 726h66l-87 -151h-57z" />
    <glyph glyph-name="cacute.sc" horiz-adv-x="508" 
d="M118 255q0 -94 38.5 -150.5t122.5 -56.5q93 0 159 42l18 -52q-78 -46 -180 -46q-218 0 -218 263q0 121 57 190.5t173 69.5q78 0 159 -36l-3 -156h-50l-6 117q-53 20 -101 20q-169 0 -169 -205zM328 726h66l-87 -151h-57z" />
    <glyph glyph-name="ccircumflex.sc" horiz-adv-x="508" 
d="M118 255q0 -94 38.5 -150.5t122.5 -56.5q93 0 159 42l18 -52q-78 -46 -180 -46q-218 0 -218 263q0 121 57 190.5t173 69.5q78 0 159 -36l-3 -156h-50l-6 117q-53 20 -101 20q-169 0 -169 -205zM247 726h73l96 -151h-57l-76 111l-75 -111h-56z" />
    <glyph glyph-name="ccaron.sc" horiz-adv-x="508" 
d="M118 255q0 -94 38.5 -150.5t122.5 -56.5q93 0 159 42l18 -52q-78 -46 -180 -46q-218 0 -218 263q0 121 57 190.5t173 69.5q78 0 159 -36l-3 -156h-50l-6 117q-53 20 -101 20q-169 0 -169 -205zM319 575h-73l-95 151h56l76 -111l75 111h57z" />
    <glyph glyph-name="cdotaccent.sc" horiz-adv-x="508" 
d="M118 255q0 -94 38.5 -150.5t122.5 -56.5q93 0 159 42l18 -52q-78 -46 -180 -46q-218 0 -218 263q0 121 57 190.5t173 69.5q78 0 159 -36l-3 -156h-50l-6 117q-53 20 -101 20q-169 0 -169 -205zM283 600q-47 0 -47 46q0 47 47 47q20 0 33.5 -12t13.5 -35t-13.5 -34.5
t-33.5 -11.5z" />
    <glyph glyph-name="ccedilla.sc" horiz-adv-x="508" 
d="M118 255q0 -94 38 -150.5t123 -56.5q93 0 159 42l18 -52q-65 -39 -153 -45l-20 -53q10 4 27 4q27 0 46.5 -18.5t19.5 -48.5q0 -33 -24.5 -54t-71.5 -21q-45 0 -96 23l9 41q46 -25 85 -25q47 0 47 36q0 15 -11.5 24.5t-28.5 9.5q-15 0 -30 -5q-13 5 -25 10l27 76
q-200 10 -200 263q0 121 57.5 190.5t173.5 69.5q78 0 159 -36l-3 -156h-51l-5 117q-53 20 -101 20q-169 0 -169 -205z" />
    <glyph glyph-name="dcaron.sc" horiz-adv-x="564" 
d="M113 51v405h-60v51h190q149 0 205.5 -60.5t56.5 -192.5q0 -131 -57 -192.5t-205 -61.5h-190v51h60zM171 51h78q112 0 154 46.5t42 157.5q0 109 -42.5 155t-153.5 46h-78v-405zM302 575h-73l-95 151h56l76 -111l75 111h57z" />
    <glyph glyph-name="dcroat.sc" horiz-adv-x="575" 
d="M123 51v175h-61v47h61v183h-60v51h190q149 0 205.5 -60.5t56.5 -192.5q0 -131 -56.5 -192.5t-205.5 -61.5h-190v51h60zM181 51h79q112 0 154 46.5t42 157.5q0 109 -42.5 155t-153.5 46h-79v-183h120v-47h-120v-175z" />
    <glyph glyph-name="eth.sc" horiz-adv-x="575" 
d="M123 51v175h-61v47h61v183h-60v51h190q149 0 205.5 -60.5t56.5 -192.5q0 -131 -56.5 -192.5t-205.5 -61.5h-190v51h60zM181 51h79q112 0 154 46.5t42 157.5q0 109 -42.5 155t-153.5 46h-79v-183h120v-47h-120v-175z" />
    <glyph glyph-name="egrave.sc" horiz-adv-x="492" 
d="M381 130h54v-130h-382v51h61v405h-61v51h379v-126h-54v75h-207v-171h190v-51h-190v-183h210v79zM140 726h66l78 -151h-57z" />
    <glyph glyph-name="eacute.sc" horiz-adv-x="492" 
d="M381 130h54v-130h-382v51h61v405h-61v51h379v-126h-54v75h-207v-171h190v-51h-190v-183h210v79zM297 726h66l-87 -151h-57z" />
    <glyph glyph-name="ecircumflex.sc" horiz-adv-x="492" 
d="M381 130h54v-130h-382v51h61v405h-61v51h379v-126h-54v75h-207v-171h190v-51h-190v-183h210v79zM214 726h73l96 -151h-57l-76 111l-75 -111h-56z" />
    <glyph glyph-name="ecaron.sc" horiz-adv-x="492" 
d="M381 130h54v-130h-382v51h61v405h-61v51h379v-126h-54v75h-207v-171h190v-51h-190v-183h210v79zM287 575h-73l-95 151h56l76 -111l75 111h57z" />
    <glyph glyph-name="edieresis.sc" horiz-adv-x="492" 
d="M381 130h54v-130h-382v51h61v405h-61v51h379v-126h-54v75h-207v-171h190v-51h-190v-183h210v79zM162 600q-47 0 -47 46q0 47 47 47q20 0 33.5 -12t13.5 -35t-13.5 -34.5t-33.5 -11.5zM338 600q-47 0 -47 46q0 47 47 47q20 0 33.5 -12t13.5 -35t-13.5 -34.5t-33.5 -11.5z
" />
    <glyph glyph-name="emacron.sc" horiz-adv-x="492" 
d="M381 130h54v-130h-382v51h61v405h-61v51h379v-126h-54v75h-207v-171h190v-51h-190v-183h210v79zM115 663h270v-53h-270v53z" />
    <glyph glyph-name="ebreve.sc" horiz-adv-x="492" 
d="M381 130h54v-130h-382v51h61v405h-61v51h379v-126h-54v75h-207v-171h190v-51h-190v-183h210v79zM333 701h46q0 -58 -35 -94.5t-94 -36.5q-58 0 -93 36.5t-35 94.5h44q2 -37 23.5 -60.5t60.5 -23.5t60.5 23.5t22.5 60.5z" />
    <glyph glyph-name="edotaccent.sc" horiz-adv-x="492" 
d="M381 130h54v-130h-382v51h61v405h-61v51h379v-126h-54v75h-207v-171h190v-51h-190v-183h210v79zM250 600q-47 0 -47 46q0 47 47 47q20 0 33.5 -12t13.5 -35t-13.5 -34.5t-33.5 -11.5z" />
    <glyph glyph-name="eogonek.sc" horiz-adv-x="492" 
d="M381 130h54v-130l-74 -55q-35 -26 -35 -58q0 -36 41 -36q28 0 55 17l9 -45q-38 -19 -72 -19q-42 0 -67 20t-25 56q0 48 51 84l48 36h-313v51h61v405h-61v51h379v-126h-54v75h-207v-171h190v-51h-190v-183h210v79z" />
    <glyph glyph-name="gcircumflex.sc" horiz-adv-x="547" 
d="M460 350h-50l-6 96q-49 13 -109 13q-92 0 -134 -54t-42 -145q0 -101 44.5 -157.5t136.5 -56.5q68 0 126 20v126h-142v51h200v-213q-81 -38 -185 -38q-120 0 -180.5 69.5t-60.5 197.5q0 116 59.5 186t179.5 70q88 0 165 -28zM258 726h73l96 -151h-57l-76 111l-75 -111h-56
z" />
    <glyph glyph-name="gbreve.sc" horiz-adv-x="547" 
d="M460 350h-50l-6 96q-49 13 -109 13q-92 0 -134 -54t-42 -145q0 -101 44.5 -157.5t136.5 -56.5q68 0 126 20v126h-142v51h200v-213q-81 -38 -185 -38q-120 0 -180.5 69.5t-60.5 197.5q0 116 59.5 186t179.5 70q88 0 165 -28zM377 701h46q0 -58 -35 -94.5t-94 -36.5
q-58 0 -93 36.5t-35 94.5h44q2 -37 23.5 -60.5t60.5 -23.5t60.5 23.5t22.5 60.5z" />
    <glyph glyph-name="gdotaccent.sc" horiz-adv-x="547" 
d="M460 350h-50l-6 96q-49 13 -109 13q-92 0 -134 -54t-42 -145q0 -101 44.5 -157.5t136.5 -56.5q68 0 126 20v126h-142v51h200v-213q-81 -38 -185 -38q-120 0 -180.5 69.5t-60.5 197.5q0 116 59.5 186t179.5 70q88 0 165 -28zM294 600q-47 0 -47 46q0 47 47 47
q20 0 33.5 -12t13.5 -35t-13.5 -34.5t-33.5 -11.5z" />
    <glyph glyph-name="gcommaaccent.sc" horiz-adv-x="547" 
d="M460 350h-50l-6 96q-49 13 -109 13q-92 0 -134 -54t-42 -145q0 -101 44.5 -157.5t136.5 -56.5q68 0 126 20v126h-142v51h200v-213q-81 -38 -185 -38q-120 0 -180.5 69.5t-60.5 197.5q0 116 59.5 186t179.5 70q88 0 165 -28zM341 -71l-47 -145h-47l25 145h69z" />
    <glyph glyph-name="hcircumflex.sc" horiz-adv-x="629" 
d="M389 456v51h183v-51h-52v-405h52v-51h-183v51h73v188h-295v-188h74v-51h-184v51h53v405h-53v51h184v-51h-74v-164h295v164h-73zM278 726h73l96 -151h-57l-76 111l-75 -111h-56z" />
    <glyph glyph-name="hbar.sc" horiz-adv-x="629" 
d="M57 392h53v64h-53v51h184v-51h-74v-64h295v64h-73v51h183v-51h-52v-64h52v-39h-52v-302h52v-51h-183v51h73v188h-295v-188h74v-51h-184v51h53v302h-53v39zM167 292h295v61h-295v-61z" />
    <glyph glyph-name="igrave.sc" horiz-adv-x="292" 
d="M49 0v51h69v405h-69v51h191v-51h-64v-405h64v-51h-191zM38 726h66l78 -151h-57z" />
    <glyph glyph-name="iacute.sc" horiz-adv-x="292" 
d="M49 0v51h69v405h-69v51h191v-51h-64v-405h64v-51h-191zM191 726h66l-87 -151h-57z" />
    <glyph glyph-name="ibreve.sc" horiz-adv-x="292" 
d="M49 0v51h69v405h-69v51h191v-51h-64v-405h64v-51h-191zM230 701h46q0 -58 -35 -94.5t-94 -36.5q-58 0 -93 36.5t-35 94.5h44q2 -37 23.5 -60.5t60.5 -23.5t60.5 23.5t22.5 60.5z" />
    <glyph glyph-name="icircumflex.sc" horiz-adv-x="292" 
d="M49 0v51h69v405h-69v51h191v-51h-64v-405h64v-51h-191zM111 726h73l96 -151h-57l-76 111l-75 -111h-56z" />
    <glyph glyph-name="itilde.sc" horiz-adv-x="292" 
d="M49 0v51h69v405h-69v51h191v-51h-64v-405h64v-51h-191zM282 655l-8 -50q-27 25 -59 25q-21 0 -64 -17t-72 -17q-43 0 -66 25l8 49q24 -24 58 -24q23 0 64.5 17.5t71.5 17.5q36 0 67 -26z" />
    <glyph glyph-name="idieresis.sc" horiz-adv-x="292" 
d="M49 0v51h69v405h-69v51h191v-51h-64v-405h64v-51h-191zM59 600q-47 0 -47 46q0 47 47 47q20 0 33.5 -12t13.5 -35t-13.5 -34.5t-33.5 -11.5zM235 600q-47 0 -47 46q0 47 47 47q20 0 33.5 -12t13.5 -35t-13.5 -34.5t-33.5 -11.5z" />
    <glyph glyph-name="imacron.sc" horiz-adv-x="292" 
d="M49 0v51h69v405h-69v51h191v-51h-64v-405h64v-51h-191zM12 663h270v-53h-270v53z" />
    <glyph glyph-name="idotaccent.sc" horiz-adv-x="292" 
d="M49 0v51h69v405h-69v51h191v-51h-64v-405h64v-51h-191zM147 600q-47 0 -47 46q0 47 47 47q20 0 33.5 -12t13.5 -35t-13.5 -34.5t-33.5 -11.5z" />
    <glyph glyph-name="iogonek.sc" horiz-adv-x="292" 
d="M49 0v51h69v405h-69v51h191v-51h-64v-405h64v-51h-58l-74 -55q-35 -26 -35 -58q0 -36 41 -36q28 0 55 17l10 -45q-38 -19 -73 -19q-41 0 -66.5 20.5t-25.5 55.5q0 48 51 84l48 36h-64z" />
    <glyph glyph-name="jcircumflex.sc" horiz-adv-x="271" 
d="M35 456v51h186v-51h-53v-436q0 -127 -112 -190l-35 40q47 28 68 59.5t21 81.5v445h-75zM96 726h73l96 -151h-57l-76 111l-75 -111h-56z" />
    <glyph glyph-name="kcommaaccent.sc" horiz-adv-x="548" 
d="M194 264l183 192h-59v51h187v-51h-60l-181 -191l195 -214h55v-51h-188v51h60zM171 456v-405h62v-51h-181v51h60v405h-60v51h181v-51h-62zM320 -71l-47 -145h-47l25 145h69z" />
    <glyph glyph-name="lacute.sc" horiz-adv-x="449" 
d="M358 152h54v-152h-359v51h60v405h-60v51h188v-51h-70v-405h187v101zM192 726h66l-87 -151h-57z" />
    <glyph glyph-name="lcaron.sc" horiz-adv-x="454" 
d="M358 152h54v-152h-359v51h60v405h-60v51h188v-51h-70v-405h187v101zM392 507l-47 -149h-47l25 149h69z" />
    <glyph glyph-name="lcommaaccent.sc" horiz-adv-x="449" 
d="M358 152h54v-152h-359v51h60v405h-60v51h188v-51h-70v-405h187v101zM272 -71l-47 -145h-47l25 145h69z" />
    <glyph glyph-name="lslash.sc" horiz-adv-x="452" 
d="M55 228l61 29v199h-60v51h188v-51h-71v-173l71 35v-51l-71 -34v-182h188v101h54v-152h-359v51h60v156l-61 -30v51z" />
    <glyph glyph-name="ldot.sc" horiz-adv-x="449" 
d="M358 152h54v-152h-359v51h60v405h-60v51h188v-51h-70v-405h187v101zM322 231q-47 0 -47 46q0 47 47 47q20 0 33.5 -12t13.5 -35t-13.5 -34.5t-33.5 -11.5z" />
    <glyph glyph-name="nacute.sc" horiz-adv-x="623" 
d="M377 456v51h200v-51h-57v-456h-68l-283 427v-376h89v-51h-204v51h58v405h-58v51h129l279 -427v376h-85zM361 726h66l-87 -151h-57z" />
    <glyph glyph-name="ncaron.sc" horiz-adv-x="623" 
d="M377 456v51h200v-51h-57v-456h-68l-283 427v-376h89v-51h-204v51h58v405h-58v51h129l279 -427v376h-85zM352 575h-73l-95 151h56l76 -111l75 111h57z" />
    <glyph glyph-name="ntilde.sc" horiz-adv-x="623" 
d="M377 456v51h200v-51h-57v-456h-68l-283 427v-376h89v-51h-204v51h58v405h-58v51h129l279 -427v376h-85zM451 655l-8 -50q-27 25 -59 25q-21 0 -64 -17t-72 -17q-43 0 -66 25l8 49q24 -24 58 -24q23 0 64.5 17.5t71.5 17.5q36 0 67 -26z" />
    <glyph glyph-name="ncommaaccent.sc" horiz-adv-x="623" 
d="M377 456v51h200v-51h-57v-456h-68l-283 427v-376h89v-51h-204v51h58v405h-58v51h129l279 -427v376h-85zM355 -71l-47 -145h-47l25 145h69z" />
    <glyph glyph-name="ograve.sc" horiz-adv-x="552" 
d="M121 253q0 -103 34.5 -155t120.5 -52t120.5 52t34.5 155t-34.5 155.5t-120.5 52.5q-85 0 -120 -52.5t-35 -155.5zM493 253q0 -261 -218 -261q-217 0 -217 261q0 262 218 262q217 0 217 -262zM168 726h66l78 -151h-57z" />
    <glyph glyph-name="oacute.sc" horiz-adv-x="552" 
d="M121 253q0 -103 34.5 -155t120.5 -52t120.5 52t34.5 155t-34.5 155.5t-120.5 52.5q-85 0 -120 -52.5t-35 -155.5zM493 253q0 -261 -218 -261q-217 0 -217 261q0 262 218 262q217 0 217 -262zM322 726h66l-87 -151h-57z" />
    <glyph glyph-name="ocircumflex.sc" horiz-adv-x="552" 
d="M121 253q0 -103 34.5 -155t120.5 -52t120.5 52t34.5 155t-34.5 155.5t-120.5 52.5q-85 0 -120 -52.5t-35 -155.5zM493 253q0 -261 -218 -261q-217 0 -217 261q0 262 218 262q217 0 217 -262zM241 726h73l96 -151h-57l-76 111l-75 -111h-56z" />
    <glyph glyph-name="otilde.sc" horiz-adv-x="552" 
d="M121 253q0 -103 34.5 -155t120.5 -52t120.5 52t34.5 155t-34.5 155.5t-120.5 52.5q-85 0 -120 -52.5t-35 -155.5zM493 253q0 -261 -218 -261q-217 0 -217 261q0 262 218 262q217 0 217 -262zM412 655l-8 -50q-27 25 -59 25q-21 0 -64 -17t-72 -17q-43 0 -66 25l8 49
q24 -24 58 -24q23 0 64.5 17.5t71.5 17.5q36 0 67 -26z" />
    <glyph glyph-name="odieresis.sc" horiz-adv-x="552" 
d="M121 253q0 -103 34.5 -155t120.5 -52t120.5 52t34.5 155t-34.5 155.5t-120.5 52.5q-85 0 -120 -52.5t-35 -155.5zM493 253q0 -261 -218 -261q-217 0 -217 261q0 262 218 262q217 0 217 -262zM190 600q-47 0 -47 46q0 47 47 47q20 0 33.5 -12t13.5 -35t-13.5 -34.5
t-33.5 -11.5zM366 600q-47 0 -47 46q0 47 47 47q20 0 33.5 -12t13.5 -35t-13.5 -34.5t-33.5 -11.5z" />
    <glyph glyph-name="omacron.sc" horiz-adv-x="552" 
d="M121 253q0 -103 34.5 -155t120.5 -52t120.5 52t34.5 155t-34.5 155.5t-120.5 52.5q-85 0 -120 -52.5t-35 -155.5zM493 253q0 -261 -218 -261q-217 0 -217 261q0 262 218 262q217 0 217 -262zM143 663h270v-53h-270v53z" />
    <glyph glyph-name="obreve.sc" horiz-adv-x="552" 
d="M121 253q0 -103 34.5 -155t120.5 -52t120.5 52t34.5 155t-34.5 155.5t-120.5 52.5q-85 0 -120 -52.5t-35 -155.5zM493 253q0 -261 -218 -261q-217 0 -217 261q0 262 218 262q217 0 217 -262zM360 701h46q0 -58 -35 -94.5t-94 -36.5q-58 0 -93 36.5t-35 94.5h44
q2 -37 23.5 -60.5t60.5 -23.5t60.5 23.5t22.5 60.5z" />
    <glyph glyph-name="ohungarumlaut.sc" horiz-adv-x="552" 
d="M121 253q0 -103 34.5 -155t120.5 -52t120.5 52t34.5 155t-34.5 155.5t-120.5 52.5q-85 0 -120 -52.5t-35 -155.5zM493 253q0 -261 -218 -261q-217 0 -217 261q0 262 218 262q217 0 217 -262zM251 726h66l-87 -151h-57zM393 726h66l-87 -151h-57z" />
    <glyph glyph-name="oslash.sc" horiz-adv-x="553" 
d="M400 545v-11l-14 -42q108 -52 108 -239q0 -124 -50 -192.5t-168 -68.5q-34 0 -61 6l-11 -36h-45v12l13 38q-113 50 -113 241q0 124 50 193t168 69q35 0 64 -6l12 36h47zM432 253q0 141 -69 181l-128 -385q19 -3 42 -3q86 0 120.5 52t34.5 155zM122 253q0 -146 73 -183
l127 387q-28 4 -45 4q-85 0 -120 -52.5t-35 -155.5z" />
    <glyph glyph-name="oslashacute.sc" horiz-adv-x="553" 
d="M400 545v-11l-14 -42q108 -52 108 -239q0 -124 -50 -192.5t-168 -68.5q-34 0 -61 6l-11 -36h-45v12l13 38q-113 50 -113 241q0 124 50 193t168 69q35 0 64 -6l12 36h47zM432 253q0 141 -69 181l-128 -385q19 -3 42 -3q86 0 120.5 52t34.5 155zM122 253q0 -146 73 -183
l127 387q-28 4 -45 4q-85 0 -120 -52.5t-35 -155.5zM321 726h66l-87 -151h-57z" />
    <glyph glyph-name="oe.sc" horiz-adv-x="726" 
d="M615 132h54v-132h-324q-32 -8 -70 -8q-217 0 -217 261q0 124 50 193t168 69q37 0 71 -8h320v-127h-55v76h-206v-171h189v-51h-189v-183h209v81zM276 46q44 0 72 12v391q-33 12 -72 12q-85 0 -120 -52.5t-35 -155.5t34.5 -155t120.5 -52z" />
    <glyph glyph-name="racute.sc" horiz-adv-x="544" 
d="M114 50v407h-61v50h230q176 0 176 -139q0 -55 -34 -89.5t-96 -43.5q39 -26 73.5 -77.5t53.5 -107.5h65v-50h-183v50h54q-17 53 -51 103t-78 77h-92v-180h67v-50h-185v50h61zM399 367q0 45 -25.5 67.5t-88.5 22.5h-114v-178h107q121 0 121 88zM291 726h66l-87 -151h-57z
" />
    <glyph glyph-name="rcaron.sc" horiz-adv-x="544" 
d="M114 50v407h-61v50h230q176 0 176 -139q0 -55 -34 -89.5t-96 -43.5q39 -26 73.5 -77.5t53.5 -107.5h65v-50h-183v50h54q-17 53 -51 103t-78 77h-92v-180h67v-50h-185v50h61zM399 367q0 45 -25.5 67.5t-88.5 22.5h-114v-178h107q121 0 121 88zM282 575h-73l-95 151h56
l76 -111l75 111h57z" />
    <glyph glyph-name="rcommaaccent.sc" horiz-adv-x="544" 
d="M113 50v407h-61v50h230q176 0 176 -139q0 -55 -34 -89.5t-96 -43.5q39 -26 73.5 -77.5t53.5 -107.5h65v-50h-183v50h54q-17 53 -51 103t-78 77h-92v-180h67v-50h-185v50h61zM398 367q0 45 -25.5 67.5t-88.5 22.5h-114v-178h107q121 0 121 88zM314 -71l-47 -145h-47
l25 145h69z" />
    <glyph glyph-name="sacute.sc" horiz-adv-x="453" 
d="M381 358h-49l-11 92q-44 13 -90 13q-49 0 -76.5 -24t-27.5 -60q0 -32 18.5 -51t58.5 -33l72 -24q62 -21 92 -55t30 -87q0 -56 -45.5 -96.5t-127.5 -40.5q-94 0 -158 33l-8 133h48l18 -99q45 -18 100 -18q49 0 80 22.5t31 61.5q0 61 -80 89l-75 26q-59 19 -87 51t-28 85
q0 57 43 98t122 41q78 0 150 -31v-126zM280 726h66l-87 -151h-57z" />
    <glyph glyph-name="scircumflex.sc" horiz-adv-x="453" 
d="M381 358h-49l-11 92q-44 13 -90 13q-49 0 -76.5 -24t-27.5 -60q0 -32 18.5 -51t58.5 -33l72 -24q62 -21 92 -55t30 -87q0 -56 -45.5 -96.5t-127.5 -40.5q-94 0 -158 33l-8 133h48l18 -99q45 -18 100 -18q49 0 80 22.5t31 61.5q0 61 -80 89l-75 26q-59 19 -87 51t-28 85
q0 57 43 98t122 41q78 0 150 -31v-126zM199 726h73l96 -151h-57l-76 111l-75 -111h-56z" />
    <glyph glyph-name="scaron.sc" horiz-adv-x="453" 
d="M381 358h-49l-11 92q-44 13 -90 13q-49 0 -76.5 -24t-27.5 -60q0 -32 18.5 -51t58.5 -33l72 -24q62 -21 92 -55t30 -87q0 -56 -45.5 -96.5t-127.5 -40.5q-94 0 -158 33l-8 133h48l18 -99q45 -18 100 -18q49 0 80 22.5t31 61.5q0 61 -80 89l-75 26q-59 19 -87 51t-28 85
q0 57 43 98t122 41q78 0 150 -31v-126zM272 575h-73l-95 151h56l76 -111l75 111h57z" />
    <glyph glyph-name="scedilla.sc" horiz-adv-x="454" 
d="M381 358h-49l-11 92q-44 13 -90 13q-49 0 -76.5 -24t-27.5 -60q0 -32 18.5 -51t58.5 -33l72 -24q62 -21 92 -55t30 -87q0 -51 -39 -90t-110 -45l-20 -54q10 4 27 4q27 0 46.5 -18.5t19.5 -48.5q0 -33 -24.5 -54t-71.5 -21q-45 0 -96 23l9 41q46 -25 85 -25q47 0 47 36
q0 15 -11.5 24.5t-28.5 9.5q-15 0 -30 -5q-13 5 -25 10l27 76q-80 5 -136 33l-8 133h48l18 -99q45 -18 100 -18q49 0 80 22.5t31 61.5q0 61 -80 89l-75 26q-59 19 -87 51t-28 85q0 57 43 98t122 41q78 0 150 -31v-126z" />
    <glyph glyph-name="scommaaccent.sc" horiz-adv-x="453" 
d="M381 358h-49l-11 92q-44 13 -90 13q-49 0 -76.5 -24t-27.5 -60q0 -32 18.5 -51t58.5 -33l72 -24q62 -21 92 -55t30 -87q0 -56 -45.5 -96.5t-127.5 -40.5q-94 0 -158 33l-8 133h48l18 -99q45 -18 100 -18q49 0 80 22.5t31 61.5q0 61 -80 89l-75 26q-59 19 -87 51t-28 85
q0 57 43 98t122 41q78 0 150 -31v-126zM267 -71l-47 -145h-47l25 145h69z" />
    <glyph glyph-name="tcaron.sc" horiz-adv-x="481" 
d="M37 507h407v-130h-49v79h-129v-405h78v-51h-214v51h79v405h-122v-79h-50v130zM276 575h-73l-95 151h56l76 -111l75 111h57z" />
    <glyph glyph-name="tcommaaccent.sc" horiz-adv-x="481" 
d="M37 507h407v-130h-49v79h-129v-405h78v-51h-85l-22 -59q10 4 27 4q27 0 46.5 -18.5t19.5 -48.5q0 -33 -24.5 -54t-72.5 -21q-44 0 -96 23l10 41q44 -25 85 -25q47 0 47 36q0 15 -11.5 24.5t-28.5 9.5t-30 -5q-13 5 -25 10l29 83h-83v51h79v405h-122v-79h-50v130z" />
    <glyph glyph-name="uni021A.sc" horiz-adv-x="479" 
d="M36 507h407v-130h-49v79h-129v-405h78v-51h-214v51h79v405h-122v-79h-50v130zM269 -71l-47 -145h-47l25 145h69z" />
    <glyph glyph-name="tbar.sc" horiz-adv-x="481" 
d="M92 288h118v168h-123v-79h-50v130h407v-130h-49v79h-128v-168h122v-51h-122v-186h78v-51h-214v51h79v186h-118v51z" />
    <glyph glyph-name="thorn.sc" horiz-adv-x="526" 
d="M123 456h-76v51h221v-51h-86v-48h134q167 0 167 -153q0 -154 -166 -154h-135v-50h87v-51h-222v51h76v405zM429 255q0 51 -25.5 78.5t-86.5 27.5h-135v-212h135q62 0 87 27t25 79z" />
    <glyph glyph-name="ugrave.sc" horiz-adv-x="584" 
d="M542 456h-56v-269q0 -195 -195 -195q-194 0 -194 195v269h-55v51h192v-51h-80v-271q0 -76 35 -107.5t103 -31.5q67 0 102 31.5t35 107.5v271h-78v51h191v-51zM182 726h66l78 -151h-57z" />
    <glyph glyph-name="uacute.sc" horiz-adv-x="584" 
d="M542 456h-56v-269q0 -195 -195 -195q-194 0 -194 195v269h-55v51h192v-51h-80v-271q0 -76 35 -107.5t103 -31.5q67 0 102 31.5t35 107.5v271h-78v51h191v-51zM340 726h66l-87 -151h-57z" />
    <glyph glyph-name="ucircumflex.sc" horiz-adv-x="584" 
d="M542 456h-56v-269q0 -195 -195 -195q-194 0 -194 195v269h-55v51h192v-51h-80v-271q0 -76 35 -107.5t103 -31.5q67 0 102 31.5t35 107.5v271h-78v51h191v-51zM255 726h73l96 -151h-57l-76 111l-75 -111h-56z" />
    <glyph glyph-name="utilde.sc" horiz-adv-x="584" 
d="M542 456h-56v-269q0 -195 -195 -195q-194 0 -194 195v269h-55v51h192v-51h-80v-271q0 -76 35 -107.5t103 -31.5q67 0 102 31.5t35 107.5v271h-78v51h191v-51zM426 655l-8 -50q-27 25 -59 25q-21 0 -64 -17t-72 -17q-43 0 -66 25l8 49q24 -24 58 -24q23 0 64.5 17.5
t71.5 17.5q36 0 67 -26z" />
    <glyph glyph-name="udieresis.sc" horiz-adv-x="584" 
d="M542 456h-56v-269q0 -195 -195 -195q-194 0 -194 195v269h-55v51h192v-51h-80v-271q0 -76 35 -107.5t103 -31.5q67 0 102 31.5t35 107.5v271h-78v51h191v-51zM204 600q-47 0 -47 46q0 47 47 47q20 0 33.5 -12t13.5 -35t-13.5 -34.5t-33.5 -11.5zM380 600q-47 0 -47 46
q0 47 47 47q20 0 33.5 -12t13.5 -35t-13.5 -34.5t-33.5 -11.5z" />
    <glyph glyph-name="umacron.sc" horiz-adv-x="584" 
d="M542 456h-56v-269q0 -195 -195 -195q-194 0 -194 195v269h-55v51h192v-51h-80v-271q0 -76 35 -107.5t103 -31.5q67 0 102 31.5t35 107.5v271h-78v51h191v-51zM157 663h270v-53h-270v53z" />
    <glyph glyph-name="ubreve.sc" horiz-adv-x="584" 
d="M542 456h-56v-269q0 -195 -195 -195q-194 0 -194 195v269h-55v51h192v-51h-80v-271q0 -76 35 -107.5t103 -31.5q67 0 102 31.5t35 107.5v271h-78v51h191v-51zM375 701h46q0 -58 -35 -94.5t-94 -36.5q-58 0 -93 36.5t-35 94.5h44q2 -37 23.5 -60.5t60.5 -23.5t60.5 23.5
t22.5 60.5z" />
    <glyph glyph-name="uring.sc" horiz-adv-x="584" 
d="M542 456h-56v-269q0 -195 -195 -195q-194 0 -194 195v269h-55v51h192v-51h-80v-271q0 -76 35 -107.5t103 -31.5q67 0 102 31.5t35 107.5v271h-78v51h191v-51zM191 651q0 41 28 66.5t73 25.5q46 0 74 -25.5t28 -66.5q0 -40 -28 -66t-74 -26q-45 0 -73 26t-28 66zM235 651
q0 -24 15.5 -38.5t41.5 -14.5q27 0 42 14.5t15 38.5t-15 39t-42 15q-26 0 -41.5 -15t-15.5 -39z" />
    <glyph glyph-name="uhungarumlaut.sc" horiz-adv-x="584" 
d="M542 456h-56v-269q0 -195 -195 -195q-194 0 -194 195v269h-55v51h192v-51h-80v-271q0 -76 35 -107.5t103 -31.5q67 0 102 31.5t35 107.5v271h-78v51h191v-51zM269 726h66l-87 -151h-57zM411 726h66l-87 -151h-57z" />
    <glyph glyph-name="uogonek.sc" horiz-adv-x="583" 
d="M542 456h-56v-269q0 -152 -123 -185l-70 -57q-35 -28 -35 -58q0 -36 41 -36q27 0 54 17l10 -45q-38 -19 -73 -19q-41 0 -66 20.5t-25 55.5q0 45 50 84l36 29q-188 4 -188 194v269h-55v51h192v-51h-80v-271q0 -76 35 -107.5t103 -31.5q67 0 102 31.5t35 107.5v271h-78v51
h191v-51z" />
    <glyph glyph-name="wacute.sc" horiz-adv-x="812" 
d="M581 456v51h212v-51h-55l-135 -456h-72l-125 334l-124 -334h-72l-136 456h-57v51h196v-51h-79l115 -396l130 344l-40 103h66l160 -447l115 396h-99zM455 726h66l-87 -151h-57z" />
    <glyph glyph-name="wcircumflex.sc" horiz-adv-x="812" 
d="M581 456v51h212v-51h-55l-135 -456h-72l-125 334l-124 -334h-72l-136 456h-57v51h196v-51h-79l115 -396l130 344l-40 103h66l160 -447l115 396h-99zM370 726h73l96 -151h-57l-76 111l-75 -111h-56z" />
    <glyph glyph-name="wdieresis.sc" horiz-adv-x="812" 
d="M581 456v51h212v-51h-55l-135 -456h-72l-125 334l-124 -334h-72l-136 456h-57v51h196v-51h-79l115 -396l130 344l-40 103h66l160 -447l115 396h-99zM319 600q-47 0 -47 46q0 47 47 47q20 0 33.5 -12t13.5 -35t-13.5 -34.5t-33.5 -11.5zM495 600q-47 0 -47 46q0 47 47 47
q20 0 33.5 -12t13.5 -35t-13.5 -34.5t-33.5 -11.5z" />
    <glyph glyph-name="wgrave.sc" horiz-adv-x="812" 
d="M581 456v51h212v-51h-55l-135 -456h-72l-125 334l-124 -334h-72l-136 456h-57v51h196v-51h-79l115 -396l130 344l-40 103h66l160 -447l115 396h-99zM300 726h66l78 -151h-57z" />
    <glyph glyph-name="yacute.sc" horiz-adv-x="520" 
d="M19 456v51h183v-51h-71l130 -204l132 204h-72v51h184v-51h-49l-168 -253v-152h74v-51h-209v51h78v152l-163 253h-49zM307 726h66l-87 -151h-57z" />
    <glyph glyph-name="ycircumflex.sc" horiz-adv-x="520" 
d="M19 456v51h183v-51h-71l130 -204l132 204h-72v51h184v-51h-49l-168 -253v-152h74v-51h-209v51h78v152l-163 253h-49zM225 726h73l96 -151h-57l-76 111l-75 -111h-56z" />
    <glyph glyph-name="ydieresis.sc" horiz-adv-x="520" 
d="M19 456v51h183v-51h-71l130 -204l132 204h-72v51h184v-51h-49l-168 -253v-152h74v-51h-209v51h78v152l-163 253h-49zM173 600q-47 0 -47 46q0 47 47 47q20 0 33.5 -12t13.5 -35t-13.5 -34.5t-33.5 -11.5zM349 600q-47 0 -47 46q0 47 47 47q20 0 33.5 -12t13.5 -35
t-13.5 -34.5t-33.5 -11.5z" />
    <glyph glyph-name="ygrave.sc" horiz-adv-x="520" 
d="M19 456v51h183v-51h-71l130 -204l132 204h-72v51h184v-51h-49l-168 -253v-152h74v-51h-209v51h78v152l-163 253h-49zM154 726h66l78 -151h-57z" />
    <glyph glyph-name="zacute.sc" horiz-adv-x="481" 
d="M422 507v-48l-301 -408h245v112h54v-163h-370v48l301 408h-233v-90h-54v141h358zM294 726h66l-87 -151h-57z" />
    <glyph glyph-name="zcaron.sc" horiz-adv-x="481" 
d="M422 507v-48l-301 -408h245v112h54v-163h-370v48l301 408h-233v-90h-54v141h358zM284 575h-73l-95 151h56l76 -111l75 111h57z" />
    <glyph glyph-name="zdotaccent.sc" horiz-adv-x="481" 
d="M422 507v-48l-301 -408h245v112h54v-163h-370v48l301 408h-233v-90h-54v141h358zM247 600q-47 0 -47 46q0 47 47 47q20 0 33.5 -12t13.5 -35t-13.5 -34.5t-33.5 -11.5z" />
    <glyph glyph-name="ij.sc" horiz-adv-x="586" 
d="M49 0v51h69v405h-69v51h191v-51h-64v-405h64v-51h-191zM350 456v51h186v-51h-53v-436q0 -127 -112 -190l-35 40q47 28 68 59.5t21 81.5v445h-75z" />
    <glyph glyph-name="germandbls.sc" horiz-adv-x="898" 
d="M826 358h-49l-11 92q-44 13 -90 13q-49 0 -76.5 -24t-27.5 -60q0 -32 18.5 -51t58.5 -33l72 -24q62 -21 92 -55t30 -87q0 -56 -45.5 -96.5t-127.5 -40.5q-94 0 -158 33l-8 133h48l18 -99q45 -18 100 -18q49 0 80 22.5t31 61.5q0 61 -80 89l-75 26q-59 19 -87 51t-28 85
q0 57 43 98t122 41q78 0 150 -31v-126zM381 358h-49l-11 92q-44 13 -90 13q-49 0 -76.5 -24t-27.5 -60q0 -32 18.5 -51t58.5 -33l72 -24q62 -21 92 -55t30 -87q0 -56 -45.5 -96.5t-127.5 -40.5q-94 0 -158 33l-8 133h48l18 -99q45 -18 100 -18q49 0 80 22.5t31 61.5
q0 61 -80 89l-75 26q-59 19 -87 51t-28 85q0 57 43 98t122 41q78 0 150 -31v-126z" />
    <glyph glyph-name="fi.sc" horiz-adv-x="757" 
d="M53 0v51h60v405h-60v51h374v-132h-55v81h-201v-192h196v-52h-196v-161h90v-51h-208zM514 0v51h69v405h-69v51h191v-51h-64v-405h64v-51h-191z" />
    <glyph glyph-name="fl.sc" horiz-adv-x="912" 
d="M53 0v51h60v405h-60v51h374v-132h-55v81h-201v-192h196v-52h-196v-161h90v-51h-208zM821 152h54v-152h-359v51h60v405h-60v51h188v-51h-70v-405h187v101z" />
    <glyph glyph-name="eng.sc" horiz-adv-x="633" 
d="M470 -18l-299 445v-376h89v-51h-207v51h60v405h-60v51h131l287 -433v382h-88v51h204v-51h-59v-474q0 -57 -20 -96t-74 -59l-32 43q37 16 52.5 41.5t15.5 70.5z" />
    <glyph glyph-name="grave.sc" horiz-adv-x="600" 
d="M228 726h66l78 -151h-57z" />
    <glyph glyph-name="acute.sc" horiz-adv-x="600" 
d="M306 726h66l-87 -151h-57z" />
    <glyph glyph-name="circumflex.sc" horiz-adv-x="600" 
d="M263 726h73l96 -151h-57l-76 111l-75 -111h-56z" />
    <glyph glyph-name="caron.sc" horiz-adv-x="600" 
d="M336 575h-73l-95 151h56l76 -111l75 111h57z" />
    <glyph glyph-name="caronalt.sc" horiz-adv-x="600" 
d="M347 507l-47 -149h-47l25 149h69z" />
    <glyph glyph-name="tilde.sc" horiz-adv-x="600" 
d="M434 655l-8 -50q-27 25 -59 25q-21 0 -64 -17t-72 -17q-43 0 -66 25l8 49q24 -24 58 -24q23 0 64.5 17.5t71.5 17.5q36 0 67 -26z" />
    <glyph glyph-name="dieresis.sc" horiz-adv-x="600" 
d="M212 600q-47 0 -47 46q0 47 47 47q20 0 33.5 -12t13.5 -35t-13.5 -34.5t-33.5 -11.5zM388 600q-47 0 -47 46q0 47 47 47q20 0 33.5 -12t13.5 -35t-13.5 -34.5t-33.5 -11.5z" />
    <glyph glyph-name="macron.sc" horiz-adv-x="600" 
d="M165 663h270v-53h-270v53z" />
    <glyph glyph-name="breve.sc" horiz-adv-x="600" 
d="M382 701h46q0 -58 -35 -94.5t-94 -36.5q-58 0 -93 36.5t-35 94.5h44q2 -37 23.5 -60.5t60.5 -23.5t60.5 23.5t22.5 60.5z" />
    <glyph glyph-name="ring.sc" horiz-adv-x="600" 
d="M198 651q0 41 28 66.5t73 25.5q46 0 74 -25.5t28 -66.5q0 -40 -28 -66t-74 -26q-45 0 -73 26t-28 66zM242 651q0 -24 15.5 -38.5t41.5 -14.5q27 0 42 14.5t15 38.5t-15 39t-42 15q-26 0 -41.5 -15t-15.5 -39z" />
    <glyph glyph-name="hungarumlaut.sc" horiz-adv-x="600" 
d="M235 726h66l-87 -151h-57zM377 726h66l-87 -151h-57z" />
    <glyph glyph-name="dotaccent.sc" horiz-adv-x="600" 
d="M300 600q-47 0 -47 46q0 47 47 47q20 0 33.5 -12t13.5 -35t-13.5 -34.5t-33.5 -11.5z" />
    <glyph glyph-name="exclamdown.sc" horiz-adv-x="249" 
d="M102 345h46l10 -350h-68zM123 507q20 0 33 -12t13 -30t-13 -30t-33 -12q-19 0 -31.5 12t-12.5 30t12.5 30t31.5 12z" />
    <glyph glyph-name="questiondown.sc" horiz-adv-x="380" 
d="M281 135h50l5 -91q-62 -49 -142 -49q-68 0 -108 35.5t-40 88.5q0 32 12 57.5t35 43t39.5 27t40.5 19.5v87h54v-118q-120 -37 -120 -112q0 -31 23 -53t66 -22q49 0 85 22v65zM198 515q19 0 32 -12t13 -30t-13 -30t-32 -12q-20 0 -33 12t-13 30t13 30t33 12z" />
    <glyph glyph-name="Euro.sc" horiz-adv-x="491" 
d="M53 323h44q12 91 62.5 141.5t139.5 50.5q74 0 138 -33l-20 -52q-58 30 -119 30q-120 0 -140 -137h211l-18 -43h-197q-1 -18 -1 -25q0 -23 1 -34h173l-18 -44h-150q24 -129 142 -129q64 0 126 33l15 -53q-69 -36 -145 -36q-172 0 -199 185h-45v44h40v59h-40v43z" />
    <glyph glyph-name="cent.sc" horiz-adv-x="436" 
d="M306 397l-14 -53q47 -10 83 -33l-17 -48q-34 22 -79 30l-64 -246q13 -3 28 -3q60 0 115 34l17 -48q-60 -37 -136 -38q-15 0 -37 2l-12 -46l-36 8l11 46q-103 34 -103 170q0 79 43 128.5t126 49.5q4 0 11.5 -0.5t11.5 -0.5l15 56zM124 173q0 -89 55 -116l62 240
q-117 -1 -117 -124z" />
    <glyph glyph-name="sterling.sc" horiz-adv-x="469" 
d="M54 221h54v113q0 81 40.5 131t125.5 50q76 0 142 -29l-12 -113h-43v78q-44 12 -85 12q-109 0 -109 -131v-111h157v-44h-157v-126h241v-51h-354v42l54 19v116h-54v44z" />
    <glyph glyph-name="florin.sc" horiz-adv-x="308" 
d="M169 292v-345q0 -52 -26.5 -84.5t-85.5 -32.5q-19 0 -42 7v50q28 -4 43 -4q31 0 43.5 16.5t12.5 50.5v342h-79v50h79v71q0 52 26.5 84.5t85.5 32.5q21 0 42 -7v-50q-26 4 -43 4q-31 0 -43.5 -17t-12.5 -50v-68h87v-50h-87z" />
    <glyph glyph-name="yen.sc" horiz-adv-x="562" 
d="M86 221h152l-38 59h-114v43h87l-86 133h-49v51h183v-51h-71l130 -204l132 204h-72v51h184v-51h-49l-88 -133h88v-43h-117l-38 -59h155v-44h-167v-126h73v-51h-209v51h78v126h-164v44z" />
    <glyph glyph-name="rupee.sc" horiz-adv-x="460" 
d="M59 507h339v-43h-101q37 -30 42 -84h59v-39h-59q-5 -49 -38.5 -81t-90.5 -40q42 -28 75.5 -73t48.5 -96h67v-51h-185v51h54q-14 47 -48.5 91.5t-78.5 71.5h-84v50h92q115 0 126 77h-218v39h218q-6 38 -32.5 57.5t-83.5 19.5h-102v50z" />
    <glyph glyph-name="perthousand.sc" horiz-adv-x="830" 
d="M476 507v-7l-330 -500h-47v7l327 500h50zM159 515q58 0 87 -33t29 -85t-29.5 -85t-86.5 -33t-86 33t-29 85q0 51 29.5 84.5t85.5 33.5zM159 327q67 0 67 70q0 69 -67 69q-65 0 -65 -69q0 -70 65 -70zM417 227q58 0 87 -32.5t29 -84.5t-29.5 -85t-86.5 -33t-86.5 33
t-29.5 85q0 51 30 84t86 33zM417 40q67 0 67 70q0 68 -67 68q-65 0 -65 -68q0 -70 65 -70zM676 227q59 0 88 -32.5t29 -84.5t-29.5 -85t-87.5 -33q-57 0 -86 32.5t-29 85.5q0 51 29.5 84t85.5 33zM676 40q67 0 67 70q0 68 -67 68q-65 0 -65 -68q0 -70 65 -70z" />
    <glyph glyph-name="zero.tf" 
d="M105 336q0 -153 38 -222.5t136 -69.5q97 0 136.5 70.5t39.5 221.5t-39.5 223t-137.5 72q-95 0 -134 -72t-39 -223zM518 336q0 -168 -55.5 -257.5t-183.5 -89.5q-129 0 -183.5 89t-54.5 258q0 170 56 260t181 90q129 0 184.5 -89.5t55.5 -260.5z" />
    <glyph glyph-name="one.tf" 
d="M112 0v56h170v560l-173 -72l-16 51l193 81h55v-620h149v-56h-378z" />
    <glyph glyph-name="two.tf" 
d="M135 463l-60 -4q-2 10 -2 30q0 89 53 143t145 54q101 0 152 -52.5t51 -134.5q0 -65 -30 -114t-86 -106q-127 -134 -213 -223h289v92h53v-148h-423v52q133 137 260 270q47 50 67 89t20 88q0 59 -34 95.5t-106 36.5q-68 0 -103 -39t-35 -103q0 -18 2 -26z" />
    <glyph glyph-name="three.tf" 
d="M130 509h-50l-3 116q83 61 187 61q100 0 150.5 -48t50.5 -134q0 -67 -34 -107t-82 -52q59 -12 97 -54.5t38 -111.5q0 -88 -58 -139t-168 -51q-123 0 -200 72l29 50q68 -66 172 -66q161 0 161 135q0 65 -40.5 98.5t-131.5 33.5h-71v57h68q71 0 115 33t44 98
q0 131 -142 131q-70 0 -132 -36v-86z" />
    <glyph glyph-name="four.tf" 
d="M525 209v-54h-110v-155h-58v155h-330v50l263 369q19 27 34.5 52.5t21.5 37.5l6 12h63v-467h110zM95 209h262v371z" />
    <glyph glyph-name="five.tf" 
d="M72 45l3 132h53v-99q54 -33 131 -33q81 0 124 43.5t43 127.5q0 73 -38 114t-113 41q-80 0 -144 -44l-37 3l41 346h336v-56h-287l-29 -235q57 42 134 42q95 0 147 -56t52 -153q0 -106 -60 -167.5t-170 -61.5q-108 0 -186 56z" />
    <glyph glyph-name="six.tf" 
d="M322 631q-55 0 -94.5 -25.5t-61 -69t-31.5 -92.5t-10 -105q0 -12 1 -20q14 48 63 83t117 35q97 0 147 -59.5t50 -157.5q0 -106 -56 -168.5t-158 -62.5q-114 0 -169.5 86.5t-55.5 245.5q0 76 13.5 138.5t42.5 115t81 82t123 29.5q89 0 162 -40l-24 -53q-70 38 -140 38z
M291 45q79 0 115.5 48t36.5 125q0 73 -35 116.5t-108 43.5q-65 0 -108 -36.5t-64 -88.5q15 -208 163 -208z" />
    <glyph glyph-name="seven.tf" 
d="M178 0l248 623h-288v-125h-57v178h421l-2 -49q-17 -22 -64 -135l-191 -492h-67z" />
    <glyph glyph-name="eight.tf" 
d="M496 503q0 -53 -31.5 -95.5t-74.5 -68.5q120 -51 120 -161q0 -90 -60.5 -139.5t-167.5 -49.5q-104 0 -165.5 49.5t-61.5 138.5q0 59 33.5 105t83.5 73q-98 44 -98 146q0 80 53.5 132t155.5 52q105 0 159 -51t54 -131zM348 293l-128 43q-48 -28 -75.5 -64.5t-27.5 -91.5
q0 -63 43.5 -99.5t124.5 -36.5t121.5 34.5t40.5 96.5q0 85 -99 118zM136 505q0 -75 87 -106l117 -42q94 56 94 144q0 60 -37 95t-116 35q-74 0 -109.5 -34t-35.5 -92z" />
    <glyph glyph-name="nine.tf" 
d="M237 45q197 0 197 281q0 13 -1 20q-16 -48 -65.5 -83t-115.5 -35q-98 0 -146.5 61.5t-48.5 165.5q0 103 55.5 167t160.5 64q114 0 168 -89t54 -249q0 -359 -259 -359q-96 0 -163 42l23 53q69 -39 141 -39zM271 630q-80 0 -117 -48t-37 -124q0 -171 143 -171
q121 0 171 127q-12 216 -160 216z" />
    <glyph glyph-name="zero.tosf" 
d="M112 286q0 -115 38 -177t129 -62t130 62.5t39 176.5q0 242 -170 242q-166 0 -166 -242zM511 286q0 -134 -56 -215.5t-176 -81.5q-121 0 -175.5 81t-54.5 216q0 134 56 217t173 83q82 0 135.5 -41.5t75.5 -106.5t22 -152z" />
    <glyph glyph-name="one.tosf" 
d="M115 0v55h171v458l-172 -63l-18 49l194 76h55v-520h148v-55h-378z" />
    <glyph glyph-name="two.tosf" 
d="M488 0h-423v45q152 133 259 230q48 44 68 77t20 72q0 48 -35 77.5t-105 29.5t-104.5 -31t-34.5 -84q0 -7 2 -21l-59 -3q-3 12 -3 26q0 76 53 122t146 46q100 0 151.5 -44.5t51.5 -113.5q0 -57 -29.5 -100.5t-83.5 -90.5l-210 -185h283v75h53v-127z" />
    <glyph glyph-name="three.tosf" 
d="M130 410h-50l-3 115q83 61 187 61q100 0 151 -48t51 -134q0 -67 -34.5 -107t-82.5 -52q59 -12 97 -54t38 -112q0 -88 -58 -139t-168 -51q-123 0 -200 72l30 50q68 -66 171 -66q162 0 162 135q0 132 -173 132h-71v57h68q72 0 115.5 33t43.5 98q0 131 -142 131
q-70 0 -132 -36v-85z" />
    <glyph glyph-name="four.tosf" 
d="M524 109v-54h-110v-155h-58v155h-330v50l263 369q19 27 34.5 52.5t21.5 37.5l6 12h63v-467h110zM94 109h262v370z" />
    <glyph glyph-name="five.tosf" 
d="M70 -55l2 132h53v-99q54 -33 131 -33q81 0 124 43.5t43 127.5q0 73 -38 114t-113 41q-80 0 -144 -44l-37 3l41 346h336v-56h-287l-29 -235q59 42 134 42q96 0 147.5 -55.5t51.5 -153.5q0 -106 -59.5 -167.5t-169.5 -61.5t-186 56z" />
    <glyph glyph-name="six.tosf" 
d="M323 631q-56 0 -97 -25.5t-63 -69t-32 -92.5t-10 -105q0 -12 1 -20q14 48 64.5 83t119.5 35q99 0 150 -59.5t51 -157.5q0 -106 -57 -168.5t-161 -62.5q-116 0 -172.5 86.5t-56.5 245.5q0 76 13.5 138.5t43 115t82.5 82t126 29.5q90 0 165 -40l-24 -53q-71 38 -143 38z
M291 45q81 0 118.5 48t37.5 125q0 73 -36 117t-111 44q-66 0 -110.5 -37t-65.5 -89q15 -208 167 -208z" />
    <glyph glyph-name="seven.tosf" 
d="M176 -100l249 623h-289v-127h-56v180h420v-49q-30 -47 -64 -135l-192 -492h-68z" />
    <glyph glyph-name="eight.tosf" 
d="M495 503q0 -53 -31.5 -95.5t-74.5 -68.5q120 -51 120 -161q0 -90 -60.5 -139.5t-167.5 -49.5q-104 0 -165.5 49.5t-61.5 138.5q0 59 34 105.5t83 72.5q-98 46 -98 146q0 80 53.5 132t155.5 52q105 0 159 -51t54 -131zM348 293l-128 43q-48 -29 -76 -65t-28 -91
q0 -63 43.5 -99.5t124.5 -36.5t121.5 34.5t40.5 96.5q0 85 -98 118zM135 505q0 -74 87 -106l117 -42q94 54 94 144q0 60 -37 95t-116 35q-74 0 -109.5 -34t-35.5 -92z" />
    <glyph glyph-name="nine.tosf" 
d="M236 -56q202 0 202 281q0 13 -1 20q-16 -48 -66.5 -83t-118.5 -35q-100 0 -149.5 61.5t-49.5 165.5t56.5 168t163.5 64q116 0 171 -89.5t55 -249.5q0 -359 -264 -359q-97 0 -166 42l23 53q70 -39 144 -39zM271 530q-82 0 -120 -48.5t-38 -124.5q0 -172 147 -172
q121 0 175 128q-13 217 -164 217z" />
    <glyph glyph-name="Euro.tf" 
d="M40 427h55q16 122 78 190.5t171 68.5q90 0 172 -45l-23 -54q-69 42 -151 42q-158 0 -185 -202h269l-21 -49h-253q-1 -12 -1 -38q0 -19 2 -49h219l-20 -49h-194q29 -195 187 -195q86 0 162 49l16 -56q-87 -51 -179 -51q-216 0 -248 253h-56v49h51q-1 15 -1 49q0 26 1 38
h-51v49z" />
    <glyph glyph-name="cent.tf" 
d="M387 530l-17 -72q64 -14 108 -46l-20 -51q-45 34 -101 45l-87 -359q17 -4 40 -4q82 0 148 51l20 -51q-78 -54 -179 -54q-16 0 -42 4l-15 -61l-41 10l14 62q-62 23 -92.5 82.5t-30.5 142.5q0 106 52.5 171.5t154.5 65.5q5 0 14 -0.5t14 -0.5l18 75zM229 61l85 351
q-159 -1 -159 -183q0 -128 74 -168z" />
    <glyph glyph-name="sterling.tf" 
d="M55 291h69v155q0 108 50 174t155 66q95 0 175 -37l-14 -140h-46v104q-52 18 -114 18q-145 0 -145 -188v-152h204v-49h-204v-189h309v-53h-439v44l69 19v179h-69v49z" />
    <glyph glyph-name="florin.tf" 
d="M308 404v-474q0 -70 -31 -113t-100 -43q-25 0 -53 7v55q24 -6 51 -6q43 0 59.5 25.5t16.5 77.5v471h-102v52h102v94q0 70 31 113t100 43q27 0 53 -7v-55q-24 6 -51 6q-43 0 -59.5 -25.5t-16.5 -77.5v-91h112v-52h-112z" />
    <glyph glyph-name="yen.tf" 
d="M76 291h165l-50 87h-115v49h87l-111 195h-59v54h212v-54h-89l162 -292l165 292h-90v54h213v-54h-58l-115 -195h87v-49h-116l-52 -87h168v-49h-174v-188h90v-54h-243v54h94v188h-171v49z" />
    <glyph glyph-name="rupee.tf" 
d="M72 676h409v-49h-126q51 -42 57 -117h69v-49h-70q-6 -67 -50.5 -110.5t-118.5 -53.5q55 -38 99 -101.5t67 -141.5h84v-54h-219v54h69q-20 72 -65 135t-106 103h-99v54h107q153 0 169 115h-276v49h276q-8 56 -43 84t-110 28h-123v54z" />
    <glyph glyph-name="dollar.tf" 
d="M303 -103h-48v92q-104 5 -177 46v157h50l11 -122q45 -22 116 -27v274l-33 12q-73 26 -109 66t-36 108q0 67 47 119.5t131 61.5v75h48v-73q86 -4 169 -40v-145h-50l-13 107q-63 21 -106 23v-266l37 -12q76 -27 115 -70.5t39 -111.5q0 -66 -51.5 -119.5t-139.5 -61.5v-93z
M318 295l-15 4v-255q56 8 91.5 41.5t35.5 83.5q0 85 -112 126zM140 505q0 -47 27.5 -74.5t87.5 -48.5v246q-55 -8 -85 -43t-30 -80z" />
    <glyph glyph-name="zero.osf" horiz-adv-x="580" 
d="M117 286q0 -115 39.5 -177t132.5 -62q174 0 174 239q0 242 -175 242q-171 0 -171 -242zM525 286q0 -134 -56.5 -215.5t-179.5 -81.5q-64 0 -110.5 23t-73 64.5t-38.5 93.5t-12 116q0 87 22 152t76 106.5t135 41.5q64 0 110.5 -23.5t73.5 -65.5t40 -94.5t13 -116.5z" />
    <glyph glyph-name="one.osf" horiz-adv-x="448" 
d="M55 0v55h171v458l-171 -68l-18 49l193 81h55v-520h149v-55h-379z" />
    <glyph glyph-name="two.osf" horiz-adv-x="516" 
d="M466 0h-423v45q152 133 259 230q48 44 68 77t20 72q0 48 -35 77.5t-105 29.5t-104.5 -31t-34.5 -84q0 -7 2 -21l-59 -3q-3 12 -3 26q0 76 53 122t146 46q100 0 151.5 -44.5t51.5 -113.5q0 -57 -29.5 -100.5t-83.5 -90.5l-210 -185h283v75h53v-127z" />
    <glyph glyph-name="three.osf" horiz-adv-x="515" 
d="M109 410h-50l-3 115q83 61 187 61q100 0 150.5 -48t50.5 -134q0 -67 -34 -107t-83 -52q59 -12 97.5 -54.5t38.5 -111.5q0 -88 -58 -139t-168 -51q-123 0 -200 72l29 50q68 -66 171 -66q162 0 162 135q0 132 -172 132h-71v57h67q72 0 116 33t44 98q0 131 -142 131
q-70 0 -132 -36v-85z" />
    <glyph glyph-name="four.osf" horiz-adv-x="534" 
d="M513 109v-54h-110v-155h-58v155h-331v50l264 369q19 27 34.5 52.5t21.5 37.5l5 12h64v-467h110zM83 109h262v370z" />
    <glyph glyph-name="five.osf" horiz-adv-x="511" 
d="M46 -55l3 132h52v-99q56 -33 131 -33q81 0 124 43.5t43 127.5q0 73 -38 114t-113 41q-81 0 -143 -44l-38 3l41 346h337v-56h-288l-29 -235q59 42 134 42q96 0 147.5 -55.5t51.5 -153.5q0 -106 -59.5 -167.5t-169.5 -61.5q-108 0 -186 56z" />
    <glyph glyph-name="six.osf" horiz-adv-x="537" 
d="M312 631q-55 0 -95.5 -25.5t-62 -69t-31.5 -92.5t-10 -105q0 -12 1 -20q15 49 64 83.5t117 34.5q97 0 146.5 -59.5t49.5 -157.5q0 -106 -55 -168.5t-158 -62.5q-114 0 -169.5 86.5t-55.5 245.5q0 76 13.5 138.5t42.5 115t81 82t124 29.5q87 0 162 -40l-24 -53
q-71 38 -140 38zM280 45q79 0 115.5 48t36.5 125q0 73 -35.5 117t-108.5 44q-64 0 -107 -36.5t-65 -89.5q15 -208 164 -208z" />
    <glyph glyph-name="seven.osf" horiz-adv-x="477" 
d="M134 -100l248 623h-288v-127h-57v180h421v-49q-28 -43 -65 -135l-192 -492h-67z" />
    <glyph glyph-name="eight.osf" 
d="M495 503q0 -53 -31 -95.5t-74 -68.5q119 -50 119 -161q0 -90 -60 -139.5t-167 -49.5q-105 0 -166 49t-61 139q0 59 33.5 105.5t83.5 72.5q-98 45 -98 146q0 80 53.5 132t155.5 52q105 0 158.5 -51t53.5 -131zM348 293l-128 43q-48 -28 -75.5 -64.5t-27.5 -91.5
q0 -64 43 -100t125 -36q81 0 121 34.5t40 96.5q0 85 -98 118zM136 505q0 -74 87 -106l117 -42q94 56 94 144q0 60 -37 95t-116 35q-74 0 -109.5 -34t-35.5 -92z" />
    <glyph glyph-name="nine.osf" horiz-adv-x="536" 
d="M224 -56q198 0 198 281q0 13 -1 20q-16 -48 -65.5 -83t-114.5 -35q-98 0 -147.5 61.5t-49.5 165.5q0 103 56 167.5t160 64.5q222 0 222 -339q0 -359 -259 -359q-96 0 -163 42l23 53q69 -39 141 -39zM258 530q-79 0 -116.5 -48.5t-37.5 -124.5q0 -172 144 -172
q118 0 170 128q-13 217 -160 217z" />
    <glyph glyph-name="zero.denom" horiz-adv-x="351" 
d="M90 171q0 -69 19 -100.5t67 -31.5q47 0 66.5 32t19.5 100q0 69 -19.5 101t-67.5 32q-47 0 -66 -32t-19 -101zM315 171q0 -177 -140 -177q-74 0 -106.5 45.5t-32.5 131.5q0 179 139 179q140 0 140 -179z" />
    <glyph glyph-name="one.denom" horiz-adv-x="274" 
d="M38 0v45h94v249l-94 -30l-12 41l111 40h46v-300h79v-45h-224z" />
    <glyph glyph-name="two.denom" horiz-adv-x="315" 
d="M279 0h-245v39q123 111 132 119q28 27 39.5 46t11.5 45t-16 41.5t-48 15.5q-31 0 -48.5 -16t-17.5 -42q0 -4 3 -19l-52 -4q-2 14 -2 23q0 45 30.5 73.5t86.5 28.5q58 0 88 -28t30 -73q0 -58 -72 -120q-74 -63 -95 -84h132v41h43v-86z" />
    <glyph glyph-name="three.denom" horiz-adv-x="310" 
d="M81 252h-39l-4 66q48 32 108 32t89 -27t29 -68q0 -33 -18 -53.5t-45 -27.5q32 -6 53 -26t21 -56q0 -45 -33.5 -71.5t-97.5 -26.5q-73 0 -116 38l24 38q38 -31 92 -31q78 0 78 55t-85 55h-41v44h38q36 0 57 14.5t21 41.5q0 56 -67 56q-33 0 -64 -14v-39z" />
    <glyph glyph-name="four.denom" horiz-adv-x="322" 
d="M302 116v-42h-57v-74h-51v74h-179v38l138 179l34 54h58v-229h57zM72 116h122v160z" />
    <glyph glyph-name="five.denom" horiz-adv-x="309" 
d="M32 24l3 73h43v-46q26 -12 62 -12q40 0 61 18.5t21 52.5q0 65 -77 65q-40 0 -79 -18l-21 5l24 183h195v-45h-154l-13 -94q26 15 67 15q53 0 82 -29.5t29 -79.5q0 -55 -34.5 -86.5t-99.5 -31.5q-62 0 -109 30z" />
    <glyph glyph-name="six.denom" horiz-adv-x="329" 
d="M191 305q-54 0 -78 -35t-24 -86q0 -6 1 -9q7 19 32.5 33.5t59.5 14.5q55 0 84.5 -30t29.5 -81q0 -54 -32.5 -86t-95.5 -32q-65 0 -98.5 43.5t-33.5 125.5q0 85 37.5 136t118.5 51q47 0 97 -22l-19 -41q-39 18 -79 18zM171 39q38 0 56 19.5t18 50.5q0 65 -71 65
q-59 0 -83 -46q6 -89 80 -89z" />
    <glyph glyph-name="seven.denom" horiz-adv-x="281" 
d="M71 0l137 303h-136v-63h-47v105h246l-1 -36q-16 -21 -40 -77l-101 -232h-58z" />
    <glyph glyph-name="eight.denom" horiz-adv-x="336" 
d="M292 256q0 -48 -54 -80q62 -26 62 -81q0 -47 -35.5 -74t-96.5 -27t-96.5 26t-35.5 72q0 28 16.5 50t41.5 33q-49 25 -49 78q0 42 32.5 69.5t90.5 27.5q60 0 92 -26.5t32 -67.5zM130 161q-42 -27 -42 -64q0 -27 21 -42.5t61 -15.5q76 0 76 52q0 35 -49 49zM98 256
q0 -32 43 -45l57 -20q42 24 42 59q0 25 -18.5 41t-56.5 16q-67 0 -67 -51z" />
    <glyph glyph-name="nine.denom" horiz-adv-x="329" 
d="M139 39q101 0 101 115q0 7 -1 10q-9 -20 -34 -34t-59 -14q-54 0 -83.5 31t-29.5 84t33.5 86t94.5 33q69 0 100.5 -47.5t31.5 -125.5q0 -183 -155 -183q-53 0 -98 25l18 42q42 -22 81 -22zM160 305q-39 0 -57 -20t-18 -51q0 -69 70 -69q58 0 83 48q-4 92 -78 92z" />
    <glyph glyph-name="zero.num" horiz-adv-x="353" 
d="M91 502q0 -69 19 -100t67 -31q47 0 66 31.5t19 99.5q0 70 -19 102t-67 32q-47 0 -66 -32.5t-19 -101.5zM316 502q0 -177 -141 -177q-74 0 -106 45.5t-32 131.5q0 179 139 179q140 0 140 -179z" />
    <glyph glyph-name="one.num" horiz-adv-x="276" 
d="M39 331v45h94v249l-94 -32l-12 41l111 42h46v-300h79v-45h-224z" />
    <glyph glyph-name="two.num" horiz-adv-x="316" 
d="M280 331h-245v39q6 6 64 58t68 62q28 26 39.5 44.5t11.5 45.5q0 26 -16 41.5t-48 15.5q-31 0 -48.5 -16t-17.5 -42q0 -11 3 -19l-52 -4q-2 7 -2 23q0 46 30.5 74t86.5 28q58 0 88 -28t30 -73q0 -57 -72 -119q-12 -10 -35 -30.5t-41 -36.5t-20 -18h133v41h43v-86z" />
    <glyph glyph-name="three.num" horiz-adv-x="312" 
d="M82 583h-39l-4 66q45 32 108 32q60 0 89 -27t29 -68q0 -33 -18 -53.5t-46 -26.5q75 -15 75 -82q0 -46 -34 -72.5t-98 -26.5q-72 0 -115 38l24 39q37 -32 91 -32q79 0 79 55q0 28 -20 41.5t-66 13.5h-40v45h38q35 0 56 14t21 41q0 56 -66 56q-36 0 -64 -14v-39z" />
    <glyph glyph-name="four.num" horiz-adv-x="323" 
d="M302 447v-42h-57v-74h-51v74h-179v38l138 179l34 54h58v-229h57zM72 447h122v160z" />
    <glyph glyph-name="five.num" horiz-adv-x="308" 
d="M32 355l3 73h43v-46q29 -12 62 -12q40 0 61 18.5t21 52.5q0 66 -77 66q-36 0 -79 -18l-21 5l24 182h195v-45h-154l-13 -94q26 15 67 15q53 0 82 -29.5t29 -79.5q0 -55 -34.5 -86.5t-99.5 -31.5q-62 0 -109 30z" />
    <glyph glyph-name="six.num" horiz-adv-x="329" 
d="M191 636q-54 0 -78 -35t-24 -85q0 -7 1 -9q7 18 32.5 32.5t59.5 14.5q55 0 84.5 -30t29.5 -81q0 -54 -32.5 -86t-95.5 -32q-65 0 -98.5 43.5t-33.5 125.5q0 85 37.5 136t118.5 51q51 0 97 -22l-19 -41q-39 18 -79 18zM171 370q38 0 56 19.5t18 50.5q0 65 -71 65
q-59 0 -83 -46q6 -89 80 -89z" />
    <glyph glyph-name="seven.num" horiz-adv-x="282" 
d="M72 331l137 303h-136v-63h-48v105h247l-1 -36q-16 -21 -40 -77l-101 -232h-58z" />
    <glyph glyph-name="eight.num" horiz-adv-x="336" 
d="M292 587q0 -47 -54 -79q62 -26 62 -82q0 -47 -35.5 -74t-96.5 -27q-60 0 -96 26.5t-36 71.5q0 28 16.5 50t41.5 33q-49 25 -49 78q0 42 32.5 69.5t90.5 27.5q60 0 92 -26.5t32 -67.5zM197 471l-67 21q-42 -26 -42 -64q0 -26 21 -42t61 -16q76 0 76 52q0 35 -49 49z
M98 587q0 -32 43 -45l57 -19q42 22 42 59q0 25 -18.5 40.5t-56.5 15.5q-67 0 -67 -51z" />
    <glyph glyph-name="nine.num" horiz-adv-x="330" 
d="M139 370q102 0 102 116q0 6 -1 10q-9 -20 -34.5 -34.5t-59.5 -14.5q-54 0 -83 31t-29 84t33.5 86t94.5 33q68 0 99.5 -47.5t31.5 -125.5q0 -183 -154 -183q-53 0 -98 25l18 43q41 -23 80 -23zM161 636q-75 0 -75 -71q0 -69 70 -69q56 0 83 48q-4 92 -78 92z" />
    <glyph glyph-name="parenleft.case" horiz-adv-x="260" 
d="M233 -106l-45 -16q-68 111 -101 216.5t-33 245.5q0 147 34.5 251t99.5 212l47 -16q-59 -110 -89.5 -211t-30.5 -236q0 -126 28.5 -228.5t89.5 -217.5z" />
    <glyph glyph-name="parenright.case" horiz-adv-x="259" 
d="M27 -106q60 115 88.5 217.5t28.5 228.5q0 134 -30.5 235.5t-88.5 211.5l47 16q65 -108 99.5 -212t34.5 -251q0 -140 -33 -245.5t-101 -216.5z" />
    <glyph glyph-name="hyphen.case" 
d="M118 358h324v-57h-324v57z" />
    <glyph glyph-name="bracketleft.case" horiz-adv-x="288" 
d="M81 796h180v-54h-121v-804h121v-54h-180v912z" />
    <glyph glyph-name="bracketright.case" horiz-adv-x="288" 
d="M27 796h180v-912h-180v54h121v804h-121v54z" />
    <glyph glyph-name="braceleft.case" horiz-adv-x="282" 
d="M171 658v-217q0 -85 -72 -101q25 -4 48.5 -29t23.5 -73v-218q0 -49 17.5 -65.5t58.5 -18.5v-52q-70 0 -102.5 30.5t-32.5 104.5v215q0 45 -22.5 62.5t-64.5 17.5v52q47 0 67 17t20 62v216q0 74 32.5 104.5t102.5 30.5v-52q-41 -2 -58.5 -19t-17.5 -67z" />
    <glyph glyph-name="bar.case" horiz-adv-x="209" 
d="M128 -116h-47v912h47v-912z" />
    <glyph glyph-name="braceright.case" horiz-adv-x="282" 
d="M111 441v217q0 50 -17.5 67t-58.5 19v52q70 0 102.5 -30.5t32.5 -104.5v-216q0 -45 20 -62t67 -17v-52q-42 0 -64.5 -17.5t-22.5 -62.5v-215q0 -74 -32.5 -104.5t-102.5 -30.5v52q41 2 58.5 18.5t17.5 65.5v218q0 48 23.5 73t48.5 29q-72 16 -72 101z" />
    <glyph glyph-name="guilsinglleft.case" horiz-adv-x="302" 
d="M42 330l169 207l39 -34l-132 -173l132 -173l-39 -34z" />
    <glyph glyph-name="guilsinglright.case" horiz-adv-x="302" 
d="M91 537l169 -207l-169 -207l-39 34l132 173l-132 173z" />
    <glyph glyph-name="guillemotleft.case" horiz-adv-x="478" 
d="M42 330l169 207l39 -34l-132 -173l132 -173l-39 -34zM218 330l169 207l39 -34l-132 -173l132 -173l-39 -34z" />
    <glyph glyph-name="guillemotright.case" horiz-adv-x="478" 
d="M267 537l169 -207l-169 -207l-39 34l132 173l-132 173zM91 537l169 -207l-169 -207l-39 34l132 173l-132 173z" />
    <glyph glyph-name="endash.case" horiz-adv-x="577" 
d="M66 358h445v-57h-445v57z" />
    <glyph glyph-name="emdash.case" horiz-adv-x="717" 
d="M66 358h585v-57h-585v57z" />
    <glyph glyph-name="bullet.case" 
d="M280 233q-43 0 -71.5 27t-28.5 69t28.5 69.5t71.5 27.5t71 -27.5t28 -69.5t-28 -69t-71 -27z" />
    <glyph glyph-name="periodcentered.case" horiz-adv-x="220" 
d="M110 319q-22 0 -36.5 14t-14.5 36q0 21 14.5 35.5t36.5 14.5t36.5 -14.5t14.5 -35.5q0 -22 -14.5 -36t-36.5 -14z" />
    <glyph glyph-name="Q.alt" horiz-adv-x="667" 
d="M601 337q0 -147 -44 -228l89 -70l-38 -50l-88 71q-65 -71 -190 -71q-146 0 -208 91.5t-62 256.5t62 257t210 92q76 0 129.5 -25.5t83.5 -74t43 -109.5t13 -140zM353 197l34 47l120 -95q31 68 31 188q0 146 -46.5 219.5t-161.5 73.5q-113 0 -159 -73.5t-46 -219.5t46 -219
t161 -73q94 0 142 53z" />
    <glyph glyph-name="brokenbar.sc" horiz-adv-x="233" 
d="M137 290h-41v292h41v-292zM96 188h41v-290h-41v290z" />
    <glyph glyph-name="R.alt" horiz-adv-x="623" 
d="M126 54v568h-78v54h284q214 0 214 -182q0 -76 -43.5 -121t-124.5 -56l148 -263h80v-54h-220v54h73l-142 258h-132v-258h88v-54h-224v54h77zM484 493q0 64 -34.5 96.5t-117.5 32.5h-147v-256h138q85 0 123 32t38 95z" />
    <glyph glyph-name="Racute.alt" horiz-adv-x="623" 
d="M318 899h66l-87 -151h-57zM126 54v568h-78v54h284q214 0 214 -182q0 -76 -43.5 -121t-124.5 -56l148 -263h80v-54h-220v54h73l-142 258h-132v-258h88v-54h-224v54h77zM484 493q0 64 -34.5 96.5t-117.5 32.5h-147v-256h138q85 0 123 32t38 95z" />
    <glyph glyph-name="Rcaron.alt" horiz-adv-x="623" 
d="M319 748h-73l-95 151h56l76 -111l75 111h57zM126 54v568h-78v54h284q214 0 214 -182q0 -76 -43.5 -121t-124.5 -56l148 -263h80v-54h-220v54h73l-142 258h-132v-258h88v-54h-224v54h77zM484 493q0 64 -34.5 96.5t-117.5 32.5h-147v-256h138q85 0 123 32t38 95z" />
    <glyph glyph-name="Rcommaaccent.alt" horiz-adv-x="622" 
d="M360 -71l-47 -145h-47l25 145h69zM126 54v568h-78v54h284q214 0 214 -182q0 -76 -43.5 -121t-124.5 -56l148 -263h80v-54h-220v54h73l-142 258h-132v-258h88v-54h-224v54h77zM484 493q0 64 -34.5 96.5t-117.5 32.5h-147v-256h138q85 0 123 32t38 95z" />
    <glyph glyph-name="r_alt.sc" horiz-adv-x="535" 
d="M114 51v406h-61v50h230q176 0 176 -139q0 -56 -33.5 -90t-96.5 -44l114 -183h63v-51h-184v51h57l-108 179h-100v-179h67v-51h-185v51h61zM399 367q0 44 -25.5 67t-88.5 23h-114v-178h107q121 0 121 88z" />
    <glyph glyph-name="racute_alt.sc" horiz-adv-x="535" 
d="M291 726h66l-87 -151h-57zM114 51v406h-61v50h230q176 0 176 -139q0 -56 -33.5 -90t-96.5 -44l114 -183h63v-51h-184v51h57l-108 179h-100v-179h67v-51h-185v51h61zM399 367q0 44 -25.5 67t-88.5 23h-114v-178h107q121 0 121 88z" />
    <glyph glyph-name="rcaron_alt.sc" horiz-adv-x="535" 
d="M282 575h-73l-95 151h56l76 -111l75 111h57zM114 51v406h-61v50h230q176 0 176 -139q0 -56 -33.5 -90t-96.5 -44l114 -183h63v-51h-184v51h57l-108 179h-100v-179h67v-51h-185v51h61zM399 367q0 44 -25.5 67t-88.5 23h-114v-178h107q121 0 121 88z" />
    <glyph glyph-name="rcommaaccent_alt.sc" horiz-adv-x="534" 
d="M314 -71l-47 -145h-47l25 145h69zM113 51v406h-61v50h230q176 0 176 -139q0 -56 -33.5 -90t-96.5 -44l114 -183h63v-51h-184v51h57l-108 179h-100v-179h67v-51h-185v51h61zM398 367q0 44 -25.5 67t-88.5 23h-114v-178h107q121 0 121 88z" />
    <glyph glyph-name="a.alt" horiz-adv-x="522" 
d="M385 456h43v-401h67v-55h-57q-33 0 -48 13.5t-16 45.5q-52 -70 -135 -70q-96 0 -142.5 63t-46.5 177q0 111 47.5 174t142.5 63q86 0 133 -58zM112 229q0 -185 134 -185q75 0 124 70v230q-40 67 -122 67q-136 0 -136 -182z" />
    <glyph glyph-name="agrave.alt" horiz-adv-x="522" 
d="M385 456h43v-401h67v-55h-57q-33 0 -48 13.5t-16 45.5q-52 -70 -135 -70q-96 0 -142.5 63t-46.5 177q0 111 47.5 174t142.5 63q86 0 133 -58zM112 229q0 -185 134 -185q75 0 124 70v230q-40 67 -122 67q-136 0 -136 -182zM157 696h66l78 -151h-57z" />
    <glyph glyph-name="aacute.alt" horiz-adv-x="522" 
d="M385 456h43v-401h67v-55h-57q-33 0 -48 13.5t-16 45.5q-52 -70 -135 -70q-96 0 -142.5 63t-46.5 177q0 111 47.5 174t142.5 63q86 0 133 -58zM112 229q0 -185 134 -185q75 0 124 70v230q-40 67 -122 67q-136 0 -136 -182zM297 696h66l-87 -151h-57z" />
    <glyph glyph-name="acircumflex.alt" horiz-adv-x="522" 
d="M385 456h43v-401h67v-55h-57q-33 0 -48 13.5t-16 45.5q-52 -70 -135 -70q-96 0 -142.5 63t-46.5 177q0 111 47.5 174t142.5 63q86 0 133 -58zM112 229q0 -185 134 -185q75 0 124 70v230q-40 67 -122 67q-136 0 -136 -182zM225 696h73l96 -151h-57l-76 111l-75 -111h-56z
" />
    <glyph glyph-name="atilde.alt" horiz-adv-x="522" 
d="M385 456h43v-401h67v-55h-57q-33 0 -48 13.5t-16 45.5q-52 -70 -135 -70q-96 0 -142.5 63t-46.5 177q0 111 47.5 174t142.5 63q86 0 133 -58zM112 229q0 -185 134 -185q75 0 124 70v230q-40 67 -122 67q-136 0 -136 -182zM395 625l-8 -50q-27 25 -59 25q-21 0 -64 -17
t-72 -17q-43 0 -66 25l8 49q24 -24 58 -24q23 0 64.5 17.5t71.5 17.5q36 0 67 -26z" />
    <glyph glyph-name="adieresis.alt" horiz-adv-x="522" 
d="M385 456h43v-401h67v-55h-57q-33 0 -48 13.5t-16 45.5q-52 -70 -135 -70q-96 0 -142.5 63t-46.5 177q0 111 47.5 174t142.5 63q86 0 133 -58zM112 229q0 -185 134 -185q75 0 124 70v230q-40 67 -122 67q-136 0 -136 -182zM173 570q-47 0 -47 46q0 47 47 47q20 0 33.5 -12
t13.5 -35t-13.5 -34.5t-33.5 -11.5zM349 570q-47 0 -47 46q0 47 47 47q20 0 33.5 -12t13.5 -35t-13.5 -34.5t-33.5 -11.5z" />
    <glyph glyph-name="amacron.alt" horiz-adv-x="522" 
d="M385 456h43v-401h67v-55h-57q-33 0 -48 13.5t-16 45.5q-52 -70 -135 -70q-96 0 -142.5 63t-46.5 177q0 111 47.5 174t142.5 63q86 0 133 -58zM112 229q0 -185 134 -185q75 0 124 70v230q-40 67 -122 67q-136 0 -136 -182zM126 635h270v-53h-270v53z" />
    <glyph glyph-name="abreve.alt" horiz-adv-x="522" 
d="M385 456h43v-401h67v-55h-57q-33 0 -48 13.5t-16 45.5q-52 -70 -135 -70q-96 0 -142.5 63t-46.5 177q0 111 47.5 174t142.5 63q86 0 133 -58zM112 229q0 -185 134 -185q75 0 124 70v230q-40 67 -122 67q-136 0 -136 -182zM343 681h46q0 -58 -35 -94.5t-94 -36.5
q-58 0 -93 36.5t-35 94.5h44q2 -37 23.5 -60.5t60.5 -23.5t60.5 23.5t22.5 60.5z" />
    <glyph glyph-name="aring.alt" horiz-adv-x="522" 
d="M385 456h43v-401h67v-55h-57q-33 0 -48 13.5t-16 45.5q-52 -70 -135 -70q-96 0 -142.5 63t-46.5 177q0 111 47.5 174t142.5 63q86 0 133 -58zM112 229q0 -185 134 -185q75 0 124 70v230q-40 67 -122 67q-136 0 -136 -182zM159 624q0 40 28 65.5t73 25.5q46 0 74 -25.5
t28 -65.5t-28 -66t-74 -26q-45 0 -73 26t-28 66zM203 624q0 -25 15.5 -39.5t41.5 -14.5q27 0 42 14.5t15 39.5q0 24 -15 39t-42 15q-26 0 -41.5 -15t-15.5 -39z" />
    <glyph glyph-name="aringacute.alt" horiz-adv-x="522" 
d="M160 614q0 37 23.5 62t63.5 29l52 70h65l-65 -76q29 -9 46 -31.5t17 -53.5q0 -40 -27.5 -66t-74.5 -26q-45 0 -72.5 26t-27.5 66zM204 614q0 -25 15 -39.5t41 -14.5q27 0 42.5 14.5t15.5 39.5q0 24 -15.5 39t-42.5 15q-26 0 -41 -15t-15 -39zM385 456h43v-401h67v-55h-57
q-33 0 -48 13.5t-16 45.5q-52 -70 -135 -70q-96 0 -142.5 63t-46.5 177q0 111 47.5 174t142.5 63q86 0 133 -58zM112 229q0 -185 134 -185q75 0 124 70v230q-40 67 -122 67q-136 0 -136 -182z" />
    <glyph glyph-name="g.alt" horiz-adv-x="511" 
d="M376 56q-54 -67 -135 -67q-191 0 -191 240q0 111 48.5 174t145.5 63q87 0 134 -58l14 48h41v-446q0 -236 -184 -236q-85 0 -132 41t-44 120h57q-3 -52 28 -81t91 -29q67 0 97 45t30 136v50zM112 229q0 -185 138 -185q75 0 126 70v230q-40 67 -124 67q-77 0 -108.5 -48
t-31.5 -134z" />
    <glyph glyph-name="gcircumflex.alt" horiz-adv-x="510" 
d="M375 56q-54 -67 -135 -67q-191 0 -191 240q0 111 48.5 174t145.5 63q87 0 134 -58l14 48h41v-446q0 -236 -184 -236q-85 0 -132 41t-44 120h57q-3 -52 28 -81t91 -29q67 0 97 45t30 136v50zM111 229q0 -185 138 -185q75 0 126 70v230q-40 67 -124 67q-77 0 -108.5 -48
t-31.5 -134zM227 696h73l96 -151h-57l-76 111l-75 -111h-56z" />
    <glyph glyph-name="gbreve.alt" horiz-adv-x="511" 
d="M376 56q-54 -67 -135 -67q-191 0 -191 240q0 111 48.5 174t145.5 63q87 0 134 -58l14 48h41v-446q0 -236 -184 -236q-85 0 -132 41t-44 120h57q-3 -52 28 -81t91 -29q67 0 97 45t30 136v50zM112 229q0 -185 138 -185q75 0 126 70v230q-40 67 -124 67q-77 0 -108.5 -48
t-31.5 -134zM339 681h46q0 -58 -35 -94.5t-94 -36.5q-58 0 -93 36.5t-35 94.5h44q2 -37 23.5 -60.5t60.5 -23.5t60.5 23.5t22.5 60.5z" />
    <glyph glyph-name="gcommaaccent.alt" horiz-adv-x="511" 
d="M376 56q-54 -67 -135 -67q-191 0 -191 240q0 111 48.5 174t145.5 63q87 0 134 -58l14 48h41v-446q0 -236 -184 -236q-85 0 -132 41t-44 120h57q-3 -52 28 -81t91 -29q67 0 97 45t30 136v50zM112 229q0 -185 138 -185q75 0 126 70v230q-40 67 -124 67q-77 0 -108.5 -48
t-31.5 -134zM212 555l49 169h46l-25 -169h-70z" />
    <glyph glyph-name="gdotaccent.alt" horiz-adv-x="511" 
d="M376 56q-54 -67 -135 -67q-191 0 -191 240q0 111 48.5 174t145.5 63q87 0 134 -58l14 48h41v-446q0 -236 -184 -236q-85 0 -132 41t-44 120h57q-3 -52 28 -81t91 -29q67 0 97 45t30 136v50zM112 229q0 -185 138 -185q75 0 126 70v230q-40 67 -124 67q-77 0 -108.5 -48
t-31.5 -134zM258 570q-47 0 -47 46q0 47 47 47q20 0 33.5 -12t13.5 -35t-13.5 -34.5t-33.5 -11.5z" />
    <glyph glyph-name="q_alt.sc" horiz-adv-x="565" 
d="M501 253q0 -104 -34 -166l67 -50l-33 -45l-69 52q-54 -52 -153 -52q-120 0 -170 69.5t-50 191.5q0 123 50.5 192.5t170.5 69.5q221 0 221 -262zM287 154l32 43l96 -72q23 46 23 128q0 102 -36 155t-122 53t-121.5 -52.5t-35.5 -155.5t35 -155t122 -52q68 0 104 34z" />
    <glyph glyph-name="aogonek.alt" horiz-adv-x="521" 
d="M495 55v-55l-73 -55q-35 -28 -35 -58q0 -36 41 -36q28 0 55 17l10 -45q-35 -16 -62 -17q-17 -1 -37 2q-66 13 -66 72q0 26 17.5 50t32.5 35t52 36q-30 2 -42.5 14.5t-13.5 43.5q-52 -70 -135 -70q-96 0 -142.5 63t-46.5 177q0 111 47.5 174t142.5 63q86 0 133 -58l12 48
h43v-401h67zM112 229q0 -185 134 -185q75 0 124 70v230q-40 67 -122 67q-136 0 -136 -182z" />
    </font>
</defs>
</svg>
