<?xml version="1.0" standalone="no"?>
<!DOCTYPE svg PUBLIC "-//W3C//DTD SVG 1.1//EN" "http://www.w3.org/Graphics/SVG/1.1/DTD/svg11.dtd" >
<svg xmlns="http://www.w3.org/2000/svg" xmlns:xlink="http://www.w3.org/1999/xlink" version="1.1">
<metadata>
Created by FontForge 20161013 at Wed Mar  4 14:07:11 2015
 By ,,,
Copyright (c) 2011 by Hannes von Doehren, Livius Dietzel. All rights reserved.
</metadata>
<defs>
<font id="BrixSlab-ExtraLight" horiz-adv-x="560" >
  <font-face 
    font-family="Brix Slab ExtraLight"
    font-weight="250"
    font-stretch="normal"
    units-per-em="1000"
    panose-1="2 0 0 0 0 0 0 0 0 0"
    ascent="720"
    descent="-280"
    x-height="456"
    cap-height="676"
    bbox="-181 -227 974 969"
    underline-thickness="50"
    underline-position="-200"
    unicode-range="U+0020-FB02"
  />
<missing-glyph horiz-adv-x="513" 
d="M50 0v656h413v-656h-413zM88 38h337v580h-337v-580z" />
    <glyph glyph-name="fi" unicode="fi" horiz-adv-x="643" 
d="M379 0v38h103v381h-325v-381h117v-38h-229v33l73 10v376h-74v37h74v92q0 158 125 158q24 0 46 -6v-41q-28 7 -47 7q-48 0 -66.5 -29.5t-18.5 -88.5v-92h364v-418h102v-38h-244zM496 591q-39 0 -39 39q0 40 39 40q16 0 27.5 -10t11.5 -30q0 -19 -11.5 -29t-27.5 -10z" />
    <glyph glyph-name="fl" unicode="fl" horiz-adv-x="600" 
d="M444 99v547q-62 20 -134 20q-83 0 -118 -37t-35 -109v-64h148v-37h-148v-381h117v-38h-229v33l73 10v376h-74v37h74v64q0 85 46 135.5t148 50.5q83 0 171 -30v-576q0 -39 11 -56t40 -17q24 0 46 10l11 -36q-25 -12 -59 -12q-48 0 -68 26.5t-20 83.5z" />
    <glyph glyph-name="f_f" unicode="ff" horiz-adv-x="689" 
d="M642 700v-41q-28 7 -47 7q-48 0 -66.5 -29.5t-18.5 -88.5v-92h148v-37h-148v-381h117v-38h-229v33l73 10v376h-314v-381h117v-38h-229v33l73 10v376h-74v37h74v92q0 158 125 158q24 0 46 -6v-41q-28 7 -47 7q-48 0 -66.5 -29.5t-18.5 -88.5v-92h314v92q0 158 125 158
q24 0 46 -6z" />
    <glyph glyph-name=".notdef" horiz-adv-x="513" 
d="M50 0v656h413v-656h-413zM88 38h337v580h-337v-580z" />
    <glyph glyph-name=".null" horiz-adv-x="0" 
 />
    <glyph glyph-name=".null" horiz-adv-x="0" 
 />
    <glyph glyph-name="nonmarkingreturn" horiz-adv-x="333" 
 />
    <glyph glyph-name="space" unicode=" " horiz-adv-x="200" 
 />
    <glyph glyph-name="exclam" unicode="!" horiz-adv-x="234" 
d="M132 199h-31l-8 477h49zM118 -7q-18 0 -30 12t-12 30t12 30t30 12q19 0 31 -12t12 -30t-12 -30t-31 -12z" />
    <glyph glyph-name="quotedbl" unicode="&#x22;" horiz-adv-x="323" 
d="M215 432l-8 244h50l-10 -244h-32zM76 432l-10 244h52l-10 -244h-32z" />
    <glyph glyph-name="numbersign" unicode="#" horiz-adv-x="595" 
d="M151 225h-102v39h108l27 178h-101v39h107l31 195h39l-30 -195h167l31 195h39l-30 -195h110v-39h-116l-28 -178h110v-39h-116l-34 -225h-40l35 225h-168l-34 -225h-40zM224 442l-28 -178h168l27 178h-167z" />
    <glyph glyph-name="dollar" unicode="$" 
d="M299 -103h-40v92q-99 4 -172 45v150h33l8 -124q55 -26 131 -31v298l-34 12q-68 25 -104 63t-36 104t46.5 118t127.5 60v75h40v-73q81 -3 166 -38v-136h-33l-11 107q-70 24 -122 26v-289l37 -12q151 -52 151 -176q0 -66 -51.5 -118.5t-136.5 -59.5v-93zM317 306l-18 6
v-282q62 7 103.5 44.5t41.5 93.5q0 93 -127 138zM127 506q0 -54 31 -83.5t101 -52.5v273q-63 -7 -97.5 -46.5t-34.5 -90.5z" />
    <glyph glyph-name="percent" unicode="%" horiz-adv-x="649" 
d="M550 676v-5l-412 -671h-41v5l409 671h44zM181 686q68 0 101 -42t33 -108q0 -68 -33.5 -110t-100.5 -42q-66 0 -99 42t-33 110q0 65 34 107.5t98 42.5zM181 422q49 0 72.5 31t23.5 83q0 51 -23.5 81.5t-72.5 30.5q-48 0 -71 -30.5t-23 -81.5t23 -82.5t71 -31.5zM466 291
q68 0 101 -42t33 -108q0 -68 -33.5 -110t-100.5 -42q-66 0 -99 42t-33 110q0 65 34 107.5t98 42.5zM466 27q49 0 72.5 31.5t23.5 82.5t-23.5 81.5t-72.5 30.5q-48 0 -71 -30.5t-23 -81.5t23 -82.5t71 -31.5z" />
    <glyph glyph-name="ampersand" unicode="&#x26;" horiz-adv-x="637" 
d="M531 -11q-77 0 -96 74q-63 -74 -163 -74q-102 0 -157 52.5t-55 139.5q0 71 36.5 114.5t94.5 58.5q-47 12 -80.5 49.5t-33.5 105.5q0 87 50.5 132t143.5 45q81 0 156 -42l-18 -37q-65 40 -137 40q-153 0 -153 -138q0 -71 45 -105.5t119 -34.5h148v135l39 10v-145h118v-39
h-118v-226q0 -32 14.5 -54.5t49.5 -22.5q29 0 62 18l9 -38q-33 -18 -74 -18zM271 28q51 0 93 23t67 57v222h-151q-176 0 -176 -149q0 -71 41 -112t126 -41z" />
    <glyph glyph-name="quotesingle" unicode="'" horiz-adv-x="183" 
d="M75 432l-8 244h50l-10 -244h-32z" />
    <glyph glyph-name="parenleft" unicode="(" horiz-adv-x="254" 
d="M223 -212l-32 -10q-67 113 -98.5 216.5t-31.5 245.5q0 151 33.5 253.5t96.5 209.5l34 -10q-60 -111 -91 -211t-31 -242q0 -129 29.5 -232.5t90.5 -219.5z" />
    <glyph glyph-name="parenright" unicode=")" horiz-adv-x="253" 
d="M31 -212q61 116 90.5 219.5t29.5 232.5q0 142 -31 242t-91 211l34 10q63 -107 96.5 -209.5t33.5 -253.5q0 -142 -31.5 -245.5t-98.5 -216.5z" />
    <glyph glyph-name="asterisk" unicode="*" horiz-adv-x="466" 
d="M132 349l-31 28l105 125l-154 46l17 37l151 -53l-2 164h41l-6 -163l146 50l13 -41l-147 -42l97 -128l-35 -24l-93 134z" />
    <glyph glyph-name="plus" unicode="+" 
d="M61 250v40h197v201h40v-201h200v-40h-200v-200h-40v200h-197z" />
    <glyph glyph-name="comma" unicode="," horiz-adv-x="191" 
d="M125 78l-42 -193h-34l25 193h51z" />
    <glyph glyph-name="hyphen" unicode="-" 
d="M124 289h312v-40h-312v40z" />
    <glyph glyph-name="period" unicode="." horiz-adv-x="209" 
d="M104 -7q-18 0 -30 12t-12 30t12 30t30 12q19 0 31 -12t12 -30t-12 -30t-31 -12z" />
    <glyph glyph-name="slash" unicode="/" horiz-adv-x="336" 
d="M290 676v-10l-206 -666h-36v12l203 664h39z" />
    <glyph glyph-name="zero" unicode="0" horiz-adv-x="600" 
d="M111 337q0 -161 41 -235.5t146 -74.5q106 0 148.5 75t42.5 235q0 159 -42.5 235t-148.5 76q-102 0 -144.5 -76t-42.5 -235zM532 337q0 -168 -54 -258t-179 -90q-127 0 -179 89t-52 259q0 169 54 259t175 90q126 0 180.5 -90t54.5 -259z" />
    <glyph glyph-name="one" unicode="1" horiz-adv-x="447" 
d="M63 0v40h173v596l-182 -64l-13 35l195 69h39v-636h153v-40h-365z" />
    <glyph glyph-name="two" unicode="2" horiz-adv-x="530" 
d="M466 0h-414v40l274 287q47 50 66 89t19 89q0 63 -37 103t-118 40q-75 0 -113.5 -43.5t-38.5 -113.5q0 -14 1 -21l-40 -2q-1 8 -1 23q0 89 52 142t140 53q98 0 148 -51.5t50 -130.5q0 -62 -27.5 -109t-79.5 -101q-34 -36 -124.5 -131t-116.5 -123h322v97h38v-137z" />
    <glyph glyph-name="three" unicode="3" horiz-adv-x="540" 
d="M110 517h-38v109q82 60 183 60q96 0 146 -45.5t50 -134.5q0 -69 -35 -108.5t-84 -50.5q60 -13 98.5 -56t38.5 -113q0 -87 -56.5 -138t-164.5 -51q-120 0 -195 72l21 36q69 -69 175 -69q176 0 176 150q0 145 -185 145h-70v41h67q77 0 124.5 35t47.5 107q0 141 -155 141
q-79 0 -144 -40v-90z" />
    <glyph glyph-name="four" unicode="4" horiz-adv-x="549" 
d="M516 200v-39h-115v-161h-39v161h-336v37l274 378q20 28 35.5 53t20.5 36l6 11h39v-476h115zM74 200h288v398z" />
    <glyph glyph-name="five" unicode="5" horiz-adv-x="526" 
d="M62 45v126h38v-104q58 -39 144 -39t133 48t47 141q0 79 -40 123.5t-120 44.5q-85 0 -145 -49h-37l40 340h329v-40h-295l-32 -261q59 49 143 49q96 0 147 -55t51 -152q0 -105 -57.5 -166.5t-163.5 -61.5q-108 0 -182 56z" />
    <glyph glyph-name="six" unicode="6" horiz-adv-x="552" 
d="M317 647q-58 0 -101 -28t-66 -75.5t-33.5 -101t-10.5 -114.5q0 -14 1 -22q15 54 67.5 92.5t124.5 38.5q98 0 146 -60t48 -157q0 -105 -54 -168t-153 -63q-220 0 -220 332q0 74 12.5 135.5t40.5 115t79 84t121 30.5q88 0 157 -38l-18 -39q-69 38 -141 38zM288 28
q85 0 125 53t40 139q0 80 -38 128.5t-118 48.5q-71 0 -118.5 -42.5t-69.5 -101.5q4 -48 14 -85t29.5 -70.5t53.5 -51.5t82 -18z" />
    <glyph glyph-name="seven" unicode="7" horiz-adv-x="467" 
d="M148 0l249 637h-317v-127h-39v166h409l-3 -38q-19 -22 -59 -127l-195 -511h-45z" />
    <glyph glyph-name="eight" unicode="8" horiz-adv-x="588" 
d="M506 504q0 -55 -33 -98.5t-78 -70.5q124 -48 124 -160q0 -90 -58.5 -138t-163.5 -48q-103 0 -162.5 48.5t-59.5 137.5q0 61 36 109t89 76q-105 41 -105 144q0 79 51 130t152 51q104 0 156 -50.5t52 -130.5zM372 303l-133 44q-56 -31 -88.5 -70t-32.5 -102
q0 -70 47 -108.5t133 -38.5q178 0 178 147q0 93 -104 128zM138 505q0 -84 92 -115l127 -42q106 60 106 157q0 141 -165 141q-160 0 -160 -141z" />
    <glyph glyph-name="nine" unicode="9" horiz-adv-x="553" 
d="M236 28q210 0 210 309q0 14 -1 22q-16 -54 -69 -92.5t-122 -38.5q-100 0 -147.5 62t-47.5 166q0 102 54 166t156 64q217 0 217 -337q0 -360 -252 -360q-94 0 -157 38l18 39q69 -38 141 -38zM268 647q-88 0 -128.5 -53t-40.5 -137q0 -189 157 -189q132 0 186 146
q-15 233 -174 233z" />
    <glyph glyph-name="colon" unicode=":" horiz-adv-x="227" 
d="M113 -7q-18 0 -30 12t-12 30t12 30t30 12q19 0 31 -12t12 -30t-12 -30t-31 -12zM113 381q-18 0 -30 12t-12 30q0 19 12 31t30 12q19 0 31 -12t12 -31q0 -18 -12 -30t-31 -12z" />
    <glyph glyph-name="semicolon" unicode=";" horiz-adv-x="222" 
d="M111 381q-18 0 -30 12t-12 30q0 19 12 31t30 12q19 0 31 -12t12 -31q0 -18 -12 -30t-31 -12zM142 78l-42 -193h-34l25 193h51z" />
    <glyph glyph-name="less" unicode="&#x3c;" 
d="M86 252v36l362 172v-42l-321 -148l321 -147v-43z" />
    <glyph glyph-name="equal" unicode="=" 
d="M99 403h362v-40h-362v40zM99 178h362v-40h-362v40z" />
    <glyph glyph-name="greater" unicode="&#x3e;" 
d="M474 288v-36l-362 -172v43l321 147l-321 148v42z" />
    <glyph glyph-name="question" unicode="?" horiz-adv-x="435" 
d="M87 520h-38v108q73 58 166 58q77 0 124 -45.5t47 -115.5q0 -132 -161 -196v-130h-40v159q68 20 113 60.5t45 105.5q0 50 -33.5 86t-95.5 36q-72 0 -127 -39v-87zM202 -7q-18 0 -30 12t-12 30t12 30t30 12q19 0 31 -12t12 -30t-12 -30t-31 -12z" />
    <glyph glyph-name="at" unicode="@" horiz-adv-x="873" 
d="M272 223q-9 -56 -5.5 -99.5t34 -70t88.5 -26.5q90 0 155 80l44 246q-39 75 -124 75t-130 -53.5t-62 -151.5zM546 66q-26 -31 -70 -54t-97 -23q-99 0 -134.5 64.5t-15.5 175.5q42 237 240 237q84 0 128 -65l10 55h38l-61 -344q-15 -85 41 -85q68 0 113.5 75.5t45.5 185.5
q0 142 -86 233t-253 91q-168 0 -256.5 -106t-88.5 -271q0 -174 85.5 -272.5t262.5 -98.5q103 0 197 43l12 -38q-90 -44 -209 -44q-197 0 -292.5 108.5t-95.5 301.5q0 116 42 208.5t131 150t212 57.5q125 0 212.5 -51t127 -131.5t39.5 -181.5q0 -131 -57 -214.5t-144 -83.5
q-73 0 -77 77z" />
    <glyph glyph-name="A" unicode="A" horiz-adv-x="683" 
d="M465 0v40h101l-72 190h-307l-74 -190h103v-40h-212v40h65l233 596h-62v40h203v-40h-60l230 -596h64v-40h-212zM200 270h281l-138 366z" />
    <glyph glyph-name="B" unicode="B" horiz-adv-x="600" 
d="M51 0v40h80v596h-80v40h262q90 0 138.5 -43.5t48.5 -121.5q0 -66 -31.5 -109t-80.5 -48q60 -10 102 -54t42 -118q0 -67 -31.5 -109t-78 -57.5t-109.5 -15.5h-262zM170 40h133q97 0 142 34.5t45 106.5q0 150 -190 150h-130v-291zM170 370h127q160 0 160 141q0 61 -36 93
t-118 32h-133v-266z" />
    <glyph glyph-name="C" unicode="C" horiz-adv-x="587" 
d="M107 340q0 -66 10.5 -119.5t34 -98t65.5 -69t100 -24.5q118 0 198 67l20 -37q-85 -70 -221 -70q-249 0 -249 351q0 160 68 253t201 93q91 0 185 -49v-192h-34l-10 164q-72 37 -141 37q-117 0 -172 -83t-55 -223z" />
    <glyph glyph-name="D" unicode="D" horiz-adv-x="667" 
d="M130 40v596h-79v40h234q94 0 156.5 -22t96.5 -68t47.5 -104.5t13.5 -143.5q0 -84 -13.5 -142t-47 -104.5t-96.5 -69t-157 -22.5h-234v40h79zM169 40h116q156 0 214 69.5t58 230.5q0 79 -12 132t-42.5 91t-83.5 55.5t-134 17.5h-116v-596z" />
    <glyph glyph-name="E" unicode="E" horiz-adv-x="566" 
d="M464 154h43v-154h-456v40h79v596h-79v40h452v-143h-39v103h-295v-265h260v-40h-260v-291h295v114z" />
    <glyph glyph-name="F" unicode="F" horiz-adv-x="543" 
d="M51 0v40h79v596h-79v40h452v-150h-39v110h-295v-295h270v-40h-270v-261h106v-40h-224z" />
    <glyph glyph-name="G" unicode="G" horiz-adv-x="646" 
d="M349 686q113 0 197 -35v-167h-34l-10 138q-69 24 -154 24q-124 0 -182.5 -81.5t-58.5 -213.5q0 -322 245 -322q101 0 180 36v209h-191v40h235v-274q-98 -51 -222 -51q-147 0 -218.5 94.5t-71.5 265.5q0 150 72.5 243.5t212.5 93.5z" />
    <glyph glyph-name="H" unicode="H" horiz-adv-x="743" 
d="M485 636v40h201v-40h-67v-596h67v-40h-201v40h95v299h-417v-299h95v-40h-201v40h67v596h-67v40h201v-40h-95v-257h417v257h-95z" />
    <glyph glyph-name="I" unicode="I" horiz-adv-x="308" 
d="M47 0v40h89v596h-89v40h214v-40h-86v-596h86v-40h-214z" />
    <glyph glyph-name="J" unicode="J" horiz-adv-x="284" 
d="M28 636v40h204v-40h-66v-610q0 -170 -141 -252l-25 32q67 41 96.5 91t29.5 118v621h-98z" />
    <glyph glyph-name="K" unicode="K" horiz-adv-x="627" 
d="M207 354l255 282h-74v40h203v-40h-76l-257 -281l279 -315h67v-40h-203v40h80zM170 636v-596h88v-40h-208v40h81v596h-81v40h208v-40h-88z" />
    <glyph glyph-name="L" unicode="L" horiz-adv-x="515" 
d="M444 180h37v-180h-429v40h78v596h-78v40h214v-40h-97v-596h275v140z" />
    <glyph glyph-name="M" unicode="M" horiz-adv-x="922" 
d="M459 56l220 620h142v-40h-81l87 -596h73v-40h-219v40h104l-81 591l-226 -631h-40l-219 635l-88 -595h111v-40h-219v40h67l92 596h-81v40h146z" />
    <glyph glyph-name="N" unicode="N" horiz-adv-x="736" 
d="M463 636v40h230v-40h-76v-636h-57l-392 632v-592h115v-40h-230v40h76v596h-76v40h138l387 -633v593h-115z" />
    <glyph glyph-name="O" unicode="O" horiz-adv-x="656" 
d="M108 337q0 -149 50 -228.5t171 -79.5q120 0 170 79.5t50 228.5q0 150 -50.5 229.5t-171.5 79.5q-119 0 -169 -80t-50 -229zM591 337q0 -348 -264 -348q-262 0 -262 348q0 349 264 349q262 0 262 -349z" />
    <glyph glyph-name="P" unicode="P" horiz-adv-x="568" 
d="M169 636v-596h126v-40h-244v40h79v596h-79v40h269q106 0 156 -52t50 -143t-50 -143.5t-156 -52.5h-85v40h85q89 0 126.5 40.5t37.5 114.5q0 156 -164 156h-151z" />
    <glyph glyph-name="Q" unicode="Q" horiz-adv-x="661" 
d="M474 80q16 -14 26 -32q-64 -59 -173 -59q-262 0 -262 348q0 349 264 349q262 0 262 -349q0 -139 -41 -221q37 -48 70 -116h-47q-139 260 -373 260q-43 0 -88 -9q13 -108 64 -165t153 -57q94 0 145 51zM108 337q0 -30 1 -44q41 7 91 7q190 0 321 -149q28 70 28 186
q0 150 -50.5 229.5t-171.5 79.5q-119 0 -169 -80t-50 -229z" />
    <glyph glyph-name="R" unicode="R" horiz-adv-x="631" 
d="M131 40v596h-80v40h277q206 0 206 -177q0 -78 -45.5 -124t-131.5 -54q55 -36 103 -112.5t75 -168.5h87v-40h-204v40h72q-24 87 -72.5 161.5t-114.5 117.5h-133v-279h96v-40h-214v40h79zM491 498q0 70 -36.5 104t-126.5 34h-158v-277h149q91 0 131.5 35t40.5 104z" />
    <glyph glyph-name="S" unicode="S" horiz-adv-x="524" 
d="M442 650v-158h-33l-11 131q-61 22 -130 22q-71 0 -111 -40.5t-40 -98.5q0 -52 27.5 -81t88.5 -51l83 -31q70 -26 108.5 -67t38.5 -108q0 -72 -56 -125.5t-150 -53.5q-108 0 -180 41l-11 174h33l19 -147q63 -28 139 -28q70 0 116.5 38t46.5 101q0 93 -121 138l-89 33
q-66 25 -100.5 63t-34.5 104q0 72 52.5 126t140.5 54q89 0 174 -36z" />
    <glyph glyph-name="T" unicode="T" horiz-adv-x="551" 
d="M32 676h488v-147h-37v107h-191v-596h101v-40h-243v40h103v596h-184v-107h-37v147z" />
    <glyph glyph-name="U" unicode="U" horiz-adv-x="694" 
d="M347 -11q-235 0 -235 256v391h-73v40h220v-40h-108v-396q0 -116 52.5 -163.5t144.5 -47.5q91 0 143 47.5t52 163.5v396h-107v40h219v-40h-73v-391q0 -256 -235 -256z" />
    <glyph glyph-name="V" unicode="V" horiz-adv-x="656" 
d="M443 636v40h213v-40h-72l-229 -636h-54l-230 636h-66v40h211v-40h-100l213 -599l210 599h-96z" />
    <glyph glyph-name="W" unicode="W" horiz-adv-x="979" 
d="M727 636v40h247v-40h-73l-184 -636h-51l-174 484l-176 -484h-52l-187 636h-73v40h227v-40h-111l172 -595l179 495l-51 140h45l226 -634l171 594h-135z" />
    <glyph glyph-name="X" unicode="X" horiz-adv-x="641" 
d="M33 636v40h215v-40h-81l153 -254l151 254h-81v40h214v-40h-85l-178 -286l196 -310h83v-40h-215v40h82l-169 276l-164 -276h85v-40h-214v40h81l190 310l-177 286h-86z" />
    <glyph glyph-name="Y" unicode="Y" horiz-adv-x="596" 
d="M6 636v40h203v-40h-97l187 -321l191 321h-99v40h204v-40h-59l-219 -359v-237h100v-40h-244v40h105v237l-212 359h-60z" />
    <glyph glyph-name="Z" unicode="Z" horiz-adv-x="551" 
d="M492 676v-40l-398 -596h352v147h40v-187h-438v40l396 596h-334v-126h-39v166h421z" />
    <glyph glyph-name="bracketleft" unicode="[" horiz-adv-x="276" 
d="M86 696h160v-40h-121v-832h121v-40h-160v912z" />
    <glyph glyph-name="backslash" unicode="\" horiz-adv-x="336" 
d="M46 666v10h39l203 -664v-12h-36z" />
    <glyph glyph-name="bracketright" unicode="]" horiz-adv-x="276" 
d="M30 696h160v-912h-160v40h121v832h-121v40z" />
    <glyph glyph-name="asciicircum" unicode="^" horiz-adv-x="650" 
d="M105 478l220 220l220 -220l-28 -28l-192 192l-192 -192z" />
    <glyph glyph-name="underscore" unicode="_" horiz-adv-x="502" 
d="M51 -31h400v-40h-400v40z" />
    <glyph glyph-name="grave" unicode="`" horiz-adv-x="600" 
d="M236 696h49l79 -147h-41z" />
    <glyph glyph-name="a" unicode="a" horiz-adv-x="483" 
d="M117 397v-91h-30q-11 37 -11 71q0 42 40.5 65.5t118.5 23.5q26 0 46.5 -2t35.5 -6.5t27 -10.5t19.5 -14t12.5 -17.5t7.5 -21t4 -25t1.5 -28v-30.5v-19v-219q0 -41 29 -41q17 0 43 6v-39q-23 -5 -49 -5q-27 0 -44 17t-17 49q-71 -71 -161 -71q-142 0 -142 126
q0 61 50.5 92t147.5 45l103 15v130q-36 31 -114 31q-84 0 -118 -31zM91 115q0 -88 99 -88q51 0 93 21t66 48v135l-99 -15q-83 -12 -121 -33.5t-38 -67.5z" />
    <glyph glyph-name="b" unicode="b" horiz-adv-x="514" 
d="M123 696v-291q47 61 139 61q197 0 197 -237q0 -112 -48.5 -176t-148.5 -64q-88 0 -138 64l-10 -53h-30v656h-72v40h111zM416 229q0 96 -34 147.5t-122 51.5q-94 0 -137 -79v-242q43 -80 136 -80q86 0 121.5 53.5t35.5 148.5z" />
    <glyph glyph-name="c" unicode="c" horiz-adv-x="467" 
d="M253 27q87 0 152 53l16 -37q-74 -54 -171 -54t-146 65.5t-49 174.5q0 106 49.5 171.5t145.5 65.5q91 0 161 -36l-14 -143h-31v121q-49 20 -113 20q-81 0 -118 -54t-37 -145q0 -202 155 -202z" />
    <glyph glyph-name="d" unicode="d" horiz-adv-x="530" 
d="M392 405v251h-103v40h143v-658h71v-38h-51q-33 0 -46.5 12t-13.5 45q-59 -68 -140 -68q-196 0 -196 240q0 111 48 174t149 63q92 0 139 -61zM99 229q0 -202 153 -202q85 0 140 81v241q-43 79 -137 79q-156 0 -156 -199z" />
    <glyph glyph-name="e" unicode="e" horiz-adv-x="474" 
d="M249 27q82 0 155 58l15 -35q-72 -61 -171 -61q-193 0 -193 240q0 107 47 172t143 65q83 0 127.5 -54t44.5 -132q0 -31 -5 -63h-315q1 -92 36.5 -141t115.5 -49zM98 254h276q2 12 2 24q0 68 -33.5 109t-98.5 41q-75 0 -108 -46t-38 -128z" />
    <glyph glyph-name="f" unicode="f" horiz-adv-x="336" 
d="M289 700v-41q-28 7 -47 7q-48 0 -66.5 -29.5t-18.5 -88.5v-92h148v-37h-148v-381h117v-38h-229v33l73 10v376h-74v37h74v92q0 158 125 158q24 0 46 -6z" />
    <glyph glyph-name="g" unicode="g" horiz-adv-x="479" 
d="M473 471l-109 -52q46 -44 46 -121q0 -76 -47 -120t-133 -44q-51 0 -75 11l-23 -102h147q152 0 152 -115q0 -70 -56.5 -112t-149.5 -42q-188 0 -188 129q0 39 24.5 70t55.5 42q-27 11 -27 44q0 46 43 94q-81 41 -81 145q0 79 46 123.5t133 44.5q73 0 113 -27q56 65 117 68
zM231 172q134 0 134 126q0 59 -32 94.5t-102 35.5q-136 0 -136 -130q0 -57 33 -91.5t103 -34.5zM145 5q-64 -39 -64 -96q0 -96 144 -96q70 0 116 29.5t46 85.5q0 77 -108 77h-134z" />
    <glyph glyph-name="h" unicode="h" horiz-adv-x="562" 
d="M27 0v38h75v618h-84v40h123v-287q26 24 74.5 40.5t93.5 16.5q89 0 121.5 -40t32.5 -129v-259h74v-38h-203v38h90v259q0 69 -20 100t-92 31q-50 0 -96.5 -18.5t-74.5 -42.5v-329h90v-38h-204z" />
    <glyph glyph-name="i" unicode="i" horiz-adv-x="301" 
d="M37 0v38h103v380h-103v38h142v-418h102v-38h-244zM154 591q-39 0 -39 39q0 40 39 40q16 0 27.5 -10t11.5 -30q0 -19 -11.5 -29t-27.5 -10z" />
    <glyph glyph-name="j" unicode="j" horiz-adv-x="239" 
d="M43 -226l-13 38q51 17 68.5 47t17.5 103v456h-94v38h133v-494q0 -81 -23 -126t-89 -62zM129 591q-39 0 -39 39q0 40 39 40q16 0 27.5 -10t11.5 -30q0 -19 -11.5 -29t-27.5 -10z" />
    <glyph glyph-name="k" unicode="k" horiz-adv-x="543" 
d="M386 0v28l-154 218l-91 -81v-127h111v-38h-221v38h71v618h-80v40h119v-486l230 208h-81v38h199v-38h-67l-163 -149l168 -231h94v-38h-135z" />
    <glyph glyph-name="l" unicode="l" horiz-adv-x="241" 
d="M85 99v557h-94v40h133v-596q0 -39 11 -56t40 -17q24 0 46 10l11 -36q-26 -12 -59 -12q-48 0 -68 26.5t-20 83.5z" />
    <glyph glyph-name="m" unicode="m" horiz-adv-x="822" 
d="M44 0v38h73v380h-72v38h111v-44q57 54 138 54q93 0 133 -65q62 65 157 65q80 0 110.5 -41t30.5 -128v-259h72v-38h-185v38h73v259q0 70 -19.5 100.5t-78.5 30.5q-91 0 -142 -61v-329h72v-38h-185v38h73v329q-32 61 -113 61t-136 -61v-329h73v-38h-185z" />
    <glyph glyph-name="n" unicode="n" horiz-adv-x="569" 
d="M44 0v38h73v380h-72v38h111v-47q25 24 73 40.5t92 16.5q87 0 119 -40t32 -129v-259h72v-38h-199v38h88v259q0 34 -3 54t-13.5 40t-33.5 28.5t-60 8.5q-49 0 -94.5 -18.5t-72.5 -42.5v-329h88v-38h-200z" />
    <glyph glyph-name="o" unicode="o" horiz-adv-x="504" 
d="M252 466q197 0 197 -237q0 -240 -199 -240q-195 0 -195 240q0 110 47.5 173.5t149.5 63.5zM252 27q84 0 118.5 52t34.5 150q0 97 -34.5 148t-118.5 51q-83 0 -118.5 -51.5t-35.5 -147.5q0 -97 35.5 -149.5t118.5 -52.5z" />
    <glyph glyph-name="p" unicode="p" horiz-adv-x="530" 
d="M252 -216h-224v33l72 10v591h-72v38h111v-51q47 61 139 61q197 0 197 -239q0 -111 -48 -174.5t-149 -63.5q-91 0 -139 62v-228h113v-39zM432 227q0 95 -35 148t-121 53q-94 0 -137 -79v-242q43 -80 137 -80q86 0 121 52.5t35 147.5z" />
    <glyph glyph-name="q" unicode="q" horiz-adv-x="513" 
d="M500 -216h-221v39h112v228q-48 -62 -139 -62q-197 0 -197 238q0 239 197 239q86 0 137 -57l12 87h29v-669l70 -10v-33zM391 107v242q-43 79 -137 79q-86 0 -121 -53t-35 -148t35 -147.5t121 -52.5q94 0 137 80z" />
    <glyph glyph-name="r" unicode="r" horiz-adv-x="383" 
d="M44 418v38h111v-97q18 46 54.5 76.5t78.5 30.5q44 0 76 -8l-7 -54l-69 21q-37 -3 -75 -35.5t-58 -80.5v-271h117v-38h-228v33l72 10v375h-72z" />
    <glyph glyph-name="s" unicode="s" horiz-adv-x="430" 
d="M361 440v-120h-32l-10 93q-43 15 -98 15t-82.5 -26t-27.5 -62q0 -56 69 -78l86 -28q111 -35 111 -122q0 -54 -45.5 -88.5t-118.5 -34.5q-68 0 -149 36l-13 138h32l23 -114q50 -22 107 -22q54 0 88 22.5t34 62.5q0 34 -20.5 52.5t-62.5 31.5l-89 29q-94 31 -94 114
q0 53 39.5 90t112.5 37q69 0 140 -26z" />
    <glyph glyph-name="t" unicode="t" horiz-adv-x="330" 
d="M147 418v-304q0 -87 71 -87q42 0 73 16l14 -36q-36 -18 -91 -18q-53 0 -79.5 33t-26.5 91v305h-90v28l90 10v118l39 10v-128h141v-38h-141z" />
    <glyph glyph-name="u" unicode="u" horiz-adv-x="555" 
d="M453 456v-418h72v-38h-111v66q-25 -30 -72 -53.5t-96 -23.5q-82 0 -112 40t-30 130v259h-82v38h121v-297q0 -68 19 -99.5t84 -31.5q53 0 99.5 26.5t68.5 59.5v304h-103v38h142z" />
    <glyph glyph-name="v" unicode="v" horiz-adv-x="532" 
d="M319 418v38h200v-38h-64l-163 -418h-53l-164 418h-62v38h199v-38h-94l148 -385l148 385h-95z" />
    <glyph glyph-name="w" unicode="w" horiz-adv-x="791" 
d="M570 418v38h207v-38h-64l-135 -418h-49l-131 313l-136 -313h-47l-140 418h-61v38h197v-38h-92l123 -375l133 313l-43 100h45l176 -413l117 375h-100z" />
    <glyph glyph-name="x" unicode="x" horiz-adv-x="551" 
d="M274 207l-122 -169h102v-38h-219v38h69l147 196l-119 184h-97v38h135v-28l106 -164l112 154h-103v38h220v-38h-70l-136 -184l131 -196h95v-38h-133v28z" />
    <glyph glyph-name="y" unicode="y" horiz-adv-x="577" 
d="M86 -217v38h105l90 196l-164 401h-105v38h147v-33l144 -362l156 357h-134v38h239v-38h-60l-266 -592q-24 -52 -80 -52q-38 0 -72 9z" />
    <glyph glyph-name="z" unicode="z" horiz-adv-x="440" 
d="M378 456v-38l-283 -380h248l10 110h31v-148h-336v38l283 380h-229l-10 -89h-31v127h317z" />
    <glyph glyph-name="braceleft" unicode="{" horiz-adv-x="274" 
d="M155 563v-227q0 -28 -6 -48t-18 -29t-19.5 -12.5t-19.5 -6.5q22 -4 42.5 -28t20.5 -70v-224q0 -55 18.5 -73.5t63.5 -20.5v-40q-62 0 -91.5 30t-29.5 103v223q0 45 -20.5 62.5t-64.5 17.5v40q50 0 67.5 16t17.5 61v226q0 73 29.5 103t91.5 30v-40q-44 -2 -63 -20.5
t-19 -72.5z" />
    <glyph glyph-name="bar" unicode="|" horiz-adv-x="211" 
d="M125 -216h-39v912h39v-912z" />
    <glyph glyph-name="braceright" unicode="}" horiz-adv-x="274" 
d="M119 336v227q0 54 -19 72.5t-63 20.5v40q62 0 91.5 -30t29.5 -103v-226q0 -45 17.5 -61t67.5 -16v-40q-44 0 -64.5 -17.5t-20.5 -62.5v-223q0 -73 -29.5 -103t-91.5 -30v40q45 2 63.5 20.5t18.5 73.5v224q0 46 20.5 70t42.5 28q-12 3 -19.5 6.5t-19.5 12.5t-18 29t-6 48z
" />
    <glyph glyph-name="asciitilde" unicode="~" horiz-adv-x="468" 
d="M405 286l-16 -37q-40 40 -73 40q-25 0 -78 -40t-88 -40q-23 0 -48.5 13t-35.5 27l11 40q40 -40 73 -40q29 0 80 40t85 40q47 0 90 -43z" />
    <glyph glyph-name="uni00A0" unicode="&#xa0;" horiz-adv-x="200" 
 />
    <glyph glyph-name="exclamdown" unicode="&#xa1;" horiz-adv-x="218" 
d="M94 260h31l8 -477h-49zM108 466q18 0 30 -12t12 -30t-12 -30t-30 -12q-19 0 -31 12t-12 30t12 30t31 12z" />
    <glyph glyph-name="cent" unicode="&#xa2;" 
d="M379 531l-18 -72q69 -16 114 -51l-17 -37q-47 38 -106 51l-95 -391q19 -4 45 -4q88 0 156 57l17 -37q-29 -23 -76.5 -40.5t-99.5 -17.5q-24 0 -51 5l-14 -61l-36 9l15 63q-117 48 -117 224q0 107 51.5 172t151.5 65q4 0 12.5 -0.5t12.5 -0.5l18 75zM139 229
q0 -142 83 -185l93 384q-94 0 -135 -50.5t-41 -148.5z" />
    <glyph glyph-name="sterling" unicode="&#xa3;" 
d="M58 286h71v161q0 107 48.5 173t150.5 66q97 0 171 -36l-12 -128h-31v104q-60 20 -128 20q-158 0 -158 -203v-157h215v-40h-215v-208h322v-38h-434v32l71 13v201h-71v40z" />
    <glyph glyph-name="currency" unicode="&#xa4;" 
d="M396 359q17 -33 17 -81q0 -52 -19 -87l79 -79l-28 -29l-79 75q-32 -29 -89 -29q-56 0 -89 28l-72 -72l-29 29l75 75q-20 34 -20 89q0 48 19 83l-76 77l28 28l72 -73q35 32 93 32q60 0 94 -32l73 72l28 -28zM278 167q94 0 94 111q0 109 -94 109q-95 0 -95 -109
q0 -111 95 -111z" />
    <glyph glyph-name="yen" unicode="&#xa5;" 
d="M88 286h167l-56 97h-111v40h88l-124 213h-58v40h198v-40h-95l181 -318l185 318h-97v40h199v-40h-57l-128 -213h87v-40h-111l-58 -97h169v-40h-171v-206h97v-40h-237v40h101v206h-169v40z" />
    <glyph glyph-name="brokenbar" unicode="&#xa6;" horiz-adv-x="221" 
d="M130 306h-39v390h39v-390zM91 170h39v-386h-39v386z" />
    <glyph glyph-name="section" unicode="&#xa7;" horiz-adv-x="549" 
d="M484 257q0 -76 -88 -129q83 -44 83 -110q0 -64 -56.5 -98.5t-158.5 -34.5q-106 0 -189 54v117h34l9 -95q24 -16 65 -27t81 -11q77 0 124 23t47 73q0 33 -29.5 54.5t-89.5 46.5l-119 49q-59 25 -92.5 57t-33.5 81q0 37 23 71.5t60 55.5q-78 44 -78 115q0 61 50 99t149 38
q92 0 188 -42v-105h-33l-11 80q-73 29 -144 29q-76 0 -115.5 -27t-39.5 -72q0 -39 35 -63.5t103 -50.5l77 -30q76 -30 112.5 -61t36.5 -87zM192 415q-36 -16 -56.5 -45.5t-20.5 -61.5q0 -65 103 -106l139 -55q34 17 58.5 46t24.5 64q0 22 -9 39t-29 30t-37 21t-48 20z" />
    <glyph glyph-name="dieresis" unicode="&#xa8;" horiz-adv-x="600" 
d="M215 581q-39 0 -39 39q0 40 39 40q16 0 27.5 -10t11.5 -30q0 -19 -11.5 -29t-27.5 -10zM385 581q-39 0 -39 39q0 40 39 40q16 0 27.5 -10t11.5 -30q0 -19 -11.5 -29t-27.5 -10z" />
    <glyph glyph-name="copyright" unicode="&#xa9;" horiz-adv-x="798" 
d="M61 339q0 157 96 252t243 95q146 0 241.5 -95t95.5 -252q0 -158 -95.5 -254t-241.5 -96q-147 0 -243 96t-96 254zM101 339q0 -142 84 -227t215 -85t214 85t83 227t-83 225.5t-214 83.5q-132 0 -215.5 -83.5t-83.5 -225.5zM255 336q0 -174 134 -174q76 0 138 47l10 -39
q-71 -46 -150 -46q-172 0 -172 212q0 100 46.5 156t139.5 56q62 0 126 -31v-109h-38v82q-37 20 -88 20q-146 0 -146 -174z" />
    <glyph glyph-name="ordfeminine" unicode="&#xaa;" horiz-adv-x="379" 
d="M97 426q0 -49 56 -49q27 0 52.5 11.5t39.5 26.5v66h-53q-95 0 -95 -55zM114 591v-47h-31l-6 68q37 27 100 27q107 0 107 -86v-149q0 -22 17 -22q9 0 24 3v-35q-16 -3 -33 -3q-44 0 -45 37q-46 -41 -98 -41q-93 0 -93 81q0 87 134 87h55v40q0 54 -68 54q-40 0 -63 -14z
" />
    <glyph glyph-name="guillemotleft" unicode="&#xab;" horiz-adv-x="452" 
d="M48 270l160 200l28 -28l-132 -172l132 -172l-28 -28zM211 270l160 200l28 -28l-132 -172l132 -172l-28 -28z" />
    <glyph glyph-name="logicalnot" unicode="&#xac;" horiz-adv-x="600" 
d="M80 313v40h437v-229h-39v189h-398z" />
    <glyph glyph-name="uni00AD" unicode="&#xad;" 
d="M124 289h312v-40h-312v40z" />
    <glyph glyph-name="registered" unicode="&#xae;" horiz-adv-x="798" 
d="M61 339q0 157 96 252t243 95q146 0 241.5 -95t95.5 -252q0 -158 -95.5 -254t-241.5 -96q-147 0 -243 96t-96 254zM101 339q0 -142 84 -227t215 -85t214 85t83 227t-83 225.5t-214 83.5q-132 0 -215.5 -83.5t-83.5 -225.5zM274 163v346h-52v35h192q145 0 145 -117
q0 -48 -29.5 -77.5t-83.5 -36.5l98 -150h49v-35h-148v35h56l-96 147h-92v-147h61v-35h-152v35h52zM518 426q0 83 -104 83h-101v-164h96q109 0 109 81z" />
    <glyph glyph-name="macron" unicode="&#xaf;" horiz-adv-x="600" 
d="M169 630h262v-40h-262v40z" />
    <glyph glyph-name="degree" unicode="&#xb0;" horiz-adv-x="373" 
d="M51 547q0 62 37.5 100.5t97.5 38.5t98 -38.5t38 -100.5q0 -61 -38 -100t-98 -39q-59 0 -97 39t-38 100zM85 547q0 -49 27.5 -77.5t73.5 -28.5t73.5 28.5t27.5 77.5t-27.5 77.5t-73.5 28.5t-73.5 -28.5t-27.5 -77.5z" />
    <glyph glyph-name="plusminus" unicode="&#xb1;" 
d="M61 380v40h197v201h40v-201h200v-40h-200v-200h-40v200h-197zM61 38v40h437v-40h-437z" />
    <glyph glyph-name="twosuperior" unicode="&#xb2;" horiz-adv-x="308" 
d="M271 450h-236v32q6 6 69.5 63.5t68.5 62.5q27 26 38 44.5t11 44.5q0 27 -18 44t-54 17q-35 0 -53.5 -17.5t-18.5 -46.5q0 -8 2 -16l-40 -3q-1 6 -1 19q0 44 29.5 71.5t81.5 27.5q56 0 84.5 -27t28.5 -69q0 -58 -66 -115q-80 -69 -107 -96h147v43h34v-79z" />
    <glyph glyph-name="threesuperior" unicode="&#xb3;" horiz-adv-x="306" 
d="M75 701h-32l-2 61q45 31 104 31q57 0 85 -25.5t28 -66.5q0 -33 -18.5 -53t-45.5 -26q74 -15 74 -82q0 -44 -32.5 -70t-93.5 -26q-69 0 -111 37l19 31q38 -32 92 -32q85 0 85 61q0 60 -91 60h-39v36h37q38 0 60.5 15t22.5 45q0 60 -73 60q-39 0 -69 -16v-40z" />
    <glyph glyph-name="acute" unicode="&#xb4;" horiz-adv-x="600" 
d="M315 696h49l-87 -147h-41z" />
    <glyph glyph-name="mu" unicode="&#xb5;" horiz-adv-x="589" 
d="M164 -216h-39v634h-82v38h121v-297q0 -65 24 -98t91 -33q52 0 93 25.5t64 60.5v304h-103v38h142v-418h72v-38h-111v66q-26 -32 -67.5 -54.5t-89.5 -22.5q-79 0 -115 37v-242z" />
    <glyph glyph-name="paragraph" unicode="&#xb6;" horiz-adv-x="482" 
d="M191 456h95v-530h-39v249h-56q-76 0 -114 38.5t-38 103.5q0 64 38 101.5t114 37.5zM281 -226l-13 35q51 17 68.5 48t17.5 105v494h39v-494q0 -81 -23 -126t-89 -62z" />
    <glyph glyph-name="periodcentered" unicode="&#xb7;" horiz-adv-x="227" 
d="M113 227q-18 0 -30 12t-12 30t12 30t30 12q19 0 31 -12t12 -30t-12 -30t-31 -12z" />
    <glyph glyph-name="cedilla" unicode="&#xb8;" horiz-adv-x="600" 
d="M287 0h40l-23 -61q10 4 25 4q26 0 44.5 -19t18.5 -48q0 -31 -23 -52.5t-68 -21.5q-40 0 -94 23l9 39q46 -26 85 -26q50 0 50 38q0 16 -12.5 26t-30.5 10q-19 0 -31 -4q-7 3 -19 8z" />
    <glyph glyph-name="onesuperior" unicode="&#xb9;" horiz-adv-x="265" 
d="M40 450v36h93v262l-95 -32l-10 33l108 39h36v-302h80v-36h-212z" />
    <glyph glyph-name="ordmasculine" unicode="&#xba;" horiz-adv-x="374" 
d="M187 639q67 0 99.5 -41t32.5 -106q0 -67 -33 -108t-100 -41q-66 0 -99 41t-33 108q0 65 33.5 106t99.5 41zM187 379q91 0 91 113q0 111 -91 111q-92 0 -92 -111q0 -113 92 -113z" />
    <glyph glyph-name="guillemotright" unicode="&#xbb;" horiz-adv-x="452" 
d="M244 470l160 -200l-160 -200l-28 28l132 172l-132 172zM81 470l160 -200l-160 -200l-28 28l132 172l-132 172z" />
    <glyph glyph-name="onequarter" unicode="&#xbc;" horiz-adv-x="657" 
d="M583 676v-5l-412 -671h-41v5l409 671h44zM604 109v-34h-59v-75h-39v75h-179v31l141 180q10 13 18.5 26t11.5 20l4 6h43v-229h59zM372 109h134v171zM61 338v36h93v262l-95 -32l-10 33l108 39h36v-302h80v-36h-212z" />
    <glyph glyph-name="onehalf" unicode="&#xbd;" horiz-adv-x="684" 
d="M61 338v36h93v262l-95 -32l-10 33l108 39h36v-302h80v-36h-212zM629 0h-236v32q5 6 68.5 63t69.5 63q27 26 38 44.5t11 44.5q0 27 -18 44t-54 17q-35 0 -53.5 -17.5t-18.5 -46.5q0 -8 2 -16l-40 -3q-1 6 -1 19q0 44 29.5 71.5t81.5 27.5q56 0 84.5 -27t28.5 -69
q0 -58 -66 -115q-80 -69 -107 -96h147v43h34v-79zM583 676v-5l-412 -671h-41v5l409 671h44z" />
    <glyph glyph-name="threequarters" unicode="&#xbe;" horiz-adv-x="634" 
d="M561 676v-5l-412 -671h-41v5l409 671h44zM95 589h-32l-2 61q45 31 104 31q57 0 85 -25.5t28 -66.5q0 -33 -18.5 -53t-45.5 -26q74 -15 74 -82q0 -44 -32.5 -70t-93.5 -26q-69 0 -111 37l19 31q38 -32 92 -32q85 0 85 61q0 60 -91 60h-39v36h37q38 0 60.5 15t22.5 45
q0 60 -73 60q-39 0 -69 -16v-40zM582 109v-34h-59v-75h-39v75h-179v31l141 180q10 13 18.5 26t11.5 20l4 6h43v-229h59zM350 109h134v171z" />
    <glyph glyph-name="questiondown" unicode="&#xbf;" horiz-adv-x="427" 
d="M344 -61h38v-108q-72 -58 -166 -58q-77 0 -124 45.5t-47 115.5q0 132 161 196v130h40v-159q-68 -20 -113 -60.5t-45 -105.5q0 -50 33.5 -86t95.5 -36q70 0 127 39v87zM228 466q18 0 30 -12t12 -30t-12 -30t-30 -12q-19 0 -31 12t-12 30t12 30t31 12z" />
    <glyph glyph-name="Agrave" unicode="&#xc0;" horiz-adv-x="683" 
d="M465 0v40h101l-72 190h-307l-74 -190h103v-40h-212v40h65l233 596h-62v40h203v-40h-60l230 -596h64v-40h-212zM200 270h281l-138 366zM246 899h49l79 -147h-41z" />
    <glyph glyph-name="Aacute" unicode="&#xc1;" horiz-adv-x="683" 
d="M465 0v40h101l-72 190h-307l-74 -190h103v-40h-212v40h65l233 596h-62v40h203v-40h-60l230 -596h64v-40h-212zM200 270h281l-138 366zM385 899h49l-87 -147h-41z" />
    <glyph glyph-name="Acircumflex" unicode="&#xc2;" horiz-adv-x="683" 
d="M465 0v40h101l-72 190h-307l-74 -190h103v-40h-212v40h65l233 596h-62v40h203v-40h-60l230 -596h64v-40h-212zM200 270h281l-138 366zM316 899h49l99 -147h-41l-83 113l-82 -113h-41z" />
    <glyph glyph-name="Atilde" unicode="&#xc3;" horiz-adv-x="683" 
d="M465 0v40h101l-72 190h-307l-74 -190h103v-40h-212v40h65l233 596h-62v40h203v-40h-60l230 -596h64v-40h-212zM200 270h281l-138 366zM470 820l-10 -38q-23 25 -54 25q-20 0 -61 -16.5t-70 -16.5q-19 0 -37.5 8.5t-26.5 18.5l10 36q21 -23 54 -23q24 0 63.5 16.5
t67.5 16.5q37 0 64 -27z" />
    <glyph glyph-name="Adieresis" unicode="&#xc4;" horiz-adv-x="683" 
d="M465 0v40h101l-72 190h-307l-74 -190h103v-40h-212v40h65l233 596h-62v40h203v-40h-60l230 -596h64v-40h-212zM200 270h281l-138 366zM255 784q-39 0 -39 39q0 40 39 40q16 0 27.5 -10t11.5 -30q0 -19 -11.5 -29t-27.5 -10zM425 784q-39 0 -39 39q0 40 39 40
q16 0 27.5 -10t11.5 -30q0 -19 -11.5 -29t-27.5 -10z" />
    <glyph glyph-name="Aring" unicode="&#xc5;" horiz-adv-x="683" 
d="M465 0v40h101l-72 190h-307l-74 -190h103v-40h-212v40h65l233 596h-62v40h203v-40h-60l230 -596h64v-40h-212zM200 270h281l-138 366zM242 808q0 40 27 64.5t71 24.5t71.5 -24.5t27.5 -64.5t-27.5 -65t-71.5 -25t-71 25t-27 65zM279 808q0 -27 16.5 -42.5t44.5 -15.5
q29 0 45.5 15.5t16.5 42.5t-16.5 42.5t-45.5 15.5q-28 0 -44.5 -15.5t-16.5 -42.5z" />
    <glyph glyph-name="AE" unicode="&#xc6;" horiz-adv-x="998" 
d="M287 270h275v366zM452 676h483v-143h-39v103h-295v-265h260v-40h-260v-291h299v114h39v-154h-478v40h101v190h-306l-144 -190h100v-40h-212v40h65l449 596h-62v40z" />
    <glyph glyph-name="Ccedilla" unicode="&#xc7;" horiz-adv-x="587" 
d="M107 340q0 -66 10.5 -119.5t34 -98t65.5 -69t100 -24.5q118 0 198 67l20 -37q-71 -59 -182 -68l-19 -52q10 4 25 4q26 0 44.5 -19t18.5 -48q0 -31 -23 -52.5t-68 -21.5q-40 0 -94 23l9 39q46 -26 85 -26q50 0 50 38q0 16 -12.5 26t-30.5 10q-19 0 -31 -4q-7 3 -19 8
l25 73q-248 1 -248 351q0 160 68 253t201 93q91 0 185 -49v-192h-34l-10 164q-72 37 -141 37q-117 0 -172 -83t-55 -223z" />
    <glyph glyph-name="Egrave" unicode="&#xc8;" horiz-adv-x="566" 
d="M464 154h43v-154h-456v40h79v596h-79v40h452v-143h-39v103h-295v-265h260v-40h-260v-291h295v114zM195 899h49l79 -147h-41z" />
    <glyph glyph-name="Eacute" unicode="&#xc9;" horiz-adv-x="566" 
d="M464 154h43v-154h-456v40h79v596h-79v40h452v-143h-39v103h-295v-265h260v-40h-260v-291h295v114zM334 899h49l-87 -147h-41z" />
    <glyph glyph-name="Ecircumflex" unicode="&#xca;" horiz-adv-x="566" 
d="M464 154h43v-154h-456v40h79v596h-79v40h452v-143h-39v103h-295v-265h260v-40h-260v-291h295v114zM268 899h49l99 -147h-41l-83 113l-82 -113h-41z" />
    <glyph glyph-name="Edieresis" unicode="&#xcb;" horiz-adv-x="566" 
d="M464 154h43v-154h-456v40h79v596h-79v40h452v-143h-39v103h-295v-265h260v-40h-260v-291h295v114zM211 784q-39 0 -39 39q0 40 39 40q16 0 27.5 -10t11.5 -30q0 -19 -11.5 -29t-27.5 -10zM381 784q-39 0 -39 39q0 40 39 40q16 0 27.5 -10t11.5 -30q0 -19 -11.5 -29
t-27.5 -10z" />
    <glyph glyph-name="Igrave" unicode="&#xcc;" horiz-adv-x="308" 
d="M47 0v40h89v596h-89v40h214v-40h-86v-596h86v-40h-214zM54 899h49l79 -147h-41z" />
    <glyph glyph-name="Iacute" unicode="&#xcd;" horiz-adv-x="308" 
d="M47 0v40h89v596h-89v40h214v-40h-86v-596h86v-40h-214zM199 899h49l-87 -147h-41z" />
    <glyph glyph-name="Icircumflex" unicode="&#xce;" horiz-adv-x="308" 
d="M47 0v40h89v596h-89v40h214v-40h-86v-596h86v-40h-214zM130 899h49l99 -147h-41l-83 113l-82 -113h-41z" />
    <glyph glyph-name="Idieresis" unicode="&#xcf;" horiz-adv-x="308" 
d="M47 0v40h89v596h-89v40h214v-40h-86v-596h86v-40h-214zM69 784q-39 0 -39 39q0 40 39 40q16 0 27.5 -10t11.5 -30q0 -19 -11.5 -29t-27.5 -10zM239 784q-39 0 -39 39q0 40 39 40q16 0 27.5 -10t11.5 -30q0 -19 -11.5 -29t-27.5 -10z" />
    <glyph glyph-name="Eth" unicode="&#xd0;" horiz-adv-x="682" 
d="M66 358h79v278h-79v40h234q94 0 156.5 -22t96.5 -68t47.5 -104.5t13.5 -143.5q0 -84 -13.5 -142t-47 -104.5t-96.5 -69t-157 -22.5h-234v40h79v278h-79v40zM184 40h116q156 0 214 69.5t58 230.5q0 79 -12 132t-42.5 91t-83.5 55.5t-134 17.5h-116v-278h174v-40h-174v-278
z" />
    <glyph glyph-name="Ntilde" unicode="&#xd1;" horiz-adv-x="736" 
d="M463 636v40h230v-40h-76v-636h-57l-392 632v-592h115v-40h-230v40h76v596h-76v40h138l387 -633v593h-115zM502 820l-10 -38q-23 25 -54 25q-20 0 -61 -16.5t-70 -16.5q-19 0 -37.5 8.5t-26.5 18.5l10 36q21 -23 54 -23q24 0 63.5 16.5t67.5 16.5q37 0 64 -27z" />
    <glyph glyph-name="Ograve" unicode="&#xd2;" horiz-adv-x="656" 
d="M108 337q0 -149 50 -228.5t171 -79.5q120 0 170 79.5t50 228.5q0 150 -50.5 229.5t-171.5 79.5q-119 0 -169 -80t-50 -229zM591 337q0 -348 -264 -348q-262 0 -262 348q0 349 264 349q262 0 262 -349zM233 899h49l79 -147h-41z" />
    <glyph glyph-name="Oacute" unicode="&#xd3;" horiz-adv-x="656" 
d="M108 337q0 -149 50 -228.5t171 -79.5q120 0 170 79.5t50 228.5q0 150 -50.5 229.5t-171.5 79.5q-119 0 -169 -80t-50 -229zM591 337q0 -348 -264 -348q-262 0 -262 348q0 349 264 349q262 0 262 -349zM371 899h49l-87 -147h-41z" />
    <glyph glyph-name="Ocircumflex" unicode="&#xd4;" horiz-adv-x="656" 
d="M108 337q0 -149 50 -228.5t171 -79.5q120 0 170 79.5t50 228.5q0 150 -50.5 229.5t-171.5 79.5q-119 0 -169 -80t-50 -229zM591 337q0 -348 -264 -348q-262 0 -262 348q0 349 264 349q262 0 262 -349zM304 899h49l99 -147h-41l-83 113l-82 -113h-41z" />
    <glyph glyph-name="Otilde" unicode="&#xd5;" horiz-adv-x="656" 
d="M108 337q0 -149 50 -228.5t171 -79.5q120 0 170 79.5t50 228.5q0 150 -50.5 229.5t-171.5 79.5q-119 0 -169 -80t-50 -229zM591 337q0 -348 -264 -348q-262 0 -262 348q0 349 264 349q262 0 262 -349zM458 820l-10 -38q-23 25 -54 25q-20 0 -61 -16.5t-70 -16.5
q-19 0 -37.5 8.5t-26.5 18.5l10 36q21 -23 54 -23q24 0 63.5 16.5t67.5 16.5q37 0 64 -27z" />
    <glyph glyph-name="Odieresis" unicode="&#xd6;" horiz-adv-x="656" 
d="M108 337q0 -149 50 -228.5t171 -79.5q120 0 170 79.5t50 228.5q0 150 -50.5 229.5t-171.5 79.5q-119 0 -169 -80t-50 -229zM591 337q0 -348 -264 -348q-262 0 -262 348q0 349 264 349q262 0 262 -349zM243 784q-39 0 -39 39q0 40 39 40q16 0 27.5 -10t11.5 -30
q0 -19 -11.5 -29t-27.5 -10zM413 784q-39 0 -39 39q0 40 39 40q16 0 27.5 -10t11.5 -30q0 -19 -11.5 -29t-27.5 -10z" />
    <glyph glyph-name="multiply" unicode="&#xd7;" 
d="M118 80l-28 29l161 160l-164 163l28 29l164 -164l162 163l29 -28l-163 -163l163 -163l-29 -28l-162 163z" />
    <glyph glyph-name="Oslash" unicode="&#xd8;" horiz-adv-x="656" 
d="M591 337q0 -348 -264 -348q-69 0 -122 25l-22 -52h-36v12l25 60q-107 79 -107 303q0 349 264 349q63 0 113 -22l18 42h39v-10l-22 -51q114 -79 114 -308zM549 337q0 201 -89 270l-238 -555q44 -23 107 -23q120 0 170 79.5t50 228.5zM108 337q0 -194 81 -264l237 554
q-43 19 -99 19q-119 0 -169 -80t-50 -229z" />
    <glyph glyph-name="Ugrave" unicode="&#xd9;" horiz-adv-x="694" 
d="M347 -11q-235 0 -235 256v391h-73v40h220v-40h-108v-396q0 -116 52.5 -163.5t144.5 -47.5q91 0 143 47.5t52 163.5v396h-107v40h219v-40h-73v-391q0 -256 -235 -256zM248 899h49l79 -147h-41z" />
    <glyph glyph-name="Uacute" unicode="&#xda;" horiz-adv-x="694" 
d="M347 -11q-235 0 -235 256v391h-73v40h220v-40h-108v-396q0 -116 52.5 -163.5t144.5 -47.5q91 0 143 47.5t52 163.5v396h-107v40h219v-40h-73v-391q0 -256 -235 -256zM402 899h49l-87 -147h-41z" />
    <glyph glyph-name="Ucircumflex" unicode="&#xdb;" horiz-adv-x="694" 
d="M347 -11q-235 0 -235 256v391h-73v40h220v-40h-108v-396q0 -116 52.5 -163.5t144.5 -47.5q91 0 143 47.5t52 163.5v396h-107v40h219v-40h-73v-391q0 -256 -235 -256zM322 899h49l99 -147h-41l-83 113l-82 -113h-41z" />
    <glyph glyph-name="Udieresis" unicode="&#xdc;" horiz-adv-x="694" 
d="M347 -11q-235 0 -235 256v391h-73v40h220v-40h-108v-396q0 -116 52.5 -163.5t144.5 -47.5q91 0 143 47.5t52 163.5v396h-107v40h219v-40h-73v-391q0 -256 -235 -256zM262 784q-39 0 -39 39q0 40 39 40q16 0 27.5 -10t11.5 -30q0 -19 -11.5 -29t-27.5 -10zM432 784
q-39 0 -39 39q0 40 39 40q16 0 27.5 -10t11.5 -30q0 -19 -11.5 -29t-27.5 -10z" />
    <glyph glyph-name="Yacute" unicode="&#xdd;" horiz-adv-x="596" 
d="M6 636v40h203v-40h-97l187 -321l191 321h-99v40h204v-40h-59l-219 -359v-237h100v-40h-244v40h105v237l-212 359h-60zM347 899h49l-87 -147h-41z" />
    <glyph glyph-name="Thorn" unicode="&#xde;" horiz-adv-x="570" 
d="M130 636h-79v40h204v-40h-86v-98h151q106 0 156 -52t50 -143t-50 -143.5t-156 -52.5h-151v-107h86v-40h-204v40h79v596zM484 342q0 156 -164 156h-151v-311h151q89 0 126.5 40.5t37.5 114.5z" />
    <glyph glyph-name="germandbls" unicode="&#xdf;" horiz-adv-x="555" 
d="M102 43v465q0 198 156 198q86 0 125 -43.5t39 -108.5q0 -38 -25 -76.5t-49.5 -68t-24.5 -47.5q0 -36 61 -70l43 -24q92 -50 92 -140q0 -58 -42.5 -98.5t-114.5 -40.5q-71 0 -128 29l-12 105h32l22 -82q37 -14 86 -14q53 0 84 28.5t31 72.5q0 32 -15 56.5t-53 48.5l-46 28
q-30 18 -43.5 28.5t-26 29.5t-12.5 42q0 20 15.5 44t34 43.5t34 48t15.5 57.5q0 114 -122 114q-69 0 -93 -41.5t-24 -118.5v-508h-112v33z" />
    <glyph glyph-name="agrave" unicode="&#xe0;" horiz-adv-x="483" 
d="M117 397v-91h-30q-11 37 -11 71q0 42 40.5 65.5t118.5 23.5q26 0 46.5 -2t35.5 -6.5t27 -10.5t19.5 -14t12.5 -17.5t7.5 -21t4 -25t1.5 -28v-30.5v-19v-219q0 -41 29 -41q17 0 43 6v-39q-23 -5 -49 -5q-27 0 -44 17t-17 49q-71 -71 -161 -71q-142 0 -142 126
q0 61 50.5 92t147.5 45l103 15v130q-36 31 -114 31q-84 0 -118 -31zM91 115q0 -88 99 -88q51 0 93 21t66 48v135l-99 -15q-83 -12 -121 -33.5t-38 -67.5zM142 696h49l79 -147h-41z" />
    <glyph glyph-name="aacute" unicode="&#xe1;" horiz-adv-x="483" 
d="M117 397v-91h-30q-11 37 -11 71q0 42 40.5 65.5t118.5 23.5q26 0 46.5 -2t35.5 -6.5t27 -10.5t19.5 -14t12.5 -17.5t7.5 -21t4 -25t1.5 -28v-30.5v-19v-219q0 -41 29 -41q17 0 43 6v-39q-23 -5 -49 -5q-27 0 -44 17t-17 49q-71 -71 -161 -71q-142 0 -142 126
q0 61 50.5 92t147.5 45l103 15v130q-36 31 -114 31q-84 0 -118 -31zM91 115q0 -88 99 -88q51 0 93 21t66 48v135l-99 -15q-83 -12 -121 -33.5t-38 -67.5zM284 696h49l-87 -147h-41z" />
    <glyph glyph-name="acircumflex" unicode="&#xe2;" horiz-adv-x="483" 
d="M117 397v-91h-30q-11 37 -11 71q0 42 40.5 65.5t118.5 23.5q26 0 46.5 -2t35.5 -6.5t27 -10.5t19.5 -14t12.5 -17.5t7.5 -21t4 -25t1.5 -28v-30.5v-19v-219q0 -41 29 -41q17 0 43 6v-39q-23 -5 -49 -5q-27 0 -44 17t-17 49q-71 -71 -161 -71q-142 0 -142 126
q0 61 50.5 92t147.5 45l103 15v130q-36 31 -114 31q-84 0 -118 -31zM91 115q0 -88 99 -88q51 0 93 21t66 48v135l-99 -15q-83 -12 -121 -33.5t-38 -67.5zM216 696h49l99 -147h-41l-83 113l-82 -113h-41z" />
    <glyph glyph-name="atilde" unicode="&#xe3;" horiz-adv-x="483" 
d="M117 397v-91h-30q-11 37 -11 71q0 42 40.5 65.5t118.5 23.5q26 0 46.5 -2t35.5 -6.5t27 -10.5t19.5 -14t12.5 -17.5t7.5 -21t4 -25t1.5 -28v-30.5v-19v-219q0 -41 29 -41q17 0 43 6v-39q-23 -5 -49 -5q-27 0 -44 17t-17 49q-71 -71 -161 -71q-142 0 -142 126
q0 61 50.5 92t147.5 45l103 15v130q-36 31 -114 31q-84 0 -118 -31zM91 115q0 -88 99 -88q51 0 93 21t66 48v135l-99 -15q-83 -12 -121 -33.5t-38 -67.5zM370 617l-10 -38q-23 25 -54 25q-20 0 -61 -16.5t-70 -16.5q-19 0 -37.5 8.5t-26.5 18.5l10 36q21 -23 54 -23
q24 0 63.5 16.5t67.5 16.5q37 0 64 -27z" />
    <glyph glyph-name="adieresis" unicode="&#xe4;" horiz-adv-x="483" 
d="M117 397v-91h-30q-11 37 -11 71q0 42 40.5 65.5t118.5 23.5q26 0 46.5 -2t35.5 -6.5t27 -10.5t19.5 -14t12.5 -17.5t7.5 -21t4 -25t1.5 -28v-30.5v-19v-219q0 -41 29 -41q17 0 43 6v-39q-23 -5 -49 -5q-27 0 -44 17t-17 49q-71 -71 -161 -71q-142 0 -142 126
q0 61 50.5 92t147.5 45l103 15v130q-36 31 -114 31q-84 0 -118 -31zM91 115q0 -88 99 -88q51 0 93 21t66 48v135l-99 -15q-83 -12 -121 -33.5t-38 -67.5zM156 581q-39 0 -39 39q0 40 39 40q16 0 27.5 -10t11.5 -30q0 -19 -11.5 -29t-27.5 -10zM326 581q-39 0 -39 39
q0 40 39 40q16 0 27.5 -10t11.5 -30q0 -19 -11.5 -29t-27.5 -10z" />
    <glyph glyph-name="aring" unicode="&#xe5;" horiz-adv-x="483" 
d="M117 397v-91h-30q-11 37 -11 71q0 42 40.5 65.5t118.5 23.5q26 0 46.5 -2t35.5 -6.5t27 -10.5t19.5 -14t12.5 -17.5t7.5 -21t4 -25t1.5 -28v-30.5v-19v-219q0 -41 29 -41q17 0 43 6v-39q-23 -5 -49 -5q-27 0 -44 17t-17 49q-71 -71 -161 -71q-142 0 -142 126
q0 61 50.5 92t147.5 45l103 15v130q-36 31 -114 31q-84 0 -118 -31zM91 115q0 -88 99 -88q51 0 93 21t66 48v135l-99 -15q-83 -12 -121 -33.5t-38 -67.5zM142 625q0 40 27 64.5t71 24.5t71.5 -24.5t27.5 -64.5t-27.5 -65t-71.5 -25t-71 25t-27 65zM179 625q0 -27 16.5 -42.5
t44.5 -15.5q29 0 45.5 15.5t16.5 42.5t-16.5 42.5t-45.5 15.5q-28 0 -44.5 -15.5t-16.5 -42.5z" />
    <glyph glyph-name="ae" unicode="&#xe6;" horiz-adv-x="768" 
d="M543 27q82 0 155 58l15 -35q-72 -61 -171 -61q-61 0 -105 26t-61 69q-14 -38 -70.5 -66.5t-115.5 -28.5q-142 0 -142 126q0 61 50.5 92t147.5 45l103 15v130q-36 31 -114 31q-84 0 -118 -31v-91h-30q-11 37 -11 71q0 42 40.5 65.5t118.5 23.5q140 0 154 -76q44 76 150 76
q83 0 127.5 -54t44.5 -132q0 -31 -5 -63h-314q0 -92 35 -141t116 -49zM392 254h276q2 12 2 24q0 68 -33.5 109t-98.5 41q-75 0 -108 -46t-38 -128zM91 115q0 -88 99 -88q51 0 93 21t66 48v135l-99 -15q-83 -12 -121 -33.5t-38 -67.5z" />
    <glyph glyph-name="ccedilla" unicode="&#xe7;" horiz-adv-x="467" 
d="M253 27q87 0 152 53l16 -37q-63 -46 -150 -53l-19 -51q10 4 25 4q26 0 44.5 -19t18.5 -48q0 -31 -23 -52.5t-68 -21.5q-40 0 -94 23l9 39q46 -26 85 -26q50 0 50 38q0 16 -12.5 26t-30.5 10q-19 0 -31 -4q-7 3 -19 8l25 74q-88 7 -132 71t-44 168q0 106 49.5 171.5
t145.5 65.5q91 0 161 -36l-14 -143h-31v121q-49 20 -113 20q-81 0 -118 -54t-37 -145q0 -202 155 -202z" />
    <glyph glyph-name="egrave" unicode="&#xe8;" horiz-adv-x="474" 
d="M249 27q82 0 155 58l15 -35q-72 -61 -171 -61q-193 0 -193 240q0 107 47 172t143 65q83 0 127.5 -54t44.5 -132q0 -31 -5 -63h-315q1 -92 36.5 -141t115.5 -49zM98 254h276q2 12 2 24q0 68 -33.5 109t-98.5 41q-75 0 -108 -46t-38 -128zM149 696h49l79 -147h-41z" />
    <glyph glyph-name="eacute" unicode="&#xe9;" horiz-adv-x="474" 
d="M249 27q82 0 155 58l15 -35q-72 -61 -171 -61q-193 0 -193 240q0 107 47 172t143 65q83 0 127.5 -54t44.5 -132q0 -31 -5 -63h-315q1 -92 36.5 -141t115.5 -49zM98 254h276q2 12 2 24q0 68 -33.5 109t-98.5 41q-75 0 -108 -46t-38 -128zM281 696h49l-87 -147h-41z" />
    <glyph glyph-name="ecircumflex" unicode="&#xea;" horiz-adv-x="474" 
d="M249 27q82 0 155 58l15 -35q-72 -61 -171 -61q-193 0 -193 240q0 107 47 172t143 65q83 0 127.5 -54t44.5 -132q0 -31 -5 -63h-315q1 -92 36.5 -141t115.5 -49zM98 254h276q2 12 2 24q0 68 -33.5 109t-98.5 41q-75 0 -108 -46t-38 -128zM214 696h49l99 -147h-41l-83 113
l-82 -113h-41z" />
    <glyph glyph-name="edieresis" unicode="&#xeb;" horiz-adv-x="474" 
d="M249 27q82 0 155 58l15 -35q-72 -61 -171 -61q-193 0 -193 240q0 107 47 172t143 65q83 0 127.5 -54t44.5 -132q0 -31 -5 -63h-315q1 -92 36.5 -141t115.5 -49zM98 254h276q2 12 2 24q0 68 -33.5 109t-98.5 41q-75 0 -108 -46t-38 -128zM153 581q-39 0 -39 39q0 40 39 40
q16 0 27.5 -10t11.5 -30q0 -19 -11.5 -29t-27.5 -10zM323 581q-39 0 -39 39q0 40 39 40q16 0 27.5 -10t11.5 -30q0 -19 -11.5 -29t-27.5 -10z" />
    <glyph glyph-name="igrave" unicode="&#xec;" horiz-adv-x="301" 
d="M51 696h49l79 -147h-41zM37 0v38h103v380h-103v38h142v-418h102v-38h-244z" />
    <glyph glyph-name="iacute" unicode="&#xed;" horiz-adv-x="301" 
d="M212 696h49l-87 -147h-41zM37 0v38h103v380h-103v38h142v-418h102v-38h-244z" />
    <glyph glyph-name="icircumflex" unicode="&#xee;" horiz-adv-x="301" 
d="M127 696h49l99 -147h-41l-83 113l-82 -113h-41zM37 0v38h103v380h-103v38h142v-418h102v-38h-244z" />
    <glyph glyph-name="idieresis" unicode="&#xef;" horiz-adv-x="301" 
d="M65 581q-39 0 -39 39q0 40 39 40q16 0 27.5 -10t11.5 -30q0 -19 -11.5 -29t-27.5 -10zM235 581q-39 0 -39 39q0 40 39 40q16 0 27.5 -10t11.5 -30q0 -19 -11.5 -29t-27.5 -10zM37 0v38h103v380h-103v38h142v-418h102v-38h-244z" />
    <glyph glyph-name="eth" unicode="&#xf0;" horiz-adv-x="517" 
d="M254 537l92 48q-40 64 -105 111h56q50 -37 84 -93l53 28l15 -32l-51 -27q52 -104 52 -258q0 -146 -50 -235.5t-150 -89.5q-95 0 -144.5 64t-49.5 166q0 104 43.5 166t134.5 62q64 0 113 -38.5t64 -92.5q0 142 -48 238l-94 -49zM249 28q144 0 157 233q-50 146 -169 146
q-141 0 -141 -189q0 -84 37 -137t116 -53z" />
    <glyph glyph-name="ntilde" unicode="&#xf1;" horiz-adv-x="569" 
d="M44 0v38h73v380h-72v38h111v-47q25 24 73 40.5t92 16.5q87 0 119 -40t32 -129v-259h72v-38h-199v38h88v259q0 34 -3 54t-13.5 40t-33.5 28.5t-60 8.5q-49 0 -94.5 -18.5t-72.5 -42.5v-329h88v-38h-200zM426 617l-10 -38q-23 25 -54 25q-20 0 -61 -16.5t-70 -16.5
q-19 0 -37.5 8.5t-26.5 18.5l10 36q21 -23 54 -23q24 0 63.5 16.5t67.5 16.5q37 0 64 -27z" />
    <glyph glyph-name="ograve" unicode="&#xf2;" horiz-adv-x="504" 
d="M252 466q197 0 197 -237q0 -240 -199 -240q-195 0 -195 240q0 110 47.5 173.5t149.5 63.5zM252 27q84 0 118.5 52t34.5 150q0 97 -34.5 148t-118.5 51q-83 0 -118.5 -51.5t-35.5 -147.5q0 -97 35.5 -149.5t118.5 -52.5zM154 696h49l79 -147h-41z" />
    <glyph glyph-name="oacute" unicode="&#xf3;" horiz-adv-x="504" 
d="M252 466q197 0 197 -237q0 -240 -199 -240q-195 0 -195 240q0 110 47.5 173.5t149.5 63.5zM252 27q84 0 118.5 52t34.5 150q0 97 -34.5 148t-118.5 51q-83 0 -118.5 -51.5t-35.5 -147.5q0 -97 35.5 -149.5t118.5 -52.5zM295 696h49l-87 -147h-41z" />
    <glyph glyph-name="ocircumflex" unicode="&#xf4;" horiz-adv-x="504" 
d="M252 466q197 0 197 -237q0 -240 -199 -240q-195 0 -195 240q0 110 47.5 173.5t149.5 63.5zM252 27q84 0 118.5 52t34.5 150q0 97 -34.5 148t-118.5 51q-83 0 -118.5 -51.5t-35.5 -147.5q0 -97 35.5 -149.5t118.5 -52.5zM227 696h49l99 -147h-41l-83 113l-82 -113h-41z
" />
    <glyph glyph-name="otilde" unicode="&#xf5;" horiz-adv-x="504" 
d="M252 466q197 0 197 -237q0 -240 -199 -240q-195 0 -195 240q0 110 47.5 173.5t149.5 63.5zM252 27q84 0 118.5 52t34.5 150q0 97 -34.5 148t-118.5 51q-83 0 -118.5 -51.5t-35.5 -147.5q0 -97 35.5 -149.5t118.5 -52.5zM381 617l-10 -38q-23 25 -54 25q-20 0 -61 -16.5
t-70 -16.5q-19 0 -37.5 8.5t-26.5 18.5l10 36q21 -23 54 -23q24 0 63.5 16.5t67.5 16.5q37 0 64 -27z" />
    <glyph glyph-name="odieresis" unicode="&#xf6;" horiz-adv-x="504" 
d="M252 466q197 0 197 -237q0 -240 -199 -240q-195 0 -195 240q0 110 47.5 173.5t149.5 63.5zM252 27q84 0 118.5 52t34.5 150q0 97 -34.5 148t-118.5 51q-83 0 -118.5 -51.5t-35.5 -147.5q0 -97 35.5 -149.5t118.5 -52.5zM167 581q-39 0 -39 39q0 40 39 40q16 0 27.5 -10
t11.5 -30q0 -19 -11.5 -29t-27.5 -10zM337 581q-39 0 -39 39q0 40 39 40q16 0 27.5 -10t11.5 -30q0 -19 -11.5 -29t-27.5 -10z" />
    <glyph glyph-name="divide" unicode="&#xf7;" 
d="M61 250v40h437v-40h-437zM282 50q-18 0 -30 12t-12 30t12 30t30 12q19 0 31 -12t12 -30t-12 -30t-31 -12zM282 402q-18 0 -30 12t-12 30q0 19 12 31t30 12q19 0 31 -12t12 -31q0 -18 -12 -30t-31 -12z" />
    <glyph glyph-name="oslash" unicode="&#xf8;" horiz-adv-x="504" 
d="M252 466q28 0 48 -4l19 61h39v-10l-20 -62q111 -45 111 -222q0 -240 -199 -240q-30 0 -55 6l-19 -63h-36v12l19 62q-104 49 -104 223q0 110 47.5 173.5t149.5 63.5zM252 27q84 0 118.5 52t34.5 150q0 147 -78 184l-120 -382q17 -4 45 -4zM98 229q0 -143 73 -184l118 380
q-18 3 -37 3q-83 0 -118.5 -51.5t-35.5 -147.5z" />
    <glyph glyph-name="ugrave" unicode="&#xf9;" horiz-adv-x="555" 
d="M453 456v-418h72v-38h-111v66q-25 -30 -72 -53.5t-96 -23.5q-82 0 -112 40t-30 130v259h-82v38h121v-297q0 -68 19 -99.5t84 -31.5q53 0 99.5 26.5t68.5 59.5v304h-103v38h142zM182 696h49l79 -147h-41z" />
    <glyph glyph-name="uacute" unicode="&#xfa;" horiz-adv-x="555" 
d="M453 456v-418h72v-38h-111v66q-25 -30 -72 -53.5t-96 -23.5q-82 0 -112 40t-30 130v259h-82v38h121v-297q0 -68 19 -99.5t84 -31.5q53 0 99.5 26.5t68.5 59.5v304h-103v38h142zM301 696h49l-87 -147h-41z" />
    <glyph glyph-name="ucircumflex" unicode="&#xfb;" horiz-adv-x="555" 
d="M453 456v-418h72v-38h-111v66q-25 -30 -72 -53.5t-96 -23.5q-82 0 -112 40t-30 130v259h-82v38h121v-297q0 -68 19 -99.5t84 -31.5q53 0 99.5 26.5t68.5 59.5v304h-103v38h142zM248 696h49l99 -147h-41l-83 113l-82 -113h-41z" />
    <glyph glyph-name="udieresis" unicode="&#xfc;" horiz-adv-x="555" 
d="M453 456v-418h72v-38h-111v66q-25 -30 -72 -53.5t-96 -23.5q-82 0 -112 40t-30 130v259h-82v38h121v-297q0 -68 19 -99.5t84 -31.5q53 0 99.5 26.5t68.5 59.5v304h-103v38h142zM188 581q-39 0 -39 39q0 40 39 40q16 0 27.5 -10t11.5 -30q0 -19 -11.5 -29t-27.5 -10z
M358 581q-39 0 -39 39q0 40 39 40q16 0 27.5 -10t11.5 -30q0 -19 -11.5 -29t-27.5 -10z" />
    <glyph glyph-name="yacute" unicode="&#xfd;" horiz-adv-x="577" 
d="M86 -217v38h105l90 196l-164 401h-105v38h147v-33l144 -362l156 357h-134v38h239v-38h-60l-266 -592q-24 -52 -80 -52q-38 0 -72 9zM326 696h49l-87 -147h-41z" />
    <glyph glyph-name="thorn" unicode="&#xfe;" horiz-adv-x="514" 
d="M236 -216h-224v33l72 10v831h-72v38h111v-291q47 61 139 61q197 0 197 -239q0 -111 -48 -174.5t-149 -63.5q-91 0 -139 62v-228h113v-39zM416 227q0 95 -35 148t-121 53q-94 0 -137 -79v-242q43 -80 137 -80q86 0 121 52.5t35 147.5z" />
    <glyph glyph-name="ydieresis" unicode="&#xff;" horiz-adv-x="577" 
d="M86 -217v38h105l90 196l-164 401h-105v38h147v-33l144 -362l156 357h-134v38h239v-38h-60l-266 -592q-24 -52 -80 -52q-38 0 -72 9zM223 581q-39 0 -39 39q0 40 39 40q16 0 27.5 -10t11.5 -30q0 -19 -11.5 -29t-27.5 -10zM393 581q-39 0 -39 39q0 40 39 40q16 0 27.5 -10
t11.5 -30q0 -19 -11.5 -29t-27.5 -10z" />
    <glyph glyph-name="Amacron" unicode="&#x100;" horiz-adv-x="683" 
d="M465 0v40h101l-72 190h-307l-74 -190h103v-40h-212v40h65l233 596h-62v40h203v-40h-60l230 -596h64v-40h-212zM200 270h281l-138 366zM209 833h262v-40h-262v40z" />
    <glyph glyph-name="amacron" unicode="&#x101;" horiz-adv-x="483" 
d="M117 397v-91h-30q-11 37 -11 71q0 42 40.5 65.5t118.5 23.5q26 0 46.5 -2t35.5 -6.5t27 -10.5t19.5 -14t12.5 -17.5t7.5 -21t4 -25t1.5 -28v-30.5v-19v-219q0 -41 29 -41q17 0 43 6v-39q-23 -5 -49 -5q-27 0 -44 17t-17 49q-71 -71 -161 -71q-142 0 -142 126
q0 61 50.5 92t147.5 45l103 15v130q-36 31 -114 31q-84 0 -118 -31zM91 115q0 -88 99 -88q51 0 93 21t66 48v135l-99 -15q-83 -12 -121 -33.5t-38 -67.5zM110 630h262v-40h-262v40z" />
    <glyph glyph-name="Abreve" unicode="&#x102;" horiz-adv-x="683" 
d="M465 0v40h101l-72 190h-307l-74 -190h103v-40h-212v40h65l233 596h-62v40h203v-40h-60l230 -596h64v-40h-212zM200 270h281l-138 366zM426 882h36q0 -55 -34 -90t-88 -35q-53 0 -87 35t-34 90h35q0 -40 22.5 -64.5t63.5 -24.5q42 0 64 24.5t22 64.5z" />
    <glyph glyph-name="abreve" unicode="&#x103;" horiz-adv-x="483" 
d="M117 397v-91h-30q-11 37 -11 71q0 42 40.5 65.5t118.5 23.5q26 0 46.5 -2t35.5 -6.5t27 -10.5t19.5 -14t12.5 -17.5t7.5 -21t4 -25t1.5 -28v-30.5v-19v-219q0 -41 29 -41q17 0 43 6v-39q-23 -5 -49 -5q-27 0 -44 17t-17 49q-71 -71 -161 -71q-142 0 -142 126
q0 61 50.5 92t147.5 45l103 15v130q-36 31 -114 31q-84 0 -118 -31zM91 115q0 -88 99 -88q51 0 93 21t66 48v135l-99 -15q-83 -12 -121 -33.5t-38 -67.5zM326 679h36q0 -55 -34 -90t-88 -35q-53 0 -87 35t-34 90h35q0 -40 22.5 -64.5t63.5 -24.5q42 0 64 24.5t22 64.5z" />
    <glyph glyph-name="Aogonek" unicode="&#x104;" horiz-adv-x="683" 
d="M465 0v40h101l-72 190h-307l-74 -190h103v-40h-212v40h65l233 596h-62v40h203v-40h-60l230 -596h64v-40h-64l-70 -56q-37 -30 -37 -64q0 -18 11 -29t34 -11q27 0 53 17l12 -33q-38 -19 -69 -19q-36 0 -59 19.5t-23 53.5q0 43 49 84l46 38h-95zM200 270h281l-138 366z" />
    <glyph glyph-name="aogonek" unicode="&#x105;" horiz-adv-x="483" 
d="M117 397v-91h-30q-11 37 -11 71q0 42 40.5 65.5t118.5 23.5q33 0 57 -4t41 -9t27.5 -17t16.5 -21t8.5 -29.5t3 -33t0.5 -40.5v-9v-230q0 -39 29 -39q17 0 43 6v-39l-70 -56q-20 -18 -28.5 -31.5t-8.5 -32.5q0 -40 45 -40q27 0 53 17l12 -33q-38 -19 -69 -19q-16 0 -33 5
q-49 16 -49 68q0 43 49 84l40 34q-23 2 -37 18t-14 45q-71 -71 -161 -71q-142 0 -142 126q0 61 50.5 92t147.5 45l103 15v130q-36 31 -114 31q-84 0 -118 -31zM91 115q0 -88 99 -88q51 0 93 21t66 48v135l-99 -15q-83 -12 -121 -33.5t-38 -67.5z" />
    <glyph glyph-name="Cacute" unicode="&#x106;" horiz-adv-x="587" 
d="M107 340q0 -66 10.5 -119.5t34 -98t65.5 -69t100 -24.5q118 0 198 67l20 -37q-85 -70 -221 -70q-249 0 -249 351q0 160 68 253t201 93q91 0 185 -49v-192h-34l-10 164q-72 37 -141 37q-117 0 -172 -83t-55 -223zM389 899h49l-87 -147h-41z" />
    <glyph glyph-name="cacute" unicode="&#x107;" horiz-adv-x="467" 
d="M253 27q87 0 152 53l16 -37q-74 -54 -171 -54t-146 65.5t-49 174.5q0 106 49.5 171.5t145.5 65.5q91 0 161 -36l-14 -143h-31v121q-49 20 -113 20q-81 0 -118 -54t-37 -145q0 -202 155 -202zM305 696h49l-87 -147h-41z" />
    <glyph glyph-name="Ccircumflex" unicode="&#x108;" horiz-adv-x="587" 
d="M107 340q0 -66 10.5 -119.5t34 -98t65.5 -69t100 -24.5q118 0 198 67l20 -37q-85 -70 -221 -70q-249 0 -249 351q0 160 68 253t201 93q91 0 185 -49v-192h-34l-10 164q-72 37 -141 37q-117 0 -172 -83t-55 -223zM302 899h49l99 -147h-41l-83 113l-82 -113h-41z" />
    <glyph glyph-name="ccircumflex" unicode="&#x109;" horiz-adv-x="467" 
d="M253 27q87 0 152 53l16 -37q-74 -54 -171 -54t-146 65.5t-49 174.5q0 106 49.5 171.5t145.5 65.5q91 0 161 -36l-14 -143h-31v121q-49 20 -113 20q-81 0 -118 -54t-37 -145q0 -202 155 -202zM227 696h49l99 -147h-41l-83 113l-82 -113h-41z" />
    <glyph glyph-name="Cdotaccent" unicode="&#x10a;" horiz-adv-x="587" 
d="M107 340q0 -66 10.5 -119.5t34 -98t65.5 -69t100 -24.5q118 0 198 67l20 -37q-85 -70 -221 -70q-249 0 -249 351q0 160 68 253t201 93q91 0 185 -49v-192h-34l-10 164q-72 37 -141 37q-117 0 -172 -83t-55 -223zM327 784q-39 0 -39 39q0 40 39 40q16 0 27.5 -10t11.5 -30
q0 -19 -11.5 -29t-27.5 -10z" />
    <glyph glyph-name="cdotaccent" unicode="&#x10b;" horiz-adv-x="467" 
d="M253 27q87 0 152 53l16 -37q-74 -54 -171 -54t-146 65.5t-49 174.5q0 106 49.5 171.5t145.5 65.5q91 0 161 -36l-14 -143h-31v121q-49 20 -113 20q-81 0 -118 -54t-37 -145q0 -202 155 -202zM251 581q-39 0 -39 39q0 40 39 40q16 0 27.5 -10t11.5 -30q0 -19 -11.5 -29
t-27.5 -10z" />
    <glyph glyph-name="Ccaron" unicode="&#x10c;" horiz-adv-x="587" 
d="M107 340q0 -66 10.5 -119.5t34 -98t65.5 -69t100 -24.5q118 0 198 67l20 -37q-85 -70 -221 -70q-249 0 -249 351q0 160 68 253t201 93q91 0 185 -49v-192h-34l-10 164q-72 37 -141 37q-117 0 -172 -83t-55 -223zM351 752h-49l-99 147h41l83 -113l82 113h41z" />
    <glyph glyph-name="ccaron" unicode="&#x10d;" horiz-adv-x="467" 
d="M253 27q87 0 152 53l16 -37q-74 -54 -171 -54t-146 65.5t-49 174.5q0 106 49.5 171.5t145.5 65.5q91 0 161 -36l-14 -143h-31v121q-49 20 -113 20q-81 0 -118 -54t-37 -145q0 -202 155 -202zM276 549h-49l-99 147h41l83 -113l82 113h41z" />
    <glyph glyph-name="Dcaron" unicode="&#x10e;" horiz-adv-x="667" 
d="M130 40v596h-79v40h234q94 0 156.5 -22t96.5 -68t47.5 -104.5t13.5 -143.5q0 -84 -13.5 -142t-47 -104.5t-96.5 -69t-157 -22.5h-234v40h79zM169 40h116q156 0 214 69.5t58 230.5q0 79 -12 132t-42.5 91t-83.5 55.5t-134 17.5h-116v-596zM324 752h-49l-99 147h41l83 -113
l82 113h41z" />
    <glyph glyph-name="dcaron" unicode="&#x10f;" horiz-adv-x="566" 
d="M392 405v251h-103v40h143v-658h71v-38h-51q-33 0 -46.5 12t-13.5 45q-59 -68 -140 -68q-196 0 -196 240q0 111 48 174t149 63q92 0 139 -61zM99 229q0 -202 153 -202q85 0 140 81v241q-43 79 -137 79q-156 0 -156 -199zM616 696l-42 -143h-34l25 143h51z" />
    <glyph glyph-name="Dcroat" unicode="&#x110;" horiz-adv-x="682" 
d="M66 358h79v278h-79v40h234q94 0 156.5 -22t96.5 -68t47.5 -104.5t13.5 -143.5q0 -84 -13.5 -142t-47 -104.5t-96.5 -69t-157 -22.5h-234v40h79v278h-79v40zM184 40h116q156 0 214 69.5t58 230.5q0 79 -12 132t-42.5 91t-83.5 55.5t-134 17.5h-116v-278h174v-40h-174v-278
z" />
    <glyph glyph-name="dcroat" unicode="&#x111;" horiz-adv-x="530" 
d="M392 405v124h-102v39h102v88h-103v40h143v-128h77v-39h-77v-491h71v-38h-51q-33 0 -46.5 12t-13.5 45q-59 -68 -140 -68q-196 0 -196 240q0 111 48 174t149 63q92 0 139 -61zM99 229q0 -202 153 -202q85 0 140 81v241q-43 79 -137 79q-156 0 -156 -199z" />
    <glyph glyph-name="Emacron" unicode="&#x112;" horiz-adv-x="566" 
d="M464 154h43v-154h-456v40h79v596h-79v40h452v-143h-39v103h-295v-265h260v-40h-260v-291h295v114zM168 833h262v-40h-262v40z" />
    <glyph glyph-name="emacron" unicode="&#x113;" horiz-adv-x="474" 
d="M249 27q82 0 155 58l15 -35q-72 -61 -171 -61q-193 0 -193 240q0 107 47 172t143 65q83 0 127.5 -54t44.5 -132q0 -31 -5 -63h-315q1 -92 36.5 -141t115.5 -49zM98 254h276q2 12 2 24q0 68 -33.5 109t-98.5 41q-75 0 -108 -46t-38 -128zM111 630h262v-40h-262v40z" />
    <glyph glyph-name="Ebreve" unicode="&#x114;" horiz-adv-x="566" 
d="M464 154h43v-154h-456v40h79v596h-79v40h452v-143h-39v103h-295v-265h260v-40h-260v-291h295v114zM385 882h36q0 -55 -34 -90t-88 -35q-53 0 -87 35t-34 90h35q0 -40 22.5 -64.5t63.5 -24.5q42 0 64 24.5t22 64.5z" />
    <glyph glyph-name="ebreve" unicode="&#x115;" horiz-adv-x="474" 
d="M249 27q82 0 155 58l15 -35q-72 -61 -171 -61q-193 0 -193 240q0 107 47 172t143 65q83 0 127.5 -54t44.5 -132q0 -31 -5 -63h-315q1 -92 36.5 -141t115.5 -49zM98 254h276q2 12 2 24q0 68 -33.5 109t-98.5 41q-75 0 -108 -46t-38 -128zM331 679h36q0 -55 -34 -90
t-88 -35q-53 0 -87 35t-34 90h35q0 -40 22.5 -64.5t63.5 -24.5q42 0 64 24.5t22 64.5z" />
    <glyph glyph-name="Edotaccent" unicode="&#x116;" horiz-adv-x="566" 
d="M464 154h43v-154h-456v40h79v596h-79v40h452v-143h-39v103h-295v-265h260v-40h-260v-291h295v114zM307 784q-39 0 -39 39q0 40 39 40q16 0 27.5 -10t11.5 -30q0 -19 -11.5 -29t-27.5 -10z" />
    <glyph glyph-name="edotaccent" unicode="&#x117;" horiz-adv-x="474" 
d="M249 27q82 0 155 58l15 -35q-72 -61 -171 -61q-193 0 -193 240q0 107 47 172t143 65q83 0 127.5 -54t44.5 -132q0 -31 -5 -63h-315q1 -92 36.5 -141t115.5 -49zM98 254h276q2 12 2 24q0 68 -33.5 109t-98.5 41q-75 0 -108 -46t-38 -128zM244 581q-39 0 -39 39q0 40 39 40
q16 0 27.5 -10t11.5 -30q0 -19 -11.5 -29t-27.5 -10z" />
    <glyph glyph-name="Eogonek" unicode="&#x118;" horiz-adv-x="566" 
d="M468 154h39v-154l-70 -56q-37 -30 -37 -64q0 -40 45 -40q27 0 53 17l12 -33q-38 -19 -69 -19q-36 0 -59 19.5t-23 53.5q0 43 49 84l46 38h-403v40h79v596h-79v40h452v-143h-39v103h-295v-265h260v-40h-260v-291h299v114z" />
    <glyph glyph-name="eogonek" unicode="&#x119;" horiz-adv-x="474" 
d="M249 27q82 0 155 58l15 -35q-48 -42 -106 -53l-65 -53q-37 -30 -37 -64q0 -40 45 -40q28 0 53 17l12 -33q-38 -19 -69 -19q-36 0 -59 19.5t-23 53.5q0 43 49 84l32 27q-196 0 -196 240q0 107 47 172t143 65q83 0 127.5 -54t44.5 -132q0 -31 -5 -63h-315q1 -92 36.5 -141
t115.5 -49zM98 254h276q2 12 2 24q0 68 -33.5 109t-98.5 41q-75 0 -108 -46t-38 -128z" />
    <glyph glyph-name="Ecaron" unicode="&#x11a;" horiz-adv-x="566" 
d="M464 154h43v-154h-456v40h79v596h-79v40h452v-143h-39v103h-295v-265h260v-40h-260v-291h295v114zM320 752h-49l-99 147h41l83 -113l82 113h41z" />
    <glyph glyph-name="ecaron" unicode="&#x11b;" horiz-adv-x="474" 
d="M249 27q82 0 155 58l15 -35q-72 -61 -171 -61q-193 0 -193 240q0 107 47 172t143 65q83 0 127.5 -54t44.5 -132q0 -31 -5 -63h-315q1 -92 36.5 -141t115.5 -49zM98 254h276q2 12 2 24q0 68 -33.5 109t-98.5 41q-75 0 -108 -46t-38 -128zM263 549h-49l-99 147h41l83 -113
l82 113h41z" />
    <glyph glyph-name="Gcircumflex" unicode="&#x11c;" horiz-adv-x="646" 
d="M349 686q113 0 197 -35v-167h-34l-10 138q-69 24 -154 24q-124 0 -182.5 -81.5t-58.5 -213.5q0 -322 245 -322q101 0 180 36v209h-191v40h235v-274q-98 -51 -222 -51q-147 0 -218.5 94.5t-71.5 265.5q0 150 72.5 243.5t212.5 93.5zM327 899h49l99 -147h-41l-83 113
l-82 -113h-41z" />
    <glyph glyph-name="gcircumflex" unicode="&#x11d;" horiz-adv-x="479" 
d="M473 471l-109 -52q46 -44 46 -121q0 -76 -47 -120t-133 -44q-51 0 -75 11l-23 -102h147q152 0 152 -115q0 -70 -56.5 -112t-149.5 -42q-188 0 -188 129q0 39 24.5 70t55.5 42q-27 11 -27 44q0 46 43 94q-81 41 -81 145q0 79 46 123.5t133 44.5q73 0 113 -27q56 65 117 68
zM231 172q134 0 134 126q0 59 -32 94.5t-102 35.5q-136 0 -136 -130q0 -57 33 -91.5t103 -34.5zM145 5q-64 -39 -64 -96q0 -96 144 -96q70 0 116 29.5t46 85.5q0 77 -108 77h-134zM209 696h49l99 -147h-41l-83 113l-82 -113h-41z" />
    <glyph glyph-name="Gbreve" unicode="&#x11e;" horiz-adv-x="646" 
d="M349 686q113 0 197 -35v-167h-34l-10 138q-69 24 -154 24q-124 0 -182.5 -81.5t-58.5 -213.5q0 -322 245 -322q101 0 180 36v209h-191v40h235v-274q-98 -51 -222 -51q-147 0 -218.5 94.5t-71.5 265.5q0 150 72.5 243.5t212.5 93.5zM433 882h36q0 -55 -34 -90t-88 -35
q-53 0 -87 35t-34 90h35q0 -40 22.5 -64.5t63.5 -24.5q42 0 64 24.5t22 64.5z" />
    <glyph glyph-name="gbreve" unicode="&#x11f;" horiz-adv-x="479" 
d="M473 471l-109 -52q46 -44 46 -121q0 -76 -47 -120t-133 -44q-51 0 -75 11l-23 -102h147q152 0 152 -115q0 -70 -56.5 -112t-149.5 -42q-188 0 -188 129q0 39 24.5 70t55.5 42q-27 11 -27 44q0 46 43 94q-81 41 -81 145q0 79 46 123.5t133 44.5q73 0 113 -27q56 65 117 68
zM231 172q134 0 134 126q0 59 -32 94.5t-102 35.5q-136 0 -136 -130q0 -57 33 -91.5t103 -34.5zM145 5q-64 -39 -64 -96q0 -96 144 -96q70 0 116 29.5t46 85.5q0 77 -108 77h-134zM319 679h36q0 -55 -34 -90t-88 -35q-53 0 -87 35t-34 90h35q0 -40 22.5 -64.5t63.5 -24.5
q42 0 64 24.5t22 64.5z" />
    <glyph glyph-name="Gdotaccent" unicode="&#x120;" horiz-adv-x="646" 
d="M349 686q113 0 197 -35v-167h-34l-10 138q-69 24 -154 24q-124 0 -182.5 -81.5t-58.5 -213.5q0 -322 245 -322q101 0 180 36v209h-191v40h235v-274q-98 -51 -222 -51q-147 0 -218.5 94.5t-71.5 265.5q0 150 72.5 243.5t212.5 93.5zM351 784q-39 0 -39 39q0 40 39 40
q16 0 27.5 -10t11.5 -30q0 -19 -11.5 -29t-27.5 -10z" />
    <glyph glyph-name="gdotaccent" unicode="&#x121;" horiz-adv-x="479" 
d="M473 471l-109 -52q46 -44 46 -121q0 -76 -47 -120t-133 -44q-51 0 -75 11l-23 -102h147q152 0 152 -115q0 -70 -56.5 -112t-149.5 -42q-188 0 -188 129q0 39 24.5 70t55.5 42q-27 11 -27 44q0 46 43 94q-81 41 -81 145q0 79 46 123.5t133 44.5q73 0 113 -27q56 65 117 68
zM231 172q134 0 134 126q0 59 -32 94.5t-102 35.5q-136 0 -136 -130q0 -57 33 -91.5t103 -34.5zM145 5q-64 -39 -64 -96q0 -96 144 -96q70 0 116 29.5t46 85.5q0 77 -108 77h-134zM235 581q-39 0 -39 39q0 40 39 40q16 0 27.5 -10t11.5 -30q0 -19 -11.5 -29t-27.5 -10z" />
    <glyph glyph-name="Gcommaaccent" unicode="&#x122;" horiz-adv-x="647" 
d="M349 686q113 0 197 -35v-167h-34l-10 138q-69 24 -154 24q-124 0 -182.5 -81.5t-58.5 -213.5q0 -322 245 -322q101 0 180 36v209h-191v40h235v-274q-98 -51 -222 -51q-147 0 -218.5 94.5t-71.5 265.5q0 150 72.5 243.5t212.5 93.5zM380 -73l-42 -143h-34l25 143h51z" />
    <glyph glyph-name="gcommaaccent" unicode="&#x123;" horiz-adv-x="479" 
d="M473 471l-109 -52q46 -44 46 -121q0 -76 -47 -120t-133 -44q-51 0 -75 11l-23 -102h147q152 0 152 -115q0 -70 -56.5 -112t-149.5 -42q-188 0 -188 129q0 39 24.5 70t55.5 42q-27 11 -27 44q0 46 43 94q-81 41 -81 145q0 79 46 123.5t133 44.5q73 0 113 -27q56 65 117 68
zM231 172q134 0 134 126q0 59 -32 94.5t-102 35.5q-136 0 -136 -130q0 -57 33 -91.5t103 -34.5zM145 5q-64 -39 -64 -96q0 -96 144 -96q70 0 116 29.5t46 85.5q0 77 -108 77h-134zM200 558l42 163h34l-25 -163h-51z" />
    <glyph glyph-name="Hcircumflex" unicode="&#x124;" horiz-adv-x="743" 
d="M485 636v40h201v-40h-67v-596h67v-40h-201v40h95v299h-417v-299h95v-40h-201v40h67v596h-67v40h201v-40h-95v-257h417v257h-95zM347 899h49l99 -147h-41l-83 113l-82 -113h-41z" />
    <glyph glyph-name="hcircumflex" unicode="&#x125;" horiz-adv-x="562" 
d="M27 0v38h75v618h-84v40h123v-287q26 24 74.5 40.5t93.5 16.5q89 0 121.5 -40t32.5 -129v-259h74v-38h-203v38h90v259q0 69 -20 100t-92 31q-50 0 -96.5 -18.5t-74.5 -42.5v-329h90v-38h-204zM253 884h49l99 -147h-41l-83 113l-82 -113h-41z" />
    <glyph glyph-name="Hbar" unicode="&#x126;" horiz-adv-x="743" 
d="M485 636v40h201v-40h-67v-116h67v-36h-67v-444h67v-40h-201v40h95v299h-417v-299h95v-40h-201v40h67v444h-68v36h68v116h-67v40h201v-40h-95v-116h417v116h-95zM163 379h417v105h-417v-105z" />
    <glyph glyph-name="hbar" unicode="&#x127;" horiz-adv-x="562" 
d="M27 0v38h75v491h-87v39h87v88h-84v40h123v-128h96v-39h-96v-120q26 24 74.5 40.5t93.5 16.5q89 0 121.5 -40t32.5 -129v-259h74v-38h-203v38h90v259q0 69 -20 100t-92 31q-50 0 -96.5 -18.5t-74.5 -42.5v-329h90v-38h-204z" />
    <glyph glyph-name="Itilde" unicode="&#x128;" horiz-adv-x="308" 
d="M47 0v40h89v596h-89v40h214v-40h-86v-596h86v-40h-214zM284 820l-10 -38q-23 25 -54 25q-20 0 -61 -16.5t-70 -16.5q-19 0 -37.5 8.5t-26.5 18.5l10 36q21 -23 54 -23q24 0 63.5 16.5t67.5 16.5q37 0 64 -27z" />
    <glyph glyph-name="itilde" unicode="&#x129;" horiz-adv-x="301" 
d="M275 617l-10 -38q-23 25 -54 25q-20 0 -61 -16.5t-70 -16.5q-19 0 -37.5 8.5t-26.5 18.5l10 36q21 -23 54 -23q24 0 63.5 16.5t67.5 16.5q37 0 64 -27zM37 0v38h103v380h-103v38h142v-418h102v-38h-244z" />
    <glyph glyph-name="Imacron" unicode="&#x12a;" horiz-adv-x="308" 
d="M47 0v40h89v596h-89v40h214v-40h-86v-596h86v-40h-214zM23 833h262v-40h-262v40z" />
    <glyph glyph-name="imacron" unicode="&#x12b;" horiz-adv-x="301" 
d="M28 630h262v-40h-262v40zM37 0v38h103v380h-103v38h142v-418h102v-38h-244z" />
    <glyph glyph-name="Ibreve" unicode="&#x12c;" horiz-adv-x="308" 
d="M47 0v40h89v596h-89v40h214v-40h-86v-596h86v-40h-214zM240 882h36q0 -55 -34 -90t-88 -35q-53 0 -87 35t-34 90h35q0 -40 22.5 -64.5t63.5 -24.5q42 0 64 24.5t22 64.5z" />
    <glyph glyph-name="ibreve" unicode="&#x12d;" horiz-adv-x="301" 
d="M243 679h36q0 -55 -34 -90t-88 -35q-53 0 -87 35t-34 90h35q0 -40 22.5 -64.5t63.5 -24.5q42 0 64 24.5t22 64.5zM37 0v38h103v380h-103v38h142v-418h102v-38h-244z" />
    <glyph glyph-name="Iogonek" unicode="&#x12e;" horiz-adv-x="308" 
d="M47 0v40h89v596h-89v40h214v-40h-86v-596h86v-40h-81l-70 -56q-37 -30 -37 -64q0 -40 45 -40q28 0 53 17l12 -33q-38 -19 -69 -19q-36 0 -59 19.5t-23 53.5q0 43 49 84l46 38h-80z" />
    <glyph glyph-name="iogonek" unicode="&#x12f;" horiz-adv-x="301" 
d="M37 0v38h103v380h-103v38h142v-418h102v-38h-80l-70 -56q-37 -30 -37 -64q0 -40 45 -40q27 0 53 17l12 -33q-38 -19 -69 -19q-36 0 -59 19.5t-23 53.5q0 43 49 84l46 38h-111zM154 591q-39 0 -39 39q0 40 39 40q16 0 27.5 -10t11.5 -30q0 -19 -11.5 -29t-27.5 -10z" />
    <glyph glyph-name="Idotaccent" unicode="&#x130;" horiz-adv-x="308" 
d="M47 0v40h89v596h-89v40h214v-40h-86v-596h86v-40h-214zM154 784q-39 0 -39 39q0 40 39 40q16 0 27.5 -10t11.5 -30q0 -19 -11.5 -29t-27.5 -10z" />
    <glyph glyph-name="dotlessi" unicode="&#x131;" horiz-adv-x="301" 
d="M37 0v38h103v380h-103v38h142v-418h102v-38h-244z" />
    <glyph glyph-name="IJ" unicode="&#x132;" horiz-adv-x="592" 
d="M47 0v40h89v596h-89v40h214v-40h-86v-596h86v-40h-214zM336 636v40h204v-40h-66v-610q0 -170 -141 -252l-25 32q67 41 96.5 91t29.5 118v621h-98z" />
    <glyph glyph-name="ij" unicode="&#x133;" horiz-adv-x="535" 
d="M37 0v38h103v380h-103v38h142v-418h102v-38h-244zM154 591q-39 0 -39 39q0 40 39 40q16 0 27.5 -10t11.5 -30q0 -19 -11.5 -29t-27.5 -10zM339 -226l-13 38q51 17 68.5 47t17.5 103v456h-94v38h133v-494q0 -81 -23 -126t-89 -62zM425 591q-39 0 -39 39q0 40 39 40
q16 0 27.5 -10t11.5 -30q0 -19 -11.5 -29t-27.5 -10z" />
    <glyph glyph-name="Jcircumflex" unicode="&#x134;" horiz-adv-x="284" 
d="M28 636v40h204v-40h-66v-610q0 -170 -141 -252l-25 32q67 41 96.5 91t29.5 118v621h-98zM110 899h49l99 -147h-41l-83 113l-82 -113h-41z" />
    <glyph glyph-name="jcircumflex" unicode="&#x135;" horiz-adv-x="239" 
d="M93 696h49l99 -147h-41l-83 113l-82 -113h-41zM43 -226l-13 38q51 17 68.5 47t17.5 103v456h-94v38h133v-494q0 -81 -23 -126t-89 -62z" />
    <glyph glyph-name="Kcommaaccent" unicode="&#x136;" horiz-adv-x="627" 
d="M207 354l255 282h-74v40h203v-40h-76l-257 -281l279 -315h67v-40h-203v40h80zM170 636v-596h88v-40h-208v40h81v596h-81v40h208v-40h-88zM348 -73l-42 -143h-34l25 143h51z" />
    <glyph glyph-name="kcommaaccent" unicode="&#x137;" horiz-adv-x="544" 
d="M386 0v28l-154 218l-91 -81v-127h111v-38h-221v38h71v618h-80v40h119v-486l230 208h-81v38h199v-38h-67l-163 -149l168 -231h94v-38h-135zM294 -73l-42 -143h-34l25 143h51z" />
    <glyph glyph-name="kgreenlandic" unicode="&#x138;" horiz-adv-x="562" 
d="M405 0v28l-154 218l-91 -81v-127h111v-38h-221v38h71v378h-80v40h119v-246l230 208h-81v38h199v-38h-67l-163 -149l168 -231h94v-38h-135z" />
    <glyph glyph-name="Lacute" unicode="&#x139;" horiz-adv-x="515" 
d="M444 180h37v-180h-429v40h78v596h-78v40h214v-40h-97v-596h275v140zM205 899h49l-87 -147h-41z" />
    <glyph glyph-name="lacute" unicode="&#x13a;" horiz-adv-x="241" 
d="M85 99v557h-94v40h133v-596q0 -39 11 -56t40 -17q24 0 46 10l11 -36q-26 -12 -59 -12q-48 0 -68 26.5t-20 83.5zM158 884h49l-87 -147h-41z" />
    <glyph glyph-name="Lcommaaccent" unicode="&#x13b;" horiz-adv-x="516" 
d="M444 180h37v-180h-429v40h78v596h-78v40h214v-40h-97v-596h275v140zM299 -73l-42 -143h-34l25 143h51z" />
    <glyph glyph-name="lcommaaccent" unicode="&#x13c;" horiz-adv-x="243" 
d="M86 99v557h-94v40h133v-596q0 -39 11 -56t40 -17q24 0 46 10l11 -36q-25 -12 -59 -12q-48 0 -68 26.5t-20 83.5zM165 -73l-42 -143h-34l25 143h51z" />
    <glyph glyph-name="Lcaron" unicode="&#x13d;" horiz-adv-x="522" 
d="M444 180h37v-180h-429v40h78v596h-78v40h214v-40h-97v-596h275v140zM484 676l-42 -143h-34l25 143h51z" />
    <glyph glyph-name="lcaron" unicode="&#x13e;" horiz-adv-x="273" 
d="M85 99v557h-94v40h133v-596q0 -39 11 -56t40 -17q24 0 46 10l11 -36q-26 -12 -59 -12q-48 0 -68 26.5t-20 83.5zM308 696l-42 -143h-34l25 143h51z" />
    <glyph glyph-name="Ldot" unicode="&#x13f;" horiz-adv-x="515" 
d="M444 180h37v-180h-429v40h78v596h-78v40h214v-40h-97v-596h275v140zM371 315q-18 0 -30 12t-12 30t12 30t30 12q19 0 31 -12t12 -30t-12 -30t-31 -12z" />
    <glyph glyph-name="ldot" unicode="&#x140;" horiz-adv-x="307" 
d="M85 99v557h-94v40h133v-596q0 -39 11 -56t40 -17q24 0 46 10l11 -36q-26 -12 -59 -12q-48 0 -68 26.5t-20 83.5zM252 319q-18 0 -30 12t-12 30t12 30t30 12q19 0 31 -12t12 -30t-12 -30t-31 -12z" />
    <glyph glyph-name="Lslash" unicode="&#x141;" horiz-adv-x="517" 
d="M446 180h37v-180h-429v40h78v230l-85 -35v40l85 35v326h-78v40h214v-40h-97v-310l95 39v-40l-95 -39v-246h275v140z" />
    <glyph glyph-name="lslash" unicode="&#x142;" horiz-adv-x="249" 
d="M15 299v40l76 39v278h-94v40h133v-297l77 40v-40l-77 -40v-259q0 -39 11 -56t40 -17q24 0 46 10l11 -36q-26 -12 -59 -12q-48 0 -68 26.5t-20 83.5v239z" />
    <glyph glyph-name="Nacute" unicode="&#x143;" horiz-adv-x="736" 
d="M463 636v40h230v-40h-76v-636h-57l-392 632v-592h115v-40h-230v40h76v596h-76v40h138l387 -633v593h-115zM429 899h49l-87 -147h-41z" />
    <glyph glyph-name="nacute" unicode="&#x144;" horiz-adv-x="569" 
d="M44 0v38h73v380h-72v38h111v-47q25 24 73 40.5t92 16.5q87 0 119 -40t32 -129v-259h72v-38h-199v38h88v259q0 34 -3 54t-13.5 40t-33.5 28.5t-60 8.5q-49 0 -94.5 -18.5t-72.5 -42.5v-329h88v-38h-200zM335 696h49l-87 -147h-41z" />
    <glyph glyph-name="Ncommaaccent" unicode="&#x145;" horiz-adv-x="737" 
d="M463 636v40h230v-40h-76v-636h-57l-392 632v-592h115v-40h-230v40h76v596h-76v40h138l387 -633v593h-115zM401 -73l-42 -143h-34l25 143h51z" />
    <glyph glyph-name="ncommaaccent" unicode="&#x146;" horiz-adv-x="571" 
d="M45 0v38h73v380h-72v38h111v-47q25 24 73 40.5t92 16.5q87 0 119 -40t32 -129v-259h72v-38h-199v38h88v259q0 34 -3 54t-13.5 40t-33.5 28.5t-60 8.5q-49 0 -94.5 -18.5t-72.5 -42.5v-329h88v-38h-200zM320 -73l-42 -143h-34l25 143h51z" />
    <glyph glyph-name="Ncaron" unicode="&#x147;" horiz-adv-x="736" 
d="M463 636v40h230v-40h-76v-636h-57l-392 632v-592h115v-40h-230v40h76v596h-76v40h138l387 -633v593h-115zM397 752h-49l-99 147h41l83 -113l82 113h41z" />
    <glyph glyph-name="ncaron" unicode="&#x148;" horiz-adv-x="569" 
d="M44 0v38h73v380h-72v38h111v-47q25 24 73 40.5t92 16.5q87 0 119 -40t32 -129v-259h72v-38h-199v38h88v259q0 34 -3 54t-13.5 40t-33.5 28.5t-60 8.5q-49 0 -94.5 -18.5t-72.5 -42.5v-329h88v-38h-200zM321 549h-49l-99 147h41l83 -113l82 113h41z" />
    <glyph glyph-name="napostrophe" unicode="&#x149;" horiz-adv-x="569" 
d="M44 0v38h73v380h-72v38h111v-47q25 24 73 40.5t92 16.5q87 0 119 -40t32 -129v-259h72v-38h-199v38h88v259q0 34 -3 54t-13.5 40t-33.5 28.5t-60 8.5q-49 0 -94.5 -18.5t-72.5 -42.5v-329h88v-38h-200zM80 696l-42 -143h-34l25 143h51z" />
    <glyph glyph-name="Eng" unicode="&#x14a;" horiz-adv-x="737" 
d="M578 -38l-409 671v-593h117v-40h-234v40h78v596h-78v40h140l386 -643v603h-117v40h234v-40h-78v-674q0 -76 -23.5 -123.5t-88.5 -64.5l-13 36q49 16 67.5 49.5t18.5 102.5z" />
    <glyph glyph-name="eng" unicode="&#x14b;" horiz-adv-x="552" 
d="M472 297v-335q0 -80 -22.5 -124.5t-89.5 -63.5l-13 38q52 15 69 45t17 105v335q0 34 -3 54t-13.5 40t-33.5 28.5t-60 8.5q-49 0 -94.5 -18.5t-72.5 -42.5v-329h88v-38h-200v38h73v380h-72v38h111v-47q25 24 73 40.5t92 16.5q87 0 119 -40t32 -129z" />
    <glyph glyph-name="Omacron" unicode="&#x14c;" horiz-adv-x="656" 
d="M108 337q0 -149 50 -228.5t171 -79.5q120 0 170 79.5t50 228.5q0 150 -50.5 229.5t-171.5 79.5q-119 0 -169 -80t-50 -229zM591 337q0 -348 -264 -348q-262 0 -262 348q0 349 264 349q262 0 262 -349zM197 833h262v-40h-262v40z" />
    <glyph glyph-name="omacron" unicode="&#x14d;" horiz-adv-x="504" 
d="M252 466q197 0 197 -237q0 -240 -199 -240q-195 0 -195 240q0 110 47.5 173.5t149.5 63.5zM252 27q84 0 118.5 52t34.5 150q0 97 -34.5 148t-118.5 51q-83 0 -118.5 -51.5t-35.5 -147.5q0 -97 35.5 -149.5t118.5 -52.5zM121 630h262v-40h-262v40z" />
    <glyph glyph-name="Obreve" unicode="&#x14e;" horiz-adv-x="656" 
d="M108 337q0 -149 50 -228.5t171 -79.5q120 0 170 79.5t50 228.5q0 150 -50.5 229.5t-171.5 79.5q-119 0 -169 -80t-50 -229zM591 337q0 -348 -264 -348q-262 0 -262 348q0 349 264 349q262 0 262 -349zM414 882h36q0 -55 -34 -90t-88 -35q-53 0 -87 35t-34 90h35
q0 -40 22.5 -64.5t63.5 -24.5q42 0 64 24.5t22 64.5z" />
    <glyph glyph-name="obreve" unicode="&#x14f;" horiz-adv-x="504" 
d="M252 466q197 0 197 -237q0 -240 -199 -240q-195 0 -195 240q0 110 47.5 173.5t149.5 63.5zM252 27q84 0 118.5 52t34.5 150q0 97 -34.5 148t-118.5 51q-83 0 -118.5 -51.5t-35.5 -147.5q0 -97 35.5 -149.5t118.5 -52.5zM337 679h36q0 -55 -34 -90t-88 -35q-53 0 -87 35
t-34 90h35q0 -40 22.5 -64.5t63.5 -24.5q42 0 64 24.5t22 64.5z" />
    <glyph glyph-name="Ohungarumlaut" unicode="&#x150;" horiz-adv-x="656" 
d="M108 337q0 -149 50 -228.5t171 -79.5q120 0 170 79.5t50 228.5q0 150 -50.5 229.5t-171.5 79.5q-119 0 -169 -80t-50 -229zM591 337q0 -348 -264 -348q-262 0 -262 348q0 349 264 349q262 0 262 -349zM315 899h49l-87 -147h-41zM445 899h49l-87 -147h-41z" />
    <glyph glyph-name="ohungarumlaut" unicode="&#x151;" horiz-adv-x="504" 
d="M252 466q197 0 197 -237q0 -240 -199 -240q-195 0 -195 240q0 110 47.5 173.5t149.5 63.5zM252 27q84 0 118.5 52t34.5 150q0 97 -34.5 148t-118.5 51q-83 0 -118.5 -51.5t-35.5 -147.5q0 -97 35.5 -149.5t118.5 -52.5zM241 696h49l-87 -147h-41zM371 696h49l-87 -147
h-41z" />
    <glyph glyph-name="OE" unicode="&#x152;" horiz-adv-x="867" 
d="M769 154h39v-154h-375q-39 -11 -105 -11q-142 0 -202 91t-60 257q0 81 13 142t42.5 109t82 73t126.5 25q62 0 104 -10h370v-143h-39v103h-295v-265h260v-40h-260v-291h299v114zM109 337q0 -154 49.5 -231t171.5 -77q61 0 101 13v590q-44 14 -103 14q-121 0 -170 -77
t-49 -232z" />
    <glyph glyph-name="oe" unicode="&#x153;" horiz-adv-x="824" 
d="M599 27q82 0 155 58l15 -35q-72 -61 -171 -61q-131 0 -173 108q-44 -108 -175 -108q-195 0 -195 240q0 110 47.5 173.5t149.5 63.5q132 0 175 -110q44 110 168 110q83 0 127.5 -54t44.5 -132q0 -31 -5 -63h-315q1 -92 36.5 -141t115.5 -49zM252 27q84 0 118.5 52
t34.5 150q0 97 -34.5 148t-118.5 51q-83 0 -118.5 -51.5t-35.5 -147.5q0 -97 35.5 -149.5t118.5 -52.5zM448 254h276q2 12 2 24q0 68 -33.5 109t-98.5 41q-75 0 -108 -46t-38 -128z" />
    <glyph glyph-name="Racute" unicode="&#x154;" horiz-adv-x="631" 
d="M131 40v596h-80v40h277q206 0 206 -177q0 -78 -45.5 -124t-131.5 -54q55 -36 103 -112.5t75 -168.5h87v-40h-204v40h72q-24 87 -72.5 161.5t-114.5 117.5h-133v-279h96v-40h-214v40h79zM491 498q0 70 -36.5 104t-126.5 34h-158v-277h149q91 0 131.5 35t40.5 104zM321 899
h49l-87 -147h-41z" />
    <glyph glyph-name="racute" unicode="&#x155;" horiz-adv-x="383" 
d="M44 418v38h111v-97q18 46 54.5 76.5t78.5 30.5q44 0 76 -8l-7 -54l-69 21q-37 -3 -75 -35.5t-58 -80.5v-271h117v-38h-228v33l72 10v375h-72zM222 696h49l-87 -147h-41z" />
    <glyph glyph-name="Rcommaaccent" unicode="&#x156;" horiz-adv-x="630" 
d="M131 40v596h-80v40h277q206 0 206 -177q0 -78 -45.5 -124t-131.5 -54q55 -36 103 -112.5t75 -168.5h87v-40h-204v40h72q-24 87 -72.5 161.5t-114.5 117.5h-133v-279h96v-40h-214v40h79zM491 498q0 70 -36.5 104t-126.5 34h-158v-277h149q91 0 131.5 35t40.5 104zM348 -73
l-42 -143h-34l25 143h51z" />
    <glyph glyph-name="rcommaaccent" unicode="&#x157;" horiz-adv-x="384" 
d="M44 418v38h111v-97q18 46 54.5 76.5t78.5 30.5q44 0 76 -8l-7 -54l-69 21q-37 -3 -75 -35.5t-58 -80.5v-271h117v-38h-228v33l72 10v375h-72zM175 -73l-42 -143h-34l25 143h51z" />
    <glyph glyph-name="Rcaron" unicode="&#x158;" horiz-adv-x="631" 
d="M131 40v596h-80v40h277q206 0 206 -177q0 -78 -45.5 -124t-131.5 -54q55 -36 103 -112.5t75 -168.5h87v-40h-204v40h72q-24 87 -72.5 161.5t-114.5 117.5h-133v-279h96v-40h-214v40h79zM491 498q0 70 -36.5 104t-126.5 34h-158v-277h149q91 0 131.5 35t40.5 104zM302 752
h-49l-99 147h41l83 -113l82 113h41z" />
    <glyph glyph-name="rcaron" unicode="&#x159;" horiz-adv-x="383" 
d="M44 418v38h111v-97q18 46 54.5 76.5t78.5 30.5q44 0 76 -8l-7 -54l-69 21q-37 -3 -75 -35.5t-58 -80.5v-271h117v-38h-228v33l72 10v375h-72zM222 549h-49l-99 147h41l83 -113l82 113h41z" />
    <glyph glyph-name="Sacute" unicode="&#x15a;" horiz-adv-x="524" 
d="M442 650v-158h-33l-11 131q-61 22 -130 22q-71 0 -111 -40.5t-40 -98.5q0 -52 27.5 -81t88.5 -51l83 -31q70 -26 108.5 -67t38.5 -108q0 -72 -56 -125.5t-150 -53.5q-108 0 -180 41l-11 174h33l19 -147q63 -28 139 -28q70 0 116.5 38t46.5 101q0 93 -121 138l-89 33
q-66 25 -100.5 63t-34.5 104q0 72 52.5 126t140.5 54q89 0 174 -36zM317 899h49l-87 -147h-41z" />
    <glyph glyph-name="sacute" unicode="&#x15b;" horiz-adv-x="430" 
d="M361 440v-120h-32l-10 93q-43 15 -98 15t-82.5 -26t-27.5 -62q0 -56 69 -78l86 -28q111 -35 111 -122q0 -54 -45.5 -88.5t-118.5 -34.5q-68 0 -149 36l-13 138h32l23 -114q50 -22 107 -22q54 0 88 22.5t34 62.5q0 34 -20.5 52.5t-62.5 31.5l-89 29q-94 31 -94 114
q0 53 39.5 90t112.5 37q69 0 140 -26zM280 696h49l-87 -147h-41z" />
    <glyph glyph-name="Scircumflex" unicode="&#x15c;" horiz-adv-x="524" 
d="M442 650v-158h-33l-11 131q-61 22 -130 22q-71 0 -111 -40.5t-40 -98.5q0 -52 27.5 -81t88.5 -51l83 -31q70 -26 108.5 -67t38.5 -108q0 -72 -56 -125.5t-150 -53.5q-108 0 -180 41l-11 174h33l19 -147q63 -28 139 -28q70 0 116.5 38t46.5 101q0 93 -121 138l-89 33
q-66 25 -100.5 63t-34.5 104q0 72 52.5 126t140.5 54q89 0 174 -36zM231 899h49l99 -147h-41l-83 113l-82 -113h-41z" />
    <glyph glyph-name="scircumflex" unicode="&#x15d;" horiz-adv-x="430" 
d="M361 440v-120h-32l-10 93q-43 15 -98 15t-82.5 -26t-27.5 -62q0 -56 69 -78l86 -28q111 -35 111 -122q0 -54 -45.5 -88.5t-118.5 -34.5q-68 0 -149 36l-13 138h32l23 -114q50 -22 107 -22q54 0 88 22.5t34 62.5q0 34 -20.5 52.5t-62.5 31.5l-89 29q-94 31 -94 114
q0 53 39.5 90t112.5 37q69 0 140 -26zM194 696h49l99 -147h-41l-83 113l-82 -113h-41z" />
    <glyph glyph-name="Scedilla" unicode="&#x15e;" horiz-adv-x="523" 
d="M441 650v-158h-33l-11 131q-61 22 -130 22q-71 0 -111 -40.5t-40 -98.5q0 -52 27.5 -81t88.5 -51l83 -31q70 -27 108.5 -67.5t38.5 -107.5q0 -68 -50 -119.5t-134 -58.5l-19 -51q10 4 25 4q26 0 44.5 -19t18.5 -48q0 -31 -23 -52.5t-68 -21.5q-40 0 -94 23l9 39
q46 -26 85 -26q50 0 50 38q0 16 -12.5 26t-30.5 10q-19 0 -31 -4q-7 3 -19 8l25 74q-98 4 -162 40l-11 174h33l19 -147q63 -28 139 -28q70 0 116.5 38t46.5 101q0 93 -121 138l-89 33q-66 25 -100.5 63t-34.5 104q0 72 52.5 126t140.5 54q89 0 174 -36z" />
    <glyph glyph-name="scedilla" unicode="&#x15f;" horiz-adv-x="430" 
d="M361 440v-120h-32l-10 93q-43 15 -98 15t-82.5 -26t-27.5 -62q0 -56 69 -78l86 -28q111 -35 111 -122q0 -50 -40 -83.5t-105 -38.5l-19 -51q10 4 25 4q26 0 44.5 -19t18.5 -48q0 -31 -23 -52.5t-68 -21.5q-40 0 -94 23l9 39q46 -26 85 -26q50 0 50 38q0 16 -12.5 26
t-30.5 10q-19 0 -31 -4q-7 3 -19 8l25 74q-64 6 -128 35l-13 138h32l23 -114q50 -22 107 -22q54 0 88 22.5t34 62.5q0 34 -20.5 52.5t-62.5 31.5l-89 29q-94 31 -94 114q0 53 39.5 90t112.5 37q69 0 140 -26z" />
    <glyph glyph-name="Scaron" unicode="&#x160;" horiz-adv-x="524" 
d="M442 650v-158h-33l-11 131q-61 22 -130 22q-71 0 -111 -40.5t-40 -98.5q0 -52 27.5 -81t88.5 -51l83 -31q70 -26 108.5 -67t38.5 -108q0 -72 -56 -125.5t-150 -53.5q-108 0 -180 41l-11 174h33l19 -147q63 -28 139 -28q70 0 116.5 38t46.5 101q0 93 -121 138l-89 33
q-66 25 -100.5 63t-34.5 104q0 72 52.5 126t140.5 54q89 0 174 -36zM285 752h-49l-99 147h41l83 -113l82 113h41z" />
    <glyph glyph-name="scaron" unicode="&#x161;" horiz-adv-x="430" 
d="M361 440v-120h-32l-10 93q-43 15 -98 15t-82.5 -26t-27.5 -62q0 -56 69 -78l86 -28q111 -35 111 -122q0 -54 -45.5 -88.5t-118.5 -34.5q-68 0 -149 36l-13 138h32l23 -114q50 -22 107 -22q54 0 88 22.5t34 62.5q0 34 -20.5 52.5t-62.5 31.5l-89 29q-94 31 -94 114
q0 53 39.5 90t112.5 37q69 0 140 -26zM243 549h-49l-99 147h41l83 -113l82 113h41z" />
    <glyph glyph-name="Tcommaaccent" unicode="&#x162;" horiz-adv-x="551" 
d="M32 676h488v-147h-37v107h-191v-596h101v-40h-106l-22 -60q10 4 25 4q26 0 44.5 -19t18.5 -48q0 -31 -23 -52.5t-68 -21.5q-40 0 -94 23l9 39q46 -26 85 -26q50 0 50 38q0 16 -12.5 26t-30.5 10q-19 0 -31 -4q-7 3 -19 8l28 83h-97v40h103v596h-184v-107h-37v147z" />
    <glyph glyph-name="tcommaaccent" unicode="&#x163;" horiz-adv-x="330" 
d="M147 418v-304q0 -87 71 -87q42 0 73 16l14 -36q-32 -15 -77 -18l-19 -50q10 4 25 4q26 0 44.5 -19t18.5 -48q0 -31 -23 -52.5t-68 -21.5q-40 0 -94 23l9 39q46 -26 85 -26q50 0 50 38q0 16 -12.5 26t-30.5 10q-19 0 -31 -4q-7 3 -19 8l26 75q-81 15 -81 122v305h-90v28
l90 10v118l39 10v-128h141v-38h-141z" />
    <glyph glyph-name="Tcaron" unicode="&#x164;" horiz-adv-x="551" 
d="M32 676h488v-147h-37v107h-191v-596h101v-40h-243v40h103v596h-184v-107h-37v147zM301 752h-49l-99 147h41l83 -113l82 113h41z" />
    <glyph glyph-name="tcaron" unicode="&#x165;" horiz-adv-x="330" 
d="M147 418v-304q0 -87 71 -87q42 0 73 16l14 -36q-36 -18 -91 -18q-53 0 -79.5 33t-26.5 91v305h-90v28l90 10v118l39 10v-128h141v-38h-141zM393 696l-42 -143h-34l25 143h51z" />
    <glyph glyph-name="Tbar" unicode="&#x166;" horiz-adv-x="551" 
d="M145 346h108v290h-184v-107h-37v147h488v-147h-37v107h-191v-290h115v-40h-115v-266h101v-40h-243v40h103v266h-108v40z" />
    <glyph glyph-name="tbar" unicode="&#x167;" horiz-adv-x="334" 
d="M151 418v-149h98v-39h-98v-116q0 -87 71 -87q42 0 73 16l14 -36q-36 -18 -91 -18q-53 0 -79.5 33t-26.5 91v117h-82v39h82v149h-90v28l90 10v118l39 10v-128h141v-38h-141z" />
    <glyph glyph-name="Utilde" unicode="&#x168;" horiz-adv-x="694" 
d="M347 -11q-235 0 -235 256v391h-73v40h220v-40h-108v-396q0 -116 52.5 -163.5t144.5 -47.5q91 0 143 47.5t52 163.5v396h-107v40h219v-40h-73v-391q0 -256 -235 -256zM476 820l-10 -38q-23 25 -54 25q-20 0 -61 -16.5t-70 -16.5q-19 0 -37.5 8.5t-26.5 18.5l10 36
q21 -23 54 -23q24 0 63.5 16.5t67.5 16.5q37 0 64 -27z" />
    <glyph glyph-name="utilde" unicode="&#x169;" horiz-adv-x="555" 
d="M453 456v-418h72v-38h-111v66q-25 -30 -72 -53.5t-96 -23.5q-82 0 -112 40t-30 130v259h-82v38h121v-297q0 -68 19 -99.5t84 -31.5q53 0 99.5 26.5t68.5 59.5v304h-103v38h142zM405 617l-10 -38q-23 25 -54 25q-20 0 -61 -16.5t-70 -16.5q-19 0 -37.5 8.5t-26.5 18.5
l10 36q21 -23 54 -23q24 0 63.5 16.5t67.5 16.5q37 0 64 -27z" />
    <glyph glyph-name="Umacron" unicode="&#x16a;" horiz-adv-x="694" 
d="M347 -11q-235 0 -235 256v391h-73v40h220v-40h-108v-396q0 -116 52.5 -163.5t144.5 -47.5q91 0 143 47.5t52 163.5v396h-107v40h219v-40h-73v-391q0 -256 -235 -256zM216 833h262v-40h-262v40z" />
    <glyph glyph-name="umacron" unicode="&#x16b;" horiz-adv-x="555" 
d="M453 456v-418h72v-38h-111v66q-25 -30 -72 -53.5t-96 -23.5q-82 0 -112 40t-30 130v259h-82v38h121v-297q0 -68 19 -99.5t84 -31.5q53 0 99.5 26.5t68.5 59.5v304h-103v38h142zM149 630h262v-40h-262v40z" />
    <glyph glyph-name="Ubreve" unicode="&#x16c;" horiz-adv-x="694" 
d="M347 -11q-235 0 -235 256v391h-73v40h220v-40h-108v-396q0 -116 52.5 -163.5t144.5 -47.5q91 0 143 47.5t52 163.5v396h-107v40h219v-40h-73v-391q0 -256 -235 -256zM432 882h36q0 -55 -34 -90t-88 -35q-53 0 -87 35t-34 90h35q0 -40 22.5 -64.5t63.5 -24.5q42 0 64 24.5
t22 64.5z" />
    <glyph glyph-name="ubreve" unicode="&#x16d;" horiz-adv-x="555" 
d="M453 456v-418h72v-38h-111v66q-25 -30 -72 -53.5t-96 -23.5q-82 0 -112 40t-30 130v259h-82v38h121v-297q0 -68 19 -99.5t84 -31.5q53 0 99.5 26.5t68.5 59.5v304h-103v38h142zM363 679h36q0 -55 -34 -90t-88 -35q-53 0 -87 35t-34 90h35q0 -40 22.5 -64.5t63.5 -24.5
q42 0 64 24.5t22 64.5z" />
    <glyph glyph-name="Uring" unicode="&#x16e;" horiz-adv-x="694" 
d="M347 -11q-235 0 -235 256v391h-73v40h220v-40h-108v-396q0 -116 52.5 -163.5t144.5 -47.5q91 0 143 47.5t52 163.5v396h-107v40h219v-40h-73v-391q0 -256 -235 -256zM248 828q0 40 27 64.5t71 24.5t71.5 -24.5t27.5 -64.5t-27.5 -65t-71.5 -25t-71 25t-27 65zM285 828
q0 -27 16.5 -42.5t44.5 -15.5q29 0 45.5 15.5t16.5 42.5t-16.5 42.5t-45.5 15.5q-28 0 -44.5 -15.5t-16.5 -42.5z" />
    <glyph glyph-name="uring" unicode="&#x16f;" horiz-adv-x="555" 
d="M453 456v-418h72v-38h-111v66q-25 -30 -72 -53.5t-96 -23.5q-82 0 -112 40t-30 130v259h-82v38h121v-297q0 -68 19 -99.5t84 -31.5q53 0 99.5 26.5t68.5 59.5v304h-103v38h142zM177 625q0 40 27 64.5t71 24.5t71.5 -24.5t27.5 -64.5t-27.5 -65t-71.5 -25t-71 25t-27 65z
M214 625q0 -27 16.5 -42.5t44.5 -15.5q29 0 45.5 15.5t16.5 42.5t-16.5 42.5t-45.5 15.5q-28 0 -44.5 -15.5t-16.5 -42.5z" />
    <glyph glyph-name="Uhungarumlaut" unicode="&#x170;" horiz-adv-x="694" 
d="M347 -11q-235 0 -235 256v391h-73v40h220v-40h-108v-396q0 -116 52.5 -163.5t144.5 -47.5q91 0 143 47.5t52 163.5v396h-107v40h219v-40h-73v-391q0 -256 -235 -256zM337 899h49l-87 -147h-41zM467 899h49l-87 -147h-41z" />
    <glyph glyph-name="uhungarumlaut" unicode="&#x171;" horiz-adv-x="555" 
d="M453 456v-418h72v-38h-111v66q-25 -30 -72 -53.5t-96 -23.5q-82 0 -112 40t-30 130v259h-82v38h121v-297q0 -68 19 -99.5t84 -31.5q53 0 99.5 26.5t68.5 59.5v304h-103v38h142zM263 696h49l-87 -147h-41zM393 696h49l-87 -147h-41z" />
    <glyph glyph-name="Uogonek" unicode="&#x172;" horiz-adv-x="692" 
d="M251 -122q0 43 49 84l32 27q-221 7 -221 256v391h-73v40h220v-40h-108v-396q0 -116 52.5 -163.5t144.5 -47.5q91 0 143 47.5t52 163.5v396h-107v40h219v-40h-73v-391q0 -232 -193 -253l-59 -48q-37 -30 -37 -64q0 -40 45 -40q27 0 53 17l12 -33q-38 -19 -69 -19
q-36 0 -59 19.5t-23 53.5z" />
    <glyph glyph-name="uogonek" unicode="&#x173;" horiz-adv-x="555" 
d="M453 456v-418h72v-38l-70 -56q-37 -30 -37 -64q0 -40 45 -40q27 0 53 17l12 -33q-38 -19 -69 -19q-36 0 -59 19.5t-23 53.5q0 43 49 84l46 38h-58v66q-25 -30 -72 -53.5t-96 -23.5q-82 0 -112 40t-30 130v259h-82v38h121v-297q0 -68 19 -99.5t84 -31.5q53 0 99.5 26.5
t68.5 59.5v304h-103v38h142z" />
    <glyph glyph-name="Wcircumflex" unicode="&#x174;" horiz-adv-x="979" 
d="M727 636v40h247v-40h-73l-184 -636h-51l-174 484l-176 -484h-52l-187 636h-73v40h227v-40h-111l172 -595l179 495l-51 140h45l226 -634l171 594h-135zM464 899h49l99 -147h-41l-83 113l-82 -113h-41z" />
    <glyph glyph-name="wcircumflex" unicode="&#x175;" horiz-adv-x="791" 
d="M570 418v38h207v-38h-64l-135 -418h-49l-131 313l-136 -313h-47l-140 418h-61v38h197v-38h-92l123 -375l133 313l-43 100h45l176 -413l117 375h-100zM371 696h49l99 -147h-41l-83 113l-82 -113h-41z" />
    <glyph glyph-name="Ycircumflex" unicode="&#x176;" horiz-adv-x="596" 
d="M6 636v40h203v-40h-97l187 -321l191 321h-99v40h204v-40h-59l-219 -359v-237h100v-40h-244v40h105v237l-212 359h-60zM276 899h49l99 -147h-41l-83 113l-82 -113h-41z" />
    <glyph glyph-name="ycircumflex" unicode="&#x177;" horiz-adv-x="577" 
d="M86 -217v38h105l90 196l-164 401h-105v38h147v-33l144 -362l156 357h-134v38h239v-38h-60l-266 -592q-24 -52 -80 -52q-38 0 -72 9zM284 696h49l99 -147h-41l-83 113l-82 -113h-41z" />
    <glyph glyph-name="Ydieresis" unicode="&#x178;" horiz-adv-x="596" 
d="M6 636v40h203v-40h-97l187 -321l191 321h-99v40h204v-40h-59l-219 -359v-237h100v-40h-244v40h105v237l-212 359h-60zM215 784q-39 0 -39 39q0 40 39 40q16 0 27.5 -10t11.5 -30q0 -19 -11.5 -29t-27.5 -10zM385 784q-39 0 -39 39q0 40 39 40q16 0 27.5 -10t11.5 -30
q0 -19 -11.5 -29t-27.5 -10z" />
    <glyph glyph-name="Zacute" unicode="&#x179;" horiz-adv-x="551" 
d="M492 676v-40l-398 -596h352v147h40v-187h-438v40l396 596h-334v-126h-39v166h421zM317 899h49l-87 -147h-41z" />
    <glyph glyph-name="zacute" unicode="&#x17a;" horiz-adv-x="440" 
d="M378 456v-38l-283 -380h248l10 110h31v-148h-336v38l283 380h-229l-10 -89h-31v127h317zM251 696h49l-87 -147h-41z" />
    <glyph glyph-name="Zdotaccent" unicode="&#x17b;" horiz-adv-x="551" 
d="M492 676v-40l-398 -596h352v147h40v-187h-438v40l396 596h-334v-126h-39v166h421zM284 784q-39 0 -39 39q0 40 39 40q16 0 27.5 -10t11.5 -30q0 -19 -11.5 -29t-27.5 -10z" />
    <glyph glyph-name="zdotaccent" unicode="&#x17c;" horiz-adv-x="440" 
d="M378 456v-38l-283 -380h248l10 110h31v-148h-336v38l283 380h-229l-10 -89h-31v127h317zM215 581q-39 0 -39 39q0 40 39 40q16 0 27.5 -10t11.5 -30q0 -19 -11.5 -29t-27.5 -10z" />
    <glyph glyph-name="Zcaron" unicode="&#x17d;" horiz-adv-x="551" 
d="M492 676v-40l-398 -596h352v147h40v-187h-438v40l396 596h-334v-126h-39v166h421zM309 752h-49l-99 147h41l83 -113l82 113h41z" />
    <glyph glyph-name="zcaron" unicode="&#x17e;" horiz-adv-x="440" 
d="M378 456v-38l-283 -380h248l10 110h31v-148h-336v38l283 380h-229l-10 -89h-31v127h317zM240 549h-49l-99 147h41l83 -113l82 113h41z" />
    <glyph glyph-name="florin" unicode="&#x192;" 
d="M295 419v-487q0 -158 -125 -158q-24 0 -46 6v41q28 -7 47 -7q48 0 66.5 29.5t18.5 88.5v487h-106v37h106v92q0 158 125 158q24 0 46 -6v-41q-28 7 -47 7q-48 0 -66.5 -29.5t-18.5 -88.5v-92h116v-37h-116z" />
    <glyph glyph-name="Aringacute" unicode="&#x1fa;" horiz-adv-x="683" 
d="M242 808q0 39 25.5 63t66.5 26l59 72h49l-69 -76q30 -8 48 -30.5t18 -54.5q0 -40 -27.5 -65t-71.5 -25t-71 25t-27 65zM279 808q0 -27 16.5 -42.5t44.5 -15.5q29 0 45.5 15.5t16.5 42.5t-16.5 42.5t-45.5 15.5q-28 0 -44.5 -15.5t-16.5 -42.5zM465 0v40h101l-72 190h-307
l-74 -190h103v-40h-212v40h65l233 596h-62v40h203v-40h-60l230 -596h64v-40h-212zM200 270h281l-138 366z" />
    <glyph glyph-name="aringacute" unicode="&#x1fb;" horiz-adv-x="483" 
d="M117 397v-91h-30q-11 37 -11 71q0 42 40.5 65.5t118.5 23.5q26 0 46.5 -2t35.5 -6.5t27 -10.5t19.5 -14t12.5 -17.5t7.5 -21t4 -25t1.5 -28v-30.5v-19v-219q0 -39 29 -39q17 0 43 6v-39q-23 -5 -49 -5q-27 0 -44 16t-17 48q-71 -71 -161 -71q-142 0 -142 126
q0 61 50.5 92t147.5 45l103 15v130q-36 31 -114 31q-84 0 -118 -31zM142 615q0 38 24.5 62t64.5 27l57 69h49l-65 -73q31 -8 49 -30.5t18 -54.5q0 -40 -27.5 -65t-71.5 -25t-71 25t-27 65zM91 115q0 -88 99 -88q51 0 93 21t66 48v135l-99 -15q-83 -12 -121 -33.5t-38 -67.5z
M179 615q0 -27 16.5 -42.5t44.5 -15.5q29 0 45.5 15.5t16.5 42.5t-16.5 42.5t-45.5 15.5q-28 0 -44.5 -15.5t-16.5 -42.5z" />
    <glyph glyph-name="AEacute" unicode="&#x1fc;" horiz-adv-x="998" 
d="M708 899h49l-87 -147h-41zM287 270h275v366zM452 676h483v-143h-39v103h-295v-265h260v-40h-260v-291h299v114h39v-154h-478v40h101v190h-306l-144 -190h100v-40h-212v40h65l449 596h-62v40z" />
    <glyph glyph-name="aeacute" unicode="&#x1fd;" horiz-adv-x="768" 
d="M470 696h49l-87 -147h-41zM543 27q82 0 155 58l15 -35q-72 -61 -171 -61q-61 0 -105 26t-61 69q-14 -38 -70.5 -66.5t-115.5 -28.5q-142 0 -142 126q0 61 50.5 92t147.5 45l103 15v130q-36 31 -114 31q-84 0 -118 -31v-91h-30q-11 37 -11 71q0 42 40.5 65.5t118.5 23.5
q140 0 154 -76q44 76 150 76q83 0 127.5 -54t44.5 -132q0 -31 -5 -63h-314q0 -92 35 -141t116 -49zM392 254h276q2 12 2 24q0 68 -33.5 109t-98.5 41q-75 0 -108 -46t-38 -128zM91 115q0 -88 99 -88q51 0 93 21t66 48v135l-99 -15q-83 -12 -121 -33.5t-38 -67.5z" />
    <glyph glyph-name="Oslashacute" unicode="&#x1fe;" horiz-adv-x="656" 
d="M591 337q0 -348 -264 -348q-69 0 -122 25l-22 -52h-36v12l25 60q-107 79 -107 303q0 349 264 349q63 0 113 -22l18 42h39v-10l-22 -51q114 -79 114 -308zM549 337q0 201 -89 270l-238 -555q44 -23 107 -23q120 0 170 79.5t50 228.5zM108 337q0 -194 81 -264l237 554
q-43 19 -99 19q-119 0 -169 -80t-50 -229zM378 899h49l-87 -147h-41z" />
    <glyph glyph-name="oslashacute" unicode="&#x1ff;" horiz-adv-x="504" 
d="M252 466q28 0 48 -4l19 61h39v-10l-20 -62q111 -45 111 -222q0 -240 -199 -240q-30 0 -55 6l-19 -63h-36v12l19 62q-104 49 -104 223q0 110 47.5 173.5t149.5 63.5zM296 696h49l-87 -147h-41zM252 27q84 0 118.5 52t34.5 150q0 147 -78 184l-120 -382q17 -4 45 -4z
M98 229q0 -143 73 -184l118 380q-18 3 -37 3q-83 0 -118.5 -51.5t-35.5 -147.5z" />
    <glyph glyph-name="Scommaaccent" unicode="&#x218;" horiz-adv-x="523" 
d="M441 650v-158h-33l-11 131q-61 22 -130 22q-71 0 -111 -40.5t-40 -98.5q0 -52 27.5 -81t88.5 -51l83 -31q70 -26 108.5 -67t38.5 -108q0 -72 -56 -125.5t-150 -53.5q-108 0 -180 41l-11 174h33l19 -147q63 -28 139 -28q70 0 116.5 38t46.5 101q0 93 -121 138l-89 33
q-66 25 -100.5 63t-34.5 104q0 72 52.5 126t140.5 54q89 0 174 -36zM302 -73l-42 -143h-34l25 143h51z" />
    <glyph glyph-name="scommaaccent" unicode="&#x219;" horiz-adv-x="430" 
d="M361 440v-120h-32l-10 93q-43 15 -98 15t-82.5 -26t-27.5 -62q0 -56 69 -78l86 -28q111 -35 111 -122q0 -54 -45.5 -88.5t-118.5 -34.5q-68 0 -149 36l-13 138h32l23 -114q50 -22 107 -22q54 0 88 22.5t34 62.5q0 34 -20.5 52.5t-62.5 31.5l-89 29q-94 31 -94 114
q0 53 39.5 90t112.5 37q69 0 140 -26zM246 -73l-42 -143h-34l25 143h51z" />
    <glyph glyph-name="uni021A" unicode="&#x21a;" horiz-adv-x="553" 
d="M33 676h488v-147h-37v107h-191v-596h101v-40h-243v40h103v596h-184v-107h-37v147zM302 -73l-42 -143h-34l25 143h51z" />
    <glyph glyph-name="uni021B" unicode="&#x21b;" horiz-adv-x="330" 
d="M147 418v-304q0 -87 71 -87q42 0 73 16l14 -36q-36 -18 -91 -18q-53 0 -79.5 33t-26.5 91v305h-90v28l90 10v118l39 10v-128h141v-38h-141zM222 -73l-42 -143h-34l25 143h51z" />
    <glyph glyph-name="dotlessj" unicode="&#x237;" horiz-adv-x="239" 
d="M43 -226l-13 38q51 17 68.5 47t17.5 103v456h-94v38h133v-494q0 -81 -23 -126t-89 -62z" />
    <glyph glyph-name="circumflex" unicode="&#x2c6;" horiz-adv-x="600" 
d="M275 696h49l99 -147h-41l-83 113l-82 -113h-41z" />
    <glyph glyph-name="caron" unicode="&#x2c7;" horiz-adv-x="600" 
d="M324 549h-49l-99 147h41l83 -113l82 113h41z" />
    <glyph glyph-name="breve" unicode="&#x2d8;" horiz-adv-x="600" 
d="M385 679h36q0 -55 -34 -90t-88 -35q-53 0 -87 35t-34 90h35q0 -40 22.5 -64.5t63.5 -24.5q42 0 64 24.5t22 64.5z" />
    <glyph glyph-name="dotaccent" unicode="&#x2d9;" horiz-adv-x="600" 
d="M300 581q-39 0 -39 39q0 40 39 40q16 0 27.5 -10t11.5 -30q0 -19 -11.5 -29t-27.5 -10z" />
    <glyph glyph-name="ring" unicode="&#x2da;" horiz-adv-x="600" 
d="M201 625q0 40 27 64.5t71 24.5t71.5 -24.5t27.5 -64.5t-27.5 -65t-71.5 -25t-71 25t-27 65zM238 625q0 -27 16.5 -42.5t44.5 -15.5q29 0 45.5 15.5t16.5 42.5t-16.5 42.5t-45.5 15.5q-28 0 -44.5 -15.5t-16.5 -42.5z" />
    <glyph glyph-name="ogonek" unicode="&#x2db;" horiz-adv-x="600" 
d="M371 1l1 -1l-70 -56q-37 -30 -37 -64q0 -40 45 -40q28 0 53 17l12 -33q-38 -19 -69 -19q-36 0 -59 19.5t-23 53.5q0 43 49 84l59 49z" />
    <glyph glyph-name="tilde" unicode="&#x2dc;" horiz-adv-x="600" 
d="M429 617l-10 -38q-23 25 -54 25q-20 0 -61 -16.5t-70 -16.5q-19 0 -37.5 8.5t-26.5 18.5l10 36q21 -23 54 -23q24 0 63.5 16.5t67.5 16.5q37 0 64 -27z" />
    <glyph glyph-name="hungarumlaut" unicode="&#x2dd;" horiz-adv-x="600" 
d="M250 696h49l-87 -147h-41zM380 696h49l-87 -147h-41z" />
    <glyph glyph-name="uni0394" unicode="&#x394;" horiz-adv-x="712" 
d="M36 0l292 676h58l290 -676h-640zM607 40l-249 599l-255 -599h504z" />
    <glyph glyph-name="uni03A9" unicode="&#x3a9;" horiz-adv-x="680" 
d="M64 40h173q-67 46 -116.5 133t-49.5 189q0 143 68 233.5t201 90.5t201 -90.5t68 -233.5q0 -102 -49.5 -189t-116.5 -133h173v-40h-227v40q78 51 127.5 134.5t49.5 189.5q0 130 -56 206t-170 76t-170 -76t-56 -206q0 -106 49.5 -189.5t127.5 -134.5v-40h-227v40z" />
    <glyph glyph-name="uni03BC" unicode="&#x3bc;" horiz-adv-x="589" 
d="M164 -216h-39v634h-82v38h121v-297q0 -65 24 -98t91 -33q52 0 93 25.5t64 60.5v304h-103v38h142v-418h72v-38h-111v66q-26 -32 -67.5 -54.5t-89.5 -22.5q-79 0 -115 37v-242z" />
    <glyph glyph-name="pi" unicode="&#x3c0;" horiz-adv-x="547" 
d="M114 0v418h-92v38h490v-38h-104v-304q0 -87 71 -87q11 0 28 3v-35q-13 -6 -32 -6q-53 0 -79.5 33t-26.5 91v305h-216v-418h-39z" />
    <glyph glyph-name="Wgrave" unicode="&#x1e80;" horiz-adv-x="979" 
d="M727 636v40h247v-40h-73l-184 -636h-51l-174 484l-176 -484h-52l-187 636h-73v40h227v-40h-111l172 -595l179 495l-51 140h45l226 -634l171 594h-135zM386 899h49l79 -147h-41z" />
    <glyph glyph-name="wgrave" unicode="&#x1e81;" horiz-adv-x="791" 
d="M570 418v38h207v-38h-64l-135 -418h-49l-131 313l-136 -313h-47l-140 418h-61v38h197v-38h-92l123 -375l133 313l-43 100h45l176 -413l117 375h-100zM310 696h49l79 -147h-41z" />
    <glyph glyph-name="Wacute" unicode="&#x1e82;" horiz-adv-x="979" 
d="M727 636v40h247v-40h-73l-184 -636h-51l-174 484l-176 -484h-52l-187 636h-73v40h227v-40h-111l172 -595l179 495l-51 140h45l226 -634l171 594h-135zM536 899h49l-87 -147h-41z" />
    <glyph glyph-name="wacute" unicode="&#x1e83;" horiz-adv-x="791" 
d="M570 418v38h207v-38h-64l-135 -418h-49l-131 313l-136 -313h-47l-140 418h-61v38h197v-38h-92l123 -375l133 313l-43 100h45l176 -413l117 375h-100zM423 696h49l-87 -147h-41z" />
    <glyph glyph-name="Wdieresis" unicode="&#x1e84;" horiz-adv-x="979" 
d="M727 636v40h247v-40h-73l-184 -636h-51l-174 484l-176 -484h-52l-187 636h-73v40h227v-40h-111l172 -595l179 495l-51 140h45l226 -634l171 594h-135zM403 784q-39 0 -39 39q0 40 39 40q16 0 27.5 -10t11.5 -30q0 -19 -11.5 -29t-27.5 -10zM573 784q-39 0 -39 39
q0 40 39 40q16 0 27.5 -10t11.5 -30q0 -19 -11.5 -29t-27.5 -10z" />
    <glyph glyph-name="wdieresis" unicode="&#x1e85;" horiz-adv-x="791" 
d="M570 418v38h207v-38h-64l-135 -418h-49l-131 313l-136 -313h-47l-140 418h-61v38h197v-38h-92l123 -375l133 313l-43 100h45l176 -413l117 375h-100zM310 581q-39 0 -39 39q0 40 39 40q16 0 27.5 -10t11.5 -30q0 -19 -11.5 -29t-27.5 -10zM480 581q-39 0 -39 39
q0 40 39 40q16 0 27.5 -10t11.5 -30q0 -19 -11.5 -29t-27.5 -10z" />
    <glyph glyph-name="Ygrave" unicode="&#x1ef2;" horiz-adv-x="596" 
d="M6 636v40h203v-40h-97l187 -321l191 321h-99v40h204v-40h-59l-219 -359v-237h100v-40h-244v40h105v237l-212 359h-60zM205 899h49l79 -147h-41z" />
    <glyph glyph-name="ygrave" unicode="&#x1ef3;" horiz-adv-x="577" 
d="M86 -217v38h105l90 196l-164 401h-105v38h147v-33l144 -362l156 357h-134v38h239v-38h-60l-266 -592q-24 -52 -80 -52q-38 0 -72 9zM206 696h49l79 -147h-41z" />
    <glyph glyph-name="endash" unicode="&#x2013;" horiz-adv-x="574" 
d="M71 289h432v-40h-432v40z" />
    <glyph glyph-name="emdash" unicode="&#x2014;" horiz-adv-x="714" 
d="M71 289h572v-40h-572v40z" />
    <glyph glyph-name="quoteleft" unicode="&#x2018;" horiz-adv-x="185" 
d="M54 483l42 193h34l-25 -193h-51z" />
    <glyph glyph-name="quoteright" unicode="&#x2019;" horiz-adv-x="182" 
d="M135 676l-42 -193h-34l25 193h51z" />
    <glyph glyph-name="quotesinglbase" unicode="&#x201a;" horiz-adv-x="191" 
d="M125 78l-42 -193h-34l25 193h51z" />
    <glyph glyph-name="quotedblleft" unicode="&#x201c;" horiz-adv-x="288" 
d="M157 483l42 193h34l-25 -193h-51zM54 483l42 193h34l-25 -193h-51z" />
    <glyph glyph-name="quotedblright" unicode="&#x201d;" horiz-adv-x="285" 
d="M135 676l-42 -193h-34l25 193h51zM238 676l-42 -193h-34l25 193h51z" />
    <glyph glyph-name="quotedblbase" unicode="&#x201e;" horiz-adv-x="294" 
d="M125 78l-42 -193h-34l25 193h51zM228 78l-42 -193h-34l25 193h51z" />
    <glyph glyph-name="dagger" unicode="&#x2020;" horiz-adv-x="434" 
d="M41 289h156v407h41v-407h155v-40h-155v-465h-41v465h-156v40z" />
    <glyph glyph-name="daggerdbl" unicode="&#x2021;" horiz-adv-x="452" 
d="M50 449h156v247h41v-247h155v-40h-155v-340h155v-40h-155v-245h-41v245h-156v40h156v340h-156v40z" />
    <glyph glyph-name="bullet" unicode="&#x2022;" 
d="M280 183q-38 0 -63 24.5t-25 61.5t25 61.5t63 24.5q39 0 63.5 -24t24.5 -62t-24.5 -62t-63.5 -24z" />
    <glyph glyph-name="ellipsis" unicode="&#x2026;" horiz-adv-x="535" 
d="M104 -7q-18 0 -30 12t-12 30t12 30t30 12q19 0 31 -12t12 -30t-12 -30t-31 -12zM267 -7q-18 0 -30 12t-12 30t12 30t30 12q19 0 31 -12t12 -30t-12 -30t-31 -12zM430 -7q-18 0 -30 12t-12 30t12 30t30 12q19 0 31 -12t12 -30t-12 -30t-31 -12z" />
    <glyph glyph-name="perthousand" unicode="&#x2030;" horiz-adv-x="944" 
d="M554 676v-5l-412 -671h-41v5l409 671h44zM185 686q68 0 101 -42t33 -108q0 -68 -33.5 -110t-100.5 -42q-66 0 -99 42t-33 110q0 65 34 107.5t98 42.5zM185 422q49 0 72.5 31t23.5 83q0 51 -23.5 81.5t-72.5 30.5q-48 0 -71 -30.5t-23 -81.5t23 -82.5t71 -31.5zM470 291
q68 0 101 -42t33 -108q0 -68 -33.5 -110t-100.5 -42q-66 0 -99 42t-33 110q0 65 34 107.5t98 42.5zM470 27q49 0 72.5 31.5t23.5 82.5t-23.5 81.5t-72.5 30.5q-48 0 -71 -30.5t-23 -81.5t23 -82.5t71 -31.5zM766 291q68 0 101 -42t33 -108q0 -68 -33.5 -110t-100.5 -42
q-66 0 -99 42t-33 110q0 65 34 107.5t98 42.5zM766 27q49 0 72.5 31.5t23.5 82.5t-23.5 81.5t-72.5 30.5q-48 0 -71 -30.5t-23 -81.5t23 -82.5t71 -31.5z" />
    <glyph glyph-name="guilsinglleft" unicode="&#x2039;" horiz-adv-x="289" 
d="M48 270l160 200l28 -28l-132 -172l132 -172l-28 -28z" />
    <glyph glyph-name="guilsinglright" unicode="&#x203a;" horiz-adv-x="289" 
d="M81 470l160 -200l-160 -200l-28 28l132 172l-132 172z" />
    <glyph glyph-name="fraction" unicode="&#x2044;" horiz-adv-x="90" 
d="M272 676v-5l-412 -671h-41v5l409 671h44z" />
    <glyph glyph-name="zerosuperior" unicode="&#x2070;" horiz-adv-x="344" 
d="M80 618q0 -72 20.5 -105t71.5 -33t71.5 33t20.5 105t-21 105.5t-72 33.5q-50 0 -70.5 -34t-20.5 -105zM305 618q0 -174 -134 -174q-72 0 -102 44.5t-30 129.5q0 175 132 175q71 0 102.5 -44.5t31.5 -130.5z" />
    <glyph glyph-name="foursuperior" unicode="&#x2074;" horiz-adv-x="314" 
d="M293 559v-34h-59v-75h-39v75h-179v31l141 180q10 13 18.5 26t12.5 20l3 6h43v-229h59zM61 559h134v171z" />
    <glyph glyph-name="fivesuperior" unicode="&#x2075;" horiz-adv-x="301" 
d="M34 473l2 69h34v-48q28 -14 68 -14q42 0 65 20.5t23 57.5q0 33 -20.5 52t-60.5 19q-41 0 -78 -20l-21 3l23 176h188v-36h-156l-15 -105q29 18 71 18q53 0 81 -28.5t28 -77.5q0 -54 -33 -84.5t-95 -30.5q-60 0 -104 29z" />
    <glyph glyph-name="sixsuperior" unicode="&#x2076;" horiz-adv-x="321" 
d="M185 757q-57 0 -82 -38t-25 -94q0 -6 1 -9q8 21 34 37t63 16q55 0 83 -29.5t28 -79.5q0 -53 -31.5 -84.5t-90.5 -31.5q-127 0 -127 166q0 183 148 183q49 0 93 -21l-15 -33q-39 18 -79 18zM167 480q42 0 61.5 21.5t19.5 56.5q0 72 -77 72q-65 0 -91 -54q8 -96 87 -96z
" />
    <glyph glyph-name="sevensuperior" unicode="&#x2077;" horiz-adv-x="272" 
d="M75 450l137 304h-149v-63h-37v97h235l-1 -30q-14 -17 -37 -71l-103 -237h-45z" />
    <glyph glyph-name="eightsuperior" unicode="&#x2078;" horiz-adv-x="329" 
d="M283 701q0 -47 -55 -80q63 -26 63 -80q0 -45 -34 -71t-93 -26q-58 0 -92.5 25t-34.5 70q0 56 61 85q-51 23 -51 75q0 41 30.5 67.5t86.5 26.5q58 0 88.5 -26t30.5 -66zM197 592l-69 21q-50 -28 -50 -71q0 -29 22.5 -45.5t65.5 -16.5q83 0 83 58q0 39 -52 54zM88 702
q0 -34 46 -49l61 -20q48 25 48 65q0 60 -81 60q-74 0 -74 -56z" />
    <glyph glyph-name="ninesuperior" unicode="&#x2079;" horiz-adv-x="322" 
d="M137 480q107 0 107 127q0 6 -1 10q-9 -22 -35.5 -37.5t-62.5 -15.5q-54 0 -82 30.5t-28 82.5t31.5 84t91.5 32q65 0 95.5 -45.5t30.5 -123.5q0 -180 -148 -180q-51 0 -93 23l15 34q40 -21 79 -21zM157 757q-42 0 -62 -22t-20 -56q0 -77 76 -77q63 0 91 55q-6 100 -85 100
z" />
    <glyph glyph-name="zeroinferior" unicode="&#x2080;" horiz-adv-x="342" 
d="M79 68q0 -72 20.5 -105t71.5 -33t71.5 33t20.5 105t-21 105.5t-72 33.5q-50 0 -70.5 -34t-20.5 -105zM304 68q0 -174 -134 -174q-72 0 -102 44.5t-30 129.5q0 175 132 175q71 0 102.5 -44.5t31.5 -130.5z" />
    <glyph glyph-name="oneinferior" unicode="&#x2081;" horiz-adv-x="262" 
d="M38 -100v36h93v262l-94 -29l-10 32l107 37h36v-302h80v-36h-212z" />
    <glyph glyph-name="twoinferior" unicode="&#x2082;" horiz-adv-x="307" 
d="M270 -100h-236v32q6 6 69 63t69 63q27 26 38 44.5t11 44.5q0 27 -18 44t-54 17q-35 0 -53.5 -17.5t-18.5 -46.5q0 -8 2 -16l-40 -3q-1 6 -1 19q0 44 29.5 71.5t81.5 27.5q56 0 84.5 -27t28.5 -69q0 -58 -66 -115q-80 -69 -107 -96h147v43h34v-79z" />
    <glyph glyph-name="threeinferior" unicode="&#x2083;" horiz-adv-x="304" 
d="M74 151h-32l-2 61q45 31 104 31q57 0 85 -25.5t28 -66.5q0 -33 -18.5 -53t-45.5 -26q74 -15 74 -82q0 -44 -32.5 -70t-93.5 -26q-69 0 -111 37l19 31q38 -32 92 -32q85 0 85 61q0 60 -91 60h-39v36h37q38 0 60.5 15t22.5 45q0 60 -73 60q-39 0 -69 -16v-40z" />
    <glyph glyph-name="fourinferior" unicode="&#x2084;" horiz-adv-x="313" 
d="M293 9v-34h-59v-75h-39v75h-179v31l141 180q10 13 18.5 26t12.5 20l3 6h43v-229h59zM61 9h134v171z" />
    <glyph glyph-name="fiveinferior" unicode="&#x2085;" horiz-adv-x="302" 
d="M34 -77l2 69h34v-48q28 -14 68 -14q42 0 65 20.5t23 57.5q0 33 -20.5 52t-60.5 19q-41 0 -78 -20l-21 3l23 176h188v-36h-156l-15 -105q29 18 71 18q53 0 81 -28.5t28 -77.5q0 -54 -33 -84.5t-95 -30.5q-60 0 -104 29z" />
    <glyph glyph-name="sixinferior" unicode="&#x2086;" horiz-adv-x="321" 
d="M185 207q-57 0 -82 -38t-25 -94q0 -6 1 -9q8 21 34 37t63 16q55 0 83 -29.5t28 -79.5q0 -53 -31.5 -84.5t-90.5 -31.5q-127 0 -127 166q0 183 148 183q49 0 93 -21l-15 -33q-39 18 -79 18zM167 -70q42 0 61.5 21.5t19.5 56.5q0 72 -77 72q-65 0 -91 -54q8 -96 87 -96z
" />
    <glyph glyph-name="seveninferior" unicode="&#x2087;" horiz-adv-x="271" 
d="M74 -100l137 304h-149v-63h-37v97h235l-1 -30q-14 -17 -37 -71l-103 -237h-45z" />
    <glyph glyph-name="eightinferior" unicode="&#x2088;" horiz-adv-x="328" 
d="M283 151q0 -47 -55 -80q63 -26 63 -80q0 -45 -34 -71t-93 -26q-58 0 -92.5 25t-34.5 70q0 56 61 85q-51 23 -51 75q0 41 30.5 67.5t86.5 26.5q58 0 88.5 -26t30.5 -66zM128 63q-50 -28 -50 -71q0 -29 22.5 -45.5t65.5 -16.5q83 0 83 58q0 39 -52 54zM88 152q0 -34 46 -49
l61 -20q48 25 48 65q0 60 -81 60q-74 0 -74 -56z" />
    <glyph glyph-name="nineinferior" unicode="&#x2089;" horiz-adv-x="321" 
d="M136 -70q107 0 107 127q0 6 -1 10q-9 -22 -35.5 -37.5t-62.5 -15.5q-54 0 -82 30.5t-28 82.5t31.5 84t91.5 32q65 0 95.5 -45.5t30.5 -123.5q0 -180 -148 -180q-51 0 -93 23l15 34q40 -21 79 -21zM156 207q-42 0 -62 -22t-20 -56q0 -77 76 -77q64 0 91 55q-6 100 -85 100
z" />
    <glyph glyph-name="rupee" unicode="&#x20a8;" horiz-adv-x="525" 
d="M64 676h389v-40h-128q57 -44 63 -126h65v-40h-65q-5 -71 -52.5 -116.5t-126.5 -52.5q58 -38 105 -105.5t73 -155.5h87v-40h-204v40h72q-46 166 -187 259h-91v40h107q163 0 174 131h-281v40h281q-13 126 -156 126h-125v40z" />
    <glyph glyph-name="Euro" unicode="&#x20ac;" 
d="M42 423h55q15 123 76.5 193t167.5 70q91 0 171 -46l-18 -39q-72 45 -154 45q-89 0 -138.5 -59.5t-62.5 -163.5h279l-19 -40h-264q-1 -14 -1 -43q0 -20 2 -54h225l-18 -40h-204q30 -217 201 -217q91 0 169 55l13 -41q-90 -54 -181 -54q-214 0 -243 257h-56v40h52
q-1 17 -1 54q0 29 1 43h-52v40z" />
    <glyph glyph-name="afii61289" unicode="&#x2113;" horiz-adv-x="405" 
d="M368 39q-60 -50 -127 -50q-98 0 -98 128v139q-35 -31 -89 -67l-19 31q55 36 108 82v232q0 86 29.5 129t77.5 43q95 0 95 -131q0 -138 -163 -293v-161q0 -92 59 -92q55 0 105 43zM304 574q0 92 -54 92q-33 0 -50.5 -33.5t-17.5 -91.5v-210q122 129 122 243z" />
    <glyph glyph-name="uni2117" unicode="&#x2117;" horiz-adv-x="798" 
d="M61 339q0 157 96 252t243 95q146 0 241.5 -95t95.5 -252q0 -158 -95.5 -254t-241.5 -96q-147 0 -243 96t-96 254zM101 339q0 -142 84 -227t215 -85t214 85t83 227t-83 225.5t-214 83.5q-132 0 -215.5 -83.5t-83.5 -225.5zM256 544h175q72 0 108.5 -34t36.5 -91
q0 -56 -37 -90t-108 -34h-84v-132h82v-35h-173v35h52v346h-52v35zM535 419q0 90 -103 90h-85v-178h85q103 0 103 88z" />
    <glyph glyph-name="trademark" unicode="&#x2122;" horiz-adv-x="707" 
d="M92 607h189v-66h-28v37h-51v-180h35v-28h-104v28h36v180h-48v-37h-29v66zM466 409l64 198h75v-29h-26l24 -180h27v-28h-91v28h32l-21 172l-67 -200h-36l-63 199l-23 -171h34v-28h-91v28h25l25 180h-26v29h77z" />
    <glyph glyph-name="Omega" unicode="&#x2126;" horiz-adv-x="680" 
d="M64 40h173q-67 46 -116.5 133t-49.5 189q0 143 68 233.5t201 90.5t201 -90.5t68 -233.5q0 -102 -49.5 -189t-116.5 -133h173v-40h-227v40q78 51 127.5 134.5t49.5 189.5q0 130 -56 206t-170 76t-170 -76t-56 -206q0 -106 49.5 -189.5t127.5 -134.5v-40h-227v40z" />
    <glyph glyph-name="estimated" unicode="&#x212e;" horiz-adv-x="767" 
d="M718 338h-511v-230q74 -74 183 -74q80 0 139 36.5t106 115.5l45 -27q-59 -92 -125 -131.5t-165 -39.5q-146 0 -236.5 100t-90.5 250q0 151 90 250.5t237 99.5q146 0 236.5 -98t91.5 -252zM207 384h369v184q-81 75 -187 75q-107 0 -182 -75v-184z" />
    <glyph glyph-name="onethird" unicode="&#x2153;" horiz-adv-x="700" 
d="M583 676v-5l-412 -671h-41v5l409 671h44zM456 251h-32l-2 61q45 31 104 31q57 0 85 -25.5t28 -66.5q0 -33 -18.5 -53t-45.5 -26q74 -15 74 -82q0 -44 -32.5 -70t-93.5 -26q-69 0 -111 37l19 31q38 -32 92 -32q85 0 85 61q0 60 -91 60h-39v36h37q38 0 60.5 15t22.5 45
q0 60 -73 60q-39 0 -69 -16v-40zM61 338v36h93v262l-95 -32l-10 33l108 39h36v-302h80v-36h-212z" />
    <glyph glyph-name="twothirds" unicode="&#x2154;" horiz-adv-x="714" 
d="M598 676v-5l-412 -671h-41v5l409 671h44zM471 251h-32l-2 61q45 31 104 31q57 0 85 -25.5t28 -66.5q0 -33 -18.5 -53t-45.5 -26q74 -15 74 -82q0 -44 -32.5 -70t-93.5 -26q-69 0 -111 37l19 31q38 -32 92 -32q85 0 85 61q0 60 -91 60h-39v36h37q38 0 60.5 15t22.5 45
q0 60 -73 60q-39 0 -69 -16v-40zM290 338h-236v32q5 6 68.5 63.5t69.5 62.5q27 26 38 44.5t11 44.5q0 27 -18 44t-54 17q-35 0 -53.5 -17.5t-18.5 -46.5q0 -8 2 -16l-40 -3q-1 6 -1 19q0 44 29.5 71.5t81.5 27.5q56 0 84.5 -27t28.5 -69q0 -58 -66 -115q-80 -69 -107 -96
h147v43h34v-79z" />
    <glyph glyph-name="oneeighth" unicode="&#x215b;" horiz-adv-x="705" 
d="M583 676v-5l-412 -671h-41v5l409 671h44zM646 251q0 -47 -55 -80q63 -26 63 -80q0 -45 -34 -71t-93 -26q-58 0 -92.5 25t-34.5 70q0 56 61 85q-51 23 -51 75q0 41 30.5 67.5t86.5 26.5q58 0 88.5 -26t30.5 -66zM491 163q-50 -28 -50 -71q0 -29 22.5 -45.5t65.5 -16.5
q83 0 83 58q0 39 -52 54zM451 252q0 -34 46 -49l61 -20q48 25 48 65q0 60 -81 60q-74 0 -74 -56zM61 338v36h93v262l-95 -32l-10 33l108 39h36v-302h80v-36h-212z" />
    <glyph glyph-name="threeeighths" unicode="&#x215c;" horiz-adv-x="682" 
d="M561 676v-5l-412 -671h-41v5l409 671h44zM95 589h-32l-2 61q45 31 104 31q57 0 85 -25.5t28 -66.5q0 -33 -18.5 -53t-45.5 -26q74 -15 74 -82q0 -44 -32.5 -70t-93.5 -26q-69 0 -111 37l19 31q38 -32 92 -32q85 0 85 61q0 60 -91 60h-39v36h37q38 0 60.5 15t22.5 45
q0 60 -73 60q-39 0 -69 -16v-40zM624 251q0 -47 -55 -80q63 -26 63 -80q0 -45 -34 -71t-93 -26q-58 0 -92.5 25t-34.5 70q0 56 61 85q-51 23 -51 75q0 41 30.5 67.5t86.5 26.5q58 0 88.5 -26t30.5 -66zM469 163q-50 -28 -50 -71q0 -29 22.5 -45.5t65.5 -16.5q83 0 83 58
q0 39 -52 54zM429 252q0 -34 46 -49l61 -20q48 25 48 65q0 60 -81 60q-74 0 -74 -56z" />
    <glyph glyph-name="fiveeighths" unicode="&#x215d;" horiz-adv-x="677" 
d="M556 676v-5l-412 -671h-41v5l409 671h44zM619 251q0 -47 -55 -80q63 -26 63 -80q0 -45 -34 -71t-93 -26q-58 0 -92.5 25t-34.5 70q0 56 61 85q-51 23 -51 75q0 41 30.5 67.5t86.5 26.5q58 0 88.5 -26t30.5 -66zM464 163q-50 -28 -50 -71q0 -29 22.5 -45.5t65.5 -16.5
q83 0 83 58q0 39 -52 54zM424 252q0 -34 46 -49l61 -20q48 25 48 65q0 60 -81 60q-74 0 -74 -56zM53 361l2 69h34v-48q28 -14 68 -14q42 0 65 20.5t23 57.5q0 33 -20.5 52t-60.5 19q-41 0 -78 -20l-21 3l23 176h188v-36h-156l-15 -105q29 18 71 18q52 0 80.5 -28.5
t28.5 -77.5q0 -54 -33 -84.5t-95 -30.5q-61 0 -104 29z" />
    <glyph glyph-name="seveneighths" unicode="&#x215e;" horiz-adv-x="636" 
d="M515 676v-5l-412 -671h-41v5l409 671h44zM578 251q0 -47 -55 -80q63 -26 63 -80q0 -45 -34 -71t-93 -26q-58 0 -92.5 25t-34.5 70q0 56 61 85q-51 23 -51 75q0 41 30.5 67.5t86.5 26.5q58 0 88.5 -26t30.5 -66zM423 163q-50 -28 -50 -71q0 -29 22.5 -45.5t65.5 -16.5
q83 0 83 58q0 39 -52 54zM383 252q0 -34 46 -49l61 -20q48 25 48 65q0 60 -81 60q-74 0 -74 -56zM101 338l137 304h-149v-63h-37v97h235l-1 -30q-14 -17 -37 -71l-103 -237h-45z" />
    <glyph glyph-name="arrowleft" unicode="&#x2190;" horiz-adv-x="750" 
d="M80 252v39l231 232l28 -28l-204 -204h538v-39h-538l203 -203l-27 -28z" />
    <glyph glyph-name="arrowup" unicode="&#x2191;" horiz-adv-x="750" 
d="M357 568h39l232 -231l-28 -28l-204 204v-538h-39v538l-203 -203l-28 27z" />
    <glyph glyph-name="arrowright" unicode="&#x2192;" horiz-adv-x="750" 
d="M674 291v-39l-231 -232l-28 28l204 204h-538v39h538l-203 203l27 28z" />
    <glyph glyph-name="arrowdown" unicode="&#x2193;" horiz-adv-x="750" 
d="M396 -26h-39l-232 231l28 28l204 -204v538h39v-538l203 203l28 -27z" />
    <glyph glyph-name="uni2196" unicode="&#x2196;" horiz-adv-x="750" 
d="M153 468l27 27h328v-39h-289l381 -381l-27 -27l-381 381v-288h-39v327z" />
    <glyph glyph-name="uni2197" unicode="&#x2197;" horiz-adv-x="750" 
d="M573 495l27 -27v-328h-39v289l-381 -381l-27 27l381 381h-288v39h327z" />
    <glyph glyph-name="uni2198" unicode="&#x2198;" horiz-adv-x="750" 
d="M601 75l-27 -27h-328v39h289l-381 381l27 27l381 -381v288h39v-327z" />
    <glyph glyph-name="uni2199" unicode="&#x2199;" horiz-adv-x="750" 
d="M180 47l-27 27v328h39v-289l381 381l27 -27l-381 -381h288v-39h-327z" />
    <glyph glyph-name="partialdiff" unicode="&#x2202;" horiz-adv-x="510" 
d="M234 696h56q153 -112 153 -382q0 -146 -50 -235.5t-150 -89.5q-95 0 -144.5 64t-49.5 166q0 104 43.5 166t134.5 62q64 0 113 -38.5t64 -92.5q0 123 -38 217.5t-132 162.5zM242 28q144 0 157 233q-50 146 -169 146q-141 0 -141 -189q0 -84 37 -137t116 -53z" />
    <glyph glyph-name="Delta" unicode="&#x2206;" horiz-adv-x="712" 
d="M36 0l292 676h58l290 -676h-640zM607 40l-249 599l-255 -599h504z" />
    <glyph glyph-name="product" unicode="&#x220f;" horiz-adv-x="747" 
d="M53 676h641v-40h-68v-812h68v-40h-204v40h97v812h-427v-812h97v-40h-204v40h68v812h-68v40z" />
    <glyph glyph-name="summation" unicode="&#x2211;" horiz-adv-x="594" 
d="M495 -62h39v-154h-488v55l276 400l-275 382v55h483v-143h-39v103h-408l288 -397l-288 -415h412v114z" />
    <glyph glyph-name="minus" unicode="&#x2212;" 
d="M61 250v40h437v-40h-437z" />
    <glyph glyph-name="uni2215" unicode="&#x2215;" horiz-adv-x="90" 
d="M272 676v-5l-412 -671h-41v5l409 671h44z" />
    <glyph glyph-name="uni2219" unicode="&#x2219;" horiz-adv-x="227" 
d="M113 227q-18 0 -30 12t-12 30t12 30t30 12q19 0 31 -12t12 -30t-12 -30t-31 -12z" />
    <glyph glyph-name="radical" unicode="&#x221a;" horiz-adv-x="577" 
d="M563 696l-243 -912h-51l-170 376l-76 -39l-19 41l116 58l171 -394l229 870h43z" />
    <glyph glyph-name="infinity" unicode="&#x221e;" horiz-adv-x="788" 
d="M713 264q0 -68 -42.5 -111t-111.5 -43q-85 0 -164 119q-75 -118 -166 -118q-68 0 -111 42t-43 110q0 67 42.5 110.5t109.5 43.5q49 0 89 -33t79 -90q80 125 163 125q68 0 111.5 -43t43.5 -112zM670 263q0 53 -30.5 85t-81.5 32q-15 0 -30.5 -6t-25.5 -12.5t-24.5 -22.5
t-20.5 -23.5t-20.5 -28t-18.5 -25.5q24 -36 40.5 -56t44 -38.5t56.5 -18.5q51 0 81 31.5t30 82.5zM373 262q-86 118 -146 118q-48 0 -79 -33.5t-31 -83.5q0 -52 31 -83t81 -31q30 0 59.5 20t45.5 40t39 53z" />
    <glyph glyph-name="integral" unicode="&#x222b;" horiz-adv-x="327" 
d="M183 548v-616q0 -158 -125 -158q-24 0 -46 6v41q28 -7 47 -7q48 0 66.5 29.5t18.5 88.5v616q0 158 125 158q24 0 46 -6v-41q-28 7 -47 7q-48 0 -66.5 -29.5t-18.5 -88.5z" />
    <glyph glyph-name="approxequal" unicode="&#x2248;" 
d="M446 402l25 -30q-37 -60 -97 -60q-29 0 -99.5 36.5t-89.5 36.5q-20 0 -38 -12.5t-25 -24.5l-8 -13l-25 30q34 60 98 60q22 0 92 -36.5t97 -36.5q20 0 37.5 12.5t24.5 25.5zM446 210l25 -30q-37 -60 -97 -60q-29 0 -99.5 36.5t-89.5 36.5q-20 0 -38 -12.5t-25 -24.5
l-8 -13l-25 30q34 60 98 60q22 0 92 -36.5t97 -36.5q20 0 37.5 12.5t24.5 25.5z" />
    <glyph glyph-name="notequal" unicode="&#x2260;" 
d="M98 178h132l47 185h-179v40h189l35 137l36 -9l-33 -128h135v-40h-145l-48 -185h193v-40h-203l-36 -142l-35 9l34 133h-122v40z" />
    <glyph glyph-name="lessequal" unicode="&#x2264;" 
d="M91 337v36l362 187v-42l-321 -163l321 -162v-43zM91 78h362v-40h-362v40z" />
    <glyph glyph-name="greaterequal" unicode="&#x2265;" 
d="M468 373v-36l-362 -187v43l321 162l-321 163v42zM106 78h362v-40h-362v40z" />
    <glyph glyph-name="lozenge" unicode="&#x25ca;" horiz-adv-x="614" 
d="M519 348l-216 307l-216 -307l216 -308zM567 348l-246 -348h-35l-247 348l247 348h35z" />
    <glyph glyph-name="circle" unicode="&#x25cb;" horiz-adv-x="798" 
d="M61 339q0 157 96 252t243 95q146 0 241.5 -95t95.5 -252q0 -158 -95.5 -254t-241.5 -96q-147 0 -243 96t-96 254zM101 339q0 -146 82.5 -228.5t216.5 -82.5q133 0 215 82.5t82 228.5t-81.5 227t-215.5 81q-135 0 -217 -81t-82 -227z" />
    <glyph glyph-name="commaaccent" unicode="&#xf6c3;" horiz-adv-x="600" 
d="M338 -73l-42 -143h-34l25 143h51z" />
    <glyph glyph-name="uniF8FF" unicode="&#xf8ff;" horiz-adv-x="621" 
d="M104 0v656h413v-656h-413zM142 38h337v580h-337v-580z" />
    <glyph glyph-name="exclam.sc" horiz-adv-x="244" 
d="M137 152h-31l-8 355h48zM123 -5q-16 0 -26.5 10t-10.5 25t10.5 25t26.5 10t26.5 -10t10.5 -25t-10.5 -25t-26.5 -10z" />
    <glyph glyph-name="numbersign.sc" horiz-adv-x="501" 
d="M129 163h-81l2 38h85l21 125h-80l1 38h85l24 143h38l-23 -143h127l25 143h38l-24 -143h87l-1 -38h-92l-21 -125h87l-2 -38h-91l-27 -163h-38l27 163h-128l-27 -163h-39zM195 326l-22 -125h129l21 125h-128z" />
    <glyph glyph-name="dollar.sc" horiz-adv-x="462" 
d="M249 -77h-35v69q-82 4 -135 32l-9 131h33l16 -106q40 -17 95 -20v211l-27 9q-54 19 -82 49t-28 81t36.5 90t100.5 45v55h35v-54q64 -3 128 -29v-121h-33l-9 96q-41 12 -86 15v-205l26 -8q119 -36 119 -138q0 -51 -38.5 -88.5t-106.5 -43.5v-70zM352 123q0 39 -29 66.5
t-74 38.5v-198q46 5 74.5 29.5t28.5 63.5zM119 381q0 -43 21 -61.5t74 -36.5v192q-46 -5 -70.5 -31t-24.5 -63z" />
    <glyph glyph-name="percent.sc" horiz-adv-x="551" 
d="M458 507v-5l-328 -502h-39v5l327 502h40zM156 515q55 0 82.5 -32t27.5 -83t-28 -83t-82 -32t-81 32t-27 83q0 50 27.5 82.5t80.5 32.5zM156 321q74 0 74 79q0 78 -74 78q-72 0 -72 -78q0 -36 17.5 -57.5t54.5 -21.5zM393 221q56 0 83 -31.5t27 -82.5t-28 -83t-82 -32
t-81.5 32t-27.5 83q0 50 28 82t81 32zM393 28q74 0 74 79q0 78 -74 78q-72 0 -72 -78q0 -79 72 -79z" />
    <glyph glyph-name="ampersand.sc" horiz-adv-x="555" 
d="M448 -8q-62 0 -78 57q-51 -57 -137 -57q-78 0 -121 39t-43 106q0 98 103 124q-36 7 -62.5 38t-26.5 83q0 64 40.5 98.5t117.5 34.5q64 0 126 -31l-16 -36q-51 28 -109 28q-118 0 -118 -96q0 -51 34.5 -75.5t92.5 -24.5h115v95l38 8v-103h91v-37h-91v-160q0 -53 50 -53
q22 0 48 12l7 -37q-31 -13 -61 -13zM366 243h-118q-136 0 -136 -106q0 -50 30.5 -78.5t91.5 -28.5q84 0 132 56v157z" />
    <glyph glyph-name="section.sc" horiz-adv-x="467" 
d="M403 193q0 -59 -67 -93q63 -34 63 -88q0 -45 -45.5 -71.5t-128.5 -26.5q-43 0 -86 11t-67 27v91h32l8 -71q42 -22 113 -22q131 0 131 61q0 10 -3 18.5t-10.5 15.5t-15 12.5t-20.5 11.5t-22 10t-26 10t-26 10l-62 24q-21 8 -36.5 16.5t-32 21.5t-25.5 31t-9 40q0 58 63 90
q-59 34 -59 89q0 44 41 74t121 30q71 0 152 -30v-83h-32l-9 60q-53 16 -111 16q-59 0 -89 -17.5t-30 -48.5q0 -21 16.5 -37t35 -24.5t56.5 -21.5l60 -21q61 -21 90.5 -46t29.5 -69zM167 306q-56 -29 -56 -75q0 -25 20.5 -40.5t61.5 -31.5l106 -42q24 10 42.5 30.5t18.5 45.5
q0 21 -15.5 36.5t-31 22.5t-48.5 19z" />
    <glyph glyph-name="paragraph.sc" horiz-adv-x="423" 
d="M164 342h78v-390h-37v176q-35 0 -59 3t-51 12t-41 31t-14 56q0 53 30.5 82.5t93.5 29.5zM242 -174l-15 31q39 14 53.5 38t14.5 78v369h37v-367q0 -61 -18.5 -97t-71.5 -52z" />
    <glyph glyph-name="parenleft.sc" horiz-adv-x="262" 
d="M209 -96l-31 -11q-54 84 -80 162.5t-26 184.5q0 111 27 188t79 159l32 -10q-47 -84 -71.5 -159.5t-24.5 -177.5q0 -96 23 -173t72 -163z" />
    <glyph glyph-name="slash.sc" horiz-adv-x="290" 
d="M246 503v-8l-164 -495h-37v9l162 494h39z" />
    <glyph glyph-name="parenright.sc" horiz-adv-x="262" 
d="M53 -96q49 86 72 163t23 173q0 103 -24.5 178.5t-72.5 158.5l33 10q51 -81 78 -158t27 -189q0 -106 -26 -184t-79 -163z" />
    <glyph glyph-name="bracketleft.sc" horiz-adv-x="290" 
d="M100 582h136v-38h-96v-608h96v-38h-136v684z" />
    <glyph glyph-name="backslash.sc" horiz-adv-x="290" 
d="M44 495v8h39l162 -494v-9h-36z" />
    <glyph glyph-name="bracketright.sc" horiz-adv-x="289" 
d="M53 582h136v-684h-136v38h97v608h-97v38z" />
    <glyph glyph-name="braceleft.sc" horiz-adv-x="278" 
d="M156 480v-166q0 -62 -54 -74q19 -3 36.5 -21t17.5 -54v-166q0 -38 14 -50t49 -14v-37q-52 0 -77 22.5t-25 78.5v163q0 34 -17 47t-52 13v36q39 0 54 12.5t15 46.5v164q0 55 24.5 78t77.5 23v-37q-34 -1 -48.5 -14t-14.5 -51z" />
    <glyph glyph-name="bar.sc" horiz-adv-x="234" 
d="M134 -102h-34v684h34v-684z" />
    <glyph glyph-name="braceright.sc" horiz-adv-x="278" 
d="M122 314v166q0 38 -14.5 51t-48.5 14v37q53 0 77.5 -23t24.5 -78v-164q0 -34 15 -46.5t54 -12.5v-36q-35 0 -52 -13t-17 -47v-163q0 -56 -24.5 -78.5t-77.5 -22.5v37q35 2 49 14t14 50v166q0 36 17.5 54t36.5 21q-13 3 -22.5 7t-20.5 21.5t-11 45.5z" />
    <glyph glyph-name="zero.sc" horiz-adv-x="507" 
d="M108 252q0 -116 31.5 -169t113.5 -53q81 0 114 53.5t33 168.5q0 116 -33 170.5t-115 54.5q-79 0 -111.5 -55t-32.5 -170zM442 252q0 -126 -44 -193t-145 -67q-103 0 -145 66t-42 194q0 263 186 263q102 0 146 -67.5t44 -195.5z" />
    <glyph glyph-name="one.sc" horiz-adv-x="389" 
d="M64 0v38h137v426l-140 -51l-12 35l154 59h37v-469h121v-38h-297z" />
    <glyph glyph-name="two.sc" horiz-adv-x="454" 
d="M391 108v-108h-335v36q1 1 54.5 52.5t105 101.5t53.5 53q38 37 53.5 66t15.5 67q0 45 -28.5 73.5t-89.5 28.5q-58 0 -87 -30.5t-29 -80.5q0 -12 1 -18l-40 -2q-1 6 -1 20q0 67 42 107.5t114 40.5q80 0 120 -39.5t40 -100.5q0 -48 -22.5 -83.5t-65.5 -78.5
q-112 -111 -182 -175h244v70h37z" />
    <glyph glyph-name="three.sc" horiz-adv-x="459" 
d="M106 384h-36v80q16 19 55.5 35t91.5 16q77 0 118 -36.5t41 -99.5q0 -51 -27.5 -81t-68.5 -39q49 -9 80 -40.5t31 -84.5q0 -66 -45.5 -104t-133.5 -38q-94 0 -158 54l20 34q59 -51 139 -51q135 0 135 103q0 105 -143 105h-57v39h54q60 0 96.5 25t36.5 76q0 100 -119 100
q-62 0 -110 -28v-65z" />
    <glyph glyph-name="four.sc" horiz-adv-x="472" 
d="M432 154v-36h-90v-118h-39v118h-267v34l215 279q16 20 28.5 39t16.5 28l5 9h41v-353h90zM82 154h221v285z" />
    <glyph glyph-name="five.sc" horiz-adv-x="448" 
d="M61 34l1 97h36v-75q49 -27 110 -27q67 0 103 34t36 99q0 56 -31.5 88t-92.5 32q-66 0 -116 -35l-30 2l33 258h266v-38h-233l-25 -183q44 33 111 33q77 0 118 -41.5t41 -114.5q0 -79 -47 -125t-133 -46q-88 0 -147 42z" />
    <glyph glyph-name="six.sc" horiz-adv-x="475" 
d="M271 477q-61 0 -100 -35t-53 -83t-14 -107q0 -10 1 -16q12 38 53.5 65t98.5 27q80 0 119.5 -45t39.5 -118q0 -79 -44.5 -126t-126.5 -47q-181 0 -181 249q0 56 10.5 103t33.5 86.5t65 62t99 22.5q72 0 130 -30l-16 -36q-56 28 -115 28zM247 29q67 0 98.5 37.5t31.5 97.5
q0 57 -30 91t-93 34q-56 0 -93 -29t-55 -70q13 -161 141 -161z" />
    <glyph glyph-name="seven.sc" horiz-adv-x="407" 
d="M129 0l199 471h-243v-96h-38v132h332l-2 -34q-19 -29 -48 -99l-155 -374h-45z" />
    <glyph glyph-name="eight.sc" horiz-adv-x="500" 
d="M420 378q0 -76 -86 -125q97 -36 97 -124q0 -65 -48 -101t-132 -36q-83 0 -131 36.5t-48 103.5q0 44 27.5 79.5t67.5 55.5q-79 33 -79 113q0 57 42 95.5t122 38.5q83 0 125.5 -38.5t42.5 -97.5zM308 223l-106 32q-41 -22 -64.5 -50t-23.5 -71q0 -49 36 -77t103 -28
t101.5 26t34.5 72q0 71 -81 96zM129 382q0 -60 72 -84l97 -33q81 44 81 112q0 100 -128 100q-63 0 -92.5 -26t-29.5 -69z" />
    <glyph glyph-name="nine.sc" horiz-adv-x="476" 
d="M204 29q167 0 167 218q0 10 -1 16q-13 -37 -55 -64.5t-97 -27.5q-81 0 -120 46t-39 124t44.5 126t128.5 48q179 0 179 -254q0 -269 -208 -269q-78 0 -130 30l16 36q58 -29 115 -29zM231 477q-68 0 -100 -37.5t-32 -96.5q0 -133 123 -133q103 0 146 101q-11 166 -137 166z
" />
    <glyph glyph-name="question.sc" horiz-adv-x="372" 
d="M85 385h-37v84q59 46 135 46q64 0 102 -35t38 -87q0 -32 -12.5 -57.5t-35 -43t-39.5 -26.5t-41 -19v-95h-38v119q124 37 124 120q0 35 -26 60.5t-73 25.5q-53 0 -97 -27v-65zM179 -5q-16 0 -26.5 10t-10.5 25t10.5 25t26.5 10t27 -10t11 -25t-11 -25t-27 -10z" />
    <glyph glyph-name="a.sc" horiz-adv-x="575" 
d="M382 0v38h78l-54 131h-239l-55 -131h80v-38h-175v38h51l182 431h-50v38h174v-38h-47l179 -431h50v-38h-174zM179 206h216l-107 260z" />
    <glyph glyph-name="b.sc" horiz-adv-x="511" 
d="M56 0v38h63v431h-63v38h205q78 0 119 -33.5t41 -92.5q0 -48 -23.5 -79t-61.5 -36q47 -7 78.5 -40.5t31.5 -87.5q0 -138 -185 -138h-205zM158 38h104q74 0 108.5 24.5t34.5 75.5q0 107 -145 107h-102v-207zM158 281h99q122 0 122 100q0 88 -118 88h-103v-188z" />
    <glyph glyph-name="c.sc" horiz-adv-x="508" 
d="M104 255q0 -223 170 -223q97 0 162 47l17 -37q-73 -50 -182 -50q-208 0 -208 263q0 121 56.5 190.5t167.5 69.5q74 0 154 -37l-1 -148h-34l-7 120q-56 25 -112 25q-95 0 -139 -59.5t-44 -160.5z" />
    <glyph glyph-name="d.sc" horiz-adv-x="563" 
d="M118 38v431h-62v38h188q146 0 200 -61.5t54 -191.5q0 -129 -54 -191.5t-200 -62.5h-188v38h62zM157 38h89q121 0 166 50t45 167q0 115 -45 164.5t-166 49.5h-89v-431z" />
    <glyph glyph-name="e.sc" horiz-adv-x="486" 
d="M388 121h38v-121h-370v38h63v431h-63v38h367v-114h-38v76h-227v-188h202v-38h-202v-205h230v83z" />
    <glyph glyph-name="f.sc" horiz-adv-x="465" 
d="M56 0v38h62v431h-62v38h365v-119h-38v81h-226v-210h211v-39h-211v-182h87v-38h-188z" />
    <glyph glyph-name="g.sc" horiz-adv-x="545" 
d="M454 358h-34l-8 101q-55 16 -119 16q-97 0 -142.5 -58.5t-45.5 -154.5q0 -108 47 -169.5t145 -61.5q77 0 138 23v146h-149v38h191v-207q-78 -39 -179 -39q-119 0 -177 70t-58 199q0 114 58.5 184t172.5 70q87 0 160 -27v-130z" />
    <glyph glyph-name="h.sc" horiz-adv-x="628" 
d="M400 469v38h167v-38h-53v-431h53v-38h-167v38h75v210h-322v-210h75v-38h-167v38h53v431h-53v38h167v-38h-75v-182h322v182h-75z" />
    <glyph glyph-name="i.sc" horiz-adv-x="283" 
d="M52 0v38h71v431h-71v38h177v-38h-67v-431h67v-38h-177z" />
    <glyph glyph-name="j.sc" horiz-adv-x="264" 
d="M39 469v38h170v-38h-53v-449q0 -127 -113 -190l-24 30q52 30 74.5 64.5t22.5 86.5v458h-77z" />
    <glyph glyph-name="k.sc" horiz-adv-x="539" 
d="M185 265l199 204h-59v38h169v-38h-60l-200 -203l216 -228h54v-38h-170v38h63zM158 469v-431h68v-38h-170v38h63v431h-63v38h170v-38h-68z" />
    <glyph glyph-name="l.sc" horiz-adv-x="445" 
d="M367 141h37v-141h-348v38h62v431h-62v38h176v-38h-75v-431h210v103z" />
    <glyph glyph-name="m.sc" horiz-adv-x="765" 
d="M381 53l169 454h122v-38h-64l67 -431h59v-38h-180v38h81l-61 424l-174 -462h-41l-167 464l-67 -426h86v-38h-179v38h54l70 431h-64v38h126z" />
    <glyph glyph-name="n.sc" horiz-adv-x="622" 
d="M384 469v38h188v-38h-59v-469h-52l-305 459v-421h91v-38h-190v38h60v431h-60v38h116l301 -460v422h-90z" />
    <glyph glyph-name="o.sc" horiz-adv-x="553" 
d="M107 253q0 -111 38 -166.5t132 -55.5t132 55.5t38 166.5q0 112 -38 167.5t-133 55.5q-93 0 -131 -56t-38 -167zM489 253q0 -261 -213 -261q-212 0 -212 261q0 262 213 262q212 0 212 -262z" />
    <glyph glyph-name="p.sc" horiz-adv-x="487" 
d="M157 469v-431h100v-38h-201v38h62v431h-62v38h217q168 0 168 -149q0 -69 -40.5 -109t-127.5 -40h-59v39h60q69 0 97.5 28.5t28.5 81.5q0 111 -126 111h-117z" />
    <glyph glyph-name="q.sc" horiz-adv-x="558" 
d="M388 66q16 -14 24 -31q-51 -43 -136 -43q-212 0 -212 261q0 262 213 262q212 0 212 -262q0 -99 -31 -162q32 -41 57 -91h-45q-108 194 -293 194q-33 0 -66 -6q10 -77 49 -117.5t117 -40.5q73 0 111 36zM107 253v-30q33 6 71 6q144 0 249 -105q20 48 20 129
q0 108 -38.5 166t-132.5 58q-92 0 -130.5 -58t-38.5 -166z" />
    <glyph glyph-name="r.sc" horiz-adv-x="539" 
d="M119 37v433h-63v37h224q168 0 168 -135q0 -57 -35.5 -91t-102.5 -42q43 -27 80 -82.5t57 -119.5h69v-37h-170v37h57q-18 60 -55.5 114.5t-87.5 84.5h-102v-199h74v-37h-176v37h63zM406 371q0 50 -28.5 74.5t-97.5 24.5h-122v-197h115q133 0 133 98z" />
    <glyph glyph-name="s.sc" horiz-adv-x="448" 
d="M371 365h-33l-9 96q-50 15 -100 15q-55 0 -85.5 -27t-30.5 -68q0 -38 21 -58.5t67 -36.5l68 -23q119 -40 119 -138q0 -55 -45 -94t-122 -39q-88 0 -148 32l-9 131h33l16 -106q51 -20 108 -20q55 0 90 25.5t35 68.5q0 69 -92 101l-73 25q-54 19 -82 49t-28 81
q0 55 42.5 95.5t115.5 40.5t142 -29v-121z" />
    <glyph glyph-name="t.sc" horiz-adv-x="475" 
d="M40 507h395v-117h-35v79h-146v-431h80v-38h-200v38h81v431h-140v-79h-35v117z" />
    <glyph glyph-name="u.sc" horiz-adv-x="587" 
d="M541 469h-58v-284q0 -193 -190 -193t-190 193v284h-57v38h181v-38h-85v-287q0 -84 39 -117.5t113 -33.5q73 0 111.5 33.5t38.5 117.5v287h-83v38h180v-38z" />
    <glyph glyph-name="v.sc" horiz-adv-x="564" 
d="M370 469v38h178v-38h-58l-181 -469h-54l-181 469h-54v38h177v-38h-79l165 -431l163 431h-76z" />
    <glyph glyph-name="w.sc" horiz-adv-x="816" 
d="M593 469v38h202v-38h-57l-144 -469h-50l-135 353l-136 -353h-50l-146 469h-58v38h186v-38h-86l131 -427l139 361l-40 104h45l174 -465l131 427h-106z" />
    <glyph glyph-name="x.sc" horiz-adv-x="548" 
d="M42 469v38h177v-38h-62l117 -178l116 178h-63v38h176v-38h-67l-141 -207l155 -224h65v-38h-177v38h64l-130 193l-126 -193h66v-38h-176v38h64l150 224l-140 207h-68z" />
    <glyph glyph-name="y.sc" horiz-adv-x="514" 
d="M21 469v38h169v-38h-76l144 -227l146 227h-77v38h170v-38h-48l-173 -263v-168h78v-38h-199v38h82v168l-168 263h-48z" />
    <glyph glyph-name="z.sc" horiz-adv-x="473" 
d="M412 507v-37l-313 -432h271v110h38v-148h-356v37l312 432h-257v-92h-38v130h343z" />
    <glyph glyph-name="agrave.sc" horiz-adv-x="575" 
d="M382 0v38h78l-54 131h-239l-55 -131h80v-38h-175v38h51l182 431h-50v38h174v-38h-47l179 -431h50v-38h-174zM179 206h216l-107 260zM189 726h49l79 -147h-41z" />
    <glyph glyph-name="aacute.sc" horiz-adv-x="575" 
d="M382 0v38h78l-54 131h-239l-55 -131h80v-38h-175v38h51l182 431h-50v38h174v-38h-47l179 -431h50v-38h-174zM179 206h216l-107 260zM342 726h49l-87 -147h-41z" />
    <glyph glyph-name="acircumflex.sc" horiz-adv-x="575" 
d="M382 0v38h78l-54 131h-239l-55 -131h80v-38h-175v38h51l182 431h-50v38h174v-38h-47l179 -431h50v-38h-174zM179 206h216l-107 260zM264 726h49l99 -147h-41l-83 113l-82 -113h-41z" />
    <glyph glyph-name="atilde.sc" horiz-adv-x="575" 
d="M382 0v38h78l-54 131h-239l-55 -131h80v-38h-175v38h51l182 431h-50v38h174v-38h-47l179 -431h50v-38h-174zM179 206h216l-107 260zM418 647l-10 -38q-23 25 -54 25q-20 0 -61 -16.5t-70 -16.5q-19 0 -37.5 8.5t-26.5 18.5l10 36q21 -23 54 -23q24 0 63.5 16.5t67.5 16.5
q37 0 64 -27z" />
    <glyph glyph-name="adieresis.sc" horiz-adv-x="575" 
d="M382 0v38h78l-54 131h-239l-55 -131h80v-38h-175v38h51l182 431h-50v38h174v-38h-47l179 -431h50v-38h-174zM179 206h216l-107 260zM203 611q-39 0 -39 39q0 40 39 40q16 0 27.5 -10t11.5 -30q0 -19 -11.5 -29t-27.5 -10zM373 611q-39 0 -39 39q0 40 39 40q16 0 27.5 -10
t11.5 -30q0 -19 -11.5 -29t-27.5 -10z" />
    <glyph glyph-name="amacron.sc" horiz-adv-x="575" 
d="M382 0v38h78l-54 131h-239l-55 -131h80v-38h-175v38h51l182 431h-50v38h174v-38h-47l179 -431h50v-38h-174zM179 206h216l-107 260zM157 660h262v-40h-262v40z" />
    <glyph glyph-name="abreve.sc" horiz-adv-x="575" 
d="M382 0v38h78l-54 131h-239l-55 -131h80v-38h-175v38h51l182 431h-50v38h174v-38h-47l179 -431h50v-38h-174zM179 206h216l-107 260zM374 699h36q0 -55 -34 -90t-88 -35q-53 0 -87 35t-34 90h35q0 -40 22.5 -64.5t63.5 -24.5q42 0 64 24.5t22 64.5z" />
    <glyph glyph-name="aring.sc" horiz-adv-x="575" 
d="M382 0v38h78l-54 131h-239l-55 -131h80v-38h-175v38h51l182 431h-50v38h174v-38h-47l179 -431h50v-38h-174zM179 206h216l-107 260zM190 652q0 40 27 64.5t71 24.5t71.5 -24.5t27.5 -64.5t-27.5 -65t-71.5 -25t-71 25t-27 65zM227 652q0 -27 16.5 -42.5t44.5 -15.5
q29 0 45.5 15.5t16.5 42.5t-16.5 42.5t-45.5 15.5q-28 0 -44.5 -15.5t-16.5 -42.5z" />
    <glyph glyph-name="aringacute.sc" horiz-adv-x="575" 
d="M382 0v38h78l-54 131h-239l-55 -131h80v-38h-175v38h51l182 431h-50v38h174v-38h-47l179 -431h50v-38h-174zM190 652q0 39 25 63t66 26l60 73h49l-69 -77q30 -8 48 -30.5t18 -54.5q0 -40 -27.5 -65t-71.5 -25t-71 25t-27 65zM179 206h216l-107 260zM227 652
q0 -27 16.5 -42.5t44.5 -15.5q29 0 45.5 15.5t16.5 42.5t-16.5 42.5t-45.5 15.5q-28 0 -44.5 -15.5t-16.5 -42.5z" />
    <glyph glyph-name="aogonek.sc" horiz-adv-x="575" 
d="M382 0v38h78l-54 131h-239l-55 -131h80v-38h-175v38h51l182 431h-50v38h174v-38h-47l179 -431h50v-38h-50l-70 -56q-20 -18 -28.5 -31.5t-8.5 -32.5q0 -40 45 -40q28 0 53 17l12 -33q-38 -19 -69 -19q-16 0 -33 5q-49 16 -49 68q0 43 49 84l46 38h-71zM179 206h216
l-107 260z" />
    <glyph glyph-name="ae.sc" horiz-adv-x="832" 
d="M377 507h392v-114h-38v76h-227v-188h202v-38h-202v-205h230v83h38v-121h-392v38h85v131h-238l-110 -131h73v-38h-175v38h51l361 431h-50v38zM256 206h209v251z" />
    <glyph glyph-name="aeacute.sc" horiz-adv-x="832" 
d="M377 507h392v-114h-38v76h-227v-188h202v-38h-202v-205h230v83h38v-121h-392v38h85v131h-238l-110 -131h73v-38h-175v38h51l361 431h-50v38zM256 206h209v251zM621 726h49l-87 -147h-41z" />
    <glyph glyph-name="cacute.sc" horiz-adv-x="508" 
d="M104 255q0 -223 170 -223q97 0 162 47l17 -37q-73 -50 -182 -50q-208 0 -208 263q0 121 56.5 190.5t167.5 69.5q74 0 154 -37l-1 -148h-34l-7 120q-56 25 -112 25q-95 0 -139 -59.5t-44 -160.5zM336 726h49l-87 -147h-41z" />
    <glyph glyph-name="ccircumflex.sc" horiz-adv-x="508" 
d="M104 255q0 -223 170 -223q97 0 162 47l17 -37q-73 -50 -182 -50q-208 0 -208 263q0 121 56.5 190.5t167.5 69.5q74 0 154 -37l-1 -148h-34l-7 120q-56 25 -112 25q-95 0 -139 -59.5t-44 -160.5zM258 726h49l99 -147h-41l-83 113l-82 -113h-41z" />
    <glyph glyph-name="ccaron.sc" horiz-adv-x="508" 
d="M104 255q0 -223 170 -223q97 0 162 47l17 -37q-73 -50 -182 -50q-208 0 -208 263q0 121 56.5 190.5t167.5 69.5q74 0 154 -37l-1 -148h-34l-7 120q-56 25 -112 25q-95 0 -139 -59.5t-44 -160.5zM306 579h-49l-99 147h41l83 -113l82 113h41z" />
    <glyph glyph-name="cdotaccent.sc" horiz-adv-x="508" 
d="M104 255q0 -223 170 -223q97 0 162 47l17 -37q-73 -50 -182 -50q-208 0 -208 263q0 121 56.5 190.5t167.5 69.5q74 0 154 -37l-1 -148h-34l-7 120q-56 25 -112 25q-95 0 -139 -59.5t-44 -160.5zM282 611q-39 0 -39 39q0 40 39 40q16 0 27.5 -10t11.5 -30q0 -19 -11.5 -29
t-27.5 -10z" />
    <glyph glyph-name="ccedilla.sc" horiz-adv-x="508" 
d="M104 255q0 -223 170 -223q97 0 162 47l17 -37q-63 -43 -154 -49l-20 -54q10 4 25 4q26 0 44.5 -19t18.5 -48q0 -31 -23 -52.5t-68 -21.5q-40 0 -94 23l9 39q46 -26 85 -26q50 0 50 38q0 16 -12.5 26t-30.5 10q-19 0 -31 -4q-7 3 -19 8l26 76q-196 7 -196 263
q0 121 56.5 190.5t167.5 69.5q74 0 154 -37l-1 -148h-34l-7 120q-56 25 -112 25q-95 0 -139 -59.5t-44 -160.5z" />
    <glyph glyph-name="dcaron.sc" horiz-adv-x="563" 
d="M118 38v431h-62v38h188q146 0 200 -61.5t54 -191.5q0 -129 -54 -191.5t-200 -62.5h-188v38h62zM157 38h89q121 0 166 50t45 167q0 115 -45 164.5t-166 49.5h-89v-431zM290 579h-49l-99 147h41l83 -113l82 113h41z" />
    <glyph glyph-name="dcroat.sc" horiz-adv-x="574" 
d="M129 38v190h-63v40h63v201h-62v38h188q146 0 200 -61.5t54 -191.5q0 -129 -54 -191.5t-200 -62.5h-188v38h62zM168 38h89q121 0 166 50t45 167q0 115 -45 164.5t-166 49.5h-89v-201h130v-40h-130v-190z" />
    <glyph glyph-name="eth.sc" horiz-adv-x="574" 
d="M129 38v190h-63v40h63v201h-62v38h188q146 0 200 -61.5t54 -191.5q0 -129 -54 -191.5t-200 -62.5h-188v38h62zM168 38h89q121 0 166 50t45 167q0 115 -45 164.5t-166 49.5h-89v-201h130v-40h-130v-190z" />
    <glyph glyph-name="egrave.sc" horiz-adv-x="486" 
d="M388 121h38v-121h-370v38h63v431h-63v38h367v-114h-38v76h-227v-188h202v-38h-202v-205h230v83zM144 726h49l79 -147h-41z" />
    <glyph glyph-name="eacute.sc" horiz-adv-x="486" 
d="M388 121h38v-121h-370v38h63v431h-63v38h367v-114h-38v76h-227v-188h202v-38h-202v-205h230v83zM305 726h49l-87 -147h-41z" />
    <glyph glyph-name="ecircumflex.sc" horiz-adv-x="486" 
d="M388 121h38v-121h-370v38h63v431h-63v38h367v-114h-38v76h-227v-188h202v-38h-202v-205h230v83zM223 726h49l99 -147h-41l-83 113l-82 -113h-41z" />
    <glyph glyph-name="ecaron.sc" horiz-adv-x="486" 
d="M388 121h38v-121h-370v38h63v431h-63v38h367v-114h-38v76h-227v-188h202v-38h-202v-205h230v83zM272 579h-49l-99 147h41l83 -113l82 113h41z" />
    <glyph glyph-name="edieresis.sc" horiz-adv-x="486" 
d="M388 121h38v-121h-370v38h63v431h-63v38h367v-114h-38v76h-227v-188h202v-38h-202v-205h230v83zM162 611q-39 0 -39 39q0 40 39 40q16 0 27.5 -10t11.5 -30q0 -19 -11.5 -29t-27.5 -10zM332 611q-39 0 -39 39q0 40 39 40q16 0 27.5 -10t11.5 -30q0 -19 -11.5 -29
t-27.5 -10z" />
    <glyph glyph-name="emacron.sc" horiz-adv-x="486" 
d="M388 121h38v-121h-370v38h63v431h-63v38h367v-114h-38v76h-227v-188h202v-38h-202v-205h230v83zM116 660h262v-40h-262v40z" />
    <glyph glyph-name="ebreve.sc" horiz-adv-x="486" 
d="M388 121h38v-121h-370v38h63v431h-63v38h367v-114h-38v76h-227v-188h202v-38h-202v-205h230v83zM333 699h36q0 -55 -34 -90t-88 -35q-53 0 -87 35t-34 90h35q0 -40 22.5 -64.5t63.5 -24.5q42 0 64 24.5t22 64.5z" />
    <glyph glyph-name="edotaccent.sc" horiz-adv-x="486" 
d="M388 121h38v-121h-370v38h63v431h-63v38h367v-114h-38v76h-227v-188h202v-38h-202v-205h230v83zM247 611q-39 0 -39 39q0 40 39 40q16 0 27.5 -10t11.5 -30q0 -19 -11.5 -29t-27.5 -10z" />
    <glyph glyph-name="eogonek.sc" horiz-adv-x="486" 
d="M388 121h38v-121l-70 -56q-37 -30 -37 -64q0 -40 45 -40q28 0 53 17l12 -33q-38 -19 -69 -19q-36 0 -59 19.5t-23 53.5q0 43 49 84l46 38h-317v38h63v431h-63v38h367v-114h-38v76h-227v-188h202v-38h-202v-205h230v83z" />
    <glyph glyph-name="gcircumflex.sc" horiz-adv-x="545" 
d="M454 358h-34l-8 101q-55 16 -119 16q-97 0 -142.5 -58.5t-45.5 -154.5q0 -108 47 -169.5t145 -61.5q77 0 138 23v146h-149v38h191v-207q-78 -39 -179 -39q-119 0 -177 70t-58 199q0 114 58.5 184t172.5 70q87 0 160 -27v-130zM268 726h49l99 -147h-41l-83 113l-82 -113
h-41z" />
    <glyph glyph-name="gbreve.sc" horiz-adv-x="545" 
d="M454 358h-34l-8 101q-55 16 -119 16q-97 0 -142.5 -58.5t-45.5 -154.5q0 -108 47 -169.5t145 -61.5q77 0 138 23v146h-149v38h191v-207q-78 -39 -179 -39q-119 0 -177 70t-58 199q0 114 58.5 184t172.5 70q87 0 160 -27v-130zM378 699h36q0 -55 -34 -90t-88 -35
q-53 0 -87 35t-34 90h35q0 -40 22.5 -64.5t63.5 -24.5q42 0 64 24.5t22 64.5z" />
    <glyph glyph-name="gdotaccent.sc" horiz-adv-x="545" 
d="M454 358h-34l-8 101q-55 16 -119 16q-97 0 -142.5 -58.5t-45.5 -154.5q0 -108 47 -169.5t145 -61.5q77 0 138 23v146h-149v38h191v-207q-78 -39 -179 -39q-119 0 -177 70t-58 199q0 114 58.5 184t172.5 70q87 0 160 -27v-130zM292 611q-39 0 -39 39q0 40 39 40
q16 0 27.5 -10t11.5 -30q0 -19 -11.5 -29t-27.5 -10z" />
    <glyph glyph-name="gcommaaccent.sc" horiz-adv-x="545" 
d="M454 358h-34l-8 101q-55 16 -119 16q-97 0 -142.5 -58.5t-45.5 -154.5q0 -108 47 -169.5t145 -61.5q77 0 138 23v146h-149v38h191v-207q-78 -39 -179 -39q-119 0 -177 70t-58 199q0 114 58.5 184t172.5 70q87 0 160 -27v-130zM331 -73l-42 -143h-34l25 143h51z" />
    <glyph glyph-name="hcircumflex.sc" horiz-adv-x="628" 
d="M400 469v38h167v-38h-53v-431h53v-38h-167v38h75v210h-322v-210h75v-38h-167v38h53v431h-53v38h167v-38h-75v-182h322v182h-75zM289 726h49l99 -147h-41l-83 113l-82 -113h-41z" />
    <glyph glyph-name="hbar.sc" horiz-adv-x="628" 
d="M61 395h53v74h-53v38h167v-38h-75v-74h322v74h-75v38h167v-38h-53v-74h53v-38h-53v-319h53v-38h-167v38h75v210h-322v-210h75v-38h-167v38h53v319h-53v38zM153 287h322v70h-322v-70z" />
    <glyph glyph-name="igrave.sc" horiz-adv-x="283" 
d="M52 0v38h71v431h-71v38h177v-38h-67v-431h67v-38h-177zM42 726h49l79 -147h-41z" />
    <glyph glyph-name="iacute.sc" horiz-adv-x="283" 
d="M52 0v38h71v431h-71v38h177v-38h-67v-431h67v-38h-177zM195 726h49l-87 -147h-41z" />
    <glyph glyph-name="ibreve.sc" horiz-adv-x="283" 
d="M52 0v38h71v431h-71v38h177v-38h-67v-431h67v-38h-177zM229 699h36q0 -55 -34 -90t-88 -35q-53 0 -87 35t-34 90h35q0 -40 22.5 -64.5t63.5 -24.5q42 0 64 24.5t22 64.5z" />
    <glyph glyph-name="icircumflex.sc" horiz-adv-x="283" 
d="M52 0v38h71v431h-71v38h177v-38h-67v-431h67v-38h-177zM119 726h49l99 -147h-41l-83 113l-82 -113h-41z" />
    <glyph glyph-name="itilde.sc" horiz-adv-x="283" 
d="M52 0v38h71v431h-71v38h177v-38h-67v-431h67v-38h-177zM273 647l-10 -38q-23 25 -54 25q-20 0 -61 -16.5t-70 -16.5q-19 0 -37.5 8.5t-26.5 18.5l10 36q21 -23 54 -23q24 0 63.5 16.5t67.5 16.5q37 0 64 -27z" />
    <glyph glyph-name="idieresis.sc" horiz-adv-x="283" 
d="M52 0v38h71v431h-71v38h177v-38h-67v-431h67v-38h-177zM58 611q-39 0 -39 39q0 40 39 40q16 0 27.5 -10t11.5 -30q0 -19 -11.5 -29t-27.5 -10zM228 611q-39 0 -39 39q0 40 39 40q16 0 27.5 -10t11.5 -30q0 -19 -11.5 -29t-27.5 -10z" />
    <glyph glyph-name="imacron.sc" horiz-adv-x="283" 
d="M52 0v38h71v431h-71v38h177v-38h-67v-431h67v-38h-177zM12 660h262v-40h-262v40z" />
    <glyph glyph-name="idotaccent.sc" horiz-adv-x="283" 
d="M52 0v38h71v431h-71v38h177v-38h-67v-431h67v-38h-177zM143 611q-39 0 -39 39q0 40 39 40q16 0 27.5 -10t11.5 -30q0 -19 -11.5 -29t-27.5 -10z" />
    <glyph glyph-name="iogonek.sc" horiz-adv-x="283" 
d="M52 0v38h71v431h-71v38h177v-38h-67v-431h67v-38h-60l-70 -56q-37 -30 -37 -64q0 -40 45 -40q27 0 53 17l12 -33q-38 -19 -69 -19q-36 0 -59 19.5t-23 53.5q0 43 49 84l46 38h-64z" />
    <glyph glyph-name="jcircumflex.sc" horiz-adv-x="264" 
d="M39 469v38h170v-38h-53v-449q0 -127 -113 -190l-24 30q52 30 74.5 64.5t22.5 86.5v458h-77zM103 726h49l99 -147h-41l-83 113l-82 -113h-41z" />
    <glyph glyph-name="kcommaaccent.sc" horiz-adv-x="538" 
d="M184 265l199 204h-59v38h169v-38h-60l-200 -203l216 -228h54v-38h-170v38h63zM157 469v-431h68v-38h-170v38h63v431h-63v38h170v-38h-68zM307 -73l-42 -143h-34l25 143h51z" />
    <glyph glyph-name="lacute.sc" horiz-adv-x="445" 
d="M367 141h37v-141h-348v38h62v431h-62v38h176v-38h-75v-431h210v103zM197 726h49l-87 -147h-41z" />
    <glyph glyph-name="lcaron.sc" horiz-adv-x="446" 
d="M367 141h37v-141h-348v38h62v431h-62v38h176v-38h-75v-431h210v103zM370 507l-42 -143h-34l25 143h51z" />
    <glyph glyph-name="lcommaaccent.sc" horiz-adv-x="445" 
d="M367 141h37v-141h-348v38h62v431h-62v38h176v-38h-75v-431h210v103zM261 -73l-42 -143h-34l25 143h51z" />
    <glyph glyph-name="lslash.sc" horiz-adv-x="446" 
d="M56 219l63 32v218h-62v38h176v-38h-75v-198l75 38v-38l-75 -38v-195h210v103h37v-141h-348v38h62v175l-63 -32v38z" />
    <glyph glyph-name="ldot.sc" horiz-adv-x="445" 
d="M367 141h37v-141h-348v38h62v431h-62v38h176v-38h-75v-431h210v103zM315 231q-39 0 -39 39q0 40 39 40q16 0 27.5 -10t11.5 -30q0 -19 -11.5 -29t-27.5 -10z" />
    <glyph glyph-name="nacute.sc" horiz-adv-x="622" 
d="M384 469v38h188v-38h-59v-469h-52l-305 459v-421h91v-38h-190v38h60v431h-60v38h116l301 -460v422h-90zM369 726h49l-87 -147h-41z" />
    <glyph glyph-name="ncaron.sc" horiz-adv-x="622" 
d="M384 469v38h188v-38h-59v-469h-52l-305 459v-421h91v-38h-190v38h60v431h-60v38h116l301 -460v422h-90zM339 579h-49l-99 147h41l83 -113l82 113h41z" />
    <glyph glyph-name="ntilde.sc" horiz-adv-x="622" 
d="M384 469v38h188v-38h-59v-469h-52l-305 459v-421h91v-38h-190v38h60v431h-60v38h116l301 -460v422h-90zM445 647l-10 -38q-23 25 -54 25q-20 0 -61 -16.5t-70 -16.5q-19 0 -37.5 8.5t-26.5 18.5l10 36q21 -23 54 -23q24 0 63.5 16.5t67.5 16.5q37 0 64 -27z" />
    <glyph glyph-name="ncommaaccent.sc" horiz-adv-x="622" 
d="M384 469v38h188v-38h-59v-469h-52l-305 459v-421h91v-38h-190v38h60v431h-60v38h116l301 -460v422h-90zM344 -73l-42 -143h-34l25 143h51z" />
    <glyph glyph-name="ograve.sc" horiz-adv-x="553" 
d="M107 253q0 -111 38 -166.5t132 -55.5t132 55.5t38 166.5q0 112 -38 167.5t-133 55.5q-93 0 -131 -56t-38 -167zM489 253q0 -261 -213 -261q-212 0 -212 261q0 262 213 262q212 0 212 -262zM176 726h49l79 -147h-41z" />
    <glyph glyph-name="oacute.sc" horiz-adv-x="553" 
d="M107 253q0 -111 38 -166.5t132 -55.5t132 55.5t38 166.5q0 112 -38 167.5t-133 55.5q-93 0 -131 -56t-38 -167zM489 253q0 -261 -213 -261q-212 0 -212 261q0 262 213 262q212 0 212 -262zM332 726h49l-87 -147h-41z" />
    <glyph glyph-name="ocircumflex.sc" horiz-adv-x="553" 
d="M107 253q0 -111 38 -166.5t132 -55.5t132 55.5t38 166.5q0 112 -38 167.5t-133 55.5q-93 0 -131 -56t-38 -167zM489 253q0 -261 -213 -261q-212 0 -212 261q0 262 213 262q212 0 212 -262zM254 726h49l99 -147h-41l-83 113l-82 -113h-41z" />
    <glyph glyph-name="otilde.sc" horiz-adv-x="553" 
d="M107 253q0 -111 38 -166.5t132 -55.5t132 55.5t38 166.5q0 112 -38 167.5t-133 55.5q-93 0 -131 -56t-38 -167zM489 253q0 -261 -213 -261q-212 0 -212 261q0 262 213 262q212 0 212 -262zM408 647l-10 -38q-23 25 -54 25q-20 0 -61 -16.5t-70 -16.5q-19 0 -37.5 8.5
t-26.5 18.5l10 36q21 -23 54 -23q24 0 63.5 16.5t67.5 16.5q37 0 64 -27z" />
    <glyph glyph-name="odieresis.sc" horiz-adv-x="553" 
d="M107 253q0 -111 38 -166.5t132 -55.5t132 55.5t38 166.5q0 112 -38 167.5t-133 55.5q-93 0 -131 -56t-38 -167zM489 253q0 -261 -213 -261q-212 0 -212 261q0 262 213 262q212 0 212 -262zM193 611q-39 0 -39 39q0 40 39 40q16 0 27.5 -10t11.5 -30q0 -19 -11.5 -29
t-27.5 -10zM363 611q-39 0 -39 39q0 40 39 40q16 0 27.5 -10t11.5 -30q0 -19 -11.5 -29t-27.5 -10z" />
    <glyph glyph-name="omacron.sc" horiz-adv-x="553" 
d="M107 253q0 -111 38 -166.5t132 -55.5t132 55.5t38 166.5q0 112 -38 167.5t-133 55.5q-93 0 -131 -56t-38 -167zM489 253q0 -261 -213 -261q-212 0 -212 261q0 262 213 262q212 0 212 -262zM147 660h262v-40h-262v40z" />
    <glyph glyph-name="obreve.sc" horiz-adv-x="553" 
d="M107 253q0 -111 38 -166.5t132 -55.5t132 55.5t38 166.5q0 112 -38 167.5t-133 55.5q-93 0 -131 -56t-38 -167zM489 253q0 -261 -213 -261q-212 0 -212 261q0 262 213 262q212 0 212 -262zM364 699h36q0 -55 -34 -90t-88 -35q-53 0 -87 35t-34 90h35q0 -40 22.5 -64.5
t63.5 -24.5q42 0 64 24.5t22 64.5z" />
    <glyph glyph-name="ohungarumlaut.sc" horiz-adv-x="553" 
d="M107 253q0 -111 38 -166.5t132 -55.5t132 55.5t38 166.5q0 112 -38 167.5t-133 55.5q-93 0 -131 -56t-38 -167zM489 253q0 -261 -213 -261q-212 0 -212 261q0 262 213 262q212 0 212 -262zM266 726h49l-87 -147h-41zM396 726h49l-87 -147h-41z" />
    <glyph glyph-name="oslash.sc" horiz-adv-x="555" 
d="M390 548v-10l-13 -42q113 -49 113 -243q0 -124 -48.5 -192.5t-164.5 -68.5q-29 0 -57 5l-12 -40h-36v12l12 38q-119 47 -119 246q0 125 48.5 193.5t164.5 68.5q32 0 61 -6l12 39h39zM448 253q0 162 -83 205l-133 -423q19 -4 46 -4q94 0 132 55.5t38 166.5zM108 253
q0 -168 88 -207l131 425q-25 5 -50 5q-93 0 -131 -56t-38 -167z" />
    <glyph glyph-name="oslashacute.sc" horiz-adv-x="555" 
d="M390 548v-10l-13 -42q113 -49 113 -243q0 -124 -48.5 -192.5t-164.5 -68.5q-29 0 -57 5l-12 -40h-36v12l12 38q-119 47 -119 246q0 125 48.5 193.5t164.5 68.5q32 0 61 -6l12 39h39zM448 253q0 162 -83 205l-133 -423q19 -4 46 -4q94 0 132 55.5t38 166.5zM108 253
q0 -168 88 -207l131 425q-25 5 -50 5q-93 0 -131 -56t-38 -167zM331 726h49l-87 -147h-41z" />
    <glyph glyph-name="oe.sc" horiz-adv-x="720" 
d="M622 121h38v-121h-315q-32 -8 -69 -8q-115 0 -163.5 68.5t-48.5 192.5q0 125 48.5 193.5t164.5 68.5q35 0 69 -8h311v-114h-38v76h-227v-188h202v-38h-202v-205h230v83zM277 31q46 0 76 13v419q-34 13 -77 13q-93 0 -131 -56t-38 -167t38 -166.5t132 -55.5z" />
    <glyph glyph-name="racute.sc" horiz-adv-x="539" 
d="M119 37v433h-63v37h224q168 0 168 -135q0 -57 -35.5 -91t-102.5 -42q43 -27 80 -82.5t57 -119.5h69v-37h-170v37h57q-18 60 -55.5 114.5t-87.5 84.5h-102v-199h74v-37h-176v37h63zM406 371q0 50 -28.5 74.5t-97.5 24.5h-122v-197h115q133 0 133 98zM296 726h49l-87 -147
h-41z" />
    <glyph glyph-name="rcaron.sc" horiz-adv-x="539" 
d="M119 37v433h-63v37h224q168 0 168 -135q0 -57 -35.5 -91t-102.5 -42q43 -27 80 -82.5t57 -119.5h69v-37h-170v37h57q-18 60 -55.5 114.5t-87.5 84.5h-102v-199h74v-37h-176v37h63zM406 371q0 50 -28.5 74.5t-97.5 24.5h-122v-197h115q133 0 133 98zM267 579h-49l-99 147
h41l83 -113l82 113h41z" />
    <glyph glyph-name="rcommaaccent.sc" horiz-adv-x="539" 
d="M118 37v433h-63v37h224q168 0 168 -135q0 -57 -35.5 -91t-102.5 -42q43 -27 80 -82.5t57 -119.5h69v-37h-170v37h57q-18 60 -55.5 114.5t-87.5 84.5h-102v-199h74v-37h-176v37h63zM405 371q0 50 -28.5 74.5t-97.5 24.5h-122v-197h115q133 0 133 98zM302 -73l-42 -143h-34
l25 143h51z" />
    <glyph glyph-name="sacute.sc" horiz-adv-x="448" 
d="M371 365h-33l-9 96q-50 15 -100 15q-55 0 -85.5 -27t-30.5 -68q0 -38 21 -58.5t67 -36.5l68 -23q119 -40 119 -138q0 -55 -45 -94t-122 -39q-88 0 -148 32l-9 131h33l16 -106q51 -20 108 -20q55 0 90 25.5t35 68.5q0 69 -92 101l-73 25q-54 19 -82 49t-28 81
q0 55 42.5 95.5t115.5 40.5t142 -29v-121zM287 726h49l-87 -147h-41z" />
    <glyph glyph-name="scircumflex.sc" horiz-adv-x="448" 
d="M371 365h-33l-9 96q-50 15 -100 15q-55 0 -85.5 -27t-30.5 -68q0 -38 21 -58.5t67 -36.5l68 -23q119 -40 119 -138q0 -55 -45 -94t-122 -39q-88 0 -148 32l-9 131h33l16 -106q51 -20 108 -20q55 0 90 25.5t35 68.5q0 69 -92 101l-73 25q-54 19 -82 49t-28 81
q0 55 42.5 95.5t115.5 40.5t142 -29v-121zM209 726h49l99 -147h-41l-83 113l-82 -113h-41z" />
    <glyph glyph-name="scaron.sc" horiz-adv-x="448" 
d="M371 365h-33l-9 96q-50 15 -100 15q-55 0 -85.5 -27t-30.5 -68q0 -38 21 -58.5t67 -36.5l68 -23q119 -40 119 -138q0 -55 -45 -94t-122 -39q-88 0 -148 32l-9 131h33l16 -106q51 -20 108 -20q55 0 90 25.5t35 68.5q0 69 -92 101l-73 25q-54 19 -82 49t-28 81
q0 55 42.5 95.5t115.5 40.5t142 -29v-121zM258 579h-49l-99 147h41l83 -113l82 113h41z" />
    <glyph glyph-name="scedilla.sc" horiz-adv-x="449" 
d="M371 365h-33l-9 96q-50 15 -100 15q-55 0 -85.5 -27t-30.5 -68q0 -38 21 -58.5t67 -36.5l68 -23q119 -40 119 -138q0 -50 -37.5 -87.5t-103.5 -43.5l-20 -55q10 4 25 4q26 0 44.5 -19t18.5 -48q0 -31 -23 -52.5t-68 -21.5q-40 0 -94 23l9 39q46 -26 85 -26q50 0 50 38
q0 16 -12.5 26t-30.5 10q-19 0 -31 -4q-7 3 -19 8l26 76q-82 4 -134 32l-9 131h33l16 -106q51 -20 108 -20q55 0 90 25.5t35 68.5q0 69 -92 101l-73 25q-54 19 -82 49t-28 81q0 55 42.5 95.5t115.5 40.5t142 -29v-121z" />
    <glyph glyph-name="scommaaccent.sc" horiz-adv-x="448" 
d="M371 365h-33l-9 96q-50 15 -100 15q-55 0 -85.5 -27t-30.5 -68q0 -38 21 -58.5t67 -36.5l68 -23q119 -40 119 -138q0 -55 -45 -94t-122 -39q-88 0 -148 32l-9 131h33l16 -106q51 -20 108 -20q55 0 90 25.5t35 68.5q0 69 -92 101l-73 25q-54 19 -82 49t-28 81
q0 55 42.5 95.5t115.5 40.5t142 -29v-121zM256 -73l-42 -143h-34l25 143h51z" />
    <glyph glyph-name="tcaron.sc" horiz-adv-x="475" 
d="M40 507h395v-117h-35v79h-146v-431h80v-38h-200v38h81v431h-140v-79h-35v117zM261 579h-49l-99 147h41l83 -113l82 113h41z" />
    <glyph glyph-name="tcommaaccent.sc" horiz-adv-x="475" 
d="M40 507h395v-117h-35v79h-146v-431h80v-38h-80l-22 -60q10 4 25 4q26 0 44.5 -19t18.5 -48q0 -31 -23 -52.5t-68 -21.5q-40 0 -94 23l9 39q46 -26 85 -26q50 0 50 38q0 16 -12.5 26t-30.5 10q-19 0 -31 -4q-7 3 -19 8l28 83h-80v38h81v431h-140v-79h-35v117z" />
    <glyph glyph-name="uni021A.sc" horiz-adv-x="473" 
d="M39 507h395v-117h-35v79h-146v-431h80v-38h-200v38h81v431h-140v-79h-35v117zM256 -73l-42 -143h-34l25 143h51z" />
    <glyph glyph-name="tbar.sc" horiz-adv-x="475" 
d="M90 289h125v180h-140v-79h-35v117h395v-117h-35v79h-146v-180h131v-38h-131v-213h80v-38h-200v38h81v213h-125v38z" />
    <glyph glyph-name="thorn.sc" horiz-adv-x="525" 
d="M128 468h-79v39h204v-39h-86v-50h136q173 0 173 -162q0 -164 -173 -164h-136v-53h86v-39h-204v39h79v429zM440 255q0 62 -31 95.5t-106 33.5h-136v-258h136q75 0 106 33t31 96z" />
    <glyph glyph-name="ugrave.sc" horiz-adv-x="587" 
d="M541 469h-58v-284q0 -193 -190 -193t-190 193v284h-57v38h181v-38h-85v-287q0 -84 39 -117.5t113 -33.5q73 0 111.5 33.5t38.5 117.5v287h-83v38h180v-38zM191 726h49l79 -147h-41z" />
    <glyph glyph-name="uacute.sc" horiz-adv-x="587" 
d="M541 469h-58v-284q0 -193 -190 -193t-190 193v284h-57v38h181v-38h-85v-287q0 -84 39 -117.5t113 -33.5q73 0 111.5 33.5t38.5 117.5v287h-83v38h180v-38zM351 726h49l-87 -147h-41z" />
    <glyph glyph-name="ucircumflex.sc" horiz-adv-x="587" 
d="M541 469h-58v-284q0 -193 -190 -193t-190 193v284h-57v38h181v-38h-85v-287q0 -84 39 -117.5t113 -33.5q73 0 111.5 33.5t38.5 117.5v287h-83v38h180v-38zM269 726h49l99 -147h-41l-83 113l-82 -113h-41z" />
    <glyph glyph-name="utilde.sc" horiz-adv-x="587" 
d="M541 469h-58v-284q0 -193 -190 -193t-190 193v284h-57v38h181v-38h-85v-287q0 -84 39 -117.5t113 -33.5q73 0 111.5 33.5t38.5 117.5v287h-83v38h180v-38zM423 647l-10 -38q-23 25 -54 25q-20 0 -61 -16.5t-70 -16.5q-19 0 -37.5 8.5t-26.5 18.5l10 36q21 -23 54 -23
q24 0 63.5 16.5t67.5 16.5q37 0 64 -27z" />
    <glyph glyph-name="udieresis.sc" horiz-adv-x="587" 
d="M541 469h-58v-284q0 -193 -190 -193t-190 193v284h-57v38h181v-38h-85v-287q0 -84 39 -117.5t113 -33.5q73 0 111.5 33.5t38.5 117.5v287h-83v38h180v-38zM208 611q-39 0 -39 39q0 40 39 40q16 0 27.5 -10t11.5 -30q0 -19 -11.5 -29t-27.5 -10zM378 611q-39 0 -39 39
q0 40 39 40q16 0 27.5 -10t11.5 -30q0 -19 -11.5 -29t-27.5 -10z" />
    <glyph glyph-name="umacron.sc" horiz-adv-x="587" 
d="M541 469h-58v-284q0 -193 -190 -193t-190 193v284h-57v38h181v-38h-85v-287q0 -84 39 -117.5t113 -33.5q73 0 111.5 33.5t38.5 117.5v287h-83v38h180v-38zM162 660h262v-40h-262v40z" />
    <glyph glyph-name="ubreve.sc" horiz-adv-x="587" 
d="M541 469h-58v-284q0 -193 -190 -193t-190 193v284h-57v38h181v-38h-85v-287q0 -84 39 -117.5t113 -33.5q73 0 111.5 33.5t38.5 117.5v287h-83v38h180v-38zM379 699h36q0 -55 -34 -90t-88 -35q-53 0 -87 35t-34 90h35q0 -40 22.5 -64.5t63.5 -24.5q42 0 64 24.5t22 64.5z
" />
    <glyph glyph-name="uring.sc" horiz-adv-x="587" 
d="M541 469h-58v-284q0 -193 -190 -193t-190 193v284h-57v38h181v-38h-85v-287q0 -84 39 -117.5t113 -33.5q73 0 111.5 33.5t38.5 117.5v287h-83v38h180v-38zM195 652q0 40 27 64.5t71 24.5t71.5 -24.5t27.5 -64.5t-27.5 -65t-71.5 -25t-71 25t-27 65zM232 652
q0 -27 16.5 -42.5t44.5 -15.5q29 0 45.5 15.5t16.5 42.5t-16.5 42.5t-45.5 15.5q-28 0 -44.5 -15.5t-16.5 -42.5z" />
    <glyph glyph-name="uhungarumlaut.sc" horiz-adv-x="587" 
d="M541 469h-58v-284q0 -193 -190 -193t-190 193v284h-57v38h181v-38h-85v-287q0 -84 39 -117.5t113 -33.5q73 0 111.5 33.5t38.5 117.5v287h-83v38h180v-38zM285 726h49l-87 -147h-41zM415 726h49l-87 -147h-41z" />
    <glyph glyph-name="uogonek.sc" horiz-adv-x="586" 
d="M541 469h-58v-284q0 -158 -129 -186l-68 -55q-37 -30 -37 -64q0 -40 45 -40q28 0 53 17l12 -33q-38 -19 -69 -19q-36 0 -59 19.5t-23 53.5q0 43 49 84l36 30q-190 0 -190 193v284h-57v38h181v-38h-85v-287q0 -84 39 -117.5t113 -33.5q73 0 111.5 33.5t38.5 117.5v287h-83
v38h180v-38z" />
    <glyph glyph-name="wacute.sc" horiz-adv-x="816" 
d="M593 469v38h202v-38h-57l-144 -469h-50l-135 353l-136 -353h-50l-146 469h-58v38h186v-38h-86l131 -427l139 361l-40 104h45l174 -465l131 427h-106zM467 726h49l-87 -147h-41z" />
    <glyph glyph-name="wcircumflex.sc" horiz-adv-x="816" 
d="M593 469v38h202v-38h-57l-144 -469h-50l-135 353l-136 -353h-50l-146 469h-58v38h186v-38h-86l131 -427l139 361l-40 104h45l174 -465l131 427h-106zM385 726h49l99 -147h-41l-83 113l-82 -113h-41z" />
    <glyph glyph-name="wdieresis.sc" horiz-adv-x="816" 
d="M593 469v38h202v-38h-57l-144 -469h-50l-135 353l-136 -353h-50l-146 469h-58v38h186v-38h-86l131 -427l139 361l-40 104h45l174 -465l131 427h-106zM324 611q-39 0 -39 39q0 40 39 40q16 0 27.5 -10t11.5 -30q0 -19 -11.5 -29t-27.5 -10zM494 611q-39 0 -39 39
q0 40 39 40q16 0 27.5 -10t11.5 -30q0 -19 -11.5 -29t-27.5 -10z" />
    <glyph glyph-name="wgrave.sc" horiz-adv-x="816" 
d="M593 469v38h202v-38h-57l-144 -469h-50l-135 353l-136 -353h-50l-146 469h-58v38h186v-38h-86l131 -427l139 361l-40 104h45l174 -465l131 427h-106zM310 726h49l79 -147h-41z" />
    <glyph glyph-name="yacute.sc" horiz-adv-x="514" 
d="M21 469v38h169v-38h-76l144 -227l146 227h-77v38h170v-38h-48l-173 -263v-168h78v-38h-199v38h82v168l-168 263h-48zM313 726h49l-87 -147h-41z" />
    <glyph glyph-name="ycircumflex.sc" horiz-adv-x="514" 
d="M21 469v38h169v-38h-76l144 -227l146 227h-77v38h170v-38h-48l-173 -263v-168h78v-38h-199v38h82v168l-168 263h-48zM234 726h49l99 -147h-41l-83 113l-82 -113h-41z" />
    <glyph glyph-name="ydieresis.sc" horiz-adv-x="514" 
d="M21 469v38h169v-38h-76l144 -227l146 227h-77v38h170v-38h-48l-173 -263v-168h78v-38h-199v38h82v168l-168 263h-48zM173 611q-39 0 -39 39q0 40 39 40q16 0 27.5 -10t11.5 -30q0 -19 -11.5 -29t-27.5 -10zM343 611q-39 0 -39 39q0 40 39 40q16 0 27.5 -10t11.5 -30
q0 -19 -11.5 -29t-27.5 -10z" />
    <glyph glyph-name="ygrave.sc" horiz-adv-x="514" 
d="M21 469v38h169v-38h-76l144 -227l146 227h-77v38h170v-38h-48l-173 -263v-168h78v-38h-199v38h82v168l-168 263h-48zM159 726h49l79 -147h-41z" />
    <glyph glyph-name="zacute.sc" horiz-adv-x="473" 
d="M412 507v-37l-313 -432h271v110h38v-148h-356v37l312 432h-257v-92h-38v130h343zM299 726h49l-87 -147h-41z" />
    <glyph glyph-name="zcaron.sc" horiz-adv-x="473" 
d="M412 507v-37l-313 -432h271v110h38v-148h-356v37l312 432h-257v-92h-38v130h343zM269 579h-49l-99 147h41l83 -113l82 113h41z" />
    <glyph glyph-name="zdotaccent.sc" horiz-adv-x="473" 
d="M412 507v-37l-313 -432h271v110h38v-148h-356v37l312 432h-257v-92h-38v130h343zM244 611q-39 0 -39 39q0 40 39 40q16 0 27.5 -10t11.5 -30q0 -19 -11.5 -29t-27.5 -10z" />
    <glyph glyph-name="ij.sc" horiz-adv-x="570" 
d="M52 0v38h71v431h-71v38h177v-38h-67v-431h67v-38h-177zM345 469v38h170v-38h-53v-449q0 -127 -113 -190l-24 30q52 30 74.5 64.5t22.5 86.5v458h-77z" />
    <glyph glyph-name="germandbls.sc" horiz-adv-x="885" 
d="M808 365h-33l-9 96q-50 15 -100 15q-55 0 -85.5 -27t-30.5 -68q0 -38 21 -58.5t67 -36.5l68 -23q119 -40 119 -138q0 -55 -45 -94t-122 -39q-88 0 -148 32l-9 131h33l16 -106q51 -20 108 -20q55 0 90 25.5t35 68.5q0 69 -92 101l-73 25q-54 19 -82 49t-28 81
q0 55 42.5 95.5t115.5 40.5t142 -29v-121zM371 365h-33l-9 96q-50 15 -100 15q-55 0 -85.5 -27t-30.5 -68q0 -38 21 -58.5t67 -36.5l68 -23q119 -40 119 -138q0 -55 -45 -94t-122 -39q-88 0 -148 32l-9 131h33l16 -106q51 -20 108 -20q55 0 90 25.5t35 68.5q0 69 -92 101
l-73 25q-54 19 -82 49t-28 81q0 55 42.5 95.5t115.5 40.5t142 -29v-121z" />
    <glyph glyph-name="fi.sc" horiz-adv-x="746" 
d="M56 0v38h62v431h-62v38h365v-119h-38v81h-226v-210h211v-39h-211v-182h87v-38h-188zM515 0v38h71v431h-71v38h177v-38h-67v-431h67v-38h-177z" />
    <glyph glyph-name="fl.sc" horiz-adv-x="907" 
d="M56 0v38h62v431h-62v38h365v-119h-38v81h-226v-210h211v-39h-211v-182h87v-38h-188zM829 141h37v-141h-348v38h62v431h-62v38h176v-38h-75v-431h210v103z" />
    <glyph glyph-name="eng.sc" horiz-adv-x="631" 
d="M481 -25l-324 483v-420h92v-38h-193v38h62v431h-62v38h118l308 -464v426h-92v38h192v-38h-61v-494q0 -60 -19 -96.5t-72 -52.5l-17 34q39 13 53.5 38t14.5 77z" />
    <glyph glyph-name="grave.sc" horiz-adv-x="600" 
d="M236 726h49l79 -147h-41z" />
    <glyph glyph-name="acute.sc" horiz-adv-x="600" 
d="M315 726h49l-87 -147h-41z" />
    <glyph glyph-name="circumflex.sc" horiz-adv-x="600" 
d="M275 726h49l99 -147h-41l-83 113l-82 -113h-41z" />
    <glyph glyph-name="caron.sc" horiz-adv-x="600" 
d="M324 579h-49l-99 147h41l83 -113l82 113h41z" />
    <glyph glyph-name="caronalt.sc" horiz-adv-x="600" 
d="M338 507l-42 -143h-34l25 143h51z" />
    <glyph glyph-name="tilde.sc" horiz-adv-x="600" 
d="M429 647l-10 -38q-23 25 -54 25q-20 0 -61 -16.5t-70 -16.5q-19 0 -37.5 8.5t-26.5 18.5l10 36q21 -23 54 -23q24 0 63.5 16.5t67.5 16.5q37 0 64 -27z" />
    <glyph glyph-name="dieresis.sc" horiz-adv-x="600" 
d="M215 611q-39 0 -39 39q0 40 39 40q16 0 27.5 -10t11.5 -30q0 -19 -11.5 -29t-27.5 -10zM385 611q-39 0 -39 39q0 40 39 40q16 0 27.5 -10t11.5 -30q0 -19 -11.5 -29t-27.5 -10z" />
    <glyph glyph-name="macron.sc" horiz-adv-x="600" 
d="M169 660h262v-40h-262v40z" />
    <glyph glyph-name="breve.sc" horiz-adv-x="600" 
d="M385 699h36q0 -55 -34 -90t-88 -35q-53 0 -87 35t-34 90h35q0 -40 22.5 -64.5t63.5 -24.5q42 0 64 24.5t22 64.5z" />
    <glyph glyph-name="ring.sc" horiz-adv-x="600" 
d="M201 652q0 40 27 64.5t71 24.5t71.5 -24.5t27.5 -64.5t-27.5 -65t-71.5 -25t-71 25t-27 65zM238 652q0 -27 16.5 -42.5t44.5 -15.5q29 0 45.5 15.5t16.5 42.5t-16.5 42.5t-45.5 15.5q-28 0 -44.5 -15.5t-16.5 -42.5z" />
    <glyph glyph-name="hungarumlaut.sc" horiz-adv-x="600" 
d="M250 726h49l-87 -147h-41zM380 726h49l-87 -147h-41z" />
    <glyph glyph-name="dotaccent.sc" horiz-adv-x="600" 
d="M300 611q-39 0 -39 39q0 40 39 40q16 0 27.5 -10t11.5 -30q0 -19 -11.5 -29t-27.5 -10z" />
    <glyph glyph-name="exclamdown.sc" horiz-adv-x="247" 
d="M108 350h31l8 -355h-48zM122 507q16 0 26.5 -10t10.5 -25t-10.5 -25t-26.5 -10t-26.5 10t-10.5 25t10.5 25t26.5 10z" />
    <glyph glyph-name="questiondown.sc" horiz-adv-x="373" 
d="M288 125h37v-84q-59 -46 -135 -46q-64 0 -102 35t-38 87q0 32 12.5 57.5t35 43t39.5 26.5t41 19v95h38v-119q-124 -37 -124 -120q0 -35 26 -60.5t73 -25.5q55 0 97 26v66zM194 515q16 0 26.5 -10t10.5 -25t-10.5 -25t-26.5 -10t-27 10t-11 25t11 25t27 10z" />
    <glyph glyph-name="Euro.sc" horiz-adv-x="495" 
d="M58 319h44q12 92 61 144t136 52q72 0 137 -34l-16 -38q-57 32 -122 32q-133 0 -155 -156h220l-16 -35h-207q-1 -20 -1 -29q0 -26 1 -38h179l-16 -36h-159q24 -149 155 -149q71 0 132 38l12 -39q-70 -39 -144 -39q-171 0 -197 189h-44v36h41q-1 12 -1 38q0 19 1 29h-41v35
z" />
    <glyph glyph-name="cent.sc" horiz-adv-x="442" 
d="M300 398l-14 -54q53 -11 88 -36l-14 -36q-35 26 -83 36l-72 -276q15 -3 31 -3q68 0 124 40l14 -36q-59 -41 -141 -41q-20 0 -37 3l-12 -46l-31 7l12 47q-97 36 -97 169q0 80 42 129t123 49q3 0 10 -0.5t10 -0.5l15 56zM111 173q0 -101 64 -132l69 271q-133 0 -133 -139z
" />
    <glyph glyph-name="sterling.sc" horiz-adv-x="471" 
d="M58 217h56v118q0 81 39.5 130.5t121.5 49.5q76 0 138 -28l-10 -102h-30v77q-44 14 -97 14q-122 0 -122 -144v-115h168v-36h-168v-143h253v-38h-349v32l56 13v136h-56v36z" />
    <glyph glyph-name="florin.sc" horiz-adv-x="305" 
d="M159 306v-358q0 -118 -104 -118q-20 0 -38 6v38q22 -5 39 -5q36 0 50 20t14 60v357h-83v36h83v70q0 118 104 118q20 0 38 -6v-38q-22 5 -39 5q-36 0 -50 -20t-14 -60v-69h91v-36h-91z" />
    <glyph glyph-name="yen.sc" horiz-adv-x="556" 
d="M87 217h162l-43 67h-119v35h97l-96 150h-48v38h169v-38h-76l144 -227l146 227h-77v38h170v-38h-48l-99 -150h99v-35h-122l-44 -67h166v-36h-173v-143h78v-38h-199v38h82v143h-169v36z" />
    <glyph glyph-name="rupee.sc" horiz-adv-x="452" 
d="M64 507h319v-34h-101q42 -32 47 -91h54v-34h-54q-5 -51 -41 -84t-98 -40q98 -63 137 -187h69v-37h-169v37h56q-36 119 -143 184h-76v37h86q126 0 137 90h-223v34h223q-11 88 -124 88h-99v37z" />
    <glyph glyph-name="perthousand.sc" horiz-adv-x="790" 
d="M458 507v-5l-330 -502h-37v5l327 502h40zM156 515q55 0 82.5 -32t27.5 -83t-28 -83t-82 -32t-81 32t-27 83q0 50 27.5 82.5t80.5 32.5zM156 321q74 0 74 79q0 78 -74 78q-72 0 -72 -78q0 -36 17.5 -57.5t54.5 -21.5zM393 221q56 0 83 -31.5t27 -82.5t-28 -83t-82 -32
t-81.5 32t-27.5 83q0 50 28 82t81 32zM393 28q74 0 74 79q0 78 -74 78q-72 0 -72 -78q0 -79 72 -79zM640 221q56 0 83 -31.5t27 -82.5t-28 -83t-82 -32t-81.5 32t-27.5 83q0 50 28 82t81 32zM640 28q74 0 74 79q0 78 -74 78q-72 0 -72 -78q0 -79 72 -79z" />
    <glyph glyph-name="zero.tf" 
d="M91 337q0 -161 41 -235.5t146 -74.5q106 0 148.5 75t42.5 235q0 159 -42.5 235t-148.5 76q-102 0 -144.5 -76t-42.5 -235zM512 337q0 -168 -54 -258t-179 -90q-127 0 -179 89t-52 259q0 169 54 259t175 90q126 0 180.5 -90t54.5 -259z" />
    <glyph glyph-name="one.tf" 
d="M119 0v40h173v596l-179 -75l-13 35l192 80h39v-636h153v-40h-365z" />
    <glyph glyph-name="two.tf" 
d="M120 470l-40 -2q-1 8 -1 23q0 89 52 142t140 53q98 0 148 -51.5t50 -130.5q0 -62 -27.5 -109t-79.5 -101l-241 -254h322v97h38v-137h-414v40l274 287q47 50 66 89t19 89q0 63 -37 103t-118 40q-75 0 -113.5 -43.5t-38.5 -113.5q0 -14 1 -21z" />
    <glyph glyph-name="three.tf" 
d="M120 517h-38v109q82 60 183 60q96 0 146 -45.5t50 -134.5q0 -69 -35 -108.5t-84 -50.5q60 -13 98.5 -56t38.5 -113q0 -87 -56.5 -138t-164.5 -51q-120 0 -195 72l21 36q69 -69 175 -69q176 0 176 150q0 145 -185 145h-70v41h67q77 0 124.5 35t47.5 107q0 141 -155 141
q-79 0 -144 -40v-90z" />
    <glyph glyph-name="four.tf" 
d="M521 200v-39h-115v-161h-39v161h-336v37l274 378q20 28 35.5 53t21.5 36l5 11h39v-476h115zM79 200h288v398z" />
    <glyph glyph-name="five.tf" 
d="M79 45v126h38v-104q59 -39 144 -39q86 0 133 48t47 141q0 79 -40 123.5t-120 44.5q-85 0 -145 -49h-37l40 340h329v-40h-295l-32 -261q59 49 143 49q96 0 147 -55t51 -152q0 -105 -57.5 -166.5t-163.5 -61.5q-109 0 -182 56z" />
    <glyph glyph-name="six.tf" 
d="M320 647q-58 0 -100.5 -28t-65.5 -75.5t-33.5 -101t-10.5 -114.5q0 -14 1 -22q15 54 67.5 92.5t124.5 38.5q98 0 146 -60t48 -157q0 -105 -54.5 -168t-152.5 -63q-220 0 -220 332q0 73 12.5 135t40 115.5t78.5 84t121 30.5q90 0 157 -38l-18 -39q-69 38 -141 38zM292 28
q85 0 125 53t40 139q0 80 -38 128.5t-118 48.5q-71 0 -118.5 -42.5t-69.5 -101.5q4 -48 14 -85t29.5 -70.5t53.5 -51.5t82 -18z" />
    <glyph glyph-name="seven.tf" 
d="M194 0l249 637h-317v-127h-39v166h409l-3 -38q-19 -22 -59 -127l-195 -511h-45z" />
    <glyph glyph-name="eight.tf" 
d="M492 504q0 -55 -33 -98.5t-78 -70.5q124 -48 124 -160q0 -90 -58.5 -138t-163.5 -48q-103 0 -162.5 48.5t-59.5 137.5q0 61 36 109t89 76q-105 41 -105 144q0 79 51 130t152 51q104 0 156 -50.5t52 -130.5zM358 303l-133 44q-56 -31 -88.5 -70t-32.5 -102
q0 -70 47 -108.5t133 -38.5q178 0 178 147q0 93 -104 128zM124 505q0 -80 92 -112l127 -45q106 60 106 157q0 141 -165 141q-160 0 -160 -141z" />
    <glyph glyph-name="nine.tf" 
d="M239 28q210 0 210 309q0 14 -1 22q-17 -54 -69.5 -92.5t-122.5 -38.5q-99 0 -146.5 61.5t-47.5 166.5q0 102 54 166t156 64q217 0 217 -337q0 -360 -252 -360q-94 0 -157 38l18 39q69 -38 141 -38zM271 647q-88 0 -128.5 -53t-40.5 -137q0 -189 156 -189q133 0 187 146
q-15 233 -174 233z" />
    <glyph glyph-name="zero.tosf" 
d="M98 286q0 -123 40.5 -190.5t139.5 -67.5q100 0 142 68t42 190q0 261 -184 261q-180 0 -180 -261zM505 286q0 -62 -12 -113.5t-37.5 -94t-70.5 -66t-106 -23.5q-224 0 -224 297q0 86 20.5 150.5t72 107t129.5 42.5q62 0 107.5 -24t71 -66.5t37.5 -94.5t12 -115z" />
    <glyph glyph-name="one.tosf" 
d="M123 0v38h173v495l-179 -65l-13 35l192 72h39v-537h153v-38h-365z" />
    <glyph glyph-name="two.tosf" 
d="M482 0h-414v34l274 245q48 43 66.5 76.5t18.5 75.5q0 52 -38.5 84t-116.5 32q-76 0 -114 -34.5t-38 -93.5q0 -12 1 -18l-40 -1q-1 7 -1 19q0 76 52 121.5t140 45.5q99 0 148.5 -43t49.5 -112q0 -56 -27 -97t-79 -87l-235 -209h315v79h38v-117z" />
    <glyph glyph-name="three.tosf" 
d="M120 418h-38v108q82 60 183 60q96 0 146 -45.5t50 -134.5q0 -69 -35 -108.5t-84 -50.5q60 -13 98.5 -56t38.5 -113q0 -87 -56.5 -138t-164.5 -51q-120 0 -195 72l21 36q69 -69 175 -69q176 0 176 150q0 145 -185 145h-70v41h67q77 0 124.5 35t47.5 107q0 141 -155 141
q-79 0 -144 -40v-89z" />
    <glyph glyph-name="four.tosf" 
d="M520 100v-39h-115v-161h-39v161h-336v37l274 378q20 28 35.5 53t20.5 36l6 11h39v-476h115zM78 100h288v398z" />
    <glyph glyph-name="five.tosf" 
d="M76 -55v126h38v-104q58 -39 144 -39t133 48t47 141q0 79 -40 123.5t-120 44.5q-85 0 -145 -49h-37l40 340h329v-40h-295l-32 -261q59 49 143 49q96 0 147 -55t51 -152q0 -105 -57.5 -166.5t-163.5 -61.5q-108 0 -182 56z" />
    <glyph glyph-name="six.tosf" 
d="M321 647q-60 0 -103.5 -28t-67 -75.5t-34 -101t-10.5 -114.5q0 -14 1 -22q15 54 69 92.5t127 38.5q100 0 149 -60t49 -157q0 -105 -55.5 -168t-155.5 -63q-224 0 -224 332q0 73 13 135t41 115.5t80 84t123 30.5q91 0 160 -38l-18 -39q-70 38 -144 38zM292 28
q88 0 128.5 53t40.5 139q0 80 -39 129t-121 49q-73 0 -121.5 -43t-70.5 -102q4 -48 14 -85t30 -70.5t55 -51.5t84 -18z" />
    <glyph glyph-name="seven.tosf" 
d="M192 -100l249 637h-317v-127h-39v166h409v-38q-27 -42 -60 -127l-197 -511h-45z" />
    <glyph glyph-name="eight.tosf" 
d="M491 504q0 -55 -33 -99t-78 -70q124 -50 124 -160q0 -90 -58.5 -138t-163.5 -48q-103 0 -162.5 48.5t-59.5 137.5q0 61 36 109.5t89 75.5q-105 43 -105 144q0 79 51 130t152 51q104 0 156 -50.5t52 -130.5zM357 303l-133 44q-56 -31 -88.5 -70t-32.5 -102
q0 -70 47 -108.5t133 -38.5q178 0 178 147q0 93 -104 128zM123 505q0 -80 92 -112l127 -45q106 60 106 157q0 141 -165 141q-160 0 -160 -141z" />
    <glyph glyph-name="nine.tosf" 
d="M238 -73q215 0 215 309q0 14 -1 22q-17 -54 -71 -92.5t-125 -38.5q-102 0 -150 61.5t-48 166.5q0 102 55 166.5t159 64.5q221 0 221 -338q0 -360 -257 -360q-96 0 -160 38l18 39q70 -38 144 -38zM271 547q-90 0 -131.5 -53.5t-41.5 -137.5q0 -190 160 -190q134 0 191 147
q-15 234 -178 234z" />
    <glyph glyph-name="Euro.tf" 
d="M42 423h55q15 123 76.5 193t167.5 70q91 0 171 -46l-18 -39q-72 45 -154 45q-89 0 -138.5 -59.5t-62.5 -163.5h279l-19 -40h-264q-1 -14 -1 -43q0 -20 2 -54h225l-18 -40h-204q30 -217 201 -217q91 0 169 55l13 -41q-90 -54 -181 -54q-214 0 -243 257h-56v40h52
q-1 17 -1 54q0 29 1 43h-52v40z" />
    <glyph glyph-name="cent.tf" 
d="M379 531l-18 -72q69 -16 114 -51l-17 -37q-47 38 -106 51l-95 -391q19 -4 45 -4q88 0 156 57l17 -37q-29 -23 -76.5 -40.5t-99.5 -17.5q-24 0 -51 5l-14 -61l-36 9l15 63q-117 48 -117 224q0 107 51.5 172t151.5 65q4 0 12.5 -0.5t12.5 -0.5l18 75zM222 44l93 384
q-94 0 -135 -50.5t-41 -148.5q0 -142 83 -185z" />
    <glyph glyph-name="sterling.tf" 
d="M58 286h71v161q0 107 48.5 173t150.5 66q97 0 171 -36l-12 -128h-31v104q-60 20 -128 20q-158 0 -158 -203v-157h215v-40h-215v-208h322v-38h-434v32l71 13v201h-71v40z" />
    <glyph glyph-name="florin.tf" 
d="M299 419v-487q0 -158 -125 -158q-24 0 -46 6v41q28 -7 47 -7q48 0 66.5 29.5t18.5 88.5v487h-106v37h106v92q0 158 125 158q24 0 46 -6v-41q-28 7 -47 7q-48 0 -66.5 -29.5t-18.5 -88.5v-92h116v-37h-116z" />
    <glyph glyph-name="yen.tf" 
d="M88 286h167l-56 97h-111v40h88l-124 213h-58v40h198v-40h-95l181 -318l185 318h-97v40h199v-40h-57l-128 -213h87v-40h-111l-58 -97h169v-40h-171v-206h97v-40h-237v40h101v206h-169v40z" />
    <glyph glyph-name="rupee.tf" 
d="M81 676h389v-40h-128q57 -44 63 -126h65v-40h-65q-5 -71 -52.5 -116.5t-126.5 -52.5q58 -38 105 -105.5t73 -155.5h87v-40h-204v40h72q-46 166 -187 259h-91v40h107q163 0 174 131h-281v40h281q-13 126 -156 126h-125v40z" />
    <glyph glyph-name="dollar.tf" 
d="M299 -103h-40v92q-99 4 -172 45v150h33l8 -124q55 -26 131 -31v298l-34 12q-68 25 -104 63t-36 104t46.5 118t127.5 60v75h40v-73q81 -3 166 -38v-136h-33l-11 107q-70 24 -122 26v-289l37 -12q151 -52 151 -176q0 -66 -51.5 -118.5t-136.5 -59.5v-93zM317 306l-18 6
v-282q62 7 103.5 44.5t41.5 93.5q0 93 -127 138zM127 506q0 -54 31 -83.5t101 -52.5v273q-63 -7 -97.5 -46.5t-34.5 -90.5z" />
    <glyph glyph-name="zero.osf" horiz-adv-x="576" 
d="M103 286q0 -123 41.5 -190.5t141.5 -67.5q187 0 187 258q0 261 -187 261q-183 0 -183 -261zM516 286q0 -85 -20.5 -148.5t-73.5 -106t-135 -42.5q-63 0 -109 23.5t-71 66t-36 93.5t-11 114q0 133 54.5 216.5t170.5 83.5q121 0 176 -83.5t55 -216.5z" />
    <glyph glyph-name="one.osf" horiz-adv-x="441" 
d="M60 0v38h173v495l-179 -72l-13 35l192 79h39v-537h153v-38h-365z" />
    <glyph glyph-name="two.osf" horiz-adv-x="514" 
d="M459 0h-414v34l274 245q48 43 66.5 76.5t18.5 75.5q0 52 -38.5 84t-116.5 32q-76 0 -114 -34.5t-38 -93.5q0 -12 1 -18l-40 -1q-1 7 -1 19q0 76 52 121.5t140 45.5q99 0 148.5 -43t49.5 -112q0 -56 -27 -97t-79 -87l-235 -209h315v79h38v-117z" />
    <glyph glyph-name="three.osf" horiz-adv-x="517" 
d="M100 418h-38v108q82 60 183 60q96 0 146 -45.5t50 -134.5q0 -69 -35 -108.5t-84 -50.5q60 -13 98.5 -56t38.5 -113q0 -87 -56.5 -138t-164.5 -51q-120 0 -195 72l21 36q69 -69 175 -69q176 0 176 150q0 145 -185 145h-70v41h67q77 0 124.5 35t47.5 107q0 141 -155 141
q-79 0 -144 -40v-89z" />
    <glyph glyph-name="four.osf" horiz-adv-x="531" 
d="M507 100v-39h-115v-161h-39v161h-336v37l274 378q20 28 35.5 53t21.5 36l5 11h39v-476h115zM65 100h288v398z" />
    <glyph glyph-name="five.osf" horiz-adv-x="511" 
d="M52 -55v126h38v-104q58 -39 144 -39t133 48t47 141q0 79 -40 123.5t-120 44.5q-85 0 -145 -49h-37l40 340h329v-40h-295l-32 -261q59 49 143 49q96 0 147 -55t51 -152q0 -105 -57.5 -166.5t-163.5 -61.5q-108 0 -182 56z" />
    <glyph glyph-name="six.osf" horiz-adv-x="535" 
d="M309 647q-58 0 -101 -28t-66 -75.5t-33.5 -101t-10.5 -114.5q0 -14 1 -22q15 54 67.5 92.5t124.5 38.5q98 0 146 -60t48 -157q0 -105 -54 -168t-153 -63q-220 0 -220 332q0 74 12.5 135.5t40.5 115t79 84t121 30.5q88 0 157 -38l-18 -39q-69 38 -141 38zM280 28
q85 0 125 53t40 139q0 80 -38 129t-118 49q-71 0 -118.5 -42.5t-69.5 -102.5q4 -48 14 -85t29.5 -70.5t53.5 -51.5t82 -18z" />
    <glyph glyph-name="seven.osf" horiz-adv-x="472" 
d="M147 -100l249 637h-317v-127h-39v166h409v-38q-27 -42 -60 -127l-197 -511h-45z" />
    <glyph glyph-name="eight.osf" horiz-adv-x="561" 
d="M492 504q0 -55 -33 -99t-78 -70q124 -50 124 -160q0 -90 -58.5 -138t-163.5 -48q-103 0 -162.5 48.5t-59.5 137.5q0 61 36 109.5t89 75.5q-105 43 -105 144q0 79 51 130t152 51q104 0 156 -50.5t52 -130.5zM358 303l-133 44q-56 -31 -88.5 -70t-32.5 -102
q0 -70 47 -108.5t133 -38.5q178 0 178 147q0 93 -104 128zM124 505q0 -80 92 -112l127 -45q106 60 106 157q0 141 -165 141q-160 0 -160 -141z" />
    <glyph glyph-name="nine.osf" horiz-adv-x="535" 
d="M226 -73q210 0 210 309q0 14 -1 22q-16 -54 -69 -92.5t-122 -38.5q-100 0 -147.5 62t-47.5 166q0 102 54 166.5t156 64.5q217 0 217 -338q0 -360 -252 -360q-94 0 -157 38l18 39q69 -38 141 -38zM258 547q-88 0 -128.5 -53.5t-40.5 -137.5q0 -190 157 -190q131 0 186 147
q-15 234 -174 234z" />
    <glyph glyph-name="zero.denom" horiz-adv-x="342" 
d="M79 168q0 -72 20.5 -105t71.5 -33t71.5 33t20.5 105t-21 105.5t-72 33.5q-50 0 -70.5 -34t-20.5 -105zM304 168q0 -174 -134 -174q-72 0 -102 44.5t-30 129.5q0 175 132 175q71 0 102.5 -44.5t31.5 -130.5z" />
    <glyph glyph-name="one.denom" horiz-adv-x="262" 
d="M38 0v36h93v262l-94 -29l-10 32l107 37h36v-302h80v-36h-212z" />
    <glyph glyph-name="two.denom" horiz-adv-x="307" 
d="M270 0h-236v32q6 6 69 63t69 63q27 26 38 44.5t11 44.5q0 27 -18 44t-54 17q-35 0 -53.5 -17.5t-18.5 -46.5q0 -8 2 -16l-40 -3q-1 6 -1 19q0 44 29.5 71.5t81.5 27.5q56 0 84.5 -27t28.5 -69q0 -58 -66 -115q-80 -69 -107 -96h147v43h34v-79z" />
    <glyph glyph-name="three.denom" horiz-adv-x="304" 
d="M74 251h-32l-2 61q45 31 104 31q57 0 85 -25.5t28 -66.5q0 -33 -18.5 -53t-45.5 -26q74 -15 74 -82q0 -44 -32.5 -70t-93.5 -26q-69 0 -111 37l19 31q38 -32 92 -32q85 0 85 61q0 60 -91 60h-39v36h37q38 0 60.5 15t22.5 45q0 60 -73 60q-39 0 -69 -16v-40z" />
    <glyph glyph-name="four.denom" horiz-adv-x="313" 
d="M293 109v-34h-59v-75h-39v75h-179v31l141 180q10 13 18.5 26t12.5 20l3 6h43v-229h59zM61 109h134v171z" />
    <glyph glyph-name="five.denom" horiz-adv-x="302" 
d="M34 23l2 69h34v-48q28 -14 68 -14q42 0 65 20.5t23 57.5q0 33 -20.5 52t-60.5 19q-41 0 -78 -20l-21 3l23 176h188v-36h-156l-15 -105q29 18 71 18q53 0 81 -28.5t28 -77.5q0 -54 -33 -84.5t-95 -30.5q-60 0 -104 29z" />
    <glyph glyph-name="six.denom" horiz-adv-x="321" 
d="M185 307q-57 0 -82 -38t-25 -94q0 -6 1 -9q8 21 34 37t63 16q55 0 83 -29.5t28 -79.5q0 -53 -31.5 -84.5t-90.5 -31.5q-127 0 -127 166q0 183 148 183q49 0 93 -21l-15 -33q-39 18 -79 18zM167 30q42 0 61.5 21.5t19.5 56.5q0 72 -77 72q-65 0 -91 -54q8 -96 87 -96z" />
    <glyph glyph-name="seven.denom" horiz-adv-x="271" 
d="M74 0l137 304h-149v-63h-37v97h235l-1 -30q-14 -17 -37 -71l-103 -237h-45z" />
    <glyph glyph-name="eight.denom" horiz-adv-x="328" 
d="M283 251q0 -47 -55 -80q63 -26 63 -80q0 -45 -34 -71t-93 -26q-58 0 -92.5 25t-34.5 70q0 56 61 85q-51 23 -51 75q0 41 30.5 67.5t86.5 26.5q58 0 88.5 -26t30.5 -66zM128 163q-50 -28 -50 -71q0 -29 22.5 -45.5t65.5 -16.5q83 0 83 58q0 39 -52 54zM88 252
q0 -34 46 -49l61 -20q48 25 48 65q0 60 -81 60q-74 0 -74 -56z" />
    <glyph glyph-name="nine.denom" horiz-adv-x="321" 
d="M136 30q107 0 107 127q0 6 -1 10q-9 -22 -35.5 -37.5t-62.5 -15.5q-54 0 -82 30.5t-28 82.5t31.5 84t91.5 32q65 0 95.5 -45.5t30.5 -123.5q0 -180 -148 -180q-51 0 -93 23l15 34q40 -21 79 -21zM156 307q-42 0 -62 -22t-20 -56q0 -77 76 -77q64 0 91 55q-6 100 -85 100z
" />
    <glyph glyph-name="zero.num" horiz-adv-x="344" 
d="M80 506q0 -72 20.5 -105t71.5 -33t71.5 33t20.5 105t-21 105.5t-72 33.5q-50 0 -70.5 -34t-20.5 -105zM305 506q0 -174 -134 -174q-72 0 -102 44.5t-30 129.5q0 175 132 175q71 0 102.5 -44.5t31.5 -130.5z" />
    <glyph glyph-name="one.num" horiz-adv-x="265" 
d="M40 338v36h93v262l-95 -32l-10 33l108 39h36v-302h80v-36h-212z" />
    <glyph glyph-name="two.num" horiz-adv-x="308" 
d="M271 338h-236v32q6 6 69.5 63.5t68.5 62.5q27 26 38 44.5t11 44.5q0 27 -18 44t-54 17q-35 0 -53.5 -17.5t-18.5 -46.5q0 -8 2 -16l-40 -3q-1 6 -1 19q0 44 29.5 71.5t81.5 27.5q56 0 84.5 -27t28.5 -69q0 -58 -66 -115q-80 -69 -107 -96h147v43h34v-79z" />
    <glyph glyph-name="three.num" horiz-adv-x="306" 
d="M75 589h-32l-2 61q45 31 104 31q57 0 85 -25.5t28 -66.5q0 -33 -18.5 -53t-45.5 -26q74 -15 74 -82q0 -44 -32.5 -70t-93.5 -26q-69 0 -111 37l19 31q38 -32 92 -32q85 0 85 61q0 60 -91 60h-39v36h37q38 0 60.5 15t22.5 45q0 60 -73 60q-39 0 -69 -16v-40z" />
    <glyph glyph-name="four.num" horiz-adv-x="314" 
d="M293 447v-34h-59v-75h-39v75h-179v31l141 180q10 13 18.5 26t12.5 20l3 6h43v-229h59zM61 447h134v171z" />
    <glyph glyph-name="five.num" horiz-adv-x="301" 
d="M34 361l2 69h34v-48q28 -14 68 -14q42 0 65 20.5t23 57.5q0 33 -20.5 52t-60.5 19q-41 0 -78 -20l-21 3l23 176h188v-36h-156l-15 -105q29 18 71 18q53 0 81 -28.5t28 -77.5q0 -54 -33 -84.5t-95 -30.5q-60 0 -104 29z" />
    <glyph glyph-name="six.num" horiz-adv-x="321" 
d="M185 645q-57 0 -82 -38t-25 -94q0 -6 1 -9q8 21 34 37t63 16q55 0 83 -29.5t28 -79.5q0 -53 -31.5 -84.5t-90.5 -31.5q-127 0 -127 166q0 183 148 183q49 0 93 -21l-15 -33q-39 18 -79 18zM167 368q42 0 61.5 21.5t19.5 56.5q0 72 -77 72q-65 0 -91 -54q8 -96 87 -96z
" />
    <glyph glyph-name="seven.num" horiz-adv-x="272" 
d="M75 338l137 304h-149v-63h-37v97h235l-1 -30q-14 -17 -37 -71l-103 -237h-45z" />
    <glyph glyph-name="eight.num" horiz-adv-x="329" 
d="M283 589q0 -47 -55 -80q63 -26 63 -80q0 -45 -34 -71t-93 -26q-58 0 -92.5 25t-34.5 70q0 56 61 85q-51 23 -51 75q0 41 30.5 67.5t86.5 26.5q58 0 88.5 -26t30.5 -66zM197 480l-69 21q-50 -28 -50 -71q0 -29 22.5 -45.5t65.5 -16.5q83 0 83 58q0 39 -52 54zM88 590
q0 -34 46 -49l61 -20q48 25 48 65q0 60 -81 60q-74 0 -74 -56z" />
    <glyph glyph-name="nine.num" horiz-adv-x="322" 
d="M137 368q107 0 107 127q0 6 -1 10q-9 -22 -35.5 -37.5t-62.5 -15.5q-54 0 -82 30.5t-28 82.5t31.5 84t91.5 32q65 0 95.5 -45.5t30.5 -123.5q0 -180 -148 -180q-51 0 -93 23l15 34q40 -21 79 -21zM157 645q-42 0 -62 -22t-20 -56q0 -77 76 -77q63 0 91 55q-6 100 -85 100
z" />
    <glyph glyph-name="parenleft.case" horiz-adv-x="254" 
d="M223 -112l-32 -10q-67 113 -98.5 216.5t-31.5 245.5q0 151 33.5 253.5t96.5 209.5l34 -10q-60 -111 -91 -211t-31 -242q0 -129 29.5 -232.5t90.5 -219.5z" />
    <glyph glyph-name="parenright.case" horiz-adv-x="253" 
d="M31 -112q61 116 90.5 219.5t29.5 232.5q0 142 -31 242t-91 211l34 10q63 -107 96.5 -209.5t33.5 -253.5q0 -142 -31.5 -245.5t-98.5 -216.5z" />
    <glyph glyph-name="hyphen.case" 
d="M124 349h312v-40h-312v40z" />
    <glyph glyph-name="bracketleft.case" horiz-adv-x="276" 
d="M86 796h160v-40h-121v-832h121v-40h-160v912z" />
    <glyph glyph-name="bracketright.case" horiz-adv-x="276" 
d="M30 796h160v-912h-160v40h121v832h-121v40z" />
    <glyph glyph-name="braceleft.case" horiz-adv-x="274" 
d="M155 663v-227q0 -28 -6 -48t-18 -29t-19.5 -12.5t-19.5 -6.5q22 -4 42.5 -28t20.5 -70v-224q0 -55 18.5 -73.5t63.5 -20.5v-40q-62 0 -91.5 30t-29.5 103v223q0 45 -20.5 62.5t-64.5 17.5v40q50 0 67.5 16t17.5 61v226q0 73 29.5 103t91.5 30v-40q-44 -2 -63 -20.5
t-19 -72.5z" />
    <glyph glyph-name="bar.case" horiz-adv-x="211" 
d="M125 -116h-39v912h39v-912z" />
    <glyph glyph-name="braceright.case" horiz-adv-x="274" 
d="M119 436v227q0 54 -19 72.5t-63 20.5v40q62 0 91.5 -30t29.5 -103v-226q0 -45 17.5 -61t67.5 -16v-40q-44 0 -64.5 -17.5t-20.5 -62.5v-223q0 -73 -29.5 -103t-91.5 -30v40q45 2 63.5 20.5t18.5 73.5v224q0 46 20.5 70t42.5 28q-12 3 -19.5 6.5t-19.5 12.5t-18 29t-6 48z
" />
    <glyph glyph-name="guilsinglleft.case" horiz-adv-x="301" 
d="M54 330l160 200l28 -28l-132 -172l132 -172l-28 -28z" />
    <glyph glyph-name="guilsinglright.case" horiz-adv-x="301" 
d="M87 530l160 -200l-160 -200l-28 28l132 172l-132 172z" />
    <glyph glyph-name="guillemotleft.case" horiz-adv-x="464" 
d="M54 330l160 200l28 -28l-132 -172l132 -172l-28 -28zM217 330l160 200l28 -28l-132 -172l132 -172l-28 -28z" />
    <glyph glyph-name="guillemotright.case" horiz-adv-x="464" 
d="M250 530l160 -200l-160 -200l-28 28l132 172l-132 172zM87 530l160 -200l-160 -200l-28 28l132 172l-132 172z" />
    <glyph glyph-name="endash.case" horiz-adv-x="574" 
d="M71 349h432v-40h-432v40z" />
    <glyph glyph-name="emdash.case" horiz-adv-x="714" 
d="M71 349h572v-40h-572v40z" />
    <glyph glyph-name="bullet.case" 
d="M280 243q-38 0 -63 24.5t-25 61.5t25 61.5t63 24.5q39 0 63.5 -24t24.5 -62t-24.5 -62t-63.5 -24z" />
    <glyph glyph-name="periodcentered.case" horiz-adv-x="219" 
d="M109 327q-18 0 -30 12t-12 30t12 30t30 12q19 0 31 -12t12 -30t-12 -30t-31 -12z" />
    <glyph glyph-name="Q.alt" horiz-adv-x="664" 
d="M592 337q0 -153 -47 -236l95 -75l-28 -37l-93 75q-64 -75 -191 -75q-142 0 -202 91t-60 257q0 81 13 142t42.5 109t82 73t126.5 25t126 -25t81 -73.5t42 -109.5t13 -141zM356 198l25 34l132 -105q37 71 37 210q0 155 -49.5 232t-172.5 77q-121 0 -170 -77t-49 -232
q0 -154 49.5 -231t171.5 -77q105 0 158 61z" />
    <glyph glyph-name="brokenbar.sc" horiz-adv-x="238" 
d="M136 290h-34v292h34v-292zM102 188h34v-290h-34v290z" />
    <glyph glyph-name="R.alt" horiz-adv-x="614" 
d="M131 40v596h-80v40h277q206 0 206 -178q0 -78 -45.5 -123.5t-131.5 -53.5l157 -281h80v-40h-204v40h78l-155 279h-143v-279h96v-40h-214v40h79zM491 497q0 70 -36.5 104.5t-126.5 34.5h-158v-277h149q91 0 131.5 34.5t40.5 103.5z" />
    <glyph glyph-name="Racute.alt" horiz-adv-x="614" 
d="M321 899h49l-87 -147h-41zM131 40v596h-80v40h277q206 0 206 -178q0 -78 -45.5 -123.5t-131.5 -53.5l157 -281h80v-40h-204v40h78l-155 279h-143v-279h96v-40h-214v40h79zM491 497q0 70 -36.5 104.5t-126.5 34.5h-158v-277h149q91 0 131.5 34.5t40.5 103.5z" />
    <glyph glyph-name="Rcaron.alt" horiz-adv-x="614" 
d="M302 752h-49l-99 147h41l83 -113l82 113h41zM131 40v596h-80v40h277q206 0 206 -178q0 -78 -45.5 -123.5t-131.5 -53.5l157 -281h80v-40h-204v40h78l-155 279h-143v-279h96v-40h-214v40h79zM491 497q0 70 -36.5 104.5t-126.5 34.5h-158v-277h149q91 0 131.5 34.5
t40.5 103.5z" />
    <glyph glyph-name="Rcommaaccent.alt" horiz-adv-x="613" 
d="M348 -73l-42 -143h-34l25 143h51zM131 40v596h-80v40h277q206 0 206 -178q0 -78 -45.5 -123.5t-131.5 -53.5l157 -281h80v-40h-204v40h78l-155 279h-143v-279h96v-40h-214v40h79zM491 497q0 70 -36.5 104.5t-126.5 34.5h-158v-277h149q91 0 131.5 34.5t40.5 103.5z" />
    <glyph glyph-name="r_alt.sc" horiz-adv-x="527" 
d="M119 38v432h-63v37h224q168 0 168 -136q0 -57 -35.5 -91t-102.5 -42l122 -200h64v-38h-170v38h61l-119 198h-110v-198h74v-38h-176v38h63zM406 371q0 49 -28.5 74t-97.5 25h-122v-197h115q133 0 133 98z" />
    <glyph glyph-name="racute_alt.sc" horiz-adv-x="527" 
d="M296 726h49l-87 -147h-41zM119 38v432h-63v37h224q168 0 168 -136q0 -57 -35.5 -91t-102.5 -42l122 -200h64v-38h-170v38h61l-119 198h-110v-198h74v-38h-176v38h63zM406 371q0 49 -28.5 74t-97.5 25h-122v-197h115q133 0 133 98z" />
    <glyph glyph-name="rcaron_alt.sc" horiz-adv-x="527" 
d="M267 579h-49l-99 147h41l83 -113l82 113h41zM119 38v432h-63v37h224q168 0 168 -136q0 -57 -35.5 -91t-102.5 -42l122 -200h64v-38h-170v38h61l-119 198h-110v-198h74v-38h-176v38h63zM406 371q0 49 -28.5 74t-97.5 25h-122v-197h115q133 0 133 98z" />
    <glyph glyph-name="rcommaaccent_alt.sc" horiz-adv-x="526" 
d="M302 -73l-42 -143h-34l25 143h51zM118 38v432h-63v37h224q168 0 168 -136q0 -57 -35.5 -91t-102.5 -42l122 -200h64v-38h-170v38h61l-119 198h-110v-198h74v-38h-176v38h63zM405 371q0 49 -28.5 74t-97.5 25h-122v-197h115q133 0 133 98z" />
    <glyph glyph-name="a.alt" horiz-adv-x="520" 
d="M392 456h30v-418h68v-38h-50q-32 0 -45 12t-13 45q-56 -68 -136 -68q-190 0 -190 240q0 111 47 174t144 63q89 0 135 -61zM99 229q0 -202 147 -202q83 0 136 81v241q-43 79 -133 79q-150 0 -150 -199z" />
    <glyph glyph-name="agrave.alt" horiz-adv-x="520" 
d="M392 456h30v-418h68v-38h-50q-32 0 -45 12t-13 45q-56 -68 -136 -68q-190 0 -190 240q0 111 47 174t144 63q89 0 135 -61zM99 229q0 -202 147 -202q83 0 136 81v241q-43 79 -133 79q-150 0 -150 -199zM162 696h49l79 -147h-41z" />
    <glyph glyph-name="aacute.alt" horiz-adv-x="520" 
d="M392 456h30v-418h68v-38h-50q-32 0 -45 12t-13 45q-56 -68 -136 -68q-190 0 -190 240q0 111 47 174t144 63q89 0 135 -61zM99 229q0 -202 147 -202q83 0 136 81v241q-43 79 -133 79q-150 0 -150 -199zM304 696h49l-87 -147h-41z" />
    <glyph glyph-name="acircumflex.alt" horiz-adv-x="520" 
d="M392 456h30v-418h68v-38h-50q-32 0 -45 12t-13 45q-56 -68 -136 -68q-190 0 -190 240q0 111 47 174t144 63q89 0 135 -61zM99 229q0 -202 147 -202q83 0 136 81v241q-43 79 -133 79q-150 0 -150 -199zM236 696h49l99 -147h-41l-83 113l-82 -113h-41z" />
    <glyph glyph-name="atilde.alt" horiz-adv-x="520" 
d="M392 456h30v-418h68v-38h-50q-32 0 -45 12t-13 45q-56 -68 -136 -68q-190 0 -190 240q0 111 47 174t144 63q89 0 135 -61zM99 229q0 -202 147 -202q83 0 136 81v241q-43 79 -133 79q-150 0 -150 -199zM390 617l-10 -38q-23 25 -54 25q-20 0 -61 -16.5t-70 -16.5
q-19 0 -37.5 8.5t-26.5 18.5l10 36q21 -23 54 -23q24 0 63.5 16.5t67.5 16.5q37 0 64 -27z" />
    <glyph glyph-name="adieresis.alt" horiz-adv-x="520" 
d="M392 456h30v-418h68v-38h-50q-32 0 -45 12t-13 45q-56 -68 -136 -68q-190 0 -190 240q0 111 47 174t144 63q89 0 135 -61zM99 229q0 -202 147 -202q83 0 136 81v241q-43 79 -133 79q-150 0 -150 -199zM176 581q-39 0 -39 39q0 40 39 40q16 0 27.5 -10t11.5 -30
q0 -19 -11.5 -29t-27.5 -10zM346 581q-39 0 -39 39q0 40 39 40q16 0 27.5 -10t11.5 -30q0 -19 -11.5 -29t-27.5 -10z" />
    <glyph glyph-name="amacron.alt" horiz-adv-x="520" 
d="M392 456h30v-418h68v-38h-50q-32 0 -45 12t-13 45q-56 -68 -136 -68q-190 0 -190 240q0 111 47 174t144 63q89 0 135 -61zM99 229q0 -202 147 -202q83 0 136 81v241q-43 79 -133 79q-150 0 -150 -199zM130 630h262v-40h-262v40z" />
    <glyph glyph-name="abreve.alt" horiz-adv-x="520" 
d="M392 456h30v-418h68v-38h-50q-32 0 -45 12t-13 45q-56 -68 -136 -68q-190 0 -190 240q0 111 47 174t144 63q89 0 135 -61zM99 229q0 -202 147 -202q83 0 136 81v241q-43 79 -133 79q-150 0 -150 -199zM346 679h36q0 -55 -34 -90t-88 -35q-53 0 -87 35t-34 90h35
q0 -40 22.5 -64.5t63.5 -24.5q42 0 64 24.5t22 64.5z" />
    <glyph glyph-name="aring.alt" horiz-adv-x="520" 
d="M392 456h30v-418h68v-38h-50q-32 0 -45 12t-13 45q-56 -68 -136 -68q-190 0 -190 240q0 111 47 174t144 63q89 0 135 -61zM99 229q0 -202 147 -202q83 0 136 81v241q-43 79 -133 79q-150 0 -150 -199zM162 625q0 40 27 64.5t71 24.5t71.5 -24.5t27.5 -64.5t-27.5 -65
t-71.5 -25t-71 25t-27 65zM199 625q0 -27 16.5 -42.5t44.5 -15.5q29 0 45.5 15.5t16.5 42.5t-16.5 42.5t-45.5 15.5q-28 0 -44.5 -15.5t-16.5 -42.5z" />
    <glyph glyph-name="aringacute.alt" horiz-adv-x="520" 
d="M162 615q0 38 24.5 62t64.5 27l57 69h49l-65 -73q31 -8 49 -30.5t18 -54.5q0 -40 -27.5 -65t-71.5 -25t-71 25t-27 65zM199 615q0 -27 16.5 -42.5t44.5 -15.5q29 0 45.5 15.5t16.5 42.5t-16.5 42.5t-45.5 15.5q-28 0 -44.5 -15.5t-16.5 -42.5zM392 456h30v-418h68v-38
h-50q-32 0 -45 12t-13 45q-56 -68 -136 -68q-190 0 -190 240q0 111 47 174t144 63q89 0 135 -61zM99 229q0 -202 147 -202q83 0 136 81v241q-43 79 -133 79q-150 0 -150 -199z" />
    <glyph glyph-name="g.alt" horiz-adv-x="511" 
d="M388 57q-59 -68 -138 -68q-194 0 -194 240q0 111 47.5 174t147.5 63q90 0 137 -61l10 51h29v-447q0 -235 -177 -235q-84 0 -129.5 40.5t-42.5 118.5h41q-4 -58 30.5 -89.5t100.5 -31.5q73 0 105.5 48.5t32.5 147.5v49zM99 229q0 -202 151 -202q83 0 138 81v241
q-43 79 -135 79q-84 0 -119 -52.5t-35 -146.5z" />
    <glyph glyph-name="gcircumflex.alt" horiz-adv-x="510" 
d="M387 57q-59 -68 -138 -68q-194 0 -194 240q0 111 47.5 174t147.5 63q90 0 137 -61l10 51h29v-447q0 -235 -177 -235q-84 0 -129.5 40.5t-42.5 118.5h41q-4 -58 30.5 -89.5t100.5 -31.5q73 0 105.5 48.5t32.5 147.5v49zM98 229q0 -202 151 -202q83 0 138 81v241
q-43 79 -135 79q-84 0 -119 -52.5t-35 -146.5zM239 696h49l99 -147h-41l-83 113l-82 -113h-41z" />
    <glyph glyph-name="gbreve.alt" horiz-adv-x="511" 
d="M388 57q-59 -68 -138 -68q-194 0 -194 240q0 111 47.5 174t147.5 63q90 0 137 -61l10 51h29v-447q0 -235 -177 -235q-84 0 -129.5 40.5t-42.5 118.5h41q-4 -58 30.5 -89.5t100.5 -31.5q73 0 105.5 48.5t32.5 147.5v49zM99 229q0 -202 151 -202q83 0 138 81v241
q-43 79 -135 79q-84 0 -119 -52.5t-35 -146.5zM340 679h36q0 -55 -34 -90t-88 -35q-53 0 -87 35t-34 90h35q0 -40 22.5 -64.5t63.5 -24.5q42 0 64 24.5t22 64.5z" />
    <glyph glyph-name="gcommaaccent.alt" horiz-adv-x="511" 
d="M388 57q-59 -68 -138 -68q-194 0 -194 240q0 111 47.5 174t147.5 63q90 0 137 -61l10 51h29v-447q0 -235 -177 -235q-84 0 -129.5 40.5t-42.5 118.5h41q-4 -58 30.5 -89.5t100.5 -31.5q73 0 105.5 48.5t32.5 147.5v49zM99 229q0 -202 151 -202q83 0 138 81v241
q-43 79 -135 79q-84 0 -119 -52.5t-35 -146.5zM221 558l42 163h34l-25 -163h-51z" />
    <glyph glyph-name="gdotaccent.alt" horiz-adv-x="511" 
d="M388 57q-59 -68 -138 -68q-194 0 -194 240q0 111 47.5 174t147.5 63q90 0 137 -61l10 51h29v-447q0 -235 -177 -235q-84 0 -129.5 40.5t-42.5 118.5h41q-4 -58 30.5 -89.5t100.5 -31.5q73 0 105.5 48.5t32.5 147.5v49zM99 229q0 -202 151 -202q83 0 138 81v241
q-43 79 -135 79q-84 0 -119 -52.5t-35 -146.5zM256 581q-39 0 -39 39q0 40 39 40q16 0 27.5 -10t11.5 -30q0 -19 -11.5 -29t-27.5 -10z" />
    <glyph glyph-name="q_alt.sc" horiz-adv-x="561" 
d="M492 253q0 -111 -36 -173l73 -54l-25 -34l-73 55q-52 -55 -153 -55q-116 0 -164.5 68.5t-48.5 192.5t48.5 193t165.5 69q116 0 164.5 -69t48.5 -193zM292 153l24 32l107 -80q27 53 27 148q0 111 -38.5 167.5t-133.5 56.5q-94 0 -132 -56t-38 -168t38 -167.5t133 -55.5
q81 0 120 41z" />
    <glyph glyph-name="aogonek.alt" horiz-adv-x="519" 
d="M490 38v-38l-70 -56q-37 -30 -37 -64q0 -40 45 -40q27 0 53 17l12 -33q-38 -19 -69 -19q-16 0 -33 5q-49 16 -49 68q0 17 5.5 32t18.5 29t21 21.5t27.5 22t23.5 17.5q-31 0 -43.5 12t-12.5 45q-56 -68 -136 -68q-190 0 -190 240q0 111 47 174t144 63q89 0 135 -61l10 51
h30v-418h68zM99 229q0 -202 147 -202q83 0 136 81v241q-43 79 -133 79q-150 0 -150 -199z" />
    </font>
</defs>
</svg>
