<?xml version="1.0" standalone="no"?>
<!DOCTYPE svg PUBLIC "-//W3C//DTD SVG 1.1//EN" "http://www.w3.org/Graphics/SVG/1.1/DTD/svg11.dtd" >
<svg xmlns="http://www.w3.org/2000/svg" xmlns:xlink="http://www.w3.org/1999/xlink" version="1.1">
<metadata>
Created by FontForge 20161013 at Wed Mar  4 14:07:11 2015
 By ,,,
Copyright (c) 2011 by Hannes von Doehren, Livius Dietzel. All rights reserved.
</metadata>
<defs>
<font id="BrixSlab-Bold" horiz-adv-x="560" >
  <font-face 
    font-family="Brix Slab Bold"
    font-weight="700"
    font-stretch="normal"
    units-per-em="1000"
    panose-1="2 0 0 0 0 0 0 0 0 0"
    ascent="720"
    descent="-280"
    x-height="456"
    cap-height="676"
    bbox="-179 -227 1090 992"
    underline-thickness="50"
    underline-position="-200"
    unicode-range="U+0020-FB02"
  />
<missing-glyph horiz-adv-x="513" 
d="M50 0v656h413v-656h-413zM88 38h337v580h-337v-580z" />
    <glyph glyph-name="fi" unicode="fi" horiz-adv-x="681" 
d="M373 0v96h96v263h-259v-263h95v-96h-269v87l64 18v254h-65v97h65v98q0 65 37 108.5t111 43.5q44 0 75 -11v-95q-1 0 -26 2t-39 2q-48 0 -48 -59v-89h370v-360h89v-96h-296zM520 547q-70 0 -70 67q0 34 19 51.5t51 17.5q29 0 49 -17.5t20 -51.5t-20 -50.5t-49 -16.5z" />
    <glyph glyph-name="fl" unicode="fl" horiz-adv-x="619" 
d="M416 129v471q-40 9 -96 9q-109 0 -109 -87v-58h123v-105h-123v-263h95v-96h-269v87l63 18v254h-64v105h64v63q0 82 53.5 130.5t172.5 48.5q106 0 200 -35v-527q0 -28 9.5 -39t30.5 -11t44 5l2 -97q-37 -13 -82 -13q-63 0 -88.5 36.5t-25.5 103.5z" />
    <glyph glyph-name="f_f" unicode="ff" horiz-adv-x="699" 
d="M666 695v-95q-1 0 -26 2t-39 2q-49 0 -49 -59v-89h124v-97h-124v-263h96v-96h-269v87l63 18v254h-232v-263h95v-96h-269v87l64 18v254h-65v97h65v98q0 65 37 108.5t111 43.5q44 0 75 -11v-95q-1 0 -26 2t-39 2q-48 0 -48 -59v-89h232v98q0 65 37.5 108.5t112.5 43.5
q43 0 74 -11z" />
    <glyph glyph-name=".notdef" horiz-adv-x="513" 
d="M50 0v656h413v-656h-413zM88 38h337v580h-337v-580z" />
    <glyph glyph-name=".null" horiz-adv-x="0" 
 />
    <glyph glyph-name=".null" horiz-adv-x="0" 
 />
    <glyph glyph-name="nonmarkingreturn" horiz-adv-x="333" 
 />
    <glyph glyph-name="space" unicode=" " horiz-adv-x="200" 
 />
    <glyph glyph-name="exclam" unicode="!" horiz-adv-x="264" 
d="M179 223h-95l-20 453h137zM132 -6q-33 0 -54.5 20.5t-21.5 51.5q0 32 21.5 52.5t54.5 20.5t54.5 -20.5t21.5 -52.5q0 -31 -21.5 -51.5t-54.5 -20.5z" />
    <glyph glyph-name="quotedbl" unicode="&#x22;" horiz-adv-x="366" 
d="M227 432l-10 244h107l-11 -244h-86zM54 432l-12 244h110l-13 -244h-85z" />
    <glyph glyph-name="numbersign" unicode="#" horiz-adv-x="656" 
d="M138 176h-99l16 102h100l19 131h-97l13 102h99l26 165h109l-26 -165h107l25 165h110l-25 -165h102l-16 -102h-102l-20 -131h102l-15 -102h-103l-27 -176h-111l29 176h-106l-28 -176h-110zM282 409l-19 -131h107l19 131h-107z" />
    <glyph glyph-name="dollar" unicode="$" 
d="M314 -103h-71v93q-106 6 -190 46v178h99l18 -112q27 -14 73 -17v202l-31 11q-87 32 -123 77.5t-35 119.5q0 68 46.5 123.5t142.5 65.5v75h71v-74q98 -7 178 -47v-171h-99l-18 109q-31 9 -61 12v-196l37 -13q91 -31 128 -78t37 -119q0 -68 -52 -125t-150 -66v-94zM319 260
l-5 2v-174q34 7 54.5 29.5t20.5 54.5q0 30 -18.5 53.5t-51.5 34.5zM179 500q0 -59 64 -83v166q-31 -9 -47.5 -32t-16.5 -51z" />
    <glyph glyph-name="percent" unicode="%" horiz-adv-x="772" 
d="M632 676v-13l-412 -663h-82v13l409 663h85zM198 686q81 0 121.5 -46t40.5 -117q0 -72 -41.5 -118.5t-120.5 -46.5t-119.5 46t-40.5 119q0 71 41.5 117t118.5 46zM198 451q65 0 65 72q0 70 -65 70q-32 0 -48.5 -18.5t-16.5 -51.5q0 -72 65 -72zM572 317q81 0 121.5 -46
t40.5 -117q0 -73 -41 -119t-121 -46q-79 0 -119.5 46t-40.5 119q0 70 41.5 116.5t118.5 46.5zM572 81q66 0 66 73q0 69 -66 69q-64 0 -64 -69q0 -73 64 -73z" />
    <glyph glyph-name="ampersand" unicode="&#x26;" horiz-adv-x="639" 
d="M529 -11q-86 0 -113 68q-61 -68 -157 -68q-104 0 -164 55t-60 149q0 66 37 108t90 55q-106 31 -106 151q0 77 50.5 128t166.5 51q89 0 168 -34l-34 -99q-56 28 -130 28q-53 0 -77 -21.5t-24 -68.5q0 -93 114 -93h113v80l111 18v-98h86v-97h-86v-156q0 -51 49 -51
q11 0 51 8l1 -99q-42 -14 -86 -14zM271 94q67 0 132 50v157h-117q-68 0 -98 -26.5t-30 -80.5q0 -100 113 -100z" />
    <glyph glyph-name="quotesingle" unicode="'" horiz-adv-x="192" 
d="M53 432l-10 244h107l-12 -244h-85z" />
    <glyph glyph-name="parenleft" unicode="(" horiz-adv-x="277" 
d="M264 -189l-85 -33q-146 213 -146 463q0 137 37 242.5t109 220.5l87 -33q-113 -229 -113 -430q0 -117 26.5 -217.5t84.5 -212.5z" />
    <glyph glyph-name="parenright" unicode=")" horiz-adv-x="277" 
d="M13 -189q58 112 85 212.5t27 217.5q0 202 -114 430l87 33q72 -115 109 -220.5t37 -242.5q0 -250 -146 -463z" />
    <glyph glyph-name="asterisk" unicode="*" horiz-adv-x="480" 
d="M143 307l-68 62l93 107l-126 21l27 101l126 -44l-8 142h106l-8 -141l132 37l21 -100l-127 -18l85 -108l-85 -59l-77 120z" />
    <glyph glyph-name="plus" unicode="+" 
d="M37 216v108h183v190h116v-190h186v-108h-186v-191h-116v191h-183z" />
    <glyph glyph-name="comma" unicode="," horiz-adv-x="214" 
d="M177 140l-63 -249h-85l25 249h123z" />
    <glyph glyph-name="hyphen" unicode="-" 
d="M98 324h363v-108h-363v108z" />
    <glyph glyph-name="period" unicode="." horiz-adv-x="222" 
d="M111 -6q-33 0 -54.5 20.5t-21.5 51.5q0 32 21.5 52.5t54.5 20.5t54.5 -20.5t21.5 -52.5q0 -31 -21.5 -51.5t-54.5 -20.5z" />
    <glyph glyph-name="slash" unicode="/" horiz-adv-x="386" 
d="M353 676v-12l-207 -664h-112v14l203 662h116z" />
    <glyph glyph-name="zero" unicode="0" horiz-adv-x="613" 
d="M173 335q0 -127 30 -183t105 -56q74 0 104 56.5t30 182.5q0 127 -30.5 186t-106.5 59q-73 0 -102.5 -59t-29.5 -186zM564 335q0 -171 -60.5 -258.5t-198.5 -87.5q-136 0 -196 87.5t-60 258.5t61 261t198 90q136 0 196 -89t60 -262z" />
    <glyph glyph-name="one" unicode="1" horiz-adv-x="482" 
d="M53 0v105h163v450l-162 -56l-26 94l204 83h102v-571h136v-105h-417z" />
    <glyph glyph-name="two" unicode="2" horiz-adv-x="542" 
d="M496 0h-450v88q65 60 217 217q49 53 71.5 90.5t22.5 86.5q0 46 -25.5 73t-69.5 27q-46 0 -71.5 -26t-25.5 -73q0 -23 5 -43l-119 -8q-6 21 -6 53q0 88 56 144.5t161 56.5q107 0 162.5 -56.5t55.5 -146.5q0 -27 -7 -54t-15 -45t-26 -43.5t-27.5 -36.5t-33.5 -36.5
t-30 -32.5q-60 -66 -126 -130h184v74h97v-179z" />
    <glyph glyph-name="three" unicode="3" horiz-adv-x="533" 
d="M147 487h-87l-10 137q86 62 198 62q60 0 104 -16.5t67.5 -44.5t34.5 -59t11 -66q0 -66 -30 -106.5t-80 -54.5q57 -12 94.5 -50t37.5 -106q0 -91 -62 -142.5t-181 -51.5q-65 0 -122 20.5t-92 51.5l54 92q68 -59 160 -59q119 0 119 94q0 49 -31 71t-102 22h-75v104h69
q55 0 88 25.5t33 73.5q0 97 -101 97q-55 0 -97 -22v-72z" />
    <glyph glyph-name="four" unicode="4" horiz-adv-x="563" 
d="M540 235v-96h-96v-139h-116v139h-312v86l230 345q17 25 32.5 51.5t22.5 40.5l7 14h136v-441h96zM144 235h184v287z" />
    <glyph glyph-name="five" unicode="5" horiz-adv-x="532" 
d="M39 47l11 149h96v-83q43 -19 92 -19q64 0 96.5 31.5t32.5 89.5q0 54 -31 84.5t-94 30.5q-59 0 -139 -31l-39 15l44 362h359v-105h-264l-20 -158q46 23 107 23q95 0 148 -58.5t53 -158.5q0 -108 -65.5 -169t-188.5 -61q-111 0 -198 58z" />
    <glyph glyph-name="six" unicode="6" horiz-adv-x="568" 
d="M334 581q-87 0 -126 -59.5t-39 -147.5q0 -10 1 -14q16 30 54 53.5t94 23.5q99 0 154 -58t55 -160q0 -107 -60.5 -168.5t-177.5 -61.5q-118 0 -179.5 84t-61.5 247q0 366 287 366q87 0 179 -44l-40 -97q-70 36 -140 36zM294 94q58 0 85.5 32t27.5 86q0 52 -27 81.5
t-81 29.5q-87 0 -127 -72q2 -70 31 -113.5t91 -43.5z" />
    <glyph glyph-name="seven" unicode="7" horiz-adv-x="496" 
d="M98 0l246 579h-202v-119h-110v216h456v-82q-30 -46 -78 -157l-178 -437h-134z" />
    <glyph glyph-name="eight" unicode="8" horiz-adv-x="581" 
d="M517 500q0 -90 -88 -149q105 -53 105 -162q0 -93 -66 -146.5t-179 -53.5q-110 0 -175.5 51.5t-65.5 141.5q0 53 27 95t67 63q-77 51 -77 153q0 83 61 138t164 55q108 0 167.5 -52t59.5 -134zM330 265l-113 39q-51 -48 -51 -109q0 -45 33 -74t99 -29q58 0 85.5 24.5
t27.5 60.5q0 34 -20 53.5t-61 34.5zM182 503q0 -58 73 -85l88 -32q58 40 58 101q0 42 -29.5 71t-89.5 29q-46 0 -73 -23t-27 -61z" />
    <glyph glyph-name="nine" unicode="9" horiz-adv-x="567" 
d="M234 94q163 0 163 197q0 11 -1 17q-16 -33 -55.5 -56.5t-95.5 -23.5q-94 0 -148 60t-54 163q0 106 61 170.5t175 64.5q65 0 112.5 -27.5t75 -76t40 -107.5t12.5 -130q0 -356 -285 -356q-101 0 -182 52l38 98q72 -45 144 -45zM275 581q-57 0 -85 -33.5t-28 -86.5
q0 -56 26.5 -87.5t80.5 -31.5q85 0 125 72q-1 73 -30 120t-89 47z" />
    <glyph glyph-name="colon" unicode=":" horiz-adv-x="256" 
d="M128 -6q-33 0 -54.5 20.5t-21.5 51.5q0 32 21.5 52.5t54.5 20.5t54.5 -20.5t21.5 -52.5q0 -31 -21.5 -51.5t-54.5 -20.5zM128 320q-33 0 -54.5 20.5t-21.5 52.5t21.5 52.5t54.5 20.5t54.5 -20.5t21.5 -52.5t-21.5 -52.5t-54.5 -20.5z" />
    <glyph glyph-name="semicolon" unicode=";" horiz-adv-x="249" 
d="M136 320q-33 0 -55 21t-22 52q0 32 22 52.5t55 20.5t54.5 -20.5t21.5 -52.5q0 -31 -22 -52t-54 -21zM200 140l-62 -249h-86l25 249h123z" />
    <glyph glyph-name="less" unicode="&#x3c;" 
d="M60 205v130l422 161v-112l-325 -115l325 -114v-111z" />
    <glyph glyph-name="equal" unicode="=" 
d="M69 437h421v-108h-421v108zM69 212h421v-108h-421v108z" />
    <glyph glyph-name="greater" unicode="&#x3e;" 
d="M500 335v-130l-422 -161v111l325 114l-325 115v112z" />
    <glyph glyph-name="question" unicode="?" horiz-adv-x="470" 
d="M143 478h-87l-18 137q75 71 194 71q94 0 146 -47t52 -116q0 -41 -13.5 -75t-39 -58t-44 -37t-47.5 -29v-101h-118v152q72 30 109.5 59.5t37.5 70.5q0 32 -22.5 54t-68.5 22q-43 0 -81 -22v-81zM226 -6q-33 0 -54.5 20.5t-21.5 51.5q0 32 21.5 52.5t54.5 20.5t55 -20.5
t22 -52.5q0 -31 -22 -51.5t-55 -20.5z" />
    <glyph glyph-name="at" unicode="@" horiz-adv-x="913" 
d="M345 228q-13 -73 3.5 -109t68.5 -36q61 0 107 42l38 211q-44 36 -92 36q-99 0 -125 -144zM544 64q-25 -32 -64.5 -53.5t-84.5 -21.5q-104 0 -142 66.5t-17 181.5q19 106 76 167.5t151 61.5q66 0 112 -50l8 40h106l-51 -290q-10 -47 -3 -70t36 -23q54 0 82.5 55.5
t28.5 161.5q0 129 -74.5 206.5t-234.5 77.5q-88 0 -154.5 -28.5t-104 -77.5t-56 -108t-18.5 -127q0 -163 76.5 -245t246.5 -82q103 0 195 33l19 -79q-100 -39 -214 -39q-211 0 -312.5 109t-101.5 303q0 87 28 164t80 135.5t133.5 92.5t182.5 34q191 0 296 -105t105 -265
q0 -137 -57.5 -218.5t-162.5 -81.5q-89 0 -110 75z" />
    <glyph glyph-name="A" unicode="A" horiz-adv-x="693" 
d="M423 0v97h78l-35 103h-239l-37 -103h79v-97h-264v97h58l180 482h-57v97h321v-97h-56l178 -482h58v-97h-264zM254 299h186l-94 259z" />
    <glyph glyph-name="B" unicode="B" horiz-adv-x="622" 
d="M41 0v97h70v482h-70v97h302q103 0 152.5 -47t49.5 -132q0 -52 -25.5 -90.5t-65.5 -49.5q49 -11 86 -57t37 -108q0 -192 -234 -192h-302zM229 97h108q119 0 119 101q0 103 -120 103h-107v-204zM229 397h94q101 0 101 92q0 90 -100 90h-95v-182z" />
    <glyph glyph-name="C" unicode="C" horiz-adv-x="598" 
d="M165 340q0 -109 45 -174.5t135 -65.5q100 0 188 44l27 -101q-111 -54 -221 -54q-146 0 -221.5 91.5t-75.5 259.5q0 159 76.5 252.5t226.5 93.5q96 0 211 -46l-8 -218h-105l-2 141q-48 16 -99 16q-91 0 -134 -64t-43 -175z" />
    <glyph glyph-name="D" unicode="D" horiz-adv-x="675" 
d="M112 97v482h-71v97h239q194 0 271.5 -79t77.5 -259q0 -178 -77.5 -258t-271.5 -80h-239v97h71zM230 97h69q118 0 164.5 55t46.5 188q0 129 -48.5 184t-162.5 55h-69v-482z" />
    <glyph glyph-name="E" unicode="E" horiz-adv-x="593" 
d="M436 200h113v-200h-508v97h71v482h-71v97h504v-198h-109v101h-207v-190h206v-97h-206v-195h207v103z" />
    <glyph glyph-name="F" unicode="F" horiz-adv-x="552" 
d="M41 0v97h70v482h-70v97h488v-207h-109v110h-191v-215h211v-99h-211v-168h120v-97h-308z" />
    <glyph glyph-name="G" unicode="G" horiz-adv-x="656" 
d="M363 686q98 0 219 -39l-8 -200h-105l-2 118q-53 12 -109 12q-98 0 -145 -62.5t-47 -172.5q0 -115 48 -180.5t150 -65.5q77 0 128 16v126h-160v99h272v-301q-112 -47 -244 -47q-154 0 -236 91.5t-82 261.5q0 156 81 250t240 94z" />
    <glyph glyph-name="H" unicode="H" horiz-adv-x="753" 
d="M439 579v97h271v-97h-65v-482h65v-97h-271v97h89v202h-301v-202h89v-97h-273v97h66v482h-66v97h273v-97h-89v-178h301v178h-89z" />
    <glyph glyph-name="I" unicode="I" horiz-adv-x="349" 
d="M37 0v97h80v482h-80v97h274v-97h-76v-482h76v-97h-274z" />
    <glyph glyph-name="J" unicode="J" horiz-adv-x="318" 
d="M15 579v97h271v-97h-66v-553q0 -170 -139 -253l-71 78q47 33 70.5 69.5t23.5 94.5v564h-89z" />
    <glyph glyph-name="K" unicode="K" horiz-adv-x="665" 
d="M242 351l198 228h-72v97h273v-97h-74l-191 -226l202 -256h72v-97h-281v97h74zM229 579v-482h64v-97h-252v97h70v482h-70v97h252v-97h-64z" />
    <glyph glyph-name="L" unicode="L" horiz-adv-x="537" 
d="M409 229h106v-229h-473v97h68v482h-68v97h262v-97h-76v-482h181v132z" />
    <glyph glyph-name="M" unicode="M" horiz-adv-x="917" 
d="M457 134l148 542h236v-97h-65l53 -482h71v-97h-261v97h80l-47 450l-154 -547h-127l-145 543l-52 -446h85v-97h-262v97h66l58 482h-66v97h241z" />
    <glyph glyph-name="N" unicode="N" horiz-adv-x="746" 
d="M434 579v97h281v-97h-67v-579h-130l-291 487v-390h105v-97h-289v97h66v482h-66v97h201l286 -486v389h-96z" />
    <glyph glyph-name="O" unicode="O" horiz-adv-x="654" 
d="M170 337q0 -118 34.5 -180.5t122.5 -62.5t122 62.5t34 180.5t-34.5 181t-120.5 63q-87 0 -122.5 -63t-35.5 -181zM611 337q0 -160 -68.5 -254t-217.5 -94q-76 0 -131.5 26t-88 74t-47.5 109.5t-15 138.5q0 78 15 139.5t47.5 110t88.5 74.5t133 26q149 0 216.5 -94.5
t67.5 -255.5z" />
    <glyph glyph-name="P" unicode="P" horiz-adv-x="595" 
d="M228 580v-483h121v-97h-308v97h70v482h-70v97h292q122 0 180.5 -56t58.5 -157t-58.5 -157t-180.5 -56h-54v98h60q112 0 112 114q0 118 -112 118h-111z" />
    <glyph glyph-name="Q" unicode="Q" horiz-adv-x="677" 
d="M423 126q38 -33 58 -85q-59 -52 -156 -52q-76 0 -131.5 26t-88 74t-47.5 109.5t-15 138.5q0 78 15 139.5t47.5 110t88.5 74.5t133 26q149 0 216.5 -94.5t67.5 -255.5q0 -98 -25 -172q55 -73 84 -165h-119q-35 98 -117.5 173.5t-201.5 75.5q-27 0 -56 -3q11 -74 46.5 -113
t104.5 -39q64 0 96 32zM328 581q-85 0 -121 -61.5t-37 -175.5q42 4 68 4q132 0 241 -78q4 27 4 67q0 118 -34.5 181t-120.5 63z" />
    <glyph glyph-name="R" unicode="R" horiz-adv-x="654" 
d="M111 97v482h-70v97h302q125 0 182.5 -49t57.5 -145q0 -138 -143 -178q42 -32 77.5 -93t50.5 -114h78v-97h-267v97h61q-9 43 -46.5 105.5t-76.5 88.5h-88v-194h67v-97h-254v97h69zM462 481q0 98 -119 98h-114v-194h106q127 0 127 96z" />
    <glyph glyph-name="S" unicode="S" horiz-adv-x="546" 
d="M484 639v-176h-100l-18 114q-44 13 -88 13q-47 0 -73 -26t-26 -64q0 -61 68 -86l98 -35q89 -32 125.5 -78.5t36.5 -118.5q0 -76 -59.5 -134.5t-172.5 -58.5q-127 0 -223 47l-8 182h100l26 -117q38 -18 104 -18q49 0 77.5 24.5t28.5 64.5q0 64 -66 88l-106 38
q-85 31 -120 77t-35 120q0 76 56 134t169 58q110 0 206 -48z" />
    <glyph glyph-name="T" unicode="T" horiz-adv-x="581" 
d="M22 676h539v-205h-99v108h-116v-482h92v-97h-302v97h94v482h-110v-108h-98v205z" />
    <glyph glyph-name="U" unicode="U" horiz-adv-x="684" 
d="M341 -10q-117 0 -185.5 63.5t-68.5 200.5v325h-65v97h270v-97h-88v-326q0 -83 35 -120.5t103 -37.5q138 0 138 158v326h-87v97h268v-97h-65v-325q0 -137 -68.5 -200.5t-186.5 -63.5z" />
    <glyph glyph-name="V" unicode="V" horiz-adv-x="681" 
d="M402 579v97h277v-97h-69l-191 -579h-159l-190 579h-65v97h276v-97h-86l146 -466l143 466h-82z" />
    <glyph glyph-name="W" unicode="W" horiz-adv-x="980" 
d="M685 579v97h287v-97h-64l-144 -579h-144l-130 401l-128 -401h-145l-146 579h-65v97h268v-97h-80l102 -458l139 420l-49 135h137l164 -555l103 458h-105z" />
    <glyph glyph-name="X" unicode="X" horiz-adv-x="663" 
d="M24 579v97h267v-97h-61l102 -158l99 158h-62v97h265v-97h-70l-165 -231l180 -251h68v-97h-266v97h60l-111 167l-110 -167h65v-97h-266v97h68l174 251l-164 231h-73z" />
    <glyph glyph-name="Y" unicode="Y" horiz-adv-x="639" 
d="M5 579v97h270v-97h-81l127 -217l129 217h-82v97h271v-97h-65l-195 -315v-167h81v-97h-287v97h87v167l-190 315h-65z" />
    <glyph glyph-name="Z" unicode="Z" horiz-adv-x="589" 
d="M538 676v-89l-349 -490h243v153h108v-250h-498v88l348 490h-232v-116h-107v214h487z" />
    <glyph glyph-name="bracketleft" unicode="[" horiz-adv-x="324" 
d="M65 696h240v-97h-121v-718h121v-97h-240v912z" />
    <glyph glyph-name="backslash" unicode="\" horiz-adv-x="391" 
d="M32 664v12h115l211 -662v-14h-112z" />
    <glyph glyph-name="bracketright" unicode="]" horiz-adv-x="324" 
d="M19 696h240v-912h-240v97h121v718h-121v97z" />
    <glyph glyph-name="asciicircum" unicode="^" horiz-adv-x="650" 
d="M69 444l256 256l256 -256l-76 -77l-179 180l-180 -179z" />
    <glyph glyph-name="underscore" unicode="_" horiz-adv-x="566" 
d="M83 -31h400v-76h-400v76z" />
    <glyph glyph-name="grave" unicode="`" horiz-adv-x="600" 
d="M206 696h115l73 -163h-101z" />
    <glyph glyph-name="a" unicode="a" horiz-adv-x="491" 
d="M165 360v-65h-98q-15 29 -15 62q0 49 46.5 79t137.5 30q102 0 142.5 -36.5t40.5 -133.5v-177q0 -27 26 -27q15 0 27 3v-95q-28 -6 -65 -6q-84 0 -94 70q-51 -75 -150 -75q-64 0 -100.5 35t-36.5 96q0 71 56 102.5t166 39.5l57 6v92q-23 6 -69 6q-40 0 -71 -6zM145 129
q0 -47 55 -47q59 0 105 42v70l-57 -7q-59 -7 -81 -20t-22 -38z" />
    <glyph glyph-name="b" unicode="b" horiz-adv-x="516" 
d="M173 696v-278q42 48 116 48q96 0 144 -61.5t48 -175.5q0 -111 -49.5 -175.5t-142.5 -64.5q-85 0 -133 46l-58 -35h-36v599h-66v97h177zM365 229q0 63 -23 97.5t-80 34.5q-58 0 -89 -33v-195q33 -39 88 -39q58 0 81 35.5t23 99.5z" />
    <glyph glyph-name="c" unicode="c" horiz-adv-x="457" 
d="M259 93q75 0 142 31l27 -92q-81 -43 -181 -43q-110 0 -162.5 67.5t-52.5 172.5q0 101 57.5 169t163.5 68q81 0 172 -40l-21 -166h-91v102q-24 8 -60 8q-49 0 -74.5 -36t-25.5 -95q0 -146 106 -146z" />
    <glyph glyph-name="d" unicode="d" horiz-adv-x="544" 
d="M350 418v181h-86v97h197v-600h66v-96h-78q-38 0 -58.5 19.5t-23.5 48.5q-54 -79 -146 -79q-90 0 -138.5 62.5t-48.5 177.5q0 113 49 175t142 62q83 0 125 -48zM149 229q0 -135 106 -135q61 0 95 40v194q-35 33 -94 33q-107 0 -107 -132z" />
    <glyph glyph-name="e" unicode="e" horiz-adv-x="468" 
d="M257 88q71 0 137 39l36 -88q-80 -50 -174 -50q-114 0 -168.5 64.5t-54.5 174.5q0 103 54.5 170.5t155.5 67.5q97 0 144.5 -57.5t47.5 -139.5q0 -48 -8 -78h-276q2 -49 28.5 -76t77.5 -27zM152 275h174q1 6 1 14q0 40 -24 62t-60 22q-84 0 -91 -98z" />
    <glyph glyph-name="f" unicode="f" horiz-adv-x="357" 
d="M323 695v-95q-1 0 -26 2t-39 2q-48 0 -48 -59v-89h123v-97h-123v-263h95v-96h-269v87l64 18v254h-65v97h65v98q0 65 37.5 108.5t111.5 43.5q43 0 74 -11z" />
    <glyph glyph-name="g" unicode="g" horiz-adv-x="495" 
d="M489 382l-83 -10q26 -32 26 -91q0 -77 -52.5 -118.5t-139.5 -41.5q-50 0 -79 10l-4 -61h152q73 0 113.5 -32.5t40.5 -95.5q0 -76 -64.5 -122t-175.5 -46q-205 0 -205 119q0 36 24.5 61t52.5 31q-18 9 -28.5 27.5t-10.5 37.5q0 50 56 93q-78 42 -78 144q0 81 53.5 130
t153.5 49q75 0 120 -34q43 65 126 60zM237 205q90 0 90 80q0 39 -22.5 61t-67.5 22q-93 0 -93 -83q0 -80 93 -80zM157 -29q-30 -22 -30 -51q0 -60 100 -60q55 0 87 16.5t32 47.5q0 47 -61 47h-128z" />
    <glyph glyph-name="h" unicode="h" horiz-adv-x="565" 
d="M23 0v96h60v502h-60v98h170v-282q54 52 143 52q154 0 154 -180v-190h59v-96h-236v96h66v178q0 44 -18.5 65.5t-66.5 21.5q-58 0 -101 -34v-231h65v-96h-235z" />
    <glyph glyph-name="i" unicode="i" horiz-adv-x="339" 
d="M31 0v96h96v263h-96v97h207v-360h89v-96h-296zM178 547q-70 0 -70 67q0 34 19 51.5t51 17.5q29 0 49 -17.5t20 -51.5t-20 -50.5t-49 -16.5z" />
    <glyph glyph-name="j" unicode="j" horiz-adv-x="268" 
d="M81 -226l-67 79q41 25 61 54t20 72v380h-80v97h191v-463q0 -153 -125 -219zM145 547q-71 0 -71 67q0 34 19.5 51.5t51.5 17.5q29 0 49 -17.5t20 -51.5t-20 -50.5t-49 -16.5z" />
    <glyph glyph-name="k" unicode="k" horiz-adv-x="569" 
d="M343 0v94l-77 115l-71 -57v-56h80v-96h-256v96h66v503h-66v97h176v-457l152 120h-71v97h258v-97h-70l-117 -95l117 -168h85v-96h-206z" />
    <glyph glyph-name="l" unicode="l" horiz-adv-x="262" 
d="M59 129v470h-74v97h184v-552q0 -28 9 -39t31 -11q20 0 43 5l2 -97q-36 -13 -82 -13q-63 0 -88 36t-25 104z" />
    <glyph glyph-name="m" unicode="m" horiz-adv-x="804" 
d="M36 0v96h59v263h-57v97h156v-53q16 26 49 44.5t77 18.5q81 0 121 -66q47 66 144 66q75 0 109 -42.5t34 -128.5v-199h58v-96h-216v96h47v190q0 37 -15 56t-51 19q-53 0 -83 -34v-231h48v-96h-207v96h49v222q-21 43 -72 43q-47 0 -80 -33v-232h47v-96h-217z" />
    <glyph glyph-name="n" unicode="n" horiz-adv-x="576" 
d="M36 0v96h59v263h-57v97h156v-54q53 64 154 64q154 0 154 -180v-190h58v-96h-235v96h66v178q0 44 -19 65.5t-67 21.5q-56 0 -99 -34v-231h64v-96h-234z" />
    <glyph glyph-name="o" unicode="o" horiz-adv-x="502" 
d="M253 466q112 0 164 -63t52 -174q0 -240 -220 -240q-111 0 -163.5 64t-52.5 174q0 239 220 239zM252 92q55 0 77.5 32t22.5 103q0 72 -22.5 104t-79.5 32q-54 0 -77 -32t-23 -102q0 -72 23.5 -104.5t78.5 -32.5z" />
    <glyph glyph-name="p" unicode="p" horiz-adv-x="537" 
d="M291 -216h-260v91l52 14v470h-65v97h167v-51q47 61 126 61q94 0 143 -62t49 -177q0 -114 -48 -176t-144 -62q-74 0 -117 47v-155h97v-97zM386 227q0 64 -23 99t-80 35q-55 0 -89 -38v-196q36 -33 89 -33q57 0 80 35t23 98z" />
    <glyph glyph-name="q" unicode="q" horiz-adv-x="515" 
d="M514 -216h-273v97h103v155q-45 -47 -118 -47q-96 0 -144 62t-48 176q0 115 49 177t143 62q74 0 137 -55l16 85h76v-611l59 -14v-87zM344 127v196q-34 38 -90 38q-57 0 -80 -35t-23 -99q0 -63 23 -98t80 -35q54 0 90 33z" />
    <glyph glyph-name="r" unicode="r" horiz-adv-x="415" 
d="M35 359v97h169v-99q12 37 49.5 73t79.5 36q37 0 70 -5l-9 -128l-81 15q-69 -5 -101 -60v-192h101v-96h-278v87l66 18v254h-66z" />
    <glyph glyph-name="s" unicode="s" horiz-adv-x="437" 
d="M387 437v-123h-88l-13 61q-28 11 -63 11q-28 0 -43 -14t-15 -34q0 -35 42 -49l72 -22q64 -20 94.5 -53t30.5 -85q0 -59 -45.5 -99.5t-143.5 -40.5q-96 0 -172 31l-8 130h88l20 -68q28 -14 71 -14q30 0 47 12.5t17 35.5q0 34 -44 49l-76 24q-117 36 -117 136q0 57 43 99
t139 42q97 0 164 -29z" />
    <glyph glyph-name="t" unicode="t" horiz-adv-x="348" 
d="M206 359v-212q0 -53 52 -53q32 0 69 7l3 -98q-42 -14 -106 -14q-66 0 -97.5 38.5t-31.5 103.5v228h-83v87l83 10v112l111 18v-130h108v-97h-108z" />
    <glyph glyph-name="u" unicode="u" horiz-adv-x="570" 
d="M485 456v-359h68v-97h-156v80q-54 -90 -169 -90q-148 0 -148 180v190h-66v96h177v-274q0 -44 18.5 -65.5t65.5 -21.5q30 0 58.5 15.5t41.5 39.5v210h-84v96h194z" />
    <glyph glyph-name="v" unicode="v" horiz-adv-x="550" 
d="M307 359v97h235v-97h-57l-139 -359h-143l-137 359h-57v97h241v-97h-63l90 -255l92 255h-62z" />
    <glyph glyph-name="w" unicode="w" horiz-adv-x="785" 
d="M537 359v97h238v-97h-54l-105 -359h-129l-91 242l-99 -242h-125l-111 359h-51v97h238v-97h-71l68 -254l98 246l-36 105h115l122 -349l64 252h-71z" />
    <glyph glyph-name="x" unicode="x" horiz-adv-x="562" 
d="M253 188l-70 -92h75v-96h-231v96h54l115 140l-103 123h-62v97h207v-95l72 -85l63 83h-73v97h229v-97h-59l-107 -131l117 -132h56v-96h-206v94z" />
    <glyph glyph-name="y" unicode="y" horiz-adv-x="571" 
d="M60 -207v81h125l58 129l-160 356h-76v97h198v-96l92 -230l96 229h-101v97h270v-97h-60l-203 -484q-43 -101 -141 -101q-63 0 -98 19z" />
    <glyph glyph-name="z" unicode="z" horiz-adv-x="455" 
d="M410 456v-76l-229 -296h144l10 82h83v-166h-384v76l230 296h-126l-9 -77h-86v161h367z" />
    <glyph glyph-name="braceleft" unicode="{" horiz-adv-x="307" 
d="M220 542v-186q0 -95 -99 -116q14 -2 28.5 -8.5t31.5 -18.5t28 -35t11 -52v-201q0 -34 13 -43t45 -10v-88q-94 0 -135 31.5t-41 109.5v189q0 45 -29 63.5t-65 18.5v88q35 0 64.5 20t29.5 64v187q0 77 41 109t135 32v-88q-30 0 -44 -14t-14 -52z" />
    <glyph glyph-name="bar" unicode="|" horiz-adv-x="201" 
d="M136 -216h-71v912h71v-912z" />
    <glyph glyph-name="braceright" unicode="}" horiz-adv-x="307" 
d="M87 356v186q0 38 -14 52t-44 14v88q94 0 135 -32t41 -109v-187q0 -44 29.5 -64t64.5 -20v-88q-36 0 -65 -18.5t-29 -63.5v-189q0 -78 -41 -109.5t-135 -31.5v88q22 1 32.5 3.5t18 14t7.5 35.5v201q0 55 32.5 81.5t66.5 32.5q-99 21 -99 116z" />
    <glyph glyph-name="asciitilde" unicode="~" horiz-adv-x="462" 
d="M415 328l-4 -112q-45 32 -88 32q-28 0 -89.5 -32t-100.5 -32q-47 0 -86 28l2 112q40 -32 79 -32q29 0 89 32t106 32q48 0 92 -28z" />
    <glyph glyph-name="uni00A0" unicode="&#xa0;" horiz-adv-x="200" 
 />
    <glyph glyph-name="exclamdown" unicode="&#xa1;" horiz-adv-x="245" 
d="M76 237h95l20 -453h-137zM122 466q33 0 55 -20.5t22 -51.5q0 -32 -22 -53t-55 -21q-32 0 -53.5 21t-21.5 53q0 31 21.5 51.5t53.5 20.5z" />
    <glyph glyph-name="cent" unicode="&#xa2;" 
d="M413 527l-18 -70q49 -12 91 -34l-27 -92q-34 16 -88 26l-64 -263q31 0 47 2q57 4 105 29l27 -92q-83 -44 -186 -44q-12 0 -18 1l-14 -61l-59 13l14 58q-73 21 -108.5 82.5t-35.5 146.5q0 102 56 170t165 68q11 0 35 -2l18 75zM201 239q0 -92 49 -127l60 250
q-53 -2 -81 -34t-28 -89z" />
    <glyph glyph-name="sterling" unicode="&#xa3;" 
d="M47 305h63v138q0 109 52.5 176t167.5 67q100 0 187 -38l-20 -179h-87v107q-40 11 -75 11q-107 0 -107 -144v-138h171v-76h-171v-133h272v-96h-453v79l63 38v112h-63v76z" />
    <glyph glyph-name="currency" unicode="&#xa4;" 
d="M433 349q11 -37 11 -76q0 -44 -11 -76l82 -84l-79 -78l-80 79q-35 -15 -78 -15q-46 0 -80 16l-75 -75l-74 73l77 80q-12 34 -12 79q0 42 10 72l-79 84l79 77l75 -76q35 16 81 16q50 0 82 -18l76 76l73 -73zM280 201q66 0 66 71t-67 71q-66 0 -66 -70q0 -72 67 -72z" />
    <glyph glyph-name="yen" unicode="&#xa5;" 
d="M38 305h160l-32 60h-128v76h88l-76 138h-58v97h253v-97h-71l104 -213l107 213h-71v97h253v-97h-58l-79 -138h90v-76h-131l-33 -60h164v-76h-184v-132h71v-97h-265v97h76v132h-180v76z" />
    <glyph glyph-name="brokenbar" unicode="&#xa6;" horiz-adv-x="210" 
d="M140 306h-71v390h71v-390zM69 170h71v-386h-71v386z" />
    <glyph glyph-name="section" unicode="&#xa7;" horiz-adv-x="558" 
d="M508 277q0 -71 -62 -119q61 -41 61 -108q0 -70 -58.5 -117t-178.5 -47q-124 0 -208 47v138h86l16 -74q42 -21 106 -21q112 0 112 56q0 24 -24 38.5t-62 27.5l-96 34q-147 51 -147 156q0 75 61 123q-60 40 -60 109q0 66 56 116t171 50q114 0 207 -45v-132h-88l-15 68
q-49 17 -104 17q-49 0 -76.5 -15t-27.5 -42q0 -24 20.5 -37.5t70.5 -30.5l83 -28q79 -27 118 -66.5t39 -97.5zM204 371q-32 -24 -32 -59q0 -49 99 -84l84 -30q33 26 33 58q0 19 -8.5 33.5t-26 25t-27.5 15t-30 11.5z" />
    <glyph glyph-name="dieresis" unicode="&#xa8;" horiz-adv-x="600" 
d="M203 537q-70 0 -70 67q0 34 19 51.5t51 17.5q29 0 49 -17.5t20 -51.5t-20 -50.5t-49 -16.5zM397 537q-70 0 -70 67q0 34 19 51.5t51 17.5q29 0 49 -17.5t20 -51.5t-20 -50.5t-49 -16.5z" />
    <glyph glyph-name="copyright" unicode="&#xa9;" horiz-adv-x="835" 
d="M47 335q0 161 105.5 264.5t265.5 103.5t265 -103.5t105 -264.5q0 -160 -105 -264t-265 -104t-265.5 104.5t-105.5 263.5zM132 335q0 -128 79.5 -207t206.5 -79q126 0 205.5 79t79.5 207q0 129 -79.5 207.5t-205.5 78.5q-127 0 -206.5 -78.5t-79.5 -207.5zM329 334
q0 -50 21.5 -81.5t68.5 -31.5q56 0 125 33l24 -74q-74 -45 -148 -45q-191 0 -191 199q0 90 51 144t143 54q65 0 130 -29v-140h-75v74q-25 9 -55 9q-94 0 -94 -112z" />
    <glyph glyph-name="ordfeminine" unicode="&#xaa;" horiz-adv-x="356" 
d="M128 567v-32h-67l-6 77q49 27 115 27q120 0 120 -95v-114q0 -15 14 -15h17v-65q-17 -4 -43 -4q-51 0 -63 42q-29 -45 -89 -45q-44 0 -68 22.5t-24 60.5q0 52 36 71.5t108 19.5h31v21q0 35 -39 35q-22 0 -42 -6zM119 433q0 -25 30 -25q32 0 60 23v35h-31q-59 0 -59 -33z
" />
    <glyph glyph-name="guillemotleft" unicode="&#xab;" horiz-adv-x="544" 
d="M23 270l196 228l72 -53l-131 -176l132 -175l-73 -52zM237 270l196 228l72 -53l-131 -176l132 -175l-73 -52z" />
    <glyph glyph-name="logicalnot" unicode="&#xac;" horiz-adv-x="599" 
d="M47 327v108h485v-287h-111v179h-374z" />
    <glyph glyph-name="uni00AD" unicode="&#xad;" 
d="M98 324h363v-108h-363v108z" />
    <glyph glyph-name="registered" unicode="&#xae;" horiz-adv-x="835" 
d="M47 335q0 161 105.5 264.5t265.5 103.5t265 -103.5t105 -264.5q0 -160 -105 -264t-265 -104t-265.5 104.5t-105.5 263.5zM132 335q0 -128 79.5 -207t206.5 -79q126 0 205.5 79t79.5 207q0 129 -79.5 207.5t-205.5 78.5q-127 0 -206.5 -78.5t-79.5 -207.5zM282 201v262
h-42v63h188q151 0 151 -117q0 -38 -21.5 -66.5t-60.5 -39.5l69 -102h42v-63h-169v63h39l-58 93h-56v-93h37v-63h-160v63h41zM496 409q0 23 -16.5 38.5t-51.5 15.5h-64v-106h60q37 0 54.5 15t17.5 37z" />
    <glyph glyph-name="macron" unicode="&#xaf;" horiz-adv-x="600" 
d="M151 651h297v-92h-297v92z" />
    <glyph glyph-name="degree" unicode="&#xb0;" horiz-adv-x="331" 
d="M29 545q0 59 36 100t99 41q65 0 102 -41t37 -100q0 -56 -37 -96.5t-102 -40.5q-63 0 -99 40.5t-36 96.5zM94 545q0 -31 18.5 -52.5t51.5 -21.5q35 0 53.5 21.5t18.5 52.5q0 32 -18.5 55t-53.5 23q-33 0 -51.5 -23t-18.5 -55z" />
    <glyph glyph-name="plusminus" unicode="&#xb1;" 
d="M37 353v108h183v190h116v-190h186v-108h-186v-143h-116v143h-183zM37 25v108h485v-108h-485z" />
    <glyph glyph-name="twosuperior" unicode="&#xb2;" horiz-adv-x="340" 
d="M308 423h-274v59q72 58 116 100q21 21 30 31t18 28t9 37q0 20 -12 31.5t-31 11.5q-45 0 -45 -39q0 -14 4 -28l-87 -6q-5 15 -5 35q0 48 34 79t99 31t99 -31.5t34 -82.5q0 -63 -87 -135q-14 -12 -37.5 -30t-24.5 -19h90v35h70v-107z" />
    <glyph glyph-name="threesuperior" unicode="&#xb3;" horiz-adv-x="330" 
d="M103 679h-62l-8 80q52 34 120 34q72 0 103 -31.5t31 -70.5q0 -68 -63 -87q75 -15 75 -82q0 -49 -37.5 -77t-109.5 -28q-80 0 -131 39l40 62q38 -28 91 -28q57 0 57 37q0 20 -15 28.5t-52 8.5h-45v71h41q28 0 44.5 12t16.5 32q0 18 -12.5 30t-36.5 12t-47 -9v-33z" />
    <glyph glyph-name="acute" unicode="&#xb4;" horiz-adv-x="600" 
d="M279 696h115l-87 -163h-101z" />
    <glyph glyph-name="mu" unicode="&#xb5;" horiz-adv-x="613" 
d="M216 -216h-111v576h-66v96h177v-274q0 -44 19.5 -65.5t66.5 -21.5q30 0 57.5 15t40.5 40v210h-84v96h194v-359h68v-97h-156v80q-54 -90 -167 -90q-23 0 -39 8v-214z" />
    <glyph glyph-name="paragraph" unicode="&#xb6;" horiz-adv-x="552" 
d="M209 456h115v-471h-101v166h-14q-90 0 -134 39.5t-44 111.5t44.5 113t133.5 41zM362 -227l-63 70q40 26 58.5 55t18.5 73v485h102v-463q0 -74 -24.5 -129t-91.5 -91z" />
    <glyph glyph-name="periodcentered" unicode="&#xb7;" horiz-adv-x="230" 
d="M115 196q-33 0 -54.5 20.5t-21.5 51.5q0 32 21.5 52.5t54.5 20.5t54.5 -20.5t21.5 -52.5q0 -31 -21.5 -51.5t-54.5 -20.5z" />
    <glyph glyph-name="cedilla" unicode="&#xb8;" horiz-adv-x="600" 
d="M260 0l62 1l-22 -56q12 4 32 4q30 0 52 -19.5t22 -50.5q0 -37 -28 -58t-83 -21q-43 0 -102 23l9 51q50 -25 85 -25q38 0 38 31q0 29 -30 29q-15 0 -28 -9q-28 11 -40 16z" />
    <glyph glyph-name="onesuperior" unicode="&#xb9;" horiz-adv-x="308" 
d="M37 423v72h94v208l-88 -30l-18 66l119 49h74v-293h77v-72h-258z" />
    <glyph glyph-name="ordmasculine" unicode="&#xba;" horiz-adv-x="343" 
d="M173 639q70 0 103.5 -40t33.5 -107q0 -149 -140 -149q-70 0 -104 40t-34 107q0 69 34 109t107 40zM172 415q57 0 57 75q0 77 -58 77t-58 -75q0 -77 59 -77z" />
    <glyph glyph-name="guillemotright" unicode="&#xbb;" horiz-adv-x="544" 
d="M325 498l196 -228l-196 -228l-73 52l132 175l-131 176zM111 498l196 -228l-196 -228l-73 52l132 175l-131 176z" />
    <glyph glyph-name="onequarter" unicode="&#xbc;" horiz-adv-x="753" 
d="M656 676v-13l-412 -663h-83v13l409 663h86zM712 135v-66h-52v-69h-85v69h-179v59l126 178q10 13 19 28t13 23l4 8h102v-230h52zM489 135h86v129zM52 311v72h94v208l-88 -30l-18 66l119 49h74v-293h77v-72h-258z" />
    <glyph glyph-name="onehalf" unicode="&#xbd;" horiz-adv-x="791" 
d="M52 311v72h94v208l-88 -30l-18 66l119 49h74v-293h77v-72h-258zM749 0h-274v59q76 63 116 101q21 20 30 30.5t18 28t9 36.5q0 20 -12 31.5t-31 11.5q-45 0 -45 -39q0 -19 4 -28l-87 -6q-5 11 -5 35q0 48 33.5 79t99.5 31q65 0 99 -31.5t34 -82.5q0 -62 -87 -134
q-40 -33 -63 -50h91v35h70v-107zM656 676v-13l-412 -663h-83v13l409 663h86z" />
    <glyph glyph-name="threequarters" unicode="&#xbe;" horiz-adv-x="732" 
d="M633 676v-13l-412 -663h-83v13l409 663h86zM121 567h-62l-8 80q52 34 120 34q72 0 103 -31.5t31 -70.5q0 -68 -63 -87q75 -15 75 -82q0 -49 -37.5 -77t-109.5 -28q-80 0 -131 39l40 62q38 -28 91 -28q57 0 57 37q0 20 -15 28.5t-52 8.5h-45v71h41q28 0 44.5 12t16.5 32
q0 18 -12.5 30t-36.5 12t-47 -9v-33zM689 135v-66h-52v-69h-85v69h-179v59l126 178q10 13 19 28t13 23l4 8h102v-230h52zM466 135h86v129z" />
    <glyph glyph-name="questiondown" unicode="&#xbf;" horiz-adv-x="461" 
d="M323 -19h87l18 -136q-75 -71 -194 -71q-94 0 -146 47t-52 116q0 41 13.5 75t39 58t44 37t47.5 29v101h118v-152q-72 -30 -109.5 -59.5t-37.5 -70.5q0 -32 22.5 -54t68.5 -22q41 0 81 22v80zM240 466q33 0 54.5 -20.5t21.5 -51.5q0 -32 -21.5 -53t-54.5 -21t-55 21t-22 53
q0 31 22 51.5t55 20.5z" />
    <glyph glyph-name="Agrave" unicode="&#xc0;" horiz-adv-x="693" 
d="M423 0v97h78l-35 103h-239l-37 -103h79v-97h-264v97h58l180 482h-57v97h321v-97h-56l178 -482h58v-97h-264zM254 299h186l-94 259zM214 901h115l73 -163h-101z" />
    <glyph glyph-name="Aacute" unicode="&#xc1;" horiz-adv-x="693" 
d="M423 0v97h78l-35 103h-239l-37 -103h79v-97h-264v97h58l180 482h-57v97h321v-97h-56l178 -482h58v-97h-264zM254 299h186l-94 259zM355 901h115l-87 -163h-101z" />
    <glyph glyph-name="Acircumflex" unicode="&#xc2;" horiz-adv-x="693" 
d="M423 0v97h78l-35 103h-239l-37 -103h79v-97h-264v97h58l180 482h-57v97h321v-97h-56l178 -482h58v-97h-264zM254 299h186l-94 259zM275 901h144l85 -163h-101l-56 106l-56 -106h-102z" />
    <glyph glyph-name="Atilde" unicode="&#xc3;" horiz-adv-x="693" 
d="M423 0v97h78l-35 103h-239l-37 -103h79v-97h-264v97h58l180 482h-57v97h321v-97h-56l178 -482h58v-97h-264zM254 299h186l-94 259zM495 855l-2 -85q-39 25 -73 25q-25 0 -73 -20.5t-78 -20.5q-43 0 -70 23l2 84q26 -24 68 -24q23 0 68.5 20t82.5 20q39 0 75 -22z" />
    <glyph glyph-name="Adieresis" unicode="&#xc4;" horiz-adv-x="693" 
d="M423 0v97h78l-35 103h-239l-37 -103h79v-97h-264v97h58l180 482h-57v97h321v-97h-56l178 -482h58v-97h-264zM254 299h186l-94 259zM249 742q-70 0 -70 67q0 35 19 52t51 17q29 0 49 -17.5t20 -51.5t-20 -50.5t-49 -16.5zM443 742q-70 0 -70 67q0 35 19 52t51 17
q29 0 49 -17.5t20 -51.5t-20 -50.5t-49 -16.5z" />
    <glyph glyph-name="Aring" unicode="&#xc5;" horiz-adv-x="693" 
d="M423 0v97h78l-35 103h-239l-37 -103h79v-97h-264v97h58l180 482h-57v97h321v-97h-56l178 -482h58v-97h-264zM254 299h186l-94 259zM238 812q0 42 28 71.5t78 29.5q53 0 82 -29.5t29 -71.5q0 -40 -29.5 -69t-81.5 -29q-50 0 -78 29t-28 69zM303 812q0 -16 11 -27.5
t30 -11.5q21 0 33 11.5t12 27.5q0 18 -12 30t-33 12q-19 0 -30 -12t-11 -30z" />
    <glyph glyph-name="AE" unicode="&#xc6;" horiz-adv-x="977" 
d="M314 299h182v259zM330 676h599v-198h-109v101h-207v-190h206v-97h-206v-195h211v103h109v-200h-516v97h78v103h-240l-71 -103h79v-97h-268v97h59l334 482h-58v97z" />
    <glyph glyph-name="Ccedilla" unicode="&#xc7;" horiz-adv-x="598" 
d="M165 340q0 -109 45 -174.5t135 -65.5q100 0 188 44l27 -101q-99 -49 -197 -53l-17 -45q12 4 32 4q30 0 52 -19.5t22 -50.5q0 -37 -28 -58t-83 -21q-43 0 -102 23l9 51q50 -25 85 -25q38 0 38 31q0 29 -30 29q-15 0 -28 -9q-28 11 -40 16l29 75q-128 10 -194 100.5
t-66 248.5q0 159 76.5 252.5t226.5 93.5q96 0 211 -46l-8 -218h-105l-2 141q-48 16 -99 16q-91 0 -134 -64t-43 -175z" />
    <glyph glyph-name="Egrave" unicode="&#xc8;" horiz-adv-x="593" 
d="M436 200h113v-200h-508v97h71v482h-71v97h504v-198h-109v101h-207v-190h206v-97h-206v-195h207v103zM175 901h115l73 -163h-101z" />
    <glyph glyph-name="Eacute" unicode="&#xc9;" horiz-adv-x="593" 
d="M436 200h113v-200h-508v97h71v482h-71v97h504v-198h-109v101h-207v-190h206v-97h-206v-195h207v103zM314 901h115l-87 -163h-101z" />
    <glyph glyph-name="Ecircumflex" unicode="&#xca;" horiz-adv-x="593" 
d="M436 200h113v-200h-508v97h71v482h-71v97h504v-198h-109v101h-207v-190h206v-97h-206v-195h207v103zM239 901h144l85 -163h-101l-56 106l-56 -106h-102z" />
    <glyph glyph-name="Edieresis" unicode="&#xcb;" horiz-adv-x="593" 
d="M436 200h113v-200h-508v97h71v482h-71v97h504v-198h-109v101h-207v-190h206v-97h-206v-195h207v103zM213 742q-70 0 -70 67q0 35 19 52t51 17q29 0 49 -17.5t20 -51.5t-20 -50.5t-49 -16.5zM407 742q-70 0 -70 67q0 35 19 52t51 17q29 0 49 -17.5t20 -51.5t-20 -50.5
t-49 -16.5z" />
    <glyph glyph-name="Igrave" unicode="&#xcc;" horiz-adv-x="349" 
d="M37 0v97h80v482h-80v97h274v-97h-76v-482h76v-97h-274zM49 901h115l73 -163h-101z" />
    <glyph glyph-name="Iacute" unicode="&#xcd;" horiz-adv-x="349" 
d="M37 0v97h80v482h-80v97h274v-97h-76v-482h76v-97h-274zM191 901h115l-87 -163h-101z" />
    <glyph glyph-name="Icircumflex" unicode="&#xce;" horiz-adv-x="349" 
d="M37 0v97h80v482h-80v97h274v-97h-76v-482h76v-97h-274zM102 901h144l85 -163h-101l-56 106l-56 -106h-102z" />
    <glyph glyph-name="Idieresis" unicode="&#xcf;" horiz-adv-x="349" 
d="M37 0v97h80v482h-80v97h274v-97h-76v-482h76v-97h-274zM78 742q-70 0 -70 67q0 35 19 52t51 17q29 0 49 -17.5t20 -51.5t-20 -50.5t-49 -16.5zM272 742q-70 0 -70 67q0 35 19 52t51 17q29 0 49 -17.5t20 -51.5t-20 -50.5t-49 -16.5z" />
    <glyph glyph-name="Eth" unicode="&#xd0;" horiz-adv-x="687" 
d="M52 378h71v201h-71v97h240q194 0 271.5 -79t77.5 -259q0 -178 -77.5 -258t-271.5 -80h-240v97h71v212h-71v69zM242 97h68q119 0 165.5 55t46.5 188q0 129 -49 184t-163 55h-68v-201h152v-69h-152v-212z" />
    <glyph glyph-name="Ntilde" unicode="&#xd1;" horiz-adv-x="746" 
d="M434 579v97h281v-97h-67v-579h-130l-291 487v-390h105v-97h-289v97h66v482h-66v97h201l286 -486v389h-96zM525 855l-2 -85q-39 25 -73 25q-25 0 -73 -20.5t-78 -20.5q-43 0 -70 23l2 84q26 -24 68 -24q23 0 68.5 20t82.5 20q39 0 75 -22z" />
    <glyph glyph-name="Ograve" unicode="&#xd2;" horiz-adv-x="654" 
d="M170 337q0 -118 34.5 -180.5t122.5 -62.5t122 62.5t34 180.5t-34.5 181t-120.5 63q-87 0 -122.5 -63t-35.5 -181zM611 337q0 -160 -68.5 -254t-217.5 -94q-76 0 -131.5 26t-88 74t-47.5 109.5t-15 138.5q0 78 15 139.5t47.5 110t88.5 74.5t133 26q149 0 216.5 -94.5
t67.5 -255.5zM201 901h115l73 -163h-101z" />
    <glyph glyph-name="Oacute" unicode="&#xd3;" horiz-adv-x="654" 
d="M170 337q0 -118 34.5 -180.5t122.5 -62.5t122 62.5t34 180.5t-34.5 181t-120.5 63q-87 0 -122.5 -63t-35.5 -181zM611 337q0 -160 -68.5 -254t-217.5 -94q-76 0 -131.5 26t-88 74t-47.5 109.5t-15 138.5q0 78 15 139.5t47.5 110t88.5 74.5t133 26q149 0 216.5 -94.5
t67.5 -255.5zM343 901h115l-87 -163h-101z" />
    <glyph glyph-name="Ocircumflex" unicode="&#xd4;" horiz-adv-x="654" 
d="M170 337q0 -118 34.5 -180.5t122.5 -62.5t122 62.5t34 180.5t-34.5 181t-120.5 63q-87 0 -122.5 -63t-35.5 -181zM611 337q0 -160 -68.5 -254t-217.5 -94q-76 0 -131.5 26t-88 74t-47.5 109.5t-15 138.5q0 78 15 139.5t47.5 110t88.5 74.5t133 26q149 0 216.5 -94.5
t67.5 -255.5zM255 901h144l85 -163h-101l-56 106l-56 -106h-102z" />
    <glyph glyph-name="Otilde" unicode="&#xd5;" horiz-adv-x="654" 
d="M170 337q0 -118 34.5 -180.5t122.5 -62.5t122 62.5t34 180.5t-34.5 181t-120.5 63q-87 0 -122.5 -63t-35.5 -181zM611 337q0 -160 -68.5 -254t-217.5 -94q-76 0 -131.5 26t-88 74t-47.5 109.5t-15 138.5q0 78 15 139.5t47.5 110t88.5 74.5t133 26q149 0 216.5 -94.5
t67.5 -255.5zM475 855l-2 -85q-39 25 -73 25q-25 0 -73 -20.5t-78 -20.5q-43 0 -70 23l2 84q25 -24 68 -24q23 0 68.5 20t82.5 20q39 0 75 -22z" />
    <glyph glyph-name="Odieresis" unicode="&#xd6;" horiz-adv-x="654" 
d="M170 337q0 -118 34.5 -180.5t122.5 -62.5t122 62.5t34 180.5t-34.5 181t-120.5 63q-87 0 -122.5 -63t-35.5 -181zM611 337q0 -160 -68.5 -254t-217.5 -94q-76 0 -131.5 26t-88 74t-47.5 109.5t-15 138.5q0 78 15 139.5t47.5 110t88.5 74.5t133 26q149 0 216.5 -94.5
t67.5 -255.5zM230 742q-70 0 -70 67q0 35 19 52t51 17q29 0 49 -17.5t20 -51.5t-20 -50.5t-49 -16.5zM424 742q-70 0 -70 67q0 35 19 52t51 17q29 0 49 -17.5t20 -51.5t-20 -50.5t-49 -16.5z" />
    <glyph glyph-name="multiply" unicode="&#xd7;" 
d="M124 39l-76 76l151 152l-155 155l81 82l156 -156l153 153l76 -76l-153 -153l157 -156l-83 -82l-155 157z" />
    <glyph glyph-name="Oslash" unicode="&#xd8;" horiz-adv-x="654" 
d="M611 337q0 -160 -68.5 -254t-217.5 -94q-51 0 -99 15l-17 -42h-89v14l28 67q-105 85 -105 294q0 78 15 139.5t47.5 110t88.5 74.5t133 26q47 0 91 -13l13 32h92v-12l-24 -57q112 -84 112 -300zM483 337q0 123 -37 179l-177 -413q24 -9 58 -9q88 0 122 62.5t34 180.5z
M170 337q0 -113 32 -169l173 406q-20 7 -47 7q-87 0 -122.5 -63t-35.5 -181z" />
    <glyph glyph-name="Ugrave" unicode="&#xd9;" horiz-adv-x="684" 
d="M341 -10q-117 0 -185.5 63.5t-68.5 200.5v325h-65v97h270v-97h-88v-326q0 -83 35 -120.5t103 -37.5q138 0 138 158v326h-87v97h268v-97h-65v-325q0 -137 -68.5 -200.5t-186.5 -63.5zM216 901h115l73 -163h-101z" />
    <glyph glyph-name="Uacute" unicode="&#xda;" horiz-adv-x="684" 
d="M341 -10q-117 0 -185.5 63.5t-68.5 200.5v325h-65v97h270v-97h-88v-326q0 -83 35 -120.5t103 -37.5q138 0 138 158v326h-87v97h268v-97h-65v-325q0 -137 -68.5 -200.5t-186.5 -63.5zM365 901h115l-87 -163h-101z" />
    <glyph glyph-name="Ucircumflex" unicode="&#xdb;" horiz-adv-x="684" 
d="M341 -10q-117 0 -185.5 63.5t-68.5 200.5v325h-65v97h270v-97h-88v-326q0 -83 35 -120.5t103 -37.5q138 0 138 158v326h-87v97h268v-97h-65v-325q0 -137 -68.5 -200.5t-186.5 -63.5zM269 901h144l85 -163h-101l-56 106l-56 -106h-102z" />
    <glyph glyph-name="Udieresis" unicode="&#xdc;" horiz-adv-x="684" 
d="M341 -10q-117 0 -185.5 63.5t-68.5 200.5v325h-65v97h270v-97h-88v-326q0 -83 35 -120.5t103 -37.5q138 0 138 158v326h-87v97h268v-97h-65v-325q0 -137 -68.5 -200.5t-186.5 -63.5zM245 742q-70 0 -70 67q0 35 19 52t51 17q29 0 49 -17.5t20 -51.5t-20 -50.5t-49 -16.5z
M439 742q-70 0 -70 67q0 35 19 52t51 17q29 0 49 -17.5t20 -51.5t-20 -50.5t-49 -16.5z" />
    <glyph glyph-name="Yacute" unicode="&#xdd;" horiz-adv-x="639" 
d="M5 579v97h270v-97h-81l127 -217l129 217h-82v97h271v-97h-65l-195 -315v-167h81v-97h-287v97h87v167l-190 315h-65zM344 901h115l-87 -163h-101z" />
    <glyph glyph-name="Thorn" unicode="&#xde;" horiz-adv-x="594" 
d="M111 579h-70v97h275v-97h-88v-55h105q239 0 239 -186q0 -185 -239 -185h-105v-56h89v-97h-276v97h70v482zM451 338q0 90 -112 90h-111v-176h111q61 0 86.5 21t25.5 65z" />
    <glyph glyph-name="germandbls" unicode="&#xdf;" horiz-adv-x="593" 
d="M84 105v384q0 103 52.5 160t151.5 57q98 0 149.5 -50t51.5 -124q0 -32 -19.5 -69t-39.5 -65.5t-20 -41.5q0 -22 41 -53l36 -27q44 -33 67 -66t23 -78q0 -65 -48 -104t-123 -39q-84 0 -150 30l-3 124h84l13 -68q18 -7 42 -7q31 0 49 14.5t18 39.5q0 39 -42 73l-50 42
q-40 32 -57 54.5t-17 55.5q0 31 39.5 85t39.5 89q0 40 -25 62.5t-63 22.5q-50 0 -69.5 -28.5t-19.5 -83.5v-494h-174v87z" />
    <glyph glyph-name="agrave" unicode="&#xe0;" horiz-adv-x="491" 
d="M165 360v-65h-98q-15 29 -15 62q0 49 46.5 79t137.5 30q102 0 142.5 -36.5t40.5 -133.5v-177q0 -27 26 -27q15 0 27 3v-95q-28 -6 -65 -6q-84 0 -94 70q-51 -75 -150 -75q-64 0 -100.5 35t-36.5 96q0 71 56 102.5t166 39.5l57 6v92q-23 6 -69 6q-40 0 -71 -6zM145 129
q0 -47 55 -47q59 0 105 42v70l-57 -7q-59 -7 -81 -20t-22 -38zM121 696h115l73 -163h-101z" />
    <glyph glyph-name="aacute" unicode="&#xe1;" horiz-adv-x="491" 
d="M165 360v-65h-98q-15 29 -15 62q0 49 46.5 79t137.5 30q102 0 142.5 -36.5t40.5 -133.5v-177q0 -27 26 -27q15 0 27 3v-95q-28 -6 -65 -6q-84 0 -94 70q-51 -75 -150 -75q-64 0 -100.5 35t-36.5 96q0 71 56 102.5t166 39.5l57 6v92q-23 6 -69 6q-40 0 -71 -6zM145 129
q0 -47 55 -47q59 0 105 42v70l-57 -7q-59 -7 -81 -20t-22 -38zM254 696h115l-87 -163h-101z" />
    <glyph glyph-name="acircumflex" unicode="&#xe2;" horiz-adv-x="491" 
d="M165 360v-65h-98q-15 29 -15 62q0 49 46.5 79t137.5 30q102 0 142.5 -36.5t40.5 -133.5v-177q0 -27 26 -27q15 0 27 3v-95q-28 -6 -65 -6q-84 0 -94 70q-51 -75 -150 -75q-64 0 -100.5 35t-36.5 96q0 71 56 102.5t166 39.5l57 6v92q-23 6 -69 6q-40 0 -71 -6zM145 129
q0 -47 55 -47q59 0 105 42v70l-57 -7q-59 -7 -81 -20t-22 -38zM170 696h144l85 -163h-101l-56 106l-56 -106h-102z" />
    <glyph glyph-name="atilde" unicode="&#xe3;" horiz-adv-x="491" 
d="M165 360v-65h-98q-15 29 -15 62q0 49 46.5 79t137.5 30q102 0 142.5 -36.5t40.5 -133.5v-177q0 -27 26 -27q15 0 27 3v-95q-28 -6 -65 -6q-84 0 -94 70q-51 -75 -150 -75q-64 0 -100.5 35t-36.5 96q0 71 56 102.5t166 39.5l57 6v92q-23 6 -69 6q-40 0 -71 -6zM145 129
q0 -47 55 -47q59 0 105 42v70l-57 -7q-59 -7 -81 -20t-22 -38zM387 650l-2 -85q-39 25 -73 25q-25 0 -73 -20.5t-78 -20.5q-43 0 -70 23l2 84q25 -24 68 -24q23 0 68.5 20t82.5 20q39 0 75 -22z" />
    <glyph glyph-name="adieresis" unicode="&#xe4;" horiz-adv-x="491" 
d="M165 360v-65h-98q-15 29 -15 62q0 49 46.5 79t137.5 30q102 0 142.5 -36.5t40.5 -133.5v-177q0 -27 26 -27q15 0 27 3v-95q-28 -6 -65 -6q-84 0 -94 70q-51 -75 -150 -75q-64 0 -100.5 35t-36.5 96q0 71 56 102.5t166 39.5l57 6v92q-23 6 -69 6q-40 0 -71 -6zM145 129
q0 -47 55 -47q59 0 105 42v70l-57 -7q-59 -7 -81 -20t-22 -38zM143 537q-70 0 -70 67q0 34 19 51.5t51 17.5q29 0 49 -17.5t20 -51.5t-20 -50.5t-49 -16.5zM337 537q-70 0 -70 67q0 34 19 51.5t51 17.5q29 0 49 -17.5t20 -51.5t-20 -50.5t-49 -16.5z" />
    <glyph glyph-name="aring" unicode="&#xe5;" horiz-adv-x="491" 
d="M165 360v-65h-98q-15 29 -15 62q0 49 46.5 79t137.5 30q102 0 142.5 -36.5t40.5 -133.5v-177q0 -27 26 -27q15 0 27 3v-95q-28 -6 -65 -6q-84 0 -94 70q-51 -75 -150 -75q-64 0 -100.5 35t-36.5 96q0 71 56 102.5t166 39.5l57 6v92q-23 6 -69 6q-40 0 -71 -6zM145 129
q0 -47 55 -47q59 0 105 42v70l-57 -7q-59 -7 -81 -20t-22 -38zM131 619q0 42 28 71.5t78 29.5q53 0 82 -29.5t29 -71.5q0 -40 -29.5 -69t-81.5 -29q-50 0 -78 29t-28 69zM196 619q0 -16 11 -27.5t30 -11.5q21 0 33 11.5t12 27.5q0 18 -12 30t-33 12q-19 0 -30 -12t-11 -30z
" />
    <glyph glyph-name="ae" unicode="&#xe6;" horiz-adv-x="740" 
d="M529 88q73 0 137 39l37 -88q-79 -50 -185 -50q-52 0 -94 21t-65 56q-28 -34 -79 -55.5t-111 -21.5q-69 0 -106 34.5t-37 96.5q0 71 56 102.5t166 39.5l58 6v92q-39 6 -85 6q-37 0 -55 -6v-65h-98q-15 29 -15 62q0 49 46.5 79t137.5 30q100 0 145 -47q52 47 134 47
q96 0 144 -57.5t48 -139.5q0 -40 -8 -78h-275q3 -103 104 -103zM426 275h172q1 6 1 14q0 40 -23.5 62t-59.5 22q-85 0 -90 -98zM146 129q0 -47 55 -47q57 0 105 42v70l-57 -7q-59 -7 -81 -20t-22 -38z" />
    <glyph glyph-name="ccedilla" unicode="&#xe7;" horiz-adv-x="458" 
d="M260 93q75 0 142 31l27 -92q-70 -37 -157 -42l-18 -45q12 4 33 4q30 0 52 -19.5t22 -50.5q0 -37 -28.5 -58t-83.5 -21q-43 0 -102 23l10 51q49 -25 85 -25q38 0 38 31q0 12 -8 20.5t-22 8.5q-17 0 -28 -9q-29 11 -41 16l29 76q-90 11 -133.5 76t-43.5 161q0 101 57.5 169
t163.5 68q82 0 171 -40l-20 -166h-91v102q-24 8 -60 8q-49 0 -74.5 -36t-25.5 -95q0 -146 106 -146z" />
    <glyph glyph-name="egrave" unicode="&#xe8;" horiz-adv-x="468" 
d="M257 88q71 0 137 39l36 -88q-80 -50 -174 -50q-114 0 -168.5 64.5t-54.5 174.5q0 103 54.5 170.5t155.5 67.5q97 0 144.5 -57.5t47.5 -139.5q0 -48 -8 -78h-276q2 -49 28.5 -76t77.5 -27zM152 275h174q1 6 1 14q0 40 -24 62t-60 22q-84 0 -91 -98zM120 696h115l73 -163
h-101z" />
    <glyph glyph-name="eacute" unicode="&#xe9;" horiz-adv-x="468" 
d="M257 88q71 0 137 39l36 -88q-80 -50 -174 -50q-114 0 -168.5 64.5t-54.5 174.5q0 103 54.5 170.5t155.5 67.5q97 0 144.5 -57.5t47.5 -139.5q0 -48 -8 -78h-276q2 -49 28.5 -76t77.5 -27zM152 275h174q1 6 1 14q0 40 -24 62t-60 22q-84 0 -91 -98zM260 696h115l-87 -163
h-101z" />
    <glyph glyph-name="ecircumflex" unicode="&#xea;" horiz-adv-x="468" 
d="M257 88q71 0 137 39l36 -88q-80 -50 -174 -50q-114 0 -168.5 64.5t-54.5 174.5q0 103 54.5 170.5t155.5 67.5q97 0 144.5 -57.5t47.5 -139.5q0 -48 -8 -78h-276q2 -49 28.5 -76t77.5 -27zM152 275h174q1 6 1 14q0 40 -24 62t-60 22q-84 0 -91 -98zM178 696h144l85 -163
h-101l-56 106l-56 -106h-102z" />
    <glyph glyph-name="edieresis" unicode="&#xeb;" horiz-adv-x="468" 
d="M257 88q71 0 137 39l36 -88q-80 -50 -174 -50q-114 0 -168.5 64.5t-54.5 174.5q0 103 54.5 170.5t155.5 67.5q97 0 144.5 -57.5t47.5 -139.5q0 -48 -8 -78h-276q2 -49 28.5 -76t77.5 -27zM152 275h174q1 6 1 14q0 40 -24 62t-60 22q-84 0 -91 -98zM152 537q-70 0 -70 67
q0 34 19 51.5t51 17.5q29 0 49 -17.5t20 -51.5t-20 -50.5t-49 -16.5zM346 537q-70 0 -70 67q0 34 19 51.5t51 17.5q29 0 49 -17.5t20 -51.5t-20 -50.5t-49 -16.5z" />
    <glyph glyph-name="igrave" unicode="&#xec;" horiz-adv-x="339" 
d="M45 696h115l73 -163h-101zM31 0v96h96v263h-96v97h207v-360h89v-96h-296z" />
    <glyph glyph-name="iacute" unicode="&#xed;" horiz-adv-x="339" 
d="M197 696h115l-87 -163h-101zM31 0v96h96v263h-96v97h207v-360h89v-96h-296z" />
    <glyph glyph-name="icircumflex" unicode="&#xee;" horiz-adv-x="339" 
d="M97 696h144l85 -163h-101l-56 106l-56 -106h-102zM31 0v96h96v263h-96v97h207v-360h89v-96h-296z" />
    <glyph glyph-name="idieresis" unicode="&#xef;" horiz-adv-x="339" 
d="M71 537q-70 0 -70 67q0 34 19 51.5t51 17.5q29 0 49 -17.5t20 -51.5t-20 -50.5t-49 -16.5zM265 537q-70 0 -70 67q0 34 19 51.5t51 17.5q29 0 49 -17.5t20 -51.5t-20 -50.5t-49 -16.5zM31 0v96h96v263h-96v97h207v-360h89v-96h-296z" />
    <glyph glyph-name="eth" unicode="&#xf0;" horiz-adv-x="534" 
d="M233 563l67 28q-42 59 -96 105h139q29 -25 59 -66l62 26l31 -72l-53 -23q52 -112 52 -247q0 -64 -12 -119.5t-38 -103t-72.5 -75t-109.5 -27.5q-111 0 -169.5 64t-58.5 171q0 102 52 162.5t142 60.5q53 0 91 -23.5t57 -57.5q0 76 -36 154l-76 -33zM259 94q55 0 82.5 47.5
t27.5 119.5q-38 72 -117 72q-50 0 -74.5 -31.5t-24.5 -87.5q0 -53 26 -86.5t80 -33.5z" />
    <glyph glyph-name="ntilde" unicode="&#xf1;" horiz-adv-x="576" 
d="M36 0v96h59v263h-57v97h156v-54q53 64 154 64q154 0 154 -180v-190h58v-96h-235v96h66v178q0 44 -19 65.5t-67 21.5q-56 0 -99 -34v-231h64v-96h-234zM443 650l-2 -85q-39 25 -73 25q-25 0 -73 -20.5t-78 -20.5q-43 0 -70 23l2 84q26 -24 68 -24q23 0 68.5 20t82.5 20
q39 0 75 -22z" />
    <glyph glyph-name="ograve" unicode="&#xf2;" horiz-adv-x="502" 
d="M253 466q112 0 164 -63t52 -174q0 -240 -220 -240q-111 0 -163.5 64t-52.5 174q0 239 220 239zM252 92q55 0 77.5 32t22.5 103q0 72 -22.5 104t-79.5 32q-54 0 -77 -32t-23 -102q0 -72 23.5 -104.5t78.5 -32.5zM126 696h115l73 -163h-101z" />
    <glyph glyph-name="oacute" unicode="&#xf3;" horiz-adv-x="502" 
d="M253 466q112 0 164 -63t52 -174q0 -240 -220 -240q-111 0 -163.5 64t-52.5 174q0 239 220 239zM252 92q55 0 77.5 32t22.5 103q0 72 -22.5 104t-79.5 32q-54 0 -77 -32t-23 -102q0 -72 23.5 -104.5t78.5 -32.5zM259 696h115l-87 -163h-101z" />
    <glyph glyph-name="ocircumflex" unicode="&#xf4;" horiz-adv-x="502" 
d="M253 466q112 0 164 -63t52 -174q0 -240 -220 -240q-111 0 -163.5 64t-52.5 174q0 239 220 239zM252 92q55 0 77.5 32t22.5 103q0 72 -22.5 104t-79.5 32q-54 0 -77 -32t-23 -102q0 -72 23.5 -104.5t78.5 -32.5zM179 696h144l85 -163h-101l-56 106l-56 -106h-102z" />
    <glyph glyph-name="otilde" unicode="&#xf5;" horiz-adv-x="502" 
d="M253 466q112 0 164 -63t52 -174q0 -240 -220 -240q-111 0 -163.5 64t-52.5 174q0 239 220 239zM252 92q55 0 77.5 32t22.5 103q0 72 -22.5 104t-79.5 32q-54 0 -77 -32t-23 -102q0 -72 23.5 -104.5t78.5 -32.5zM399 650l-2 -85q-39 25 -73 25q-25 0 -73 -20.5t-78 -20.5
q-43 0 -70 23l2 84q26 -24 68 -24q23 0 68.5 20t82.5 20q39 0 75 -22z" />
    <glyph glyph-name="odieresis" unicode="&#xf6;" horiz-adv-x="502" 
d="M253 466q112 0 164 -63t52 -174q0 -240 -220 -240q-111 0 -163.5 64t-52.5 174q0 239 220 239zM252 92q55 0 77.5 32t22.5 103q0 72 -22.5 104t-79.5 32q-54 0 -77 -32t-23 -102q0 -72 23.5 -104.5t78.5 -32.5zM155 537q-70 0 -70 67q0 34 19 51.5t51 17.5q29 0 49 -17.5
t20 -51.5t-20 -50.5t-49 -16.5zM349 537q-70 0 -70 67q0 34 19 51.5t51 17.5q29 0 49 -17.5t20 -51.5t-20 -50.5t-49 -16.5z" />
    <glyph glyph-name="divide" unicode="&#xf7;" 
d="M37 216v108h485v-108h-485zM282 13q-33 0 -54.5 20.5t-21.5 52.5t21.5 52.5t54.5 20.5q32 0 54 -21t22 -52t-22 -52t-54 -21zM282 381q-33 0 -54.5 20.5t-21.5 52.5t21.5 52.5t54.5 20.5t54.5 -20.5t21.5 -52.5q0 -31 -22 -52t-54 -21z" />
    <glyph glyph-name="oslash" unicode="&#xf8;" horiz-adv-x="502" 
d="M253 466q33 0 60 -6l20 47h71v-12l-26 -60q91 -55 91 -206q0 -240 -220 -240q-35 0 -65 8l-21 -49h-69v14l27 60q-88 57 -88 205q0 239 220 239zM252 92q55 0 77.5 32t22.5 103q0 70 -25 99l-98 -233q7 -1 23 -1zM150 229q0 -68 22 -95l95 228q-5 1 -17 1q-54 0 -77 -32
t-23 -102z" />
    <glyph glyph-name="ugrave" unicode="&#xf9;" horiz-adv-x="570" 
d="M485 456v-359h68v-97h-156v80q-54 -90 -169 -90q-148 0 -148 180v190h-66v96h177v-274q0 -44 18.5 -65.5t65.5 -21.5q30 0 58.5 15.5t41.5 39.5v210h-84v96h194zM151 696h115l73 -163h-101z" />
    <glyph glyph-name="uacute" unicode="&#xfa;" horiz-adv-x="570" 
d="M485 456v-359h68v-97h-156v80q-54 -90 -169 -90q-148 0 -148 180v190h-66v96h177v-274q0 -44 18.5 -65.5t65.5 -21.5q30 0 58.5 15.5t41.5 39.5v210h-84v96h194zM272 696h115l-87 -163h-101z" />
    <glyph glyph-name="ucircumflex" unicode="&#xfb;" horiz-adv-x="570" 
d="M485 456v-359h68v-97h-156v80q-54 -90 -169 -90q-148 0 -148 180v190h-66v96h177v-274q0 -44 18.5 -65.5t65.5 -21.5q30 0 58.5 15.5t41.5 39.5v210h-84v96h194zM200 696h144l85 -163h-101l-56 106l-56 -106h-102z" />
    <glyph glyph-name="udieresis" unicode="&#xfc;" horiz-adv-x="570" 
d="M485 456v-359h68v-97h-156v80q-54 -90 -169 -90q-148 0 -148 180v190h-66v96h177v-274q0 -44 18.5 -65.5t65.5 -21.5q30 0 58.5 15.5t41.5 39.5v210h-84v96h194zM174 537q-70 0 -70 67q0 34 19 51.5t51 17.5q29 0 49 -17.5t20 -51.5t-20 -50.5t-49 -16.5zM368 537
q-70 0 -70 67q0 34 19 51.5t51 17.5q29 0 49 -17.5t20 -51.5t-20 -50.5t-49 -16.5z" />
    <glyph glyph-name="yacute" unicode="&#xfd;" horiz-adv-x="571" 
d="M60 -207v81h125l58 129l-160 356h-76v97h198v-96l92 -230l96 229h-101v97h270v-97h-60l-203 -484q-43 -101 -141 -101q-63 0 -98 19zM292 696h115l-87 -163h-101z" />
    <glyph glyph-name="thorn" unicode="&#xfe;" horiz-adv-x="516" 
d="M270 -216h-260v91l52 14v710h-66v97h177v-282q39 52 116 52q94 0 143 -62t49 -177q0 -114 -48 -176t-144 -62q-75 0 -116 47v-155h97v-97zM365 227q0 64 -23 99t-80 35t-89 -38v-196q33 -33 89 -33q57 0 80 35t23 98z" />
    <glyph glyph-name="ydieresis" unicode="&#xff;" horiz-adv-x="571" 
d="M60 -207v81h125l58 129l-160 356h-76v97h198v-96l92 -230l96 229h-101v97h270v-97h-60l-203 -484q-43 -101 -141 -101q-63 0 -98 19zM189 537q-70 0 -70 67q0 34 19 51.5t51 17.5q29 0 49 -17.5t20 -51.5t-20 -50.5t-49 -16.5zM383 537q-70 0 -70 67q0 34 19 51.5
t51 17.5q29 0 49 -17.5t20 -51.5t-20 -50.5t-49 -16.5z" />
    <glyph glyph-name="Amacron" unicode="&#x100;" horiz-adv-x="693" 
d="M423 0v97h78l-35 103h-239l-37 -103h79v-97h-264v97h58l180 482h-57v97h321v-97h-56l178 -482h58v-97h-264zM254 299h186l-94 259zM197 856h297v-92h-297v92z" />
    <glyph glyph-name="amacron" unicode="&#x101;" horiz-adv-x="491" 
d="M165 360v-65h-98q-15 29 -15 62q0 49 46.5 79t137.5 30q102 0 142.5 -36.5t40.5 -133.5v-177q0 -27 26 -27q15 0 27 3v-95q-28 -6 -65 -6q-84 0 -94 70q-51 -75 -150 -75q-64 0 -100.5 35t-36.5 96q0 71 56 102.5t166 39.5l57 6v92q-23 6 -69 6q-40 0 -71 -6zM145 129
q0 -47 55 -47q59 0 105 42v70l-57 -7q-59 -7 -81 -20t-22 -38zM91 651h297v-92h-297v92z" />
    <glyph glyph-name="Abreve" unicode="&#x102;" horiz-adv-x="693" 
d="M423 0v97h78l-35 103h-239l-37 -103h79v-97h-264v97h58l180 482h-57v97h321v-97h-56l178 -482h58v-97h-264zM254 299h186l-94 259zM422 892h75q0 -66 -40 -108t-113 -42q-70 0 -109 42.5t-39 107.5h73q4 -29 24.5 -48t50.5 -19q32 0 52.5 18.5t25.5 48.5z" />
    <glyph glyph-name="abreve" unicode="&#x103;" horiz-adv-x="491" 
d="M165 360v-65h-98q-15 29 -15 62q0 49 46.5 79t137.5 30q102 0 142.5 -36.5t40.5 -133.5v-177q0 -27 26 -27q15 0 27 3v-95q-28 -6 -65 -6q-84 0 -94 70q-51 -75 -150 -75q-64 0 -100.5 35t-36.5 96q0 71 56 102.5t166 39.5l57 6v92q-23 6 -69 6q-40 0 -71 -6zM145 129
q0 -47 55 -47q59 0 105 42v70l-57 -7q-59 -7 -81 -20t-22 -38zM315 687h75q0 -66 -40 -108t-113 -42q-70 0 -109 42.5t-39 107.5h73q4 -29 24.5 -48t50.5 -19q32 0 52.5 18.5t25.5 48.5z" />
    <glyph glyph-name="Aogonek" unicode="&#x104;" horiz-adv-x="693" 
d="M423 0v97h78l-35 103h-239l-37 -103h79v-97h-264v97h58l180 482h-57v97h321v-97h-56l178 -482h58v-97h-68l-86 -52q-20 -14 -24 -26q-5 -10 -2 -18q1 -18 26 -18q30 0 60 15l2 -80q-36 -18 -83 -18q-58 0 -89.5 21.5t-31.5 62.5q0 54 57 84l54 29h-79zM254 299h186
l-94 259z" />
    <glyph glyph-name="aogonek" unicode="&#x105;" horiz-adv-x="491" 
d="M165 360v-65h-98q-15 29 -15 62q0 49 46.5 79t137.5 30q101 0 142 -36.5t41 -131.5v-179q0 -27 26 -27q3 0 27 3v-95l-86 -52q-29 -18 -29 -38q0 -24 29 -24q30 0 60 15l2 -80q-30 -13 -53 -16q-24 -2 -37 -1q-114 3 -114 83q0 54 56 84l60 32q-41 15 -47 61
q-51 -75 -150 -75q-64 0 -100.5 35t-36.5 96q0 71 56 102.5t166 39.5l57 6v92q-37 6 -85 6q-37 0 -55 -6zM145 129q0 -47 55 -47q59 0 105 42v70l-57 -7q-59 -7 -81 -20t-22 -38z" />
    <glyph glyph-name="Cacute" unicode="&#x106;" horiz-adv-x="598" 
d="M165 340q0 -109 45 -174.5t135 -65.5q100 0 188 44l27 -101q-111 -54 -221 -54q-146 0 -221.5 91.5t-75.5 259.5q0 159 76.5 252.5t226.5 93.5q96 0 211 -46l-8 -218h-105l-2 141q-48 16 -99 16q-91 0 -134 -64t-43 -175zM351 901h115l-87 -163h-101z" />
    <glyph glyph-name="cacute" unicode="&#x107;" horiz-adv-x="457" 
d="M259 93q75 0 142 31l27 -92q-81 -43 -181 -43q-110 0 -162.5 67.5t-52.5 172.5q0 101 57.5 169t163.5 68q81 0 172 -40l-21 -166h-91v102q-24 8 -60 8q-49 0 -74.5 -36t-25.5 -95q0 -146 106 -146zM259 696h115l-87 -163h-101z" />
    <glyph glyph-name="Ccircumflex" unicode="&#x108;" horiz-adv-x="598" 
d="M165 340q0 -109 45 -174.5t135 -65.5q100 0 188 44l27 -101q-111 -54 -221 -54q-146 0 -221.5 91.5t-75.5 259.5q0 159 76.5 252.5t226.5 93.5q96 0 211 -46l-8 -218h-105l-2 141q-48 16 -99 16q-91 0 -134 -64t-43 -175zM261 901h144l85 -163h-101l-56 106l-56 -106
h-102z" />
    <glyph glyph-name="ccircumflex" unicode="&#x109;" horiz-adv-x="457" 
d="M259 93q75 0 142 31l27 -92q-81 -43 -181 -43q-110 0 -162.5 67.5t-52.5 172.5q0 101 57.5 169t163.5 68q81 0 172 -40l-21 -166h-91v102q-24 8 -60 8q-49 0 -74.5 -36t-25.5 -95q0 -146 106 -146zM178 696h144l85 -163h-101l-56 106l-56 -106h-102z" />
    <glyph glyph-name="Cdotaccent" unicode="&#x10a;" horiz-adv-x="598" 
d="M165 340q0 -109 45 -174.5t135 -65.5q100 0 188 44l27 -101q-111 -54 -221 -54q-146 0 -221.5 91.5t-75.5 259.5q0 159 76.5 252.5t226.5 93.5q96 0 211 -46l-8 -218h-105l-2 141q-48 16 -99 16q-91 0 -134 -64t-43 -175zM337 742q-70 0 -70 67q0 35 19 52t51 17
q29 0 49 -17.5t20 -51.5t-20 -50.5t-49 -16.5z" />
    <glyph glyph-name="cdotaccent" unicode="&#x10b;" horiz-adv-x="457" 
d="M259 93q75 0 142 31l27 -92q-81 -43 -181 -43q-110 0 -162.5 67.5t-52.5 172.5q0 101 57.5 169t163.5 68q81 0 172 -40l-21 -166h-91v102q-24 8 -60 8q-49 0 -74.5 -36t-25.5 -95q0 -146 106 -146zM253 537q-70 0 -70 67q0 34 19 51.5t51 17.5q29 0 49 -17.5t20 -51.5
t-20 -50.5t-49 -16.5z" />
    <glyph glyph-name="Ccaron" unicode="&#x10c;" horiz-adv-x="598" 
d="M165 340q0 -109 45 -174.5t135 -65.5q100 0 188 44l27 -101q-111 -54 -221 -54q-146 0 -221.5 91.5t-75.5 259.5q0 159 76.5 252.5t226.5 93.5q96 0 211 -46l-8 -218h-105l-2 141q-48 16 -99 16q-91 0 -134 -64t-43 -175zM403 738h-144l-86 163h102l56 -106l56 106h101z
" />
    <glyph glyph-name="ccaron" unicode="&#x10d;" horiz-adv-x="457" 
d="M259 93q75 0 142 31l27 -92q-81 -43 -181 -43q-110 0 -162.5 67.5t-52.5 172.5q0 101 57.5 169t163.5 68q81 0 172 -40l-21 -166h-91v102q-24 8 -60 8q-49 0 -74.5 -36t-25.5 -95q0 -146 106 -146zM324 533h-144l-86 163h102l56 -106l56 106h101z" />
    <glyph glyph-name="Dcaron" unicode="&#x10e;" horiz-adv-x="675" 
d="M112 97v482h-71v97h239q194 0 271.5 -79t77.5 -259q0 -178 -77.5 -258t-271.5 -80h-239v97h71zM230 97h69q118 0 164.5 55t46.5 188q0 129 -48.5 184t-162.5 55h-69v-482zM382 738h-144l-86 163h102l56 -106l56 106h101z" />
    <glyph glyph-name="dcaron" unicode="&#x10f;" horiz-adv-x="580" 
d="M350 418v181h-86v97h197v-600h66v-96h-78q-38 0 -58.5 19.5t-23.5 48.5q-54 -79 -146 -79q-90 0 -138.5 62.5t-48.5 177.5q0 113 49 175t142 62q83 0 125 -48zM149 229q0 -135 106 -135q61 0 95 40v194q-35 33 -94 33q-107 0 -107 -132zM682 696l-63 -153h-85l25 153h123
z" />
    <glyph glyph-name="Dcroat" unicode="&#x110;" horiz-adv-x="687" 
d="M52 378h71v201h-71v97h240q194 0 271.5 -79t77.5 -259q0 -178 -77.5 -258t-271.5 -80h-240v97h71v212h-71v69zM242 97h68q119 0 165.5 55t46.5 188q0 129 -49 184t-163 55h-68v-201h152v-69h-152v-212z" />
    <glyph glyph-name="dcroat" unicode="&#x111;" horiz-adv-x="544" 
d="M350 418v73h-69v68h69v40h-86v97h197v-137h67v-68h-67v-395h66v-96h-78q-38 0 -58.5 19.5t-23.5 48.5q-54 -79 -146 -79q-90 0 -138.5 62.5t-48.5 177.5q0 113 49 175t142 62q83 0 125 -48zM149 229q0 -135 106 -135q61 0 95 40v194q-35 33 -94 33q-107 0 -107 -132z" />
    <glyph glyph-name="Emacron" unicode="&#x112;" horiz-adv-x="593" 
d="M436 200h113v-200h-508v97h71v482h-71v97h504v-198h-109v101h-207v-190h206v-97h-206v-195h207v103zM161 856h297v-92h-297v92z" />
    <glyph glyph-name="emacron" unicode="&#x113;" horiz-adv-x="468" 
d="M257 88q71 0 137 39l36 -88q-80 -50 -174 -50q-114 0 -168.5 64.5t-54.5 174.5q0 103 54.5 170.5t155.5 67.5q97 0 144.5 -57.5t47.5 -139.5q0 -48 -8 -78h-276q2 -49 28.5 -76t77.5 -27zM152 275h174q1 6 1 14q0 40 -24 62t-60 22q-84 0 -91 -98zM99 651h297v-92h-297
v92z" />
    <glyph glyph-name="Ebreve" unicode="&#x114;" horiz-adv-x="593" 
d="M436 200h113v-200h-508v97h71v482h-71v97h504v-198h-109v101h-207v-190h206v-97h-206v-195h207v103zM385 892h75q0 -66 -40 -108t-113 -42q-70 0 -109 42.5t-39 107.5h73q4 -29 24.5 -48t50.5 -19q32 0 52.5 18.5t25.5 48.5z" />
    <glyph glyph-name="ebreve" unicode="&#x115;" horiz-adv-x="468" 
d="M257 88q71 0 137 39l36 -88q-80 -50 -174 -50q-114 0 -168.5 64.5t-54.5 174.5q0 103 54.5 170.5t155.5 67.5q97 0 144.5 -57.5t47.5 -139.5q0 -48 -8 -78h-276q2 -49 28.5 -76t77.5 -27zM152 275h174q1 6 1 14q0 40 -24 62t-60 22q-84 0 -91 -98zM323 687h75
q0 -66 -40 -108t-113 -42q-70 0 -109 42.5t-39 107.5h73q4 -29 24.5 -48t50.5 -19q32 0 52.5 18.5t25.5 48.5z" />
    <glyph glyph-name="Edotaccent" unicode="&#x116;" horiz-adv-x="593" 
d="M436 200h113v-200h-508v97h71v482h-71v97h504v-198h-109v101h-207v-190h206v-97h-206v-195h207v103zM312 742q-70 0 -70 67q0 35 19 52t51 17q29 0 49 -17.5t20 -51.5t-20 -50.5t-49 -16.5z" />
    <glyph glyph-name="edotaccent" unicode="&#x117;" horiz-adv-x="468" 
d="M257 88q71 0 137 39l36 -88q-80 -50 -174 -50q-114 0 -168.5 64.5t-54.5 174.5q0 103 54.5 170.5t155.5 67.5q97 0 144.5 -57.5t47.5 -139.5q0 -48 -8 -78h-276q2 -49 28.5 -76t77.5 -27zM152 275h174q1 6 1 14q0 40 -24 62t-60 22q-84 0 -91 -98zM250 537q-70 0 -70 67
q0 34 19 51.5t51 17.5q29 0 49 -17.5t20 -51.5t-20 -50.5t-49 -16.5z" />
    <glyph glyph-name="Eogonek" unicode="&#x118;" horiz-adv-x="593" 
d="M440 200h109v-200l-86 -52q-29 -18 -29 -38q0 -24 29 -24t59 15l2 -80q-36 -18 -83 -18q-57 0 -88.5 21.5t-31.5 62.5q0 54 56 84l54 29h-390v97h71v482h-71v97h504v-198h-109v101h-207v-190h206v-97h-206v-195h211v103z" />
    <glyph glyph-name="eogonek" unicode="&#x119;" horiz-adv-x="468" 
d="M257 88q71 0 137 39l36 -88q-15 -9 -48.5 -24.5t-50.5 -25.5l-53 -39q-28 -20 -28 -40q0 -24 29 -24q30 0 60 15l2 -80q-36 -18 -83 -18q-58 0 -89.5 21.5t-31.5 62.5q0 46 56 84l31 20q-98 9 -144.5 71.5t-46.5 165.5t54.5 170.5t155.5 67.5q97 0 144.5 -57.5
t47.5 -139.5q0 -48 -8 -78h-276q2 -49 28.5 -76t77.5 -27zM152 275h174q1 6 1 14q0 40 -24 62t-60 22q-84 0 -91 -98z" />
    <glyph glyph-name="Ecaron" unicode="&#x11a;" horiz-adv-x="593" 
d="M436 200h113v-200h-508v97h71v482h-71v97h504v-198h-109v101h-207v-190h206v-97h-206v-195h207v103zM381 738h-144l-86 163h102l56 -106l56 106h101z" />
    <glyph glyph-name="ecaron" unicode="&#x11b;" horiz-adv-x="468" 
d="M257 88q71 0 137 39l36 -88q-80 -50 -174 -50q-114 0 -168.5 64.5t-54.5 174.5q0 103 54.5 170.5t155.5 67.5q97 0 144.5 -57.5t47.5 -139.5q0 -48 -8 -78h-276q2 -49 28.5 -76t77.5 -27zM152 275h174q1 6 1 14q0 40 -24 62t-60 22q-84 0 -91 -98zM321 533h-144l-86 163
h102l56 -106l56 106h101z" />
    <glyph glyph-name="Gcircumflex" unicode="&#x11c;" horiz-adv-x="656" 
d="M363 686q98 0 219 -39l-8 -200h-105l-2 118q-53 12 -109 12q-98 0 -145 -62.5t-47 -172.5q0 -115 48 -180.5t150 -65.5q77 0 128 16v126h-160v99h272v-301q-112 -47 -244 -47q-154 0 -236 91.5t-82 261.5q0 156 81 250t240 94zM283 901h144l85 -163h-101l-56 106
l-56 -106h-102z" />
    <glyph glyph-name="gcircumflex" unicode="&#x11d;" horiz-adv-x="495" 
d="M489 382l-83 -10q26 -32 26 -91q0 -77 -52.5 -118.5t-139.5 -41.5q-50 0 -79 10l-4 -61h152q73 0 113.5 -32.5t40.5 -95.5q0 -76 -64.5 -122t-175.5 -46q-205 0 -205 119q0 36 24.5 61t52.5 31q-18 9 -28.5 27.5t-10.5 37.5q0 50 56 93q-78 42 -78 144q0 81 53.5 130
t153.5 49q75 0 120 -34q43 65 126 60zM237 205q90 0 90 80q0 39 -22.5 61t-67.5 22q-93 0 -93 -83q0 -80 93 -80zM157 -29q-30 -22 -30 -51q0 -60 100 -60q55 0 87 16.5t32 47.5q0 47 -61 47h-128zM172 696h144l85 -163h-101l-56 106l-56 -106h-102z" />
    <glyph glyph-name="Gbreve" unicode="&#x11e;" horiz-adv-x="656" 
d="M363 686q98 0 219 -39l-8 -200h-105l-2 118q-53 12 -109 12q-98 0 -145 -62.5t-47 -172.5q0 -115 48 -180.5t150 -65.5q77 0 128 16v126h-160v99h272v-301q-112 -47 -244 -47q-154 0 -236 91.5t-82 261.5q0 156 81 250t240 94zM437 892h75q0 -66 -40 -108t-113 -42
q-70 0 -109 42.5t-39 107.5h73q4 -29 24.5 -48t50.5 -19q32 0 52.5 18.5t25.5 48.5z" />
    <glyph glyph-name="gbreve" unicode="&#x11f;" horiz-adv-x="495" 
d="M489 382l-83 -10q26 -32 26 -91q0 -77 -52.5 -118.5t-139.5 -41.5q-50 0 -79 10l-4 -61h152q73 0 113.5 -32.5t40.5 -95.5q0 -76 -64.5 -122t-175.5 -46q-205 0 -205 119q0 36 24.5 61t52.5 31q-18 9 -28.5 27.5t-10.5 37.5q0 50 56 93q-78 42 -78 144q0 81 53.5 130
t153.5 49q75 0 120 -34q43 65 126 60zM237 205q90 0 90 80q0 39 -22.5 61t-67.5 22q-93 0 -93 -83q0 -80 93 -80zM157 -29q-30 -22 -30 -51q0 -60 100 -60q55 0 87 16.5t32 47.5q0 47 -61 47h-128zM319 687h75q0 -66 -40 -108t-113 -42q-70 0 -109 42.5t-39 107.5h73
q4 -29 24.5 -48t50.5 -19q32 0 52.5 18.5t25.5 48.5z" />
    <glyph glyph-name="Gdotaccent" unicode="&#x120;" horiz-adv-x="656" 
d="M363 686q98 0 219 -39l-8 -200h-105l-2 118q-53 12 -109 12q-98 0 -145 -62.5t-47 -172.5q0 -115 48 -180.5t150 -65.5q77 0 128 16v126h-160v99h272v-301q-112 -47 -244 -47q-154 0 -236 91.5t-82 261.5q0 156 81 250t240 94zM365 742q-70 0 -70 67q0 35 19 52t51 17
q29 0 49 -17.5t20 -51.5t-20 -50.5t-49 -16.5z" />
    <glyph glyph-name="gdotaccent" unicode="&#x121;" horiz-adv-x="495" 
d="M489 382l-83 -10q26 -32 26 -91q0 -77 -52.5 -118.5t-139.5 -41.5q-50 0 -79 10l-4 -61h152q73 0 113.5 -32.5t40.5 -95.5q0 -76 -64.5 -122t-175.5 -46q-205 0 -205 119q0 36 24.5 61t52.5 31q-18 9 -28.5 27.5t-10.5 37.5q0 50 56 93q-78 42 -78 144q0 81 53.5 130
t153.5 49q75 0 120 -34q43 65 126 60zM237 205q90 0 90 80q0 39 -22.5 61t-67.5 22q-93 0 -93 -83q0 -80 93 -80zM157 -29q-30 -22 -30 -51q0 -60 100 -60q55 0 87 16.5t32 47.5q0 47 -61 47h-128zM245 537q-70 0 -70 67q0 34 19 51.5t51 17.5q29 0 49 -17.5t20 -51.5
t-20 -50.5t-49 -16.5z" />
    <glyph glyph-name="Gcommaaccent" unicode="&#x122;" horiz-adv-x="656" 
d="M363 686q98 0 219 -39l-8 -200h-105l-2 118q-53 12 -109 12q-98 0 -145 -62.5t-47 -172.5q0 -115 48 -180.5t150 -65.5q77 0 128 16v126h-160v99h272v-301q-112 -47 -244 -47q-154 0 -236 91.5t-82 261.5q0 156 81 250t240 94zM426 -63l-63 -153h-85l25 153h123z" />
    <glyph glyph-name="gcommaaccent" unicode="&#x123;" horiz-adv-x="495" 
d="M489 382l-83 -10q26 -32 26 -91q0 -77 -52.5 -118.5t-139.5 -41.5q-50 0 -79 10l-4 -61h152q73 0 113.5 -32.5t40.5 -95.5q0 -76 -64.5 -122t-175.5 -46q-205 0 -205 119q0 36 24.5 61t52.5 31q-18 9 -28.5 27.5t-10.5 37.5q0 50 56 93q-78 42 -78 144q0 81 53.5 130
t153.5 49q75 0 120 -34q43 65 126 60zM237 205q90 0 90 80q0 39 -22.5 61t-67.5 22q-93 0 -93 -83q0 -80 93 -80zM157 -29q-30 -22 -30 -51q0 -60 100 -60q55 0 87 16.5t32 47.5q0 47 -61 47h-128zM168 553l64 181h88l-26 -181h-126z" />
    <glyph glyph-name="Hcircumflex" unicode="&#x124;" horiz-adv-x="753" 
d="M439 579v97h271v-97h-65v-482h65v-97h-271v97h89v202h-301v-202h89v-97h-273v97h66v482h-66v97h273v-97h-89v-178h301v178h-89zM305 901h144l85 -163h-101l-56 106l-56 -106h-102z" />
    <glyph glyph-name="hcircumflex" unicode="&#x125;" horiz-adv-x="565" 
d="M23 0v96h60v502h-60v98h170v-282q54 52 143 52q154 0 154 -180v-190h59v-96h-236v96h66v178q0 44 -18.5 65.5t-66.5 21.5q-58 0 -101 -34v-231h65v-96h-235zM203 894h144l85 -163h-101l-56 106l-56 -106h-102z" />
    <glyph glyph-name="Hbar" unicode="&#x126;" horiz-adv-x="753" 
d="M439 579v97h271v-97h-65v-61h65v-67h-65v-354h65v-97h-271v97h89v202h-301v-202h89v-97h-273v97h66v354h-66v67h66v61h-66v97h273v-97h-89v-61h301v61h-89zM227 401h301v50h-301v-50z" />
    <glyph glyph-name="hbar" unicode="&#x127;" horiz-adv-x="565" 
d="M23 0v96h60v395h-62v68h62v39h-60v98h170v-137h69v-68h-69v-77q54 52 143 52q154 0 154 -180v-190h59v-96h-236v96h66v178q0 44 -18.5 65.5t-66.5 21.5q-58 0 -101 -34v-231h65v-96h-235z" />
    <glyph glyph-name="Itilde" unicode="&#x128;" horiz-adv-x="349" 
d="M37 0v97h80v482h-80v97h274v-97h-76v-482h76v-97h-274zM322 855l-2 -85q-39 25 -73 25q-25 0 -73 -20.5t-78 -20.5q-43 0 -70 23l2 84q26 -24 68 -24q23 0 68.5 20t82.5 20q39 0 75 -22z" />
    <glyph glyph-name="itilde" unicode="&#x129;" horiz-adv-x="339" 
d="M308 650l-2 -85q-39 25 -73 25q-25 0 -73 -20.5t-78 -20.5q-43 0 -70 23l2 84q25 -24 68 -24q23 0 68.5 20t82.5 20q39 0 75 -22zM31 0v96h96v263h-96v97h207v-360h89v-96h-296z" />
    <glyph glyph-name="Imacron" unicode="&#x12a;" horiz-adv-x="349" 
d="M37 0v97h80v482h-80v97h274v-97h-76v-482h76v-97h-274zM26 856h297v-92h-297v92z" />
    <glyph glyph-name="imacron" unicode="&#x12b;" horiz-adv-x="339" 
d="M21 651h297v-92h-297v92zM31 0v96h96v263h-96v97h207v-360h89v-96h-296z" />
    <glyph glyph-name="Ibreve" unicode="&#x12c;" horiz-adv-x="349" 
d="M37 0v97h80v482h-80v97h274v-97h-76v-482h76v-97h-274zM250 892h75q0 -66 -40 -108t-113 -42q-70 0 -109 42.5t-39 107.5h73q4 -29 24.5 -48t50.5 -19q32 0 52.5 18.5t25.5 48.5z" />
    <glyph glyph-name="ibreve" unicode="&#x12d;" horiz-adv-x="339" 
d="M253 687h75q0 -66 -40 -108t-113 -42q-70 0 -109 42.5t-39 107.5h73q4 -29 24.5 -48t50.5 -19q32 0 52.5 18.5t25.5 48.5zM31 0v96h96v263h-96v97h207v-360h89v-96h-296z" />
    <glyph glyph-name="Iogonek" unicode="&#x12e;" horiz-adv-x="349" 
d="M37 0v97h80v482h-80v97h274v-97h-76v-482h76v-97h-81l-86 -52q-29 -18 -29 -38q0 -24 29 -24q30 0 60 15l2 -80q-36 -18 -83 -18q-58 0 -89.5 21.5t-31.5 62.5q0 54 57 84l54 29h-76z" />
    <glyph glyph-name="iogonek" unicode="&#x12f;" horiz-adv-x="339" 
d="M31 0v96h96v263h-96v97h207v-360h89v-96h-80l-86 -52q-29 -18 -29 -38q0 -24 29 -24t59 15l2 -80q-36 -18 -83 -18q-57 0 -88.5 21.5t-31.5 62.5q0 54 56 84l54 29h-98zM178 547q-70 0 -70 67q0 34 19 51.5t51 17.5q29 0 49 -17.5t20 -51.5t-20 -50.5t-49 -16.5z" />
    <glyph glyph-name="Idotaccent" unicode="&#x130;" horiz-adv-x="349" 
d="M37 0v97h80v482h-80v97h274v-97h-76v-482h76v-97h-274zM175 742q-70 0 -70 67q0 35 19 52t51 17q29 0 49 -17.5t20 -51.5t-20 -50.5t-49 -16.5z" />
    <glyph glyph-name="dotlessi" unicode="&#x131;" horiz-adv-x="339" 
d="M31 0v96h96v263h-96v97h207v-360h89v-96h-296z" />
    <glyph glyph-name="IJ" unicode="&#x132;" horiz-adv-x="667" 
d="M37 0v97h80v482h-80v97h274v-97h-76v-482h76v-97h-274zM364 579v97h271v-97h-66v-553q0 -170 -139 -253l-71 78q47 33 70.5 69.5t23.5 94.5v564h-89z" />
    <glyph glyph-name="ij" unicode="&#x133;" horiz-adv-x="601" 
d="M31 0v96h96v263h-96v97h207v-360h89v-96h-296zM178 547q-70 0 -70 67q0 34 19 51.5t51 17.5q29 0 49 -17.5t20 -51.5t-20 -50.5t-49 -16.5zM414 -226l-67 79q41 25 61 54t20 72v380h-80v97h191v-463q0 -153 -125 -219zM478 547q-71 0 -71 67q0 34 19.5 51.5t51.5 17.5
q29 0 49 -17.5t20 -51.5t-20 -50.5t-49 -16.5z" />
    <glyph glyph-name="Jcircumflex" unicode="&#x134;" horiz-adv-x="318" 
d="M15 579v97h271v-97h-66v-553q0 -170 -139 -253l-71 78q47 33 70.5 69.5t23.5 94.5v564h-89zM78 901h144l85 -163h-101l-56 106l-56 -106h-102z" />
    <glyph glyph-name="jcircumflex" unicode="&#x135;" horiz-adv-x="268" 
d="M68 696h144l85 -163h-101l-56 106l-56 -106h-102zM81 -226l-67 79q41 25 61 54t20 72v380h-80v97h191v-463q0 -153 -125 -219z" />
    <glyph glyph-name="Kcommaaccent" unicode="&#x136;" horiz-adv-x="665" 
d="M242 351l198 228h-72v97h273v-97h-74l-191 -226l202 -256h72v-97h-281v97h74zM229 579v-482h64v-97h-252v97h70v482h-70v97h252v-97h-64zM411 -63l-63 -153h-85l25 153h123z" />
    <glyph glyph-name="kcommaaccent" unicode="&#x137;" horiz-adv-x="568" 
d="M342 0v94l-77 115l-71 -57v-56h80v-96h-256v96h66v503h-66v97h176v-457l152 120h-71v97h258v-97h-70l-117 -95l117 -168h85v-96h-206zM349 -63l-63 -153h-85l25 153h123z" />
    <glyph glyph-name="kgreenlandic" unicode="&#x138;" horiz-adv-x="585" 
d="M359 0v94l-77 115l-70 -57v-56h80v-96h-256v96h66v263h-67v97h177v-217l152 120h-71v97h257v-97h-70l-116 -95l116 -168h86v-96h-207z" />
    <glyph glyph-name="Lacute" unicode="&#x139;" horiz-adv-x="537" 
d="M409 229h106v-229h-473v97h68v482h-68v97h262v-97h-76v-482h181v132zM190 901h115l-87 -163h-101z" />
    <glyph glyph-name="lacute" unicode="&#x13a;" horiz-adv-x="262" 
d="M59 129v470h-74v97h184v-552q0 -28 9 -39t31 -11q20 0 43 5l2 -97q-36 -13 -82 -13q-63 0 -88 36t-25 104zM132 894h115l-87 -163h-101z" />
    <glyph glyph-name="Lcommaaccent" unicode="&#x13b;" horiz-adv-x="536" 
d="M409 229h106v-229h-473v97h68v482h-68v97h262v-97h-76v-482h181v132zM331 -63l-63 -153h-85l25 153h123z" />
    <glyph glyph-name="lcommaaccent" unicode="&#x13c;" horiz-adv-x="262" 
d="M59 129v470h-74v97h184v-552q0 -28 9 -39t31 -11q20 0 43 5l2 -97q-36 -13 -82 -13q-63 0 -88 36t-25 104zM210 -63l-63 -153h-85l25 153h123z" />
    <glyph glyph-name="Lcaron" unicode="&#x13d;" horiz-adv-x="542" 
d="M409 229h106v-229h-473v97h68v482h-68v97h262v-97h-76v-482h181v132zM532 676l-63 -153h-85l25 153h123z" />
    <glyph glyph-name="lcaron" unicode="&#x13e;" horiz-adv-x="297" 
d="M59 129v470h-74v97h184v-552q0 -28 9 -39t31 -11q20 0 43 5l2 -97q-36 -13 -82 -13q-63 0 -88 36t-25 104zM390 696l-63 -153h-85l25 153h123z" />
    <glyph glyph-name="Ldot" unicode="&#x13f;" horiz-adv-x="537" 
d="M409 229h106v-229h-473v97h68v482h-68v97h262v-97h-76v-482h181v132zM396 307q-33 0 -54.5 20.5t-21.5 51.5q0 32 21.5 52.5t54.5 20.5t54.5 -20.5t21.5 -52.5q0 -31 -21.5 -51.5t-54.5 -20.5z" />
    <glyph glyph-name="ldot" unicode="&#x140;" horiz-adv-x="369" 
d="M59 129v470h-74v97h184v-552q0 -28 9 -39t31 -11q20 0 43 5l2 -97q-36 -13 -82 -13q-63 0 -88 36t-25 104zM299 290q-33 0 -54.5 20.5t-21.5 51.5q0 32 21.5 52.5t54.5 20.5t54.5 -20.5t21.5 -52.5q0 -31 -21.5 -51.5t-54.5 -20.5z" />
    <glyph glyph-name="Lslash" unicode="&#x141;" horiz-adv-x="544" 
d="M416 229h107v-229h-474v97h69v160l-70 -28v69l70 28v253h-69v97h263v-97h-76v-206l76 31v-69l-76 -31v-207h180v132z" />
    <glyph glyph-name="lslash" unicode="&#x142;" horiz-adv-x="269" 
d="M3 265v84l62 32v218h-74v97h184v-258l65 34v-84l-65 -34v-210q0 -28 9 -39t31 -11q20 0 43 5l2 -97q-36 -13 -82 -13q-63 0 -88 36t-25 104v168z" />
    <glyph glyph-name="Nacute" unicode="&#x143;" horiz-adv-x="746" 
d="M434 579v97h281v-97h-67v-579h-130l-291 487v-390h105v-97h-289v97h66v482h-66v97h201l286 -486v389h-96zM383 901h115l-87 -163h-101z" />
    <glyph glyph-name="nacute" unicode="&#x144;" horiz-adv-x="576" 
d="M36 0v96h59v263h-57v97h156v-54q53 64 154 64q154 0 154 -180v-190h58v-96h-235v96h66v178q0 44 -19 65.5t-67 21.5q-56 0 -99 -34v-231h64v-96h-234zM307 696h115l-87 -163h-101z" />
    <glyph glyph-name="Ncommaaccent" unicode="&#x145;" horiz-adv-x="746" 
d="M434 579v97h281v-97h-67v-579h-130l-291 487v-390h105v-97h-289v97h66v482h-66v97h201l286 -486v389h-96zM433 -63l-63 -153h-85l25 153h123z" />
    <glyph glyph-name="ncommaaccent" unicode="&#x146;" horiz-adv-x="577" 
d="M36 0v96h59v263h-57v97h156v-54q53 64 154 64q154 0 154 -180v-190h58v-96h-235v96h66v178q0 44 -19 65.5t-67 21.5q-56 0 -99 -34v-231h64v-96h-234zM359 -63l-63 -153h-85l25 153h123z" />
    <glyph glyph-name="Ncaron" unicode="&#x147;" horiz-adv-x="746" 
d="M434 579v97h281v-97h-67v-579h-130l-291 487v-390h105v-97h-289v97h66v482h-66v97h201l286 -486v389h-96zM449 738h-144l-86 163h102l56 -106l56 106h101z" />
    <glyph glyph-name="ncaron" unicode="&#x148;" horiz-adv-x="576" 
d="M36 0v96h59v263h-57v97h156v-54q53 64 154 64q154 0 154 -180v-190h58v-96h-235v96h66v178q0 44 -19 65.5t-67 21.5q-56 0 -99 -34v-231h64v-96h-234zM363 533h-144l-86 163h102l56 -106l56 106h101z" />
    <glyph glyph-name="napostrophe" unicode="&#x149;" horiz-adv-x="576" 
d="M36 0v96h59v263h-57v97h156v-54q53 64 154 64q154 0 154 -180v-190h58v-96h-235v96h66v178q0 44 -19 65.5t-67 21.5q-56 0 -99 -34v-231h64v-96h-234zM108 696l-63 -153h-85l25 153h123z" />
    <glyph glyph-name="Eng" unicode="&#x14a;" horiz-adv-x="747" 
d="M529 -7l-301 503v-399h107v-97h-293v97h68v482h-68v97h193l296 -498v401h-99v97h285v-97h-68v-587q0 -151 -126 -218l-77 78q83 52 83 141z" />
    <glyph glyph-name="eng" unicode="&#x14b;" horiz-adv-x="558" 
d="M502 286v-293q0 -151 -126 -219l-67 79q42 25 62 54t20 72v295q0 44 -19 65.5t-67 21.5q-56 0 -99 -34v-231h64v-96h-234v96h59v263h-57v97h156v-54q53 64 154 64q154 0 154 -180z" />
    <glyph glyph-name="Omacron" unicode="&#x14c;" horiz-adv-x="654" 
d="M170 337q0 -118 34.5 -180.5t122.5 -62.5t122 62.5t34 180.5t-34.5 181t-120.5 63q-87 0 -122.5 -63t-35.5 -181zM611 337q0 -160 -68.5 -254t-217.5 -94q-76 0 -131.5 26t-88 74t-47.5 109.5t-15 138.5q0 78 15 139.5t47.5 110t88.5 74.5t133 26q149 0 216.5 -94.5
t67.5 -255.5zM178 856h297v-92h-297v92z" />
    <glyph glyph-name="omacron" unicode="&#x14d;" horiz-adv-x="502" 
d="M253 466q112 0 164 -63t52 -174q0 -240 -220 -240q-111 0 -163.5 64t-52.5 174q0 239 220 239zM252 92q55 0 77.5 32t22.5 103q0 72 -22.5 104t-79.5 32q-54 0 -77 -32t-23 -102q0 -72 23.5 -104.5t78.5 -32.5zM103 651h297v-92h-297v92z" />
    <glyph glyph-name="Obreve" unicode="&#x14e;" horiz-adv-x="654" 
d="M170 337q0 -118 34.5 -180.5t122.5 -62.5t122 62.5t34 180.5t-34.5 181t-120.5 63q-87 0 -122.5 -63t-35.5 -181zM611 337q0 -160 -68.5 -254t-217.5 -94q-76 0 -131.5 26t-88 74t-47.5 109.5t-15 138.5q0 78 15 139.5t47.5 110t88.5 74.5t133 26q149 0 216.5 -94.5
t67.5 -255.5zM402 892h75q0 -66 -40 -108t-113 -42q-70 0 -109 42.5t-39 107.5h73q4 -29 24.5 -48t50.5 -19q32 0 52.5 18.5t25.5 48.5z" />
    <glyph glyph-name="obreve" unicode="&#x14f;" horiz-adv-x="502" 
d="M253 466q112 0 164 -63t52 -174q0 -240 -220 -240q-111 0 -163.5 64t-52.5 174q0 239 220 239zM252 92q55 0 77.5 32t22.5 103q0 72 -22.5 104t-79.5 32q-54 0 -77 -32t-23 -102q0 -72 23.5 -104.5t78.5 -32.5zM327 687h75q0 -66 -40 -108t-113 -42q-70 0 -109 42.5
t-39 107.5h73q4 -29 24.5 -48t50.5 -19q32 0 52.5 18.5t25.5 48.5z" />
    <glyph glyph-name="Ohungarumlaut" unicode="&#x150;" horiz-adv-x="654" 
d="M170 337q0 -118 34.5 -180.5t122.5 -62.5t122 62.5t34 180.5t-34.5 181t-120.5 63q-87 0 -122.5 -63t-35.5 -181zM611 337q0 -160 -68.5 -254t-217.5 -94q-76 0 -131.5 26t-88 74t-47.5 109.5t-15 138.5q0 78 15 139.5t47.5 110t88.5 74.5t133 26q149 0 216.5 -94.5
t67.5 -255.5zM257 901h115l-87 -163h-101zM435 901h115l-87 -163h-101z" />
    <glyph glyph-name="ohungarumlaut" unicode="&#x151;" horiz-adv-x="502" 
d="M253 466q112 0 164 -63t52 -174q0 -240 -220 -240q-111 0 -163.5 64t-52.5 174q0 239 220 239zM252 92q55 0 77.5 32t22.5 103q0 72 -22.5 104t-79.5 32q-54 0 -77 -32t-23 -102q0 -72 23.5 -104.5t78.5 -32.5zM172 696h115l-87 -163h-101zM350 696h115l-87 -163h-101z
" />
    <glyph glyph-name="OE" unicode="&#x152;" horiz-adv-x="895" 
d="M742 200h108v-200h-426q-42 -11 -98 -11q-282 0 -282 348q0 350 284 350q47 0 98 -11h421v-198h-109v101h-207v-190h206v-97h-206v-195h211v103zM171 337q0 -119 34.5 -181t122.5 -62q56 0 85 15v456q-36 16 -84 16q-87 0 -122.5 -62.5t-35.5 -181.5z" />
    <glyph glyph-name="oe" unicode="&#x153;" horiz-adv-x="787" 
d="M577 88q70 -1 136 39l37 -88q-79 -50 -185 -50q-99 0 -155 69q-57 -69 -161 -69q-111 0 -163.5 64t-52.5 174q0 239 220 239q106 0 161 -68q56 68 149 68q96 0 144 -57.5t48 -139.5q0 -40 -8 -78h-275q2 -49 28 -76t77 -27zM252 92q55 0 77.5 32t22.5 103q0 72 -22.5 104
t-79.5 32q-54 0 -77 -32t-23 -102q0 -72 23.5 -104.5t78.5 -32.5zM473 275h172q1 6 1 14q0 40 -23.5 62t-59.5 22q-85 0 -90 -98z" />
    <glyph glyph-name="Racute" unicode="&#x154;" horiz-adv-x="654" 
d="M111 97v482h-70v97h302q125 0 182.5 -49t57.5 -145q0 -138 -143 -178q42 -32 77.5 -93t50.5 -114h78v-97h-267v97h61q-9 43 -46.5 105.5t-76.5 88.5h-88v-194h67v-97h-254v97h69zM462 481q0 98 -119 98h-114v-194h106q127 0 127 96zM307 901h115l-87 -163h-101z" />
    <glyph glyph-name="racute" unicode="&#x155;" horiz-adv-x="415" 
d="M35 359v97h169v-99q12 37 49.5 73t79.5 36q37 0 70 -5l-9 -128l-81 15q-69 -5 -101 -60v-192h101v-96h-278v87l66 18v254h-66zM203 696h115l-87 -163h-101z" />
    <glyph glyph-name="Rcommaaccent" unicode="&#x156;" horiz-adv-x="654" 
d="M111 97v482h-70v97h302q125 0 182.5 -49t57.5 -145q0 -138 -143 -178q42 -32 77.5 -93t50.5 -114h78v-97h-267v97h61q-9 43 -46.5 105.5t-76.5 88.5h-88v-194h67v-97h-254v97h69zM462 481q0 98 -119 98h-114v-194h106q127 0 127 96zM395 -63l-63 -153h-85l25 153h123z
" />
    <glyph glyph-name="rcommaaccent" unicode="&#x157;" horiz-adv-x="415" 
d="M35 359v97h169v-99q12 37 49.5 73t79.5 36q37 0 70 -5l-9 -128l-81 15q-69 -5 -101 -60v-192h101v-96h-278v87l66 18v254h-66zM232 -63l-63 -153h-85l25 153h123z" />
    <glyph glyph-name="Rcaron" unicode="&#x158;" horiz-adv-x="654" 
d="M111 97v482h-70v97h302q125 0 182.5 -49t57.5 -145q0 -138 -143 -178q42 -32 77.5 -93t50.5 -114h78v-97h-267v97h61q-9 43 -46.5 105.5t-76.5 88.5h-88v-194h67v-97h-254v97h69zM462 481q0 98 -119 98h-114v-194h106q127 0 127 96zM371 738h-144l-86 163h102l56 -106
l56 106h101z" />
    <glyph glyph-name="rcaron" unicode="&#x159;" horiz-adv-x="415" 
d="M35 359v97h169v-99q12 37 49.5 73t79.5 36q37 0 70 -5l-9 -128l-81 15q-69 -5 -101 -60v-192h101v-96h-278v87l66 18v254h-66zM286 533h-144l-86 163h102l56 -106l56 106h101z" />
    <glyph glyph-name="Sacute" unicode="&#x15a;" horiz-adv-x="546" 
d="M484 639v-176h-100l-18 114q-44 13 -88 13q-47 0 -73 -26t-26 -64q0 -61 68 -86l98 -35q89 -32 125.5 -78.5t36.5 -118.5q0 -76 -59.5 -134.5t-172.5 -58.5q-127 0 -223 47l-8 182h100l26 -117q38 -18 104 -18q49 0 77.5 24.5t28.5 64.5q0 64 -66 88l-106 38
q-85 31 -120 77t-35 120q0 76 56 134t169 58q110 0 206 -48zM281 901h115l-87 -163h-101z" />
    <glyph glyph-name="sacute" unicode="&#x15b;" horiz-adv-x="437" 
d="M387 437v-123h-88l-13 61q-28 11 -63 11q-28 0 -43 -14t-15 -34q0 -35 42 -49l72 -22q64 -20 94.5 -53t30.5 -85q0 -59 -45.5 -99.5t-143.5 -40.5q-96 0 -172 31l-8 130h88l20 -68q28 -14 71 -14q30 0 47 12.5t17 35.5q0 34 -44 49l-76 24q-117 36 -117 136q0 57 43 99
t139 42q97 0 164 -29zM241 696h115l-87 -163h-101z" />
    <glyph glyph-name="Scircumflex" unicode="&#x15c;" horiz-adv-x="546" 
d="M484 639v-176h-100l-18 114q-44 13 -88 13q-47 0 -73 -26t-26 -64q0 -61 68 -86l98 -35q89 -32 125.5 -78.5t36.5 -118.5q0 -76 -59.5 -134.5t-172.5 -58.5q-127 0 -223 47l-8 182h100l26 -117q38 -18 104 -18q49 0 77.5 24.5t28.5 64.5q0 64 -66 88l-106 38
q-85 31 -120 77t-35 120q0 76 56 134t169 58q110 0 206 -48zM205 901h144l85 -163h-101l-56 106l-56 -106h-102z" />
    <glyph glyph-name="scircumflex" unicode="&#x15d;" horiz-adv-x="437" 
d="M387 437v-123h-88l-13 61q-28 11 -63 11q-28 0 -43 -14t-15 -34q0 -35 42 -49l72 -22q64 -20 94.5 -53t30.5 -85q0 -59 -45.5 -99.5t-143.5 -40.5q-96 0 -172 31l-8 130h88l20 -68q28 -14 71 -14q30 0 47 12.5t17 35.5q0 34 -44 49l-76 24q-117 36 -117 136q0 57 43 99
t139 42q97 0 164 -29zM149 696h144l85 -163h-101l-56 106l-56 -106h-102z" />
    <glyph glyph-name="Scedilla" unicode="&#x15e;" horiz-adv-x="546" 
d="M483 639v-176h-99l-18 114q-44 13 -89 13q-46 0 -72.5 -26t-26.5 -64q0 -61 69 -86l98 -35q89 -31 125.5 -78t36.5 -119t-54 -129t-158 -63l-18 -45q12 4 33 4q30 0 52 -19.5t22 -50.5q0 -37 -28.5 -58t-83.5 -21q-43 0 -102 23l10 51q49 -25 85 -25q38 0 38 31
q0 12 -8 20.5t-22 8.5q-17 0 -28 -9q-29 11 -41 16l29 75q-103 6 -181 45l-8 182h100l26 -117q38 -18 104 -18q49 0 77.5 24.5t28.5 64.5q0 64 -66 88l-106 38q-85 31 -120 77t-35 120q0 76 55.5 134t168.5 58q112 0 206 -48z" />
    <glyph glyph-name="scedilla" unicode="&#x15f;" horiz-adv-x="437" 
d="M387 437v-123h-88l-13 61q-28 11 -63 11q-28 0 -43 -14t-15 -34q0 -35 42 -49l72 -22q64 -20 94.5 -53t30.5 -85q0 -56 -40 -95t-127 -44l-18 -45q12 4 33 4q30 0 52 -19.5t22 -50.5q0 -37 -28.5 -58t-83.5 -21q-43 0 -102 23l10 51q49 -25 85 -25q38 0 38 31
q0 12 -8 20.5t-22 8.5q-17 0 -28 -9q-29 11 -41 16l29 74q-73 6 -132 30l-8 130h88l20 -68q28 -14 71 -14q30 0 47 12.5t17 35.5q0 34 -44 49l-76 24q-117 36 -117 136q0 57 43 99t139 42q97 0 164 -29z" />
    <glyph glyph-name="Scaron" unicode="&#x160;" horiz-adv-x="546" 
d="M484 639v-176h-100l-18 114q-44 13 -88 13q-47 0 -73 -26t-26 -64q0 -61 68 -86l98 -35q89 -32 125.5 -78.5t36.5 -118.5q0 -76 -59.5 -134.5t-172.5 -58.5q-127 0 -223 47l-8 182h100l26 -117q38 -18 104 -18q49 0 77.5 24.5t28.5 64.5q0 64 -66 88l-106 38
q-85 31 -120 77t-35 120q0 76 56 134t169 58q110 0 206 -48zM350 738h-144l-86 163h102l56 -106l56 106h101z" />
    <glyph glyph-name="scaron" unicode="&#x161;" horiz-adv-x="437" 
d="M387 437v-123h-88l-13 61q-28 11 -63 11q-28 0 -43 -14t-15 -34q0 -35 42 -49l72 -22q64 -20 94.5 -53t30.5 -85q0 -59 -45.5 -99.5t-143.5 -40.5q-96 0 -172 31l-8 130h88l20 -68q28 -14 71 -14q30 0 47 12.5t17 35.5q0 34 -44 49l-76 24q-117 36 -117 136q0 57 43 99
t139 42q97 0 164 -29zM293 533h-144l-86 163h102l56 -106l56 106h101z" />
    <glyph glyph-name="Tcommaaccent" unicode="&#x162;" horiz-adv-x="581" 
d="M22 676h539v-205h-99v108h-116v-482h92v-97h-131l-21 -54q12 4 32 4q30 0 52 -19.5t22 -50.5q0 -37 -28.5 -58t-83.5 -21q-41 0 -102 23l10 51q49 -25 85 -25q38 0 38 31q0 29 -30 29q-17 0 -28 -9q-28 11 -40 16l32 83h-109v97h94v482h-110v-108h-98v205z" />
    <glyph glyph-name="tcommaaccent" unicode="&#x163;" horiz-adv-x="348" 
d="M207 359v-212q0 -53 52 -53q32 0 69 7l3 -98q-38 -12 -97 -14l-17 -44q12 4 32 4q30 0 52 -19.5t22 -50.5q0 -37 -28 -58t-83 -21q-43 0 -102 23l9 51q50 -25 85 -25q38 0 38 31q0 29 -30 29q-14 0 -28 -9q-28 11 -40 16l31 81q-79 24 -79 134v228h-84v87l84 10v112
l111 18v-130h108v-97h-108z" />
    <glyph glyph-name="Tcaron" unicode="&#x164;" horiz-adv-x="581" 
d="M22 676h539v-205h-99v108h-116v-482h92v-97h-302v97h94v482h-110v-108h-98v205zM364 738h-144l-86 163h102l56 -106l56 106h101z" />
    <glyph glyph-name="tcaron" unicode="&#x165;" horiz-adv-x="348" 
d="M206 359v-212q0 -53 52 -53q32 0 69 7l3 -98q-42 -14 -106 -14q-66 0 -97.5 38.5t-31.5 103.5v228h-83v87l83 10v112l111 18v-130h108v-97h-108zM466 696l-63 -153h-85l25 153h123z" />
    <glyph glyph-name="Tbar" unicode="&#x166;" horiz-adv-x="581" 
d="M140 364h90v215h-110v-108h-98v205h539v-205h-99v108h-116v-215h91v-92h-91v-175h92v-97h-302v97h94v175h-90v92z" />
    <glyph glyph-name="tbar" unicode="&#x167;" horiz-adv-x="349" 
d="M208 359v-84h73v-68h-73v-60q0 -53 52 -53q32 0 69 7l2 -98q-40 -14 -106 -14t-97 38.5t-31 103.5v76h-63v68h63v84h-84v87l84 10v112l111 18v-130h108v-97h-108z" />
    <glyph glyph-name="Utilde" unicode="&#x168;" horiz-adv-x="684" 
d="M341 -10q-117 0 -185.5 63.5t-68.5 200.5v325h-65v97h270v-97h-88v-326q0 -83 35 -120.5t103 -37.5q138 0 138 158v326h-87v97h268v-97h-65v-325q0 -137 -68.5 -200.5t-186.5 -63.5zM489 855l-2 -85q-39 25 -73 25q-25 0 -73 -20.5t-78 -20.5q-43 0 -70 23l2 84
q25 -24 68 -24q23 0 68.5 20t82.5 20q39 0 75 -22z" />
    <glyph glyph-name="utilde" unicode="&#x169;" horiz-adv-x="570" 
d="M485 456v-359h68v-97h-156v80q-54 -90 -169 -90q-148 0 -148 180v190h-66v96h177v-274q0 -44 18.5 -65.5t65.5 -21.5q30 0 58.5 15.5t41.5 39.5v210h-84v96h194zM431 650l-2 -85q-39 25 -73 25q-25 0 -73 -20.5t-78 -20.5q-43 0 -70 23l2 84q26 -24 68 -24q23 0 68.5 20
t82.5 20q39 0 75 -22z" />
    <glyph glyph-name="Umacron" unicode="&#x16a;" horiz-adv-x="684" 
d="M341 -10q-117 0 -185.5 63.5t-68.5 200.5v325h-65v97h270v-97h-88v-326q0 -83 35 -120.5t103 -37.5q138 0 138 158v326h-87v97h268v-97h-65v-325q0 -137 -68.5 -200.5t-186.5 -63.5zM193 856h297v-92h-297v92z" />
    <glyph glyph-name="umacron" unicode="&#x16b;" horiz-adv-x="570" 
d="M485 456v-359h68v-97h-156v80q-54 -90 -169 -90q-148 0 -148 180v190h-66v96h177v-274q0 -44 18.5 -65.5t65.5 -21.5q30 0 58.5 15.5t41.5 39.5v210h-84v96h194zM129 651h297v-92h-297v92z" />
    <glyph glyph-name="Ubreve" unicode="&#x16c;" horiz-adv-x="684" 
d="M341 -10q-117 0 -185.5 63.5t-68.5 200.5v325h-65v97h270v-97h-88v-326q0 -83 35 -120.5t103 -37.5q138 0 138 158v326h-87v97h268v-97h-65v-325q0 -137 -68.5 -200.5t-186.5 -63.5zM417 892h75q0 -66 -40 -108t-113 -42q-70 0 -109 42.5t-39 107.5h73q4 -29 24.5 -48
t50.5 -19q32 0 52.5 18.5t25.5 48.5z" />
    <glyph glyph-name="ubreve" unicode="&#x16d;" horiz-adv-x="570" 
d="M485 456v-359h68v-97h-156v80q-54 -90 -169 -90q-148 0 -148 180v190h-66v96h177v-274q0 -44 18.5 -65.5t65.5 -21.5q30 0 58.5 15.5t41.5 39.5v210h-84v96h194zM355 687h75q0 -66 -40 -108t-113 -42q-70 0 -109 42.5t-39 107.5h73q4 -29 24.5 -48t50.5 -19
q32 0 52.5 18.5t25.5 48.5z" />
    <glyph glyph-name="Uring" unicode="&#x16e;" horiz-adv-x="684" 
d="M341 -10q-117 0 -185.5 63.5t-68.5 200.5v325h-65v97h270v-97h-88v-326q0 -83 35 -120.5t103 -37.5q138 0 138 158v326h-87v97h268v-97h-65v-325q0 -137 -68.5 -200.5t-186.5 -63.5zM233 824q0 42 28 71.5t78 29.5q53 0 82 -29.5t29 -71.5q0 -40 -29.5 -69t-81.5 -29
q-50 0 -78 29t-28 69zM298 824q0 -16 11 -27.5t30 -11.5q21 0 33 11.5t12 27.5q0 18 -12 30t-33 12q-19 0 -30 -12t-11 -30z" />
    <glyph glyph-name="uring" unicode="&#x16f;" horiz-adv-x="570" 
d="M485 456v-359h68v-97h-156v80q-54 -90 -169 -90q-148 0 -148 180v190h-66v96h177v-274q0 -44 18.5 -65.5t65.5 -21.5q30 0 58.5 15.5t41.5 39.5v210h-84v96h194zM162 619q0 42 28 71.5t78 29.5q53 0 82 -29.5t29 -71.5q0 -40 -29.5 -69t-81.5 -29q-50 0 -78 29t-28 69z
M227 619q0 -16 11 -27.5t30 -11.5q21 0 33 11.5t12 27.5q0 18 -12 30t-33 12q-19 0 -30 -12t-11 -30z" />
    <glyph glyph-name="Uhungarumlaut" unicode="&#x170;" horiz-adv-x="684" 
d="M341 -10q-117 0 -185.5 63.5t-68.5 200.5v325h-65v97h270v-97h-88v-326q0 -83 35 -120.5t103 -37.5q138 0 138 158v326h-87v97h268v-97h-65v-325q0 -137 -68.5 -200.5t-186.5 -63.5zM273 901h115l-87 -163h-101zM451 901h115l-87 -163h-101z" />
    <glyph glyph-name="uhungarumlaut" unicode="&#x171;" horiz-adv-x="570" 
d="M485 456v-359h68v-97h-156v80q-54 -90 -169 -90q-148 0 -148 180v190h-66v96h177v-274q0 -44 18.5 -65.5t65.5 -21.5q30 0 58.5 15.5t41.5 39.5v210h-84v96h194zM204 696h115l-87 -163h-101zM382 696h115l-87 -163h-101z" />
    <glyph glyph-name="Uogonek" unicode="&#x172;" horiz-adv-x="683" 
d="M218 -112q0 50 56 84l33 19q-220 19 -220 263v325h-65v97h270v-97h-88v-326q0 -83 34.5 -120.5t102.5 -37.5q139 0 139 158v326h-87v97h268v-97h-65v-325q0 -199 -151 -248l-85 -57q-29 -22 -29 -39q0 -11 8.5 -17.5t20.5 -6.5q28 0 60 16l2 -80q-38 -19 -83 -19
q-57 0 -89 22t-32 63z" />
    <glyph glyph-name="uogonek" unicode="&#x173;" horiz-adv-x="570" 
d="M485 456v-359h68v-97l-86 -52q-29 -18 -29 -38q0 -24 29 -24t59 15l3 -80q-36 -18 -84 -18q-57 0 -88.5 21.5t-31.5 62.5q0 54 56 84l54 29h-38v80q-54 -90 -169 -90q-148 0 -148 180v190h-66v96h177v-274q0 -44 18.5 -65.5t65.5 -21.5q30 0 58.5 15.5t41.5 39.5v210h-84
v96h194z" />
    <glyph glyph-name="Wcircumflex" unicode="&#x174;" horiz-adv-x="980" 
d="M685 579v97h287v-97h-64l-144 -579h-144l-130 401l-128 -401h-145l-146 579h-65v97h268v-97h-80l102 -458l139 420l-49 135h137l164 -555l103 458h-105zM417 901h144l85 -163h-101l-56 106l-56 -106h-102z" />
    <glyph glyph-name="wcircumflex" unicode="&#x175;" horiz-adv-x="785" 
d="M537 359v97h238v-97h-54l-105 -359h-129l-91 242l-99 -242h-125l-111 359h-51v97h238v-97h-71l68 -254l98 246l-36 105h115l122 -349l64 252h-71zM321 696h144l85 -163h-101l-56 106l-56 -106h-102z" />
    <glyph glyph-name="Ycircumflex" unicode="&#x176;" horiz-adv-x="639" 
d="M5 579v97h270v-97h-81l127 -217l129 217h-82v97h271v-97h-65l-195 -315v-167h81v-97h-287v97h87v167l-190 315h-65zM250 901h144l85 -163h-101l-56 106l-56 -106h-102z" />
    <glyph glyph-name="ycircumflex" unicode="&#x177;" horiz-adv-x="571" 
d="M60 -207v81h125l58 129l-160 356h-76v97h198v-96l92 -230l96 229h-101v97h270v-97h-60l-203 -484q-43 -101 -141 -101q-63 0 -98 19zM214 696h144l85 -163h-101l-56 106l-56 -106h-102z" />
    <glyph glyph-name="Ydieresis" unicode="&#x178;" horiz-adv-x="639" 
d="M5 579v97h270v-97h-81l127 -217l129 217h-82v97h271v-97h-65l-195 -315v-167h81v-97h-287v97h87v167l-190 315h-65zM225 742q-70 0 -70 67q0 35 19 52t51 17q29 0 49 -17.5t20 -51.5t-20 -50.5t-49 -16.5zM419 742q-70 0 -70 67q0 35 19 52t51 17q29 0 49 -17.5t20 -51.5
t-20 -50.5t-49 -16.5z" />
    <glyph glyph-name="Zacute" unicode="&#x179;" horiz-adv-x="589" 
d="M538 676v-89l-349 -490h243v153h108v-250h-498v88l348 490h-232v-116h-107v214h487zM308 901h115l-87 -163h-101z" />
    <glyph glyph-name="zacute" unicode="&#x17a;" horiz-adv-x="455" 
d="M410 456v-76l-229 -296h144l10 82h83v-166h-384v76l230 296h-126l-9 -77h-86v161h367zM233 696h115l-87 -163h-101z" />
    <glyph glyph-name="Zdotaccent" unicode="&#x17b;" horiz-adv-x="589" 
d="M538 676v-89l-349 -490h243v153h108v-250h-498v88l348 490h-232v-116h-107v214h487zM293 742q-70 0 -70 67q0 35 19 52t51 17q29 0 49 -17.5t20 -51.5t-20 -50.5t-49 -16.5z" />
    <glyph glyph-name="zdotaccent" unicode="&#x17c;" horiz-adv-x="455" 
d="M410 456v-76l-229 -296h144l10 82h83v-166h-384v76l230 296h-126l-9 -77h-86v161h367zM227 537q-70 0 -70 67q0 34 19 51.5t51 17.5q29 0 49 -17.5t20 -51.5t-20 -50.5t-49 -16.5z" />
    <glyph glyph-name="Zcaron" unicode="&#x17d;" horiz-adv-x="589" 
d="M538 676v-89l-349 -490h243v153h108v-250h-498v88l348 490h-232v-116h-107v214h487zM364 738h-144l-86 163h102l56 -106l56 106h101z" />
    <glyph glyph-name="zcaron" unicode="&#x17e;" horiz-adv-x="455" 
d="M410 456v-76l-229 -296h144l10 82h83v-166h-384v76l230 296h-126l-9 -77h-86v161h367zM298 533h-144l-86 163h102l56 -106l56 106h101z" />
    <glyph glyph-name="florin" unicode="&#x192;" 
d="M331 359v-433q0 -66 -39 -109t-121 -43q-33 0 -64 11v95q3 0 27.5 -2t38.5 -2q48 0 48 59v424h-89v97h89v98q0 66 39 109t121 43q31 0 64 -11v-95q-3 0 -27.5 2t-38.5 2q-48 0 -48 -59v-89h98v-97h-98z" />
    <glyph glyph-name="Aringacute" unicode="&#x1fa;" horiz-adv-x="693" 
d="M237 812q0 32 18 57.5t49 35.5l52 87h116l-67 -95q50 -27 50 -85q0 -40 -29.5 -69t-81.5 -29q-50 0 -78.5 29t-28.5 69zM302 812q0 -17 11.5 -28.5t30.5 -11.5q21 0 32.5 11.5t11.5 28.5q0 18 -11.5 30t-32.5 12q-19 0 -30.5 -12.5t-11.5 -29.5zM423 0v97h78l-35 103
h-239l-37 -103h79v-97h-264v97h58l180 482h-57v97h321v-97h-56l178 -482h58v-97h-264zM254 299h186l-94 259z" />
    <glyph glyph-name="aringacute" unicode="&#x1fb;" horiz-adv-x="491" 
d="M165 360v-65h-98q-15 29 -15 62q0 49 46.5 79t137.5 30q102 0 142.5 -36.5t40.5 -133.5v-177q0 -27 26 -27q3 0 27 3v-95q-28 -6 -65 -6q-84 0 -94 70q-51 -75 -150 -75q-64 0 -100.5 35t-36.5 96q0 71 56 102.5t166 39.5l57 6v92q-23 6 -54 6q-55 0 -86 -6zM131 609
q0 36 21 63t59 34l39 77h113l-65 -89q51 -26 51 -85q0 -40 -29.5 -69t-81.5 -29q-50 0 -78.5 29t-28.5 69zM145 129q0 -47 55 -47q59 0 105 42v70l-57 -7q-59 -7 -81 -20t-22 -38zM196 609q0 -16 11 -27.5t31 -11.5q21 0 32.5 11.5t11.5 27.5q0 18 -11.5 30t-32.5 12
q-20 0 -31 -12t-11 -30z" />
    <glyph glyph-name="AEacute" unicode="&#x1fc;" horiz-adv-x="977" 
d="M638 901h115l-87 -163h-101zM314 299h182v259zM330 676h599v-198h-109v101h-207v-190h206v-97h-206v-195h211v103h109v-200h-516v97h78v103h-240l-71 -103h79v-97h-268v97h59l334 482h-58v97z" />
    <glyph glyph-name="aeacute" unicode="&#x1fd;" horiz-adv-x="740" 
d="M413 696h115l-87 -163h-101zM529 88q73 0 137 39l37 -88q-79 -50 -185 -50q-52 0 -94 21t-65 56q-28 -34 -79 -55.5t-111 -21.5q-69 0 -106 34.5t-37 96.5q0 71 56 102.5t166 39.5l58 6v92q-39 6 -85 6q-37 0 -55 -6v-65h-98q-15 29 -15 62q0 49 46.5 79t137.5 30
q100 0 145 -47q52 47 134 47q96 0 144 -57.5t48 -139.5q0 -40 -8 -78h-275q3 -103 104 -103zM426 275h172q1 6 1 14q0 40 -23.5 62t-59.5 22q-85 0 -90 -98zM146 129q0 -47 55 -47q57 0 105 42v70l-57 -7q-59 -7 -81 -20t-22 -38z" />
    <glyph glyph-name="Oslashacute" unicode="&#x1fe;" horiz-adv-x="654" 
d="M611 337q0 -160 -68.5 -254t-217.5 -94q-51 0 -99 15l-17 -42h-89v14l28 67q-105 85 -105 294q0 78 15 139.5t47.5 110t88.5 74.5t133 26q47 0 91 -13l13 32h92v-12l-24 -57q112 -84 112 -300zM483 337q0 123 -37 179l-177 -413q24 -9 58 -9q88 0 122 62.5t34 180.5z
M170 337q0 -113 32 -169l173 406q-20 7 -47 7q-87 0 -122.5 -63t-35.5 -181zM341 901h116l-87 -163h-102z" />
    <glyph glyph-name="oslashacute" unicode="&#x1ff;" horiz-adv-x="502" 
d="M253 466q33 0 60 -6l20 47h71v-12l-26 -60q91 -55 91 -206q0 -240 -220 -240q-35 0 -65 8l-21 -49h-69v14l27 60q-88 57 -88 205q0 239 220 239zM268 696h115l-87 -163h-101zM252 92q55 0 77.5 32t22.5 103q0 70 -25 99l-98 -233q7 -1 23 -1zM150 229q0 -68 22 -95
l95 228q-5 1 -17 1q-54 0 -77 -32t-23 -102z" />
    <glyph glyph-name="Scommaaccent" unicode="&#x218;" horiz-adv-x="546" 
d="M484 639v-176h-100l-18 114q-44 13 -88 13q-47 0 -73 -26t-26 -64q0 -61 68 -86l98 -35q89 -32 125.5 -78.5t36.5 -118.5q0 -76 -59.5 -134.5t-172.5 -58.5q-127 0 -223 47l-8 182h100l26 -117q38 -18 104 -18q49 0 77.5 24.5t28.5 64.5q0 64 -66 88l-106 38
q-85 31 -120 77t-35 120q0 76 56 134t169 58q110 0 206 -48zM349 -63l-63 -153h-85l25 153h123z" />
    <glyph glyph-name="scommaaccent" unicode="&#x219;" horiz-adv-x="437" 
d="M387 437v-123h-88l-13 61q-28 11 -63 11q-28 0 -43 -14t-15 -34q0 -35 42 -49l72 -22q64 -20 94.5 -53t30.5 -85q0 -59 -45.5 -99.5t-143.5 -40.5q-96 0 -172 31l-8 130h88l20 -68q28 -14 71 -14q30 0 47 12.5t17 35.5q0 34 -44 49l-76 24q-117 36 -117 136q0 57 43 99
t139 42q97 0 164 -29zM291 -63l-63 -153h-85l25 153h123z" />
    <glyph glyph-name="uni021A" unicode="&#x21a;" horiz-adv-x="583" 
d="M22 676h539v-205h-99v108h-116v-482h92v-97h-302v97h94v482h-110v-108h-98v205zM357 -63l-63 -153h-85l25 153h123z" />
    <glyph glyph-name="uni021B" unicode="&#x21b;" horiz-adv-x="348" 
d="M206 359v-212q0 -53 52 -53q32 0 69 7l3 -98q-42 -14 -106 -14q-66 0 -97.5 38.5t-31.5 103.5v228h-83v87l83 10v112l111 18v-130h108v-97h-108zM270 -63l-63 -153h-85l25 153h123z" />
    <glyph glyph-name="dotlessj" unicode="&#x237;" horiz-adv-x="268" 
d="M81 -226l-67 79q41 25 61 54t20 72v380h-80v97h191v-463q0 -153 -125 -219z" />
    <glyph glyph-name="circumflex" unicode="&#x2c6;" horiz-adv-x="600" 
d="M228 696h144l85 -163h-101l-56 106l-56 -106h-102z" />
    <glyph glyph-name="caron" unicode="&#x2c7;" horiz-adv-x="600" 
d="M372 533h-144l-86 163h102l56 -106l56 106h101z" />
    <glyph glyph-name="breve" unicode="&#x2d8;" horiz-adv-x="600" 
d="M375 687h75q0 -66 -40 -108t-113 -42q-70 0 -109 42.5t-39 107.5h73q4 -29 24.5 -48t50.5 -19q32 0 52.5 18.5t25.5 48.5z" />
    <glyph glyph-name="dotaccent" unicode="&#x2d9;" horiz-adv-x="600" 
d="M300 537q-70 0 -70 67q0 34 19 51.5t51 17.5q29 0 49 -17.5t20 -51.5t-20 -50.5t-49 -16.5z" />
    <glyph glyph-name="ring" unicode="&#x2da;" horiz-adv-x="600" 
d="M191 619q0 42 28 71.5t78 29.5q53 0 82 -29.5t29 -71.5q0 -40 -29.5 -69t-81.5 -29q-50 0 -78 29t-28 69zM256 619q0 -16 11 -27.5t30 -11.5q21 0 33 11.5t12 27.5q0 18 -12 30t-33 12q-19 0 -30 -12t-11 -30z" />
    <glyph glyph-name="ogonek" unicode="&#x2db;" horiz-adv-x="600" 
d="M413 1l1 -1l-86 -52q-29 -18 -29 -38q0 -24 29 -24t59 15l2 -80q-36 -18 -83 -18q-57 0 -88.5 21.5t-31.5 62.5q0 54 56 84l111 57z" />
    <glyph glyph-name="tilde" unicode="&#x2dc;" horiz-adv-x="600" 
d="M448 650l-2 -85q-39 25 -73 25q-25 0 -73 -20.5t-78 -20.5q-43 0 -70 23l2 84q26 -24 68 -24q23 0 68.5 20t82.5 20q39 0 75 -22z" />
    <glyph glyph-name="hungarumlaut" unicode="&#x2dd;" horiz-adv-x="600" 
d="M190 696h115l-87 -163h-101zM368 696h115l-87 -163h-101z" />
    <glyph glyph-name="uni0394" unicode="&#x394;" horiz-adv-x="720" 
d="M27 0l265 676h136l264 -676h-665zM525 97l-165 456l-167 -456h332z" />
    <glyph glyph-name="uni03A9" unicode="&#x3a9;" horiz-adv-x="730" 
d="M50 97h145q-60 47 -99 118t-39 151q0 64 17 119.5t52.5 101.5t96 73t140.5 27q81 0 142.5 -27t97 -73t52.5 -101.5t17 -119.5q0 -80 -39.5 -150.5t-98.5 -118.5h146v-97h-272v97q58 44 97 113t39 148q0 101 -44 162t-137 61q-91 0 -134.5 -61t-43.5 -162q0 -79 39.5 -148
t96.5 -113v-97h-271v97z" />
    <glyph glyph-name="uni03BC" unicode="&#x3bc;" horiz-adv-x="613" 
d="M216 -216h-111v576h-66v96h177v-274q0 -44 19.5 -65.5t66.5 -21.5q30 0 57.5 15t40.5 40v210h-84v96h194v-359h68v-97h-156v80q-54 -90 -167 -90q-23 0 -39 8v-214z" />
    <glyph glyph-name="pi" unicode="&#x3c0;" horiz-adv-x="577" 
d="M105 0v359h-92v97h538v-97h-94v-213q0 -53 52 -53q6 0 28 2v-101q-33 -5 -63 -5q-66 0 -97 38.5t-31 103.5v228h-131v-359h-110z" />
    <glyph glyph-name="Wgrave" unicode="&#x1e80;" horiz-adv-x="980" 
d="M685 579v97h287v-97h-64l-144 -579h-144l-130 401l-128 -401h-145l-146 579h-65v97h268v-97h-80l102 -458l139 420l-49 135h137l164 -555l103 458h-105zM363 901h115l73 -163h-101z" />
    <glyph glyph-name="wgrave" unicode="&#x1e81;" horiz-adv-x="785" 
d="M537 359v97h238v-97h-54l-105 -359h-129l-91 242l-99 -242h-125l-111 359h-51v97h238v-97h-71l68 -254l98 246l-36 105h115l122 -349l64 252h-71zM270 696h115l73 -163h-101z" />
    <glyph glyph-name="Wacute" unicode="&#x1e82;" horiz-adv-x="980" 
d="M685 579v97h287v-97h-64l-144 -579h-144l-130 401l-128 -401h-145l-146 579h-65v97h268v-97h-80l102 -458l139 420l-49 135h137l164 -555l103 458h-105zM490 901h115l-87 -163h-101z" />
    <glyph glyph-name="wacute" unicode="&#x1e83;" horiz-adv-x="785" 
d="M537 359v97h238v-97h-54l-105 -359h-129l-91 242l-99 -242h-125l-111 359h-51v97h238v-97h-71l68 -254l98 246l-36 105h115l122 -349l64 252h-71zM398 696h115l-87 -163h-101z" />
    <glyph glyph-name="Wdieresis" unicode="&#x1e84;" horiz-adv-x="980" 
d="M685 579v97h287v-97h-64l-144 -579h-144l-130 401l-128 -401h-145l-146 579h-65v97h268v-97h-80l102 -458l139 420l-49 135h137l164 -555l103 458h-105zM393 742q-70 0 -70 67q0 35 19 52t51 17q29 0 49 -17.5t20 -51.5t-20 -50.5t-49 -16.5zM587 742q-70 0 -70 67
q0 35 19 52t51 17q29 0 49 -17.5t20 -51.5t-20 -50.5t-49 -16.5z" />
    <glyph glyph-name="wdieresis" unicode="&#x1e85;" horiz-adv-x="785" 
d="M537 359v97h238v-97h-54l-105 -359h-129l-91 242l-99 -242h-125l-111 359h-51v97h238v-97h-71l68 -254l98 246l-36 105h115l122 -349l64 252h-71zM296 537q-70 0 -70 67q0 34 19 51.5t51 17.5q29 0 49 -17.5t20 -51.5t-20 -50.5t-49 -16.5zM490 537q-70 0 -70 67
q0 34 19 51.5t51 17.5q29 0 49 -17.5t20 -51.5t-20 -50.5t-49 -16.5z" />
    <glyph glyph-name="Ygrave" unicode="&#x1ef2;" horiz-adv-x="639" 
d="M5 579v97h270v-97h-81l127 -217l129 217h-82v97h271v-97h-65l-195 -315v-167h81v-97h-287v97h87v167l-190 315h-65zM197 901h115l73 -163h-101z" />
    <glyph glyph-name="ygrave" unicode="&#x1ef3;" horiz-adv-x="571" 
d="M60 -207v81h125l58 129l-160 356h-76v97h198v-96l92 -230l96 229h-101v97h270v-97h-60l-203 -484q-43 -101 -141 -101q-63 0 -98 19zM160 696h115l73 -163h-101z" />
    <glyph glyph-name="endash" unicode="&#x2013;" horiz-adv-x="584" 
d="M51 324h482v-108h-482v108z" />
    <glyph glyph-name="emdash" unicode="&#x2014;" horiz-adv-x="724" 
d="M51 324h622v-108h-622v108z" />
    <glyph glyph-name="quoteleft" unicode="&#x2018;" horiz-adv-x="211" 
d="M28 426l62 250h86l-25 -250h-123z" />
    <glyph glyph-name="quoteright" unicode="&#x2019;" horiz-adv-x="206" 
d="M187 676l-63 -250h-85l25 250h123z" />
    <glyph glyph-name="quotesinglbase" unicode="&#x201a;" horiz-adv-x="214" 
d="M177 140l-63 -249h-85l25 249h123z" />
    <glyph glyph-name="quotedblleft" unicode="&#x201c;" horiz-adv-x="379" 
d="M196 426l63 250h85l-25 -250h-123zM28 426l62 250h86l-25 -250h-123z" />
    <glyph glyph-name="quotedblright" unicode="&#x201d;" horiz-adv-x="375" 
d="M187 676l-63 -250h-85l25 250h123zM356 676l-63 -250h-85l25 250h123z" />
    <glyph glyph-name="quotedblbase" unicode="&#x201e;" horiz-adv-x="384" 
d="M178 140l-63 -250h-85l25 250h123zM346 140l-62 -250h-86l25 250h123z" />
    <glyph glyph-name="dagger" unicode="&#x2020;" horiz-adv-x="432" 
d="M31 307h146v389h78v-389h146v-74h-146v-449h-78v449h-146v74z" />
    <glyph glyph-name="daggerdbl" unicode="&#x2021;" horiz-adv-x="454" 
d="M42 449h145v247h78v-247h147v-74h-147v-272h147v-74h-147v-245h-78v245h-145v74h145v272h-145v74z" />
    <glyph glyph-name="bullet" unicode="&#x2022;" 
d="M280 141q-58 0 -96 36.5t-38 91.5q0 56 38 92t96 36t96 -36t38 -92q0 -55 -38 -91.5t-96 -36.5z" />
    <glyph glyph-name="ellipsis" unicode="&#x2026;" horiz-adv-x="662" 
d="M111 -6q-33 0 -54.5 20.5t-21.5 51.5q0 32 21.5 52.5t54.5 20.5t54.5 -20.5t21.5 -52.5q0 -31 -21.5 -51.5t-54.5 -20.5zM546 -6q-33 0 -54.5 20.5t-21.5 51.5q0 32 21.5 52.5t54.5 20.5t54.5 -20.5t21.5 -52.5q0 -31 -21.5 -51.5t-54.5 -20.5zM329 -6q-33 0 -54.5 20.5
t-21.5 51.5q0 32 21.5 52.5t54.5 20.5t54.5 -20.5t21.5 -52.5q0 -31 -21.5 -51.5t-54.5 -20.5z" />
    <glyph glyph-name="perthousand" unicode="&#x2030;" horiz-adv-x="1126" 
d="M635 676v-13l-412 -663h-83v13l409 663h86zM200 686q81 0 121.5 -45.5t40.5 -117.5t-41 -118.5t-121 -46.5q-79 0 -119.5 46t-40.5 119q0 71 41.5 117t118.5 46zM200 451q66 0 66 72q0 70 -66 70q-64 0 -64 -70q0 -72 64 -72zM575 317q80 0 121 -46t41 -117
q0 -73 -41.5 -119t-120.5 -46t-119.5 46t-40.5 119q0 70 41.5 116.5t118.5 46.5zM575 81q65 0 65 73q0 69 -65 69t-65 -69q0 -73 65 -73zM928 317q81 0 121.5 -46t40.5 -117q0 -73 -41 -119t-121 -46q-79 0 -119.5 46t-40.5 119q0 70 41.5 116.5t118.5 46.5zM928 81
q66 0 66 73q0 69 -66 69q-64 0 -64 -69q0 -73 64 -73z" />
    <glyph glyph-name="guilsinglleft" unicode="&#x2039;" horiz-adv-x="330" 
d="M23 270l196 228l72 -53l-131 -176l132 -175l-73 -52z" />
    <glyph glyph-name="guilsinglright" unicode="&#x203a;" horiz-adv-x="330" 
d="M111 498l196 -228l-196 -228l-73 52l132 175l-131 176z" />
    <glyph glyph-name="fraction" unicode="&#x2044;" horiz-adv-x="138" 
d="M316 676v-13l-412 -663h-83v13l409 663h86z" />
    <glyph glyph-name="zerosuperior" unicode="&#x2070;" horiz-adv-x="379" 
d="M122 603q0 -61 15.5 -87t54.5 -26q36 0 51 26.5t15 86.5t-15.5 88t-53.5 28q-37 0 -52 -27.5t-15 -88.5zM347 603q0 -186 -158 -186q-157 0 -157 186q0 190 160 190q155 0 155 -190z" />
    <glyph glyph-name="foursuperior" unicode="&#x2074;" horiz-adv-x="351" 
d="M330 558v-66h-52v-69h-85v69h-179v59l126 178q10 13 19 28t13 23l4 8h102v-230h52zM107 558h86v129z" />
    <glyph glyph-name="fivesuperior" unicode="&#x2075;" horiz-adv-x="330" 
d="M25 448l9 87h69v-39q16 -6 44 -6q32 0 48.5 13t16.5 35q0 49 -67 49q-34 0 -80 -12l-25 11l27 202h220v-72h-150l-9 -61q26 6 55 6q56 0 87.5 -32.5t31.5 -86.5q0 -59 -39.5 -92t-114.5 -33q-67 0 -123 31z" />
    <glyph glyph-name="sixsuperior" unicode="&#x2076;" horiz-adv-x="353" 
d="M207 721q-45 0 -66 -25t-21 -61q0 -6 1 -9q27 33 78 33q59 0 92.5 -31t33.5 -87q0 -57 -37.5 -90.5t-108.5 -33.5q-147 0 -147 179q0 91 43 144t133 53q48 0 111 -25l-29 -66q-44 19 -83 19zM181 490q56 0 56 46q0 44 -53 44q-39 0 -62 -23q0 -29 15 -48t44 -19z" />
    <glyph glyph-name="sevensuperior" unicode="&#x2077;" horiz-adv-x="312" 
d="M61 423l137 299h-94v-63h-80v129h279v-55q-30 -46 -50 -92l-93 -218h-99z" />
    <glyph glyph-name="eightsuperior" unicode="&#x2078;" horiz-adv-x="359" 
d="M317 692q0 -46 -47 -77q58 -30 58 -87q0 -50 -41 -80.5t-109 -30.5q-66 0 -106.5 28.5t-40.5 77.5q0 52 49 79q-39 29 -39 84q0 46 38.5 76.5t99.5 30.5q65 0 101.5 -28.5t36.5 -72.5zM197 556l-63 20q-16 -19 -16 -41q0 -21 17 -34t49 -13q54 0 54 33q0 21 -41 35z
M126 691q0 -22 34 -35l48 -17q25 17 25 41q0 18 -15.5 31.5t-44.5 13.5q-47 0 -47 -34z" />
    <glyph glyph-name="ninesuperior" unicode="&#x2079;" horiz-adv-x="353" 
d="M147 490q85 0 85 79q0 8 -1 10q-26 -33 -80 -33t-87.5 32t-33.5 87q0 56 38.5 92t106.5 36q77 0 112 -53.5t35 -131.5q0 -191 -176 -191q-58 0 -113 32l27 66q45 -25 87 -25zM172 720q-27 0 -40.5 -13t-13.5 -34q0 -22 13.5 -35t37.5 -13q41 0 61 27q0 30 -14.5 49
t-43.5 19z" />
    <glyph glyph-name="zeroinferior" unicode="&#x2080;" horiz-adv-x="379" 
d="M122 80q0 -60 15.5 -86t54.5 -26q36 0 50.5 26t14.5 86q0 61 -15 89t-53 28q-37 0 -52 -28t-15 -89zM347 80q0 -186 -159 -186q-156 0 -156 186q0 190 160 190q155 0 155 -190z" />
    <glyph glyph-name="oneinferior" unicode="&#x2081;" horiz-adv-x="311" 
d="M40 -100v72h94v208l-95 -30l-18 65l126 50h74v-293h77v-72h-258z" />
    <glyph glyph-name="twoinferior" unicode="&#x2082;" horiz-adv-x="340" 
d="M308 -100h-274v59q76 63 116 101q21 20 30 30.5t18 28t9 36.5q0 20 -12 31.5t-31 11.5q-45 0 -45 -39q0 -19 4 -28l-87 -6q-5 11 -5 35q0 48 33.5 79t99.5 31q65 0 99 -31.5t34 -82.5q0 -61 -87 -134q-40 -33 -63 -50h91v35h70v-107z" />
    <glyph glyph-name="threeinferior" unicode="&#x2083;" horiz-adv-x="330" 
d="M103 156h-62l-8 80q49 34 120 34q72 0 103 -31.5t31 -70.5q0 -69 -64 -86q76 -16 76 -82q0 -50 -37.5 -78t-110.5 -28q-78 0 -130 39l40 63q37 -29 90 -29q58 0 58 37q0 21 -15 29t-53 8h-44v72h41q28 0 44 11.5t16 31.5q0 42 -48 42q-28 0 -47 -9v-33z" />
    <glyph glyph-name="fourinferior" unicode="&#x2084;" horiz-adv-x="351" 
d="M330 35v-66h-52v-69h-85v69h-179v59l126 178q10 13 19 28t13 23l4 8h102v-230h52zM107 35h86v129z" />
    <glyph glyph-name="fiveinferior" unicode="&#x2085;" horiz-adv-x="330" 
d="M25 -75l9 87h69v-39q19 -6 44 -6q32 0 48.5 13t16.5 35q0 50 -67 50q-26 0 -80 -12l-25 11l27 201h220v-72h-150l-9 -61q26 6 55 6q56 0 87.5 -32.5t31.5 -86.5q0 -59 -39.5 -92t-114.5 -33q-67 0 -123 31z" />
    <glyph glyph-name="sixinferior" unicode="&#x2086;" horiz-adv-x="353" 
d="M207 198q-45 0 -66 -25t-21 -60q0 -7 1 -9q29 32 78 32q59 0 92.5 -31t33.5 -87q0 -57 -37.5 -90.5t-108.5 -33.5q-147 0 -147 179q0 91 43 144t133 53q53 0 111 -25l-29 -66q-44 19 -83 19zM181 -33q56 0 56 46q0 44 -53 44q-39 0 -62 -23q0 -29 15 -48t44 -19z" />
    <glyph glyph-name="seveninferior" unicode="&#x2087;" horiz-adv-x="312" 
d="M61 -100l137 299h-94v-63h-81v129h280v-55q-30 -46 -50 -92l-93 -218h-99z" />
    <glyph glyph-name="eightinferior" unicode="&#x2088;" horiz-adv-x="358" 
d="M317 169q0 -45 -47 -76q58 -30 58 -88q0 -50 -41 -80.5t-109 -30.5q-65 0 -106 29t-41 77q0 52 49 79q-39 29 -39 84q0 46 38.5 76.5t99.5 30.5q65 0 101.5 -28.5t36.5 -72.5zM134 53q-16 -18 -16 -41q0 -21 17.5 -34t48.5 -13q54 0 54 33q0 21 -41 35zM126 168
q0 -22 34 -35l48 -16q25 15 25 41q0 18 -15.5 31t-44.5 13q-47 0 -47 -34z" />
    <glyph glyph-name="nineinferior" unicode="&#x2089;" horiz-adv-x="353" 
d="M146 -33q86 0 86 80q0 7 -1 10q-27 -34 -81 -34t-87 32t-33 87q0 57 38 92.5t107 35.5q77 0 111.5 -53t34.5 -132q0 -191 -175 -191q-58 0 -113 32l27 67q43 -26 86 -26zM172 197q-54 0 -54 -47q0 -22 13.5 -35t37.5 -13q39 0 61 27q0 30 -15 49t-43 19z" />
    <glyph glyph-name="rupee" unicode="&#x20a8;" horiz-adv-x="567" 
d="M50 676l468 1v-76h-119q30 -37 36 -92h83v-76h-84q-9 -56 -45 -94.5t-94 -54.5q43 -34 78 -86t49 -101h78v-97h-267v97h61q-9 40 -45.5 93.5t-76.5 80.5h-122v94h106q70 0 105 15.5t48 52.5h-259v76h261q-13 39 -45 54.5t-102 15.5h-114v97z" />
    <glyph glyph-name="Euro" unicode="&#x20ac;" 
d="M32 441h55q38 245 266 245q88 0 176 -40l-38 -101q-72 34 -141 34q-116 0 -139 -138h245l-27 -76h-225v-25q0 -24 1 -35h205l-26 -76h-168q33 -129 142 -129q74 0 143 33l26 -102q-78 -42 -174 -42q-225 0 -265 240h-56v76h48v60h-48v76z" />
    <glyph glyph-name="afii61289" unicode="&#x2113;" horiz-adv-x="387" 
d="M357 32q-52 -43 -121 -43q-54 0 -83.5 32.5t-29.5 95.5v110q-19 -19 -64 -51l-37 60q68 51 101 85v218q0 84 34 126t91 42q52 0 80.5 -35t28.5 -99q0 -74 -39.5 -141.5t-118.5 -142.5v-159q0 -64 47 -64q41 0 83 32zM279 564q0 30 -11 45t-28 15q-41 0 -41 -69v-170
q80 87 80 179z" />
    <glyph glyph-name="uni2117" unicode="&#x2117;" horiz-adv-x="835" 
d="M47 335q0 161 105.5 264.5t265.5 103.5t265 -103.5t105 -264.5q0 -160 -105 -264t-265 -104t-265.5 104.5t-105.5 263.5zM132 335q0 -128 79.5 -207t206.5 -79q126 0 205.5 79t79.5 207q0 129 -79.5 207.5t-205.5 78.5q-127 0 -206.5 -78.5t-79.5 -207.5zM268 526h170
q78 0 116.5 -33.5t38.5 -92.5q0 -58 -39 -90.5t-116 -32.5h-45v-71h65v-67h-190v67h42v253h-42v67zM505 401q0 58 -65 58h-47v-114h47q65 0 65 56z" />
    <glyph glyph-name="trademark" unicode="&#x2122;" horiz-adv-x="688" 
d="M71 607h209v-81h-46v38h-32v-151h33v-43h-121v43h33v151h-29v-38h-47v81zM464 430l44 177h102v-43h-21l14 -151h26v-43h-104v43h26l-11 135l-46 -178h-61l-43 175l-12 -132h27v-43h-103v43h23l16 151h-22v43h104z" />
    <glyph glyph-name="Omega" unicode="&#x2126;" horiz-adv-x="730" 
d="M50 97h145q-60 47 -99 118t-39 151q0 64 17 119.5t52.5 101.5t96 73t140.5 27q81 0 142.5 -27t97 -73t52.5 -101.5t17 -119.5q0 -80 -39.5 -150.5t-98.5 -118.5h146v-97h-272v97q58 44 97 113t39 148q0 101 -44 162t-137 61q-91 0 -134.5 -61t-43.5 -162q0 -79 39.5 -148
t96.5 -113v-97h-271v97z" />
    <glyph glyph-name="estimated" unicode="&#x212e;" horiz-adv-x="761" 
d="M718 338h-511v-230q74 -74 183 -74q80 0 139 36.5t106 115.5l45 -27q-59 -92 -125 -131.5t-165 -39.5q-146 0 -236.5 100t-90.5 250q0 151 90 250.5t237 99.5q146 0 236.5 -98t91.5 -252zM207 384h369v184q-81 75 -187 75q-107 0 -182 -75v-184z" />
    <glyph glyph-name="onethird" unicode="&#x2153;" horiz-adv-x="802" 
d="M657 676v-13l-412 -663h-83v13l409 663h86zM565 256h-62l-8 80q49 34 120 34q72 0 103 -31.5t31 -70.5q0 -69 -64 -86q76 -16 76 -82q0 -50 -37.5 -78t-110.5 -28q-78 0 -130 39l40 63q37 -29 90 -29q58 0 58 37q0 21 -15 29t-53 8h-44v72h41q28 0 44 11.5t16 31.5
q0 42 -48 42q-28 0 -47 -9v-33zM53 311v72h94v208l-88 -30l-18 66l119 49h74v-293h77v-72h-258z" />
    <glyph glyph-name="twothirds" unicode="&#x2154;" horiz-adv-x="822" 
d="M677 676v-13l-412 -663h-83v13l409 663h86zM586 256h-62l-8 80q49 34 120 34q72 0 103 -31.5t31 -70.5q0 -69 -64 -86q76 -16 76 -82q0 -50 -37.5 -78t-110.5 -28q-78 0 -130 39l40 63q37 -29 90 -29q58 0 58 37q0 21 -15 29t-53 8h-44v72h41q28 0 44 11.5t16 31.5
q0 42 -48 42q-27 0 -47 -9v-33zM323 311h-274v59q72 58 116 100q21 21 30 31t18 28t9 37q0 20 -12 31.5t-31 11.5q-45 0 -45 -39q0 -14 4 -28l-87 -6q-5 15 -5 35q0 48 34 79t99 31t99 -31.5t34 -82.5q0 -63 -87 -135q-14 -12 -37.5 -30t-24.5 -19h90v35h70v-107z" />
    <glyph glyph-name="oneeighth" unicode="&#x215b;" horiz-adv-x="803" 
d="M657 676v-13l-412 -663h-83v13l409 663h86zM752 269q0 -45 -47 -76q58 -30 58 -88q0 -50 -41 -80.5t-109 -30.5q-65 0 -106 29t-41 77q0 52 49 79q-39 29 -39 84q0 46 38.5 76.5t99.5 30.5q65 0 101.5 -28.5t36.5 -72.5zM569 153q-16 -18 -16 -41q0 -21 17.5 -34
t48.5 -13q54 0 54 33q0 21 -41 35zM561 268q0 -22 34 -35l48 -16q25 15 25 41q0 18 -15.5 31t-44.5 13q-47 0 -47 -34zM53 311v72h94v208l-88 -30l-18 66l119 49h74v-293h77v-72h-258z" />
    <glyph glyph-name="threeeighths" unicode="&#x215c;" horiz-adv-x="780" 
d="M633 676v-13l-412 -663h-83v13l409 663h86zM121 567h-62l-8 80q52 34 120 34q72 0 103 -31.5t31 -70.5q0 -68 -63 -87q75 -15 75 -82q0 -49 -37.5 -77t-109.5 -28q-80 0 -131 39l40 62q38 -28 91 -28q57 0 57 37q0 20 -15 28.5t-52 8.5h-45v71h41q28 0 44.5 12t16.5 32
q0 18 -12.5 30t-36.5 12t-47 -9v-33zM728 269q0 -45 -47 -76q58 -30 58 -88q0 -50 -41 -80.5t-109 -30.5q-65 0 -106 29t-41 77q0 52 49 79q-39 29 -39 84q0 46 38.5 76.5t99.5 30.5q65 0 101.5 -28.5t36.5 -72.5zM545 153q-16 -18 -16 -41q0 -21 17.5 -34t48.5 -13
q54 0 54 33q0 21 -41 35zM537 268q0 -22 34 -35l48 -16q25 15 25 41q0 18 -15.5 31t-44.5 13q-47 0 -47 -34z" />
    <glyph glyph-name="fiveeighths" unicode="&#x215d;" horiz-adv-x="771" 
d="M624 676v-13l-412 -663h-83v13l409 663h86zM719 269q0 -45 -47 -76q58 -30 58 -88q0 -50 -41 -80.5t-109 -30.5q-65 0 -106 29t-41 77q0 52 49 79q-39 29 -39 84q0 46 38.5 76.5t99.5 30.5q65 0 101.5 -28.5t36.5 -72.5zM536 153q-16 -18 -16 -41q0 -21 17.5 -34
t48.5 -13q54 0 54 33q0 21 -41 35zM528 268q0 -22 34 -35l48 -16q25 15 25 41q0 18 -15.5 31t-44.5 13q-47 0 -47 -34zM41 336l9 87h69v-39q16 -6 44 -6q32 0 48.5 13t16.5 35q0 49 -67 49q-34 0 -80 -12l-25 11l27 202h220v-72h-150l-9 -61q26 6 55 6q56 0 87.5 -32.5
t31.5 -86.5q0 -59 -39.5 -92t-114.5 -33q-67 0 -123 31z" />
    <glyph glyph-name="seveneighths" unicode="&#x215e;" horiz-adv-x="718" 
d="M571 676v-13l-412 -663h-83v13l409 663h86zM666 269q0 -45 -47 -76q58 -30 58 -88q0 -50 -41 -80.5t-109 -30.5q-65 0 -106 29t-41 77q0 52 49 79q-39 29 -39 84q0 46 38.5 76.5t99.5 30.5q65 0 101.5 -28.5t36.5 -72.5zM483 153q-16 -18 -16 -41q0 -21 17.5 -34
t48.5 -13q54 0 54 33q0 21 -41 35zM475 268q0 -22 34 -35l48 -16q25 15 25 41q0 18 -15.5 31t-44.5 13q-47 0 -47 -34zM81 311l137 299h-94v-63h-80v129h279v-55q-30 -46 -50 -92l-93 -218h-99z" />
    <glyph glyph-name="arrowleft" unicode="&#x2190;" horiz-adv-x="750" 
d="M82 253v65l251 251l64 -64l-170 -171h448v-97h-448l170 -170l-64 -65z" />
    <glyph glyph-name="arrowup" unicode="&#x2191;" horiz-adv-x="750" 
d="M343 590h65l251 -251l-65 -64l-170 171v-448h-97v448l-171 -170l-64 63z" />
    <glyph glyph-name="arrowright" unicode="&#x2192;" horiz-adv-x="750" 
d="M680 330v-65l-251 -251l-64 64l171 171h-448v97h448l-170 170l63 65z" />
    <glyph glyph-name="arrowdown" unicode="&#x2193;" horiz-adv-x="750" 
d="M420 -8h-65l-252 251l65 64l171 -170v448h97v-448l170 170l65 -64z" />
    <glyph glyph-name="uni2196" unicode="&#x2196;" horiz-adv-x="750" 
d="M148 478l46 46h356v-91h-242l317 -317l-69 -69l-317 317v-241h-91v355z" />
    <glyph glyph-name="uni2197" unicode="&#x2197;" horiz-adv-x="750" 
d="M567 525l47 -47v-355h-91v242l-317 -317l-69 69l317 317h-242v91h355z" />
    <glyph glyph-name="uni2198" unicode="&#x2198;" horiz-adv-x="750" 
d="M615 105l-47 -46h-355v91h242l-317 317l69 69l317 -317v241h91v-355z" />
    <glyph glyph-name="uni2199" unicode="&#x2199;" horiz-adv-x="750" 
d="M195 58l-46 46v356h91v-242l317 317l69 -69l-317 -317h241v-91h-355z" />
    <glyph glyph-name="partialdiff" unicode="&#x2202;" horiz-adv-x="554" 
d="M210 696h139q66 -58 108.5 -156.5t42.5 -225.5q0 -64 -12.5 -119.5t-38.5 -103t-72.5 -75t-108.5 -27.5q-111 0 -170 64t-59 171q0 102 52.5 162.5t142.5 60.5q53 0 91 -23.5t57 -57.5q0 83 -45 172t-127 158zM264 94q55 0 83 47.5t28 119.5q-38 72 -117 72
q-50 0 -74.5 -31.5t-24.5 -87.5q0 -53 26 -86.5t79 -33.5z" />
    <glyph glyph-name="Delta" unicode="&#x2206;" horiz-adv-x="720" 
d="M27 0l265 676h136l264 -676h-665zM525 97l-165 456l-167 -456h332z" />
    <glyph glyph-name="product" unicode="&#x220f;" horiz-adv-x="769" 
d="M45 676h679v-97h-66v-698h66v-97h-274v97h91v699h-311v-699h91v-97h-276v97h66v698h-66v97z" />
    <glyph glyph-name="summation" unicode="&#x2211;" horiz-adv-x="606" 
d="M447 -16h109v-201h-514v116l245 339l-245 322v116h510v-198h-109v101h-285l259 -340l-259 -359h289v104z" />
    <glyph glyph-name="minus" unicode="&#x2212;" 
d="M37 216v108h485v-108h-485z" />
    <glyph glyph-name="uni2215" unicode="&#x2215;" horiz-adv-x="138" 
d="M316 676v-13l-412 -663h-83v13l409 663h86z" />
    <glyph glyph-name="uni2219" unicode="&#x2219;" horiz-adv-x="230" 
d="M115 196q-33 0 -54.5 20.5t-21.5 51.5q0 32 21.5 52.5t54.5 20.5t54.5 -20.5t21.5 -52.5q0 -31 -21.5 -51.5t-54.5 -20.5z" />
    <glyph glyph-name="radical" unicode="&#x221a;" horiz-adv-x="585" 
d="M591 696l-245 -912h-122l-135 315l-70 -31l-35 79l172 75l119 -298l200 772h116z" />
    <glyph glyph-name="infinity" unicode="&#x221e;" horiz-adv-x="739" 
d="M685 265q0 -69 -43 -114t-109 -45q-98 0 -162 95q-36 -46 -74 -70t-90 -24q-64 0 -108 43.5t-44 111.5q0 69 43 113.5t107 44.5q93 0 166 -99q68 101 161 101q65 0 109 -44t44 -113zM595 262q0 34 -19.5 54.5t-52.5 20.5q-47 0 -96 -76q51 -70 96 -70q33 0 52.5 20
t19.5 51zM315 261q-49 76 -98 76q-32 0 -52.5 -21.5t-20.5 -53.5q0 -33 20 -52t53 -19q54 0 98 70z" />
    <glyph glyph-name="integral" unicode="&#x222b;" horiz-adv-x="346" 
d="M229 545v-619q0 -66 -39.5 -109t-121.5 -43q-32 0 -63 11v95q1 0 26 -2t39 -2q48 0 48 59v619q0 66 39.5 109t121.5 43q32 0 63 -11v-95q-1 0 -26 2t-39 2q-48 0 -48 -59z" />
    <glyph glyph-name="approxequal" unicode="&#x2248;" 
d="M488 434l5 -104q-48 -44 -105 -44q-43 0 -112.5 32t-104.5 32q-10 0 -20 -2t-17.5 -5t-18 -8t-15.5 -8.5t-14.5 -9.5t-12.5 -8l-5 105q55 44 112 44q37 0 105.5 -32t108.5 -32q39 0 94 40zM488 232l5 -105q-48 -44 -105 -44q-43 0 -112.5 32t-104.5 32q-11 0 -22.5 -2.5
t-23 -8t-18.5 -9.5t-19 -11t-15 -9l-5 104q53 44 112 44q37 0 105.5 -32t108.5 -32q38 0 94 41z" />
    <glyph glyph-name="notequal" unicode="&#x2260;" 
d="M69 212h161l28 117h-189v108h215l25 103l59 -13l-22 -90h144v-108h-170l-29 -117h199v-108h-225l-26 -110l-59 13l24 97h-135v108z" />
    <glyph glyph-name="lessequal" unicode="&#x2264;" 
d="M64 339v129l421 162v-111l-315 -116l315 -115v-111zM65 133h420v-108h-420v108z" />
    <glyph glyph-name="greaterequal" unicode="&#x2265;" 
d="M496 468v-129l-421 -162v111l315 115l-315 116v111zM75 133h420v-108h-420v108z" />
    <glyph glyph-name="lozenge" unicode="&#x25ca;" horiz-adv-x="624" 
d="M463 354l-151 233l-155 -233l155 -245zM592 354l-228 -354h-107l-227 354l227 342h107z" />
    <glyph glyph-name="circle" unicode="&#x25cb;" horiz-adv-x="774" 
d="M47 337q0 154 94.5 251.5t244.5 97.5q152 0 246.5 -97.5t94.5 -251.5q0 -152 -95 -250t-246 -98q-149 0 -244 98t-95 250zM127 337q0 -123 70 -197t189 -74q120 0 190 74t70 197q0 125 -70 198.5t-190 73.5q-119 0 -189 -73.5t-70 -198.5z" />
    <glyph glyph-name="commaaccent" unicode="&#xf6c3;" horiz-adv-x="600" 
d="M374 -63l-63 -153h-85l25 153h123z" />
    <glyph glyph-name="uniF8FF" unicode="&#xf8ff;" horiz-adv-x="581" 
d="M84 0v656h413v-656h-413zM122 38h337v580h-337v-580z" />
    <glyph glyph-name="exclam.sc" horiz-adv-x="253" 
d="M172 174h-92l-18 333h130zM127 -4q-30 0 -50 18t-20 45q0 28 20 46t50 18q29 0 48.5 -18t19.5 -46q0 -27 -19.5 -45t-48.5 -18z" />
    <glyph glyph-name="numbersign.sc" horiz-adv-x="548" 
d="M112 117h-78l16 95h78l13 85h-76l14 95h77l19 115h104l-20 -115h71l20 115h104l-19 -115h80l-16 -95h-79l-14 -85h79l-15 -95h-80l-20 -117h-104l21 117h-70l-21 -117h-105zM245 297l-14 -85h71l14 85h-71z" />
    <glyph glyph-name="dollar.sc" horiz-adv-x="482" 
d="M267 -77h-48v70q-95 4 -165 36l-6 139h96l23 -79q18 -8 52 -10v121l-34 11q-74 25 -101.5 61.5t-27.5 95.5q0 54 39.5 97.5t123.5 49.5v54h48v-54q81 -6 148 -38v-138h-95l-16 80q-24 4 -37 5v-118l34 -11q76 -25 104.5 -62.5t28.5 -93.5q0 -53 -41.5 -96.5t-125.5 -49.5
v-70zM313 133q0 37 -46 51v-103q46 10 46 52zM176 374q0 -37 43 -51v99q-43 -9 -43 -48z" />
    <glyph glyph-name="percent.sc" horiz-adv-x="656" 
d="M529 507v-12l-329 -495h-76v12l327 495h78zM166 515q68 0 102.5 -35.5t34.5 -90.5q0 -56 -35 -92t-102 -36q-66 0 -100 36t-34 92q0 54 35 90t99 36zM166 347q46 0 46 42q0 39 -46 39q-44 0 -44 -39q0 -42 44 -42zM487 245q68 0 102.5 -35.5t34.5 -90.5q0 -56 -35 -91.5
t-102 -35.5q-66 0 -100 35.5t-34 91.5q0 55 34.5 90.5t99.5 35.5zM487 78q46 0 46 41q0 40 -46 40q-44 0 -44 -40q0 -41 44 -41z" />
    <glyph glyph-name="ampersand.sc" horiz-adv-x="549" 
d="M442 -8q-68 0 -94 52q-50 -52 -136 -52q-80 0 -125 40t-45 108q0 54 29 85.5t71 41.5q-82 24 -82 117q0 52 40.5 91.5t137.5 39.5q77 0 137 -24l-30 -92q-52 18 -103 18q-68 0 -68 -56q0 -55 71 -55h91v45l106 16v-61h60v-89h-60v-96q0 -30 34 -30q13 0 40 3l-2 -93
q-34 -9 -72 -9zM336 217h-93q-41 0 -62.5 -17t-21.5 -47q0 -62 81 -62q52 0 96 29v97z" />
    <glyph glyph-name="section.sc" horiz-adv-x="465" 
d="M421 213q0 -52 -45 -86q45 -30 45 -84q0 -51 -47 -89.5t-147 -38.5q-109 0 -172 33v109h82l13 -49q29 -12 76 -12q76 0 76 32q0 9 -9.5 17t-19 11.5t-29.5 10.5l-9 3l-66 22q-124 41 -124 119q0 56 46 91q-45 28 -45 82q0 49 46.5 90t142.5 41q95 0 169 -35v-107h-82
l-14 47q-34 12 -72 12q-72 0 -72 -34q0 -14 15.5 -23t53.5 -20l60 -19q66 -21 97 -50t31 -73zM176 267q-17 -15 -17 -33q0 -29 53 -47l78 -25q16 14 16 30q0 36 -65 55z" />
    <glyph glyph-name="paragraph.sc" horiz-adv-x="481" 
d="M178 342h98v-336h-97v100q-152 2 -152 118q0 118 151 118zM316 -170l-63 63q60 44 60 88v361h96v-338q0 -117 -93 -174z" />
    <glyph glyph-name="parenleft.sc" horiz-adv-x="275" 
d="M244 -74l-80 -33q-121 159 -121 348q0 99 30.5 179t90.5 168l81 -32q-88 -174 -88 -315q0 -157 87 -315z" />
    <glyph glyph-name="slash.sc" horiz-adv-x="331" 
d="M303 503v-10l-166 -493h-108v11l163 492h111z" />
    <glyph glyph-name="parenright.sc" horiz-adv-x="275" 
d="M31 -74q87 158 87 315q0 142 -89 315l82 32q60 -88 90 -168t30 -179q0 -191 -120 -348z" />
    <glyph glyph-name="bracketleft.sc" horiz-adv-x="324" 
d="M76 582h210v-89h-96v-506h96v-89h-210v684z" />
    <glyph glyph-name="backslash.sc" horiz-adv-x="336" 
d="M27 493v10h111l169 -492v-11h-108z" />
    <glyph glyph-name="bracketright.sc" horiz-adv-x="325" 
d="M38 582h211v-684h-211v89h97v506h-97v89z" />
    <glyph glyph-name="braceleft.sc" horiz-adv-x="300" 
d="M214 461v-128q0 -75 -88 -93q17 -3 34.5 -10t35.5 -28t18 -52v-135q0 -23 8.5 -29.5t31.5 -7.5v-80q-83 0 -118.5 24.5t-35.5 83.5v132q0 34 -25 48t-52 14v80q25 0 51 15.5t26 50.5v128q0 59 36 83.5t118 24.5v-80q-22 0 -31 -8.5t-9 -32.5z" />
    <glyph glyph-name="bar.sc" horiz-adv-x="216" 
d="M140 -102h-64v684h64v-684z" />
    <glyph glyph-name="braceright.sc" horiz-adv-x="300" 
d="M87 333v128q0 23 -10.5 32t-30.5 9v80q83 0 118.5 -24.5t35.5 -83.5v-128q0 -35 26 -50.5t51 -15.5v-80q-27 0 -52 -14t-25 -48v-132q0 -59 -35.5 -83.5t-118.5 -24.5v80q15 1 22.5 2.5t13 8.5t5.5 20v141q0 44 28.5 64.5t58.5 25.5q-87 18 -87 93z" />
    <glyph glyph-name="zero.sc" horiz-adv-x="510" 
d="M162 250q0 -85 21.5 -123.5t74.5 -38.5q51 0 72 39t21 123q0 86 -22 127.5t-75 41.5q-51 0 -71.5 -41t-20.5 -128zM468 250q0 -128 -50.5 -193t-162.5 -65q-111 0 -161.5 65t-50.5 193q0 130 50.5 197.5t164.5 67.5q110 0 160 -67t50 -198z" />
    <glyph glyph-name="one.sc" horiz-adv-x="410" 
d="M47 0v89h128v306l-120 -45l-23 86l161 71h96v-418h105v-89h-347z" />
    <glyph glyph-name="two.sc" horiz-adv-x="457" 
d="M414 147v-147h-369v80q72 58 160 143q39 37 58.5 66.5t19.5 68.5q0 28 -17.5 45t-46.5 17t-46 -16.5t-17 -43.5q0 -20 5 -38l-113 -9q-6 19 -6 48q0 67 45.5 110.5t133.5 43.5t133.5 -44.5t45.5 -114.5q0 -29 -10 -55.5t-31.5 -52.5t-38 -42t-46.5 -42q-35 -32 -89 -75
h138v58h91z" />
    <glyph glyph-name="three.sc" horiz-adv-x="445" 
d="M136 356h-81l-11 110q65 49 163 49q95 0 137 -44.5t42 -97.5q0 -95 -87 -121q45 -8 75 -35t30 -78q0 -69 -51 -108t-149 -39q-105 0 -176 54l52 85q58 -44 124 -44q41 0 61.5 15.5t20.5 40.5q0 29 -22 42t-73 13h-61v97h56q40 0 62.5 17t22.5 48q0 26 -17 42.5t-52 16.5
q-38 0 -66 -14v-49z" />
    <glyph glyph-name="four.sc" horiz-adv-x="476" 
d="M448 187v-90h-72v-97h-111v97h-245v80l174 248q13 19 25 39.5t18 31.5l6 11h133v-320h72zM140 187h125v185z" />
    <glyph glyph-name="five.sc" horiz-adv-x="445" 
d="M34 36l11 118h91v-55q28 -12 62 -12q91 0 91 73q0 35 -23.5 55t-68.5 20q-49 0 -110 -18l-32 15l36 275h295v-97h-205l-13 -90q36 10 78 10q75 0 118 -45t43 -120q0 -81 -55 -127t-153 -46q-97 0 -165 44z" />
    <glyph glyph-name="six.sc" horiz-adv-x="476" 
d="M279 419q-63 0 -92.5 -37t-29.5 -91v-8q40 45 110 45q80 0 125.5 -43t45.5 -121q0 -81 -49.5 -126.5t-148.5 -45.5q-96 0 -147 62t-51 186q0 275 238 275q71 0 148 -36l-36 -89q-65 29 -113 29zM245 87q39 0 58.5 19.5t19.5 50.5t-19 49t-56 18q-49 0 -87 -36
q0 -45 20.5 -73t63.5 -28z" />
    <glyph glyph-name="seven.sc" horiz-adv-x="424" 
d="M77 0l197 418h-135v-96h-105v185h376v-75q-26 -42 -66 -127l-138 -305h-129z" />
    <glyph glyph-name="eight.sc" horiz-adv-x="484" 
d="M428 374q0 -66 -68 -105q82 -42 82 -128q0 -67 -54.5 -108t-146.5 -41q-89 0 -143.5 39.5t-54.5 106.5q0 72 69 111q-56 42 -56 113q0 67 51 110t135 43q88 0 137 -39.5t49 -101.5zM265 188l-83 27q-26 -31 -26 -62q0 -30 23 -48t68 -18q39 0 58.5 13.5t19.5 33.5
q0 33 -60 54zM167 373q0 -33 46 -49l67 -25q37 25 37 61q0 26 -21.5 44.5t-60.5 18.5q-32 0 -50 -13.5t-18 -36.5z" />
    <glyph glyph-name="nine.sc" horiz-adv-x="474" 
d="M197 87q121 0 121 118q0 7 -1 11q-36 -45 -113 -45q-74 0 -118.5 44t-44.5 122q0 81 48.5 129.5t137.5 48.5q57 0 98.5 -22t64 -59.5t33 -81t10.5 -94.5q0 -134 -57.5 -200t-178.5 -66q-40 0 -82.5 12.5t-68.5 31.5l35 89q61 -38 116 -38zM229 419q-36 0 -55 -19.5
t-19 -50.5q0 -73 79 -73q45 0 80 35q0 48 -21.5 78t-63.5 30z" />
    <glyph glyph-name="question.sc" horiz-adv-x="399" 
d="M139 347h-89l-19 114q72 54 162 54q80 0 126.5 -36.5t46.5 -94.5q0 -33 -11.5 -59t-34 -43t-38.5 -25.5t-41 -19.5v-63h-102v112q110 29 110 89q0 44 -59 44q-27 0 -51 -12v-60zM189 -4q-29 0 -49 18t-20 45q0 28 20 46t49 18q31 0 50.5 -18t19.5 -46q0 -27 -19.5 -45
t-50.5 -18z" />
    <glyph glyph-name="a.sc" horiz-adv-x="573" 
d="M336 0v89h58l-22 57h-172l-22 -57h58v-89h-224v89h46l130 329h-45v89h285v-89h-43l130 -329h45v-89h-224zM225 234h124l-63 161z" />
    <glyph glyph-name="b.sc" horiz-adv-x="529" 
d="M45 0v89h53v329h-53v89h249q167 0 167 -139q0 -35 -19 -62t-48 -37q38 -8 65 -44.5t27 -83.5q0 -141 -192 -141h-249zM212 89h80q79 0 79 63q0 64 -79 64h-80v-127zM212 306h67q34 0 50.5 15.5t16.5 39.5q0 57 -67 57h-67v-112z" />
    <glyph glyph-name="c.sc" horiz-adv-x="509" 
d="M159 255q0 -73 34.5 -115.5t102.5 -42.5q75 0 147 25l24 -94q-92 -36 -178 -36q-121 0 -184.5 67t-63.5 196q0 260 251 260q87 0 174 -31l-8 -183h-102l1 107q-30 6 -68 6q-72 0 -101 -40.5t-29 -118.5z" />
    <glyph glyph-name="d.sc" horiz-adv-x="569" 
d="M99 89v329h-55v89h197q158 0 221 -57.5t63 -195.5q0 -137 -63 -195.5t-221 -58.5h-197v89h55zM212 89h48q86 0 118.5 36.5t32.5 129.5q0 89 -35 126t-116 37h-48v-329z" />
    <glyph glyph-name="e.sc" horiz-adv-x="509" 
d="M359 159h103v-159h-418v89h54v329h-54v89h416v-162h-105v73h-144v-120h152v-91h-152v-118h148v70z" />
    <glyph glyph-name="f.sc" horiz-adv-x="471" 
d="M45 0v89h53v329h-53v89h398v-172h-104v83h-128v-138h155v-92h-155v-99h99v-89h-265z" />
    <glyph glyph-name="g.sc" horiz-adv-x="553" 
d="M480 324h-102l1 82q-40 7 -77 7q-76 0 -108 -41t-32 -118q0 -162 146 -162q52 0 89 8v68h-120v92h226v-234q-88 -34 -200 -34q-125 0 -193.5 67.5t-68.5 195.5q0 260 266 260q82 0 181 -31z" />
    <glyph glyph-name="h.sc" horiz-adv-x="633" 
d="M357 418v89h230v-89h-51v-329h51v-89h-230v89h67v123h-213v-123h67v-89h-233v89h52v329h-52v89h233v-89h-67v-110h213v110h-67z" />
    <glyph glyph-name="i.sc" horiz-adv-x="317" 
d="M42 0v89h61v329h-61v89h233v-89h-59v-329h59v-89h-233z" />
    <glyph glyph-name="j.sc" horiz-adv-x="292" 
d="M25 418v89h231v-89h-51v-398q0 -127 -112 -191l-68 73q34 22 51 45t17 64v407h-68z" />
    <glyph glyph-name="k.sc" horiz-adv-x="577" 
d="M226 262l134 156h-57v89h239v-89h-58l-127 -154l131 -175h59v-89h-243v89h52zM215 418v-329h44v-89h-214v89h52v329h-52v89h214v-89h-44z" />
    <glyph glyph-name="l.sc" horiz-adv-x="463" 
d="M333 186h102v-186h-390v89h53v329h-53v89h222v-89h-56v-329h122v97z" />
    <glyph glyph-name="m.sc" horiz-adv-x="763" 
d="M380 124l101 383h212v-89h-48l34 -329h56v-89h-216v89h55l-29 296l-106 -385h-122l-99 380l-32 -291h53v-89h-211v89h52l39 329h-49v89h214z" />
    <glyph glyph-name="n.sc" horiz-adv-x="627" 
d="M354 418v89h236v-89h-50v-418h-113l-217 331v-242h81v-89h-246v89h51v329h-51v89h168l214 -330v241h-73z" />
    <glyph glyph-name="o.sc" horiz-adv-x="548" 
d="M165 253q0 -79 23.5 -121.5t86.5 -42.5q62 0 85.5 42.5t23.5 121.5t-24 121.5t-85 42.5t-85.5 -42.5t-24.5 -121.5zM507 253q0 -119 -55.5 -190t-178.5 -71q-231 0 -231 261q0 263 233 263q232 0 232 -263z" />
    <glyph glyph-name="p.sc" horiz-adv-x="512" 
d="M215 419v-330h94v-89h-264v89h52v329h-52v89h239q202 0 202 -167q0 -164 -202 -164h-27v92h35q74 0 74 72q0 79 -74 79h-77z" />
    <glyph glyph-name="q.sc" horiz-adv-x="586" 
d="M326 112q44 -34 64 -82q-53 -38 -116 -38q-122 0 -177.5 71t-55.5 190q0 120 55.5 191.5t178.5 71.5q122 0 177.5 -71.5t55.5 -191.5q0 -65 -16 -116q50 -62 72 -137h-114q-11 27 -28 54t-46 58.5t-73 51.5t-96 20q-10 0 -32 -2q16 -87 100 -87q31 0 51 17zM276 412
q-55 0 -79.5 -35.5t-27.5 -102.5q30 2 46 2q87 0 165 -43q1 6 1 20q0 77 -23 118t-82 41z" />
    <glyph glyph-name="r.sc" horiz-adv-x="559" 
d="M98 89v329h-53v89h248q199 0 199 -150q0 -50 -28 -85t-78 -49q29 -22 55.5 -61.5t39.5 -72.5h56v-89h-222v89h43q-31 81 -86 121h-60v-121h46v-89h-213v89h53zM377 356q0 62 -77 62h-88v-121h82q83 0 83 59z" />
    <glyph glyph-name="s.sc" horiz-adv-x="470" 
d="M410 339h-95l-16 80q-33 7 -61 7q-32 0 -49.5 -15t-17.5 -37q0 -37 44 -51l81 -28q76 -26 104.5 -63t28.5 -93q0 -57 -48 -102t-144 -45q-106 0 -188 37l-6 139h96l23 -79q25 -10 74 -10q72 0 72 54q0 36 -48 52l-81 26q-73 24 -100.5 61t-27.5 96t45.5 103.5t141.5 44.5
q94 0 172 -39v-138z" />
    <glyph glyph-name="t.sc" horiz-adv-x="499" 
d="M28 507h444v-171h-94v82h-74v-329h70v-89h-254v89h72v329h-71v-82h-93v171z" />
    <glyph glyph-name="u.sc" horiz-adv-x="573" 
d="M545 418h-50v-225q0 -102 -55.5 -151t-152.5 -49t-153 49t-56 151v225h-50v89h228v-89h-66v-225q0 -103 96 -103q97 0 97 103v225h-64v89h226v-89z" />
    <glyph glyph-name="v.sc" horiz-adv-x="566" 
d="M320 418v89h237v-89h-55l-143 -418h-153l-142 418h-52v89h236v-89h-65l101 -310l98 310h-62z" />
    <glyph glyph-name="w.sc" horiz-adv-x="800" 
d="M546 418v89h239v-89h-49l-106 -418h-138l-93 276l-91 -276h-138l-107 418h-50v89h224v-89h-57l65 -303l102 292l-38 100h131l116 -392l67 303h-77z" />
    <glyph glyph-name="x.sc" horiz-adv-x="568" 
d="M33 418v89h221v-89h-39l69 -90l68 90h-39v89h218v-89h-53l-129 -158l140 -171h52v-89h-226v89h44l-76 94l-75 -94h45v-89h-223v89h52l134 171l-128 158h-55z" />
    <glyph glyph-name="y.sc" horiz-adv-x="538" 
d="M12 418v89h226v-89h-56l88 -137l88 137h-56v89h228v-89h-54l-150 -224v-105h60v-89h-240v89h66v105l-147 224h-53z" />
    <glyph glyph-name="z.sc" horiz-adv-x="505" 
d="M454 507v-81l-267 -337h169v117h101v-206h-412v80l267 337h-161v-85h-102v175h405z" />
    <glyph glyph-name="agrave.sc" horiz-adv-x="573" 
d="M336 0v89h58l-22 57h-172l-22 -57h58v-89h-224v89h46l130 329h-45v89h285v-89h-43l130 -329h45v-89h-224zM225 234h124l-63 161zM155 726h115l73 -163h-101z" />
    <glyph glyph-name="aacute.sc" horiz-adv-x="573" 
d="M336 0v89h58l-22 57h-172l-22 -57h58v-89h-224v89h46l130 329h-45v89h285v-89h-43l130 -329h45v-89h-224zM225 234h124l-63 161zM302 726h115l-87 -163h-101z" />
    <glyph glyph-name="acircumflex.sc" horiz-adv-x="573" 
d="M336 0v89h58l-22 57h-172l-22 -57h58v-89h-224v89h46l130 329h-45v89h285v-89h-43l130 -329h45v-89h-224zM225 234h124l-63 161zM214 726h144l85 -163h-101l-56 106l-56 -106h-102z" />
    <glyph glyph-name="atilde.sc" horiz-adv-x="573" 
d="M336 0v89h58l-22 57h-172l-22 -57h58v-89h-224v89h46l130 329h-45v89h285v-89h-43l130 -329h45v-89h-224zM225 234h124l-63 161zM434 680l-2 -85q-39 25 -73 25q-25 0 -73 -20.5t-78 -20.5q-43 0 -70 23l2 84q26 -24 68 -24q23 0 68.5 20t82.5 20q39 0 75 -22z" />
    <glyph glyph-name="adieresis.sc" horiz-adv-x="573" 
d="M336 0v89h58l-22 57h-172l-22 -57h58v-89h-224v89h46l130 329h-45v89h285v-89h-43l130 -329h45v-89h-224zM225 234h124l-63 161zM189 567q-70 0 -70 67q0 34 19 51.5t51 17.5q29 0 49 -17.5t20 -51.5t-20 -50.5t-49 -16.5zM383 567q-70 0 -70 67q0 34 19 51.5t51 17.5
q29 0 49 -17.5t20 -51.5t-20 -50.5t-49 -16.5z" />
    <glyph glyph-name="amacron.sc" horiz-adv-x="573" 
d="M336 0v89h58l-22 57h-172l-22 -57h58v-89h-224v89h46l130 329h-45v89h285v-89h-43l130 -329h45v-89h-224zM225 234h124l-63 161zM137 673h297v-92h-297v92z" />
    <glyph glyph-name="abreve.sc" horiz-adv-x="573" 
d="M336 0v89h58l-22 57h-172l-22 -57h58v-89h-224v89h46l130 329h-45v89h285v-89h-43l130 -329h45v-89h-224zM225 234h124l-63 161zM362 707h75q0 -66 -40 -108t-113 -42q-70 0 -109 42.5t-39 107.5h73q4 -29 24.5 -48t50.5 -19q32 0 52.5 18.5t25.5 48.5z" />
    <glyph glyph-name="aring.sc" horiz-adv-x="573" 
d="M336 0v89h58l-22 57h-172l-22 -57h58v-89h-224v89h46l130 329h-45v89h285v-89h-43l130 -329h45v-89h-224zM225 234h124l-63 161zM178 648q0 42 28 71t78 29q53 0 82 -29t29 -71q0 -40 -29.5 -69t-81.5 -29q-50 0 -78 29t-28 69zM243 648q0 -17 11 -28.5t30 -11.5
q21 0 33 11.5t12 28.5q0 18 -12 30t-33 12q-19 0 -30 -12t-11 -30z" />
    <glyph glyph-name="aringacute.sc" horiz-adv-x="573" 
d="M336 0v89h58l-22 57h-172l-22 -57h58v-89h-224v89h46l130 329h-45v89h285v-89h-43l130 -329h45v-89h-224zM177 648q0 31 16.5 55.5t45.5 35.5l55 87h115l-67 -91q53 -28 53 -87q0 -40 -29.5 -69t-81.5 -29q-50 0 -78.5 29t-28.5 69zM225 234h124l-63 161zM242 648
q0 -17 11.5 -28.5t30.5 -11.5q21 0 32.5 11.5t11.5 28.5q0 18 -11.5 30t-32.5 12q-19 0 -30.5 -12.5t-11.5 -29.5z" />
    <glyph glyph-name="aogonek.sc" horiz-adv-x="573" 
d="M336 0v89h58l-22 57h-172l-22 -57h58v-89h-224v89h46l130 329h-45v89h285v-89h-43l130 -329h45v-89h-50l-86 -52q-29 -18 -29 -38q0 -24 29 -24t59 15l3 -80q-22 -12 -53 -16q-16 -3 -37 -1q-114 3 -114 83q0 54 56 84l54 29h-56zM225 234h124l-63 161z" />
    <glyph glyph-name="ae.sc" horiz-adv-x="803" 
d="M251 507h504v-161h-105v72h-144v-120h152v-91h-152v-118h148v69h103v-158h-424v89h60v54h-168l-41 -54h48v-89h-223v89h45l242 329h-45v89zM277 233h116v166z" />
    <glyph glyph-name="aeacute.sc" horiz-adv-x="803" 
d="M251 507h504v-161h-105v72h-144v-120h152v-91h-152v-118h148v69h103v-158h-424v89h60v54h-168l-41 -54h48v-89h-223v89h45l242 329h-45v89zM277 233h116v166zM515 726h115l-87 -163h-101z" />
    <glyph glyph-name="cacute.sc" horiz-adv-x="509" 
d="M159 255q0 -73 34.5 -115.5t102.5 -42.5q75 0 147 25l24 -94q-92 -36 -178 -36q-121 0 -184.5 67t-63.5 196q0 260 251 260q87 0 174 -31l-8 -183h-102l1 107q-30 6 -68 6q-72 0 -101 -40.5t-29 -118.5zM302 726h115l-87 -163h-101z" />
    <glyph glyph-name="ccircumflex.sc" horiz-adv-x="509" 
d="M159 255q0 -73 34.5 -115.5t102.5 -42.5q75 0 147 25l24 -94q-92 -36 -178 -36q-121 0 -184.5 67t-63.5 196q0 260 251 260q87 0 174 -31l-8 -183h-102l1 107q-30 6 -68 6q-72 0 -101 -40.5t-29 -118.5zM213 726h144l85 -163h-101l-56 106l-56 -106h-102z" />
    <glyph glyph-name="ccaron.sc" horiz-adv-x="509" 
d="M159 255q0 -73 34.5 -115.5t102.5 -42.5q75 0 147 25l24 -94q-92 -36 -178 -36q-121 0 -184.5 67t-63.5 196q0 260 251 260q87 0 174 -31l-8 -183h-102l1 107q-30 6 -68 6q-72 0 -101 -40.5t-29 -118.5zM357 563h-144l-86 163h102l56 -106l56 106h101z" />
    <glyph glyph-name="cdotaccent.sc" horiz-adv-x="509" 
d="M159 255q0 -73 34.5 -115.5t102.5 -42.5q75 0 147 25l24 -94q-92 -36 -178 -36q-121 0 -184.5 67t-63.5 196q0 260 251 260q87 0 174 -31l-8 -183h-102l1 107q-30 6 -68 6q-72 0 -101 -40.5t-29 -118.5zM286 567q-70 0 -70 67q0 34 19 51.5t51 17.5q29 0 49 -17.5
t20 -51.5t-20 -50.5t-49 -16.5z" />
    <glyph glyph-name="ccedilla.sc" horiz-adv-x="508" 
d="M158 255q0 -73 35 -115.5t102 -42.5q75 0 147 25l24 -94q-85 -33 -152 -35l-18 -48q12 4 32 4q30 0 52 -19.5t22 -50.5q0 -37 -28.5 -58t-83.5 -21q-41 0 -102 23l10 51q49 -25 85 -25q38 0 38 31q0 29 -30 29q-17 0 -28 -9q-28 11 -40 16l30 78q-104 9 -158 75t-54 186
q0 260 250 260q87 0 174 -31l-8 -183h-101v107q-30 6 -68 6q-72 0 -101 -40.5t-29 -118.5z" />
    <glyph glyph-name="dcaron.sc" horiz-adv-x="569" 
d="M99 89v329h-55v89h197q158 0 221 -57.5t63 -195.5q0 -137 -63 -195.5t-221 -58.5h-197v89h55zM212 89h48q86 0 118.5 36.5t32.5 129.5q0 89 -35 126t-116 37h-48v-329zM340 563h-144l-86 163h102l56 -106l56 106h101z" />
    <glyph glyph-name="dcroat.sc" horiz-adv-x="576" 
d="M107 89v129h-57v69h57v131h-55v89h197q158 0 221 -57.5t63 -195.5q0 -137 -63.5 -195.5t-220.5 -58.5h-197v89h55zM220 89h47q86 0 118.5 36.5t32.5 129.5q0 89 -35 126t-116 37h-47v-131h88v-69h-88v-129z" />
    <glyph glyph-name="eth.sc" horiz-adv-x="576" 
d="M107 89v129h-57v69h57v131h-55v89h197q158 0 221 -57.5t63 -195.5q0 -137 -63.5 -195.5t-220.5 -58.5h-197v89h55zM220 89h47q86 0 118.5 36.5t32.5 129.5q0 89 -35 126t-116 37h-47v-131h88v-69h-88v-129z" />
    <glyph glyph-name="egrave.sc" horiz-adv-x="509" 
d="M359 159h103v-159h-418v89h54v329h-54v89h416v-162h-105v73h-144v-120h152v-91h-152v-118h148v70zM132 726h115l73 -163h-101z" />
    <glyph glyph-name="eacute.sc" horiz-adv-x="509" 
d="M359 159h103v-159h-418v89h54v329h-54v89h416v-162h-105v73h-144v-120h152v-91h-152v-118h148v70zM275 726h115l-87 -163h-101z" />
    <glyph glyph-name="ecircumflex.sc" horiz-adv-x="509" 
d="M359 159h103v-159h-418v89h54v329h-54v89h416v-162h-105v73h-144v-120h152v-91h-152v-118h148v70zM186 726h144l85 -163h-101l-56 106l-56 -106h-102z" />
    <glyph glyph-name="ecaron.sc" horiz-adv-x="509" 
d="M359 159h103v-159h-418v89h54v329h-54v89h416v-162h-105v73h-144v-120h152v-91h-152v-118h148v70zM330 563h-144l-86 163h102l56 -106l56 106h101z" />
    <glyph glyph-name="edieresis.sc" horiz-adv-x="509" 
d="M359 159h103v-159h-418v89h54v329h-54v89h416v-162h-105v73h-144v-120h152v-91h-152v-118h148v70zM162 567q-70 0 -70 67q0 34 19 51.5t51 17.5q29 0 49 -17.5t20 -51.5t-20 -50.5t-49 -16.5zM356 567q-70 0 -70 67q0 34 19 51.5t51 17.5q29 0 49 -17.5t20 -51.5
t-20 -50.5t-49 -16.5z" />
    <glyph glyph-name="emacron.sc" horiz-adv-x="509" 
d="M359 159h103v-159h-418v89h54v329h-54v89h416v-162h-105v73h-144v-120h152v-91h-152v-118h148v70zM110 673h297v-92h-297v92z" />
    <glyph glyph-name="ebreve.sc" horiz-adv-x="509" 
d="M359 159h103v-159h-418v89h54v329h-54v89h416v-162h-105v73h-144v-120h152v-91h-152v-118h148v70zM334 707h75q0 -66 -40 -108t-113 -42q-70 0 -109 42.5t-39 107.5h73q4 -29 24.5 -48t50.5 -19q32 0 52.5 18.5t25.5 48.5z" />
    <glyph glyph-name="edotaccent.sc" horiz-adv-x="509" 
d="M359 159h103v-159h-418v89h54v329h-54v89h416v-162h-105v73h-144v-120h152v-91h-152v-118h148v70zM259 567q-70 0 -70 67q0 34 19 51.5t51 17.5q29 0 49 -17.5t20 -51.5t-20 -50.5t-49 -16.5z" />
    <glyph glyph-name="eogonek.sc" horiz-adv-x="509" 
d="M359 159h103v-159l-86 -52q-29 -18 -29 -38q0 -24 29 -24t59 15l3 -80q-36 -18 -84 -18q-57 0 -88.5 21.5t-31.5 62.5q0 54 56 84l54 29h-300v89h54v329h-54v89h416v-162h-105v73h-144v-120h152v-91h-152v-118h148v70z" />
    <glyph glyph-name="gcircumflex.sc" horiz-adv-x="553" 
d="M480 324h-102l1 82q-40 7 -77 7q-76 0 -108 -41t-32 -118q0 -162 146 -162q52 0 89 8v68h-120v92h226v-234q-88 -34 -200 -34q-125 0 -193.5 67.5t-68.5 195.5q0 260 266 260q82 0 181 -31zM228 726h144l85 -163h-101l-56 106l-56 -106h-102z" />
    <glyph glyph-name="gbreve.sc" horiz-adv-x="553" 
d="M480 324h-102l1 82q-40 7 -77 7q-76 0 -108 -41t-32 -118q0 -162 146 -162q52 0 89 8v68h-120v92h226v-234q-88 -34 -200 -34q-125 0 -193.5 67.5t-68.5 195.5q0 260 266 260q82 0 181 -31zM376 707h75q0 -66 -40 -108t-113 -42q-70 0 -109 42.5t-39 107.5h73
q4 -29 24.5 -48t50.5 -19q32 0 52.5 18.5t25.5 48.5z" />
    <glyph glyph-name="gdotaccent.sc" horiz-adv-x="553" 
d="M480 324h-102l1 82q-40 7 -77 7q-76 0 -108 -41t-32 -118q0 -162 146 -162q52 0 89 8v68h-120v92h226v-234q-88 -34 -200 -34q-125 0 -193.5 67.5t-68.5 195.5q0 260 266 260q82 0 181 -31zM301 567q-70 0 -70 67q0 34 19 51.5t51 17.5q29 0 49 -17.5t20 -51.5t-20 -50.5
t-49 -16.5z" />
    <glyph glyph-name="gcommaaccent.sc" horiz-adv-x="553" 
d="M480 324h-102l1 82q-40 7 -77 7q-76 0 -108 -41t-32 -118q0 -162 146 -162q52 0 89 8v68h-120v92h226v-234q-88 -34 -200 -34q-125 0 -193.5 67.5t-68.5 195.5q0 260 266 260q82 0 181 -31zM370 -63l-63 -153h-85l25 153h123z" />
    <glyph glyph-name="hcircumflex.sc" horiz-adv-x="633" 
d="M357 418v89h230v-89h-51v-329h51v-89h-230v89h67v123h-213v-123h67v-89h-233v89h52v329h-52v89h233v-89h-67v-110h213v110h-67zM246 726h144l85 -163h-101l-56 106l-56 -106h-102z" />
    <glyph glyph-name="hbar.sc" horiz-adv-x="633" 
d="M45 383h52v35h-52v89h236v-89h-70v-35h213v35h-70v89h233v-89h-51v-35h51v-44h-51v-250h51v-89h-233v89h70v123h-213v-123h70v-89h-236v89h52v250h-52v44zM211 308h213v31h-213v-31z" />
    <glyph glyph-name="igrave.sc" horiz-adv-x="317" 
d="M42 0v89h61v329h-61v89h233v-89h-59v-329h59v-89h-233zM30 726h115l73 -163h-101z" />
    <glyph glyph-name="iacute.sc" horiz-adv-x="317" 
d="M42 0v89h61v329h-61v89h233v-89h-59v-329h59v-89h-233zM180 726h115l-87 -163h-101z" />
    <glyph glyph-name="ibreve.sc" horiz-adv-x="317" 
d="M42 0v89h61v329h-61v89h233v-89h-59v-329h59v-89h-233zM235 707h75q0 -66 -40 -108t-113 -42q-70 0 -109 42.5t-39 107.5h73q4 -29 24.5 -48t50.5 -19q32 0 52.5 18.5t25.5 48.5z" />
    <glyph glyph-name="icircumflex.sc" horiz-adv-x="317" 
d="M42 0v89h61v329h-61v89h233v-89h-59v-329h59v-89h-233zM87 726h144l85 -163h-101l-56 106l-56 -106h-102z" />
    <glyph glyph-name="itilde.sc" horiz-adv-x="317" 
d="M42 0v89h61v329h-61v89h233v-89h-59v-329h59v-89h-233zM307 680l-2 -85q-39 25 -73 25q-25 0 -73 -20.5t-78 -20.5q-43 0 -70 23l2 84q26 -24 68 -24q23 0 68.5 20t82.5 20q39 0 75 -22z" />
    <glyph glyph-name="idieresis.sc" horiz-adv-x="317" 
d="M42 0v89h61v329h-61v89h233v-89h-59v-329h59v-89h-233zM63 567q-70 0 -70 67q0 34 19 51.5t51 17.5q29 0 49 -17.5t20 -51.5t-20 -50.5t-49 -16.5zM257 567q-70 0 -70 67q0 34 19 51.5t51 17.5q29 0 49 -17.5t20 -51.5t-20 -50.5t-49 -16.5z" />
    <glyph glyph-name="imacron.sc" horiz-adv-x="317" 
d="M42 0v89h61v329h-61v89h233v-89h-59v-329h59v-89h-233zM11 673h297v-92h-297v92z" />
    <glyph glyph-name="idotaccent.sc" horiz-adv-x="317" 
d="M42 0v89h61v329h-61v89h233v-89h-59v-329h59v-89h-233zM160 567q-70 0 -70 67q0 34 19 51.5t51 17.5q29 0 49 -17.5t20 -51.5t-20 -50.5t-49 -16.5z" />
    <glyph glyph-name="iogonek.sc" horiz-adv-x="317" 
d="M42 0v89h61v329h-61v89h233v-89h-59v-329h59v-89h-52l-86 -52q-29 -18 -29 -38q0 -24 29 -24t59 15l2 -80q-36 -18 -83 -18q-57 0 -88.5 21.5t-31.5 62.5q0 54 56 84l54 29h-63z" />
    <glyph glyph-name="jcircumflex.sc" horiz-adv-x="292" 
d="M25 418v89h231v-89h-51v-398q0 -127 -112 -191l-68 73q34 22 51 45t17 64v407h-68zM74 726h144l85 -163h-101l-56 106l-56 -106h-102z" />
    <glyph glyph-name="kcommaaccent.sc" horiz-adv-x="577" 
d="M227 262l134 156h-57v89h239v-89h-58l-127 -154l131 -175h59v-89h-243v89h52zM216 418v-329h44v-89h-214v89h52v329h-52v89h214v-89h-44zM357 -63l-63 -153h-85l25 153h123z" />
    <glyph glyph-name="lacute.sc" horiz-adv-x="463" 
d="M333 186h102v-186h-390v89h53v329h-53v89h222v-89h-56v-329h122v97zM176 726h115l-87 -163h-101z" />
    <glyph glyph-name="lcaron.sc" horiz-adv-x="476" 
d="M333 186h102v-186h-390v89h53v329h-53v89h222v-89h-56v-329h122v97zM460 507l-63 -169h-85l25 169h123z" />
    <glyph glyph-name="lcommaaccent.sc" horiz-adv-x="462" 
d="M332 186h102v-186h-390v89h53v329h-53v89h222v-89h-56v-329h122v97zM304 -63l-63 -153h-85l25 153h123z" />
    <glyph glyph-name="lslash.sc" horiz-adv-x="471" 
d="M52 254l54 23v141h-53v89h222v-89h-55v-97l55 23v-89l-55 -24v-142h121v97h102v-186h-390v89h53v98l-54 -22v89z" />
    <glyph glyph-name="ldot.sc" horiz-adv-x="463" 
d="M333 186h102v-186h-390v89h53v329h-53v89h222v-89h-56v-329h122v97zM343 230q-70 0 -70 67q0 35 19 52t51 17q29 0 49 -17.5t20 -51.5t-20 -50.5t-49 -16.5z" />
    <glyph glyph-name="nacute.sc" horiz-adv-x="627" 
d="M354 418v89h236v-89h-50v-418h-113l-217 331v-242h81v-89h-246v89h51v329h-51v89h168l214 -330v241h-73zM338 726h115l-87 -163h-101z" />
    <glyph glyph-name="ncaron.sc" horiz-adv-x="627" 
d="M354 418v89h236v-89h-50v-418h-113l-217 331v-242h81v-89h-246v89h51v329h-51v89h168l214 -330v241h-73zM391 563h-144l-86 163h102l56 -106l56 106h101z" />
    <glyph glyph-name="ntilde.sc" horiz-adv-x="627" 
d="M354 418v89h236v-89h-50v-418h-113l-217 331v-242h81v-89h-246v89h51v329h-51v89h168l214 -330v241h-73zM468 680l-2 -85q-39 25 -73 25q-25 0 -73 -20.5t-78 -20.5q-43 0 -70 23l2 84q26 -24 68 -24q23 0 68.5 20t82.5 20q39 0 75 -22z" />
    <glyph glyph-name="ncommaaccent.sc" horiz-adv-x="628" 
d="M355 418v89h236v-89h-50v-418h-113l-217 331v-242h81v-89h-246v89h51v329h-51v89h168l214 -330v241h-73zM386 -63l-63 -153h-85l25 153h123z" />
    <glyph glyph-name="ograve.sc" horiz-adv-x="548" 
d="M165 253q0 -79 23.5 -121.5t86.5 -42.5q62 0 85.5 42.5t23.5 121.5t-24 121.5t-85 42.5t-85.5 -42.5t-24.5 -121.5zM507 253q0 -119 -55.5 -190t-178.5 -71q-231 0 -231 261q0 263 233 263q232 0 232 -263zM144 726h115l73 -163h-101z" />
    <glyph glyph-name="oacute.sc" horiz-adv-x="548" 
d="M165 253q0 -79 23.5 -121.5t86.5 -42.5q62 0 85.5 42.5t23.5 121.5t-24 121.5t-85 42.5t-85.5 -42.5t-24.5 -121.5zM507 253q0 -119 -55.5 -190t-178.5 -71q-231 0 -231 261q0 263 233 263q232 0 232 -263zM291 726h115l-87 -163h-101z" />
    <glyph glyph-name="ocircumflex.sc" horiz-adv-x="548" 
d="M165 253q0 -79 23.5 -121.5t86.5 -42.5q62 0 85.5 42.5t23.5 121.5t-24 121.5t-85 42.5t-85.5 -42.5t-24.5 -121.5zM507 253q0 -119 -55.5 -190t-178.5 -71q-231 0 -231 261q0 263 233 263q232 0 232 -263zM204 726h144l85 -163h-101l-56 106l-56 -106h-102z" />
    <glyph glyph-name="otilde.sc" horiz-adv-x="548" 
d="M165 253q0 -79 23.5 -121.5t86.5 -42.5q62 0 85.5 42.5t23.5 121.5t-24 121.5t-85 42.5t-85.5 -42.5t-24.5 -121.5zM507 253q0 -119 -55.5 -190t-178.5 -71q-231 0 -231 261q0 263 233 263q232 0 232 -263zM424 680l-2 -85q-39 25 -73 25q-25 0 -73 -20.5t-78 -20.5
q-43 0 -70 23l2 84q26 -24 68 -24q23 0 68.5 20t82.5 20q39 0 75 -22z" />
    <glyph glyph-name="odieresis.sc" horiz-adv-x="548" 
d="M165 253q0 -79 23.5 -121.5t86.5 -42.5q62 0 85.5 42.5t23.5 121.5t-24 121.5t-85 42.5t-85.5 -42.5t-24.5 -121.5zM507 253q0 -119 -55.5 -190t-178.5 -71q-231 0 -231 261q0 263 233 263q232 0 232 -263zM179 567q-70 0 -70 67q0 34 19 51.5t51 17.5q29 0 49 -17.5
t20 -51.5t-20 -50.5t-49 -16.5zM373 567q-70 0 -70 67q0 34 19 51.5t51 17.5q29 0 49 -17.5t20 -51.5t-20 -50.5t-49 -16.5z" />
    <glyph glyph-name="omacron.sc" horiz-adv-x="548" 
d="M165 253q0 -79 23.5 -121.5t86.5 -42.5q62 0 85.5 42.5t23.5 121.5t-24 121.5t-85 42.5t-85.5 -42.5t-24.5 -121.5zM507 253q0 -119 -55.5 -190t-178.5 -71q-231 0 -231 261q0 263 233 263q232 0 232 -263zM127 673h297v-92h-297v92z" />
    <glyph glyph-name="obreve.sc" horiz-adv-x="548" 
d="M165 253q0 -79 23.5 -121.5t86.5 -42.5q62 0 85.5 42.5t23.5 121.5t-24 121.5t-85 42.5t-85.5 -42.5t-24.5 -121.5zM507 253q0 -119 -55.5 -190t-178.5 -71q-231 0 -231 261q0 263 233 263q232 0 232 -263zM352 707h75q0 -66 -40 -108t-113 -42q-70 0 -109 42.5
t-39 107.5h73q4 -29 24.5 -48t50.5 -19q32 0 52.5 18.5t25.5 48.5z" />
    <glyph glyph-name="ohungarumlaut.sc" horiz-adv-x="548" 
d="M165 253q0 -79 23.5 -121.5t86.5 -42.5q62 0 85.5 42.5t23.5 121.5t-24 121.5t-85 42.5t-85.5 -42.5t-24.5 -121.5zM507 253q0 -119 -55.5 -190t-178.5 -71q-231 0 -231 261q0 263 233 263q232 0 232 -263zM204 726h115l-87 -163h-101zM382 726h115l-87 -163h-101z" />
    <glyph glyph-name="oslash.sc" horiz-adv-x="549" 
d="M432 534v-12l-19 -43q94 -60 94 -226q0 -120 -55.5 -190.5t-178.5 -70.5q-35 0 -72 7l-11 -24h-68v14l16 37q-96 59 -96 227q0 263 233 263q39 0 74 -9l11 27h72zM384 253q0 75 -25 111l-116 -271q12 -4 32 -4q62 0 85.5 42.5t23.5 121.5zM165 253q0 -79 25 -113l115 273
q-12 4 -30 4q-61 0 -85.5 -42.5t-24.5 -121.5z" />
    <glyph glyph-name="oslashacute.sc" horiz-adv-x="549" 
d="M432 534v-12l-19 -43q94 -60 94 -226q0 -120 -55.5 -190.5t-178.5 -70.5q-35 0 -72 7l-11 -24h-68v14l16 37q-96 59 -96 227q0 263 233 263q39 0 74 -9l11 27h72zM384 253q0 75 -25 111l-116 -271q12 -4 32 -4q62 0 85.5 42.5t23.5 121.5zM165 253q0 -79 25 -113l115 273
q-12 4 -30 4q-61 0 -85.5 -42.5t-24.5 -121.5zM291 726h115l-87 -163h-101z" />
    <glyph glyph-name="oe.sc" horiz-adv-x="745" 
d="M595 164h103v-164h-351q-35 -8 -74 -8q-231 0 -231 261q0 263 233 263q41 0 76 -9h344v-165h-104v76h-145v-120h153v-91h-153v-118h149v75zM275 89q34 0 59 11v306q-25 11 -59 11q-61 0 -85.5 -42.5t-24.5 -121.5t23.5 -121.5t86.5 -42.5z" />
    <glyph glyph-name="racute.sc" horiz-adv-x="559" 
d="M98 89v329h-53v89h248q199 0 199 -150q0 -50 -28 -85t-78 -49q29 -22 55.5 -61.5t39.5 -72.5h56v-89h-222v89h43q-31 81 -86 121h-60v-121h46v-89h-213v89h53zM377 356q0 62 -77 62h-88v-121h82q83 0 83 59zM276 726h115l-87 -163h-101z" />
    <glyph glyph-name="rcaron.sc" horiz-adv-x="559" 
d="M98 89v329h-53v89h248q199 0 199 -150q0 -50 -28 -85t-78 -49q29 -22 55.5 -61.5t39.5 -72.5h56v-89h-222v89h43q-31 81 -86 121h-60v-121h46v-89h-213v89h53zM377 356q0 62 -77 62h-88v-121h82q83 0 83 59zM328 563h-144l-86 163h102l56 -106l56 106h101z" />
    <glyph glyph-name="rcommaaccent.sc" horiz-adv-x="558" 
d="M97 89v329h-53v89h248q199 0 199 -150q0 -50 -28 -85t-78 -49q29 -22 55.5 -61.5t39.5 -72.5h56v-89h-222v89h43q-31 81 -86 121h-60v-121h46v-89h-213v89h53zM376 356q0 62 -77 62h-88v-121h82q83 0 83 59zM352 -63l-63 -153h-85l25 153h123z" />
    <glyph glyph-name="sacute.sc" horiz-adv-x="470" 
d="M410 339h-95l-16 80q-33 7 -61 7q-32 0 -49.5 -15t-17.5 -37q0 -37 44 -51l81 -28q76 -26 104.5 -63t28.5 -93q0 -57 -48 -102t-144 -45q-106 0 -188 37l-6 139h96l23 -79q25 -10 74 -10q72 0 72 54q0 36 -48 52l-81 26q-73 24 -100.5 61t-27.5 96t45.5 103.5t141.5 44.5
q94 0 172 -39v-138zM257 726h115l-87 -163h-101z" />
    <glyph glyph-name="scircumflex.sc" horiz-adv-x="470" 
d="M410 339h-95l-16 80q-33 7 -61 7q-32 0 -49.5 -15t-17.5 -37q0 -37 44 -51l81 -28q76 -26 104.5 -63t28.5 -93q0 -57 -48 -102t-144 -45q-106 0 -188 37l-6 139h96l23 -79q25 -10 74 -10q72 0 72 54q0 36 -48 52l-81 26q-73 24 -100.5 61t-27.5 96t45.5 103.5t141.5 44.5
q94 0 172 -39v-138zM168 726h144l85 -163h-101l-56 106l-56 -106h-102z" />
    <glyph glyph-name="scaron.sc" horiz-adv-x="470" 
d="M410 339h-95l-16 80q-33 7 -61 7q-32 0 -49.5 -15t-17.5 -37q0 -37 44 -51l81 -28q76 -26 104.5 -63t28.5 -93q0 -57 -48 -102t-144 -45q-106 0 -188 37l-6 139h96l23 -79q25 -10 74 -10q72 0 72 54q0 36 -48 52l-81 26q-73 24 -100.5 61t-27.5 96t45.5 103.5t141.5 44.5
q94 0 172 -39v-138zM312 563h-144l-86 163h102l56 -106l56 106h101z" />
    <glyph glyph-name="scedilla.sc" horiz-adv-x="470" 
d="M410 339h-95l-16 80q-33 7 -61 7q-32 0 -49.5 -15t-17.5 -37q0 -37 44 -51l81 -28q76 -26 104.5 -63t28.5 -93q0 -54 -44 -98t-131 -49l-18 -47q12 4 32 4q30 0 52 -19.5t22 -50.5q0 -37 -28.5 -58t-83.5 -21q-41 0 -102 23l10 51q49 -25 85 -25q38 0 38 31q0 29 -30 29
q-17 0 -28 -9q-28 11 -40 16l30 78q-84 6 -144 35l-6 139h96l23 -79q25 -10 74 -10q72 0 72 54q0 36 -48 52l-81 26q-73 24 -100.5 61t-27.5 96t45.5 103.5t141.5 44.5q94 0 172 -39v-138z" />
    <glyph glyph-name="scommaaccent.sc" horiz-adv-x="470" 
d="M410 339h-95l-16 80q-33 7 -61 7q-32 0 -49.5 -15t-17.5 -37q0 -37 44 -51l81 -28q76 -26 104.5 -63t28.5 -93q0 -57 -48 -102t-144 -45q-106 0 -188 37l-6 139h96l23 -79q25 -10 74 -10q72 0 72 54q0 36 -48 52l-81 26q-73 24 -100.5 61t-27.5 96t45.5 103.5t141.5 44.5
q94 0 172 -39v-138zM301 -63l-63 -153h-85l25 153h123z" />
    <glyph glyph-name="tcaron.sc" horiz-adv-x="499" 
d="M28 507h444v-171h-94v82h-74v-329h70v-89h-254v89h72v329h-71v-82h-93v171zM320 563h-144l-86 163h102l56 -106l56 106h101z" />
    <glyph glyph-name="tcommaaccent.sc" horiz-adv-x="499" 
d="M28 507h444v-171h-94v82h-74v-329h70v-89h-101l-21 -54q12 4 32 4q30 0 52 -19.5t22 -50.5q0 -37 -28 -58t-83 -21q-43 0 -102 23l9 51q50 -25 85 -25q38 0 38 31q0 29 -30 29q-15 0 -28 -9q-28 11 -40 16l32 83h-91v89h72v329h-71v-82h-93v171z" />
    <glyph glyph-name="uni021A.sc" horiz-adv-x="499" 
d="M28 507h444v-171h-94v82h-74v-329h70v-89h-254v89h72v329h-71v-82h-93v171zM308 -63l-63 -153h-85l25 153h123z" />
    <glyph glyph-name="tbar.sc" horiz-adv-x="499" 
d="M99 286h94v132h-72v-82h-93v171h444v-171h-94v82h-73v-132h96v-89h-96v-108h71v-89h-254v89h71v108h-94v89z" />
    <glyph glyph-name="thorn.sc" horiz-adv-x="531" 
d="M110 419h-71v88h276v-88h-88v-39h130q149 0 149 -127q0 -64 -35.5 -95t-113.5 -31h-130v-39h88v-88h-275v88h70v331zM398 254q0 38 -41 38h-130v-74h130q41 0 41 36z" />
    <glyph glyph-name="ugrave.sc" horiz-adv-x="573" 
d="M545 418h-50v-225q0 -102 -55.5 -151t-152.5 -49t-153 49t-56 151v225h-50v89h228v-89h-66v-225q0 -103 96 -103q97 0 97 103v225h-64v89h226v-89zM158 726h115l73 -163h-101z" />
    <glyph glyph-name="uacute.sc" horiz-adv-x="573" 
d="M545 418h-50v-225q0 -102 -55.5 -151t-152.5 -49t-153 49t-56 151v225h-50v89h228v-89h-66v-225q0 -103 96 -103q97 0 97 103v225h-64v89h226v-89zM308 726h115l-87 -163h-101z" />
    <glyph glyph-name="ucircumflex.sc" horiz-adv-x="573" 
d="M545 418h-50v-225q0 -102 -55.5 -151t-152.5 -49t-153 49t-56 151v225h-50v89h228v-89h-66v-225q0 -103 96 -103q97 0 97 103v225h-64v89h226v-89zM216 726h144l85 -163h-101l-56 106l-56 -106h-102z" />
    <glyph glyph-name="utilde.sc" horiz-adv-x="573" 
d="M545 418h-50v-225q0 -102 -55.5 -151t-152.5 -49t-153 49t-56 151v225h-50v89h228v-89h-66v-225q0 -103 96 -103q97 0 97 103v225h-64v89h226v-89zM436 680l-2 -85q-39 25 -73 25q-25 0 -73 -20.5t-78 -20.5q-43 0 -70 23l2 84q25 -24 68 -24q23 0 68.5 20t82.5 20
q39 0 75 -22z" />
    <glyph glyph-name="udieresis.sc" horiz-adv-x="573" 
d="M545 418h-50v-225q0 -102 -55.5 -151t-152.5 -49t-153 49t-56 151v225h-50v89h228v-89h-66v-225q0 -103 96 -103q97 0 97 103v225h-64v89h226v-89zM191 567q-70 0 -70 67q0 34 19 51.5t51 17.5q29 0 49 -17.5t20 -51.5t-20 -50.5t-49 -16.5zM385 567q-70 0 -70 67
q0 34 19 51.5t51 17.5q29 0 49 -17.5t20 -51.5t-20 -50.5t-49 -16.5z" />
    <glyph glyph-name="umacron.sc" horiz-adv-x="573" 
d="M545 418h-50v-225q0 -102 -55.5 -151t-152.5 -49t-153 49t-56 151v225h-50v89h228v-89h-66v-225q0 -103 96 -103q97 0 97 103v225h-64v89h226v-89zM139 673h297v-92h-297v92z" />
    <glyph glyph-name="ubreve.sc" horiz-adv-x="573" 
d="M545 418h-50v-225q0 -102 -55.5 -151t-152.5 -49t-153 49t-56 151v225h-50v89h228v-89h-66v-225q0 -103 96 -103q97 0 97 103v225h-64v89h226v-89zM363 707h75q0 -66 -40 -108t-113 -42q-70 0 -109 42.5t-39 107.5h73q4 -29 24.5 -48t50.5 -19q32 0 52.5 18.5t25.5 48.5z
" />
    <glyph glyph-name="uring.sc" horiz-adv-x="573" 
d="M545 418h-50v-225q0 -102 -55.5 -151t-152.5 -49t-153 49t-56 151v225h-50v89h228v-89h-66v-225q0 -103 96 -103q97 0 97 103v225h-64v89h226v-89zM179 648q0 42 28 71t78 29q53 0 82 -29t29 -71q0 -40 -29.5 -69t-81.5 -29q-50 0 -78 29t-28 69zM244 648q0 -17 11 -28.5
t30 -11.5q21 0 33 11.5t12 28.5q0 18 -12 30t-33 12q-19 0 -30 -12t-11 -30z" />
    <glyph glyph-name="uhungarumlaut.sc" horiz-adv-x="573" 
d="M545 418h-50v-225q0 -102 -55.5 -151t-152.5 -49t-153 49t-56 151v225h-50v89h228v-89h-66v-225q0 -103 96 -103q97 0 97 103v225h-64v89h226v-89zM221 726h115l-87 -163h-101zM399 726h115l-87 -163h-101z" />
    <glyph glyph-name="uogonek.sc" horiz-adv-x="573" 
d="M545 418h-50v-225q0 -140 -107 -182l-76 -63q-29 -26 -29 -39q0 -11 8.5 -17t20.5 -6q30 0 60 15l2 -80q-36 -18 -83 -18q-58 0 -89.5 21.5t-31.5 62.5q0 44 57 84l33 23q-85 6 -133.5 55t-48.5 144v225h-50v89h228v-89h-66v-225q0 -103 96 -103q97 0 97 103v225h-64v89
h226v-89z" />
    <glyph glyph-name="wacute.sc" horiz-adv-x="800" 
d="M546 418v89h239v-89h-49l-106 -418h-138l-93 276l-91 -276h-138l-107 418h-50v89h224v-89h-57l65 -303l102 292l-38 100h131l116 -392l67 303h-77zM419 726h115l-87 -163h-101z" />
    <glyph glyph-name="wcircumflex.sc" horiz-adv-x="800" 
d="M546 418v89h239v-89h-49l-106 -418h-138l-93 276l-91 -276h-138l-107 418h-50v89h224v-89h-57l65 -303l102 292l-38 100h131l116 -392l67 303h-77zM327 726h144l85 -163h-101l-56 106l-56 -106h-102z" />
    <glyph glyph-name="wdieresis.sc" horiz-adv-x="800" 
d="M546 418v89h239v-89h-49l-106 -418h-138l-93 276l-91 -276h-138l-107 418h-50v89h224v-89h-57l65 -303l102 292l-38 100h131l116 -392l67 303h-77zM302 567q-70 0 -70 67q0 34 19 51.5t51 17.5q29 0 49 -17.5t20 -51.5t-20 -50.5t-49 -16.5zM496 567q-70 0 -70 67
q0 34 19 51.5t51 17.5q29 0 49 -17.5t20 -51.5t-20 -50.5t-49 -16.5z" />
    <glyph glyph-name="wgrave.sc" horiz-adv-x="800" 
d="M546 418v89h239v-89h-49l-106 -418h-138l-93 276l-91 -276h-138l-107 418h-50v89h224v-89h-57l65 -303l102 292l-38 100h131l116 -392l67 303h-77zM272 726h115l73 -163h-101z" />
    <glyph glyph-name="yacute.sc" horiz-adv-x="538" 
d="M12 418v89h226v-89h-56l88 -137l88 137h-56v89h228v-89h-54l-150 -224v-105h60v-89h-240v89h66v105l-147 224h-53zM289 726h115l-87 -163h-101z" />
    <glyph glyph-name="ycircumflex.sc" horiz-adv-x="538" 
d="M12 418v89h226v-89h-56l88 -137l88 137h-56v89h228v-89h-54l-150 -224v-105h60v-89h-240v89h66v105l-147 224h-53zM198 726h144l85 -163h-101l-56 106l-56 -106h-102z" />
    <glyph glyph-name="ydieresis.sc" horiz-adv-x="538" 
d="M12 418v89h226v-89h-56l88 -137l88 137h-56v89h228v-89h-54l-150 -224v-105h60v-89h-240v89h66v105l-147 224h-53zM174 567q-70 0 -70 67q0 34 19 51.5t51 17.5q29 0 49 -17.5t20 -51.5t-20 -50.5t-49 -16.5zM368 567q-70 0 -70 67q0 34 19 51.5t51 17.5q29 0 49 -17.5
t20 -51.5t-20 -50.5t-49 -16.5z" />
    <glyph glyph-name="ygrave.sc" horiz-adv-x="538" 
d="M12 418v89h226v-89h-56l88 -137l88 137h-56v89h228v-89h-54l-150 -224v-105h60v-89h-240v89h66v105l-147 224h-53zM139 726h115l73 -163h-101z" />
    <glyph glyph-name="zacute.sc" horiz-adv-x="505" 
d="M454 507v-81l-267 -337h169v117h101v-206h-412v80l267 337h-161v-85h-102v175h405zM278 726h115l-87 -163h-101z" />
    <glyph glyph-name="zcaron.sc" horiz-adv-x="505" 
d="M454 507v-81l-267 -337h169v117h101v-206h-412v80l267 337h-161v-85h-102v175h405zM329 563h-144l-86 163h102l56 -106l56 106h101z" />
    <glyph glyph-name="zdotaccent.sc" horiz-adv-x="505" 
d="M454 507v-81l-267 -337h169v117h101v-206h-412v80l267 337h-161v-85h-102v175h405zM258 567q-70 0 -70 67q0 34 19 51.5t51 17.5q29 0 49 -17.5t20 -51.5t-20 -50.5t-49 -16.5z" />
    <glyph glyph-name="ij.sc" horiz-adv-x="635" 
d="M42 0v89h61v329h-61v89h233v-89h-59v-329h59v-89h-233zM368 418v89h231v-89h-51v-398q0 -127 -112 -191l-68 73q34 22 51 45t17 64v407h-68z" />
    <glyph glyph-name="germandbls.sc" horiz-adv-x="937" 
d="M877 339h-95l-16 80q-33 7 -61 7q-32 0 -49.5 -15t-17.5 -37q0 -37 44 -51l81 -28q76 -26 104.5 -63t28.5 -93q0 -57 -48 -102t-144 -45q-106 0 -188 37l-6 139h96l23 -79q25 -10 74 -10q72 0 72 54q0 36 -48 52l-81 26q-73 24 -100.5 61t-27.5 96t45.5 103.5t141.5 44.5
q94 0 172 -39v-138zM410 339h-95l-16 80q-33 7 -61 7q-32 0 -49.5 -15t-17.5 -37q0 -37 44 -51l81 -28q76 -26 104.5 -63t28.5 -93q0 -57 -48 -102t-144 -45q-106 0 -188 37l-6 139h96l23 -79q25 -10 74 -10q72 0 72 54q0 36 -48 52l-81 26q-73 24 -100.5 61t-27.5 96
t45.5 103.5t141.5 44.5q94 0 172 -39v-138z" />
    <glyph glyph-name="fi.sc" horiz-adv-x="788" 
d="M45 0v89h53v329h-53v89h398v-172h-104v83h-128v-138h155v-92h-155v-99h99v-89h-265zM513 0v89h61v329h-61v89h233v-89h-59v-329h59v-89h-233z" />
    <glyph glyph-name="fl.sc" horiz-adv-x="929" 
d="M45 0v89h53v329h-53v89h398v-172h-104v83h-128v-138h155v-92h-155v-99h99v-89h-265zM799 186h102v-186h-390v89h53v329h-53v89h222v-89h-56v-329h122v97z" />
    <glyph glyph-name="eng.sc" horiz-adv-x="638" 
d="M435 4l-224 329v-244h83v-89h-249v89h53v329h-53v89h168l224 -339v250h-74v89h240v-89h-52v-415q0 -111 -104 -173l-77 72q28 20 46.5 48.5t18.5 53.5z" />
    <glyph glyph-name="grave.sc" horiz-adv-x="600" 
d="M206 726h115l73 -163h-101z" />
    <glyph glyph-name="acute.sc" horiz-adv-x="600" 
d="M279 726h115l-87 -163h-101z" />
    <glyph glyph-name="circumflex.sc" horiz-adv-x="600" 
d="M228 726h144l85 -163h-101l-56 106l-56 -106h-102z" />
    <glyph glyph-name="caron.sc" horiz-adv-x="600" 
d="M372 563h-144l-86 163h102l56 -106l56 106h101z" />
    <glyph glyph-name="caronalt.sc" horiz-adv-x="600" 
d="M374 507l-63 -169h-85l25 169h123z" />
    <glyph glyph-name="tilde.sc" horiz-adv-x="600" 
d="M448 680l-2 -85q-39 25 -73 25q-25 0 -73 -20.5t-78 -20.5q-43 0 -70 23l2 84q26 -24 68 -24q23 0 68.5 20t82.5 20q39 0 75 -22z" />
    <glyph glyph-name="dieresis.sc" horiz-adv-x="600" 
d="M203 567q-70 0 -70 67q0 34 19 51.5t51 17.5q29 0 49 -17.5t20 -51.5t-20 -50.5t-49 -16.5zM397 567q-70 0 -70 67q0 34 19 51.5t51 17.5q29 0 49 -17.5t20 -51.5t-20 -50.5t-49 -16.5z" />
    <glyph glyph-name="macron.sc" horiz-adv-x="600" 
d="M151 673h297v-92h-297v92z" />
    <glyph glyph-name="breve.sc" horiz-adv-x="600" 
d="M375 707h75q0 -66 -40 -108t-113 -42q-70 0 -109 42.5t-39 107.5h73q4 -29 24.5 -48t50.5 -19q32 0 52.5 18.5t25.5 48.5z" />
    <glyph glyph-name="ring.sc" horiz-adv-x="600" 
d="M191 648q0 42 28 71t78 29q53 0 82 -29t29 -71q0 -40 -29.5 -69t-81.5 -29q-50 0 -78 29t-28 69zM256 648q0 -17 11 -28.5t30 -11.5q21 0 33 11.5t12 28.5q0 18 -12 30t-33 12q-19 0 -30 -12t-11 -30z" />
    <glyph glyph-name="hungarumlaut.sc" horiz-adv-x="600" 
d="M190 726h115l-87 -163h-101zM368 726h115l-87 -163h-101z" />
    <glyph glyph-name="dotaccent.sc" horiz-adv-x="600" 
d="M300 567q-70 0 -70 67q0 34 19 51.5t51 17.5q29 0 49 -17.5t20 -51.5t-20 -50.5t-49 -16.5z" />
    <glyph glyph-name="exclamdown.sc" horiz-adv-x="256" 
d="M82 328h92l19 -332h-131zM128 507q30 0 49.5 -18t19.5 -45q0 -28 -19.5 -46t-49.5 -18t-49.5 18t-19.5 46q0 27 20 45t49 18z" />
    <glyph glyph-name="questiondown.sc" horiz-adv-x="400" 
d="M260 164h90l18 -111q-64 -57 -161 -57q-81 0 -127.5 37.5t-46.5 93.5q0 31 12 56t34.5 43t38.5 27t41 21v62h102v-111q-111 -40 -111 -89q0 -20 14.5 -32.5t44.5 -12.5q23 0 51 12v61zM210 515q29 0 49 -18t20 -45q0 -28 -19.5 -46t-49.5 -18t-49.5 18t-19.5 46
q0 27 19.5 45t49.5 18z" />
    <glyph glyph-name="Euro.sc" horiz-adv-x="478" 
d="M39 336h44q31 179 218 179q67 0 141 -29l-35 -94q-58 22 -110 22q-77 0 -96 -78h185l-24 -68h-168v-33h157l-22 -68h-123q7 -33 35 -51.5t65 -18.5q50 0 107 19l24 -96q-64 -28 -144 -28q-173 0 -209 175h-45v68h38q-1 6 -1 20q0 9 1 13h-38v68z" />
    <glyph glyph-name="cent.sc" horiz-adv-x="419" 
d="M323 394l-13 -51q37 -8 66 -21l-23 -86q-32 10 -67 14l-42 -160q7 -1 19 -1q36 0 90 17l23 -86q-56 -24 -119 -27q-19 -1 -38 0l-12 -47l-52 10l11 43q-62 16 -91.5 63t-29.5 110q0 75 46 127t134 52q20 0 31 -1l14 55zM161 172q0 -45 32 -69l37 148q-69 -5 -69 -79z" />
    <glyph glyph-name="sterling.sc" horiz-adv-x="465" 
d="M43 235h48v96q0 82 43 133t139 51q75 0 153 -30l-17 -149h-85v80q-20 6 -46 6q-39 0 -56.5 -21.5t-17.5 -68.5v-97h127v-68h-127v-77h206v-90h-367v74l48 36v57h-48v68z" />
    <glyph glyph-name="florin.sc" horiz-adv-x="319" 
d="M201 252v-310q0 -48 -34 -80t-102 -32q-26 0 -56 10v88q30 -2 57 -2q30 0 30 26v300h-68v90h68v76q0 48 34 80t102 32q23 0 56 -10v-88q-32 2 -57 2q-30 0 -30 -26v-66h75v-90h-75z" />
    <glyph glyph-name="yen.sc" horiz-adv-x="581" 
d="M84 235h121l-22 33h-99v68h54l-53 82h-53v89h226v-89h-56l88 -137l88 137h-56v89h228v-89h-54l-55 -82h55v-68h-101l-23 -33h124v-68h-151v-78h61v-89h-240v89h66v78h-148v68z" />
    <glyph glyph-name="rupee.sc" horiz-adv-x="484" 
d="M44 507l398 1v-70h-100q23 -24 29 -62h71v-54h-72q-11 -88 -100 -115q30 -23 54 -56.5t33 -56.5h60v-94h-232v94h44q-3 15 -29 50.5t-49 48.5h-107v88h108q82 0 93 41h-200v54h202q-5 22 -25 31.5t-66 9.5h-112v90z" />
    <glyph glyph-name="perthousand.sc" horiz-adv-x="952" 
d="M530 507v-12l-329 -495h-76v12l327 495h78zM167 515q68 0 102.5 -35.5t34.5 -90.5q0 -56 -35 -92t-102 -36q-66 0 -100 36t-34 92q0 54 34.5 90t99.5 36zM167 347q45 0 45 42q0 39 -45 39t-45 -39q0 -42 45 -42zM488 245q68 0 102.5 -35.5t34.5 -90.5q0 -56 -35 -91.5
t-102 -35.5q-66 0 -100 35.5t-34 91.5q0 55 34.5 90.5t99.5 35.5zM488 78q45 0 45 41q0 40 -45 40t-45 -40q0 -41 45 -41zM786 245q67 0 101.5 -35.5t34.5 -90.5q0 -56 -35 -91.5t-101 -35.5q-67 0 -101 35.5t-34 91.5q0 55 35 90.5t100 35.5zM786 78q45 0 45 41
q0 40 -45 40t-45 -40q0 -41 45 -41z" />
    <glyph glyph-name="zero.tf" 
d="M145 335q0 -126 30.5 -182.5t105.5 -56.5q74 0 104 56.5t30 182.5q0 127 -30.5 186t-106.5 59q-73 0 -103 -59.5t-30 -185.5zM537 335q0 -170 -61 -258t-198 -88q-136 0 -196 87.5t-60 258.5t61 261t198 90q135 0 195.5 -89.5t60.5 -261.5z" />
    <glyph glyph-name="one.tf" 
d="M90 0v105h164v450l-157 -60l-26 95l199 86h102v-571h136v-105h-418z" />
    <glyph glyph-name="two.tf" 
d="M178 440l-118 -8q-7 24 -7 53q0 88 56 144.5t161 56.5q107 0 162.5 -56.5t55.5 -146.5q0 -38 -11.5 -73t-35.5 -68.5t-42 -54t-51 -53.5l-129 -129h189v74h97v-179h-451v88q77 70 217 217q49 52 71.5 90t22.5 87q0 46 -25 73t-69 27q-47 0 -72.5 -26t-25.5 -73
q0 -13 5 -43z" />
    <glyph glyph-name="three.tf" 
d="M160 487h-87l-10 137q86 62 198 62q115 0 166.5 -55t51.5 -131q0 -66 -30.5 -106.5t-80.5 -54.5q57 -12 94.5 -49.5t37.5 -106.5q0 -91 -62 -142.5t-181 -51.5q-65 0 -122 20.5t-92 51.5l55 92q68 -59 159 -59q120 0 120 94q0 49 -31 71t-103 22h-75v104h69
q56 0 88.5 25.5t32.5 73.5q0 97 -101 97q-55 0 -97 -22v-72z" />
    <glyph glyph-name="four.tf" 
d="M538 235v-96h-96v-139h-116v139h-313v86l231 345q17 25 32 51.5t22 40.5l7 14h137v-441h96zM141 235h185v290z" />
    <glyph glyph-name="five.tf" 
d="M53 47l11 149h95v-83q44 -19 93 -19q64 0 96.5 31.5t32.5 89.5q0 54 -31 84.5t-94 30.5q-59 0 -139 -31l-40 15l44 362h360v-105h-264l-20 -158q46 23 107 23q95 0 147.5 -58.5t52.5 -158.5q0 -108 -65 -169t-188 -61q-111 0 -198 58z" />
    <glyph glyph-name="six.tf" 
d="M329 581q-85 0 -123 -59.5t-38 -147.5q0 -10 1 -14q18 31 54 54t91 23q97 0 151 -58t54 -160q0 -107 -59 -168.5t-175 -61.5q-117 0 -177.5 84t-60.5 247q0 366 283 366q85 0 177 -44l-40 -97q-70 36 -138 36zM290 94q56 0 83 32t27 86q0 52 -26.5 81.5t-78.5 29.5
q-84 0 -124 -72q2 -70 30.5 -113.5t88.5 -43.5z" />
    <glyph glyph-name="seven.tf" 
d="M129 0l247 579h-203v-119h-109v216h456l-1 -82q-32 -49 -77 -157l-178 -437h-135z" />
    <glyph glyph-name="eight.tf" 
d="M506 500q0 -48 -25.5 -86.5t-62.5 -62.5q105 -53 105 -162q0 -93 -66 -146.5t-179 -53.5q-110 0 -175.5 51.5t-65.5 141.5q0 53 27.5 94.5t66.5 63.5q-77 51 -77 153q0 83 61 138t164 55q108 0 167.5 -52t59.5 -134zM320 265l-113 39q-52 -49 -52 -109q0 -45 33 -74
t99 -29q58 0 85.5 24.5t27.5 60.5q0 34 -20 53.5t-60 34.5zM171 503q0 -57 73 -84l88 -33q58 39 58 101q0 42 -29.5 71t-89.5 29q-46 0 -73 -23t-27 -61z" />
    <glyph glyph-name="nine.tf" 
d="M232 94q159 0 159 197q0 11 -1 17q-17 -33 -55 -56.5t-93 -23.5q-93 0 -146 60t-53 163q0 106 60 170.5t172 64.5q64 0 111.5 -27.5t74 -76t39 -107.5t12.5 -130q0 -356 -281 -356q-99 0 -179 52l38 98q70 -45 142 -45zM272 581q-56 0 -83 -33.5t-27 -86.5
q0 -56 25.5 -87.5t77.5 -31.5q84 0 122 72q-1 72 -29 119.5t-86 47.5z" />
    <glyph glyph-name="zero.tosf" 
d="M154 284q0 -178 128 -178q126 0 126 178q0 186 -129 186q-125 0 -125 -186zM527 284q0 -139 -60.5 -217t-187.5 -78q-124 0 -185 78.5t-61 216.5q0 140 61.5 221t187.5 81q124 0 184.5 -81t60.5 -221z" />
    <glyph glyph-name="one.tosf" 
d="M92 0v104h163v348l-152 -55l-32 92l200 86h102v-471h137v-104h-418z" />
    <glyph glyph-name="two.tosf" 
d="M505 0h-451v80q110 87 217 184q94 86 94 139q0 38 -24.5 58t-69.5 20q-97 0 -97 -74q0 -15 5 -32l-119 -6q-6 18 -6 44q0 76 55.5 124.5t160.5 48.5q107 0 162.5 -47.5t55.5 -121.5q0 -60 -35.5 -108.5t-98.5 -102.5q-62 -54 -132 -110h186v63h97v-159z" />
    <glyph glyph-name="three.tosf" 
d="M161 387h-87l-10 137q86 62 198 62q60 0 104 -16.5t67.5 -44.5t34.5 -59t11 -66q0 -66 -30 -106.5t-80 -54.5q57 -12 94.5 -50t37.5 -106q0 -91 -62 -142.5t-181 -51.5q-65 0 -122 20.5t-92 51.5l54 92q68 -59 160 -59q119 0 119 94q0 49 -31 71t-102 22h-75v104h69
q55 0 88 25.5t33 73.5q0 97 -101 97q-55 0 -97 -22v-72z" />
    <glyph glyph-name="four.tosf" 
d="M537 135v-96h-96v-139h-116v139h-313v86l231 345q17 25 32 51.5t22 40.5l7 14h137v-441h96zM141 135h184v285z" />
    <glyph glyph-name="five.tosf" 
d="M50 -53l12 149h95v-83q44 -19 93 -19q64 0 96.5 31.5t32.5 89.5q0 54 -31 84.5t-94 30.5q-59 0 -139 -31l-40 15l44 362h360v-105h-264l-20 -158q44 23 107 23q94 0 147 -59t53 -158q0 -108 -65.5 -169t-188.5 -61q-109 0 -198 58z" />
    <glyph glyph-name="six.tosf" 
d="M330 581q-60 0 -99 -31.5t-53 -75.5t-14 -100q0 -10 1 -14q18 31 55.5 54t93.5 23q99 0 154 -58t55 -160q0 -107 -60 -168.5t-178 -61.5q-119 0 -180.5 84t-61.5 247q0 366 288 366q87 0 180 -44l-40 -97q-72 36 -141 36zM290 94q58 0 86 32t28 86q0 52 -27 81.5
t-82 29.5q-88 0 -128 -72q2 -70 31.5 -113.5t91.5 -43.5z" />
    <glyph glyph-name="seven.tosf" 
d="M129 -100l246 579h-202v-127h-110v224h457v-82q-33 -52 -78 -157l-179 -437h-134z" />
    <glyph glyph-name="eight.tosf" 
d="M506 500q0 -48 -26 -87t-62 -62q105 -55 105 -162q0 -93 -66 -146.5t-179 -53.5q-110 0 -175.5 51.5t-65.5 141.5q0 53 27 95t67 63q-77 51 -77 153q0 83 61 138t164 55q108 0 167.5 -52t59.5 -134zM319 265l-113 39q-51 -48 -51 -109q0 -45 33 -74t99 -29
q58 0 85.5 24.5t27.5 60.5q0 34 -20.5 54t-60.5 34zM171 503q0 -58 73 -84l88 -33q58 40 58 101q0 42 -29.5 71t-89.5 29q-46 0 -73 -23t-27 -61z" />
    <glyph glyph-name="nine.tosf" 
d="M231 -6q164 0 164 197q0 11 -1 17q-17 -33 -56.5 -56.5t-95.5 -23.5q-95 0 -149 60t-54 163q0 106 61 170.5t175 64.5q65 0 113 -27.5t75.5 -76t40 -107.5t12.5 -130q0 -356 -286 -356q-101 0 -182 52l38 98q72 -45 145 -45zM272 481q-58 0 -86 -33.5t-28 -86.5
q0 -56 26.5 -87.5t80.5 -31.5q87 0 126 72q-1 73 -30 120t-89 47z" />
    <glyph glyph-name="Euro.tf" 
d="M32 441h55q38 245 266 245q88 0 176 -40l-38 -101q-72 34 -141 34q-116 0 -139 -138h241l-27 -76h-221v-25q0 -24 1 -35h200l-26 -76h-163q11 -60 48 -94.5t94 -34.5q74 0 143 33l26 -102q-78 -42 -174 -42q-225 0 -265 240h-56v76h48v60h-48v76z" />
    <glyph glyph-name="cent.tf" 
d="M413 527l-18 -70q49 -12 91 -34l-27 -92q-34 16 -88 26l-64 -263q10 -1 29 -1q61 0 123 32l27 -92q-83 -44 -186 -44q-12 0 -18 1l-14 -61l-59 13l14 58q-73 21 -108.5 82.5t-35.5 146.5q0 102 56 170t165 68q11 0 35 -2l18 75zM250 112l60 250q-109 -5 -109 -134
q0 -81 49 -116z" />
    <glyph glyph-name="sterling.tf" 
d="M47 305h63v138q0 109 52.5 176t167.5 67q100 0 187 -38l-20 -179h-87v107q-40 11 -75 11q-107 0 -107 -144v-138h171v-76h-171v-133h272v-96h-453v79l63 38v112h-63v76z" />
    <glyph glyph-name="florin.tf" 
d="M335 359v-433q0 -65 -37.5 -108.5t-113.5 -43.5q-42 0 -73 11v95q3 0 27.5 -2t38.5 -2q48 0 48 59v424h-89v97h89v98q0 65 37 108.5t109 43.5q45 0 78 -11v-95q-3 0 -27.5 2t-38.5 2q-48 0 -48 -59v-89h98v-97h-98z" />
    <glyph glyph-name="yen.tf" 
d="M38 305h160l-32 60h-128v76h88l-76 138h-58v97h253v-97h-71l104 -213l107 213h-71v97h253v-97h-58l-79 -138h90v-76h-131l-33 -60h164v-76h-184v-132h71v-97h-265v97h76v132h-180v76z" />
    <glyph glyph-name="rupee.tf" 
d="M46 676l468 1v-76h-119q30 -37 36 -92h83v-76h-83q-21 -117 -140 -149q44 -33 78.5 -85.5t48.5 -101.5h79v-97h-268v97h61q-9 40 -45.5 93.5t-76.5 80.5h-122v94h106q70 0 105 15.5t48 52.5h-258v76h260q-13 39 -45 54.5t-102 15.5h-114v97z" />
    <glyph glyph-name="dollar.tf" 
d="M314 -103h-71v93q-106 6 -190 46v178h99l18 -112q27 -14 73 -17v202l-31 11q-87 32 -123 77.5t-35 119.5q0 68 46.5 123.5t142.5 65.5v75h71v-74q98 -7 178 -47v-171h-99l-18 109q-31 9 -61 12v-196l37 -13q91 -31 128 -78t37 -119q0 -68 -52 -125t-150 -66v-94zM319 260
l-5 2v-174q34 7 54.5 29.5t20.5 54.5q0 30 -18.5 53.5t-51.5 34.5zM179 500q0 -59 64 -83v166q-31 -9 -47.5 -32t-16.5 -51z" />
    <glyph glyph-name="zero.osf" horiz-adv-x="592" 
d="M161 284q0 -178 137 -178q135 0 135 178q0 186 -138 186q-134 0 -134 -186zM553 284q0 -139 -63.5 -217t-194.5 -78q-129 0 -192.5 78.5t-63.5 216.5q0 140 64.5 221t194.5 81q129 0 192 -81t63 -221z" />
    <glyph glyph-name="one.osf" horiz-adv-x="468" 
d="M42 0v104h163v348l-149 -55l-32 91l197 87h102v-471h136v-104h-417z" />
    <glyph glyph-name="two.osf" horiz-adv-x="521" 
d="M486 0h-451v80q110 87 217 184q94 86 94 139q0 38 -24.5 58t-69.5 20q-97 0 -97 -74q0 -15 5 -32l-119 -6q-6 18 -6 44q0 76 55.5 124.5t160.5 48.5q107 0 162.5 -47.5t55.5 -121.5q0 -60 -35.5 -108.5t-98.5 -102.5q-62 -54 -132 -110h186v63h97v-159z" />
    <glyph glyph-name="three.osf" horiz-adv-x="510" 
d="M135 387h-87l-10 137q86 62 198 62q115 0 166.5 -55t51.5 -131q0 -65 -30.5 -105.5t-79.5 -55.5q57 -12 94 -49.5t37 -106.5q0 -91 -62 -142.5t-181 -51.5q-65 0 -122 20.5t-92 51.5l55 92q68 -59 160 -59q119 0 119 94q0 49 -31 71t-103 22h-75v104h70q55 0 87.5 25.5
t32.5 73.5q0 97 -101 97q-55 0 -97 -22v-72z" />
    <glyph glyph-name="four.osf" horiz-adv-x="545" 
d="M531 135v-96h-96v-139h-116v139h-312v86l230 345q17 25 32.5 51.5t22.5 40.5l7 14h136v-441h96zM135 135h184v285z" />
    <glyph glyph-name="five.osf" horiz-adv-x="512" 
d="M27 -53l11 149h96v-83q43 -19 93 -19q64 0 96.5 31.5t32.5 89.5q0 54 -31 84.5t-94 30.5q-58 0 -140 -31l-39 15l44 362h359v-105h-263l-20 -158q44 23 107 23q94 0 147 -59t53 -158q0 -108 -65.5 -169t-188.5 -61q-111 0 -198 58z" />
    <glyph glyph-name="six.osf" horiz-adv-x="541" 
d="M321 581q-59 0 -96.5 -31.5t-51 -75.5t-13.5 -100q0 -10 1 -14q17 30 53.5 53.5t90.5 23.5q97 0 151.5 -58t54.5 -160q0 -107 -59 -168.5t-176 -61.5t-177.5 84t-60.5 247q0 366 284 366q84 0 177 -44l-40 -97q-69 36 -138 36zM281 94q56 0 83 32t27 86q0 52 -26 81.5
t-78 29.5q-86 0 -124 -72q2 -70 30 -113.5t88 -43.5z" />
    <glyph glyph-name="seven.osf" horiz-adv-x="493" 
d="M93 -100l247 579h-203v-127h-109v224h456v-82q-35 -55 -77 -157l-179 -437h-135z" />
    <glyph glyph-name="eight.osf" horiz-adv-x="558" 
d="M506 500q0 -48 -26 -87t-63 -62q106 -56 106 -162q0 -93 -66.5 -146.5t-179.5 -53.5q-109 0 -175 51.5t-66 141.5q0 53 27.5 94.5t66.5 63.5q-77 52 -77 153q0 83 61 138t164 55q109 0 168.5 -52.5t59.5 -133.5zM319 265l-113 39q-52 -49 -52 -109q0 -44 33.5 -73.5
t98.5 -29.5q59 0 86.5 24.5t27.5 60.5q0 34 -20.5 54t-60.5 34zM170 503q0 -57 73 -84l88 -33q58 39 58 101q0 42 -29.5 71t-89.5 29q-45 0 -72.5 -23t-27.5 -61z" />
    <glyph glyph-name="nine.osf" horiz-adv-x="537" 
d="M220 -6q158 0 158 197q0 11 -1 17q-15 -32 -53.5 -56t-93.5 -24q-93 0 -146 60t-53 163q0 107 59.5 171t172.5 64q64 0 111.5 -27.5t74 -76t39 -107.5t12.5 -130q0 -356 -281 -356q-99 0 -179 52l38 98q70 -45 142 -45zM260 481q-56 0 -83 -33.5t-27 -86.5
q0 -56 26 -87.5t78 -31.5q84 0 121 72q0 72 -28.5 119.5t-86.5 47.5z" />
    <glyph glyph-name="zero.denom" horiz-adv-x="379" 
d="M122 180q0 -60 15.5 -86t54.5 -26q36 0 50.5 26t14.5 86q0 61 -15 89t-53 28q-37 0 -52 -28t-15 -89zM347 180q0 -186 -159 -186q-156 0 -156 186q0 190 160 190q155 0 155 -190z" />
    <glyph glyph-name="one.denom" horiz-adv-x="311" 
d="M40 0v72h94v208l-95 -30l-18 65l126 50h74v-293h77v-72h-258z" />
    <glyph glyph-name="two.denom" horiz-adv-x="340" 
d="M308 0h-274v59q76 63 116 101q21 20 30 30.5t18 28t9 36.5q0 20 -12 31.5t-31 11.5q-45 0 -45 -39q0 -19 4 -28l-87 -6q-5 11 -5 35q0 48 33.5 79t99.5 31q65 0 99 -31.5t34 -82.5q0 -62 -87 -134q-40 -33 -63 -50h91v35h70v-107z" />
    <glyph glyph-name="three.denom" horiz-adv-x="330" 
d="M103 256h-62l-8 80q49 34 120 34q72 0 103 -31.5t31 -70.5q0 -69 -64 -86q76 -16 76 -82q0 -50 -37.5 -78t-110.5 -28q-78 0 -130 39l40 63q37 -29 90 -29q58 0 58 37q0 21 -15 29t-53 8h-44v72h41q28 0 44 11.5t16 31.5q0 42 -48 42q-28 0 -47 -9v-33z" />
    <glyph glyph-name="four.denom" horiz-adv-x="351" 
d="M330 135v-66h-52v-69h-85v69h-179v59l126 178q10 13 19 28t13 23l4 8h102v-230h52zM107 135h86v129z" />
    <glyph glyph-name="five.denom" horiz-adv-x="330" 
d="M25 25l9 87h69v-39q19 -6 44 -6q32 0 48.5 13t16.5 35q0 50 -67 50q-26 0 -80 -12l-25 11l27 201h220v-72h-150l-9 -61q26 6 55 6q56 0 87.5 -32.5t31.5 -86.5q0 -59 -39.5 -92t-114.5 -33q-67 0 -123 31z" />
    <glyph glyph-name="six.denom" horiz-adv-x="353" 
d="M207 298q-45 0 -66 -25t-21 -60q0 -7 1 -9q29 32 78 32q59 0 92.5 -31t33.5 -87q0 -57 -37.5 -90.5t-108.5 -33.5q-147 0 -147 179q0 91 43 144t133 53q53 0 111 -25l-29 -66q-44 19 -83 19zM181 67q56 0 56 46q0 44 -53 44q-39 0 -62 -23q0 -29 15 -48t44 -19z" />
    <glyph glyph-name="seven.denom" horiz-adv-x="312" 
d="M61 0l137 299h-94v-63h-81v129h280v-55q-30 -46 -50 -92l-93 -218h-99z" />
    <glyph glyph-name="eight.denom" horiz-adv-x="358" 
d="M317 269q0 -45 -47 -76q58 -30 58 -88q0 -50 -41 -80.5t-109 -30.5q-65 0 -106 29t-41 77q0 52 49 79q-39 29 -39 84q0 46 38.5 76.5t99.5 30.5q65 0 101.5 -28.5t36.5 -72.5zM134 153q-16 -18 -16 -41q0 -21 17.5 -34t48.5 -13q54 0 54 33q0 21 -41 35zM126 268
q0 -22 34 -35l48 -16q25 15 25 41q0 18 -15.5 31t-44.5 13q-47 0 -47 -34z" />
    <glyph glyph-name="nine.denom" horiz-adv-x="353" 
d="M146 67q86 0 86 80q0 7 -1 10q-27 -34 -81 -34t-87 32t-33 87q0 57 38 92.5t107 35.5q77 0 111.5 -53t34.5 -132q0 -191 -175 -191q-58 0 -113 32l27 67q43 -26 86 -26zM172 297q-54 0 -54 -47q0 -22 13.5 -35t37.5 -13q39 0 61 27q0 30 -15 49t-43 19z" />
    <glyph glyph-name="zero.num" horiz-adv-x="379" 
d="M122 491q0 -61 15.5 -87t54.5 -26q36 0 51 26.5t15 86.5t-15.5 88t-53.5 28q-37 0 -52 -27.5t-15 -88.5zM347 491q0 -186 -158 -186q-157 0 -157 186q0 190 160 190q155 0 155 -190z" />
    <glyph glyph-name="one.num" horiz-adv-x="308" 
d="M37 311v72h94v208l-88 -30l-18 66l119 49h74v-293h77v-72h-258z" />
    <glyph glyph-name="two.num" horiz-adv-x="340" 
d="M308 311h-274v59q72 58 116 100q21 21 30 31t18 28t9 37q0 20 -12 31.5t-31 11.5q-45 0 -45 -39q0 -14 4 -28l-87 -6q-5 15 -5 35q0 48 34 79t99 31t99 -31.5t34 -82.5q0 -63 -87 -135q-14 -12 -37.5 -30t-24.5 -19h90v35h70v-107z" />
    <glyph glyph-name="three.num" horiz-adv-x="330" 
d="M103 567h-62l-8 80q52 34 120 34q72 0 103 -31.5t31 -70.5q0 -68 -63 -87q75 -15 75 -82q0 -49 -37.5 -77t-109.5 -28q-80 0 -131 39l40 62q38 -28 91 -28q57 0 57 37q0 20 -15 28.5t-52 8.5h-45v71h41q28 0 44.5 12t16.5 32q0 18 -12.5 30t-36.5 12t-47 -9v-33z" />
    <glyph glyph-name="four.num" horiz-adv-x="351" 
d="M330 446v-66h-52v-69h-85v69h-179v59l126 178q10 13 19 28t13 23l4 8h102v-230h52zM107 446h86v129z" />
    <glyph glyph-name="five.num" horiz-adv-x="330" 
d="M25 336l9 87h69v-39q16 -6 44 -6q32 0 48.5 13t16.5 35q0 49 -67 49q-34 0 -80 -12l-25 11l27 202h220v-72h-150l-9 -61q26 6 55 6q56 0 87.5 -32.5t31.5 -86.5q0 -59 -39.5 -92t-114.5 -33q-67 0 -123 31z" />
    <glyph glyph-name="six.num" horiz-adv-x="353" 
d="M207 609q-45 0 -66 -25t-21 -61q0 -6 1 -9q27 33 78 33q59 0 92.5 -31t33.5 -87q0 -57 -37.5 -90.5t-108.5 -33.5q-147 0 -147 179q0 91 43 144t133 53q48 0 111 -25l-29 -66q-44 19 -83 19zM181 378q56 0 56 46q0 44 -53 44q-39 0 -62 -23q0 -29 15 -48t44 -19z" />
    <glyph glyph-name="seven.num" horiz-adv-x="312" 
d="M61 311l137 299h-94v-63h-80v129h279v-55q-30 -46 -50 -92l-93 -218h-99z" />
    <glyph glyph-name="eight.num" horiz-adv-x="359" 
d="M317 580q0 -46 -47 -77q58 -30 58 -87q0 -50 -41 -80.5t-109 -30.5q-66 0 -106.5 28.5t-40.5 77.5q0 52 49 79q-39 29 -39 84q0 46 38.5 76.5t99.5 30.5q65 0 101.5 -28.5t36.5 -72.5zM197 444l-63 20q-16 -19 -16 -41q0 -21 17 -34t49 -13q54 0 54 33q0 21 -41 35z
M126 579q0 -22 34 -35l48 -17q25 17 25 41q0 18 -15.5 31.5t-44.5 13.5q-47 0 -47 -34z" />
    <glyph glyph-name="nine.num" horiz-adv-x="353" 
d="M147 378q85 0 85 79q0 8 -1 10q-26 -33 -80 -33t-87.5 32t-33.5 87q0 56 38.5 92t106.5 36q77 0 112 -53.5t35 -131.5q0 -191 -176 -191q-58 0 -113 32l27 66q45 -25 87 -25zM172 608q-27 0 -40.5 -13t-13.5 -34q0 -22 13.5 -35t37.5 -13q41 0 61 27q0 30 -14.5 49
t-43.5 19z" />
    <glyph glyph-name="parenleft.case" horiz-adv-x="277" 
d="M264 -89l-85 -33q-146 213 -146 463q0 137 37 242.5t109 220.5l87 -33q-113 -229 -113 -430q0 -117 26.5 -217.5t84.5 -212.5z" />
    <glyph glyph-name="parenright.case" horiz-adv-x="277" 
d="M13 -89q58 112 85 212.5t27 217.5q0 202 -114 430l87 33q72 -115 109 -220.5t37 -242.5q0 -250 -146 -463z" />
    <glyph glyph-name="hyphen.case" 
d="M98 384h363v-108h-363v108z" />
    <glyph glyph-name="bracketleft.case" horiz-adv-x="324" 
d="M65 796h240v-97h-121v-718h121v-97h-240v912z" />
    <glyph glyph-name="bracketright.case" horiz-adv-x="324" 
d="M19 796h240v-912h-240v97h121v718h-121v97z" />
    <glyph glyph-name="braceleft.case" horiz-adv-x="307" 
d="M220 642v-186q0 -95 -99 -116q14 -2 28.5 -8.5t31.5 -18.5t28 -35t11 -52v-201q0 -34 13 -43t45 -10v-88q-94 0 -135 31.5t-41 109.5v189q0 45 -29 63.5t-65 18.5v88q35 0 64.5 20t29.5 64v187q0 77 41 109t135 32v-88q-30 0 -44 -14t-14 -52z" />
    <glyph glyph-name="bar.case" horiz-adv-x="201" 
d="M136 -116h-71v912h71v-912z" />
    <glyph glyph-name="braceright.case" horiz-adv-x="307" 
d="M87 456v186q0 38 -14 52t-44 14v88q94 0 135 -32t41 -109v-187q0 -44 29.5 -64t64.5 -20v-88q-36 0 -65 -18.5t-29 -63.5v-189q0 -78 -41 -109.5t-135 -31.5v88q22 1 32.5 3.5t18 14t7.5 35.5v201q0 55 32.5 81.5t66.5 32.5q-99 21 -99 116z" />
    <glyph glyph-name="guilsinglleft.case" horiz-adv-x="306" 
d="M7 330l196 228l72 -53l-131 -176l132 -175l-73 -52z" />
    <glyph glyph-name="guilsinglright.case" horiz-adv-x="306" 
d="M103 558l196 -228l-196 -228l-73 52l132 175l-131 176z" />
    <glyph glyph-name="guillemotleft.case" horiz-adv-x="520" 
d="M7 330l196 228l72 -53l-131 -176l132 -175l-73 -52zM221 330l196 228l72 -53l-131 -176l132 -175l-73 -52z" />
    <glyph glyph-name="guillemotright.case" horiz-adv-x="520" 
d="M317 558l196 -228l-196 -228l-73 52l132 175l-131 176zM103 558l196 -228l-196 -228l-73 52l132 175l-131 176z" />
    <glyph glyph-name="endash.case" horiz-adv-x="584" 
d="M51 384h482v-108h-482v108z" />
    <glyph glyph-name="emdash.case" horiz-adv-x="724" 
d="M51 384h622v-108h-622v108z" />
    <glyph glyph-name="bullet.case" 
d="M280 201q-58 0 -96 36.5t-38 91.5q0 56 38 92t96 36t96 -36t38 -92q0 -55 -38 -91.5t-96 -36.5z" />
    <glyph glyph-name="periodcentered.case" horiz-adv-x="224" 
d="M112 296q-33 0 -54.5 20.5t-21.5 51.5q0 32 21.5 52.5t54.5 20.5t54.5 -20.5t21.5 -52.5q0 -31 -21.5 -51.5t-54.5 -20.5z" />
    <glyph glyph-name="Q.alt" horiz-adv-x="674" 
d="M630 337q0 -121 -39 -203l71 -55l-67 -90l-71 57q-71 -57 -189 -57q-291 0 -291 348q0 350 293 350t293 -350zM342 192l64 89l82 -65q14 46 14 121q0 119 -36.5 181.5t-127.5 62.5t-129 -63t-38 -181t36.5 -180.5t129.5 -62.5q57 0 94 26z" />
    <glyph glyph-name="brokenbar.sc" horiz-adv-x="218" 
d="M141 290h-64v292h64v-292zM77 188h64v-290h-64v290z" />
    <glyph glyph-name="R.alt" horiz-adv-x="650" 
d="M111 97v482h-70v97h302q125 0 182.5 -49t57.5 -145q0 -138 -143 -178l121 -207h79v-97h-267v97h61l-106 194h-99v-194h67v-97h-254v97h69zM462 481q0 98 -119 98h-114v-194h106q127 0 127 96z" />
    <glyph glyph-name="Racute.alt" horiz-adv-x="650" 
d="M307 901h115l-87 -163h-101zM111 97v482h-70v97h302q125 0 182.5 -49t57.5 -145q0 -138 -143 -178l121 -207h79v-97h-267v97h61l-106 194h-99v-194h67v-97h-254v97h69zM462 481q0 98 -119 98h-114v-194h106q127 0 127 96z" />
    <glyph glyph-name="Rcaron.alt" horiz-adv-x="650" 
d="M371 738h-144l-86 163h102l56 -106l56 106h101zM111 97v482h-70v97h302q125 0 182.5 -49t57.5 -145q0 -138 -143 -178l121 -207h79v-97h-267v97h61l-106 194h-99v-194h67v-97h-254v97h69zM462 481q0 98 -119 98h-114v-194h106q127 0 127 96z" />
    <glyph glyph-name="Rcommaaccent.alt" horiz-adv-x="651" 
d="M395 -63l-63 -153h-85l25 153h123zM111 97v482h-70v97h302q125 0 182.5 -49t57.5 -145q0 -138 -143 -178l121 -207h79v-97h-267v97h61l-106 194h-99v-194h67v-97h-254v97h69zM462 481q0 98 -119 98h-114v-194h106q127 0 127 96z" />
    <glyph glyph-name="r_alt.sc" horiz-adv-x="557" 
d="M98 89v329h-53v89h248q103 0 151 -37.5t48 -112.5q0 -100 -106 -133l88 -135h64v-89h-229v89h44l-72 121h-69v-121h46v-89h-213v89h53zM377 357q0 61 -77 61h-88v-121h82q83 0 83 60z" />
    <glyph glyph-name="racute_alt.sc" horiz-adv-x="557" 
d="M276 726h115l-87 -163h-101zM98 89v329h-53v89h248q103 0 151 -37.5t48 -112.5q0 -100 -106 -133l88 -135h64v-89h-229v89h44l-72 121h-69v-121h46v-89h-213v89h53zM377 357q0 61 -77 61h-88v-121h82q83 0 83 60z" />
    <glyph glyph-name="rcaron_alt.sc" horiz-adv-x="557" 
d="M328 563h-144l-86 163h102l56 -106l56 106h101zM98 89v329h-53v89h248q103 0 151 -37.5t48 -112.5q0 -100 -106 -133l88 -135h64v-89h-229v89h44l-72 121h-69v-121h46v-89h-213v89h53zM377 357q0 61 -77 61h-88v-121h82q83 0 83 60z" />
    <glyph glyph-name="rcommaaccent_alt.sc" horiz-adv-x="556" 
d="M352 -63l-63 -153h-85l25 153h123zM97 89v329h-53v89h248q103 0 151 -37.5t48 -112.5q0 -100 -106 -133l88 -135h64v-89h-229v89h44l-72 121h-69v-121h46v-89h-213v89h53zM376 357q0 61 -77 61h-88v-121h82q83 0 83 60z" />
    <glyph glyph-name="a.alt" horiz-adv-x="527" 
d="M362 456h82v-352h65v-104h-78q-37 0 -57 17.5t-23 45.5q-45 -74 -131 -74q-90 0 -138 62.5t-48 177.5q0 111 50 174t136 63q72 0 124 -48zM149 229q0 -135 97 -135q55 0 87 40v194q-31 33 -86 33q-98 0 -98 -132z" />
    <glyph glyph-name="agrave.alt" horiz-adv-x="527" 
d="M362 456h82v-352h65v-104h-78q-37 0 -57 17.5t-23 45.5q-45 -74 -131 -74q-90 0 -138 62.5t-48 177.5q0 111 50 174t136 63q72 0 124 -48zM149 229q0 -135 97 -135q55 0 87 40v194q-31 33 -86 33q-98 0 -98 -132zM143 696h115l73 -163h-101z" />
    <glyph glyph-name="aacute.alt" horiz-adv-x="527" 
d="M362 456h82v-352h65v-104h-78q-37 0 -57 17.5t-23 45.5q-45 -74 -131 -74q-90 0 -138 62.5t-48 177.5q0 111 50 174t136 63q72 0 124 -48zM149 229q0 -135 97 -135q55 0 87 40v194q-31 33 -86 33q-98 0 -98 -132zM277 696h115l-87 -163h-101z" />
    <glyph glyph-name="acircumflex.alt" horiz-adv-x="527" 
d="M362 456h82v-352h65v-104h-78q-37 0 -57 17.5t-23 45.5q-45 -74 -131 -74q-90 0 -138 62.5t-48 177.5q0 111 50 174t136 63q72 0 124 -48zM149 229q0 -135 97 -135q55 0 87 40v194q-31 33 -86 33q-98 0 -98 -132zM192 696h144l85 -163h-101l-56 106l-56 -106h-102z" />
    <glyph glyph-name="atilde.alt" horiz-adv-x="527" 
d="M362 456h82v-352h65v-104h-78q-37 0 -57 17.5t-23 45.5q-45 -74 -131 -74q-90 0 -138 62.5t-48 177.5q0 111 50 174t136 63q72 0 124 -48zM149 229q0 -135 97 -135q55 0 87 40v194q-31 33 -86 33q-98 0 -98 -132zM410 650l-2 -85q-39 25 -73 25q-25 0 -73 -20.5
t-78 -20.5q-43 0 -70 23l2 84q25 -24 68 -24q23 0 68.5 20t82.5 20q39 0 75 -22z" />
    <glyph glyph-name="adieresis.alt" horiz-adv-x="527" 
d="M362 456h82v-352h65v-104h-78q-37 0 -57 17.5t-23 45.5q-45 -74 -131 -74q-90 0 -138 62.5t-48 177.5q0 111 50 174t136 63q72 0 124 -48zM149 229q0 -135 97 -135q55 0 87 40v194q-31 33 -86 33q-98 0 -98 -132zM166 537q-70 0 -70 67q0 34 19 51.5t51 17.5
q29 0 49 -17.5t20 -51.5t-20 -50.5t-49 -16.5zM360 537q-70 0 -70 67q0 34 19 51.5t51 17.5q29 0 49 -17.5t20 -51.5t-20 -50.5t-49 -16.5z" />
    <glyph glyph-name="amacron.alt" horiz-adv-x="527" 
d="M362 456h82v-352h65v-104h-78q-37 0 -57 17.5t-23 45.5q-45 -74 -131 -74q-90 0 -138 62.5t-48 177.5q0 111 50 174t136 63q72 0 124 -48zM149 229q0 -135 97 -135q55 0 87 40v194q-31 33 -86 33q-98 0 -98 -132zM114 651h297v-92h-297v92z" />
    <glyph glyph-name="abreve.alt" horiz-adv-x="527" 
d="M362 456h82v-352h65v-104h-78q-37 0 -57 17.5t-23 45.5q-45 -74 -131 -74q-90 0 -138 62.5t-48 177.5q0 111 50 174t136 63q72 0 124 -48zM149 229q0 -135 97 -135q55 0 87 40v194q-31 33 -86 33q-98 0 -98 -132zM338 687h75q0 -66 -40 -108t-113 -42q-70 0 -109 42.5
t-39 107.5h73q4 -29 24.5 -48t50.5 -19q32 0 52.5 18.5t25.5 48.5z" />
    <glyph glyph-name="aring.alt" horiz-adv-x="527" 
d="M362 456h82v-352h65v-104h-78q-37 0 -57 17.5t-23 45.5q-45 -74 -131 -74q-90 0 -138 62.5t-48 177.5q0 111 50 174t136 63q72 0 124 -48zM149 229q0 -135 97 -135q55 0 87 40v194q-31 33 -86 33q-98 0 -98 -132zM154 619q0 42 28 71.5t78 29.5q53 0 82 -29.5t29 -71.5
q0 -40 -29.5 -69t-81.5 -29q-50 0 -78 29t-28 69zM219 619q0 -16 11 -27.5t30 -11.5q21 0 33 11.5t12 27.5q0 18 -12 30t-33 12q-19 0 -30 -12t-11 -30z" />
    <glyph glyph-name="aringacute.alt" horiz-adv-x="527" 
d="M153 609q0 36 21 63t59 34l40 77h112l-64 -89q50 -26 50 -85q0 -40 -29.5 -69t-81.5 -29q-50 0 -78.5 29t-28.5 69zM218 609q0 -16 11.5 -27.5t30.5 -11.5q21 0 32.5 11.5t11.5 27.5q0 18 -11.5 30t-32.5 12q-19 0 -30.5 -12.5t-11.5 -29.5zM362 456h82v-352h65v-104h-78
q-37 0 -57 17.5t-23 45.5q-45 -74 -131 -74q-90 0 -138 62.5t-48 177.5q0 111 50 174t136 63q72 0 124 -48zM149 229q0 -135 97 -135q55 0 87 40v194q-31 33 -86 33q-98 0 -98 -132z" />
    <glyph glyph-name="g.alt" horiz-adv-x="512" 
d="M342 51q-51 -62 -127 -62q-89 0 -135 62.5t-46 177.5q0 112 49.5 174.5t139.5 62.5q71 0 127 -48l26 38h74v-442q0 -240 -206 -240q-90 0 -139.5 42t-45.5 125h105q-1 -35 19.5 -56t60.5 -21q52 0 74.5 34t23.5 102v51zM149 229q0 -135 100 -135q55 0 89 40v194
q-33 33 -88 33q-56 0 -78.5 -34.5t-22.5 -97.5z" />
    <glyph glyph-name="gcircumflex.alt" horiz-adv-x="512" 
d="M342 51q-51 -62 -127 -62q-89 0 -135 62.5t-46 177.5q0 112 49.5 174.5t139.5 62.5q71 0 127 -48l26 38h74v-442q0 -240 -206 -240q-90 0 -139.5 42t-45.5 125h105q-1 -35 19.5 -56t60.5 -21q52 0 74.5 34t23.5 102v51zM149 229q0 -135 100 -135q55 0 89 40v194
q-33 33 -88 33q-56 0 -78.5 -34.5t-22.5 -97.5zM194 696h144l85 -163h-101l-56 106l-56 -106h-102z" />
    <glyph glyph-name="gbreve.alt" horiz-adv-x="512" 
d="M342 51q-51 -62 -127 -62q-89 0 -135 62.5t-46 177.5q0 112 49.5 174.5t139.5 62.5q71 0 127 -48l26 38h74v-442q0 -240 -206 -240q-90 0 -139.5 42t-45.5 125h105q-1 -35 19.5 -56t60.5 -21q52 0 74.5 34t23.5 102v51zM149 229q0 -135 100 -135q55 0 89 40v194
q-33 33 -88 33q-56 0 -78.5 -34.5t-22.5 -97.5zM340 687h75q0 -66 -40 -108t-113 -42q-70 0 -109 42.5t-39 107.5h73q4 -29 24.5 -48t50.5 -19q32 0 52.5 18.5t25.5 48.5z" />
    <glyph glyph-name="gcommaaccent.alt" horiz-adv-x="512" 
d="M342 51q-51 -62 -127 -62q-89 0 -135 62.5t-46 177.5q0 112 49.5 174.5t139.5 62.5q71 0 127 -48l26 38h74v-442q0 -240 -206 -240q-90 0 -139.5 42t-45.5 125h105q-1 -35 19.5 -56t60.5 -21q52 0 74.5 34t23.5 102v51zM149 229q0 -135 100 -135q55 0 89 40v194
q-33 33 -88 33q-56 0 -78.5 -34.5t-22.5 -97.5zM188 553l64 181h88l-26 -181h-126z" />
    <glyph glyph-name="gdotaccent.alt" horiz-adv-x="512" 
d="M342 51q-51 -62 -127 -62q-89 0 -135 62.5t-46 177.5q0 112 49.5 174.5t139.5 62.5q71 0 127 -48l26 38h74v-442q0 -240 -206 -240q-90 0 -139.5 42t-45.5 125h105q-1 -35 19.5 -56t60.5 -21q52 0 74.5 34t23.5 102v51zM149 229q0 -135 100 -135q55 0 89 40v194
q-33 33 -88 33q-56 0 -78.5 -34.5t-22.5 -97.5zM265 537q-70 0 -70 67q0 34 19 51.5t51 17.5q29 0 49 -17.5t20 -51.5t-20 -50.5t-49 -16.5z" />
    <glyph glyph-name="q_alt.sc" horiz-adv-x="579" 
d="M528 253q0 -89 -30 -146l52 -36l-57 -79l-56 42q-58 -42 -153 -42q-131 0 -187 72t-56 189q0 263 244 263q68 0 117 -21t75.5 -59t38.5 -83t12 -100zM272 158l54 75l67 -49q7 28 7 69q0 76 -25.5 117.5t-88.5 41.5q-117 0 -117 -159q0 -76 25 -117t91 -41q33 0 54 12z
" />
    <glyph glyph-name="aogonek.alt" horiz-adv-x="527" 
d="M509 104v-104l-79 -52q-29 -19 -29 -38q0 -24 29 -24t59 15l2 -80q-16 -9 -40 -13q-25 -5 -50 -4q-113 3 -113 83q0 30 25 56t92 60q-49 10 -54 60q-45 -74 -131 -74q-90 0 -138 62.5t-48 177.5q0 111 50 174t136 63q72 0 124 -48l18 38h82v-352h65zM149 229
q0 -135 97 -135q55 0 87 40v194q-31 33 -86 33q-98 0 -98 -132z" />
    </font>
</defs>
</svg>
